%TF.GenerationSoftware,KiCad,Pcbnew,9.0.7-9.0.7~ubuntu22.04.1*%
%TF.CreationDate,2026-03-12T12:07:13+02:00*%
%TF.ProjectId,Main Board - NDT,4d61696e-2042-46f6-9172-64202d204e44,rev?*%
%TF.SameCoordinates,Original*%
%TF.FileFunction,Copper,L6,Bot*%
%TF.FilePolarity,Positive*%
%FSLAX46Y46*%
G04 Gerber Fmt 4.6, Leading zero omitted, Abs format (unit mm)*
G04 Created by KiCad (PCBNEW 9.0.7-9.0.7~ubuntu22.04.1) date 2026-03-12 12:07:13*
%MOMM*%
%LPD*%
G01*
G04 APERTURE LIST*
G04 Aperture macros list*
%AMRoundRect*
0 Rectangle with rounded corners*
0 $1 Rounding radius*
0 $2 $3 $4 $5 $6 $7 $8 $9 X,Y pos of 4 corners*
0 Add a 4 corners polygon primitive as box body*
4,1,4,$2,$3,$4,$5,$6,$7,$8,$9,$2,$3,0*
0 Add four circle primitives for the rounded corners*
1,1,$1+$1,$2,$3*
1,1,$1+$1,$4,$5*
1,1,$1+$1,$6,$7*
1,1,$1+$1,$8,$9*
0 Add four rect primitives between the rounded corners*
20,1,$1+$1,$2,$3,$4,$5,0*
20,1,$1+$1,$4,$5,$6,$7,0*
20,1,$1+$1,$6,$7,$8,$9,0*
20,1,$1+$1,$8,$9,$2,$3,0*%
%AMFreePoly0*
4,1,230,1.285236,0.141472,1.286180,0.141000,1.288000,0.141000,1.290236,0.140472,1.291920,0.139630,1.294581,0.138743,1.295236,0.138472,1.296920,0.137630,1.299581,0.136743,1.300236,0.136472,1.302236,0.135472,1.303536,0.134536,1.304964,0.133108,1.306236,0.132472,1.307536,0.131536,1.308964,0.130108,1.310236,0.129472,1.311536,0.128536,1.317536,0.122536,1.318472,0.121236,
1.319108,0.119964,1.320536,0.118536,1.321743,0.116581,1.322369,0.114703,1.323536,0.113536,1.324472,0.112236,1.325472,0.110236,1.325743,0.109581,1.326630,0.106920,1.327472,0.105236,1.328000,0.103000,1.328000,0.101180,1.328472,0.100236,1.329000,0.098000,1.329000,0.096180,1.329472,0.095236,1.330000,0.093000,1.330000,-1.142000,1.329743,-1.143581,1.329000,-1.145810,
1.329000,-1.147000,1.328743,-1.148581,1.328000,-1.150810,1.328000,-1.152000,1.327743,-1.153581,1.326743,-1.156581,1.326472,-1.157236,1.325630,-1.158920,1.324743,-1.161581,1.323536,-1.163536,1.322108,-1.164964,1.321472,-1.166236,1.320536,-1.167536,1.319108,-1.168964,1.318472,-1.170236,1.317536,-1.171536,1.309536,-1.179536,1.308236,-1.180472,1.306964,-1.181108,1.305536,-1.182536,
1.304236,-1.183472,1.302964,-1.184108,1.301536,-1.185536,1.299581,-1.186743,1.296920,-1.187630,1.295236,-1.188472,1.294581,-1.188743,1.291581,-1.189743,1.290000,-1.190000,1.288810,-1.190000,1.286581,-1.190743,1.285000,-1.191000,1.283810,-1.191000,1.281581,-1.191743,1.280000,-1.192000,1.120000,-1.192000,1.118419,-1.191743,1.116190,-1.191000,1.115000,-1.191000,1.113419,-1.190743,
1.111190,-1.190000,1.110000,-1.190000,1.108419,-1.189743,1.105419,-1.188743,1.104764,-1.188472,1.103080,-1.187630,1.100419,-1.186743,1.098464,-1.185536,1.097036,-1.184108,1.095764,-1.183472,1.094464,-1.182536,1.093036,-1.181108,1.091764,-1.180472,1.090464,-1.179536,1.082464,-1.171536,1.081528,-1.170236,1.080892,-1.168964,1.079464,-1.167536,1.078528,-1.166236,1.077892,-1.164964,
1.076464,-1.163536,1.075257,-1.161581,1.074370,-1.158920,1.073528,-1.157236,1.073257,-1.156581,1.072257,-1.153581,1.072000,-1.152000,1.072000,-1.150810,1.071257,-1.148581,1.071000,-1.147000,1.071000,-1.145810,1.070257,-1.143581,1.070000,-1.142000,1.070000,-0.343180,1.069528,-0.342236,1.069000,-0.340000,1.069000,-0.338180,1.068528,-0.337236,1.068000,-0.335000,1.068000,-0.334415,
1.067000,-0.332000,1.067000,-0.331415,1.066757,-0.330829,1.066464,-0.330536,1.065433,-0.328046,1.064892,-0.326964,1.064464,-0.326536,1.063757,-0.324829,1.061464,-0.322536,1.060757,-0.320829,1.056453,-0.316525,0.896464,-0.155536,0.894170,-0.153242,0.892464,-0.152536,0.890596,-0.150668,0.889764,-0.150472,0.887764,-0.149472,0.886464,-0.148536,0.886170,-0.148242,0.884464,-0.147536,
0.883596,-0.146668,0.882764,-0.146472,0.880953,-0.145566,0.879585,-0.145000,0.878000,-0.145000,0.875585,-0.144000,0.875000,-0.144000,0.872764,-0.143472,0.871820,-0.143000,-0.350000,-0.143000,-0.351581,-0.142743,-0.353810,-0.142000,-0.358000,-0.142000,-0.360236,-0.141472,-0.361180,-0.141000,-0.363000,-0.141000,-0.365236,-0.140472,-0.366920,-0.139630,-0.369581,-0.138743,-0.370236,-0.138472,
-0.371920,-0.137630,-0.374581,-0.136743,-0.375236,-0.136472,-0.377236,-0.135472,-0.378536,-0.134536,-0.379964,-0.133108,-0.381236,-0.132472,-0.382536,-0.131536,-0.383964,-0.130108,-0.385236,-0.129472,-0.386536,-0.128536,-0.392536,-0.122536,-0.393472,-0.121236,-0.394108,-0.119964,-0.395536,-0.118536,-0.396472,-0.117236,-0.397332,-0.115516,-0.399160,-0.112774,-0.399472,-0.112236,-0.400472,-0.110236,
-0.400743,-0.109581,-0.401630,-0.106920,-0.402472,-0.105236,-0.403000,-0.103000,-0.403000,-0.101180,-0.403472,-0.100236,-0.404000,-0.098000,-0.404000,-0.096180,-0.404472,-0.095236,-0.405000,-0.093000,-0.405000,0.093000,-0.404472,0.095236,-0.404000,0.096180,-0.404000,0.098000,-0.403472,0.100236,-0.403000,0.101180,-0.403000,0.103000,-0.402472,0.105236,-0.401630,0.106920,-0.400743,0.109581,
-0.400472,0.110236,-0.399472,0.112236,-0.398536,0.113536,-0.397369,0.114703,-0.396743,0.116581,-0.395536,0.118536,-0.394108,0.119964,-0.393472,0.121236,-0.392536,0.122536,-0.386536,0.128536,-0.385236,0.129472,-0.383964,0.130108,-0.382536,0.131536,-0.381236,0.132472,-0.379964,0.133108,-0.378536,0.134536,-0.377236,0.135472,-0.375236,0.136472,-0.374581,0.136743,-0.371920,0.137630,
-0.370236,0.138472,-0.369581,0.138743,-0.366920,0.139630,-0.365236,0.140472,-0.363000,0.141000,-0.361180,0.141000,-0.360236,0.141472,-0.358000,0.142000,1.283000,0.142000,1.285236,0.141472,1.285236,0.141472,$1*%
%AMFreePoly1*
4,1,153,0.480981,0.991903,0.485496,0.991000,0.491000,0.991000,0.491981,0.990903,0.501981,0.988903,0.502857,0.988642,0.517857,0.982642,0.518236,0.982472,0.522052,0.980564,0.526857,0.978642,0.528000,0.978000,0.531798,0.975151,0.536572,0.972287,0.537000,0.972000,0.541000,0.969000,0.541536,0.968536,0.545288,0.964784,0.549000,0.962000,0.550000,0.961000,0.552784,0.957288,
0.556536,0.953536,0.557000,0.953000,0.560000,0.949000,0.560287,0.948572,0.563151,0.943798,0.566000,0.940000,0.566642,0.938857,0.568564,0.934052,0.570472,0.930236,0.570642,0.929857,0.576642,0.914857,0.576903,0.913981,0.578903,0.903981,0.579000,0.903000,0.579000,0.897496,0.579903,0.892981,0.580000,0.892000,0.580000,-0.943000,0.579903,-0.943981,0.579000,-0.948496,
0.579000,-0.954000,0.578903,-0.954981,0.576903,-0.964981,0.576642,-0.965857,0.570642,-0.980857,0.570472,-0.981236,0.568564,-0.985052,0.566642,-0.989857,0.566000,-0.991000,0.563151,-0.994798,0.560287,-0.999572,0.560000,-1.000000,0.557000,-1.004000,0.556536,-1.004536,0.552784,-1.008288,0.550000,-1.012000,0.549000,-1.013000,0.545288,-1.015784,0.541536,-1.019536,0.541000,-1.020000,
0.537000,-1.023000,0.536572,-1.023287,0.531798,-1.026151,0.528000,-1.029000,0.526857,-1.029642,0.522052,-1.031564,0.518236,-1.033472,0.517857,-1.033642,0.502857,-1.039642,0.501981,-1.039903,0.491981,-1.041903,0.491000,-1.042000,0.485496,-1.042000,0.480981,-1.042903,0.480000,-1.043000,-0.830000,-1.043000,-0.830981,-1.042903,-0.835496,-1.042000,-0.841000,-1.042000,-0.841981,-1.041903,
-0.851981,-1.039903,-0.852857,-1.039642,-0.867857,-1.033642,-0.868236,-1.033472,-0.872052,-1.031564,-0.876857,-1.029642,-0.878000,-1.029000,-0.881798,-1.026151,-0.886572,-1.023287,-0.887000,-1.023000,-0.891000,-1.020000,-0.891536,-1.019536,-0.895288,-1.015784,-0.899000,-1.013000,-0.900000,-1.012000,-0.902784,-1.008288,-0.906536,-1.004536,-0.907000,-1.004000,-0.910000,-1.000000,-0.910287,-0.999572,
-0.913151,-0.994798,-0.916000,-0.991000,-0.916642,-0.989857,-0.918564,-0.985052,-0.920472,-0.981236,-0.920642,-0.980857,-0.926642,-0.965857,-0.926903,-0.964981,-0.928903,-0.954981,-0.929000,-0.954000,-0.929000,-0.948496,-0.929903,-0.943981,-0.930000,-0.943000,-0.930000,0.892000,-0.929903,0.892981,-0.929000,0.897496,-0.929000,0.903000,-0.928903,0.903981,-0.926903,0.913981,-0.926642,0.914857,
-0.920642,0.929857,-0.920472,0.930236,-0.918564,0.934052,-0.916642,0.938857,-0.916000,0.940000,-0.913151,0.943798,-0.910287,0.948572,-0.910000,0.949000,-0.907000,0.953000,-0.906536,0.953536,-0.902784,0.957288,-0.900000,0.961000,-0.899000,0.962000,-0.895288,0.964784,-0.891536,0.968536,-0.891000,0.969000,-0.887000,0.972000,-0.886572,0.972287,-0.881798,0.975151,-0.878000,0.978000,
-0.876857,0.978642,-0.872052,0.980564,-0.868236,0.982472,-0.867857,0.982642,-0.852857,0.988642,-0.851981,0.988903,-0.841981,0.990903,-0.841000,0.991000,-0.835496,0.991000,-0.830981,0.991903,-0.830000,0.992000,0.480000,0.992000,0.480981,0.991903,0.480981,0.991903,$1*%
%AMFreePoly2*
4,1,153,0.830981,0.991903,0.835496,0.991000,0.841000,0.991000,0.841981,0.990903,0.851981,0.988903,0.852857,0.988642,0.867857,0.982642,0.868236,0.982472,0.872052,0.980564,0.876857,0.978642,0.878000,0.978000,0.881798,0.975151,0.886572,0.972287,0.887000,0.972000,0.891000,0.969000,0.891536,0.968536,0.895288,0.964784,0.899000,0.962000,0.900000,0.961000,0.902784,0.957288,
0.906536,0.953536,0.907000,0.953000,0.910000,0.949000,0.910287,0.948572,0.913151,0.943798,0.916000,0.940000,0.916642,0.938857,0.918564,0.934052,0.920472,0.930236,0.920642,0.929857,0.926642,0.914857,0.926903,0.913981,0.928903,0.903981,0.929000,0.903000,0.929000,0.897496,0.929903,0.892981,0.930000,0.892000,0.930000,-0.943000,0.929903,-0.943981,0.929000,-0.948496,
0.929000,-0.954000,0.928903,-0.954981,0.926903,-0.964981,0.926642,-0.965857,0.920642,-0.980857,0.920472,-0.981236,0.918564,-0.985052,0.916642,-0.989857,0.916000,-0.991000,0.913151,-0.994798,0.910287,-0.999572,0.910000,-1.000000,0.907000,-1.004000,0.906536,-1.004536,0.902784,-1.008288,0.900000,-1.012000,0.899000,-1.013000,0.895288,-1.015784,0.891536,-1.019536,0.891000,-1.020000,
0.887000,-1.023000,0.886572,-1.023287,0.881798,-1.026151,0.878000,-1.029000,0.876857,-1.029642,0.872052,-1.031564,0.868236,-1.033472,0.867857,-1.033642,0.852857,-1.039642,0.851981,-1.039903,0.841981,-1.041903,0.841000,-1.042000,0.835496,-1.042000,0.830981,-1.042903,0.830000,-1.043000,-0.480000,-1.043000,-0.480981,-1.042903,-0.485496,-1.042000,-0.491000,-1.042000,-0.491981,-1.041903,
-0.501981,-1.039903,-0.502857,-1.039642,-0.517857,-1.033642,-0.518236,-1.033472,-0.522052,-1.031564,-0.526857,-1.029642,-0.528000,-1.029000,-0.531798,-1.026151,-0.536572,-1.023287,-0.537000,-1.023000,-0.541000,-1.020000,-0.541536,-1.019536,-0.545288,-1.015784,-0.549000,-1.013000,-0.550000,-1.012000,-0.552784,-1.008288,-0.556536,-1.004536,-0.557000,-1.004000,-0.560000,-1.000000,-0.560287,-0.999572,
-0.563151,-0.994798,-0.566000,-0.991000,-0.566642,-0.989857,-0.568564,-0.985052,-0.570472,-0.981236,-0.570642,-0.980857,-0.576642,-0.965857,-0.576903,-0.964981,-0.578903,-0.954981,-0.579000,-0.954000,-0.579000,-0.948496,-0.579903,-0.943981,-0.580000,-0.943000,-0.580000,0.892000,-0.579903,0.892981,-0.579000,0.897496,-0.579000,0.903000,-0.578903,0.903981,-0.576903,0.913981,-0.576642,0.914857,
-0.570642,0.929857,-0.570472,0.930236,-0.568564,0.934052,-0.566642,0.938857,-0.566000,0.940000,-0.563151,0.943798,-0.560287,0.948572,-0.560000,0.949000,-0.557000,0.953000,-0.556536,0.953536,-0.552784,0.957288,-0.550000,0.961000,-0.549000,0.962000,-0.545288,0.964784,-0.541536,0.968536,-0.541000,0.969000,-0.537000,0.972000,-0.536572,0.972287,-0.531798,0.975151,-0.528000,0.978000,
-0.526857,0.978642,-0.522052,0.980564,-0.518236,0.982472,-0.517857,0.982642,-0.502857,0.988642,-0.501981,0.988903,-0.491981,0.990903,-0.491000,0.991000,-0.485496,0.991000,-0.480981,0.991903,-0.480000,0.992000,0.830000,0.992000,0.830981,0.991903,0.830981,0.991903,$1*%
%AMFreePoly3*
4,1,153,0.805981,0.429903,0.810496,0.429000,0.816000,0.429000,0.816981,0.428903,0.826981,0.426903,0.827857,0.426642,0.842857,0.420642,0.843236,0.420472,0.847052,0.418564,0.851857,0.416642,0.853000,0.416000,0.856798,0.413151,0.861572,0.410287,0.862000,0.410000,0.866000,0.407000,0.866536,0.406536,0.870288,0.402784,0.874000,0.400000,0.875000,0.399000,0.877784,0.395288,
0.881536,0.391536,0.882000,0.391000,0.885000,0.387000,0.885287,0.386572,0.888151,0.381798,0.891000,0.378000,0.891642,0.376857,0.893564,0.372052,0.895472,0.368236,0.895642,0.367857,0.901642,0.352857,0.901903,0.351981,0.903903,0.341981,0.904000,0.341000,0.904000,0.335496,0.904903,0.330981,0.905000,0.330000,0.905000,-0.330000,0.904903,-0.330981,0.904000,-0.335496,
0.904000,-0.341000,0.903903,-0.341981,0.901903,-0.351981,0.901642,-0.352857,0.895642,-0.367857,0.895472,-0.368236,0.893564,-0.372052,0.891642,-0.376857,0.891000,-0.378000,0.888151,-0.381798,0.885287,-0.386572,0.885000,-0.387000,0.882000,-0.391000,0.881536,-0.391536,0.877784,-0.395288,0.875000,-0.399000,0.874000,-0.400000,0.870288,-0.402784,0.866536,-0.406536,0.866000,-0.407000,
0.862000,-0.410000,0.861572,-0.410287,0.856798,-0.413151,0.853000,-0.416000,0.851857,-0.416642,0.847052,-0.418564,0.843236,-0.420472,0.842857,-0.420642,0.827857,-0.426642,0.826981,-0.426903,0.816981,-0.428903,0.816000,-0.429000,0.810496,-0.429000,0.805981,-0.429903,0.805000,-0.430000,-0.305000,-0.430000,-0.305981,-0.429903,-0.310496,-0.429000,-0.316000,-0.429000,-0.316981,-0.428903,
-0.326981,-0.426903,-0.327857,-0.426642,-0.342857,-0.420642,-0.343236,-0.420472,-0.347052,-0.418564,-0.351857,-0.416642,-0.353000,-0.416000,-0.356798,-0.413151,-0.361572,-0.410287,-0.362000,-0.410000,-0.366000,-0.407000,-0.366536,-0.406536,-0.370288,-0.402784,-0.374000,-0.400000,-0.375000,-0.399000,-0.377784,-0.395288,-0.381536,-0.391536,-0.382000,-0.391000,-0.385000,-0.387000,-0.385287,-0.386572,
-0.388151,-0.381798,-0.391000,-0.378000,-0.391642,-0.376857,-0.393564,-0.372052,-0.395472,-0.368236,-0.395642,-0.367857,-0.401642,-0.352857,-0.401903,-0.351981,-0.403903,-0.341981,-0.404000,-0.341000,-0.404000,-0.335496,-0.404903,-0.330981,-0.405000,-0.330000,-0.405000,0.330000,-0.404903,0.330981,-0.404000,0.335496,-0.404000,0.341000,-0.403903,0.341981,-0.401903,0.351981,-0.401642,0.352857,
-0.395642,0.367857,-0.395472,0.368236,-0.393564,0.372052,-0.391642,0.376857,-0.391000,0.378000,-0.388151,0.381798,-0.385287,0.386572,-0.385000,0.387000,-0.382000,0.391000,-0.381536,0.391536,-0.377784,0.395288,-0.375000,0.399000,-0.374000,0.400000,-0.370288,0.402784,-0.366536,0.406536,-0.366000,0.407000,-0.362000,0.410000,-0.361572,0.410287,-0.356798,0.413151,-0.353000,0.416000,
-0.351857,0.416642,-0.347052,0.418564,-0.343236,0.420472,-0.342857,0.420642,-0.327857,0.426642,-0.326981,0.426903,-0.316981,0.428903,-0.316000,0.429000,-0.310496,0.429000,-0.305981,0.429903,-0.305000,0.430000,0.805000,0.430000,0.805981,0.429903,0.805981,0.429903,$1*%
%AMFreePoly4*
4,1,222,1.006581,0.304743,1.008810,0.304000,1.010000,0.304000,1.011581,0.303743,1.013810,0.303000,1.015000,0.303000,1.016581,0.302743,1.019581,0.301743,1.020236,0.301472,1.021920,0.300630,1.024581,0.299743,1.026536,0.298536,1.027964,0.297108,1.029236,0.296472,1.030536,0.295536,1.031964,0.294108,1.033236,0.293472,1.034536,0.292536,1.042536,0.284536,1.043472,0.283236,
1.044108,0.281964,1.045536,0.280536,1.046472,0.279236,1.047108,0.277964,1.048536,0.276536,1.049743,0.274581,1.050630,0.271920,1.051472,0.270236,1.051743,0.269581,1.052743,0.266581,1.053000,0.265000,1.053000,0.263810,1.053743,0.261581,1.054000,0.260000,1.054000,0.258810,1.054743,0.256581,1.055000,0.255000,1.055000,0.095000,1.054743,0.093419,1.054000,0.091190,
1.054000,0.090000,1.053743,0.088419,1.053000,0.086190,1.053000,0.085000,1.052743,0.083419,1.051743,0.080419,1.051472,0.079764,1.050630,0.078080,1.049743,0.075419,1.048536,0.073464,1.047108,0.072036,1.046472,0.070764,1.045536,0.069464,1.044108,0.068036,1.043472,0.066764,1.042536,0.065464,1.034536,0.057464,1.033236,0.056528,1.031964,0.055892,1.030536,0.054464,
1.029236,0.053528,1.027964,0.052892,1.026536,0.051464,1.024581,0.050257,1.021920,0.049370,1.020236,0.048528,1.019581,0.048257,1.016581,0.047257,1.015000,0.047000,1.013810,0.047000,1.011581,0.046257,1.010000,0.046000,1.008810,0.046000,1.006581,0.045257,1.005000,0.045000,0.270496,0.045000,0.265981,0.044097,0.265000,0.044000,0.259496,0.044000,0.250428,0.042186,
0.236052,0.036436,0.232236,0.034528,0.231857,0.034358,0.227472,0.032604,0.224000,0.030000,0.223572,0.029713,0.218798,0.026849,0.215288,0.024216,0.211536,0.020464,0.211000,0.020000,0.207571,0.017428,0.205000,0.014000,0.204536,0.013464,0.200784,0.009712,0.198151,0.006201,0.195287,0.001428,0.195000,0.001000,0.192396,-0.002472,0.190642,-0.006857,0.190472,-0.007236,
0.188564,-0.011052,0.182813,-0.025428,0.181000,-0.034496,0.181000,-0.040000,0.180903,-0.040981,0.180000,-0.045496,0.180000,-0.255000,0.179743,-0.256581,0.179000,-0.258810,0.179000,-0.260000,0.178743,-0.261581,0.178000,-0.263810,0.178000,-0.265000,0.177743,-0.266581,0.176743,-0.269581,0.176472,-0.270236,0.175630,-0.271920,0.174743,-0.274581,0.173536,-0.276536,0.172108,-0.277964,
0.171472,-0.279236,0.170536,-0.280536,0.169108,-0.281964,0.168472,-0.283236,0.167536,-0.284536,0.159536,-0.292536,0.158236,-0.293472,0.156964,-0.294108,0.155536,-0.295536,0.154236,-0.296472,0.152964,-0.297108,0.151536,-0.298536,0.149581,-0.299743,0.146920,-0.300630,0.145236,-0.301472,0.144581,-0.301743,0.141581,-0.302743,0.140000,-0.303000,0.138810,-0.303000,0.136581,-0.303743,
0.135000,-0.304000,0.133810,-0.304000,0.131581,-0.304743,0.130000,-0.305000,-0.130000,-0.305000,-0.131581,-0.304743,-0.133810,-0.304000,-0.135000,-0.304000,-0.136581,-0.303743,-0.138810,-0.303000,-0.140000,-0.303000,-0.141581,-0.302743,-0.144581,-0.301743,-0.145236,-0.301472,-0.146920,-0.300630,-0.149581,-0.299743,-0.151536,-0.298536,-0.152964,-0.297108,-0.154236,-0.296472,-0.155536,-0.295536,
-0.156964,-0.294108,-0.158236,-0.293472,-0.159536,-0.292536,-0.167536,-0.284536,-0.168472,-0.283236,-0.169108,-0.281964,-0.170536,-0.280536,-0.171472,-0.279236,-0.172108,-0.277964,-0.173536,-0.276536,-0.174743,-0.274581,-0.175630,-0.271920,-0.176472,-0.270236,-0.176743,-0.269581,-0.177743,-0.266581,-0.178000,-0.265000,-0.178000,-0.263810,-0.178743,-0.261581,-0.179000,-0.260000,-0.179000,-0.258810,
-0.179743,-0.256581,-0.180000,-0.255000,-0.180000,0.255000,-0.179743,0.256581,-0.179000,0.258810,-0.179000,0.260000,-0.178743,0.261581,-0.178000,0.263810,-0.178000,0.265000,-0.177743,0.266581,-0.176743,0.269581,-0.176472,0.270236,-0.175630,0.271920,-0.174743,0.274581,-0.173536,0.276536,-0.172108,0.277964,-0.171472,0.279236,-0.170536,0.280536,-0.169108,0.281964,-0.168472,0.283236,
-0.167536,0.284536,-0.159536,0.292536,-0.158236,0.293472,-0.156964,0.294108,-0.155536,0.295536,-0.154236,0.296472,-0.152964,0.297108,-0.151536,0.298536,-0.149581,0.299743,-0.146920,0.300630,-0.145236,0.301472,-0.144581,0.301743,-0.141581,0.302743,-0.140000,0.303000,-0.138810,0.303000,-0.136581,0.303743,-0.135000,0.304000,-0.133810,0.304000,-0.131581,0.304743,-0.130000,0.305000,
1.005000,0.305000,1.006581,0.304743,1.006581,0.304743,$1*%
%AMFreePoly5*
4,1,222,0.131581,0.304743,0.133810,0.304000,0.135000,0.304000,0.136581,0.303743,0.138810,0.303000,0.140000,0.303000,0.141581,0.302743,0.144581,0.301743,0.145236,0.301472,0.146920,0.300630,0.149581,0.299743,0.151536,0.298536,0.152964,0.297108,0.154236,0.296472,0.155536,0.295536,0.156964,0.294108,0.158236,0.293472,0.159536,0.292536,0.167536,0.284536,0.168472,0.283236,
0.169108,0.281964,0.170536,0.280536,0.171472,0.279236,0.172108,0.277964,0.173536,0.276536,0.174743,0.274581,0.175630,0.271920,0.176472,0.270236,0.176743,0.269581,0.177743,0.266581,0.178000,0.265000,0.178000,0.263810,0.178743,0.261581,0.179000,0.260000,0.179000,0.258810,0.179743,0.256581,0.180000,0.255000,0.180000,-0.255000,0.179743,-0.256581,0.179000,-0.258810,
0.179000,-0.260000,0.178743,-0.261581,0.178000,-0.263810,0.178000,-0.265000,0.177743,-0.266581,0.176743,-0.269581,0.176472,-0.270236,0.175630,-0.271920,0.174743,-0.274581,0.173536,-0.276536,0.172108,-0.277964,0.171472,-0.279236,0.170536,-0.280536,0.169108,-0.281964,0.168472,-0.283236,0.167536,-0.284536,0.159536,-0.292536,0.158236,-0.293472,0.156964,-0.294108,0.155536,-0.295536,
0.154236,-0.296472,0.152964,-0.297108,0.151536,-0.298536,0.149581,-0.299743,0.146920,-0.300630,0.145236,-0.301472,0.144581,-0.301743,0.141581,-0.302743,0.140000,-0.303000,0.138810,-0.303000,0.136581,-0.303743,0.135000,-0.304000,0.133810,-0.304000,0.131581,-0.304743,0.130000,-0.305000,-0.130000,-0.305000,-0.131581,-0.304743,-0.133810,-0.304000,-0.135000,-0.304000,-0.136581,-0.303743,
-0.138810,-0.303000,-0.140000,-0.303000,-0.141581,-0.302743,-0.144581,-0.301743,-0.145236,-0.301472,-0.146920,-0.300630,-0.149581,-0.299743,-0.151536,-0.298536,-0.152964,-0.297108,-0.154236,-0.296472,-0.155536,-0.295536,-0.156964,-0.294108,-0.158236,-0.293472,-0.159536,-0.292536,-0.167536,-0.284536,-0.168472,-0.283236,-0.169108,-0.281964,-0.170536,-0.280536,-0.171472,-0.279236,-0.172108,-0.277964,
-0.173536,-0.276536,-0.174743,-0.274581,-0.175630,-0.271920,-0.176472,-0.270236,-0.176743,-0.269581,-0.177743,-0.266581,-0.178000,-0.265000,-0.178000,-0.263810,-0.178743,-0.261581,-0.179000,-0.260000,-0.179000,-0.258810,-0.179743,-0.256581,-0.180000,-0.255000,-0.180000,-0.045496,-0.180903,-0.040981,-0.181000,-0.040000,-0.181000,-0.034496,-0.182813,-0.025428,-0.188564,-0.011052,-0.190472,-0.007236,
-0.190642,-0.006857,-0.192396,-0.002472,-0.195000,0.001000,-0.195287,0.001428,-0.198151,0.006201,-0.200784,0.009712,-0.204536,0.013464,-0.205000,0.014000,-0.207571,0.017428,-0.211000,0.020000,-0.211536,0.020464,-0.215288,0.024216,-0.218798,0.026849,-0.223572,0.029713,-0.224000,0.030000,-0.227472,0.032604,-0.231857,0.034358,-0.232236,0.034528,-0.236052,0.036436,-0.250428,0.042186,
-0.259496,0.044000,-0.265000,0.044000,-0.265981,0.044097,-0.270496,0.045000,-1.005000,0.045000,-1.006581,0.045257,-1.008810,0.046000,-1.010000,0.046000,-1.011581,0.046257,-1.013810,0.047000,-1.015000,0.047000,-1.016581,0.047257,-1.019581,0.048257,-1.020236,0.048528,-1.021920,0.049370,-1.024581,0.050257,-1.026536,0.051464,-1.027964,0.052892,-1.029236,0.053528,-1.030536,0.054464,
-1.031964,0.055892,-1.033236,0.056528,-1.034536,0.057464,-1.042536,0.065464,-1.043472,0.066764,-1.044108,0.068036,-1.045536,0.069464,-1.046472,0.070764,-1.047108,0.072036,-1.048536,0.073464,-1.049743,0.075419,-1.050630,0.078080,-1.051472,0.079764,-1.051743,0.080419,-1.052743,0.083419,-1.053000,0.085000,-1.053000,0.086190,-1.053743,0.088419,-1.054000,0.090000,-1.054000,0.091190,
-1.054743,0.093419,-1.055000,0.095000,-1.055000,0.255000,-1.054743,0.256581,-1.054000,0.258810,-1.054000,0.260000,-1.053743,0.261581,-1.053000,0.263810,-1.053000,0.265000,-1.052743,0.266581,-1.051743,0.269581,-1.051472,0.270236,-1.050630,0.271920,-1.049743,0.274581,-1.048536,0.276536,-1.047108,0.277964,-1.046472,0.279236,-1.045536,0.280536,-1.044108,0.281964,-1.043472,0.283236,
-1.042536,0.284536,-1.034536,0.292536,-1.033236,0.293472,-1.031964,0.294108,-1.030536,0.295536,-1.029236,0.296472,-1.027964,0.297108,-1.026536,0.298536,-1.024581,0.299743,-1.021920,0.300630,-1.020236,0.301472,-1.019581,0.301743,-1.016581,0.302743,-1.015000,0.303000,-1.013810,0.303000,-1.011581,0.303743,-1.010000,0.304000,-1.008810,0.304000,-1.006581,0.304743,-1.005000,0.305000,
0.130000,0.305000,0.131581,0.304743,0.131581,0.304743,$1*%
G04 Aperture macros list end*
%TA.AperFunction,ComponentPad*%
%ADD10C,1.750000*%
%TD*%
%TA.AperFunction,ComponentPad*%
%ADD11C,2.500000*%
%TD*%
%TA.AperFunction,ComponentPad*%
%ADD12C,2.600000*%
%TD*%
%TA.AperFunction,ComponentPad*%
%ADD13C,2.100000*%
%TD*%
%TA.AperFunction,ComponentPad*%
%ADD14RoundRect,0.250001X1.149999X-1.149999X1.149999X1.149999X-1.149999X1.149999X-1.149999X-1.149999X0*%
%TD*%
%TA.AperFunction,ComponentPad*%
%ADD15C,2.800000*%
%TD*%
%TA.AperFunction,ComponentPad*%
%ADD16R,1.700000X1.700000*%
%TD*%
%TA.AperFunction,ComponentPad*%
%ADD17C,1.700000*%
%TD*%
%TA.AperFunction,ComponentPad*%
%ADD18RoundRect,0.250001X-1.149999X1.149999X-1.149999X-1.149999X1.149999X-1.149999X1.149999X1.149999X0*%
%TD*%
%TA.AperFunction,ComponentPad*%
%ADD19RoundRect,0.250001X-1.149999X-1.149999X1.149999X-1.149999X1.149999X1.149999X-1.149999X1.149999X0*%
%TD*%
%TA.AperFunction,SMDPad,CuDef*%
%ADD20RoundRect,0.250000X-0.250000X-0.475000X0.250000X-0.475000X0.250000X0.475000X-0.250000X0.475000X0*%
%TD*%
%TA.AperFunction,SMDPad,CuDef*%
%ADD21RoundRect,0.200000X-0.200000X-0.275000X0.200000X-0.275000X0.200000X0.275000X-0.200000X0.275000X0*%
%TD*%
%TA.AperFunction,SMDPad,CuDef*%
%ADD22RoundRect,0.200000X-0.275000X0.200000X-0.275000X-0.200000X0.275000X-0.200000X0.275000X0.200000X0*%
%TD*%
%TA.AperFunction,SMDPad,CuDef*%
%ADD23RoundRect,0.250000X-0.475000X0.250000X-0.475000X-0.250000X0.475000X-0.250000X0.475000X0.250000X0*%
%TD*%
%TA.AperFunction,SMDPad,CuDef*%
%ADD24RoundRect,0.375000X-0.625000X-0.375000X0.625000X-0.375000X0.625000X0.375000X-0.625000X0.375000X0*%
%TD*%
%TA.AperFunction,SMDPad,CuDef*%
%ADD25RoundRect,1.400000X-1.400000X-2.000000X1.400000X-2.000000X1.400000X2.000000X-1.400000X2.000000X0*%
%TD*%
%TA.AperFunction,SMDPad,CuDef*%
%ADD26RoundRect,0.200000X0.200000X0.275000X-0.200000X0.275000X-0.200000X-0.275000X0.200000X-0.275000X0*%
%TD*%
%TA.AperFunction,SMDPad,CuDef*%
%ADD27RoundRect,0.250000X0.475000X-0.250000X0.475000X0.250000X-0.475000X0.250000X-0.475000X-0.250000X0*%
%TD*%
%TA.AperFunction,SMDPad,CuDef*%
%ADD28RoundRect,0.225000X-0.225000X-0.250000X0.225000X-0.250000X0.225000X0.250000X-0.225000X0.250000X0*%
%TD*%
%TA.AperFunction,SMDPad,CuDef*%
%ADD29R,2.200000X1.450000*%
%TD*%
%TA.AperFunction,SMDPad,CuDef*%
%ADD30R,0.254800X0.807999*%
%TD*%
%TA.AperFunction,SMDPad,CuDef*%
%ADD31R,1.701800X0.304800*%
%TD*%
%TA.AperFunction,SMDPad,CuDef*%
%ADD32RoundRect,0.200000X0.275000X-0.200000X0.275000X0.200000X-0.275000X0.200000X-0.275000X-0.200000X0*%
%TD*%
%TA.AperFunction,SMDPad,CuDef*%
%ADD33RoundRect,0.050000X-0.075000X0.350000X-0.075000X-0.350000X0.075000X-0.350000X0.075000X0.350000X0*%
%TD*%
%TA.AperFunction,SMDPad,CuDef*%
%ADD34FreePoly0,270.000000*%
%TD*%
%TA.AperFunction,SMDPad,CuDef*%
%ADD35FreePoly1,270.000000*%
%TD*%
%TA.AperFunction,ComponentPad*%
%ADD36C,0.400000*%
%TD*%
%TA.AperFunction,SMDPad,CuDef*%
%ADD37FreePoly2,270.000000*%
%TD*%
%TA.AperFunction,SMDPad,CuDef*%
%ADD38FreePoly3,270.000000*%
%TD*%
%TA.AperFunction,SMDPad,CuDef*%
%ADD39FreePoly4,270.000000*%
%TD*%
%TA.AperFunction,SMDPad,CuDef*%
%ADD40RoundRect,0.049500X-0.225500X0.100500X-0.225500X-0.100500X0.225500X-0.100500X0.225500X0.100500X0*%
%TD*%
%TA.AperFunction,SMDPad,CuDef*%
%ADD41FreePoly5,270.000000*%
%TD*%
%TA.AperFunction,SMDPad,CuDef*%
%ADD42RoundRect,0.225000X-0.250000X0.225000X-0.250000X-0.225000X0.250000X-0.225000X0.250000X0.225000X0*%
%TD*%
%TA.AperFunction,SMDPad,CuDef*%
%ADD43RoundRect,0.225000X0.250000X-0.225000X0.250000X0.225000X-0.250000X0.225000X-0.250000X-0.225000X0*%
%TD*%
%TA.AperFunction,SMDPad,CuDef*%
%ADD44RoundRect,0.225000X0.225000X0.250000X-0.225000X0.250000X-0.225000X-0.250000X0.225000X-0.250000X0*%
%TD*%
%TA.AperFunction,SMDPad,CuDef*%
%ADD45RoundRect,0.225000X0.017678X-0.335876X0.335876X-0.017678X-0.017678X0.335876X-0.335876X0.017678X0*%
%TD*%
%TA.AperFunction,SMDPad,CuDef*%
%ADD46RoundRect,0.375000X0.375000X-0.625000X0.375000X0.625000X-0.375000X0.625000X-0.375000X-0.625000X0*%
%TD*%
%TA.AperFunction,SMDPad,CuDef*%
%ADD47RoundRect,1.375000X2.025000X-1.375000X2.025000X1.375000X-2.025000X1.375000X-2.025000X-1.375000X0*%
%TD*%
%TA.AperFunction,SMDPad,CuDef*%
%ADD48RoundRect,0.250000X0.250000X0.475000X-0.250000X0.475000X-0.250000X-0.475000X0.250000X-0.475000X0*%
%TD*%
%TA.AperFunction,SMDPad,CuDef*%
%ADD49RoundRect,0.218750X0.381250X-0.218750X0.381250X0.218750X-0.381250X0.218750X-0.381250X-0.218750X0*%
%TD*%
%TA.AperFunction,SMDPad,CuDef*%
%ADD50RoundRect,0.075000X-0.910000X-0.225000X0.910000X-0.225000X0.910000X0.225000X-0.910000X0.225000X0*%
%TD*%
%TA.AperFunction,ViaPad*%
%ADD51C,0.600000*%
%TD*%
%TA.AperFunction,ViaPad*%
%ADD52C,0.500000*%
%TD*%
%TA.AperFunction,Conductor*%
%ADD53C,0.500000*%
%TD*%
%TA.AperFunction,Conductor*%
%ADD54C,0.300000*%
%TD*%
%TA.AperFunction,Conductor*%
%ADD55C,0.200000*%
%TD*%
%TA.AperFunction,Conductor*%
%ADD56C,1.000000*%
%TD*%
%TA.AperFunction,Conductor*%
%ADD57C,0.150000*%
%TD*%
G04 APERTURE END LIST*
D10*
%TO.P,J202,1*%
%TO.N,/MCU/I2C2_SCL*%
X163595000Y-98825000D03*
%TO.P,J202,2*%
%TO.N,/MCU/I2C2_SDA*%
X161595000Y-98825000D03*
%TD*%
%TO.P,UART4,1*%
%TO.N,/MCU/UART4_RX*%
X173525400Y-116685000D03*
%TO.P,UART4,2*%
%TO.N,/MCU/UART4_TX*%
X173525400Y-114685000D03*
%TD*%
%TO.P,UART1,1*%
%TO.N,/MCU/UART1_RX*%
X125037700Y-114095000D03*
%TO.P,UART1,2*%
%TO.N,/MCU/UART1_TX*%
X125037700Y-116095000D03*
%TD*%
D11*
%TO.P,J303,1*%
%TO.N,/RF/PA_SE*%
X152500000Y-140000000D03*
D12*
%TO.P,J303,2*%
%TO.N,GND*%
X155040000Y-142540000D03*
X155040000Y-137460000D03*
X149960000Y-142540000D03*
X149960000Y-137460000D03*
%TD*%
D13*
%TO.P,PRESSURE,1*%
%TO.N,/MCU/I2C1_SDA*%
X131200000Y-130389000D03*
%TO.P,PRESSURE,2*%
%TO.N,/MCU/I2C1_SCL*%
X131200000Y-127889000D03*
%TO.P,PRESSURE,3*%
%TO.N,GND*%
X131200000Y-125389000D03*
%TO.P,PRESSURE,4*%
%TO.N,MCU_3V3_VFD*%
X131200000Y-122889000D03*
%TD*%
%TO.P,HUMIDITY,1*%
%TO.N,/MCU/I2C1_SCL*%
X131182000Y-112732000D03*
%TO.P,HUMIDITY,2*%
%TO.N,GND*%
X131182000Y-110232000D03*
%TO.P,HUMIDITY,3*%
%TO.N,/MCU/I2C1_SDA*%
X131182000Y-107732000D03*
%TO.P,HUMIDITY,4*%
%TO.N,MCU_3V3_VFD*%
X131182000Y-105232000D03*
%TD*%
D14*
%TO.P,J503,1,Pin_1*%
%TO.N,GND*%
X176167500Y-108250000D03*
D15*
%TO.P,J503,2,Pin_2*%
%TO.N,Net-(J503-Pin_2)*%
X176167500Y-103250000D03*
%TD*%
D10*
%TO.P,J602,1*%
%TO.N,3V3_F*%
X157103000Y-98843000D03*
%TO.P,J602,2*%
%TO.N,Net-(J602-Pad2)*%
X155103000Y-98843000D03*
%TD*%
%TO.P,UART2,1*%
%TO.N,/MCU/UART2_RX*%
X125037700Y-121545000D03*
%TO.P,UART2,2*%
%TO.N,/MCU/UART2_TX*%
X125037700Y-123545000D03*
%TD*%
%TO.P,J601,1*%
%TO.N,Net-(J601-Pad1)*%
X134116000Y-98716000D03*
%TO.P,J601,2*%
%TO.N,3V3_F*%
X132116000Y-98716000D03*
%TD*%
D14*
%TO.P,J504,1,Pin_1*%
%TO.N,Net-(J504-Pin_1)*%
X176175400Y-134600000D03*
D15*
%TO.P,J504,2,Pin_2*%
%TO.N,GND*%
X176175400Y-129600000D03*
%TD*%
D11*
%TO.P,J301,1*%
%TO.N,/RF/2.4_GHZ_SE*%
X134860000Y-139940000D03*
D12*
%TO.P,J301,2*%
%TO.N,GND*%
X137400000Y-142480000D03*
X137400000Y-137400000D03*
X132320000Y-142480000D03*
X132320000Y-137400000D03*
%TD*%
D16*
%TO.P,J201,1,Pin_1*%
%TO.N,/MCU/JTAG_TMS*%
X150876000Y-93472000D03*
D17*
%TO.P,J201,2,Pin_2*%
%TO.N,/MCU/JTAG_TCK*%
X148336000Y-93472000D03*
%TO.P,J201,3,Pin_3*%
%TO.N,/MCU/JTAG_TDO*%
X145796000Y-93472000D03*
%TO.P,J201,4,Pin_4*%
%TO.N,/MCU/JTAG_TDI*%
X143256000Y-93472000D03*
%TO.P,J201,5,Pin_5*%
%TO.N,/MCU/SWO*%
X140716000Y-93472000D03*
%TO.P,J201,6,Pin_6*%
%TO.N,/MCU/RESET*%
X138176000Y-93472000D03*
%TD*%
D18*
%TO.P,J502,1,Pin_1*%
%TO.N,GND*%
X122300000Y-129900000D03*
D15*
%TO.P,J502,2,Pin_2*%
%TO.N,Net-(J502-Pin_2)*%
X122300000Y-134900000D03*
%TD*%
D19*
%TO.P,J505,1,Pin_1*%
%TO.N,Net-(J505-Pin_1)*%
X160850000Y-142867500D03*
D15*
%TO.P,J505,2,Pin_2*%
%TO.N,GND*%
X165850000Y-142867500D03*
%TD*%
D10*
%TO.P,UART3,1*%
%TO.N,/MCU/UART3_TX*%
X173525400Y-124020000D03*
%TO.P,UART3,2*%
%TO.N,/MCU/UART3_RX*%
X173525400Y-122020000D03*
%TD*%
D18*
%TO.P,J501,1,Pin_1*%
%TO.N,Net-(J501-Pin_1)*%
X122387700Y-103350000D03*
D15*
%TO.P,J501,2,Pin_2*%
%TO.N,GND*%
X122387700Y-108350000D03*
%TD*%
D11*
%TO.P,J302,1*%
%TO.N,/RF/SUB_GHZ_SE*%
X143600000Y-140000000D03*
D12*
%TO.P,J302,2*%
%TO.N,GND*%
X146140000Y-142540000D03*
X146140000Y-137460000D03*
X141060000Y-142540000D03*
X141060000Y-137460000D03*
%TD*%
D20*
%TO.P,C204,1*%
%TO.N,MCU_VDDR*%
X148420389Y-121539000D03*
%TO.P,C204,2*%
%TO.N,GND*%
X150320389Y-121539000D03*
%TD*%
D21*
%TO.P,R607,1*%
%TO.N,Net-(R606-Pad1)*%
X150175000Y-101225000D03*
%TO.P,R607,2*%
%TO.N,3V3_F*%
X151825000Y-101225000D03*
%TD*%
D20*
%TO.P,C506,1*%
%TO.N,+5V*%
X167850000Y-120000000D03*
%TO.P,C506,2*%
%TO.N,GND*%
X169750000Y-120000000D03*
%TD*%
D22*
%TO.P,R503,1*%
%TO.N,Net-(PS501-MODE)*%
X161800000Y-126400000D03*
%TO.P,R503,2*%
%TO.N,GND*%
X161800000Y-128050000D03*
%TD*%
D23*
%TO.P,C502,1*%
%TO.N,+12V_VFD*%
X165800000Y-128275000D03*
%TO.P,C502,2*%
%TO.N,GND*%
X165800000Y-130175000D03*
%TD*%
D24*
%TO.P,U501,1,IN*%
%TO.N,+5V_VFD*%
X164650000Y-114100000D03*
%TO.P,U501,2,GND*%
%TO.N,GND*%
X164650000Y-111800000D03*
D25*
X169100000Y-111800000D03*
D24*
%TO.P,U501,3,OUT*%
%TO.N,3V3*%
X164650000Y-109500000D03*
%TD*%
D26*
%TO.P,R505,1*%
%TO.N,+5V*%
X166179000Y-121920000D03*
%TO.P,R505,2*%
%TO.N,/Power/5V_FB*%
X164529000Y-121920000D03*
%TD*%
D27*
%TO.P,C512,1*%
%TO.N,3V3_F*%
X151638000Y-106995000D03*
%TO.P,C512,2*%
%TO.N,GND*%
X151638000Y-105095000D03*
%TD*%
D26*
%TO.P,R602,1*%
%TO.N,Net-(R602-Pad1)*%
X137650000Y-104025000D03*
%TO.P,R602,2*%
%TO.N,3V3_F*%
X136000000Y-104025000D03*
%TD*%
D22*
%TO.P,R606,1*%
%TO.N,Net-(R606-Pad1)*%
X148600000Y-101200000D03*
%TO.P,R606,2*%
%TO.N,/MCU/AmbientTemp*%
X148600000Y-102850000D03*
%TD*%
D28*
%TO.P,C209,1*%
%TO.N,MCU_3V3_VFD*%
X145656000Y-117729000D03*
%TO.P,C209,2*%
%TO.N,GND*%
X147206000Y-117729000D03*
%TD*%
D29*
%TO.P,Pipe,1*%
%TO.N,/MCU/PipeTemp*%
X141400000Y-106225000D03*
%TD*%
D30*
%TO.P,U401,1,CS#*%
%TO.N,/MCU/CS_MEM*%
X157976001Y-120690800D03*
%TO.P,U401,2,SO/SIO1*%
%TO.N,/MCU/MISO*%
X157476000Y-120690800D03*
%TO.P,U401,3,WP#/SIO2*%
%TO.N,/MCU/WP_MEM*%
X156976000Y-120690800D03*
%TO.P,U401,4,GND*%
%TO.N,GND*%
X156475999Y-120690800D03*
%TO.P,U401,5,SI/SIO0*%
%TO.N,/MCU/MOSI*%
X156475999Y-117800000D03*
%TO.P,U401,6,SCLK*%
%TO.N,/MCU/SCLK*%
X156976000Y-117800000D03*
%TO.P,U401,7,RESET#/SIO3*%
%TO.N,/MCU/RST_MEM*%
X157476000Y-117800000D03*
%TO.P,U401,8,VCC*%
%TO.N,MEM_3V3_VFD*%
X157976001Y-117800000D03*
D31*
%TO.P,U401,9,EPAD*%
%TO.N,GND*%
X157226000Y-119245400D03*
%TD*%
D22*
%TO.P,R604,1*%
%TO.N,Net-(R602-Pad1)*%
X139200000Y-102412500D03*
%TO.P,R604,2*%
%TO.N,/MCU/PipeTemp*%
X139200000Y-104062500D03*
%TD*%
%TO.P,R611,1*%
%TO.N,GND*%
X148600000Y-98200000D03*
%TO.P,R611,2*%
%TO.N,Net-(J602-Pad2)*%
X148600000Y-99850000D03*
%TD*%
D32*
%TO.P,R501,1*%
%TO.N,+12V_VFD*%
X161800000Y-124675000D03*
%TO.P,R501,2*%
%TO.N,Net-(PS501-EN)*%
X161800000Y-123025000D03*
%TD*%
D26*
%TO.P,R608,1*%
%TO.N,GND*%
X151825000Y-102825000D03*
%TO.P,R608,2*%
%TO.N,Net-(R606-Pad1)*%
X150175000Y-102825000D03*
%TD*%
D21*
%TO.P,R603,1*%
%TO.N,GND*%
X135975000Y-102425000D03*
%TO.P,R603,2*%
%TO.N,Net-(R602-Pad1)*%
X137625000Y-102425000D03*
%TD*%
D32*
%TO.P,R506,1*%
%TO.N,/Power/5V_FB*%
X163068000Y-121475000D03*
%TO.P,R506,2*%
%TO.N,GND*%
X163068000Y-119825000D03*
%TD*%
D33*
%TO.P,PS501,1,EN*%
%TO.N,Net-(PS501-EN)*%
X163875000Y-123775000D03*
%TO.P,PS501,2,FB*%
%TO.N,/Power/5V_FB*%
X164375000Y-123775000D03*
D34*
%TO.P,PS501,3,GND*%
%TO.N,GND*%
X164887000Y-123775000D03*
D35*
%TO.P,PS501,4,VOUT*%
%TO.N,+5V*%
X166463000Y-124250000D03*
D36*
%TO.P,PS501,4_1*%
X165675000Y-123925000D03*
%TO.P,PS501,4_2*%
X166463000Y-123925000D03*
%TO.P,PS501,4_3*%
X167250000Y-123925000D03*
%TO.P,PS501,4_4*%
X165675000Y-124575000D03*
%TO.P,PS501,4_5*%
X166463000Y-124575000D03*
%TO.P,PS501,4_6*%
X167250000Y-124575000D03*
D37*
%TO.P,PS501,5,SW*%
%TO.N,unconnected-(PS501-SW-Pad5)*%
X166463000Y-126200000D03*
D36*
%TO.P,PS501,5_1*%
%TO.N,N/C*%
X165675000Y-126525000D03*
%TO.P,PS501,5_2*%
X166463000Y-126525000D03*
%TO.P,PS501,5_3*%
X167250000Y-126525000D03*
%TO.P,PS501,5_4*%
X165675000Y-125875000D03*
%TO.P,PS501,5_5*%
X166463000Y-125875000D03*
%TO.P,PS501,5_6*%
X167250000Y-125875000D03*
D38*
%TO.P,PS501,6,VIN*%
%TO.N,+12V_VFD*%
X164125000Y-126225000D03*
D39*
%TO.P,PS501,7,MODE*%
%TO.N,Net-(PS501-MODE)*%
X163200000Y-126025000D03*
D40*
%TO.P,PS501,8,SS/PG*%
%TO.N,unconnected-(PS501-SS{slash}PG-Pad8)*%
X163175000Y-125000000D03*
D41*
%TO.P,PS501,9,RT/SYNC*%
%TO.N,GND*%
X163200000Y-124425000D03*
%TD*%
D42*
%TO.P,C401,1*%
%TO.N,MEM_3V3_VFD*%
X159800000Y-118225000D03*
%TO.P,C401,2*%
%TO.N,GND*%
X159800000Y-119775000D03*
%TD*%
D27*
%TO.P,C509,1*%
%TO.N,+5V_VFD*%
X162300000Y-114950000D03*
%TO.P,C509,2*%
%TO.N,GND*%
X162300000Y-113050000D03*
%TD*%
D43*
%TO.P,C613,1*%
%TO.N,GND*%
X129010000Y-124981000D03*
%TO.P,C613,2*%
%TO.N,MCU_3V3_VFD*%
X129010000Y-123431000D03*
%TD*%
D29*
%TO.P,Amb,1*%
%TO.N,/MCU/AmbientTemp*%
X149225000Y-105025000D03*
%TD*%
D23*
%TO.P,C503,1*%
%TO.N,+12V_VFD*%
X163800000Y-128275000D03*
%TO.P,C503,2*%
%TO.N,GND*%
X163800000Y-130175000D03*
%TD*%
D20*
%TO.P,C507,1*%
%TO.N,+5V*%
X167850000Y-122000000D03*
%TO.P,C507,2*%
%TO.N,GND*%
X169750000Y-122000000D03*
%TD*%
D42*
%TO.P,C501,1*%
%TO.N,+12V_VFD*%
X167600000Y-128250000D03*
%TO.P,C501,2*%
%TO.N,GND*%
X167600000Y-129800000D03*
%TD*%
D44*
%TO.P,C211,1*%
%TO.N,MCU_3V3_VFD*%
X153429000Y-120650000D03*
%TO.P,C211,2*%
%TO.N,GND*%
X151879000Y-120650000D03*
%TD*%
D45*
%TO.P,C208,1*%
%TO.N,GND*%
X144485992Y-122722008D03*
%TO.P,C208,2*%
%TO.N,MCU_VDDR*%
X145582008Y-121625992D03*
%TD*%
D44*
%TO.P,C508,1*%
%TO.N,+5V*%
X166350000Y-120396000D03*
%TO.P,C508,2*%
%TO.N,GND*%
X164800000Y-120396000D03*
%TD*%
D21*
%TO.P,R204,1*%
%TO.N,MCU_3V3_VFD*%
X152972000Y-119126000D03*
%TO.P,R204,2*%
%TO.N,/MCU/I2C2_SCL*%
X154622000Y-119126000D03*
%TD*%
D44*
%TO.P,C205,1*%
%TO.N,GND*%
X150254000Y-119634000D03*
%TO.P,C205,2*%
%TO.N,MCU_VDDR*%
X148704000Y-119634000D03*
%TD*%
D46*
%TO.P,U502,1,IN*%
%TO.N,+5V_VFD*%
X158623000Y-111250000D03*
%TO.P,U502,2,GND*%
%TO.N,GND*%
X156323000Y-111250000D03*
D47*
X156323000Y-106650000D03*
D46*
%TO.P,U502,3,OUT*%
%TO.N,3V3_F*%
X154023000Y-111250000D03*
%TD*%
D28*
%TO.P,C210,1*%
%TO.N,MCU_3V3_VFD*%
X147434000Y-111760000D03*
%TO.P,C210,2*%
%TO.N,GND*%
X148984000Y-111760000D03*
%TD*%
D44*
%TO.P,C203,1*%
%TO.N,DCOUPL*%
X153095893Y-114468915D03*
%TO.P,C203,2*%
%TO.N,GND*%
X151545893Y-114468915D03*
%TD*%
D42*
%TO.P,C614,1*%
%TO.N,GND*%
X128982000Y-103746000D03*
%TO.P,C614,2*%
%TO.N,MCU_3V3_VFD*%
X128982000Y-105296000D03*
%TD*%
D21*
%TO.P,R203,1*%
%TO.N,MCU_3V3_VFD*%
X152845000Y-117602000D03*
%TO.P,R203,2*%
%TO.N,/MCU/I2C2_SDA*%
X154495000Y-117602000D03*
%TD*%
D28*
%TO.P,C601,1*%
%TO.N,GND*%
X144850000Y-105225000D03*
%TO.P,C601,2*%
%TO.N,3V3_F*%
X146400000Y-105225000D03*
%TD*%
D48*
%TO.P,C510,1*%
%TO.N,+5V_VFD*%
X159446000Y-113665000D03*
%TO.P,C510,2*%
%TO.N,GND*%
X157546000Y-113665000D03*
%TD*%
D44*
%TO.P,C212,1*%
%TO.N,MCU_3V3_VFD*%
X153175000Y-115951000D03*
%TO.P,C212,2*%
%TO.N,GND*%
X151625000Y-115951000D03*
%TD*%
D48*
%TO.P,C505,1*%
%TO.N,+5V*%
X166250000Y-118110000D03*
%TO.P,C505,2*%
%TO.N,GND*%
X164350000Y-118110000D03*
%TD*%
D22*
%TO.P,R601,1*%
%TO.N,GND*%
X139200000Y-99412500D03*
%TO.P,R601,2*%
%TO.N,Net-(J601-Pad1)*%
X139200000Y-101062500D03*
%TD*%
D23*
%TO.P,C511,1*%
%TO.N,3V3*%
X162300000Y-109650000D03*
%TO.P,C511,2*%
%TO.N,GND*%
X162300000Y-111550000D03*
%TD*%
D49*
%TO.P,L201,1,1*%
%TO.N,MCU_VDDR*%
X148844000Y-118200000D03*
%TO.P,L201,2,2*%
%TO.N,Net-(U201B-DCDC_SW)*%
X148844000Y-116075000D03*
%TD*%
D26*
%TO.P,R502,1*%
%TO.N,Net-(PS501-EN)*%
X160337000Y-123063000D03*
%TO.P,R502,2*%
%TO.N,GND*%
X158687000Y-123063000D03*
%TD*%
D50*
%TO.P,U602,1*%
%TO.N,/MCU/PipeTemp*%
X141570000Y-103662500D03*
%TO.P,U602,2*%
%TO.N,Net-(R602-Pad1)*%
X141570000Y-102392500D03*
%TO.P,U602,3*%
%TO.N,Net-(J601-Pad1)*%
X141570000Y-101122500D03*
%TO.P,U602,4,V-*%
%TO.N,GND*%
X141570000Y-99852500D03*
%TO.P,U602,5*%
%TO.N,Net-(J602-Pad2)*%
X146510000Y-99852500D03*
%TO.P,U602,6*%
%TO.N,Net-(R606-Pad1)*%
X146510000Y-101122500D03*
%TO.P,U602,7*%
%TO.N,/MCU/AmbientTemp*%
X146510000Y-102392500D03*
%TO.P,U602,8,V+*%
%TO.N,3V3_F*%
X146510000Y-103662500D03*
%TD*%
D51*
%TO.N,GND*%
X144373600Y-134823200D03*
X157607000Y-108204000D03*
X155575000Y-107061000D03*
X138684000Y-98806000D03*
X138651332Y-132181600D03*
X169799000Y-113157000D03*
X170815000Y-110490000D03*
X163700000Y-119100000D03*
X163195000Y-123571000D03*
X157099000Y-101219000D03*
X170815000Y-111379000D03*
X155956000Y-126492000D03*
X157226000Y-113284000D03*
X151079200Y-132486400D03*
X153416000Y-100584000D03*
X144384000Y-132943600D03*
X156591000Y-105029000D03*
X157607000Y-128016000D03*
X142113000Y-117348000D03*
X157607000Y-107061000D03*
X152349200Y-133756400D03*
X148590000Y-98171000D03*
X170815000Y-113157000D03*
X169799000Y-112268000D03*
X164719000Y-124968000D03*
X169799000Y-109601000D03*
X143510000Y-120269000D03*
X150241000Y-117475000D03*
X155575000Y-105029000D03*
X163350000Y-105975000D03*
X155575000Y-106045000D03*
X165100000Y-122809000D03*
X144526000Y-122682000D03*
X167250000Y-113750000D03*
X156591000Y-107061000D03*
X170815000Y-109601000D03*
X130048000Y-101346000D03*
X161798000Y-128016000D03*
X152146000Y-104775000D03*
X162306000Y-111633000D03*
X164084000Y-124968000D03*
X129032000Y-103759000D03*
X170942000Y-121920000D03*
X169799000Y-124841000D03*
X151257000Y-117475000D03*
X170688000Y-131318000D03*
X168783000Y-110490000D03*
X156083000Y-121285000D03*
X154813000Y-122174000D03*
X170561000Y-129032000D03*
X144893975Y-105169025D03*
X157607000Y-106045000D03*
X163195000Y-124271003D03*
X159792474Y-121898151D03*
X156591000Y-108204000D03*
X129000000Y-125000000D03*
X157607000Y-105029000D03*
X154305000Y-106680000D03*
X168783000Y-109601000D03*
X141732000Y-122555000D03*
X150241000Y-118491000D03*
X169799000Y-110490000D03*
X168783000Y-112268000D03*
X140208000Y-120396000D03*
X151257000Y-103632000D03*
X135255000Y-101854000D03*
X170815000Y-112268000D03*
X138684000Y-134010400D03*
X147193000Y-118200000D03*
X169799000Y-111379000D03*
X168783000Y-111379000D03*
X141478000Y-98933000D03*
X156591000Y-106045000D03*
X171000000Y-119400000D03*
X151257000Y-118491000D03*
X151003000Y-124841000D03*
X168783000Y-113157000D03*
%TO.N,+5V_VFD*%
X164650000Y-114100000D03*
X161900000Y-106000000D03*
%TO.N,3V3*%
X163671084Y-107791084D03*
%TO.N,MCU_3V3_VFD*%
X144730901Y-118518405D03*
X154527993Y-115882999D03*
X147574000Y-112522000D03*
X143637000Y-111760000D03*
X138049000Y-113157000D03*
X146685001Y-108965999D03*
X138435375Y-116142855D03*
X142113000Y-111760000D03*
X153797000Y-121031000D03*
X138430000Y-117729000D03*
X150622000Y-108966000D03*
X155067000Y-115316000D03*
X148844000Y-109093000D03*
%TO.N,DCOUPL*%
X154178000Y-114427000D03*
%TO.N,MCU_VDDR*%
X145415000Y-121158000D03*
X145118119Y-119275086D03*
%TO.N,MEM_3V3_VFD*%
X158115000Y-124968000D03*
X159575000Y-116713000D03*
%TO.N,3V3_F*%
X147320000Y-105664000D03*
X154686000Y-110363000D03*
X154686000Y-111125000D03*
X154305000Y-100838000D03*
X136017000Y-105029000D03*
X152146000Y-106807000D03*
X152781000Y-101600000D03*
%TO.N,+12V*%
X172466000Y-142748000D03*
X128270000Y-142748000D03*
X127254000Y-97790000D03*
X168995000Y-134112000D03*
X171450000Y-96774000D03*
X128270000Y-140208000D03*
X125984000Y-96520000D03*
X169926000Y-140208000D03*
X166765000Y-131025000D03*
X127000000Y-140208000D03*
D52*
X164900000Y-131000000D03*
D51*
X167725000Y-135382000D03*
X168785000Y-131265000D03*
X128524000Y-97790000D03*
X172466000Y-141478000D03*
X169926000Y-142748000D03*
X167725000Y-134112000D03*
X170265000Y-134112000D03*
X127254000Y-95250000D03*
X127000000Y-142748000D03*
X170265000Y-135382000D03*
X171196000Y-140208000D03*
X171450000Y-98044000D03*
X125984000Y-97790000D03*
X170180000Y-95504000D03*
X125730000Y-141478000D03*
X125984000Y-95250000D03*
X128270000Y-141478000D03*
X171450000Y-95504000D03*
X172720000Y-98044000D03*
X171196000Y-141478000D03*
X167725000Y-136652000D03*
X170265000Y-136652000D03*
X168995000Y-136652000D03*
X128524000Y-95250000D03*
X171196000Y-142748000D03*
X127000000Y-141478000D03*
X170180000Y-98044000D03*
X168995000Y-135382000D03*
X128524000Y-96520000D03*
X170180000Y-96774000D03*
X125730000Y-142748000D03*
X127254000Y-96520000D03*
X125730000Y-140208000D03*
X172720000Y-96774000D03*
X172720000Y-95504000D03*
X172466000Y-140208000D03*
X169926000Y-141478000D03*
%TO.N,+12V_VFD*%
X160655000Y-129794000D03*
X161925000Y-131064000D03*
X161925000Y-129794000D03*
%TO.N,+5V*%
X166250000Y-116500000D03*
%TO.N,/MCU/UART3_TX*%
X140970000Y-117729000D03*
X143891000Y-117856000D03*
%TO.N,/MCU/UART3_RX*%
X140970000Y-116205000D03*
%TO.N,/MCU/UART4_RX*%
X142494000Y-114300000D03*
%TO.N,/MCU/UART4_TX*%
X144272000Y-114046000D03*
%TO.N,/MCU/UART2_TX*%
X147320000Y-110616000D03*
%TO.N,/MCU/UART2_RX*%
X148361182Y-110617000D03*
%TO.N,/MCU/UART1_RX*%
X152271425Y-110566575D03*
%TO.N,/MCU/UART1_TX*%
X150495000Y-110744000D03*
%TO.N,/MCU/I2C1_SDA*%
X141351000Y-114286062D03*
%TO.N,/MCU/I2C1_SCL*%
X139827000Y-114681000D03*
%TO.N,/MCU/I2C2_SCL*%
X155448000Y-117150252D03*
%TO.N,/MCU/I2C2_SDA*%
X155448000Y-116205000D03*
%TO.N,/MCU/RST_MEM*%
X157929636Y-116891353D03*
%TO.N,/MCU/WP_MEM*%
X156972000Y-121539000D03*
%TO.N,/MCU/PipeTemp*%
X141351000Y-106045000D03*
%TO.N,Net-(U201B-DCDC_SW)*%
X148322411Y-113284000D03*
%TO.N,Net-(U201A-DIO_5)*%
X152527000Y-122431716D03*
X156718000Y-126111000D03*
%TO.N,/MCU/AmbientTemp*%
X149800000Y-104600000D03*
%TO.N,/MCU/MISO*%
X157861000Y-121594801D03*
%TO.N,/MCU/SCLK*%
X157200923Y-116386579D03*
D52*
%TO.N,/MCU/SWO*%
X151612778Y-112729729D03*
%TO.N,/MCU/JTAG_TMS*%
X154686000Y-112776000D03*
%TO.N,/MCU/JTAG_TDI*%
X152317987Y-112700773D03*
%TO.N,/MCU/JTAG_TDO*%
X153075240Y-112750000D03*
D51*
%TO.N,/MCU/RESET*%
X147104000Y-113177455D03*
%TO.N,/MCU/CS_MEM*%
X158750000Y-121412000D03*
%TO.N,/MCU/MOSI*%
X156464000Y-116959472D03*
D52*
%TO.N,/MCU/JTAG_TCK*%
X153845380Y-112697380D03*
%TD*%
D53*
%TO.N,GND*%
X139200000Y-99412500D02*
X139200000Y-99322000D01*
X141570000Y-99852500D02*
X140262254Y-99852500D01*
X167600000Y-129800000D02*
X168006515Y-129800000D01*
X157226000Y-119245400D02*
X156344600Y-119245400D01*
X168006515Y-129800000D02*
X168706884Y-129800000D01*
D54*
X149693652Y-113473253D02*
X150088600Y-113868200D01*
X164887000Y-123775000D02*
X164887000Y-123323227D01*
D53*
X135720641Y-102319641D02*
X135255000Y-101854000D01*
X151656001Y-103232998D02*
X151257000Y-103632000D01*
X157226000Y-119245400D02*
X158521432Y-119245400D01*
X155575000Y-120015000D02*
X155575000Y-120777000D01*
D55*
X156475999Y-120690800D02*
X156475999Y-120892001D01*
D53*
X148600000Y-98200000D02*
X148590000Y-98190000D01*
X148590000Y-98190000D02*
X148590000Y-98171000D01*
X139200000Y-99322000D02*
X138684000Y-98806000D01*
X170798575Y-120003442D02*
X171000000Y-119802017D01*
X169750000Y-122000000D02*
X169750000Y-120000000D01*
D54*
X158728984Y-122961640D02*
X159792474Y-121898151D01*
D53*
X162306000Y-111633000D02*
X163978790Y-111633000D01*
X164650000Y-111800000D02*
X169067431Y-111800000D01*
X169750000Y-122000000D02*
X169986863Y-122000000D01*
X141570000Y-99852500D02*
X141570000Y-99525497D01*
X167600000Y-129800000D02*
X166767330Y-129800000D01*
X163800000Y-130175000D02*
X165989000Y-130175000D01*
X169986863Y-122000000D02*
X170748863Y-122000000D01*
D56*
X156591000Y-108204000D02*
X156591000Y-110511790D01*
D53*
X141570000Y-99525497D02*
X141570000Y-99155108D01*
X171000000Y-119802017D02*
X171000000Y-119400000D01*
X162300000Y-113050000D02*
X162300000Y-111647485D01*
X169750000Y-120000000D02*
X170778787Y-120000000D01*
X151825000Y-102825000D02*
G75*
G02*
X151656002Y-103232999I-577000J0D01*
G01*
X141570000Y-99155108D02*
G75*
G03*
X141478002Y-98932998I-314100J8D01*
G01*
D54*
X164887000Y-123323227D02*
G75*
G02*
X165099992Y-122808992I727200J27D01*
G01*
D53*
X170778787Y-120000000D02*
G75*
G02*
X170798572Y-120003452I-1687J-68100D01*
G01*
X156344600Y-119245400D02*
G75*
G03*
X155575000Y-120015000I0J-769600D01*
G01*
X169067431Y-111800000D02*
G75*
G03*
X169163991Y-111759991I-31J136600D01*
G01*
X135975000Y-102425000D02*
G75*
G02*
X135720645Y-102319637I0J359700D01*
G01*
D56*
X156591000Y-110511790D02*
G75*
G02*
X156337003Y-111125003I-867200J-10D01*
G01*
D53*
X157364118Y-104950000D02*
G75*
G03*
X157479995Y-104901995I-18J163900D01*
G01*
X158521432Y-119245400D02*
G75*
G02*
X159799990Y-119775010I-32J-1808200D01*
G01*
X168706884Y-129800000D02*
G75*
G03*
X170561005Y-129032005I16J2622100D01*
G01*
X155575000Y-120777000D02*
G75*
G03*
X156083000Y-121285000I508000J0D01*
G01*
X170748863Y-122000000D02*
G75*
G03*
X170942011Y-121920011I37J273100D01*
G01*
D54*
X148984000Y-111760000D02*
G75*
G03*
X149693653Y-113473252I2422900J0D01*
G01*
D53*
X162300000Y-111647485D02*
G75*
G02*
X162306004Y-111633004I20500J-15D01*
G01*
D54*
X158687000Y-123063000D02*
G75*
G02*
X158728994Y-122961650I143300J0D01*
G01*
D53*
X140262254Y-99852500D02*
G75*
G02*
X139200034Y-99412466I46J1502200D01*
G01*
X153207538Y-104207538D02*
G75*
G03*
X155000000Y-104950007I1792462J1792438D01*
G01*
D55*
X156475999Y-120892001D02*
G75*
G02*
X156083000Y-121284999I-392999J1D01*
G01*
D53*
X166767330Y-129800000D02*
G75*
G03*
X165861991Y-130174991I-30J-1280300D01*
G01*
X163978790Y-111633000D02*
G75*
G02*
X164592003Y-111886997I10J-867200D01*
G01*
X155000000Y-106841752D02*
G75*
G02*
X155067014Y-106680014I228800J-48D01*
G01*
%TO.N,+5V_VFD*%
X158623000Y-111250000D02*
X160504878Y-109368122D01*
X162300000Y-114950000D02*
X162267818Y-114950000D01*
X159446000Y-113665000D02*
X159446000Y-113238898D01*
X162300000Y-114950000D02*
X162597918Y-114950000D01*
X159644305Y-113863306D02*
X159446000Y-113665000D01*
X162267818Y-114950000D02*
G75*
G02*
X159644298Y-113863313I-18J3710200D01*
G01*
X159446000Y-113238898D02*
G75*
G03*
X158622999Y-111252001I-2809900J-2D01*
G01*
X162597918Y-114950000D02*
G75*
G03*
X164649995Y-114099995I-18J2902100D01*
G01*
X160504878Y-109368122D02*
G75*
G03*
X161900013Y-106000000I-3368078J3368122D01*
G01*
D56*
%TO.N,3V3*%
X164650000Y-109500000D02*
X164650000Y-108770000D01*
X164650000Y-108770000D02*
X163671084Y-107791084D01*
X164650000Y-109500000D02*
X162450000Y-109500000D01*
X162450000Y-109500000D02*
X162300000Y-109650000D01*
X164650000Y-109500000D02*
X164650000Y-109285630D01*
%TO.N,MCU_3V3_VFD*%
X131200000Y-122889000D02*
X130318504Y-122889000D01*
D53*
X153175000Y-115951000D02*
X154363824Y-115951000D01*
D54*
X152781000Y-118692395D02*
X152781000Y-117602000D01*
X152781000Y-117602000D02*
X152781000Y-117475000D01*
D57*
X147574000Y-112522000D02*
X147574000Y-112394431D01*
D53*
X128982000Y-105296000D02*
X130853010Y-105296000D01*
D54*
X152908000Y-119392195D02*
X152908000Y-118999000D01*
X152781000Y-117475000D02*
X152781000Y-117177420D01*
X147574000Y-111646000D02*
X147574000Y-112522000D01*
D57*
X144962545Y-118422455D02*
X145656000Y-117729000D01*
D54*
X153429000Y-120650000D02*
G75*
G02*
X152908002Y-119392195I1257800J1257800D01*
G01*
D56*
X130318504Y-122889000D02*
G75*
G03*
X129009999Y-123430999I-4J-1850500D01*
G01*
D53*
X154363824Y-115951000D02*
G75*
G03*
X154527987Y-115882993I-24J232200D01*
G01*
D57*
X144730901Y-118518405D02*
G75*
G03*
X144962547Y-118422457I-1J327605D01*
G01*
D54*
X152781000Y-117177420D02*
G75*
G02*
X153288994Y-115950994I1734400J20D01*
G01*
D53*
X130853010Y-105296000D02*
G75*
G03*
X131190997Y-105155997I-10J478000D01*
G01*
D54*
X152908000Y-118999000D02*
G75*
G02*
X152781002Y-118692395I306600J306600D01*
G01*
D53*
%TO.N,DCOUPL*%
X154178000Y-114427000D02*
X153197085Y-114427000D01*
X153197085Y-114427000D02*
G75*
G03*
X153095902Y-114468924I15J-143100D01*
G01*
%TO.N,MEM_3V3_VFD*%
X159800000Y-118225000D02*
X159800000Y-116938000D01*
D55*
X159800000Y-118225000D02*
X158401001Y-118225000D01*
X158401001Y-118225000D02*
G75*
G02*
X157976000Y-117800000I-1J425000D01*
G01*
D53*
X159800000Y-116938000D02*
G75*
G03*
X159575000Y-116713000I-225000J0D01*
G01*
D54*
%TO.N,3V3_F*%
X146510000Y-103662500D02*
X146510000Y-104959437D01*
D53*
X152781000Y-101600000D02*
X152730330Y-101600000D01*
X136000000Y-105012000D02*
X136017000Y-105029000D01*
D54*
X147221119Y-105565118D02*
X147320000Y-105664000D01*
D53*
X136000000Y-104025000D02*
X136000000Y-105012000D01*
D54*
X146510000Y-104959437D02*
G75*
G02*
X146399989Y-105224989I-375600J37D01*
G01*
D53*
X152730330Y-101600000D02*
G75*
G02*
X151824991Y-101225009I-30J1280300D01*
G01*
D54*
X146400000Y-105225000D02*
G75*
G02*
X147221111Y-105565126I0J-1161200D01*
G01*
D56*
%TO.N,+5V*%
X166250000Y-118364000D02*
X166250000Y-116500000D01*
D54*
%TO.N,/MCU/UART2_TX*%
X135763000Y-117094000D02*
X135763000Y-114173000D01*
X139320000Y-110616000D02*
X147320000Y-110616000D01*
X131445000Y-119380000D02*
X133477000Y-119380000D01*
X127254000Y-123571000D02*
X131445000Y-119380000D01*
X133477000Y-119380000D02*
X135763000Y-117094000D01*
X125095000Y-123571000D02*
X127254000Y-123571000D01*
X135763000Y-114173000D02*
X139320000Y-110616000D01*
%TO.N,/MCU/UART2_RX*%
X127000000Y-121539000D02*
X124968000Y-121539000D01*
X138684000Y-109855000D02*
X134874000Y-113665000D01*
X129921000Y-118618000D02*
X127000000Y-121539000D01*
X134874000Y-116967000D02*
X133223000Y-118618000D01*
X147599182Y-109855000D02*
X138684000Y-109855000D01*
X133223000Y-118618000D02*
X129921000Y-118618000D01*
X148361182Y-110617000D02*
X147599182Y-109855000D01*
X134874000Y-113665000D02*
X134874000Y-116967000D01*
%TO.N,/MCU/UART1_RX*%
X152271425Y-110566575D02*
X152095575Y-110566575D01*
X133096000Y-112903000D02*
X133096000Y-113919000D01*
X138557000Y-107442000D02*
X133096000Y-112903000D01*
X151384000Y-108585000D02*
X150241000Y-107442000D01*
X133096000Y-113919000D02*
X132842000Y-114173000D01*
X125222000Y-114173000D02*
X125095000Y-114046000D01*
X132842000Y-114173000D02*
X125222000Y-114173000D01*
X152095575Y-110566575D02*
X151384000Y-109855000D01*
X151384000Y-109855000D02*
X151384000Y-108585000D01*
X150241000Y-107442000D02*
X138557000Y-107442000D01*
%TO.N,/MCU/UART1_TX*%
X138938000Y-108204000D02*
X133985000Y-113157000D01*
X133985000Y-114935000D02*
X132842000Y-116078000D01*
X149733000Y-108712000D02*
X149225000Y-108204000D01*
X149225000Y-108204000D02*
X138938000Y-108204000D01*
X133985000Y-113157000D02*
X133985000Y-114935000D01*
X149733000Y-109982000D02*
X149733000Y-108712000D01*
X132842000Y-116078000D02*
X124968000Y-116078000D01*
X150495000Y-110744000D02*
X149733000Y-109982000D01*
D55*
%TO.N,/MCU/I2C2_SCL*%
X155575000Y-118184394D02*
X155575000Y-117456857D01*
X155164860Y-118901140D02*
X155358197Y-118707803D01*
X155358197Y-118707803D02*
G75*
G03*
X155574999Y-118184394I-523397J523403D01*
G01*
X154622000Y-119126000D02*
G75*
G03*
X155164856Y-118901136I0J767700D01*
G01*
X155575000Y-117456857D02*
G75*
G03*
X155447978Y-117150275I-433600J-43D01*
G01*
%TO.N,/MCU/I2C2_SDA*%
X154813000Y-116713000D02*
X155231197Y-116294803D01*
X154495000Y-117602000D02*
X154495000Y-117480720D01*
X155231197Y-116294803D02*
G75*
G02*
X155448000Y-116204998I216803J-216797D01*
G01*
X154495000Y-117480720D02*
G75*
G02*
X154812994Y-116712994I1085700J20D01*
G01*
D53*
%TO.N,Net-(J601-Pad1)*%
X139205945Y-101122500D02*
X141570000Y-101122500D01*
X133780000Y-98875000D02*
G75*
G03*
X139205945Y-101122452I5425900J5426000D01*
G01*
%TO.N,Net-(PS501-MODE)*%
X161800000Y-126400000D02*
X162294670Y-126400000D01*
X162294670Y-126400000D02*
G75*
G03*
X163200009Y-126025009I30J1280300D01*
G01*
D55*
%TO.N,Net-(PS501-EN)*%
X163875000Y-123775000D02*
X163875000Y-123489000D01*
X163322000Y-122936000D02*
X161889000Y-122936000D01*
X160337000Y-123063000D02*
X161762000Y-123063000D01*
X161889000Y-122936000D02*
G75*
G03*
X161800000Y-123025000I0J-89000D01*
G01*
X161762000Y-123063000D02*
G75*
G03*
X161800000Y-123025000I0J38000D01*
G01*
X163875000Y-123489000D02*
G75*
G03*
X163322000Y-122936000I-553000J0D01*
G01*
D54*
%TO.N,/Power/5V_FB*%
X164375000Y-123775000D02*
X164375000Y-122137279D01*
X163068000Y-121475000D02*
X163390675Y-121475000D01*
X163390675Y-121475000D02*
G75*
G02*
X164465007Y-121919993I25J-1519300D01*
G01*
X164375000Y-122137279D02*
G75*
G02*
X164465006Y-121920006I307300J-21D01*
G01*
D55*
%TO.N,/MCU/RST_MEM*%
X157476000Y-117344989D02*
X157929636Y-116891353D01*
X157476000Y-117800000D02*
X157476000Y-117344989D01*
%TO.N,/MCU/WP_MEM*%
X156972000Y-121539000D02*
X156972000Y-120694800D01*
X156972000Y-120694800D02*
G75*
G02*
X156976000Y-120690800I4000J0D01*
G01*
D53*
%TO.N,Net-(J602-Pad2)*%
X146510000Y-99852500D02*
X150959751Y-99852500D01*
X150959751Y-99852500D02*
X151353946Y-99852500D01*
X153573815Y-98933000D02*
X154940000Y-98933000D01*
X151353946Y-99852500D02*
G75*
G03*
X152653987Y-99313987I-46J1838600D01*
G01*
X152654000Y-99314000D02*
G75*
G02*
X153573815Y-98933006I919800J-919800D01*
G01*
%TO.N,/MCU/PipeTemp*%
X140208000Y-105156000D02*
X140208000Y-104521000D01*
X141400000Y-106225000D02*
X141277000Y-106225000D01*
X141066500Y-103662500D02*
X141570000Y-103662500D01*
X139749500Y-104062500D02*
X139200000Y-104062500D01*
X140208000Y-104521000D02*
X139749500Y-104062500D01*
X140208000Y-104521000D02*
X141066500Y-103662500D01*
X141277000Y-106225000D02*
X140208000Y-105156000D01*
%TO.N,Net-(U201B-DCDC_SW)*%
X148844000Y-116075000D02*
X148844000Y-114543227D01*
X148844000Y-114543227D02*
G75*
G03*
X148322421Y-113283990I-1780800J27D01*
G01*
%TO.N,/MCU/AmbientTemp*%
X146510000Y-102392500D02*
X147495497Y-102392500D01*
X149208566Y-104600000D02*
X149800000Y-104600000D01*
X149185768Y-104577202D02*
X149208566Y-104600000D01*
X147495497Y-102392500D02*
G75*
G02*
X148600001Y-102849999I3J-1562000D01*
G01*
X148600000Y-102850000D02*
G75*
G03*
X149185746Y-104577219I2841800J800D01*
G01*
D55*
%TO.N,/MCU/MISO*%
X157837642Y-121431450D02*
X157815462Y-121393033D01*
X157861000Y-121539000D02*
X157860517Y-121516820D01*
X157860517Y-121516820D02*
X157852814Y-121473134D01*
X157861000Y-121594801D02*
X157861000Y-121539000D01*
X157476000Y-121053571D02*
X157476000Y-120690800D01*
X157852814Y-121473134D02*
X157837642Y-121431450D01*
X157815462Y-121393033D02*
G75*
G02*
X157476067Y-121053571I38J339433D01*
G01*
D53*
%TO.N,Net-(R602-Pad1)*%
X137650000Y-102450000D02*
X137625000Y-102425000D01*
X137625000Y-102425000D02*
X141537500Y-102425000D01*
X137650000Y-104025000D02*
X137650000Y-102450000D01*
X141537500Y-102425000D02*
X141570000Y-102392500D01*
D55*
%TO.N,/MCU/SCLK*%
X156976000Y-117800000D02*
X156976000Y-117279304D01*
X156976000Y-117279304D02*
X157246961Y-117008343D01*
X157246961Y-117008343D02*
X157246961Y-116432617D01*
X157246961Y-116432617D02*
X157200923Y-116386579D01*
D53*
%TO.N,Net-(R606-Pad1)*%
X150175000Y-102825000D02*
X150175000Y-101225000D01*
X146510000Y-101122500D02*
X149927543Y-101122500D01*
X149927543Y-101122500D02*
G75*
G02*
X150174987Y-101225013I-43J-350000D01*
G01*
D55*
%TO.N,/MCU/CS_MEM*%
X157976001Y-120690800D02*
X158028800Y-120690800D01*
X158028800Y-120690800D02*
G75*
G02*
X158750000Y-121412000I0J-721200D01*
G01*
%TO.N,/MCU/MOSI*%
X156475999Y-117800000D02*
X156475999Y-116971471D01*
X156475999Y-116971471D02*
G75*
G03*
X156464000Y-116959501I-11999J-29D01*
G01*
%TD*%
%TA.AperFunction,Conductor*%
%TO.N,+12V_VFD*%
G36*
X162194677Y-124225685D02*
G01*
X162215319Y-124242319D01*
X162348181Y-124375181D01*
X162381666Y-124436504D01*
X162384500Y-124462862D01*
X162384500Y-124555007D01*
X162391023Y-124635955D01*
X162391536Y-124639114D01*
X162391961Y-124641196D01*
X162392053Y-124641650D01*
X162392498Y-124643876D01*
X162392537Y-124644115D01*
X162392585Y-124644310D01*
X162393053Y-124646650D01*
X162393050Y-124646682D01*
X162393132Y-124647130D01*
X162393536Y-124649115D01*
X162409154Y-124712574D01*
X162409007Y-124759914D01*
X162411062Y-124760161D01*
X162410114Y-124768054D01*
X162410114Y-124768055D01*
X162399500Y-124856440D01*
X162399500Y-125143560D01*
X162409280Y-125225000D01*
X162410114Y-125231944D01*
X162467411Y-125377242D01*
X162473692Y-125446828D01*
X162441355Y-125508764D01*
X162380666Y-125543385D01*
X162315168Y-125541117D01*
X162202196Y-125505914D01*
X162202194Y-125505913D01*
X162202192Y-125505913D01*
X162152778Y-125501423D01*
X162131616Y-125499500D01*
X161468384Y-125499500D01*
X161449145Y-125501248D01*
X161397807Y-125505913D01*
X161235393Y-125556522D01*
X161089811Y-125644530D01*
X160969530Y-125764811D01*
X160881522Y-125910393D01*
X160830913Y-126072807D01*
X160824500Y-126143386D01*
X160824500Y-126656613D01*
X160830913Y-126727192D01*
X160881522Y-126889606D01*
X160969530Y-127035188D01*
X161071661Y-127137319D01*
X161105146Y-127198642D01*
X161100162Y-127268334D01*
X161071661Y-127312681D01*
X160969531Y-127414810D01*
X160969530Y-127414811D01*
X160881522Y-127560393D01*
X160830913Y-127722807D01*
X160824500Y-127793386D01*
X160824500Y-128306613D01*
X160830913Y-128377192D01*
X160881522Y-128539606D01*
X160969530Y-128685188D01*
X161089811Y-128805469D01*
X161089813Y-128805470D01*
X161089815Y-128805472D01*
X161235394Y-128893478D01*
X161397804Y-128944086D01*
X161468384Y-128950500D01*
X161468387Y-128950500D01*
X162131613Y-128950500D01*
X162131616Y-128950500D01*
X162202196Y-128944086D01*
X162364606Y-128893478D01*
X162510185Y-128805472D01*
X162630472Y-128685185D01*
X162718478Y-128539606D01*
X162769086Y-128377196D01*
X162775500Y-128306616D01*
X162775500Y-127793384D01*
X162769086Y-127722804D01*
X162722835Y-127574379D01*
X162722834Y-127574289D01*
X162722784Y-127574214D01*
X162722259Y-127539310D01*
X162721686Y-127504523D01*
X162721734Y-127504444D01*
X162721733Y-127504352D01*
X162740186Y-127474664D01*
X162758487Y-127445130D01*
X162758570Y-127445090D01*
X162758619Y-127445012D01*
X162789799Y-127430202D01*
X162821556Y-127415062D01*
X162821649Y-127415073D01*
X162821731Y-127415035D01*
X162855963Y-127419431D01*
X162890869Y-127423865D01*
X162890970Y-127423928D01*
X162891031Y-127423936D01*
X162896777Y-127427531D01*
X162921006Y-127442569D01*
X162921216Y-127442745D01*
X162966384Y-127481173D01*
X162968983Y-127483046D01*
X162969247Y-127483205D01*
X162970384Y-127484173D01*
X162972971Y-127486037D01*
X162972993Y-127486053D01*
X162985905Y-127493863D01*
X162991871Y-127497708D01*
X162995351Y-127500095D01*
X163004164Y-127507070D01*
X163008073Y-127509486D01*
X163011118Y-127510911D01*
X163018046Y-127515663D01*
X163019017Y-127516854D01*
X163051464Y-127533078D01*
X163052314Y-127533466D01*
X163083966Y-127547917D01*
X163085276Y-127548460D01*
X163085287Y-127548464D01*
X163085294Y-127548467D01*
X163118973Y-127561042D01*
X163118984Y-127561045D01*
X163118985Y-127561046D01*
X163121985Y-127562046D01*
X163171429Y-127574214D01*
X163200888Y-127581464D01*
X163202530Y-127581798D01*
X163203342Y-127581945D01*
X163205676Y-127582411D01*
X163205885Y-127582463D01*
X163206140Y-127582504D01*
X163208360Y-127582948D01*
X163208390Y-127582963D01*
X163208852Y-127583048D01*
X163210870Y-127583459D01*
X163210885Y-127583463D01*
X163213256Y-127583847D01*
X163214046Y-127583976D01*
X163294992Y-127590500D01*
X163295000Y-127590500D01*
X163455008Y-127590500D01*
X163501258Y-127586772D01*
X163535953Y-127583976D01*
X163539115Y-127583463D01*
X163539119Y-127583461D01*
X163539131Y-127583460D01*
X163541145Y-127583049D01*
X163541632Y-127582950D01*
X163543865Y-127582503D01*
X163544115Y-127582463D01*
X163544318Y-127582412D01*
X163546653Y-127581946D01*
X163546686Y-127581948D01*
X163547048Y-127581883D01*
X163549079Y-127581468D01*
X163549115Y-127581463D01*
X163628015Y-127562046D01*
X163631015Y-127561046D01*
X163632762Y-127560394D01*
X163664729Y-127548458D01*
X163665667Y-127548069D01*
X163666034Y-127547917D01*
X163698538Y-127533077D01*
X163699900Y-127532396D01*
X163699899Y-127532395D01*
X163729065Y-127517813D01*
X163731961Y-127515659D01*
X163738884Y-127510909D01*
X163741927Y-127509486D01*
X163745836Y-127507070D01*
X163754638Y-127500102D01*
X163758128Y-127497709D01*
X163758932Y-127497446D01*
X163764094Y-127493863D01*
X163777017Y-127486046D01*
X163778770Y-127484783D01*
X163779750Y-127484077D01*
X163783515Y-127481245D01*
X163783616Y-127481173D01*
X163845513Y-127428513D01*
X163853513Y-127420513D01*
X163906173Y-127358616D01*
X163908046Y-127356017D01*
X163908205Y-127355752D01*
X163909173Y-127354616D01*
X163911046Y-127352017D01*
X163919982Y-127337243D01*
X163921145Y-127335464D01*
X163921729Y-127334965D01*
X163927739Y-127326308D01*
X163932067Y-127320840D01*
X163932067Y-127320839D01*
X163932070Y-127320836D01*
X163934486Y-127316927D01*
X163934486Y-127316925D01*
X163936378Y-127313866D01*
X163937428Y-127314515D01*
X163937751Y-127314190D01*
X163957395Y-127274899D01*
X163957396Y-127274900D01*
X163958077Y-127273538D01*
X163972917Y-127241034D01*
X163973460Y-127239724D01*
X163986046Y-127206015D01*
X163987046Y-127203015D01*
X164006463Y-127124115D01*
X164006468Y-127124078D01*
X164006810Y-127122404D01*
X164006946Y-127121653D01*
X164007412Y-127119318D01*
X164007463Y-127119115D01*
X164007503Y-127118865D01*
X164007950Y-127116632D01*
X164007965Y-127116602D01*
X164008049Y-127116145D01*
X164008460Y-127114131D01*
X164008463Y-127114115D01*
X164008976Y-127110953D01*
X164015082Y-127035188D01*
X164015500Y-127030007D01*
X164015500Y-125892500D01*
X164035185Y-125825461D01*
X164087989Y-125779706D01*
X164139500Y-125768500D01*
X164162844Y-125768500D01*
X164162845Y-125768499D01*
X164317497Y-125737737D01*
X164350721Y-125723974D01*
X164370598Y-125721837D01*
X164389328Y-125714852D01*
X164404624Y-125718179D01*
X164420191Y-125716506D01*
X164438068Y-125725454D01*
X164457601Y-125729704D01*
X164479889Y-125746389D01*
X164482670Y-125747781D01*
X164485855Y-125750855D01*
X164555681Y-125820681D01*
X164589166Y-125882004D01*
X164592000Y-125908362D01*
X164592000Y-127000000D01*
X164973000Y-127381000D01*
X164973001Y-127381000D01*
X164995788Y-127390439D01*
X164995651Y-127390768D01*
X165025921Y-127398635D01*
X165027902Y-127400297D01*
X165029223Y-127400685D01*
X165053306Y-127420900D01*
X165056009Y-127423829D01*
X165057140Y-127425230D01*
X165058069Y-127426301D01*
X165082042Y-127452036D01*
X165082254Y-127452265D01*
X165082269Y-127452295D01*
X165084799Y-127455109D01*
X165088550Y-127459433D01*
X165088564Y-127459448D01*
X165090552Y-127461436D01*
X165090572Y-127461455D01*
X165094881Y-127465192D01*
X165098122Y-127468104D01*
X165123699Y-127491931D01*
X165124770Y-127492860D01*
X165142378Y-127507070D01*
X165152715Y-127515412D01*
X165154889Y-127517042D01*
X165156700Y-127518400D01*
X165177903Y-127533466D01*
X165178758Y-127534041D01*
X165200805Y-127548054D01*
X165205364Y-127550789D01*
X165205364Y-127550788D01*
X165211458Y-127554444D01*
X165211464Y-127554448D01*
X165215481Y-127556858D01*
X165221301Y-127560653D01*
X165223587Y-127561938D01*
X165225373Y-127562792D01*
X165231851Y-127566679D01*
X165231852Y-127566680D01*
X165234941Y-127568533D01*
X165243476Y-127572084D01*
X165253480Y-127577086D01*
X165263407Y-127581798D01*
X165272139Y-127585943D01*
X165272897Y-127586284D01*
X165292548Y-127594630D01*
X165292556Y-127594633D01*
X165292565Y-127594637D01*
X165307515Y-127600617D01*
X165307524Y-127600620D01*
X165307548Y-127600630D01*
X165307563Y-127600635D01*
X165307573Y-127600639D01*
X165331074Y-127608811D01*
X165351275Y-127615837D01*
X165353028Y-127616358D01*
X165353044Y-127616362D01*
X165353055Y-127616365D01*
X165397889Y-127627487D01*
X165397894Y-127627488D01*
X165397902Y-127627490D01*
X165407902Y-127629490D01*
X165457273Y-127636850D01*
X165458456Y-127636967D01*
X165459222Y-127637043D01*
X165459229Y-127637043D01*
X165459234Y-127637044D01*
X165459238Y-127637044D01*
X165460750Y-127637156D01*
X165460747Y-127637191D01*
X165466745Y-127637709D01*
X165466747Y-127637699D01*
X165467555Y-127637779D01*
X165468054Y-127637822D01*
X165468243Y-127637845D01*
X165468273Y-127637850D01*
X165470234Y-127638044D01*
X165496462Y-127639338D01*
X165519971Y-127640499D01*
X165519992Y-127640499D01*
X165520000Y-127640500D01*
X165520005Y-127640500D01*
X167354995Y-127640500D01*
X167355000Y-127640500D01*
X167355007Y-127640499D01*
X167355028Y-127640499D01*
X167375845Y-127639471D01*
X167404766Y-127638044D01*
X167404790Y-127638041D01*
X167404800Y-127638041D01*
X167405620Y-127637959D01*
X167406727Y-127637850D01*
X167406755Y-127637845D01*
X167406977Y-127637819D01*
X167407511Y-127637772D01*
X167408257Y-127637699D01*
X167408257Y-127637708D01*
X167414254Y-127637189D01*
X167414252Y-127637156D01*
X167415738Y-127637045D01*
X167415766Y-127637044D01*
X167417727Y-127636850D01*
X167467098Y-127629490D01*
X167477098Y-127627490D01*
X167521972Y-127616358D01*
X167523725Y-127615837D01*
X167567452Y-127600630D01*
X167582452Y-127594630D01*
X167602103Y-127586284D01*
X167602861Y-127585943D01*
X167621538Y-127577077D01*
X167625160Y-127575266D01*
X167625159Y-127575265D01*
X167631593Y-127572049D01*
X167651484Y-127562104D01*
X167655313Y-127560189D01*
X167663582Y-127554420D01*
X167669635Y-127550788D01*
X167669636Y-127550789D01*
X167674195Y-127548054D01*
X167696242Y-127534041D01*
X167697097Y-127533466D01*
X167718300Y-127518400D01*
X167722300Y-127515400D01*
X167734674Y-127505413D01*
X167799203Y-127478630D01*
X167867972Y-127490986D01*
X167900229Y-127514229D01*
X168365681Y-127979681D01*
X168399166Y-128041004D01*
X168402000Y-128067362D01*
X168402000Y-128726637D01*
X168393355Y-128756074D01*
X168386832Y-128786065D01*
X168383076Y-128791081D01*
X168382315Y-128793676D01*
X168365681Y-128814319D01*
X168293954Y-128886045D01*
X168232630Y-128919529D01*
X168165726Y-128914743D01*
X168165552Y-128915269D01*
X168163481Y-128914582D01*
X168162939Y-128914544D01*
X168161325Y-128913868D01*
X168158697Y-128912997D01*
X168077361Y-128886045D01*
X167997709Y-128859651D01*
X167898346Y-128849500D01*
X167301662Y-128849500D01*
X167301644Y-128849501D01*
X167202292Y-128859650D01*
X167202289Y-128859651D01*
X167041305Y-128912996D01*
X167041294Y-128913001D01*
X166896959Y-129002029D01*
X166896955Y-129002032D01*
X166885807Y-129013181D01*
X166858882Y-129027882D01*
X166833072Y-129044474D01*
X166826862Y-129045366D01*
X166824484Y-129046666D01*
X166798137Y-129049500D01*
X166693412Y-129049500D01*
X166693363Y-129049509D01*
X166687294Y-129049510D01*
X166687292Y-129049509D01*
X166687283Y-129049510D01*
X166653302Y-129049510D01*
X166653301Y-129049510D01*
X166653298Y-129049510D01*
X166426631Y-129075045D01*
X166426628Y-129075045D01*
X166426625Y-129075046D01*
X166426614Y-129075048D01*
X166204255Y-129125796D01*
X166204244Y-129125800D01*
X166084946Y-129167542D01*
X166043993Y-129174500D01*
X165274998Y-129174500D01*
X165274980Y-129174501D01*
X165172203Y-129185000D01*
X165172200Y-129185001D01*
X165070488Y-129218706D01*
X165031484Y-129225000D01*
X164907000Y-129225000D01*
X164847655Y-129284345D01*
X164786331Y-129317829D01*
X164716640Y-129312844D01*
X164694884Y-129302205D01*
X164594334Y-129240186D01*
X164427797Y-129185001D01*
X164427795Y-129185000D01*
X164325010Y-129174500D01*
X163274998Y-129174500D01*
X163274980Y-129174501D01*
X163172203Y-129185000D01*
X163172200Y-129185001D01*
X163005668Y-129240185D01*
X163005663Y-129240187D01*
X162856342Y-129332289D01*
X162732289Y-129456342D01*
X162640187Y-129605663D01*
X162640186Y-129605666D01*
X162585001Y-129772203D01*
X162585001Y-129772204D01*
X162585000Y-129772204D01*
X162574500Y-129874983D01*
X162574500Y-130475001D01*
X162574501Y-130475019D01*
X162585000Y-130577796D01*
X162585001Y-130577799D01*
X162640185Y-130744331D01*
X162640187Y-130744336D01*
X162669280Y-130791503D01*
X162732288Y-130893656D01*
X162856344Y-131017712D01*
X163005666Y-131109814D01*
X163172203Y-131164999D01*
X163274991Y-131175500D01*
X163960000Y-131175499D01*
X164027039Y-131195183D01*
X164072794Y-131247987D01*
X164084000Y-131299499D01*
X164084000Y-131702000D01*
X164064315Y-131769039D01*
X164011511Y-131814794D01*
X163960000Y-131826000D01*
X161722362Y-131826000D01*
X161655323Y-131806315D01*
X161634681Y-131789681D01*
X160056319Y-130211319D01*
X160022834Y-130149996D01*
X160020000Y-130123638D01*
X160020000Y-124330000D01*
X160039685Y-124262961D01*
X160092489Y-124217206D01*
X160144000Y-124206000D01*
X162127638Y-124206000D01*
X162194677Y-124225685D01*
G37*
%TD.AperFunction*%
%TD*%
%TA.AperFunction,Conductor*%
%TO.N,GND*%
G36*
X165170039Y-117367685D02*
G01*
X165215794Y-117420489D01*
X165227000Y-117472000D01*
X165227000Y-120780000D01*
X165207315Y-120847039D01*
X165154511Y-120892794D01*
X165103000Y-120904000D01*
X163876386Y-120904000D01*
X163809347Y-120884315D01*
X163778011Y-120855488D01*
X163771528Y-120847039D01*
X163771282Y-120846718D01*
X163645841Y-120750464D01*
X163499762Y-120689956D01*
X163499760Y-120689955D01*
X163382370Y-120674501D01*
X163382367Y-120674500D01*
X163382361Y-120674500D01*
X163382354Y-120674500D01*
X162889862Y-120674500D01*
X162822823Y-120654815D01*
X162802181Y-120638181D01*
X162596319Y-120432319D01*
X162562834Y-120370996D01*
X162560000Y-120344638D01*
X162560000Y-118542362D01*
X162579685Y-118475323D01*
X162596319Y-118454681D01*
X163666681Y-117384319D01*
X163728004Y-117350834D01*
X163754362Y-117348000D01*
X165103000Y-117348000D01*
X165170039Y-117367685D01*
G37*
%TD.AperFunction*%
%TD*%
%TA.AperFunction,Conductor*%
%TO.N,MCU_VDDR*%
G36*
X149112397Y-117729773D02*
G01*
X149115064Y-117729113D01*
X149145731Y-117739561D01*
X149176802Y-117748685D01*
X149179279Y-117750991D01*
X149181200Y-117751646D01*
X149206862Y-117775878D01*
X149207967Y-117777269D01*
X149284874Y-117880006D01*
X149307691Y-117902824D01*
X149312098Y-117908372D01*
X149322682Y-117934444D01*
X149336166Y-117959139D01*
X149335647Y-117966382D01*
X149338379Y-117973110D01*
X149338999Y-117985494D01*
X149338999Y-118414503D01*
X149319314Y-118481542D01*
X149302683Y-118502182D01*
X149284881Y-118519984D01*
X149248687Y-118560280D01*
X149232067Y-118580908D01*
X149232053Y-118580925D01*
X149200433Y-118624777D01*
X149200430Y-118624781D01*
X149140664Y-118755648D01*
X149120976Y-118822696D01*
X149100500Y-118965115D01*
X149100500Y-122247138D01*
X149091855Y-122276578D01*
X149085332Y-122306565D01*
X149081577Y-122311580D01*
X149080815Y-122314177D01*
X149064181Y-122334819D01*
X149007319Y-122391681D01*
X148945996Y-122425166D01*
X148919638Y-122428000D01*
X145720362Y-122428000D01*
X145653323Y-122408315D01*
X145632681Y-122391681D01*
X144562319Y-121321319D01*
X144528834Y-121259996D01*
X144526000Y-121233638D01*
X144526000Y-119442905D01*
X144545685Y-119375866D01*
X144598489Y-119330111D01*
X144650000Y-119318905D01*
X144809745Y-119318905D01*
X144809746Y-119318904D01*
X144964398Y-119288142D01*
X145110080Y-119227799D01*
X145241190Y-119140194D01*
X145352690Y-119028694D01*
X145440295Y-118897584D01*
X145440296Y-118897581D01*
X145440298Y-118897578D01*
X145471790Y-118821548D01*
X145515630Y-118767144D01*
X145581924Y-118745079D01*
X145586351Y-118745000D01*
X146554560Y-118745000D01*
X146621599Y-118764685D01*
X146642242Y-118781320D01*
X146682707Y-118821786D01*
X146682711Y-118821789D01*
X146813814Y-118909390D01*
X146813827Y-118909397D01*
X146948342Y-118965114D01*
X146959503Y-118969737D01*
X147114153Y-119000499D01*
X147114156Y-119000500D01*
X147114158Y-119000500D01*
X147271844Y-119000500D01*
X147271845Y-119000499D01*
X147426497Y-118969737D01*
X147572179Y-118909394D01*
X147703289Y-118821789D01*
X147814789Y-118710289D01*
X147902394Y-118579179D01*
X147925172Y-118524185D01*
X147952048Y-118483962D01*
X148003968Y-118432044D01*
X148093003Y-118287697D01*
X148146349Y-118126708D01*
X148156500Y-118027345D01*
X148156499Y-117959859D01*
X148176183Y-117892823D01*
X148192810Y-117872189D01*
X148299682Y-117765318D01*
X148361005Y-117731834D01*
X148387362Y-117729000D01*
X149109763Y-117729000D01*
X149112397Y-117729773D01*
G37*
%TD.AperFunction*%
%TD*%
%TA.AperFunction,Conductor*%
%TO.N,GND*%
G36*
X152030499Y-113684685D02*
G01*
X152055979Y-113706439D01*
X152245968Y-113919343D01*
X152275916Y-113982469D01*
X152272526Y-114036497D01*
X152248185Y-114120284D01*
X152248183Y-114120294D01*
X152245393Y-114155744D01*
X152245393Y-114782065D01*
X152245394Y-114782090D01*
X152248184Y-114817542D01*
X152292273Y-114969300D01*
X152292275Y-114969305D01*
X152372720Y-115105331D01*
X152372727Y-115105340D01*
X152432179Y-115164792D01*
X152465664Y-115226115D01*
X152460680Y-115295807D01*
X152451230Y-115315594D01*
X152371382Y-115450609D01*
X152371380Y-115450614D01*
X152327292Y-115602366D01*
X152327290Y-115602379D01*
X152324500Y-115637829D01*
X152324500Y-116264150D01*
X152324501Y-116264175D01*
X152327290Y-116299625D01*
X152350022Y-116377872D01*
X152349821Y-116447742D01*
X152347987Y-116453417D01*
X152316339Y-116543866D01*
X152316333Y-116543887D01*
X152259230Y-116794084D01*
X152259230Y-116794085D01*
X152256200Y-116820977D01*
X152229133Y-116885390D01*
X152220666Y-116894769D01*
X152216716Y-116898718D01*
X152120464Y-117024157D01*
X152059956Y-117170237D01*
X152059955Y-117170239D01*
X152044500Y-117287638D01*
X152044500Y-117916363D01*
X152059953Y-118033753D01*
X152059956Y-118033762D01*
X152120464Y-118179841D01*
X152204876Y-118289850D01*
X152213119Y-118311170D01*
X152225477Y-118330400D01*
X152228392Y-118350679D01*
X152230070Y-118355018D01*
X152230500Y-118365335D01*
X152230500Y-118564448D01*
X152221061Y-118611900D01*
X152186957Y-118694234D01*
X152186955Y-118694239D01*
X152171500Y-118811638D01*
X152171500Y-119440363D01*
X152186953Y-119557753D01*
X152186956Y-119557762D01*
X152247464Y-119703841D01*
X152343718Y-119829282D01*
X152373292Y-119851975D01*
X152386424Y-119869958D01*
X152403048Y-119884775D01*
X152410563Y-119903017D01*
X152414495Y-119908401D01*
X152417260Y-119917082D01*
X152418045Y-119919902D01*
X152445010Y-120038044D01*
X152474108Y-120121202D01*
X152475191Y-120125090D01*
X152475107Y-120131057D01*
X152479737Y-120158204D01*
X152481553Y-121624613D01*
X152461951Y-121691677D01*
X152409204Y-121737497D01*
X152381747Y-121746384D01*
X152322674Y-121758135D01*
X152322667Y-121758137D01*
X152195195Y-121810937D01*
X152195182Y-121810944D01*
X152080458Y-121887601D01*
X152080454Y-121887604D01*
X151982888Y-121985170D01*
X151982885Y-121985174D01*
X151906228Y-122099898D01*
X151906221Y-122099911D01*
X151853421Y-122227383D01*
X151853418Y-122227393D01*
X151826500Y-122362720D01*
X151826500Y-122362723D01*
X151826500Y-122500709D01*
X151826500Y-122500711D01*
X151826499Y-122500711D01*
X151853418Y-122636038D01*
X151853421Y-122636048D01*
X151906221Y-122763520D01*
X151906228Y-122763533D01*
X151982885Y-122878257D01*
X151982888Y-122878261D01*
X152080454Y-122975827D01*
X152080458Y-122975830D01*
X152195182Y-123052487D01*
X152195195Y-123052494D01*
X152322667Y-123105294D01*
X152322672Y-123105296D01*
X152383747Y-123117444D01*
X152445655Y-123149828D01*
X152480230Y-123210543D01*
X152483554Y-123238907D01*
X152484684Y-124151614D01*
X152465082Y-124218678D01*
X152444787Y-124242887D01*
X151419624Y-125189119D01*
X151357011Y-125220124D01*
X151335521Y-125222000D01*
X149730000Y-125222000D01*
X149662961Y-125202315D01*
X149617206Y-125149511D01*
X149606000Y-125098000D01*
X149606000Y-118965114D01*
X149625685Y-118898075D01*
X149642314Y-118877437D01*
X149718443Y-118801309D01*
X149798087Y-118666639D01*
X149841737Y-118516392D01*
X149844500Y-118481287D01*
X149844499Y-117918714D01*
X149841737Y-117883608D01*
X149798087Y-117733361D01*
X149718443Y-117598691D01*
X149718441Y-117598689D01*
X149718438Y-117598685D01*
X149642319Y-117522566D01*
X149608834Y-117461243D01*
X149606000Y-117434885D01*
X149606000Y-116840114D01*
X149625685Y-116773075D01*
X149642314Y-116752437D01*
X149718443Y-116676309D01*
X149798087Y-116541639D01*
X149841737Y-116391392D01*
X149844500Y-116356287D01*
X149844499Y-115793714D01*
X149841737Y-115758608D01*
X149798087Y-115608361D01*
X149718443Y-115473691D01*
X149718441Y-115473689D01*
X149718438Y-115473685D01*
X149642319Y-115397566D01*
X149608834Y-115336243D01*
X149606000Y-115309885D01*
X149606000Y-113789000D01*
X149625685Y-113721961D01*
X149678489Y-113676206D01*
X149730000Y-113665000D01*
X151963460Y-113665000D01*
X152030499Y-113684685D01*
G37*
%TD.AperFunction*%
%TD*%
%TA.AperFunction,Conductor*%
%TO.N,+5V*%
G36*
X167528677Y-117621685D02*
G01*
X167549319Y-117638319D01*
X168492681Y-118581681D01*
X168526166Y-118643004D01*
X168529000Y-118669362D01*
X168529000Y-122757638D01*
X168509315Y-122824677D01*
X168492681Y-122845319D01*
X167640000Y-123697999D01*
X167640000Y-124789638D01*
X167620315Y-124856677D01*
X167603681Y-124877319D01*
X167422319Y-125058681D01*
X167360996Y-125092166D01*
X167334638Y-125095000D01*
X165663500Y-125095000D01*
X165596461Y-125075315D01*
X165550706Y-125022511D01*
X165539500Y-124971000D01*
X165539500Y-123544367D01*
X165559185Y-123477328D01*
X165594609Y-123441265D01*
X165610289Y-123430789D01*
X165721789Y-123319289D01*
X165809394Y-123188179D01*
X165869737Y-123042497D01*
X165900500Y-122887842D01*
X165900500Y-122730158D01*
X165900500Y-122730155D01*
X165900499Y-122730153D01*
X165869738Y-122575510D01*
X165869737Y-122575503D01*
X165809394Y-122429821D01*
X165809387Y-122429810D01*
X165755898Y-122349757D01*
X165735020Y-122283080D01*
X165735000Y-122280867D01*
X165735000Y-120829860D01*
X165739739Y-120800501D01*
X165738932Y-120800329D01*
X165740348Y-120793711D01*
X165740347Y-120793711D01*
X165740349Y-120793708D01*
X165750500Y-120694345D01*
X165750499Y-120097656D01*
X165740349Y-119998292D01*
X165740348Y-119998288D01*
X165738932Y-119991670D01*
X165739736Y-119991497D01*
X165735000Y-119962139D01*
X165735000Y-117907362D01*
X165754685Y-117840323D01*
X165771319Y-117819681D01*
X165952681Y-117638319D01*
X166014004Y-117604834D01*
X166040362Y-117602000D01*
X167461638Y-117602000D01*
X167528677Y-117621685D01*
G37*
%TD.AperFunction*%
%TD*%
M02*
