%TF.GenerationSoftware,KiCad,Pcbnew,9.0.7-9.0.7~ubuntu22.04.1*%
%TF.CreationDate,2026-03-12T12:07:13+02:00*%
%TF.ProjectId,Main Board - NDT,4d61696e-2042-46f6-9172-64202d204e44,rev?*%
%TF.SameCoordinates,Original*%
%TF.FileFunction,Profile,NP*%
%FSLAX46Y46*%
G04 Gerber Fmt 4.6, Leading zero omitted, Abs format (unit mm)*
G04 Created by KiCad (PCBNEW 9.0.7-9.0.7~ubuntu22.04.1) date 2026-03-12 12:07:13*
%MOMM*%
%LPD*%
G01*
G04 APERTURE LIST*
%TA.AperFunction,Profile*%
%ADD10C,0.050000*%
%TD*%
G04 APERTURE END LIST*
D10*
X140716000Y-95250000D02*
X141478000Y-95250000D01*
X141478000Y-96012000D01*
X140716000Y-96012000D01*
X140716000Y-95250000D01*
X151638000Y-95250000D02*
X151638000Y-95250000D01*
X138176000Y-95250000D02*
X138938000Y-95250000D01*
X138938000Y-96012000D01*
X138176000Y-96012000D01*
X138176000Y-95250000D01*
X150774400Y-95250000D02*
X151536400Y-95250000D01*
X151536400Y-96012000D01*
X150774400Y-96012000D01*
X150774400Y-95250000D01*
X118110000Y-91440000D02*
X181610000Y-91440000D01*
X181610000Y-147320000D01*
X118110000Y-147320000D01*
X118110000Y-91440000D01*
X148336000Y-95250000D02*
X149098000Y-95250000D01*
X149098000Y-96012000D01*
X148336000Y-96012000D01*
X148336000Y-95250000D01*
X145796000Y-95250000D02*
X146558000Y-95250000D01*
X146558000Y-96012000D01*
X145796000Y-96012000D01*
X145796000Y-95250000D01*
X136398000Y-91694000D02*
X136652000Y-91694000D01*
X136652000Y-96012000D01*
X136398000Y-96012000D01*
X136398000Y-91694000D01*
X152400000Y-91694000D02*
X152654000Y-91694000D01*
X152654000Y-96012000D01*
X152400000Y-96012000D01*
X152400000Y-91694000D01*
X143256000Y-95250000D02*
X144018000Y-95250000D01*
X144018000Y-96012000D01*
X143256000Y-96012000D01*
X143256000Y-95250000D01*
M02*
