%TF.GenerationSoftware,KiCad,Pcbnew,9.0.8-9.0.8~ubuntu22.04.1*%
%TF.CreationDate,2026-04-26T22:17:14+03:00*%
%TF.ProjectId,Main Board - NDT,4d61696e-2042-46f6-9172-64202d204e44,rev?*%
%TF.SameCoordinates,Original*%
%TF.FileFunction,Legend,Bot*%
%TF.FilePolarity,Positive*%
%FSLAX46Y46*%
G04 Gerber Fmt 4.6, Leading zero omitted, Abs format (unit mm)*
G04 Created by KiCad (PCBNEW 9.0.8-9.0.8~ubuntu22.04.1) date 2026-04-26 22:17:14*
%MOMM*%
%LPD*%
G01*
G04 APERTURE LIST*
%ADD10C,0.150000*%
%ADD11C,0.075000*%
%ADD12C,0.125000*%
%ADD13C,0.127000*%
%ADD14C,0.200000*%
%ADD15C,0.120000*%
%ADD16C,0.100000*%
%ADD17C,0.152400*%
G04 APERTURE END LIST*
D10*
X171403438Y-126696067D02*
X171403438Y-125908665D01*
X171403438Y-125908665D02*
X171103475Y-125908665D01*
X171103475Y-125908665D02*
X171028485Y-125946160D01*
X171028485Y-125946160D02*
X170990989Y-125983656D01*
X170990989Y-125983656D02*
X170953494Y-126058646D01*
X170953494Y-126058646D02*
X170953494Y-126171132D01*
X170953494Y-126171132D02*
X170990989Y-126246123D01*
X170990989Y-126246123D02*
X171028485Y-126283618D01*
X171028485Y-126283618D02*
X171103475Y-126321114D01*
X171103475Y-126321114D02*
X171403438Y-126321114D01*
X170653531Y-126658572D02*
X170541045Y-126696067D01*
X170541045Y-126696067D02*
X170353569Y-126696067D01*
X170353569Y-126696067D02*
X170278578Y-126658572D01*
X170278578Y-126658572D02*
X170241083Y-126621076D01*
X170241083Y-126621076D02*
X170203587Y-126546086D01*
X170203587Y-126546086D02*
X170203587Y-126471095D01*
X170203587Y-126471095D02*
X170241083Y-126396104D01*
X170241083Y-126396104D02*
X170278578Y-126358609D01*
X170278578Y-126358609D02*
X170353569Y-126321114D01*
X170353569Y-126321114D02*
X170503550Y-126283618D01*
X170503550Y-126283618D02*
X170578541Y-126246123D01*
X170578541Y-126246123D02*
X170616036Y-126208628D01*
X170616036Y-126208628D02*
X170653531Y-126133637D01*
X170653531Y-126133637D02*
X170653531Y-126058646D01*
X170653531Y-126058646D02*
X170616036Y-125983656D01*
X170616036Y-125983656D02*
X170578541Y-125946160D01*
X170578541Y-125946160D02*
X170503550Y-125908665D01*
X170503550Y-125908665D02*
X170316073Y-125908665D01*
X170316073Y-125908665D02*
X170203587Y-125946160D01*
X169491176Y-125908665D02*
X169866129Y-125908665D01*
X169866129Y-125908665D02*
X169903624Y-126283618D01*
X169903624Y-126283618D02*
X169866129Y-126246123D01*
X169866129Y-126246123D02*
X169791138Y-126208628D01*
X169791138Y-126208628D02*
X169603662Y-126208628D01*
X169603662Y-126208628D02*
X169528671Y-126246123D01*
X169528671Y-126246123D02*
X169491176Y-126283618D01*
X169491176Y-126283618D02*
X169453680Y-126358609D01*
X169453680Y-126358609D02*
X169453680Y-126546086D01*
X169453680Y-126546086D02*
X169491176Y-126621076D01*
X169491176Y-126621076D02*
X169528671Y-126658572D01*
X169528671Y-126658572D02*
X169603662Y-126696067D01*
X169603662Y-126696067D02*
X169791138Y-126696067D01*
X169791138Y-126696067D02*
X169866129Y-126658572D01*
X169866129Y-126658572D02*
X169903624Y-126621076D01*
X168966241Y-125908665D02*
X168891250Y-125908665D01*
X168891250Y-125908665D02*
X168816259Y-125946160D01*
X168816259Y-125946160D02*
X168778764Y-125983656D01*
X168778764Y-125983656D02*
X168741269Y-126058646D01*
X168741269Y-126058646D02*
X168703773Y-126208628D01*
X168703773Y-126208628D02*
X168703773Y-126396104D01*
X168703773Y-126396104D02*
X168741269Y-126546086D01*
X168741269Y-126546086D02*
X168778764Y-126621076D01*
X168778764Y-126621076D02*
X168816259Y-126658572D01*
X168816259Y-126658572D02*
X168891250Y-126696067D01*
X168891250Y-126696067D02*
X168966241Y-126696067D01*
X168966241Y-126696067D02*
X169041231Y-126658572D01*
X169041231Y-126658572D02*
X169078727Y-126621076D01*
X169078727Y-126621076D02*
X169116222Y-126546086D01*
X169116222Y-126546086D02*
X169153717Y-126396104D01*
X169153717Y-126396104D02*
X169153717Y-126208628D01*
X169153717Y-126208628D02*
X169116222Y-126058646D01*
X169116222Y-126058646D02*
X169078727Y-125983656D01*
X169078727Y-125983656D02*
X169041231Y-125946160D01*
X169041231Y-125946160D02*
X168966241Y-125908665D01*
X167953866Y-126696067D02*
X168403810Y-126696067D01*
X168178838Y-126696067D02*
X168178838Y-125908665D01*
X168178838Y-125908665D02*
X168253829Y-126021151D01*
X168253829Y-126021151D02*
X168328820Y-126096142D01*
X168328820Y-126096142D02*
X168403810Y-126133637D01*
X150489436Y-123578580D02*
X150537055Y-123626200D01*
X150537055Y-123626200D02*
X150679912Y-123673819D01*
X150679912Y-123673819D02*
X150775150Y-123673819D01*
X150775150Y-123673819D02*
X150918007Y-123626200D01*
X150918007Y-123626200D02*
X151013245Y-123530961D01*
X151013245Y-123530961D02*
X151060864Y-123435723D01*
X151060864Y-123435723D02*
X151108483Y-123245247D01*
X151108483Y-123245247D02*
X151108483Y-123102390D01*
X151108483Y-123102390D02*
X151060864Y-122911914D01*
X151060864Y-122911914D02*
X151013245Y-122816676D01*
X151013245Y-122816676D02*
X150918007Y-122721438D01*
X150918007Y-122721438D02*
X150775150Y-122673819D01*
X150775150Y-122673819D02*
X150679912Y-122673819D01*
X150679912Y-122673819D02*
X150537055Y-122721438D01*
X150537055Y-122721438D02*
X150489436Y-122769057D01*
X150108483Y-122769057D02*
X150060864Y-122721438D01*
X150060864Y-122721438D02*
X149965626Y-122673819D01*
X149965626Y-122673819D02*
X149727531Y-122673819D01*
X149727531Y-122673819D02*
X149632293Y-122721438D01*
X149632293Y-122721438D02*
X149584674Y-122769057D01*
X149584674Y-122769057D02*
X149537055Y-122864295D01*
X149537055Y-122864295D02*
X149537055Y-122959533D01*
X149537055Y-122959533D02*
X149584674Y-123102390D01*
X149584674Y-123102390D02*
X150156102Y-123673819D01*
X150156102Y-123673819D02*
X149537055Y-123673819D01*
X148918007Y-122673819D02*
X148822769Y-122673819D01*
X148822769Y-122673819D02*
X148727531Y-122721438D01*
X148727531Y-122721438D02*
X148679912Y-122769057D01*
X148679912Y-122769057D02*
X148632293Y-122864295D01*
X148632293Y-122864295D02*
X148584674Y-123054771D01*
X148584674Y-123054771D02*
X148584674Y-123292866D01*
X148584674Y-123292866D02*
X148632293Y-123483342D01*
X148632293Y-123483342D02*
X148679912Y-123578580D01*
X148679912Y-123578580D02*
X148727531Y-123626200D01*
X148727531Y-123626200D02*
X148822769Y-123673819D01*
X148822769Y-123673819D02*
X148918007Y-123673819D01*
X148918007Y-123673819D02*
X149013245Y-123626200D01*
X149013245Y-123626200D02*
X149060864Y-123578580D01*
X149060864Y-123578580D02*
X149108483Y-123483342D01*
X149108483Y-123483342D02*
X149156102Y-123292866D01*
X149156102Y-123292866D02*
X149156102Y-123054771D01*
X149156102Y-123054771D02*
X149108483Y-122864295D01*
X149108483Y-122864295D02*
X149060864Y-122769057D01*
X149060864Y-122769057D02*
X149013245Y-122721438D01*
X149013245Y-122721438D02*
X148918007Y-122673819D01*
X147727531Y-123007152D02*
X147727531Y-123673819D01*
X147965626Y-122626200D02*
X148203721Y-123340485D01*
X148203721Y-123340485D02*
X147584674Y-123340485D01*
X152579247Y-100048219D02*
X152912580Y-99572028D01*
X153150675Y-100048219D02*
X153150675Y-99048219D01*
X153150675Y-99048219D02*
X152769723Y-99048219D01*
X152769723Y-99048219D02*
X152674485Y-99095838D01*
X152674485Y-99095838D02*
X152626866Y-99143457D01*
X152626866Y-99143457D02*
X152579247Y-99238695D01*
X152579247Y-99238695D02*
X152579247Y-99381552D01*
X152579247Y-99381552D02*
X152626866Y-99476790D01*
X152626866Y-99476790D02*
X152674485Y-99524409D01*
X152674485Y-99524409D02*
X152769723Y-99572028D01*
X152769723Y-99572028D02*
X153150675Y-99572028D01*
X151722104Y-99048219D02*
X151912580Y-99048219D01*
X151912580Y-99048219D02*
X152007818Y-99095838D01*
X152007818Y-99095838D02*
X152055437Y-99143457D01*
X152055437Y-99143457D02*
X152150675Y-99286314D01*
X152150675Y-99286314D02*
X152198294Y-99476790D01*
X152198294Y-99476790D02*
X152198294Y-99857742D01*
X152198294Y-99857742D02*
X152150675Y-99952980D01*
X152150675Y-99952980D02*
X152103056Y-100000600D01*
X152103056Y-100000600D02*
X152007818Y-100048219D01*
X152007818Y-100048219D02*
X151817342Y-100048219D01*
X151817342Y-100048219D02*
X151722104Y-100000600D01*
X151722104Y-100000600D02*
X151674485Y-99952980D01*
X151674485Y-99952980D02*
X151626866Y-99857742D01*
X151626866Y-99857742D02*
X151626866Y-99619647D01*
X151626866Y-99619647D02*
X151674485Y-99524409D01*
X151674485Y-99524409D02*
X151722104Y-99476790D01*
X151722104Y-99476790D02*
X151817342Y-99429171D01*
X151817342Y-99429171D02*
X152007818Y-99429171D01*
X152007818Y-99429171D02*
X152103056Y-99476790D01*
X152103056Y-99476790D02*
X152150675Y-99524409D01*
X152150675Y-99524409D02*
X152198294Y-99619647D01*
X151007818Y-99048219D02*
X150912580Y-99048219D01*
X150912580Y-99048219D02*
X150817342Y-99095838D01*
X150817342Y-99095838D02*
X150769723Y-99143457D01*
X150769723Y-99143457D02*
X150722104Y-99238695D01*
X150722104Y-99238695D02*
X150674485Y-99429171D01*
X150674485Y-99429171D02*
X150674485Y-99667266D01*
X150674485Y-99667266D02*
X150722104Y-99857742D01*
X150722104Y-99857742D02*
X150769723Y-99952980D01*
X150769723Y-99952980D02*
X150817342Y-100000600D01*
X150817342Y-100000600D02*
X150912580Y-100048219D01*
X150912580Y-100048219D02*
X151007818Y-100048219D01*
X151007818Y-100048219D02*
X151103056Y-100000600D01*
X151103056Y-100000600D02*
X151150675Y-99952980D01*
X151150675Y-99952980D02*
X151198294Y-99857742D01*
X151198294Y-99857742D02*
X151245913Y-99667266D01*
X151245913Y-99667266D02*
X151245913Y-99429171D01*
X151245913Y-99429171D02*
X151198294Y-99238695D01*
X151198294Y-99238695D02*
X151150675Y-99143457D01*
X151150675Y-99143457D02*
X151103056Y-99095838D01*
X151103056Y-99095838D02*
X151007818Y-99048219D01*
X150341151Y-99048219D02*
X149674485Y-99048219D01*
X149674485Y-99048219D02*
X150103056Y-100048219D01*
X171019647Y-118774380D02*
X171067266Y-118822000D01*
X171067266Y-118822000D02*
X171210123Y-118869619D01*
X171210123Y-118869619D02*
X171305361Y-118869619D01*
X171305361Y-118869619D02*
X171448218Y-118822000D01*
X171448218Y-118822000D02*
X171543456Y-118726761D01*
X171543456Y-118726761D02*
X171591075Y-118631523D01*
X171591075Y-118631523D02*
X171638694Y-118441047D01*
X171638694Y-118441047D02*
X171638694Y-118298190D01*
X171638694Y-118298190D02*
X171591075Y-118107714D01*
X171591075Y-118107714D02*
X171543456Y-118012476D01*
X171543456Y-118012476D02*
X171448218Y-117917238D01*
X171448218Y-117917238D02*
X171305361Y-117869619D01*
X171305361Y-117869619D02*
X171210123Y-117869619D01*
X171210123Y-117869619D02*
X171067266Y-117917238D01*
X171067266Y-117917238D02*
X171019647Y-117964857D01*
X170114885Y-117869619D02*
X170591075Y-117869619D01*
X170591075Y-117869619D02*
X170638694Y-118345809D01*
X170638694Y-118345809D02*
X170591075Y-118298190D01*
X170591075Y-118298190D02*
X170495837Y-118250571D01*
X170495837Y-118250571D02*
X170257742Y-118250571D01*
X170257742Y-118250571D02*
X170162504Y-118298190D01*
X170162504Y-118298190D02*
X170114885Y-118345809D01*
X170114885Y-118345809D02*
X170067266Y-118441047D01*
X170067266Y-118441047D02*
X170067266Y-118679142D01*
X170067266Y-118679142D02*
X170114885Y-118774380D01*
X170114885Y-118774380D02*
X170162504Y-118822000D01*
X170162504Y-118822000D02*
X170257742Y-118869619D01*
X170257742Y-118869619D02*
X170495837Y-118869619D01*
X170495837Y-118869619D02*
X170591075Y-118822000D01*
X170591075Y-118822000D02*
X170638694Y-118774380D01*
X169448218Y-117869619D02*
X169352980Y-117869619D01*
X169352980Y-117869619D02*
X169257742Y-117917238D01*
X169257742Y-117917238D02*
X169210123Y-117964857D01*
X169210123Y-117964857D02*
X169162504Y-118060095D01*
X169162504Y-118060095D02*
X169114885Y-118250571D01*
X169114885Y-118250571D02*
X169114885Y-118488666D01*
X169114885Y-118488666D02*
X169162504Y-118679142D01*
X169162504Y-118679142D02*
X169210123Y-118774380D01*
X169210123Y-118774380D02*
X169257742Y-118822000D01*
X169257742Y-118822000D02*
X169352980Y-118869619D01*
X169352980Y-118869619D02*
X169448218Y-118869619D01*
X169448218Y-118869619D02*
X169543456Y-118822000D01*
X169543456Y-118822000D02*
X169591075Y-118774380D01*
X169591075Y-118774380D02*
X169638694Y-118679142D01*
X169638694Y-118679142D02*
X169686313Y-118488666D01*
X169686313Y-118488666D02*
X169686313Y-118250571D01*
X169686313Y-118250571D02*
X169638694Y-118060095D01*
X169638694Y-118060095D02*
X169591075Y-117964857D01*
X169591075Y-117964857D02*
X169543456Y-117917238D01*
X169543456Y-117917238D02*
X169448218Y-117869619D01*
X168257742Y-117869619D02*
X168448218Y-117869619D01*
X168448218Y-117869619D02*
X168543456Y-117917238D01*
X168543456Y-117917238D02*
X168591075Y-117964857D01*
X168591075Y-117964857D02*
X168686313Y-118107714D01*
X168686313Y-118107714D02*
X168733932Y-118298190D01*
X168733932Y-118298190D02*
X168733932Y-118679142D01*
X168733932Y-118679142D02*
X168686313Y-118774380D01*
X168686313Y-118774380D02*
X168638694Y-118822000D01*
X168638694Y-118822000D02*
X168543456Y-118869619D01*
X168543456Y-118869619D02*
X168352980Y-118869619D01*
X168352980Y-118869619D02*
X168257742Y-118822000D01*
X168257742Y-118822000D02*
X168210123Y-118774380D01*
X168210123Y-118774380D02*
X168162504Y-118679142D01*
X168162504Y-118679142D02*
X168162504Y-118441047D01*
X168162504Y-118441047D02*
X168210123Y-118345809D01*
X168210123Y-118345809D02*
X168257742Y-118298190D01*
X168257742Y-118298190D02*
X168352980Y-118250571D01*
X168352980Y-118250571D02*
X168543456Y-118250571D01*
X168543456Y-118250571D02*
X168638694Y-118298190D01*
X168638694Y-118298190D02*
X168686313Y-118345809D01*
X168686313Y-118345809D02*
X168733932Y-118441047D01*
X160824819Y-126105952D02*
X160348628Y-125772619D01*
X160824819Y-125534524D02*
X159824819Y-125534524D01*
X159824819Y-125534524D02*
X159824819Y-125915476D01*
X159824819Y-125915476D02*
X159872438Y-126010714D01*
X159872438Y-126010714D02*
X159920057Y-126058333D01*
X159920057Y-126058333D02*
X160015295Y-126105952D01*
X160015295Y-126105952D02*
X160158152Y-126105952D01*
X160158152Y-126105952D02*
X160253390Y-126058333D01*
X160253390Y-126058333D02*
X160301009Y-126010714D01*
X160301009Y-126010714D02*
X160348628Y-125915476D01*
X160348628Y-125915476D02*
X160348628Y-125534524D01*
X159824819Y-127010714D02*
X159824819Y-126534524D01*
X159824819Y-126534524D02*
X160301009Y-126486905D01*
X160301009Y-126486905D02*
X160253390Y-126534524D01*
X160253390Y-126534524D02*
X160205771Y-126629762D01*
X160205771Y-126629762D02*
X160205771Y-126867857D01*
X160205771Y-126867857D02*
X160253390Y-126963095D01*
X160253390Y-126963095D02*
X160301009Y-127010714D01*
X160301009Y-127010714D02*
X160396247Y-127058333D01*
X160396247Y-127058333D02*
X160634342Y-127058333D01*
X160634342Y-127058333D02*
X160729580Y-127010714D01*
X160729580Y-127010714D02*
X160777200Y-126963095D01*
X160777200Y-126963095D02*
X160824819Y-126867857D01*
X160824819Y-126867857D02*
X160824819Y-126629762D01*
X160824819Y-126629762D02*
X160777200Y-126534524D01*
X160777200Y-126534524D02*
X160729580Y-126486905D01*
X159824819Y-127677381D02*
X159824819Y-127772619D01*
X159824819Y-127772619D02*
X159872438Y-127867857D01*
X159872438Y-127867857D02*
X159920057Y-127915476D01*
X159920057Y-127915476D02*
X160015295Y-127963095D01*
X160015295Y-127963095D02*
X160205771Y-128010714D01*
X160205771Y-128010714D02*
X160443866Y-128010714D01*
X160443866Y-128010714D02*
X160634342Y-127963095D01*
X160634342Y-127963095D02*
X160729580Y-127915476D01*
X160729580Y-127915476D02*
X160777200Y-127867857D01*
X160777200Y-127867857D02*
X160824819Y-127772619D01*
X160824819Y-127772619D02*
X160824819Y-127677381D01*
X160824819Y-127677381D02*
X160777200Y-127582143D01*
X160777200Y-127582143D02*
X160729580Y-127534524D01*
X160729580Y-127534524D02*
X160634342Y-127486905D01*
X160634342Y-127486905D02*
X160443866Y-127439286D01*
X160443866Y-127439286D02*
X160205771Y-127439286D01*
X160205771Y-127439286D02*
X160015295Y-127486905D01*
X160015295Y-127486905D02*
X159920057Y-127534524D01*
X159920057Y-127534524D02*
X159872438Y-127582143D01*
X159872438Y-127582143D02*
X159824819Y-127677381D01*
X159824819Y-128344048D02*
X159824819Y-128963095D01*
X159824819Y-128963095D02*
X160205771Y-128629762D01*
X160205771Y-128629762D02*
X160205771Y-128772619D01*
X160205771Y-128772619D02*
X160253390Y-128867857D01*
X160253390Y-128867857D02*
X160301009Y-128915476D01*
X160301009Y-128915476D02*
X160396247Y-128963095D01*
X160396247Y-128963095D02*
X160634342Y-128963095D01*
X160634342Y-128963095D02*
X160729580Y-128915476D01*
X160729580Y-128915476D02*
X160777200Y-128867857D01*
X160777200Y-128867857D02*
X160824819Y-128772619D01*
X160824819Y-128772619D02*
X160824819Y-128486905D01*
X160824819Y-128486905D02*
X160777200Y-128391667D01*
X160777200Y-128391667D02*
X160729580Y-128344048D01*
X166246980Y-132002352D02*
X166294600Y-131954733D01*
X166294600Y-131954733D02*
X166342219Y-131811876D01*
X166342219Y-131811876D02*
X166342219Y-131716638D01*
X166342219Y-131716638D02*
X166294600Y-131573781D01*
X166294600Y-131573781D02*
X166199361Y-131478543D01*
X166199361Y-131478543D02*
X166104123Y-131430924D01*
X166104123Y-131430924D02*
X165913647Y-131383305D01*
X165913647Y-131383305D02*
X165770790Y-131383305D01*
X165770790Y-131383305D02*
X165580314Y-131430924D01*
X165580314Y-131430924D02*
X165485076Y-131478543D01*
X165485076Y-131478543D02*
X165389838Y-131573781D01*
X165389838Y-131573781D02*
X165342219Y-131716638D01*
X165342219Y-131716638D02*
X165342219Y-131811876D01*
X165342219Y-131811876D02*
X165389838Y-131954733D01*
X165389838Y-131954733D02*
X165437457Y-132002352D01*
X165342219Y-132907114D02*
X165342219Y-132430924D01*
X165342219Y-132430924D02*
X165818409Y-132383305D01*
X165818409Y-132383305D02*
X165770790Y-132430924D01*
X165770790Y-132430924D02*
X165723171Y-132526162D01*
X165723171Y-132526162D02*
X165723171Y-132764257D01*
X165723171Y-132764257D02*
X165770790Y-132859495D01*
X165770790Y-132859495D02*
X165818409Y-132907114D01*
X165818409Y-132907114D02*
X165913647Y-132954733D01*
X165913647Y-132954733D02*
X166151742Y-132954733D01*
X166151742Y-132954733D02*
X166246980Y-132907114D01*
X166246980Y-132907114D02*
X166294600Y-132859495D01*
X166294600Y-132859495D02*
X166342219Y-132764257D01*
X166342219Y-132764257D02*
X166342219Y-132526162D01*
X166342219Y-132526162D02*
X166294600Y-132430924D01*
X166294600Y-132430924D02*
X166246980Y-132383305D01*
X165342219Y-133573781D02*
X165342219Y-133669019D01*
X165342219Y-133669019D02*
X165389838Y-133764257D01*
X165389838Y-133764257D02*
X165437457Y-133811876D01*
X165437457Y-133811876D02*
X165532695Y-133859495D01*
X165532695Y-133859495D02*
X165723171Y-133907114D01*
X165723171Y-133907114D02*
X165961266Y-133907114D01*
X165961266Y-133907114D02*
X166151742Y-133859495D01*
X166151742Y-133859495D02*
X166246980Y-133811876D01*
X166246980Y-133811876D02*
X166294600Y-133764257D01*
X166294600Y-133764257D02*
X166342219Y-133669019D01*
X166342219Y-133669019D02*
X166342219Y-133573781D01*
X166342219Y-133573781D02*
X166294600Y-133478543D01*
X166294600Y-133478543D02*
X166246980Y-133430924D01*
X166246980Y-133430924D02*
X166151742Y-133383305D01*
X166151742Y-133383305D02*
X165961266Y-133335686D01*
X165961266Y-133335686D02*
X165723171Y-133335686D01*
X165723171Y-133335686D02*
X165532695Y-133383305D01*
X165532695Y-133383305D02*
X165437457Y-133430924D01*
X165437457Y-133430924D02*
X165389838Y-133478543D01*
X165389838Y-133478543D02*
X165342219Y-133573781D01*
X165437457Y-134288067D02*
X165389838Y-134335686D01*
X165389838Y-134335686D02*
X165342219Y-134430924D01*
X165342219Y-134430924D02*
X165342219Y-134669019D01*
X165342219Y-134669019D02*
X165389838Y-134764257D01*
X165389838Y-134764257D02*
X165437457Y-134811876D01*
X165437457Y-134811876D02*
X165532695Y-134859495D01*
X165532695Y-134859495D02*
X165627933Y-134859495D01*
X165627933Y-134859495D02*
X165770790Y-134811876D01*
X165770790Y-134811876D02*
X166342219Y-134240448D01*
X166342219Y-134240448D02*
X166342219Y-134859495D01*
X170725885Y-115754819D02*
X170725885Y-116564342D01*
X170725885Y-116564342D02*
X170678266Y-116659580D01*
X170678266Y-116659580D02*
X170630647Y-116707200D01*
X170630647Y-116707200D02*
X170535409Y-116754819D01*
X170535409Y-116754819D02*
X170344933Y-116754819D01*
X170344933Y-116754819D02*
X170249695Y-116707200D01*
X170249695Y-116707200D02*
X170202076Y-116659580D01*
X170202076Y-116659580D02*
X170154457Y-116564342D01*
X170154457Y-116564342D02*
X170154457Y-115754819D01*
X169202076Y-115754819D02*
X169678266Y-115754819D01*
X169678266Y-115754819D02*
X169725885Y-116231009D01*
X169725885Y-116231009D02*
X169678266Y-116183390D01*
X169678266Y-116183390D02*
X169583028Y-116135771D01*
X169583028Y-116135771D02*
X169344933Y-116135771D01*
X169344933Y-116135771D02*
X169249695Y-116183390D01*
X169249695Y-116183390D02*
X169202076Y-116231009D01*
X169202076Y-116231009D02*
X169154457Y-116326247D01*
X169154457Y-116326247D02*
X169154457Y-116564342D01*
X169154457Y-116564342D02*
X169202076Y-116659580D01*
X169202076Y-116659580D02*
X169249695Y-116707200D01*
X169249695Y-116707200D02*
X169344933Y-116754819D01*
X169344933Y-116754819D02*
X169583028Y-116754819D01*
X169583028Y-116754819D02*
X169678266Y-116707200D01*
X169678266Y-116707200D02*
X169725885Y-116659580D01*
X168535409Y-115754819D02*
X168440171Y-115754819D01*
X168440171Y-115754819D02*
X168344933Y-115802438D01*
X168344933Y-115802438D02*
X168297314Y-115850057D01*
X168297314Y-115850057D02*
X168249695Y-115945295D01*
X168249695Y-115945295D02*
X168202076Y-116135771D01*
X168202076Y-116135771D02*
X168202076Y-116373866D01*
X168202076Y-116373866D02*
X168249695Y-116564342D01*
X168249695Y-116564342D02*
X168297314Y-116659580D01*
X168297314Y-116659580D02*
X168344933Y-116707200D01*
X168344933Y-116707200D02*
X168440171Y-116754819D01*
X168440171Y-116754819D02*
X168535409Y-116754819D01*
X168535409Y-116754819D02*
X168630647Y-116707200D01*
X168630647Y-116707200D02*
X168678266Y-116659580D01*
X168678266Y-116659580D02*
X168725885Y-116564342D01*
X168725885Y-116564342D02*
X168773504Y-116373866D01*
X168773504Y-116373866D02*
X168773504Y-116135771D01*
X168773504Y-116135771D02*
X168725885Y-115945295D01*
X168725885Y-115945295D02*
X168678266Y-115850057D01*
X168678266Y-115850057D02*
X168630647Y-115802438D01*
X168630647Y-115802438D02*
X168535409Y-115754819D01*
X167249695Y-116754819D02*
X167821123Y-116754819D01*
X167535409Y-116754819D02*
X167535409Y-115754819D01*
X167535409Y-115754819D02*
X167630647Y-115897676D01*
X167630647Y-115897676D02*
X167725885Y-115992914D01*
X167725885Y-115992914D02*
X167821123Y-116040533D01*
D11*
X166980323Y-123138009D02*
X167146989Y-122899914D01*
X167266037Y-123138009D02*
X167266037Y-122638009D01*
X167266037Y-122638009D02*
X167075561Y-122638009D01*
X167075561Y-122638009D02*
X167027942Y-122661819D01*
X167027942Y-122661819D02*
X167004132Y-122685628D01*
X167004132Y-122685628D02*
X166980323Y-122733247D01*
X166980323Y-122733247D02*
X166980323Y-122804676D01*
X166980323Y-122804676D02*
X167004132Y-122852295D01*
X167004132Y-122852295D02*
X167027942Y-122876104D01*
X167027942Y-122876104D02*
X167075561Y-122899914D01*
X167075561Y-122899914D02*
X167266037Y-122899914D01*
X166527942Y-122638009D02*
X166766037Y-122638009D01*
X166766037Y-122638009D02*
X166789846Y-122876104D01*
X166789846Y-122876104D02*
X166766037Y-122852295D01*
X166766037Y-122852295D02*
X166718418Y-122828485D01*
X166718418Y-122828485D02*
X166599370Y-122828485D01*
X166599370Y-122828485D02*
X166551751Y-122852295D01*
X166551751Y-122852295D02*
X166527942Y-122876104D01*
X166527942Y-122876104D02*
X166504132Y-122923723D01*
X166504132Y-122923723D02*
X166504132Y-123042771D01*
X166504132Y-123042771D02*
X166527942Y-123090390D01*
X166527942Y-123090390D02*
X166551751Y-123114200D01*
X166551751Y-123114200D02*
X166599370Y-123138009D01*
X166599370Y-123138009D02*
X166718418Y-123138009D01*
X166718418Y-123138009D02*
X166766037Y-123114200D01*
X166766037Y-123114200D02*
X166789846Y-123090390D01*
X166194609Y-122638009D02*
X166146990Y-122638009D01*
X166146990Y-122638009D02*
X166099371Y-122661819D01*
X166099371Y-122661819D02*
X166075561Y-122685628D01*
X166075561Y-122685628D02*
X166051752Y-122733247D01*
X166051752Y-122733247D02*
X166027942Y-122828485D01*
X166027942Y-122828485D02*
X166027942Y-122947533D01*
X166027942Y-122947533D02*
X166051752Y-123042771D01*
X166051752Y-123042771D02*
X166075561Y-123090390D01*
X166075561Y-123090390D02*
X166099371Y-123114200D01*
X166099371Y-123114200D02*
X166146990Y-123138009D01*
X166146990Y-123138009D02*
X166194609Y-123138009D01*
X166194609Y-123138009D02*
X166242228Y-123114200D01*
X166242228Y-123114200D02*
X166266037Y-123090390D01*
X166266037Y-123090390D02*
X166289847Y-123042771D01*
X166289847Y-123042771D02*
X166313656Y-122947533D01*
X166313656Y-122947533D02*
X166313656Y-122828485D01*
X166313656Y-122828485D02*
X166289847Y-122733247D01*
X166289847Y-122733247D02*
X166266037Y-122685628D01*
X166266037Y-122685628D02*
X166242228Y-122661819D01*
X166242228Y-122661819D02*
X166194609Y-122638009D01*
X165575562Y-122638009D02*
X165813657Y-122638009D01*
X165813657Y-122638009D02*
X165837466Y-122876104D01*
X165837466Y-122876104D02*
X165813657Y-122852295D01*
X165813657Y-122852295D02*
X165766038Y-122828485D01*
X165766038Y-122828485D02*
X165646990Y-122828485D01*
X165646990Y-122828485D02*
X165599371Y-122852295D01*
X165599371Y-122852295D02*
X165575562Y-122876104D01*
X165575562Y-122876104D02*
X165551752Y-122923723D01*
X165551752Y-122923723D02*
X165551752Y-123042771D01*
X165551752Y-123042771D02*
X165575562Y-123090390D01*
X165575562Y-123090390D02*
X165599371Y-123114200D01*
X165599371Y-123114200D02*
X165646990Y-123138009D01*
X165646990Y-123138009D02*
X165766038Y-123138009D01*
X165766038Y-123138009D02*
X165813657Y-123114200D01*
X165813657Y-123114200D02*
X165837466Y-123090390D01*
D12*
X152070523Y-108254190D02*
X152094332Y-108278000D01*
X152094332Y-108278000D02*
X152165761Y-108301809D01*
X152165761Y-108301809D02*
X152213380Y-108301809D01*
X152213380Y-108301809D02*
X152284808Y-108278000D01*
X152284808Y-108278000D02*
X152332427Y-108230380D01*
X152332427Y-108230380D02*
X152356237Y-108182761D01*
X152356237Y-108182761D02*
X152380046Y-108087523D01*
X152380046Y-108087523D02*
X152380046Y-108016095D01*
X152380046Y-108016095D02*
X152356237Y-107920857D01*
X152356237Y-107920857D02*
X152332427Y-107873238D01*
X152332427Y-107873238D02*
X152284808Y-107825619D01*
X152284808Y-107825619D02*
X152213380Y-107801809D01*
X152213380Y-107801809D02*
X152165761Y-107801809D01*
X152165761Y-107801809D02*
X152094332Y-107825619D01*
X152094332Y-107825619D02*
X152070523Y-107849428D01*
X151618142Y-107801809D02*
X151856237Y-107801809D01*
X151856237Y-107801809D02*
X151880046Y-108039904D01*
X151880046Y-108039904D02*
X151856237Y-108016095D01*
X151856237Y-108016095D02*
X151808618Y-107992285D01*
X151808618Y-107992285D02*
X151689570Y-107992285D01*
X151689570Y-107992285D02*
X151641951Y-108016095D01*
X151641951Y-108016095D02*
X151618142Y-108039904D01*
X151618142Y-108039904D02*
X151594332Y-108087523D01*
X151594332Y-108087523D02*
X151594332Y-108206571D01*
X151594332Y-108206571D02*
X151618142Y-108254190D01*
X151618142Y-108254190D02*
X151641951Y-108278000D01*
X151641951Y-108278000D02*
X151689570Y-108301809D01*
X151689570Y-108301809D02*
X151808618Y-108301809D01*
X151808618Y-108301809D02*
X151856237Y-108278000D01*
X151856237Y-108278000D02*
X151880046Y-108254190D01*
X151118142Y-108301809D02*
X151403856Y-108301809D01*
X151260999Y-108301809D02*
X151260999Y-107801809D01*
X151260999Y-107801809D02*
X151308618Y-107873238D01*
X151308618Y-107873238D02*
X151356237Y-107920857D01*
X151356237Y-107920857D02*
X151403856Y-107944666D01*
X150927666Y-107849428D02*
X150903857Y-107825619D01*
X150903857Y-107825619D02*
X150856238Y-107801809D01*
X150856238Y-107801809D02*
X150737190Y-107801809D01*
X150737190Y-107801809D02*
X150689571Y-107825619D01*
X150689571Y-107825619D02*
X150665762Y-107849428D01*
X150665762Y-107849428D02*
X150641952Y-107897047D01*
X150641952Y-107897047D02*
X150641952Y-107944666D01*
X150641952Y-107944666D02*
X150665762Y-108016095D01*
X150665762Y-108016095D02*
X150951476Y-108301809D01*
X150951476Y-108301809D02*
X150641952Y-108301809D01*
D10*
X137593247Y-106474419D02*
X137926580Y-105998228D01*
X138164675Y-106474419D02*
X138164675Y-105474419D01*
X138164675Y-105474419D02*
X137783723Y-105474419D01*
X137783723Y-105474419D02*
X137688485Y-105522038D01*
X137688485Y-105522038D02*
X137640866Y-105569657D01*
X137640866Y-105569657D02*
X137593247Y-105664895D01*
X137593247Y-105664895D02*
X137593247Y-105807752D01*
X137593247Y-105807752D02*
X137640866Y-105902990D01*
X137640866Y-105902990D02*
X137688485Y-105950609D01*
X137688485Y-105950609D02*
X137783723Y-105998228D01*
X137783723Y-105998228D02*
X138164675Y-105998228D01*
X136736104Y-105474419D02*
X136926580Y-105474419D01*
X136926580Y-105474419D02*
X137021818Y-105522038D01*
X137021818Y-105522038D02*
X137069437Y-105569657D01*
X137069437Y-105569657D02*
X137164675Y-105712514D01*
X137164675Y-105712514D02*
X137212294Y-105902990D01*
X137212294Y-105902990D02*
X137212294Y-106283942D01*
X137212294Y-106283942D02*
X137164675Y-106379180D01*
X137164675Y-106379180D02*
X137117056Y-106426800D01*
X137117056Y-106426800D02*
X137021818Y-106474419D01*
X137021818Y-106474419D02*
X136831342Y-106474419D01*
X136831342Y-106474419D02*
X136736104Y-106426800D01*
X136736104Y-106426800D02*
X136688485Y-106379180D01*
X136688485Y-106379180D02*
X136640866Y-106283942D01*
X136640866Y-106283942D02*
X136640866Y-106045847D01*
X136640866Y-106045847D02*
X136688485Y-105950609D01*
X136688485Y-105950609D02*
X136736104Y-105902990D01*
X136736104Y-105902990D02*
X136831342Y-105855371D01*
X136831342Y-105855371D02*
X137021818Y-105855371D01*
X137021818Y-105855371D02*
X137117056Y-105902990D01*
X137117056Y-105902990D02*
X137164675Y-105950609D01*
X137164675Y-105950609D02*
X137212294Y-106045847D01*
X136021818Y-105474419D02*
X135926580Y-105474419D01*
X135926580Y-105474419D02*
X135831342Y-105522038D01*
X135831342Y-105522038D02*
X135783723Y-105569657D01*
X135783723Y-105569657D02*
X135736104Y-105664895D01*
X135736104Y-105664895D02*
X135688485Y-105855371D01*
X135688485Y-105855371D02*
X135688485Y-106093466D01*
X135688485Y-106093466D02*
X135736104Y-106283942D01*
X135736104Y-106283942D02*
X135783723Y-106379180D01*
X135783723Y-106379180D02*
X135831342Y-106426800D01*
X135831342Y-106426800D02*
X135926580Y-106474419D01*
X135926580Y-106474419D02*
X136021818Y-106474419D01*
X136021818Y-106474419D02*
X136117056Y-106426800D01*
X136117056Y-106426800D02*
X136164675Y-106379180D01*
X136164675Y-106379180D02*
X136212294Y-106283942D01*
X136212294Y-106283942D02*
X136259913Y-106093466D01*
X136259913Y-106093466D02*
X136259913Y-105855371D01*
X136259913Y-105855371D02*
X136212294Y-105664895D01*
X136212294Y-105664895D02*
X136164675Y-105569657D01*
X136164675Y-105569657D02*
X136117056Y-105522038D01*
X136117056Y-105522038D02*
X136021818Y-105474419D01*
X135307532Y-105569657D02*
X135259913Y-105522038D01*
X135259913Y-105522038D02*
X135164675Y-105474419D01*
X135164675Y-105474419D02*
X134926580Y-105474419D01*
X134926580Y-105474419D02*
X134831342Y-105522038D01*
X134831342Y-105522038D02*
X134783723Y-105569657D01*
X134783723Y-105569657D02*
X134736104Y-105664895D01*
X134736104Y-105664895D02*
X134736104Y-105760133D01*
X134736104Y-105760133D02*
X134783723Y-105902990D01*
X134783723Y-105902990D02*
X135355151Y-106474419D01*
X135355151Y-106474419D02*
X134736104Y-106474419D01*
D11*
X153922809Y-101827876D02*
X153684714Y-101661210D01*
X153922809Y-101542162D02*
X153422809Y-101542162D01*
X153422809Y-101542162D02*
X153422809Y-101732638D01*
X153422809Y-101732638D02*
X153446619Y-101780257D01*
X153446619Y-101780257D02*
X153470428Y-101804067D01*
X153470428Y-101804067D02*
X153518047Y-101827876D01*
X153518047Y-101827876D02*
X153589476Y-101827876D01*
X153589476Y-101827876D02*
X153637095Y-101804067D01*
X153637095Y-101804067D02*
X153660904Y-101780257D01*
X153660904Y-101780257D02*
X153684714Y-101732638D01*
X153684714Y-101732638D02*
X153684714Y-101542162D01*
X153422809Y-102256448D02*
X153422809Y-102161210D01*
X153422809Y-102161210D02*
X153446619Y-102113591D01*
X153446619Y-102113591D02*
X153470428Y-102089781D01*
X153470428Y-102089781D02*
X153541857Y-102042162D01*
X153541857Y-102042162D02*
X153637095Y-102018353D01*
X153637095Y-102018353D02*
X153827571Y-102018353D01*
X153827571Y-102018353D02*
X153875190Y-102042162D01*
X153875190Y-102042162D02*
X153899000Y-102065972D01*
X153899000Y-102065972D02*
X153922809Y-102113591D01*
X153922809Y-102113591D02*
X153922809Y-102208829D01*
X153922809Y-102208829D02*
X153899000Y-102256448D01*
X153899000Y-102256448D02*
X153875190Y-102280257D01*
X153875190Y-102280257D02*
X153827571Y-102304067D01*
X153827571Y-102304067D02*
X153708523Y-102304067D01*
X153708523Y-102304067D02*
X153660904Y-102280257D01*
X153660904Y-102280257D02*
X153637095Y-102256448D01*
X153637095Y-102256448D02*
X153613285Y-102208829D01*
X153613285Y-102208829D02*
X153613285Y-102113591D01*
X153613285Y-102113591D02*
X153637095Y-102065972D01*
X153637095Y-102065972D02*
X153660904Y-102042162D01*
X153660904Y-102042162D02*
X153708523Y-102018353D01*
X153422809Y-102613590D02*
X153422809Y-102661209D01*
X153422809Y-102661209D02*
X153446619Y-102708828D01*
X153446619Y-102708828D02*
X153470428Y-102732638D01*
X153470428Y-102732638D02*
X153518047Y-102756447D01*
X153518047Y-102756447D02*
X153613285Y-102780257D01*
X153613285Y-102780257D02*
X153732333Y-102780257D01*
X153732333Y-102780257D02*
X153827571Y-102756447D01*
X153827571Y-102756447D02*
X153875190Y-102732638D01*
X153875190Y-102732638D02*
X153899000Y-102708828D01*
X153899000Y-102708828D02*
X153922809Y-102661209D01*
X153922809Y-102661209D02*
X153922809Y-102613590D01*
X153922809Y-102613590D02*
X153899000Y-102565971D01*
X153899000Y-102565971D02*
X153875190Y-102542162D01*
X153875190Y-102542162D02*
X153827571Y-102518352D01*
X153827571Y-102518352D02*
X153732333Y-102494543D01*
X153732333Y-102494543D02*
X153613285Y-102494543D01*
X153613285Y-102494543D02*
X153518047Y-102518352D01*
X153518047Y-102518352D02*
X153470428Y-102542162D01*
X153470428Y-102542162D02*
X153446619Y-102565971D01*
X153446619Y-102565971D02*
X153422809Y-102613590D01*
X153422809Y-103208828D02*
X153422809Y-103113590D01*
X153422809Y-103113590D02*
X153446619Y-103065971D01*
X153446619Y-103065971D02*
X153470428Y-103042161D01*
X153470428Y-103042161D02*
X153541857Y-102994542D01*
X153541857Y-102994542D02*
X153637095Y-102970733D01*
X153637095Y-102970733D02*
X153827571Y-102970733D01*
X153827571Y-102970733D02*
X153875190Y-102994542D01*
X153875190Y-102994542D02*
X153899000Y-103018352D01*
X153899000Y-103018352D02*
X153922809Y-103065971D01*
X153922809Y-103065971D02*
X153922809Y-103161209D01*
X153922809Y-103161209D02*
X153899000Y-103208828D01*
X153899000Y-103208828D02*
X153875190Y-103232637D01*
X153875190Y-103232637D02*
X153827571Y-103256447D01*
X153827571Y-103256447D02*
X153708523Y-103256447D01*
X153708523Y-103256447D02*
X153660904Y-103232637D01*
X153660904Y-103232637D02*
X153637095Y-103208828D01*
X153637095Y-103208828D02*
X153613285Y-103161209D01*
X153613285Y-103161209D02*
X153613285Y-103065971D01*
X153613285Y-103065971D02*
X153637095Y-103018352D01*
X153637095Y-103018352D02*
X153660904Y-102994542D01*
X153660904Y-102994542D02*
X153708523Y-102970733D01*
D10*
X146788047Y-116818580D02*
X146835666Y-116866200D01*
X146835666Y-116866200D02*
X146978523Y-116913819D01*
X146978523Y-116913819D02*
X147073761Y-116913819D01*
X147073761Y-116913819D02*
X147216618Y-116866200D01*
X147216618Y-116866200D02*
X147311856Y-116770961D01*
X147311856Y-116770961D02*
X147359475Y-116675723D01*
X147359475Y-116675723D02*
X147407094Y-116485247D01*
X147407094Y-116485247D02*
X147407094Y-116342390D01*
X147407094Y-116342390D02*
X147359475Y-116151914D01*
X147359475Y-116151914D02*
X147311856Y-116056676D01*
X147311856Y-116056676D02*
X147216618Y-115961438D01*
X147216618Y-115961438D02*
X147073761Y-115913819D01*
X147073761Y-115913819D02*
X146978523Y-115913819D01*
X146978523Y-115913819D02*
X146835666Y-115961438D01*
X146835666Y-115961438D02*
X146788047Y-116009057D01*
X146407094Y-116009057D02*
X146359475Y-115961438D01*
X146359475Y-115961438D02*
X146264237Y-115913819D01*
X146264237Y-115913819D02*
X146026142Y-115913819D01*
X146026142Y-115913819D02*
X145930904Y-115961438D01*
X145930904Y-115961438D02*
X145883285Y-116009057D01*
X145883285Y-116009057D02*
X145835666Y-116104295D01*
X145835666Y-116104295D02*
X145835666Y-116199533D01*
X145835666Y-116199533D02*
X145883285Y-116342390D01*
X145883285Y-116342390D02*
X146454713Y-116913819D01*
X146454713Y-116913819D02*
X145835666Y-116913819D01*
X145216618Y-115913819D02*
X145121380Y-115913819D01*
X145121380Y-115913819D02*
X145026142Y-115961438D01*
X145026142Y-115961438D02*
X144978523Y-116009057D01*
X144978523Y-116009057D02*
X144930904Y-116104295D01*
X144930904Y-116104295D02*
X144883285Y-116294771D01*
X144883285Y-116294771D02*
X144883285Y-116532866D01*
X144883285Y-116532866D02*
X144930904Y-116723342D01*
X144930904Y-116723342D02*
X144978523Y-116818580D01*
X144978523Y-116818580D02*
X145026142Y-116866200D01*
X145026142Y-116866200D02*
X145121380Y-116913819D01*
X145121380Y-116913819D02*
X145216618Y-116913819D01*
X145216618Y-116913819D02*
X145311856Y-116866200D01*
X145311856Y-116866200D02*
X145359475Y-116818580D01*
X145359475Y-116818580D02*
X145407094Y-116723342D01*
X145407094Y-116723342D02*
X145454713Y-116532866D01*
X145454713Y-116532866D02*
X145454713Y-116294771D01*
X145454713Y-116294771D02*
X145407094Y-116104295D01*
X145407094Y-116104295D02*
X145359475Y-116009057D01*
X145359475Y-116009057D02*
X145311856Y-115961438D01*
X145311856Y-115961438D02*
X145216618Y-115913819D01*
X144407094Y-116913819D02*
X144216618Y-116913819D01*
X144216618Y-116913819D02*
X144121380Y-116866200D01*
X144121380Y-116866200D02*
X144073761Y-116818580D01*
X144073761Y-116818580D02*
X143978523Y-116675723D01*
X143978523Y-116675723D02*
X143930904Y-116485247D01*
X143930904Y-116485247D02*
X143930904Y-116104295D01*
X143930904Y-116104295D02*
X143978523Y-116009057D01*
X143978523Y-116009057D02*
X144026142Y-115961438D01*
X144026142Y-115961438D02*
X144121380Y-115913819D01*
X144121380Y-115913819D02*
X144311856Y-115913819D01*
X144311856Y-115913819D02*
X144407094Y-115961438D01*
X144407094Y-115961438D02*
X144454713Y-116009057D01*
X144454713Y-116009057D02*
X144502332Y-116104295D01*
X144502332Y-116104295D02*
X144502332Y-116342390D01*
X144502332Y-116342390D02*
X144454713Y-116437628D01*
X144454713Y-116437628D02*
X144407094Y-116485247D01*
X144407094Y-116485247D02*
X144311856Y-116532866D01*
X144311856Y-116532866D02*
X144121380Y-116532866D01*
X144121380Y-116532866D02*
X144026142Y-116485247D01*
X144026142Y-116485247D02*
X143978523Y-116437628D01*
X143978523Y-116437628D02*
X143930904Y-116342390D01*
X140854819Y-106573914D02*
X140854819Y-107145342D01*
X141854819Y-106859628D02*
X140854819Y-106859628D01*
X141854819Y-107478676D02*
X140854819Y-107478676D01*
X140854819Y-107478676D02*
X140854819Y-107859628D01*
X140854819Y-107859628D02*
X140902438Y-107954866D01*
X140902438Y-107954866D02*
X140950057Y-108002485D01*
X140950057Y-108002485D02*
X141045295Y-108050104D01*
X141045295Y-108050104D02*
X141188152Y-108050104D01*
X141188152Y-108050104D02*
X141283390Y-108002485D01*
X141283390Y-108002485D02*
X141331009Y-107954866D01*
X141331009Y-107954866D02*
X141378628Y-107859628D01*
X141378628Y-107859628D02*
X141378628Y-107478676D01*
X140854819Y-108907247D02*
X140854819Y-108716771D01*
X140854819Y-108716771D02*
X140902438Y-108621533D01*
X140902438Y-108621533D02*
X140950057Y-108573914D01*
X140950057Y-108573914D02*
X141092914Y-108478676D01*
X141092914Y-108478676D02*
X141283390Y-108431057D01*
X141283390Y-108431057D02*
X141664342Y-108431057D01*
X141664342Y-108431057D02*
X141759580Y-108478676D01*
X141759580Y-108478676D02*
X141807200Y-108526295D01*
X141807200Y-108526295D02*
X141854819Y-108621533D01*
X141854819Y-108621533D02*
X141854819Y-108812009D01*
X141854819Y-108812009D02*
X141807200Y-108907247D01*
X141807200Y-108907247D02*
X141759580Y-108954866D01*
X141759580Y-108954866D02*
X141664342Y-109002485D01*
X141664342Y-109002485D02*
X141426247Y-109002485D01*
X141426247Y-109002485D02*
X141331009Y-108954866D01*
X141331009Y-108954866D02*
X141283390Y-108907247D01*
X141283390Y-108907247D02*
X141235771Y-108812009D01*
X141235771Y-108812009D02*
X141235771Y-108621533D01*
X141235771Y-108621533D02*
X141283390Y-108526295D01*
X141283390Y-108526295D02*
X141331009Y-108478676D01*
X141331009Y-108478676D02*
X141426247Y-108431057D01*
X140854819Y-109621533D02*
X140854819Y-109716771D01*
X140854819Y-109716771D02*
X140902438Y-109812009D01*
X140902438Y-109812009D02*
X140950057Y-109859628D01*
X140950057Y-109859628D02*
X141045295Y-109907247D01*
X141045295Y-109907247D02*
X141235771Y-109954866D01*
X141235771Y-109954866D02*
X141473866Y-109954866D01*
X141473866Y-109954866D02*
X141664342Y-109907247D01*
X141664342Y-109907247D02*
X141759580Y-109859628D01*
X141759580Y-109859628D02*
X141807200Y-109812009D01*
X141807200Y-109812009D02*
X141854819Y-109716771D01*
X141854819Y-109716771D02*
X141854819Y-109621533D01*
X141854819Y-109621533D02*
X141807200Y-109526295D01*
X141807200Y-109526295D02*
X141759580Y-109478676D01*
X141759580Y-109478676D02*
X141664342Y-109431057D01*
X141664342Y-109431057D02*
X141473866Y-109383438D01*
X141473866Y-109383438D02*
X141235771Y-109383438D01*
X141235771Y-109383438D02*
X141045295Y-109431057D01*
X141045295Y-109431057D02*
X140950057Y-109478676D01*
X140950057Y-109478676D02*
X140902438Y-109526295D01*
X140902438Y-109526295D02*
X140854819Y-109621533D01*
X141854819Y-110907247D02*
X141854819Y-110335819D01*
X141854819Y-110621533D02*
X140854819Y-110621533D01*
X140854819Y-110621533D02*
X140997676Y-110526295D01*
X140997676Y-110526295D02*
X141092914Y-110431057D01*
X141092914Y-110431057D02*
X141140533Y-110335819D01*
D11*
X157473542Y-121952209D02*
X157473542Y-122356971D01*
X157473542Y-122356971D02*
X157449732Y-122404590D01*
X157449732Y-122404590D02*
X157425923Y-122428400D01*
X157425923Y-122428400D02*
X157378304Y-122452209D01*
X157378304Y-122452209D02*
X157283066Y-122452209D01*
X157283066Y-122452209D02*
X157235447Y-122428400D01*
X157235447Y-122428400D02*
X157211637Y-122404590D01*
X157211637Y-122404590D02*
X157187828Y-122356971D01*
X157187828Y-122356971D02*
X157187828Y-121952209D01*
X156735446Y-122118876D02*
X156735446Y-122452209D01*
X156854494Y-121928400D02*
X156973541Y-122285542D01*
X156973541Y-122285542D02*
X156664018Y-122285542D01*
X156378304Y-121952209D02*
X156330685Y-121952209D01*
X156330685Y-121952209D02*
X156283066Y-121976019D01*
X156283066Y-121976019D02*
X156259256Y-121999828D01*
X156259256Y-121999828D02*
X156235447Y-122047447D01*
X156235447Y-122047447D02*
X156211637Y-122142685D01*
X156211637Y-122142685D02*
X156211637Y-122261733D01*
X156211637Y-122261733D02*
X156235447Y-122356971D01*
X156235447Y-122356971D02*
X156259256Y-122404590D01*
X156259256Y-122404590D02*
X156283066Y-122428400D01*
X156283066Y-122428400D02*
X156330685Y-122452209D01*
X156330685Y-122452209D02*
X156378304Y-122452209D01*
X156378304Y-122452209D02*
X156425923Y-122428400D01*
X156425923Y-122428400D02*
X156449732Y-122404590D01*
X156449732Y-122404590D02*
X156473542Y-122356971D01*
X156473542Y-122356971D02*
X156497351Y-122261733D01*
X156497351Y-122261733D02*
X156497351Y-122142685D01*
X156497351Y-122142685D02*
X156473542Y-122047447D01*
X156473542Y-122047447D02*
X156449732Y-121999828D01*
X156449732Y-121999828D02*
X156425923Y-121976019D01*
X156425923Y-121976019D02*
X156378304Y-121952209D01*
X155735447Y-122452209D02*
X156021161Y-122452209D01*
X155878304Y-122452209D02*
X155878304Y-121952209D01*
X155878304Y-121952209D02*
X155925923Y-122023638D01*
X155925923Y-122023638D02*
X155973542Y-122071257D01*
X155973542Y-122071257D02*
X156021161Y-122095066D01*
D10*
X139646819Y-105332352D02*
X139170628Y-104999019D01*
X139646819Y-104760924D02*
X138646819Y-104760924D01*
X138646819Y-104760924D02*
X138646819Y-105141876D01*
X138646819Y-105141876D02*
X138694438Y-105237114D01*
X138694438Y-105237114D02*
X138742057Y-105284733D01*
X138742057Y-105284733D02*
X138837295Y-105332352D01*
X138837295Y-105332352D02*
X138980152Y-105332352D01*
X138980152Y-105332352D02*
X139075390Y-105284733D01*
X139075390Y-105284733D02*
X139123009Y-105237114D01*
X139123009Y-105237114D02*
X139170628Y-105141876D01*
X139170628Y-105141876D02*
X139170628Y-104760924D01*
X138646819Y-106189495D02*
X138646819Y-105999019D01*
X138646819Y-105999019D02*
X138694438Y-105903781D01*
X138694438Y-105903781D02*
X138742057Y-105856162D01*
X138742057Y-105856162D02*
X138884914Y-105760924D01*
X138884914Y-105760924D02*
X139075390Y-105713305D01*
X139075390Y-105713305D02*
X139456342Y-105713305D01*
X139456342Y-105713305D02*
X139551580Y-105760924D01*
X139551580Y-105760924D02*
X139599200Y-105808543D01*
X139599200Y-105808543D02*
X139646819Y-105903781D01*
X139646819Y-105903781D02*
X139646819Y-106094257D01*
X139646819Y-106094257D02*
X139599200Y-106189495D01*
X139599200Y-106189495D02*
X139551580Y-106237114D01*
X139551580Y-106237114D02*
X139456342Y-106284733D01*
X139456342Y-106284733D02*
X139218247Y-106284733D01*
X139218247Y-106284733D02*
X139123009Y-106237114D01*
X139123009Y-106237114D02*
X139075390Y-106189495D01*
X139075390Y-106189495D02*
X139027771Y-106094257D01*
X139027771Y-106094257D02*
X139027771Y-105903781D01*
X139027771Y-105903781D02*
X139075390Y-105808543D01*
X139075390Y-105808543D02*
X139123009Y-105760924D01*
X139123009Y-105760924D02*
X139218247Y-105713305D01*
X138646819Y-106903781D02*
X138646819Y-106999019D01*
X138646819Y-106999019D02*
X138694438Y-107094257D01*
X138694438Y-107094257D02*
X138742057Y-107141876D01*
X138742057Y-107141876D02*
X138837295Y-107189495D01*
X138837295Y-107189495D02*
X139027771Y-107237114D01*
X139027771Y-107237114D02*
X139265866Y-107237114D01*
X139265866Y-107237114D02*
X139456342Y-107189495D01*
X139456342Y-107189495D02*
X139551580Y-107141876D01*
X139551580Y-107141876D02*
X139599200Y-107094257D01*
X139599200Y-107094257D02*
X139646819Y-106999019D01*
X139646819Y-106999019D02*
X139646819Y-106903781D01*
X139646819Y-106903781D02*
X139599200Y-106808543D01*
X139599200Y-106808543D02*
X139551580Y-106760924D01*
X139551580Y-106760924D02*
X139456342Y-106713305D01*
X139456342Y-106713305D02*
X139265866Y-106665686D01*
X139265866Y-106665686D02*
X139027771Y-106665686D01*
X139027771Y-106665686D02*
X138837295Y-106713305D01*
X138837295Y-106713305D02*
X138742057Y-106760924D01*
X138742057Y-106760924D02*
X138694438Y-106808543D01*
X138694438Y-106808543D02*
X138646819Y-106903781D01*
X138980152Y-108094257D02*
X139646819Y-108094257D01*
X138599200Y-107856162D02*
X139313485Y-107618067D01*
X139313485Y-107618067D02*
X139313485Y-108237114D01*
X149709047Y-97559019D02*
X150042380Y-97082828D01*
X150280475Y-97559019D02*
X150280475Y-96559019D01*
X150280475Y-96559019D02*
X149899523Y-96559019D01*
X149899523Y-96559019D02*
X149804285Y-96606638D01*
X149804285Y-96606638D02*
X149756666Y-96654257D01*
X149756666Y-96654257D02*
X149709047Y-96749495D01*
X149709047Y-96749495D02*
X149709047Y-96892352D01*
X149709047Y-96892352D02*
X149756666Y-96987590D01*
X149756666Y-96987590D02*
X149804285Y-97035209D01*
X149804285Y-97035209D02*
X149899523Y-97082828D01*
X149899523Y-97082828D02*
X150280475Y-97082828D01*
X148851904Y-96559019D02*
X149042380Y-96559019D01*
X149042380Y-96559019D02*
X149137618Y-96606638D01*
X149137618Y-96606638D02*
X149185237Y-96654257D01*
X149185237Y-96654257D02*
X149280475Y-96797114D01*
X149280475Y-96797114D02*
X149328094Y-96987590D01*
X149328094Y-96987590D02*
X149328094Y-97368542D01*
X149328094Y-97368542D02*
X149280475Y-97463780D01*
X149280475Y-97463780D02*
X149232856Y-97511400D01*
X149232856Y-97511400D02*
X149137618Y-97559019D01*
X149137618Y-97559019D02*
X148947142Y-97559019D01*
X148947142Y-97559019D02*
X148851904Y-97511400D01*
X148851904Y-97511400D02*
X148804285Y-97463780D01*
X148804285Y-97463780D02*
X148756666Y-97368542D01*
X148756666Y-97368542D02*
X148756666Y-97130447D01*
X148756666Y-97130447D02*
X148804285Y-97035209D01*
X148804285Y-97035209D02*
X148851904Y-96987590D01*
X148851904Y-96987590D02*
X148947142Y-96939971D01*
X148947142Y-96939971D02*
X149137618Y-96939971D01*
X149137618Y-96939971D02*
X149232856Y-96987590D01*
X149232856Y-96987590D02*
X149280475Y-97035209D01*
X149280475Y-97035209D02*
X149328094Y-97130447D01*
X147804285Y-97559019D02*
X148375713Y-97559019D01*
X148089999Y-97559019D02*
X148089999Y-96559019D01*
X148089999Y-96559019D02*
X148185237Y-96701876D01*
X148185237Y-96701876D02*
X148280475Y-96797114D01*
X148280475Y-96797114D02*
X148375713Y-96844733D01*
X146851904Y-97559019D02*
X147423332Y-97559019D01*
X147137618Y-97559019D02*
X147137618Y-96559019D01*
X147137618Y-96559019D02*
X147232856Y-96701876D01*
X147232856Y-96701876D02*
X147328094Y-96797114D01*
X147328094Y-96797114D02*
X147423332Y-96844733D01*
D11*
X160579523Y-124890609D02*
X160746189Y-124652514D01*
X160865237Y-124890609D02*
X160865237Y-124390609D01*
X160865237Y-124390609D02*
X160674761Y-124390609D01*
X160674761Y-124390609D02*
X160627142Y-124414419D01*
X160627142Y-124414419D02*
X160603332Y-124438228D01*
X160603332Y-124438228D02*
X160579523Y-124485847D01*
X160579523Y-124485847D02*
X160579523Y-124557276D01*
X160579523Y-124557276D02*
X160603332Y-124604895D01*
X160603332Y-124604895D02*
X160627142Y-124628704D01*
X160627142Y-124628704D02*
X160674761Y-124652514D01*
X160674761Y-124652514D02*
X160865237Y-124652514D01*
X160127142Y-124390609D02*
X160365237Y-124390609D01*
X160365237Y-124390609D02*
X160389046Y-124628704D01*
X160389046Y-124628704D02*
X160365237Y-124604895D01*
X160365237Y-124604895D02*
X160317618Y-124581085D01*
X160317618Y-124581085D02*
X160198570Y-124581085D01*
X160198570Y-124581085D02*
X160150951Y-124604895D01*
X160150951Y-124604895D02*
X160127142Y-124628704D01*
X160127142Y-124628704D02*
X160103332Y-124676323D01*
X160103332Y-124676323D02*
X160103332Y-124795371D01*
X160103332Y-124795371D02*
X160127142Y-124842990D01*
X160127142Y-124842990D02*
X160150951Y-124866800D01*
X160150951Y-124866800D02*
X160198570Y-124890609D01*
X160198570Y-124890609D02*
X160317618Y-124890609D01*
X160317618Y-124890609D02*
X160365237Y-124866800D01*
X160365237Y-124866800D02*
X160389046Y-124842990D01*
X159793809Y-124390609D02*
X159746190Y-124390609D01*
X159746190Y-124390609D02*
X159698571Y-124414419D01*
X159698571Y-124414419D02*
X159674761Y-124438228D01*
X159674761Y-124438228D02*
X159650952Y-124485847D01*
X159650952Y-124485847D02*
X159627142Y-124581085D01*
X159627142Y-124581085D02*
X159627142Y-124700133D01*
X159627142Y-124700133D02*
X159650952Y-124795371D01*
X159650952Y-124795371D02*
X159674761Y-124842990D01*
X159674761Y-124842990D02*
X159698571Y-124866800D01*
X159698571Y-124866800D02*
X159746190Y-124890609D01*
X159746190Y-124890609D02*
X159793809Y-124890609D01*
X159793809Y-124890609D02*
X159841428Y-124866800D01*
X159841428Y-124866800D02*
X159865237Y-124842990D01*
X159865237Y-124842990D02*
X159889047Y-124795371D01*
X159889047Y-124795371D02*
X159912856Y-124700133D01*
X159912856Y-124700133D02*
X159912856Y-124581085D01*
X159912856Y-124581085D02*
X159889047Y-124485847D01*
X159889047Y-124485847D02*
X159865237Y-124438228D01*
X159865237Y-124438228D02*
X159841428Y-124414419D01*
X159841428Y-124414419D02*
X159793809Y-124390609D01*
X159150952Y-124890609D02*
X159436666Y-124890609D01*
X159293809Y-124890609D02*
X159293809Y-124390609D01*
X159293809Y-124390609D02*
X159341428Y-124462038D01*
X159341428Y-124462038D02*
X159389047Y-124509657D01*
X159389047Y-124509657D02*
X159436666Y-124533466D01*
D10*
X157075047Y-103070819D02*
X157408380Y-102594628D01*
X157646475Y-103070819D02*
X157646475Y-102070819D01*
X157646475Y-102070819D02*
X157265523Y-102070819D01*
X157265523Y-102070819D02*
X157170285Y-102118438D01*
X157170285Y-102118438D02*
X157122666Y-102166057D01*
X157122666Y-102166057D02*
X157075047Y-102261295D01*
X157075047Y-102261295D02*
X157075047Y-102404152D01*
X157075047Y-102404152D02*
X157122666Y-102499390D01*
X157122666Y-102499390D02*
X157170285Y-102547009D01*
X157170285Y-102547009D02*
X157265523Y-102594628D01*
X157265523Y-102594628D02*
X157646475Y-102594628D01*
X156217904Y-102070819D02*
X156408380Y-102070819D01*
X156408380Y-102070819D02*
X156503618Y-102118438D01*
X156503618Y-102118438D02*
X156551237Y-102166057D01*
X156551237Y-102166057D02*
X156646475Y-102308914D01*
X156646475Y-102308914D02*
X156694094Y-102499390D01*
X156694094Y-102499390D02*
X156694094Y-102880342D01*
X156694094Y-102880342D02*
X156646475Y-102975580D01*
X156646475Y-102975580D02*
X156598856Y-103023200D01*
X156598856Y-103023200D02*
X156503618Y-103070819D01*
X156503618Y-103070819D02*
X156313142Y-103070819D01*
X156313142Y-103070819D02*
X156217904Y-103023200D01*
X156217904Y-103023200D02*
X156170285Y-102975580D01*
X156170285Y-102975580D02*
X156122666Y-102880342D01*
X156122666Y-102880342D02*
X156122666Y-102642247D01*
X156122666Y-102642247D02*
X156170285Y-102547009D01*
X156170285Y-102547009D02*
X156217904Y-102499390D01*
X156217904Y-102499390D02*
X156313142Y-102451771D01*
X156313142Y-102451771D02*
X156503618Y-102451771D01*
X156503618Y-102451771D02*
X156598856Y-102499390D01*
X156598856Y-102499390D02*
X156646475Y-102547009D01*
X156646475Y-102547009D02*
X156694094Y-102642247D01*
X155503618Y-102070819D02*
X155408380Y-102070819D01*
X155408380Y-102070819D02*
X155313142Y-102118438D01*
X155313142Y-102118438D02*
X155265523Y-102166057D01*
X155265523Y-102166057D02*
X155217904Y-102261295D01*
X155217904Y-102261295D02*
X155170285Y-102451771D01*
X155170285Y-102451771D02*
X155170285Y-102689866D01*
X155170285Y-102689866D02*
X155217904Y-102880342D01*
X155217904Y-102880342D02*
X155265523Y-102975580D01*
X155265523Y-102975580D02*
X155313142Y-103023200D01*
X155313142Y-103023200D02*
X155408380Y-103070819D01*
X155408380Y-103070819D02*
X155503618Y-103070819D01*
X155503618Y-103070819D02*
X155598856Y-103023200D01*
X155598856Y-103023200D02*
X155646475Y-102975580D01*
X155646475Y-102975580D02*
X155694094Y-102880342D01*
X155694094Y-102880342D02*
X155741713Y-102689866D01*
X155741713Y-102689866D02*
X155741713Y-102451771D01*
X155741713Y-102451771D02*
X155694094Y-102261295D01*
X155694094Y-102261295D02*
X155646475Y-102166057D01*
X155646475Y-102166057D02*
X155598856Y-102118438D01*
X155598856Y-102118438D02*
X155503618Y-102070819D01*
X154598856Y-102499390D02*
X154694094Y-102451771D01*
X154694094Y-102451771D02*
X154741713Y-102404152D01*
X154741713Y-102404152D02*
X154789332Y-102308914D01*
X154789332Y-102308914D02*
X154789332Y-102261295D01*
X154789332Y-102261295D02*
X154741713Y-102166057D01*
X154741713Y-102166057D02*
X154694094Y-102118438D01*
X154694094Y-102118438D02*
X154598856Y-102070819D01*
X154598856Y-102070819D02*
X154408380Y-102070819D01*
X154408380Y-102070819D02*
X154313142Y-102118438D01*
X154313142Y-102118438D02*
X154265523Y-102166057D01*
X154265523Y-102166057D02*
X154217904Y-102261295D01*
X154217904Y-102261295D02*
X154217904Y-102308914D01*
X154217904Y-102308914D02*
X154265523Y-102404152D01*
X154265523Y-102404152D02*
X154313142Y-102451771D01*
X154313142Y-102451771D02*
X154408380Y-102499390D01*
X154408380Y-102499390D02*
X154598856Y-102499390D01*
X154598856Y-102499390D02*
X154694094Y-102547009D01*
X154694094Y-102547009D02*
X154741713Y-102594628D01*
X154741713Y-102594628D02*
X154789332Y-102689866D01*
X154789332Y-102689866D02*
X154789332Y-102880342D01*
X154789332Y-102880342D02*
X154741713Y-102975580D01*
X154741713Y-102975580D02*
X154694094Y-103023200D01*
X154694094Y-103023200D02*
X154598856Y-103070819D01*
X154598856Y-103070819D02*
X154408380Y-103070819D01*
X154408380Y-103070819D02*
X154313142Y-103023200D01*
X154313142Y-103023200D02*
X154265523Y-102975580D01*
X154265523Y-102975580D02*
X154217904Y-102880342D01*
X154217904Y-102880342D02*
X154217904Y-102689866D01*
X154217904Y-102689866D02*
X154265523Y-102594628D01*
X154265523Y-102594628D02*
X154313142Y-102547009D01*
X154313142Y-102547009D02*
X154408380Y-102499390D01*
X137618647Y-101242019D02*
X137951980Y-100765828D01*
X138190075Y-101242019D02*
X138190075Y-100242019D01*
X138190075Y-100242019D02*
X137809123Y-100242019D01*
X137809123Y-100242019D02*
X137713885Y-100289638D01*
X137713885Y-100289638D02*
X137666266Y-100337257D01*
X137666266Y-100337257D02*
X137618647Y-100432495D01*
X137618647Y-100432495D02*
X137618647Y-100575352D01*
X137618647Y-100575352D02*
X137666266Y-100670590D01*
X137666266Y-100670590D02*
X137713885Y-100718209D01*
X137713885Y-100718209D02*
X137809123Y-100765828D01*
X137809123Y-100765828D02*
X138190075Y-100765828D01*
X136761504Y-100242019D02*
X136951980Y-100242019D01*
X136951980Y-100242019D02*
X137047218Y-100289638D01*
X137047218Y-100289638D02*
X137094837Y-100337257D01*
X137094837Y-100337257D02*
X137190075Y-100480114D01*
X137190075Y-100480114D02*
X137237694Y-100670590D01*
X137237694Y-100670590D02*
X137237694Y-101051542D01*
X137237694Y-101051542D02*
X137190075Y-101146780D01*
X137190075Y-101146780D02*
X137142456Y-101194400D01*
X137142456Y-101194400D02*
X137047218Y-101242019D01*
X137047218Y-101242019D02*
X136856742Y-101242019D01*
X136856742Y-101242019D02*
X136761504Y-101194400D01*
X136761504Y-101194400D02*
X136713885Y-101146780D01*
X136713885Y-101146780D02*
X136666266Y-101051542D01*
X136666266Y-101051542D02*
X136666266Y-100813447D01*
X136666266Y-100813447D02*
X136713885Y-100718209D01*
X136713885Y-100718209D02*
X136761504Y-100670590D01*
X136761504Y-100670590D02*
X136856742Y-100622971D01*
X136856742Y-100622971D02*
X137047218Y-100622971D01*
X137047218Y-100622971D02*
X137142456Y-100670590D01*
X137142456Y-100670590D02*
X137190075Y-100718209D01*
X137190075Y-100718209D02*
X137237694Y-100813447D01*
X136047218Y-100242019D02*
X135951980Y-100242019D01*
X135951980Y-100242019D02*
X135856742Y-100289638D01*
X135856742Y-100289638D02*
X135809123Y-100337257D01*
X135809123Y-100337257D02*
X135761504Y-100432495D01*
X135761504Y-100432495D02*
X135713885Y-100622971D01*
X135713885Y-100622971D02*
X135713885Y-100861066D01*
X135713885Y-100861066D02*
X135761504Y-101051542D01*
X135761504Y-101051542D02*
X135809123Y-101146780D01*
X135809123Y-101146780D02*
X135856742Y-101194400D01*
X135856742Y-101194400D02*
X135951980Y-101242019D01*
X135951980Y-101242019D02*
X136047218Y-101242019D01*
X136047218Y-101242019D02*
X136142456Y-101194400D01*
X136142456Y-101194400D02*
X136190075Y-101146780D01*
X136190075Y-101146780D02*
X136237694Y-101051542D01*
X136237694Y-101051542D02*
X136285313Y-100861066D01*
X136285313Y-100861066D02*
X136285313Y-100622971D01*
X136285313Y-100622971D02*
X136237694Y-100432495D01*
X136237694Y-100432495D02*
X136190075Y-100337257D01*
X136190075Y-100337257D02*
X136142456Y-100289638D01*
X136142456Y-100289638D02*
X136047218Y-100242019D01*
X135380551Y-100242019D02*
X134761504Y-100242019D01*
X134761504Y-100242019D02*
X135094837Y-100622971D01*
X135094837Y-100622971D02*
X134951980Y-100622971D01*
X134951980Y-100622971D02*
X134856742Y-100670590D01*
X134856742Y-100670590D02*
X134809123Y-100718209D01*
X134809123Y-100718209D02*
X134761504Y-100813447D01*
X134761504Y-100813447D02*
X134761504Y-101051542D01*
X134761504Y-101051542D02*
X134809123Y-101146780D01*
X134809123Y-101146780D02*
X134856742Y-101194400D01*
X134856742Y-101194400D02*
X134951980Y-101242019D01*
X134951980Y-101242019D02*
X135237694Y-101242019D01*
X135237694Y-101242019D02*
X135332932Y-101194400D01*
X135332932Y-101194400D02*
X135380551Y-101146780D01*
X161998819Y-119632552D02*
X161522628Y-119299219D01*
X161998819Y-119061124D02*
X160998819Y-119061124D01*
X160998819Y-119061124D02*
X160998819Y-119442076D01*
X160998819Y-119442076D02*
X161046438Y-119537314D01*
X161046438Y-119537314D02*
X161094057Y-119584933D01*
X161094057Y-119584933D02*
X161189295Y-119632552D01*
X161189295Y-119632552D02*
X161332152Y-119632552D01*
X161332152Y-119632552D02*
X161427390Y-119584933D01*
X161427390Y-119584933D02*
X161475009Y-119537314D01*
X161475009Y-119537314D02*
X161522628Y-119442076D01*
X161522628Y-119442076D02*
X161522628Y-119061124D01*
X160998819Y-120537314D02*
X160998819Y-120061124D01*
X160998819Y-120061124D02*
X161475009Y-120013505D01*
X161475009Y-120013505D02*
X161427390Y-120061124D01*
X161427390Y-120061124D02*
X161379771Y-120156362D01*
X161379771Y-120156362D02*
X161379771Y-120394457D01*
X161379771Y-120394457D02*
X161427390Y-120489695D01*
X161427390Y-120489695D02*
X161475009Y-120537314D01*
X161475009Y-120537314D02*
X161570247Y-120584933D01*
X161570247Y-120584933D02*
X161808342Y-120584933D01*
X161808342Y-120584933D02*
X161903580Y-120537314D01*
X161903580Y-120537314D02*
X161951200Y-120489695D01*
X161951200Y-120489695D02*
X161998819Y-120394457D01*
X161998819Y-120394457D02*
X161998819Y-120156362D01*
X161998819Y-120156362D02*
X161951200Y-120061124D01*
X161951200Y-120061124D02*
X161903580Y-120013505D01*
X160998819Y-121203981D02*
X160998819Y-121299219D01*
X160998819Y-121299219D02*
X161046438Y-121394457D01*
X161046438Y-121394457D02*
X161094057Y-121442076D01*
X161094057Y-121442076D02*
X161189295Y-121489695D01*
X161189295Y-121489695D02*
X161379771Y-121537314D01*
X161379771Y-121537314D02*
X161617866Y-121537314D01*
X161617866Y-121537314D02*
X161808342Y-121489695D01*
X161808342Y-121489695D02*
X161903580Y-121442076D01*
X161903580Y-121442076D02*
X161951200Y-121394457D01*
X161951200Y-121394457D02*
X161998819Y-121299219D01*
X161998819Y-121299219D02*
X161998819Y-121203981D01*
X161998819Y-121203981D02*
X161951200Y-121108743D01*
X161951200Y-121108743D02*
X161903580Y-121061124D01*
X161903580Y-121061124D02*
X161808342Y-121013505D01*
X161808342Y-121013505D02*
X161617866Y-120965886D01*
X161617866Y-120965886D02*
X161379771Y-120965886D01*
X161379771Y-120965886D02*
X161189295Y-121013505D01*
X161189295Y-121013505D02*
X161094057Y-121061124D01*
X161094057Y-121061124D02*
X161046438Y-121108743D01*
X161046438Y-121108743D02*
X160998819Y-121203981D01*
X160998819Y-122394457D02*
X160998819Y-122203981D01*
X160998819Y-122203981D02*
X161046438Y-122108743D01*
X161046438Y-122108743D02*
X161094057Y-122061124D01*
X161094057Y-122061124D02*
X161236914Y-121965886D01*
X161236914Y-121965886D02*
X161427390Y-121918267D01*
X161427390Y-121918267D02*
X161808342Y-121918267D01*
X161808342Y-121918267D02*
X161903580Y-121965886D01*
X161903580Y-121965886D02*
X161951200Y-122013505D01*
X161951200Y-122013505D02*
X161998819Y-122108743D01*
X161998819Y-122108743D02*
X161998819Y-122299219D01*
X161998819Y-122299219D02*
X161951200Y-122394457D01*
X161951200Y-122394457D02*
X161903580Y-122442076D01*
X161903580Y-122442076D02*
X161808342Y-122489695D01*
X161808342Y-122489695D02*
X161570247Y-122489695D01*
X161570247Y-122489695D02*
X161475009Y-122442076D01*
X161475009Y-122442076D02*
X161427390Y-122394457D01*
X161427390Y-122394457D02*
X161379771Y-122299219D01*
X161379771Y-122299219D02*
X161379771Y-122108743D01*
X161379771Y-122108743D02*
X161427390Y-122013505D01*
X161427390Y-122013505D02*
X161475009Y-121965886D01*
X161475009Y-121965886D02*
X161570247Y-121918267D01*
D11*
X160300123Y-120982190D02*
X160323932Y-121006000D01*
X160323932Y-121006000D02*
X160395361Y-121029809D01*
X160395361Y-121029809D02*
X160442980Y-121029809D01*
X160442980Y-121029809D02*
X160514408Y-121006000D01*
X160514408Y-121006000D02*
X160562027Y-120958380D01*
X160562027Y-120958380D02*
X160585837Y-120910761D01*
X160585837Y-120910761D02*
X160609646Y-120815523D01*
X160609646Y-120815523D02*
X160609646Y-120744095D01*
X160609646Y-120744095D02*
X160585837Y-120648857D01*
X160585837Y-120648857D02*
X160562027Y-120601238D01*
X160562027Y-120601238D02*
X160514408Y-120553619D01*
X160514408Y-120553619D02*
X160442980Y-120529809D01*
X160442980Y-120529809D02*
X160395361Y-120529809D01*
X160395361Y-120529809D02*
X160323932Y-120553619D01*
X160323932Y-120553619D02*
X160300123Y-120577428D01*
X159871551Y-120696476D02*
X159871551Y-121029809D01*
X159990599Y-120506000D02*
X160109646Y-120863142D01*
X160109646Y-120863142D02*
X159800123Y-120863142D01*
X159514409Y-120529809D02*
X159466790Y-120529809D01*
X159466790Y-120529809D02*
X159419171Y-120553619D01*
X159419171Y-120553619D02*
X159395361Y-120577428D01*
X159395361Y-120577428D02*
X159371552Y-120625047D01*
X159371552Y-120625047D02*
X159347742Y-120720285D01*
X159347742Y-120720285D02*
X159347742Y-120839333D01*
X159347742Y-120839333D02*
X159371552Y-120934571D01*
X159371552Y-120934571D02*
X159395361Y-120982190D01*
X159395361Y-120982190D02*
X159419171Y-121006000D01*
X159419171Y-121006000D02*
X159466790Y-121029809D01*
X159466790Y-121029809D02*
X159514409Y-121029809D01*
X159514409Y-121029809D02*
X159562028Y-121006000D01*
X159562028Y-121006000D02*
X159585837Y-120982190D01*
X159585837Y-120982190D02*
X159609647Y-120934571D01*
X159609647Y-120934571D02*
X159633456Y-120839333D01*
X159633456Y-120839333D02*
X159633456Y-120720285D01*
X159633456Y-120720285D02*
X159609647Y-120625047D01*
X159609647Y-120625047D02*
X159585837Y-120577428D01*
X159585837Y-120577428D02*
X159562028Y-120553619D01*
X159562028Y-120553619D02*
X159514409Y-120529809D01*
X158871552Y-121029809D02*
X159157266Y-121029809D01*
X159014409Y-121029809D02*
X159014409Y-120529809D01*
X159014409Y-120529809D02*
X159062028Y-120601238D01*
X159062028Y-120601238D02*
X159109647Y-120648857D01*
X159109647Y-120648857D02*
X159157266Y-120672666D01*
D10*
X161166980Y-113155552D02*
X161214600Y-113107933D01*
X161214600Y-113107933D02*
X161262219Y-112965076D01*
X161262219Y-112965076D02*
X161262219Y-112869838D01*
X161262219Y-112869838D02*
X161214600Y-112726981D01*
X161214600Y-112726981D02*
X161119361Y-112631743D01*
X161119361Y-112631743D02*
X161024123Y-112584124D01*
X161024123Y-112584124D02*
X160833647Y-112536505D01*
X160833647Y-112536505D02*
X160690790Y-112536505D01*
X160690790Y-112536505D02*
X160500314Y-112584124D01*
X160500314Y-112584124D02*
X160405076Y-112631743D01*
X160405076Y-112631743D02*
X160309838Y-112726981D01*
X160309838Y-112726981D02*
X160262219Y-112869838D01*
X160262219Y-112869838D02*
X160262219Y-112965076D01*
X160262219Y-112965076D02*
X160309838Y-113107933D01*
X160309838Y-113107933D02*
X160357457Y-113155552D01*
X160262219Y-114060314D02*
X160262219Y-113584124D01*
X160262219Y-113584124D02*
X160738409Y-113536505D01*
X160738409Y-113536505D02*
X160690790Y-113584124D01*
X160690790Y-113584124D02*
X160643171Y-113679362D01*
X160643171Y-113679362D02*
X160643171Y-113917457D01*
X160643171Y-113917457D02*
X160690790Y-114012695D01*
X160690790Y-114012695D02*
X160738409Y-114060314D01*
X160738409Y-114060314D02*
X160833647Y-114107933D01*
X160833647Y-114107933D02*
X161071742Y-114107933D01*
X161071742Y-114107933D02*
X161166980Y-114060314D01*
X161166980Y-114060314D02*
X161214600Y-114012695D01*
X161214600Y-114012695D02*
X161262219Y-113917457D01*
X161262219Y-113917457D02*
X161262219Y-113679362D01*
X161262219Y-113679362D02*
X161214600Y-113584124D01*
X161214600Y-113584124D02*
X161166980Y-113536505D01*
X160262219Y-114726981D02*
X160262219Y-114822219D01*
X160262219Y-114822219D02*
X160309838Y-114917457D01*
X160309838Y-114917457D02*
X160357457Y-114965076D01*
X160357457Y-114965076D02*
X160452695Y-115012695D01*
X160452695Y-115012695D02*
X160643171Y-115060314D01*
X160643171Y-115060314D02*
X160881266Y-115060314D01*
X160881266Y-115060314D02*
X161071742Y-115012695D01*
X161071742Y-115012695D02*
X161166980Y-114965076D01*
X161166980Y-114965076D02*
X161214600Y-114917457D01*
X161214600Y-114917457D02*
X161262219Y-114822219D01*
X161262219Y-114822219D02*
X161262219Y-114726981D01*
X161262219Y-114726981D02*
X161214600Y-114631743D01*
X161214600Y-114631743D02*
X161166980Y-114584124D01*
X161166980Y-114584124D02*
X161071742Y-114536505D01*
X161071742Y-114536505D02*
X160881266Y-114488886D01*
X160881266Y-114488886D02*
X160643171Y-114488886D01*
X160643171Y-114488886D02*
X160452695Y-114536505D01*
X160452695Y-114536505D02*
X160357457Y-114584124D01*
X160357457Y-114584124D02*
X160309838Y-114631743D01*
X160309838Y-114631743D02*
X160262219Y-114726981D01*
X161262219Y-115536505D02*
X161262219Y-115726981D01*
X161262219Y-115726981D02*
X161214600Y-115822219D01*
X161214600Y-115822219D02*
X161166980Y-115869838D01*
X161166980Y-115869838D02*
X161024123Y-115965076D01*
X161024123Y-115965076D02*
X160833647Y-116012695D01*
X160833647Y-116012695D02*
X160452695Y-116012695D01*
X160452695Y-116012695D02*
X160357457Y-115965076D01*
X160357457Y-115965076D02*
X160309838Y-115917457D01*
X160309838Y-115917457D02*
X160262219Y-115822219D01*
X160262219Y-115822219D02*
X160262219Y-115631743D01*
X160262219Y-115631743D02*
X160309838Y-115536505D01*
X160309838Y-115536505D02*
X160357457Y-115488886D01*
X160357457Y-115488886D02*
X160452695Y-115441267D01*
X160452695Y-115441267D02*
X160690790Y-115441267D01*
X160690790Y-115441267D02*
X160786028Y-115488886D01*
X160786028Y-115488886D02*
X160833647Y-115536505D01*
X160833647Y-115536505D02*
X160881266Y-115631743D01*
X160881266Y-115631743D02*
X160881266Y-115822219D01*
X160881266Y-115822219D02*
X160833647Y-115917457D01*
X160833647Y-115917457D02*
X160786028Y-115965076D01*
X160786028Y-115965076D02*
X160690790Y-116012695D01*
X127791380Y-124814152D02*
X127839000Y-124766533D01*
X127839000Y-124766533D02*
X127886619Y-124623676D01*
X127886619Y-124623676D02*
X127886619Y-124528438D01*
X127886619Y-124528438D02*
X127839000Y-124385581D01*
X127839000Y-124385581D02*
X127743761Y-124290343D01*
X127743761Y-124290343D02*
X127648523Y-124242724D01*
X127648523Y-124242724D02*
X127458047Y-124195105D01*
X127458047Y-124195105D02*
X127315190Y-124195105D01*
X127315190Y-124195105D02*
X127124714Y-124242724D01*
X127124714Y-124242724D02*
X127029476Y-124290343D01*
X127029476Y-124290343D02*
X126934238Y-124385581D01*
X126934238Y-124385581D02*
X126886619Y-124528438D01*
X126886619Y-124528438D02*
X126886619Y-124623676D01*
X126886619Y-124623676D02*
X126934238Y-124766533D01*
X126934238Y-124766533D02*
X126981857Y-124814152D01*
X126886619Y-125671295D02*
X126886619Y-125480819D01*
X126886619Y-125480819D02*
X126934238Y-125385581D01*
X126934238Y-125385581D02*
X126981857Y-125337962D01*
X126981857Y-125337962D02*
X127124714Y-125242724D01*
X127124714Y-125242724D02*
X127315190Y-125195105D01*
X127315190Y-125195105D02*
X127696142Y-125195105D01*
X127696142Y-125195105D02*
X127791380Y-125242724D01*
X127791380Y-125242724D02*
X127839000Y-125290343D01*
X127839000Y-125290343D02*
X127886619Y-125385581D01*
X127886619Y-125385581D02*
X127886619Y-125576057D01*
X127886619Y-125576057D02*
X127839000Y-125671295D01*
X127839000Y-125671295D02*
X127791380Y-125718914D01*
X127791380Y-125718914D02*
X127696142Y-125766533D01*
X127696142Y-125766533D02*
X127458047Y-125766533D01*
X127458047Y-125766533D02*
X127362809Y-125718914D01*
X127362809Y-125718914D02*
X127315190Y-125671295D01*
X127315190Y-125671295D02*
X127267571Y-125576057D01*
X127267571Y-125576057D02*
X127267571Y-125385581D01*
X127267571Y-125385581D02*
X127315190Y-125290343D01*
X127315190Y-125290343D02*
X127362809Y-125242724D01*
X127362809Y-125242724D02*
X127458047Y-125195105D01*
X127886619Y-126718914D02*
X127886619Y-126147486D01*
X127886619Y-126433200D02*
X126886619Y-126433200D01*
X126886619Y-126433200D02*
X127029476Y-126337962D01*
X127029476Y-126337962D02*
X127124714Y-126242724D01*
X127124714Y-126242724D02*
X127172333Y-126147486D01*
X126886619Y-127052248D02*
X126886619Y-127671295D01*
X126886619Y-127671295D02*
X127267571Y-127337962D01*
X127267571Y-127337962D02*
X127267571Y-127480819D01*
X127267571Y-127480819D02*
X127315190Y-127576057D01*
X127315190Y-127576057D02*
X127362809Y-127623676D01*
X127362809Y-127623676D02*
X127458047Y-127671295D01*
X127458047Y-127671295D02*
X127696142Y-127671295D01*
X127696142Y-127671295D02*
X127791380Y-127623676D01*
X127791380Y-127623676D02*
X127839000Y-127576057D01*
X127839000Y-127576057D02*
X127886619Y-127480819D01*
X127886619Y-127480819D02*
X127886619Y-127195105D01*
X127886619Y-127195105D02*
X127839000Y-127099867D01*
X127839000Y-127099867D02*
X127791380Y-127052248D01*
X151439285Y-106339819D02*
X150867857Y-106339819D01*
X151153571Y-107339819D02*
X151153571Y-106339819D01*
X150534523Y-107339819D02*
X150534523Y-106339819D01*
X150534523Y-106339819D02*
X150153571Y-106339819D01*
X150153571Y-106339819D02*
X150058333Y-106387438D01*
X150058333Y-106387438D02*
X150010714Y-106435057D01*
X150010714Y-106435057D02*
X149963095Y-106530295D01*
X149963095Y-106530295D02*
X149963095Y-106673152D01*
X149963095Y-106673152D02*
X150010714Y-106768390D01*
X150010714Y-106768390D02*
X150058333Y-106816009D01*
X150058333Y-106816009D02*
X150153571Y-106863628D01*
X150153571Y-106863628D02*
X150534523Y-106863628D01*
X149105952Y-106339819D02*
X149296428Y-106339819D01*
X149296428Y-106339819D02*
X149391666Y-106387438D01*
X149391666Y-106387438D02*
X149439285Y-106435057D01*
X149439285Y-106435057D02*
X149534523Y-106577914D01*
X149534523Y-106577914D02*
X149582142Y-106768390D01*
X149582142Y-106768390D02*
X149582142Y-107149342D01*
X149582142Y-107149342D02*
X149534523Y-107244580D01*
X149534523Y-107244580D02*
X149486904Y-107292200D01*
X149486904Y-107292200D02*
X149391666Y-107339819D01*
X149391666Y-107339819D02*
X149201190Y-107339819D01*
X149201190Y-107339819D02*
X149105952Y-107292200D01*
X149105952Y-107292200D02*
X149058333Y-107244580D01*
X149058333Y-107244580D02*
X149010714Y-107149342D01*
X149010714Y-107149342D02*
X149010714Y-106911247D01*
X149010714Y-106911247D02*
X149058333Y-106816009D01*
X149058333Y-106816009D02*
X149105952Y-106768390D01*
X149105952Y-106768390D02*
X149201190Y-106720771D01*
X149201190Y-106720771D02*
X149391666Y-106720771D01*
X149391666Y-106720771D02*
X149486904Y-106768390D01*
X149486904Y-106768390D02*
X149534523Y-106816009D01*
X149534523Y-106816009D02*
X149582142Y-106911247D01*
X148391666Y-106339819D02*
X148296428Y-106339819D01*
X148296428Y-106339819D02*
X148201190Y-106387438D01*
X148201190Y-106387438D02*
X148153571Y-106435057D01*
X148153571Y-106435057D02*
X148105952Y-106530295D01*
X148105952Y-106530295D02*
X148058333Y-106720771D01*
X148058333Y-106720771D02*
X148058333Y-106958866D01*
X148058333Y-106958866D02*
X148105952Y-107149342D01*
X148105952Y-107149342D02*
X148153571Y-107244580D01*
X148153571Y-107244580D02*
X148201190Y-107292200D01*
X148201190Y-107292200D02*
X148296428Y-107339819D01*
X148296428Y-107339819D02*
X148391666Y-107339819D01*
X148391666Y-107339819D02*
X148486904Y-107292200D01*
X148486904Y-107292200D02*
X148534523Y-107244580D01*
X148534523Y-107244580D02*
X148582142Y-107149342D01*
X148582142Y-107149342D02*
X148629761Y-106958866D01*
X148629761Y-106958866D02*
X148629761Y-106720771D01*
X148629761Y-106720771D02*
X148582142Y-106530295D01*
X148582142Y-106530295D02*
X148534523Y-106435057D01*
X148534523Y-106435057D02*
X148486904Y-106387438D01*
X148486904Y-106387438D02*
X148391666Y-106339819D01*
X147677380Y-106435057D02*
X147629761Y-106387438D01*
X147629761Y-106387438D02*
X147534523Y-106339819D01*
X147534523Y-106339819D02*
X147296428Y-106339819D01*
X147296428Y-106339819D02*
X147201190Y-106387438D01*
X147201190Y-106387438D02*
X147153571Y-106435057D01*
X147153571Y-106435057D02*
X147105952Y-106530295D01*
X147105952Y-106530295D02*
X147105952Y-106625533D01*
X147105952Y-106625533D02*
X147153571Y-106768390D01*
X147153571Y-106768390D02*
X147724999Y-107339819D01*
X147724999Y-107339819D02*
X147105952Y-107339819D01*
X164113380Y-131976952D02*
X164161000Y-131929333D01*
X164161000Y-131929333D02*
X164208619Y-131786476D01*
X164208619Y-131786476D02*
X164208619Y-131691238D01*
X164208619Y-131691238D02*
X164161000Y-131548381D01*
X164161000Y-131548381D02*
X164065761Y-131453143D01*
X164065761Y-131453143D02*
X163970523Y-131405524D01*
X163970523Y-131405524D02*
X163780047Y-131357905D01*
X163780047Y-131357905D02*
X163637190Y-131357905D01*
X163637190Y-131357905D02*
X163446714Y-131405524D01*
X163446714Y-131405524D02*
X163351476Y-131453143D01*
X163351476Y-131453143D02*
X163256238Y-131548381D01*
X163256238Y-131548381D02*
X163208619Y-131691238D01*
X163208619Y-131691238D02*
X163208619Y-131786476D01*
X163208619Y-131786476D02*
X163256238Y-131929333D01*
X163256238Y-131929333D02*
X163303857Y-131976952D01*
X163208619Y-132881714D02*
X163208619Y-132405524D01*
X163208619Y-132405524D02*
X163684809Y-132357905D01*
X163684809Y-132357905D02*
X163637190Y-132405524D01*
X163637190Y-132405524D02*
X163589571Y-132500762D01*
X163589571Y-132500762D02*
X163589571Y-132738857D01*
X163589571Y-132738857D02*
X163637190Y-132834095D01*
X163637190Y-132834095D02*
X163684809Y-132881714D01*
X163684809Y-132881714D02*
X163780047Y-132929333D01*
X163780047Y-132929333D02*
X164018142Y-132929333D01*
X164018142Y-132929333D02*
X164113380Y-132881714D01*
X164113380Y-132881714D02*
X164161000Y-132834095D01*
X164161000Y-132834095D02*
X164208619Y-132738857D01*
X164208619Y-132738857D02*
X164208619Y-132500762D01*
X164208619Y-132500762D02*
X164161000Y-132405524D01*
X164161000Y-132405524D02*
X164113380Y-132357905D01*
X163208619Y-133548381D02*
X163208619Y-133643619D01*
X163208619Y-133643619D02*
X163256238Y-133738857D01*
X163256238Y-133738857D02*
X163303857Y-133786476D01*
X163303857Y-133786476D02*
X163399095Y-133834095D01*
X163399095Y-133834095D02*
X163589571Y-133881714D01*
X163589571Y-133881714D02*
X163827666Y-133881714D01*
X163827666Y-133881714D02*
X164018142Y-133834095D01*
X164018142Y-133834095D02*
X164113380Y-133786476D01*
X164113380Y-133786476D02*
X164161000Y-133738857D01*
X164161000Y-133738857D02*
X164208619Y-133643619D01*
X164208619Y-133643619D02*
X164208619Y-133548381D01*
X164208619Y-133548381D02*
X164161000Y-133453143D01*
X164161000Y-133453143D02*
X164113380Y-133405524D01*
X164113380Y-133405524D02*
X164018142Y-133357905D01*
X164018142Y-133357905D02*
X163827666Y-133310286D01*
X163827666Y-133310286D02*
X163589571Y-133310286D01*
X163589571Y-133310286D02*
X163399095Y-133357905D01*
X163399095Y-133357905D02*
X163303857Y-133405524D01*
X163303857Y-133405524D02*
X163256238Y-133453143D01*
X163256238Y-133453143D02*
X163208619Y-133548381D01*
X163208619Y-134215048D02*
X163208619Y-134834095D01*
X163208619Y-134834095D02*
X163589571Y-134500762D01*
X163589571Y-134500762D02*
X163589571Y-134643619D01*
X163589571Y-134643619D02*
X163637190Y-134738857D01*
X163637190Y-134738857D02*
X163684809Y-134786476D01*
X163684809Y-134786476D02*
X163780047Y-134834095D01*
X163780047Y-134834095D02*
X164018142Y-134834095D01*
X164018142Y-134834095D02*
X164113380Y-134786476D01*
X164113380Y-134786476D02*
X164161000Y-134738857D01*
X164161000Y-134738857D02*
X164208619Y-134643619D01*
X164208619Y-134643619D02*
X164208619Y-134357905D01*
X164208619Y-134357905D02*
X164161000Y-134262667D01*
X164161000Y-134262667D02*
X164113380Y-134215048D01*
X171349847Y-124039580D02*
X171397466Y-124087200D01*
X171397466Y-124087200D02*
X171540323Y-124134819D01*
X171540323Y-124134819D02*
X171635561Y-124134819D01*
X171635561Y-124134819D02*
X171778418Y-124087200D01*
X171778418Y-124087200D02*
X171873656Y-123991961D01*
X171873656Y-123991961D02*
X171921275Y-123896723D01*
X171921275Y-123896723D02*
X171968894Y-123706247D01*
X171968894Y-123706247D02*
X171968894Y-123563390D01*
X171968894Y-123563390D02*
X171921275Y-123372914D01*
X171921275Y-123372914D02*
X171873656Y-123277676D01*
X171873656Y-123277676D02*
X171778418Y-123182438D01*
X171778418Y-123182438D02*
X171635561Y-123134819D01*
X171635561Y-123134819D02*
X171540323Y-123134819D01*
X171540323Y-123134819D02*
X171397466Y-123182438D01*
X171397466Y-123182438D02*
X171349847Y-123230057D01*
X170445085Y-123134819D02*
X170921275Y-123134819D01*
X170921275Y-123134819D02*
X170968894Y-123611009D01*
X170968894Y-123611009D02*
X170921275Y-123563390D01*
X170921275Y-123563390D02*
X170826037Y-123515771D01*
X170826037Y-123515771D02*
X170587942Y-123515771D01*
X170587942Y-123515771D02*
X170492704Y-123563390D01*
X170492704Y-123563390D02*
X170445085Y-123611009D01*
X170445085Y-123611009D02*
X170397466Y-123706247D01*
X170397466Y-123706247D02*
X170397466Y-123944342D01*
X170397466Y-123944342D02*
X170445085Y-124039580D01*
X170445085Y-124039580D02*
X170492704Y-124087200D01*
X170492704Y-124087200D02*
X170587942Y-124134819D01*
X170587942Y-124134819D02*
X170826037Y-124134819D01*
X170826037Y-124134819D02*
X170921275Y-124087200D01*
X170921275Y-124087200D02*
X170968894Y-124039580D01*
X169778418Y-123134819D02*
X169683180Y-123134819D01*
X169683180Y-123134819D02*
X169587942Y-123182438D01*
X169587942Y-123182438D02*
X169540323Y-123230057D01*
X169540323Y-123230057D02*
X169492704Y-123325295D01*
X169492704Y-123325295D02*
X169445085Y-123515771D01*
X169445085Y-123515771D02*
X169445085Y-123753866D01*
X169445085Y-123753866D02*
X169492704Y-123944342D01*
X169492704Y-123944342D02*
X169540323Y-124039580D01*
X169540323Y-124039580D02*
X169587942Y-124087200D01*
X169587942Y-124087200D02*
X169683180Y-124134819D01*
X169683180Y-124134819D02*
X169778418Y-124134819D01*
X169778418Y-124134819D02*
X169873656Y-124087200D01*
X169873656Y-124087200D02*
X169921275Y-124039580D01*
X169921275Y-124039580D02*
X169968894Y-123944342D01*
X169968894Y-123944342D02*
X170016513Y-123753866D01*
X170016513Y-123753866D02*
X170016513Y-123515771D01*
X170016513Y-123515771D02*
X169968894Y-123325295D01*
X169968894Y-123325295D02*
X169921275Y-123230057D01*
X169921275Y-123230057D02*
X169873656Y-123182438D01*
X169873656Y-123182438D02*
X169778418Y-123134819D01*
X169111751Y-123134819D02*
X168445085Y-123134819D01*
X168445085Y-123134819D02*
X168873656Y-124134819D01*
X169701380Y-127658952D02*
X169749000Y-127611333D01*
X169749000Y-127611333D02*
X169796619Y-127468476D01*
X169796619Y-127468476D02*
X169796619Y-127373238D01*
X169796619Y-127373238D02*
X169749000Y-127230381D01*
X169749000Y-127230381D02*
X169653761Y-127135143D01*
X169653761Y-127135143D02*
X169558523Y-127087524D01*
X169558523Y-127087524D02*
X169368047Y-127039905D01*
X169368047Y-127039905D02*
X169225190Y-127039905D01*
X169225190Y-127039905D02*
X169034714Y-127087524D01*
X169034714Y-127087524D02*
X168939476Y-127135143D01*
X168939476Y-127135143D02*
X168844238Y-127230381D01*
X168844238Y-127230381D02*
X168796619Y-127373238D01*
X168796619Y-127373238D02*
X168796619Y-127468476D01*
X168796619Y-127468476D02*
X168844238Y-127611333D01*
X168844238Y-127611333D02*
X168891857Y-127658952D01*
X168796619Y-128563714D02*
X168796619Y-128087524D01*
X168796619Y-128087524D02*
X169272809Y-128039905D01*
X169272809Y-128039905D02*
X169225190Y-128087524D01*
X169225190Y-128087524D02*
X169177571Y-128182762D01*
X169177571Y-128182762D02*
X169177571Y-128420857D01*
X169177571Y-128420857D02*
X169225190Y-128516095D01*
X169225190Y-128516095D02*
X169272809Y-128563714D01*
X169272809Y-128563714D02*
X169368047Y-128611333D01*
X169368047Y-128611333D02*
X169606142Y-128611333D01*
X169606142Y-128611333D02*
X169701380Y-128563714D01*
X169701380Y-128563714D02*
X169749000Y-128516095D01*
X169749000Y-128516095D02*
X169796619Y-128420857D01*
X169796619Y-128420857D02*
X169796619Y-128182762D01*
X169796619Y-128182762D02*
X169749000Y-128087524D01*
X169749000Y-128087524D02*
X169701380Y-128039905D01*
X168796619Y-129230381D02*
X168796619Y-129325619D01*
X168796619Y-129325619D02*
X168844238Y-129420857D01*
X168844238Y-129420857D02*
X168891857Y-129468476D01*
X168891857Y-129468476D02*
X168987095Y-129516095D01*
X168987095Y-129516095D02*
X169177571Y-129563714D01*
X169177571Y-129563714D02*
X169415666Y-129563714D01*
X169415666Y-129563714D02*
X169606142Y-129516095D01*
X169606142Y-129516095D02*
X169701380Y-129468476D01*
X169701380Y-129468476D02*
X169749000Y-129420857D01*
X169749000Y-129420857D02*
X169796619Y-129325619D01*
X169796619Y-129325619D02*
X169796619Y-129230381D01*
X169796619Y-129230381D02*
X169749000Y-129135143D01*
X169749000Y-129135143D02*
X169701380Y-129087524D01*
X169701380Y-129087524D02*
X169606142Y-129039905D01*
X169606142Y-129039905D02*
X169415666Y-128992286D01*
X169415666Y-128992286D02*
X169177571Y-128992286D01*
X169177571Y-128992286D02*
X168987095Y-129039905D01*
X168987095Y-129039905D02*
X168891857Y-129087524D01*
X168891857Y-129087524D02*
X168844238Y-129135143D01*
X168844238Y-129135143D02*
X168796619Y-129230381D01*
X169796619Y-130516095D02*
X169796619Y-129944667D01*
X169796619Y-130230381D02*
X168796619Y-130230381D01*
X168796619Y-130230381D02*
X168939476Y-130135143D01*
X168939476Y-130135143D02*
X169034714Y-130039905D01*
X169034714Y-130039905D02*
X169082333Y-129944667D01*
X153978780Y-122324952D02*
X154026400Y-122277333D01*
X154026400Y-122277333D02*
X154074019Y-122134476D01*
X154074019Y-122134476D02*
X154074019Y-122039238D01*
X154074019Y-122039238D02*
X154026400Y-121896381D01*
X154026400Y-121896381D02*
X153931161Y-121801143D01*
X153931161Y-121801143D02*
X153835923Y-121753524D01*
X153835923Y-121753524D02*
X153645447Y-121705905D01*
X153645447Y-121705905D02*
X153502590Y-121705905D01*
X153502590Y-121705905D02*
X153312114Y-121753524D01*
X153312114Y-121753524D02*
X153216876Y-121801143D01*
X153216876Y-121801143D02*
X153121638Y-121896381D01*
X153121638Y-121896381D02*
X153074019Y-122039238D01*
X153074019Y-122039238D02*
X153074019Y-122134476D01*
X153074019Y-122134476D02*
X153121638Y-122277333D01*
X153121638Y-122277333D02*
X153169257Y-122324952D01*
X153169257Y-122705905D02*
X153121638Y-122753524D01*
X153121638Y-122753524D02*
X153074019Y-122848762D01*
X153074019Y-122848762D02*
X153074019Y-123086857D01*
X153074019Y-123086857D02*
X153121638Y-123182095D01*
X153121638Y-123182095D02*
X153169257Y-123229714D01*
X153169257Y-123229714D02*
X153264495Y-123277333D01*
X153264495Y-123277333D02*
X153359733Y-123277333D01*
X153359733Y-123277333D02*
X153502590Y-123229714D01*
X153502590Y-123229714D02*
X154074019Y-122658286D01*
X154074019Y-122658286D02*
X154074019Y-123277333D01*
X154074019Y-124229714D02*
X154074019Y-123658286D01*
X154074019Y-123944000D02*
X153074019Y-123944000D01*
X153074019Y-123944000D02*
X153216876Y-123848762D01*
X153216876Y-123848762D02*
X153312114Y-123753524D01*
X153312114Y-123753524D02*
X153359733Y-123658286D01*
X154074019Y-125182095D02*
X154074019Y-124610667D01*
X154074019Y-124896381D02*
X153074019Y-124896381D01*
X153074019Y-124896381D02*
X153216876Y-124801143D01*
X153216876Y-124801143D02*
X153312114Y-124705905D01*
X153312114Y-124705905D02*
X153359733Y-124610667D01*
X147090710Y-122648139D02*
X147158054Y-122648139D01*
X147158054Y-122648139D02*
X147292741Y-122580795D01*
X147292741Y-122580795D02*
X147360084Y-122513452D01*
X147360084Y-122513452D02*
X147427428Y-122378765D01*
X147427428Y-122378765D02*
X147427428Y-122244078D01*
X147427428Y-122244078D02*
X147393756Y-122143063D01*
X147393756Y-122143063D02*
X147292741Y-121974704D01*
X147292741Y-121974704D02*
X147191726Y-121873688D01*
X147191726Y-121873688D02*
X147023367Y-121772673D01*
X147023367Y-121772673D02*
X146922352Y-121739001D01*
X146922352Y-121739001D02*
X146787665Y-121739001D01*
X146787665Y-121739001D02*
X146652978Y-121806345D01*
X146652978Y-121806345D02*
X146585634Y-121873688D01*
X146585634Y-121873688D02*
X146518291Y-122008375D01*
X146518291Y-122008375D02*
X146518291Y-122075719D01*
X146248917Y-122345093D02*
X146181573Y-122345093D01*
X146181573Y-122345093D02*
X146080558Y-122378765D01*
X146080558Y-122378765D02*
X145912199Y-122547124D01*
X145912199Y-122547124D02*
X145878527Y-122648139D01*
X145878527Y-122648139D02*
X145878527Y-122715482D01*
X145878527Y-122715482D02*
X145912199Y-122816498D01*
X145912199Y-122816498D02*
X145979543Y-122883841D01*
X145979543Y-122883841D02*
X146114230Y-122951185D01*
X146114230Y-122951185D02*
X146922352Y-122951185D01*
X146922352Y-122951185D02*
X146484619Y-123388917D01*
X145339779Y-123119543D02*
X145272436Y-123186887D01*
X145272436Y-123186887D02*
X145238764Y-123287902D01*
X145238764Y-123287902D02*
X145238764Y-123355246D01*
X145238764Y-123355246D02*
X145272436Y-123456261D01*
X145272436Y-123456261D02*
X145373451Y-123624620D01*
X145373451Y-123624620D02*
X145541810Y-123792978D01*
X145541810Y-123792978D02*
X145710169Y-123893994D01*
X145710169Y-123893994D02*
X145811184Y-123927665D01*
X145811184Y-123927665D02*
X145878527Y-123927665D01*
X145878527Y-123927665D02*
X145979543Y-123893994D01*
X145979543Y-123893994D02*
X146046886Y-123826650D01*
X146046886Y-123826650D02*
X146080558Y-123725635D01*
X146080558Y-123725635D02*
X146080558Y-123658291D01*
X146080558Y-123658291D02*
X146046886Y-123557276D01*
X146046886Y-123557276D02*
X145945871Y-123388917D01*
X145945871Y-123388917D02*
X145777512Y-123220559D01*
X145777512Y-123220559D02*
X145609153Y-123119543D01*
X145609153Y-123119543D02*
X145508138Y-123085872D01*
X145508138Y-123085872D02*
X145440795Y-123085872D01*
X145440795Y-123085872D02*
X145339779Y-123119543D01*
X145003062Y-124062352D02*
X145036734Y-123961337D01*
X145036734Y-123961337D02*
X145036734Y-123893994D01*
X145036734Y-123893994D02*
X145003062Y-123792978D01*
X145003062Y-123792978D02*
X144969390Y-123759307D01*
X144969390Y-123759307D02*
X144868375Y-123725635D01*
X144868375Y-123725635D02*
X144801031Y-123725635D01*
X144801031Y-123725635D02*
X144700016Y-123759307D01*
X144700016Y-123759307D02*
X144565329Y-123893994D01*
X144565329Y-123893994D02*
X144531657Y-123995009D01*
X144531657Y-123995009D02*
X144531657Y-124062352D01*
X144531657Y-124062352D02*
X144565329Y-124163368D01*
X144565329Y-124163368D02*
X144599001Y-124197039D01*
X144599001Y-124197039D02*
X144700016Y-124230711D01*
X144700016Y-124230711D02*
X144767360Y-124230711D01*
X144767360Y-124230711D02*
X144868375Y-124197039D01*
X144868375Y-124197039D02*
X145003062Y-124062352D01*
X145003062Y-124062352D02*
X145104077Y-124028681D01*
X145104077Y-124028681D02*
X145171421Y-124028681D01*
X145171421Y-124028681D02*
X145272436Y-124062352D01*
X145272436Y-124062352D02*
X145407123Y-124197039D01*
X145407123Y-124197039D02*
X145440795Y-124298055D01*
X145440795Y-124298055D02*
X145440795Y-124365398D01*
X145440795Y-124365398D02*
X145407123Y-124466413D01*
X145407123Y-124466413D02*
X145272436Y-124601100D01*
X145272436Y-124601100D02*
X145171421Y-124634772D01*
X145171421Y-124634772D02*
X145104077Y-124634772D01*
X145104077Y-124634772D02*
X145003062Y-124601100D01*
X145003062Y-124601100D02*
X144868375Y-124466413D01*
X144868375Y-124466413D02*
X144834703Y-124365398D01*
X144834703Y-124365398D02*
X144834703Y-124298055D01*
X144834703Y-124298055D02*
X144868375Y-124197039D01*
D11*
X166827923Y-119585190D02*
X166851732Y-119609000D01*
X166851732Y-119609000D02*
X166923161Y-119632809D01*
X166923161Y-119632809D02*
X166970780Y-119632809D01*
X166970780Y-119632809D02*
X167042208Y-119609000D01*
X167042208Y-119609000D02*
X167089827Y-119561380D01*
X167089827Y-119561380D02*
X167113637Y-119513761D01*
X167113637Y-119513761D02*
X167137446Y-119418523D01*
X167137446Y-119418523D02*
X167137446Y-119347095D01*
X167137446Y-119347095D02*
X167113637Y-119251857D01*
X167113637Y-119251857D02*
X167089827Y-119204238D01*
X167089827Y-119204238D02*
X167042208Y-119156619D01*
X167042208Y-119156619D02*
X166970780Y-119132809D01*
X166970780Y-119132809D02*
X166923161Y-119132809D01*
X166923161Y-119132809D02*
X166851732Y-119156619D01*
X166851732Y-119156619D02*
X166827923Y-119180428D01*
X166375542Y-119132809D02*
X166613637Y-119132809D01*
X166613637Y-119132809D02*
X166637446Y-119370904D01*
X166637446Y-119370904D02*
X166613637Y-119347095D01*
X166613637Y-119347095D02*
X166566018Y-119323285D01*
X166566018Y-119323285D02*
X166446970Y-119323285D01*
X166446970Y-119323285D02*
X166399351Y-119347095D01*
X166399351Y-119347095D02*
X166375542Y-119370904D01*
X166375542Y-119370904D02*
X166351732Y-119418523D01*
X166351732Y-119418523D02*
X166351732Y-119537571D01*
X166351732Y-119537571D02*
X166375542Y-119585190D01*
X166375542Y-119585190D02*
X166399351Y-119609000D01*
X166399351Y-119609000D02*
X166446970Y-119632809D01*
X166446970Y-119632809D02*
X166566018Y-119632809D01*
X166566018Y-119632809D02*
X166613637Y-119609000D01*
X166613637Y-119609000D02*
X166637446Y-119585190D01*
X166042209Y-119132809D02*
X165994590Y-119132809D01*
X165994590Y-119132809D02*
X165946971Y-119156619D01*
X165946971Y-119156619D02*
X165923161Y-119180428D01*
X165923161Y-119180428D02*
X165899352Y-119228047D01*
X165899352Y-119228047D02*
X165875542Y-119323285D01*
X165875542Y-119323285D02*
X165875542Y-119442333D01*
X165875542Y-119442333D02*
X165899352Y-119537571D01*
X165899352Y-119537571D02*
X165923161Y-119585190D01*
X165923161Y-119585190D02*
X165946971Y-119609000D01*
X165946971Y-119609000D02*
X165994590Y-119632809D01*
X165994590Y-119632809D02*
X166042209Y-119632809D01*
X166042209Y-119632809D02*
X166089828Y-119609000D01*
X166089828Y-119609000D02*
X166113637Y-119585190D01*
X166113637Y-119585190D02*
X166137447Y-119537571D01*
X166137447Y-119537571D02*
X166161256Y-119442333D01*
X166161256Y-119442333D02*
X166161256Y-119323285D01*
X166161256Y-119323285D02*
X166137447Y-119228047D01*
X166137447Y-119228047D02*
X166113637Y-119180428D01*
X166113637Y-119180428D02*
X166089828Y-119156619D01*
X166089828Y-119156619D02*
X166042209Y-119132809D01*
X165589828Y-119347095D02*
X165637447Y-119323285D01*
X165637447Y-119323285D02*
X165661257Y-119299476D01*
X165661257Y-119299476D02*
X165685066Y-119251857D01*
X165685066Y-119251857D02*
X165685066Y-119228047D01*
X165685066Y-119228047D02*
X165661257Y-119180428D01*
X165661257Y-119180428D02*
X165637447Y-119156619D01*
X165637447Y-119156619D02*
X165589828Y-119132809D01*
X165589828Y-119132809D02*
X165494590Y-119132809D01*
X165494590Y-119132809D02*
X165446971Y-119156619D01*
X165446971Y-119156619D02*
X165423162Y-119180428D01*
X165423162Y-119180428D02*
X165399352Y-119228047D01*
X165399352Y-119228047D02*
X165399352Y-119251857D01*
X165399352Y-119251857D02*
X165423162Y-119299476D01*
X165423162Y-119299476D02*
X165446971Y-119323285D01*
X165446971Y-119323285D02*
X165494590Y-119347095D01*
X165494590Y-119347095D02*
X165589828Y-119347095D01*
X165589828Y-119347095D02*
X165637447Y-119370904D01*
X165637447Y-119370904D02*
X165661257Y-119394714D01*
X165661257Y-119394714D02*
X165685066Y-119442333D01*
X165685066Y-119442333D02*
X165685066Y-119537571D01*
X165685066Y-119537571D02*
X165661257Y-119585190D01*
X165661257Y-119585190D02*
X165637447Y-119609000D01*
X165637447Y-119609000D02*
X165589828Y-119632809D01*
X165589828Y-119632809D02*
X165494590Y-119632809D01*
X165494590Y-119632809D02*
X165446971Y-119609000D01*
X165446971Y-119609000D02*
X165423162Y-119585190D01*
X165423162Y-119585190D02*
X165399352Y-119537571D01*
X165399352Y-119537571D02*
X165399352Y-119442333D01*
X165399352Y-119442333D02*
X165423162Y-119394714D01*
X165423162Y-119394714D02*
X165446971Y-119370904D01*
X165446971Y-119370904D02*
X165494590Y-119347095D01*
X154888009Y-120065076D02*
X154649914Y-119898410D01*
X154888009Y-119779362D02*
X154388009Y-119779362D01*
X154388009Y-119779362D02*
X154388009Y-119969838D01*
X154388009Y-119969838D02*
X154411819Y-120017457D01*
X154411819Y-120017457D02*
X154435628Y-120041267D01*
X154435628Y-120041267D02*
X154483247Y-120065076D01*
X154483247Y-120065076D02*
X154554676Y-120065076D01*
X154554676Y-120065076D02*
X154602295Y-120041267D01*
X154602295Y-120041267D02*
X154626104Y-120017457D01*
X154626104Y-120017457D02*
X154649914Y-119969838D01*
X154649914Y-119969838D02*
X154649914Y-119779362D01*
X154435628Y-120255553D02*
X154411819Y-120279362D01*
X154411819Y-120279362D02*
X154388009Y-120326981D01*
X154388009Y-120326981D02*
X154388009Y-120446029D01*
X154388009Y-120446029D02*
X154411819Y-120493648D01*
X154411819Y-120493648D02*
X154435628Y-120517457D01*
X154435628Y-120517457D02*
X154483247Y-120541267D01*
X154483247Y-120541267D02*
X154530866Y-120541267D01*
X154530866Y-120541267D02*
X154602295Y-120517457D01*
X154602295Y-120517457D02*
X154888009Y-120231743D01*
X154888009Y-120231743D02*
X154888009Y-120541267D01*
X154388009Y-120850790D02*
X154388009Y-120898409D01*
X154388009Y-120898409D02*
X154411819Y-120946028D01*
X154411819Y-120946028D02*
X154435628Y-120969838D01*
X154435628Y-120969838D02*
X154483247Y-120993647D01*
X154483247Y-120993647D02*
X154578485Y-121017457D01*
X154578485Y-121017457D02*
X154697533Y-121017457D01*
X154697533Y-121017457D02*
X154792771Y-120993647D01*
X154792771Y-120993647D02*
X154840390Y-120969838D01*
X154840390Y-120969838D02*
X154864200Y-120946028D01*
X154864200Y-120946028D02*
X154888009Y-120898409D01*
X154888009Y-120898409D02*
X154888009Y-120850790D01*
X154888009Y-120850790D02*
X154864200Y-120803171D01*
X154864200Y-120803171D02*
X154840390Y-120779362D01*
X154840390Y-120779362D02*
X154792771Y-120755552D01*
X154792771Y-120755552D02*
X154697533Y-120731743D01*
X154697533Y-120731743D02*
X154578485Y-120731743D01*
X154578485Y-120731743D02*
X154483247Y-120755552D01*
X154483247Y-120755552D02*
X154435628Y-120779362D01*
X154435628Y-120779362D02*
X154411819Y-120803171D01*
X154411819Y-120803171D02*
X154388009Y-120850790D01*
X154554676Y-121446028D02*
X154888009Y-121446028D01*
X154364200Y-121326980D02*
X154721342Y-121207933D01*
X154721342Y-121207933D02*
X154721342Y-121517456D01*
X147625523Y-119839190D02*
X147649332Y-119863000D01*
X147649332Y-119863000D02*
X147720761Y-119886809D01*
X147720761Y-119886809D02*
X147768380Y-119886809D01*
X147768380Y-119886809D02*
X147839808Y-119863000D01*
X147839808Y-119863000D02*
X147887427Y-119815380D01*
X147887427Y-119815380D02*
X147911237Y-119767761D01*
X147911237Y-119767761D02*
X147935046Y-119672523D01*
X147935046Y-119672523D02*
X147935046Y-119601095D01*
X147935046Y-119601095D02*
X147911237Y-119505857D01*
X147911237Y-119505857D02*
X147887427Y-119458238D01*
X147887427Y-119458238D02*
X147839808Y-119410619D01*
X147839808Y-119410619D02*
X147768380Y-119386809D01*
X147768380Y-119386809D02*
X147720761Y-119386809D01*
X147720761Y-119386809D02*
X147649332Y-119410619D01*
X147649332Y-119410619D02*
X147625523Y-119434428D01*
X147435046Y-119434428D02*
X147411237Y-119410619D01*
X147411237Y-119410619D02*
X147363618Y-119386809D01*
X147363618Y-119386809D02*
X147244570Y-119386809D01*
X147244570Y-119386809D02*
X147196951Y-119410619D01*
X147196951Y-119410619D02*
X147173142Y-119434428D01*
X147173142Y-119434428D02*
X147149332Y-119482047D01*
X147149332Y-119482047D02*
X147149332Y-119529666D01*
X147149332Y-119529666D02*
X147173142Y-119601095D01*
X147173142Y-119601095D02*
X147458856Y-119886809D01*
X147458856Y-119886809D02*
X147149332Y-119886809D01*
X146839809Y-119386809D02*
X146792190Y-119386809D01*
X146792190Y-119386809D02*
X146744571Y-119410619D01*
X146744571Y-119410619D02*
X146720761Y-119434428D01*
X146720761Y-119434428D02*
X146696952Y-119482047D01*
X146696952Y-119482047D02*
X146673142Y-119577285D01*
X146673142Y-119577285D02*
X146673142Y-119696333D01*
X146673142Y-119696333D02*
X146696952Y-119791571D01*
X146696952Y-119791571D02*
X146720761Y-119839190D01*
X146720761Y-119839190D02*
X146744571Y-119863000D01*
X146744571Y-119863000D02*
X146792190Y-119886809D01*
X146792190Y-119886809D02*
X146839809Y-119886809D01*
X146839809Y-119886809D02*
X146887428Y-119863000D01*
X146887428Y-119863000D02*
X146911237Y-119839190D01*
X146911237Y-119839190D02*
X146935047Y-119791571D01*
X146935047Y-119791571D02*
X146958856Y-119696333D01*
X146958856Y-119696333D02*
X146958856Y-119577285D01*
X146958856Y-119577285D02*
X146935047Y-119482047D01*
X146935047Y-119482047D02*
X146911237Y-119434428D01*
X146911237Y-119434428D02*
X146887428Y-119410619D01*
X146887428Y-119410619D02*
X146839809Y-119386809D01*
X146220762Y-119386809D02*
X146458857Y-119386809D01*
X146458857Y-119386809D02*
X146482666Y-119624904D01*
X146482666Y-119624904D02*
X146458857Y-119601095D01*
X146458857Y-119601095D02*
X146411238Y-119577285D01*
X146411238Y-119577285D02*
X146292190Y-119577285D01*
X146292190Y-119577285D02*
X146244571Y-119601095D01*
X146244571Y-119601095D02*
X146220762Y-119624904D01*
X146220762Y-119624904D02*
X146196952Y-119672523D01*
X146196952Y-119672523D02*
X146196952Y-119791571D01*
X146196952Y-119791571D02*
X146220762Y-119839190D01*
X146220762Y-119839190D02*
X146244571Y-119863000D01*
X146244571Y-119863000D02*
X146292190Y-119886809D01*
X146292190Y-119886809D02*
X146411238Y-119886809D01*
X146411238Y-119886809D02*
X146458857Y-119863000D01*
X146458857Y-119863000D02*
X146482666Y-119839190D01*
D10*
X162674085Y-102528019D02*
X162674085Y-103337542D01*
X162674085Y-103337542D02*
X162626466Y-103432780D01*
X162626466Y-103432780D02*
X162578847Y-103480400D01*
X162578847Y-103480400D02*
X162483609Y-103528019D01*
X162483609Y-103528019D02*
X162293133Y-103528019D01*
X162293133Y-103528019D02*
X162197895Y-103480400D01*
X162197895Y-103480400D02*
X162150276Y-103432780D01*
X162150276Y-103432780D02*
X162102657Y-103337542D01*
X162102657Y-103337542D02*
X162102657Y-102528019D01*
X161150276Y-102528019D02*
X161626466Y-102528019D01*
X161626466Y-102528019D02*
X161674085Y-103004209D01*
X161674085Y-103004209D02*
X161626466Y-102956590D01*
X161626466Y-102956590D02*
X161531228Y-102908971D01*
X161531228Y-102908971D02*
X161293133Y-102908971D01*
X161293133Y-102908971D02*
X161197895Y-102956590D01*
X161197895Y-102956590D02*
X161150276Y-103004209D01*
X161150276Y-103004209D02*
X161102657Y-103099447D01*
X161102657Y-103099447D02*
X161102657Y-103337542D01*
X161102657Y-103337542D02*
X161150276Y-103432780D01*
X161150276Y-103432780D02*
X161197895Y-103480400D01*
X161197895Y-103480400D02*
X161293133Y-103528019D01*
X161293133Y-103528019D02*
X161531228Y-103528019D01*
X161531228Y-103528019D02*
X161626466Y-103480400D01*
X161626466Y-103480400D02*
X161674085Y-103432780D01*
X160483609Y-102528019D02*
X160388371Y-102528019D01*
X160388371Y-102528019D02*
X160293133Y-102575638D01*
X160293133Y-102575638D02*
X160245514Y-102623257D01*
X160245514Y-102623257D02*
X160197895Y-102718495D01*
X160197895Y-102718495D02*
X160150276Y-102908971D01*
X160150276Y-102908971D02*
X160150276Y-103147066D01*
X160150276Y-103147066D02*
X160197895Y-103337542D01*
X160197895Y-103337542D02*
X160245514Y-103432780D01*
X160245514Y-103432780D02*
X160293133Y-103480400D01*
X160293133Y-103480400D02*
X160388371Y-103528019D01*
X160388371Y-103528019D02*
X160483609Y-103528019D01*
X160483609Y-103528019D02*
X160578847Y-103480400D01*
X160578847Y-103480400D02*
X160626466Y-103432780D01*
X160626466Y-103432780D02*
X160674085Y-103337542D01*
X160674085Y-103337542D02*
X160721704Y-103147066D01*
X160721704Y-103147066D02*
X160721704Y-102908971D01*
X160721704Y-102908971D02*
X160674085Y-102718495D01*
X160674085Y-102718495D02*
X160626466Y-102623257D01*
X160626466Y-102623257D02*
X160578847Y-102575638D01*
X160578847Y-102575638D02*
X160483609Y-102528019D01*
X159769323Y-102623257D02*
X159721704Y-102575638D01*
X159721704Y-102575638D02*
X159626466Y-102528019D01*
X159626466Y-102528019D02*
X159388371Y-102528019D01*
X159388371Y-102528019D02*
X159293133Y-102575638D01*
X159293133Y-102575638D02*
X159245514Y-102623257D01*
X159245514Y-102623257D02*
X159197895Y-102718495D01*
X159197895Y-102718495D02*
X159197895Y-102813733D01*
X159197895Y-102813733D02*
X159245514Y-102956590D01*
X159245514Y-102956590D02*
X159816942Y-103528019D01*
X159816942Y-103528019D02*
X159197895Y-103528019D01*
D11*
X146533323Y-111939790D02*
X146557132Y-111963600D01*
X146557132Y-111963600D02*
X146628561Y-111987409D01*
X146628561Y-111987409D02*
X146676180Y-111987409D01*
X146676180Y-111987409D02*
X146747608Y-111963600D01*
X146747608Y-111963600D02*
X146795227Y-111915980D01*
X146795227Y-111915980D02*
X146819037Y-111868361D01*
X146819037Y-111868361D02*
X146842846Y-111773123D01*
X146842846Y-111773123D02*
X146842846Y-111701695D01*
X146842846Y-111701695D02*
X146819037Y-111606457D01*
X146819037Y-111606457D02*
X146795227Y-111558838D01*
X146795227Y-111558838D02*
X146747608Y-111511219D01*
X146747608Y-111511219D02*
X146676180Y-111487409D01*
X146676180Y-111487409D02*
X146628561Y-111487409D01*
X146628561Y-111487409D02*
X146557132Y-111511219D01*
X146557132Y-111511219D02*
X146533323Y-111535028D01*
X146342846Y-111535028D02*
X146319037Y-111511219D01*
X146319037Y-111511219D02*
X146271418Y-111487409D01*
X146271418Y-111487409D02*
X146152370Y-111487409D01*
X146152370Y-111487409D02*
X146104751Y-111511219D01*
X146104751Y-111511219D02*
X146080942Y-111535028D01*
X146080942Y-111535028D02*
X146057132Y-111582647D01*
X146057132Y-111582647D02*
X146057132Y-111630266D01*
X146057132Y-111630266D02*
X146080942Y-111701695D01*
X146080942Y-111701695D02*
X146366656Y-111987409D01*
X146366656Y-111987409D02*
X146057132Y-111987409D01*
X145580942Y-111987409D02*
X145866656Y-111987409D01*
X145723799Y-111987409D02*
X145723799Y-111487409D01*
X145723799Y-111487409D02*
X145771418Y-111558838D01*
X145771418Y-111558838D02*
X145819037Y-111606457D01*
X145819037Y-111606457D02*
X145866656Y-111630266D01*
X145271419Y-111487409D02*
X145223800Y-111487409D01*
X145223800Y-111487409D02*
X145176181Y-111511219D01*
X145176181Y-111511219D02*
X145152371Y-111535028D01*
X145152371Y-111535028D02*
X145128562Y-111582647D01*
X145128562Y-111582647D02*
X145104752Y-111677885D01*
X145104752Y-111677885D02*
X145104752Y-111796933D01*
X145104752Y-111796933D02*
X145128562Y-111892171D01*
X145128562Y-111892171D02*
X145152371Y-111939790D01*
X145152371Y-111939790D02*
X145176181Y-111963600D01*
X145176181Y-111963600D02*
X145223800Y-111987409D01*
X145223800Y-111987409D02*
X145271419Y-111987409D01*
X145271419Y-111987409D02*
X145319038Y-111963600D01*
X145319038Y-111963600D02*
X145342847Y-111939790D01*
X145342847Y-111939790D02*
X145366657Y-111892171D01*
X145366657Y-111892171D02*
X145390466Y-111796933D01*
X145390466Y-111796933D02*
X145390466Y-111677885D01*
X145390466Y-111677885D02*
X145366657Y-111582647D01*
X145366657Y-111582647D02*
X145342847Y-111535028D01*
X145342847Y-111535028D02*
X145319038Y-111511219D01*
X145319038Y-111511219D02*
X145271419Y-111487409D01*
X152880416Y-113692390D02*
X152904225Y-113716200D01*
X152904225Y-113716200D02*
X152975654Y-113740009D01*
X152975654Y-113740009D02*
X153023273Y-113740009D01*
X153023273Y-113740009D02*
X153094701Y-113716200D01*
X153094701Y-113716200D02*
X153142320Y-113668580D01*
X153142320Y-113668580D02*
X153166130Y-113620961D01*
X153166130Y-113620961D02*
X153189939Y-113525723D01*
X153189939Y-113525723D02*
X153189939Y-113454295D01*
X153189939Y-113454295D02*
X153166130Y-113359057D01*
X153166130Y-113359057D02*
X153142320Y-113311438D01*
X153142320Y-113311438D02*
X153094701Y-113263819D01*
X153094701Y-113263819D02*
X153023273Y-113240009D01*
X153023273Y-113240009D02*
X152975654Y-113240009D01*
X152975654Y-113240009D02*
X152904225Y-113263819D01*
X152904225Y-113263819D02*
X152880416Y-113287628D01*
X152689939Y-113287628D02*
X152666130Y-113263819D01*
X152666130Y-113263819D02*
X152618511Y-113240009D01*
X152618511Y-113240009D02*
X152499463Y-113240009D01*
X152499463Y-113240009D02*
X152451844Y-113263819D01*
X152451844Y-113263819D02*
X152428035Y-113287628D01*
X152428035Y-113287628D02*
X152404225Y-113335247D01*
X152404225Y-113335247D02*
X152404225Y-113382866D01*
X152404225Y-113382866D02*
X152428035Y-113454295D01*
X152428035Y-113454295D02*
X152713749Y-113740009D01*
X152713749Y-113740009D02*
X152404225Y-113740009D01*
X152094702Y-113240009D02*
X152047083Y-113240009D01*
X152047083Y-113240009D02*
X151999464Y-113263819D01*
X151999464Y-113263819D02*
X151975654Y-113287628D01*
X151975654Y-113287628D02*
X151951845Y-113335247D01*
X151951845Y-113335247D02*
X151928035Y-113430485D01*
X151928035Y-113430485D02*
X151928035Y-113549533D01*
X151928035Y-113549533D02*
X151951845Y-113644771D01*
X151951845Y-113644771D02*
X151975654Y-113692390D01*
X151975654Y-113692390D02*
X151999464Y-113716200D01*
X151999464Y-113716200D02*
X152047083Y-113740009D01*
X152047083Y-113740009D02*
X152094702Y-113740009D01*
X152094702Y-113740009D02*
X152142321Y-113716200D01*
X152142321Y-113716200D02*
X152166130Y-113692390D01*
X152166130Y-113692390D02*
X152189940Y-113644771D01*
X152189940Y-113644771D02*
X152213749Y-113549533D01*
X152213749Y-113549533D02*
X152213749Y-113430485D01*
X152213749Y-113430485D02*
X152189940Y-113335247D01*
X152189940Y-113335247D02*
X152166130Y-113287628D01*
X152166130Y-113287628D02*
X152142321Y-113263819D01*
X152142321Y-113263819D02*
X152094702Y-113240009D01*
X151761369Y-113240009D02*
X151451845Y-113240009D01*
X151451845Y-113240009D02*
X151618512Y-113430485D01*
X151618512Y-113430485D02*
X151547083Y-113430485D01*
X151547083Y-113430485D02*
X151499464Y-113454295D01*
X151499464Y-113454295D02*
X151475655Y-113478104D01*
X151475655Y-113478104D02*
X151451845Y-113525723D01*
X151451845Y-113525723D02*
X151451845Y-113644771D01*
X151451845Y-113644771D02*
X151475655Y-113692390D01*
X151475655Y-113692390D02*
X151499464Y-113716200D01*
X151499464Y-113716200D02*
X151547083Y-113740009D01*
X151547083Y-113740009D02*
X151689940Y-113740009D01*
X151689940Y-113740009D02*
X151737559Y-113716200D01*
X151737559Y-113716200D02*
X151761369Y-113692390D01*
D10*
X127911580Y-103401952D02*
X127959200Y-103354333D01*
X127959200Y-103354333D02*
X128006819Y-103211476D01*
X128006819Y-103211476D02*
X128006819Y-103116238D01*
X128006819Y-103116238D02*
X127959200Y-102973381D01*
X127959200Y-102973381D02*
X127863961Y-102878143D01*
X127863961Y-102878143D02*
X127768723Y-102830524D01*
X127768723Y-102830524D02*
X127578247Y-102782905D01*
X127578247Y-102782905D02*
X127435390Y-102782905D01*
X127435390Y-102782905D02*
X127244914Y-102830524D01*
X127244914Y-102830524D02*
X127149676Y-102878143D01*
X127149676Y-102878143D02*
X127054438Y-102973381D01*
X127054438Y-102973381D02*
X127006819Y-103116238D01*
X127006819Y-103116238D02*
X127006819Y-103211476D01*
X127006819Y-103211476D02*
X127054438Y-103354333D01*
X127054438Y-103354333D02*
X127102057Y-103401952D01*
X127006819Y-104259095D02*
X127006819Y-104068619D01*
X127006819Y-104068619D02*
X127054438Y-103973381D01*
X127054438Y-103973381D02*
X127102057Y-103925762D01*
X127102057Y-103925762D02*
X127244914Y-103830524D01*
X127244914Y-103830524D02*
X127435390Y-103782905D01*
X127435390Y-103782905D02*
X127816342Y-103782905D01*
X127816342Y-103782905D02*
X127911580Y-103830524D01*
X127911580Y-103830524D02*
X127959200Y-103878143D01*
X127959200Y-103878143D02*
X128006819Y-103973381D01*
X128006819Y-103973381D02*
X128006819Y-104163857D01*
X128006819Y-104163857D02*
X127959200Y-104259095D01*
X127959200Y-104259095D02*
X127911580Y-104306714D01*
X127911580Y-104306714D02*
X127816342Y-104354333D01*
X127816342Y-104354333D02*
X127578247Y-104354333D01*
X127578247Y-104354333D02*
X127483009Y-104306714D01*
X127483009Y-104306714D02*
X127435390Y-104259095D01*
X127435390Y-104259095D02*
X127387771Y-104163857D01*
X127387771Y-104163857D02*
X127387771Y-103973381D01*
X127387771Y-103973381D02*
X127435390Y-103878143D01*
X127435390Y-103878143D02*
X127483009Y-103830524D01*
X127483009Y-103830524D02*
X127578247Y-103782905D01*
X128006819Y-105306714D02*
X128006819Y-104735286D01*
X128006819Y-105021000D02*
X127006819Y-105021000D01*
X127006819Y-105021000D02*
X127149676Y-104925762D01*
X127149676Y-104925762D02*
X127244914Y-104830524D01*
X127244914Y-104830524D02*
X127292533Y-104735286D01*
X127340152Y-106163857D02*
X128006819Y-106163857D01*
X126959200Y-105925762D02*
X127673485Y-105687667D01*
X127673485Y-105687667D02*
X127673485Y-106306714D01*
D11*
X154176809Y-115467676D02*
X153938714Y-115301010D01*
X154176809Y-115181962D02*
X153676809Y-115181962D01*
X153676809Y-115181962D02*
X153676809Y-115372438D01*
X153676809Y-115372438D02*
X153700619Y-115420057D01*
X153700619Y-115420057D02*
X153724428Y-115443867D01*
X153724428Y-115443867D02*
X153772047Y-115467676D01*
X153772047Y-115467676D02*
X153843476Y-115467676D01*
X153843476Y-115467676D02*
X153891095Y-115443867D01*
X153891095Y-115443867D02*
X153914904Y-115420057D01*
X153914904Y-115420057D02*
X153938714Y-115372438D01*
X153938714Y-115372438D02*
X153938714Y-115181962D01*
X153724428Y-115658153D02*
X153700619Y-115681962D01*
X153700619Y-115681962D02*
X153676809Y-115729581D01*
X153676809Y-115729581D02*
X153676809Y-115848629D01*
X153676809Y-115848629D02*
X153700619Y-115896248D01*
X153700619Y-115896248D02*
X153724428Y-115920057D01*
X153724428Y-115920057D02*
X153772047Y-115943867D01*
X153772047Y-115943867D02*
X153819666Y-115943867D01*
X153819666Y-115943867D02*
X153891095Y-115920057D01*
X153891095Y-115920057D02*
X154176809Y-115634343D01*
X154176809Y-115634343D02*
X154176809Y-115943867D01*
X153676809Y-116253390D02*
X153676809Y-116301009D01*
X153676809Y-116301009D02*
X153700619Y-116348628D01*
X153700619Y-116348628D02*
X153724428Y-116372438D01*
X153724428Y-116372438D02*
X153772047Y-116396247D01*
X153772047Y-116396247D02*
X153867285Y-116420057D01*
X153867285Y-116420057D02*
X153986333Y-116420057D01*
X153986333Y-116420057D02*
X154081571Y-116396247D01*
X154081571Y-116396247D02*
X154129190Y-116372438D01*
X154129190Y-116372438D02*
X154153000Y-116348628D01*
X154153000Y-116348628D02*
X154176809Y-116301009D01*
X154176809Y-116301009D02*
X154176809Y-116253390D01*
X154176809Y-116253390D02*
X154153000Y-116205771D01*
X154153000Y-116205771D02*
X154129190Y-116181962D01*
X154129190Y-116181962D02*
X154081571Y-116158152D01*
X154081571Y-116158152D02*
X153986333Y-116134343D01*
X153986333Y-116134343D02*
X153867285Y-116134343D01*
X153867285Y-116134343D02*
X153772047Y-116158152D01*
X153772047Y-116158152D02*
X153724428Y-116181962D01*
X153724428Y-116181962D02*
X153700619Y-116205771D01*
X153700619Y-116205771D02*
X153676809Y-116253390D01*
X153676809Y-116586723D02*
X153676809Y-116896247D01*
X153676809Y-116896247D02*
X153867285Y-116729580D01*
X153867285Y-116729580D02*
X153867285Y-116801009D01*
X153867285Y-116801009D02*
X153891095Y-116848628D01*
X153891095Y-116848628D02*
X153914904Y-116872437D01*
X153914904Y-116872437D02*
X153962523Y-116896247D01*
X153962523Y-116896247D02*
X154081571Y-116896247D01*
X154081571Y-116896247D02*
X154129190Y-116872437D01*
X154129190Y-116872437D02*
X154153000Y-116848628D01*
X154153000Y-116848628D02*
X154176809Y-116801009D01*
X154176809Y-116801009D02*
X154176809Y-116658152D01*
X154176809Y-116658152D02*
X154153000Y-116610533D01*
X154153000Y-116610533D02*
X154129190Y-116586723D01*
D10*
X146744047Y-107014580D02*
X146791666Y-107062200D01*
X146791666Y-107062200D02*
X146934523Y-107109819D01*
X146934523Y-107109819D02*
X147029761Y-107109819D01*
X147029761Y-107109819D02*
X147172618Y-107062200D01*
X147172618Y-107062200D02*
X147267856Y-106966961D01*
X147267856Y-106966961D02*
X147315475Y-106871723D01*
X147315475Y-106871723D02*
X147363094Y-106681247D01*
X147363094Y-106681247D02*
X147363094Y-106538390D01*
X147363094Y-106538390D02*
X147315475Y-106347914D01*
X147315475Y-106347914D02*
X147267856Y-106252676D01*
X147267856Y-106252676D02*
X147172618Y-106157438D01*
X147172618Y-106157438D02*
X147029761Y-106109819D01*
X147029761Y-106109819D02*
X146934523Y-106109819D01*
X146934523Y-106109819D02*
X146791666Y-106157438D01*
X146791666Y-106157438D02*
X146744047Y-106205057D01*
X145886904Y-106109819D02*
X146077380Y-106109819D01*
X146077380Y-106109819D02*
X146172618Y-106157438D01*
X146172618Y-106157438D02*
X146220237Y-106205057D01*
X146220237Y-106205057D02*
X146315475Y-106347914D01*
X146315475Y-106347914D02*
X146363094Y-106538390D01*
X146363094Y-106538390D02*
X146363094Y-106919342D01*
X146363094Y-106919342D02*
X146315475Y-107014580D01*
X146315475Y-107014580D02*
X146267856Y-107062200D01*
X146267856Y-107062200D02*
X146172618Y-107109819D01*
X146172618Y-107109819D02*
X145982142Y-107109819D01*
X145982142Y-107109819D02*
X145886904Y-107062200D01*
X145886904Y-107062200D02*
X145839285Y-107014580D01*
X145839285Y-107014580D02*
X145791666Y-106919342D01*
X145791666Y-106919342D02*
X145791666Y-106681247D01*
X145791666Y-106681247D02*
X145839285Y-106586009D01*
X145839285Y-106586009D02*
X145886904Y-106538390D01*
X145886904Y-106538390D02*
X145982142Y-106490771D01*
X145982142Y-106490771D02*
X146172618Y-106490771D01*
X146172618Y-106490771D02*
X146267856Y-106538390D01*
X146267856Y-106538390D02*
X146315475Y-106586009D01*
X146315475Y-106586009D02*
X146363094Y-106681247D01*
X145172618Y-106109819D02*
X145077380Y-106109819D01*
X145077380Y-106109819D02*
X144982142Y-106157438D01*
X144982142Y-106157438D02*
X144934523Y-106205057D01*
X144934523Y-106205057D02*
X144886904Y-106300295D01*
X144886904Y-106300295D02*
X144839285Y-106490771D01*
X144839285Y-106490771D02*
X144839285Y-106728866D01*
X144839285Y-106728866D02*
X144886904Y-106919342D01*
X144886904Y-106919342D02*
X144934523Y-107014580D01*
X144934523Y-107014580D02*
X144982142Y-107062200D01*
X144982142Y-107062200D02*
X145077380Y-107109819D01*
X145077380Y-107109819D02*
X145172618Y-107109819D01*
X145172618Y-107109819D02*
X145267856Y-107062200D01*
X145267856Y-107062200D02*
X145315475Y-107014580D01*
X145315475Y-107014580D02*
X145363094Y-106919342D01*
X145363094Y-106919342D02*
X145410713Y-106728866D01*
X145410713Y-106728866D02*
X145410713Y-106490771D01*
X145410713Y-106490771D02*
X145363094Y-106300295D01*
X145363094Y-106300295D02*
X145315475Y-106205057D01*
X145315475Y-106205057D02*
X145267856Y-106157438D01*
X145267856Y-106157438D02*
X145172618Y-106109819D01*
X143886904Y-107109819D02*
X144458332Y-107109819D01*
X144172618Y-107109819D02*
X144172618Y-106109819D01*
X144172618Y-106109819D02*
X144267856Y-106252676D01*
X144267856Y-106252676D02*
X144363094Y-106347914D01*
X144363094Y-106347914D02*
X144458332Y-106395533D01*
X159157847Y-115624780D02*
X159205466Y-115672400D01*
X159205466Y-115672400D02*
X159348323Y-115720019D01*
X159348323Y-115720019D02*
X159443561Y-115720019D01*
X159443561Y-115720019D02*
X159586418Y-115672400D01*
X159586418Y-115672400D02*
X159681656Y-115577161D01*
X159681656Y-115577161D02*
X159729275Y-115481923D01*
X159729275Y-115481923D02*
X159776894Y-115291447D01*
X159776894Y-115291447D02*
X159776894Y-115148590D01*
X159776894Y-115148590D02*
X159729275Y-114958114D01*
X159729275Y-114958114D02*
X159681656Y-114862876D01*
X159681656Y-114862876D02*
X159586418Y-114767638D01*
X159586418Y-114767638D02*
X159443561Y-114720019D01*
X159443561Y-114720019D02*
X159348323Y-114720019D01*
X159348323Y-114720019D02*
X159205466Y-114767638D01*
X159205466Y-114767638D02*
X159157847Y-114815257D01*
X158253085Y-114720019D02*
X158729275Y-114720019D01*
X158729275Y-114720019D02*
X158776894Y-115196209D01*
X158776894Y-115196209D02*
X158729275Y-115148590D01*
X158729275Y-115148590D02*
X158634037Y-115100971D01*
X158634037Y-115100971D02*
X158395942Y-115100971D01*
X158395942Y-115100971D02*
X158300704Y-115148590D01*
X158300704Y-115148590D02*
X158253085Y-115196209D01*
X158253085Y-115196209D02*
X158205466Y-115291447D01*
X158205466Y-115291447D02*
X158205466Y-115529542D01*
X158205466Y-115529542D02*
X158253085Y-115624780D01*
X158253085Y-115624780D02*
X158300704Y-115672400D01*
X158300704Y-115672400D02*
X158395942Y-115720019D01*
X158395942Y-115720019D02*
X158634037Y-115720019D01*
X158634037Y-115720019D02*
X158729275Y-115672400D01*
X158729275Y-115672400D02*
X158776894Y-115624780D01*
X157253085Y-115720019D02*
X157824513Y-115720019D01*
X157538799Y-115720019D02*
X157538799Y-114720019D01*
X157538799Y-114720019D02*
X157634037Y-114862876D01*
X157634037Y-114862876D02*
X157729275Y-114958114D01*
X157729275Y-114958114D02*
X157824513Y-115005733D01*
X156634037Y-114720019D02*
X156538799Y-114720019D01*
X156538799Y-114720019D02*
X156443561Y-114767638D01*
X156443561Y-114767638D02*
X156395942Y-114815257D01*
X156395942Y-114815257D02*
X156348323Y-114910495D01*
X156348323Y-114910495D02*
X156300704Y-115100971D01*
X156300704Y-115100971D02*
X156300704Y-115339066D01*
X156300704Y-115339066D02*
X156348323Y-115529542D01*
X156348323Y-115529542D02*
X156395942Y-115624780D01*
X156395942Y-115624780D02*
X156443561Y-115672400D01*
X156443561Y-115672400D02*
X156538799Y-115720019D01*
X156538799Y-115720019D02*
X156634037Y-115720019D01*
X156634037Y-115720019D02*
X156729275Y-115672400D01*
X156729275Y-115672400D02*
X156776894Y-115624780D01*
X156776894Y-115624780D02*
X156824513Y-115529542D01*
X156824513Y-115529542D02*
X156872132Y-115339066D01*
X156872132Y-115339066D02*
X156872132Y-115100971D01*
X156872132Y-115100971D02*
X156824513Y-114910495D01*
X156824513Y-114910495D02*
X156776894Y-114815257D01*
X156776894Y-114815257D02*
X156729275Y-114767638D01*
X156729275Y-114767638D02*
X156634037Y-114720019D01*
D11*
X150801790Y-114451676D02*
X150825600Y-114427867D01*
X150825600Y-114427867D02*
X150849409Y-114356438D01*
X150849409Y-114356438D02*
X150849409Y-114308819D01*
X150849409Y-114308819D02*
X150825600Y-114237391D01*
X150825600Y-114237391D02*
X150777980Y-114189772D01*
X150777980Y-114189772D02*
X150730361Y-114165962D01*
X150730361Y-114165962D02*
X150635123Y-114142153D01*
X150635123Y-114142153D02*
X150563695Y-114142153D01*
X150563695Y-114142153D02*
X150468457Y-114165962D01*
X150468457Y-114165962D02*
X150420838Y-114189772D01*
X150420838Y-114189772D02*
X150373219Y-114237391D01*
X150373219Y-114237391D02*
X150349409Y-114308819D01*
X150349409Y-114308819D02*
X150349409Y-114356438D01*
X150349409Y-114356438D02*
X150373219Y-114427867D01*
X150373219Y-114427867D02*
X150397028Y-114451676D01*
X150397028Y-114642153D02*
X150373219Y-114665962D01*
X150373219Y-114665962D02*
X150349409Y-114713581D01*
X150349409Y-114713581D02*
X150349409Y-114832629D01*
X150349409Y-114832629D02*
X150373219Y-114880248D01*
X150373219Y-114880248D02*
X150397028Y-114904057D01*
X150397028Y-114904057D02*
X150444647Y-114927867D01*
X150444647Y-114927867D02*
X150492266Y-114927867D01*
X150492266Y-114927867D02*
X150563695Y-114904057D01*
X150563695Y-114904057D02*
X150849409Y-114618343D01*
X150849409Y-114618343D02*
X150849409Y-114927867D01*
X150849409Y-115404057D02*
X150849409Y-115118343D01*
X150849409Y-115261200D02*
X150349409Y-115261200D01*
X150349409Y-115261200D02*
X150420838Y-115213581D01*
X150420838Y-115213581D02*
X150468457Y-115165962D01*
X150468457Y-115165962D02*
X150492266Y-115118343D01*
X150397028Y-115594533D02*
X150373219Y-115618342D01*
X150373219Y-115618342D02*
X150349409Y-115665961D01*
X150349409Y-115665961D02*
X150349409Y-115785009D01*
X150349409Y-115785009D02*
X150373219Y-115832628D01*
X150373219Y-115832628D02*
X150397028Y-115856437D01*
X150397028Y-115856437D02*
X150444647Y-115880247D01*
X150444647Y-115880247D02*
X150492266Y-115880247D01*
X150492266Y-115880247D02*
X150563695Y-115856437D01*
X150563695Y-115856437D02*
X150849409Y-115570723D01*
X150849409Y-115570723D02*
X150849409Y-115880247D01*
D10*
X163656347Y-116810976D02*
X163723691Y-116810976D01*
X163723691Y-116810976D02*
X163858378Y-116743632D01*
X163858378Y-116743632D02*
X163925721Y-116676289D01*
X163925721Y-116676289D02*
X163993065Y-116541602D01*
X163993065Y-116541602D02*
X163993065Y-116406915D01*
X163993065Y-116406915D02*
X163959393Y-116305900D01*
X163959393Y-116305900D02*
X163858378Y-116137541D01*
X163858378Y-116137541D02*
X163757363Y-116036525D01*
X163757363Y-116036525D02*
X163589004Y-115935510D01*
X163589004Y-115935510D02*
X163487989Y-115901838D01*
X163487989Y-115901838D02*
X163353302Y-115901838D01*
X163353302Y-115901838D02*
X163218615Y-115969182D01*
X163218615Y-115969182D02*
X163151271Y-116036525D01*
X163151271Y-116036525D02*
X163083928Y-116171212D01*
X163083928Y-116171212D02*
X163083928Y-116238556D01*
X162376821Y-116810976D02*
X162713538Y-116474258D01*
X162713538Y-116474258D02*
X163083928Y-116777304D01*
X163083928Y-116777304D02*
X163016584Y-116777304D01*
X163016584Y-116777304D02*
X162915569Y-116810976D01*
X162915569Y-116810976D02*
X162747210Y-116979335D01*
X162747210Y-116979335D02*
X162713538Y-117080350D01*
X162713538Y-117080350D02*
X162713538Y-117147693D01*
X162713538Y-117147693D02*
X162747210Y-117248709D01*
X162747210Y-117248709D02*
X162915569Y-117417067D01*
X162915569Y-117417067D02*
X163016584Y-117450739D01*
X163016584Y-117450739D02*
X163083928Y-117450739D01*
X163083928Y-117450739D02*
X163184943Y-117417067D01*
X163184943Y-117417067D02*
X163353302Y-117248709D01*
X163353302Y-117248709D02*
X163386973Y-117147693D01*
X163386973Y-117147693D02*
X163386973Y-117080350D01*
X161905416Y-117282380D02*
X161838073Y-117349724D01*
X161838073Y-117349724D02*
X161804401Y-117450739D01*
X161804401Y-117450739D02*
X161804401Y-117518083D01*
X161804401Y-117518083D02*
X161838073Y-117619098D01*
X161838073Y-117619098D02*
X161939088Y-117787457D01*
X161939088Y-117787457D02*
X162107447Y-117955815D01*
X162107447Y-117955815D02*
X162275806Y-118056831D01*
X162275806Y-118056831D02*
X162376821Y-118090502D01*
X162376821Y-118090502D02*
X162444164Y-118090502D01*
X162444164Y-118090502D02*
X162545180Y-118056831D01*
X162545180Y-118056831D02*
X162612523Y-117989487D01*
X162612523Y-117989487D02*
X162646195Y-117888472D01*
X162646195Y-117888472D02*
X162646195Y-117821128D01*
X162646195Y-117821128D02*
X162612523Y-117720113D01*
X162612523Y-117720113D02*
X162511508Y-117551754D01*
X162511508Y-117551754D02*
X162343149Y-117383396D01*
X162343149Y-117383396D02*
X162174790Y-117282380D01*
X162174790Y-117282380D02*
X162073775Y-117248709D01*
X162073775Y-117248709D02*
X162006432Y-117248709D01*
X162006432Y-117248709D02*
X161905416Y-117282380D01*
X161029951Y-118157846D02*
X161366668Y-117821128D01*
X161366668Y-117821128D02*
X161737058Y-118124174D01*
X161737058Y-118124174D02*
X161669714Y-118124174D01*
X161669714Y-118124174D02*
X161568699Y-118157846D01*
X161568699Y-118157846D02*
X161400340Y-118326205D01*
X161400340Y-118326205D02*
X161366668Y-118427220D01*
X161366668Y-118427220D02*
X161366668Y-118494563D01*
X161366668Y-118494563D02*
X161400340Y-118595579D01*
X161400340Y-118595579D02*
X161568699Y-118763937D01*
X161568699Y-118763937D02*
X161669714Y-118797609D01*
X161669714Y-118797609D02*
X161737058Y-118797609D01*
X161737058Y-118797609D02*
X161838073Y-118763937D01*
X161838073Y-118763937D02*
X162006432Y-118595579D01*
X162006432Y-118595579D02*
X162040103Y-118494563D01*
X162040103Y-118494563D02*
X162040103Y-118427220D01*
X140361847Y-98321019D02*
X140695180Y-97844828D01*
X140933275Y-98321019D02*
X140933275Y-97321019D01*
X140933275Y-97321019D02*
X140552323Y-97321019D01*
X140552323Y-97321019D02*
X140457085Y-97368638D01*
X140457085Y-97368638D02*
X140409466Y-97416257D01*
X140409466Y-97416257D02*
X140361847Y-97511495D01*
X140361847Y-97511495D02*
X140361847Y-97654352D01*
X140361847Y-97654352D02*
X140409466Y-97749590D01*
X140409466Y-97749590D02*
X140457085Y-97797209D01*
X140457085Y-97797209D02*
X140552323Y-97844828D01*
X140552323Y-97844828D02*
X140933275Y-97844828D01*
X139504704Y-97321019D02*
X139695180Y-97321019D01*
X139695180Y-97321019D02*
X139790418Y-97368638D01*
X139790418Y-97368638D02*
X139838037Y-97416257D01*
X139838037Y-97416257D02*
X139933275Y-97559114D01*
X139933275Y-97559114D02*
X139980894Y-97749590D01*
X139980894Y-97749590D02*
X139980894Y-98130542D01*
X139980894Y-98130542D02*
X139933275Y-98225780D01*
X139933275Y-98225780D02*
X139885656Y-98273400D01*
X139885656Y-98273400D02*
X139790418Y-98321019D01*
X139790418Y-98321019D02*
X139599942Y-98321019D01*
X139599942Y-98321019D02*
X139504704Y-98273400D01*
X139504704Y-98273400D02*
X139457085Y-98225780D01*
X139457085Y-98225780D02*
X139409466Y-98130542D01*
X139409466Y-98130542D02*
X139409466Y-97892447D01*
X139409466Y-97892447D02*
X139457085Y-97797209D01*
X139457085Y-97797209D02*
X139504704Y-97749590D01*
X139504704Y-97749590D02*
X139599942Y-97701971D01*
X139599942Y-97701971D02*
X139790418Y-97701971D01*
X139790418Y-97701971D02*
X139885656Y-97749590D01*
X139885656Y-97749590D02*
X139933275Y-97797209D01*
X139933275Y-97797209D02*
X139980894Y-97892447D01*
X138790418Y-97321019D02*
X138695180Y-97321019D01*
X138695180Y-97321019D02*
X138599942Y-97368638D01*
X138599942Y-97368638D02*
X138552323Y-97416257D01*
X138552323Y-97416257D02*
X138504704Y-97511495D01*
X138504704Y-97511495D02*
X138457085Y-97701971D01*
X138457085Y-97701971D02*
X138457085Y-97940066D01*
X138457085Y-97940066D02*
X138504704Y-98130542D01*
X138504704Y-98130542D02*
X138552323Y-98225780D01*
X138552323Y-98225780D02*
X138599942Y-98273400D01*
X138599942Y-98273400D02*
X138695180Y-98321019D01*
X138695180Y-98321019D02*
X138790418Y-98321019D01*
X138790418Y-98321019D02*
X138885656Y-98273400D01*
X138885656Y-98273400D02*
X138933275Y-98225780D01*
X138933275Y-98225780D02*
X138980894Y-98130542D01*
X138980894Y-98130542D02*
X139028513Y-97940066D01*
X139028513Y-97940066D02*
X139028513Y-97701971D01*
X139028513Y-97701971D02*
X138980894Y-97511495D01*
X138980894Y-97511495D02*
X138933275Y-97416257D01*
X138933275Y-97416257D02*
X138885656Y-97368638D01*
X138885656Y-97368638D02*
X138790418Y-97321019D01*
X137504704Y-98321019D02*
X138076132Y-98321019D01*
X137790418Y-98321019D02*
X137790418Y-97321019D01*
X137790418Y-97321019D02*
X137885656Y-97463876D01*
X137885656Y-97463876D02*
X137980894Y-97559114D01*
X137980894Y-97559114D02*
X138076132Y-97606733D01*
X162767180Y-105891152D02*
X162814800Y-105843533D01*
X162814800Y-105843533D02*
X162862419Y-105700676D01*
X162862419Y-105700676D02*
X162862419Y-105605438D01*
X162862419Y-105605438D02*
X162814800Y-105462581D01*
X162814800Y-105462581D02*
X162719561Y-105367343D01*
X162719561Y-105367343D02*
X162624323Y-105319724D01*
X162624323Y-105319724D02*
X162433847Y-105272105D01*
X162433847Y-105272105D02*
X162290990Y-105272105D01*
X162290990Y-105272105D02*
X162100514Y-105319724D01*
X162100514Y-105319724D02*
X162005276Y-105367343D01*
X162005276Y-105367343D02*
X161910038Y-105462581D01*
X161910038Y-105462581D02*
X161862419Y-105605438D01*
X161862419Y-105605438D02*
X161862419Y-105700676D01*
X161862419Y-105700676D02*
X161910038Y-105843533D01*
X161910038Y-105843533D02*
X161957657Y-105891152D01*
X161862419Y-106795914D02*
X161862419Y-106319724D01*
X161862419Y-106319724D02*
X162338609Y-106272105D01*
X162338609Y-106272105D02*
X162290990Y-106319724D01*
X162290990Y-106319724D02*
X162243371Y-106414962D01*
X162243371Y-106414962D02*
X162243371Y-106653057D01*
X162243371Y-106653057D02*
X162290990Y-106748295D01*
X162290990Y-106748295D02*
X162338609Y-106795914D01*
X162338609Y-106795914D02*
X162433847Y-106843533D01*
X162433847Y-106843533D02*
X162671942Y-106843533D01*
X162671942Y-106843533D02*
X162767180Y-106795914D01*
X162767180Y-106795914D02*
X162814800Y-106748295D01*
X162814800Y-106748295D02*
X162862419Y-106653057D01*
X162862419Y-106653057D02*
X162862419Y-106414962D01*
X162862419Y-106414962D02*
X162814800Y-106319724D01*
X162814800Y-106319724D02*
X162767180Y-106272105D01*
X162862419Y-107795914D02*
X162862419Y-107224486D01*
X162862419Y-107510200D02*
X161862419Y-107510200D01*
X161862419Y-107510200D02*
X162005276Y-107414962D01*
X162005276Y-107414962D02*
X162100514Y-107319724D01*
X162100514Y-107319724D02*
X162148133Y-107224486D01*
X162862419Y-108748295D02*
X162862419Y-108176867D01*
X162862419Y-108462581D02*
X161862419Y-108462581D01*
X161862419Y-108462581D02*
X162005276Y-108367343D01*
X162005276Y-108367343D02*
X162100514Y-108272105D01*
X162100514Y-108272105D02*
X162148133Y-108176867D01*
X147626247Y-115415219D02*
X148102437Y-115415219D01*
X148102437Y-115415219D02*
X148102437Y-114415219D01*
X147340532Y-114510457D02*
X147292913Y-114462838D01*
X147292913Y-114462838D02*
X147197675Y-114415219D01*
X147197675Y-114415219D02*
X146959580Y-114415219D01*
X146959580Y-114415219D02*
X146864342Y-114462838D01*
X146864342Y-114462838D02*
X146816723Y-114510457D01*
X146816723Y-114510457D02*
X146769104Y-114605695D01*
X146769104Y-114605695D02*
X146769104Y-114700933D01*
X146769104Y-114700933D02*
X146816723Y-114843790D01*
X146816723Y-114843790D02*
X147388151Y-115415219D01*
X147388151Y-115415219D02*
X146769104Y-115415219D01*
X146150056Y-114415219D02*
X146054818Y-114415219D01*
X146054818Y-114415219D02*
X145959580Y-114462838D01*
X145959580Y-114462838D02*
X145911961Y-114510457D01*
X145911961Y-114510457D02*
X145864342Y-114605695D01*
X145864342Y-114605695D02*
X145816723Y-114796171D01*
X145816723Y-114796171D02*
X145816723Y-115034266D01*
X145816723Y-115034266D02*
X145864342Y-115224742D01*
X145864342Y-115224742D02*
X145911961Y-115319980D01*
X145911961Y-115319980D02*
X145959580Y-115367600D01*
X145959580Y-115367600D02*
X146054818Y-115415219D01*
X146054818Y-115415219D02*
X146150056Y-115415219D01*
X146150056Y-115415219D02*
X146245294Y-115367600D01*
X146245294Y-115367600D02*
X146292913Y-115319980D01*
X146292913Y-115319980D02*
X146340532Y-115224742D01*
X146340532Y-115224742D02*
X146388151Y-115034266D01*
X146388151Y-115034266D02*
X146388151Y-114796171D01*
X146388151Y-114796171D02*
X146340532Y-114605695D01*
X146340532Y-114605695D02*
X146292913Y-114510457D01*
X146292913Y-114510457D02*
X146245294Y-114462838D01*
X146245294Y-114462838D02*
X146150056Y-114415219D01*
X144864342Y-115415219D02*
X145435770Y-115415219D01*
X145150056Y-115415219D02*
X145150056Y-114415219D01*
X145150056Y-114415219D02*
X145245294Y-114558076D01*
X145245294Y-114558076D02*
X145340532Y-114653314D01*
X145340532Y-114653314D02*
X145435770Y-114700933D01*
X157456047Y-123746419D02*
X157789380Y-123270228D01*
X158027475Y-123746419D02*
X158027475Y-122746419D01*
X158027475Y-122746419D02*
X157646523Y-122746419D01*
X157646523Y-122746419D02*
X157551285Y-122794038D01*
X157551285Y-122794038D02*
X157503666Y-122841657D01*
X157503666Y-122841657D02*
X157456047Y-122936895D01*
X157456047Y-122936895D02*
X157456047Y-123079752D01*
X157456047Y-123079752D02*
X157503666Y-123174990D01*
X157503666Y-123174990D02*
X157551285Y-123222609D01*
X157551285Y-123222609D02*
X157646523Y-123270228D01*
X157646523Y-123270228D02*
X158027475Y-123270228D01*
X156551285Y-122746419D02*
X157027475Y-122746419D01*
X157027475Y-122746419D02*
X157075094Y-123222609D01*
X157075094Y-123222609D02*
X157027475Y-123174990D01*
X157027475Y-123174990D02*
X156932237Y-123127371D01*
X156932237Y-123127371D02*
X156694142Y-123127371D01*
X156694142Y-123127371D02*
X156598904Y-123174990D01*
X156598904Y-123174990D02*
X156551285Y-123222609D01*
X156551285Y-123222609D02*
X156503666Y-123317847D01*
X156503666Y-123317847D02*
X156503666Y-123555942D01*
X156503666Y-123555942D02*
X156551285Y-123651180D01*
X156551285Y-123651180D02*
X156598904Y-123698800D01*
X156598904Y-123698800D02*
X156694142Y-123746419D01*
X156694142Y-123746419D02*
X156932237Y-123746419D01*
X156932237Y-123746419D02*
X157027475Y-123698800D01*
X157027475Y-123698800D02*
X157075094Y-123651180D01*
X155884618Y-122746419D02*
X155789380Y-122746419D01*
X155789380Y-122746419D02*
X155694142Y-122794038D01*
X155694142Y-122794038D02*
X155646523Y-122841657D01*
X155646523Y-122841657D02*
X155598904Y-122936895D01*
X155598904Y-122936895D02*
X155551285Y-123127371D01*
X155551285Y-123127371D02*
X155551285Y-123365466D01*
X155551285Y-123365466D02*
X155598904Y-123555942D01*
X155598904Y-123555942D02*
X155646523Y-123651180D01*
X155646523Y-123651180D02*
X155694142Y-123698800D01*
X155694142Y-123698800D02*
X155789380Y-123746419D01*
X155789380Y-123746419D02*
X155884618Y-123746419D01*
X155884618Y-123746419D02*
X155979856Y-123698800D01*
X155979856Y-123698800D02*
X156027475Y-123651180D01*
X156027475Y-123651180D02*
X156075094Y-123555942D01*
X156075094Y-123555942D02*
X156122713Y-123365466D01*
X156122713Y-123365466D02*
X156122713Y-123127371D01*
X156122713Y-123127371D02*
X156075094Y-122936895D01*
X156075094Y-122936895D02*
X156027475Y-122841657D01*
X156027475Y-122841657D02*
X155979856Y-122794038D01*
X155979856Y-122794038D02*
X155884618Y-122746419D01*
X155170332Y-122841657D02*
X155122713Y-122794038D01*
X155122713Y-122794038D02*
X155027475Y-122746419D01*
X155027475Y-122746419D02*
X154789380Y-122746419D01*
X154789380Y-122746419D02*
X154694142Y-122794038D01*
X154694142Y-122794038D02*
X154646523Y-122841657D01*
X154646523Y-122841657D02*
X154598904Y-122936895D01*
X154598904Y-122936895D02*
X154598904Y-123032133D01*
X154598904Y-123032133D02*
X154646523Y-123174990D01*
X154646523Y-123174990D02*
X155217951Y-123746419D01*
X155217951Y-123746419D02*
X154598904Y-123746419D01*
X145754285Y-97727419D02*
X145754285Y-98536942D01*
X145754285Y-98536942D02*
X145706666Y-98632180D01*
X145706666Y-98632180D02*
X145659047Y-98679800D01*
X145659047Y-98679800D02*
X145563809Y-98727419D01*
X145563809Y-98727419D02*
X145373333Y-98727419D01*
X145373333Y-98727419D02*
X145278095Y-98679800D01*
X145278095Y-98679800D02*
X145230476Y-98632180D01*
X145230476Y-98632180D02*
X145182857Y-98536942D01*
X145182857Y-98536942D02*
X145182857Y-97727419D01*
X144278095Y-97727419D02*
X144468571Y-97727419D01*
X144468571Y-97727419D02*
X144563809Y-97775038D01*
X144563809Y-97775038D02*
X144611428Y-97822657D01*
X144611428Y-97822657D02*
X144706666Y-97965514D01*
X144706666Y-97965514D02*
X144754285Y-98155990D01*
X144754285Y-98155990D02*
X144754285Y-98536942D01*
X144754285Y-98536942D02*
X144706666Y-98632180D01*
X144706666Y-98632180D02*
X144659047Y-98679800D01*
X144659047Y-98679800D02*
X144563809Y-98727419D01*
X144563809Y-98727419D02*
X144373333Y-98727419D01*
X144373333Y-98727419D02*
X144278095Y-98679800D01*
X144278095Y-98679800D02*
X144230476Y-98632180D01*
X144230476Y-98632180D02*
X144182857Y-98536942D01*
X144182857Y-98536942D02*
X144182857Y-98298847D01*
X144182857Y-98298847D02*
X144230476Y-98203609D01*
X144230476Y-98203609D02*
X144278095Y-98155990D01*
X144278095Y-98155990D02*
X144373333Y-98108371D01*
X144373333Y-98108371D02*
X144563809Y-98108371D01*
X144563809Y-98108371D02*
X144659047Y-98155990D01*
X144659047Y-98155990D02*
X144706666Y-98203609D01*
X144706666Y-98203609D02*
X144754285Y-98298847D01*
X143563809Y-97727419D02*
X143468571Y-97727419D01*
X143468571Y-97727419D02*
X143373333Y-97775038D01*
X143373333Y-97775038D02*
X143325714Y-97822657D01*
X143325714Y-97822657D02*
X143278095Y-97917895D01*
X143278095Y-97917895D02*
X143230476Y-98108371D01*
X143230476Y-98108371D02*
X143230476Y-98346466D01*
X143230476Y-98346466D02*
X143278095Y-98536942D01*
X143278095Y-98536942D02*
X143325714Y-98632180D01*
X143325714Y-98632180D02*
X143373333Y-98679800D01*
X143373333Y-98679800D02*
X143468571Y-98727419D01*
X143468571Y-98727419D02*
X143563809Y-98727419D01*
X143563809Y-98727419D02*
X143659047Y-98679800D01*
X143659047Y-98679800D02*
X143706666Y-98632180D01*
X143706666Y-98632180D02*
X143754285Y-98536942D01*
X143754285Y-98536942D02*
X143801904Y-98346466D01*
X143801904Y-98346466D02*
X143801904Y-98108371D01*
X143801904Y-98108371D02*
X143754285Y-97917895D01*
X143754285Y-97917895D02*
X143706666Y-97822657D01*
X143706666Y-97822657D02*
X143659047Y-97775038D01*
X143659047Y-97775038D02*
X143563809Y-97727419D01*
X142849523Y-97822657D02*
X142801904Y-97775038D01*
X142801904Y-97775038D02*
X142706666Y-97727419D01*
X142706666Y-97727419D02*
X142468571Y-97727419D01*
X142468571Y-97727419D02*
X142373333Y-97775038D01*
X142373333Y-97775038D02*
X142325714Y-97822657D01*
X142325714Y-97822657D02*
X142278095Y-97917895D01*
X142278095Y-97917895D02*
X142278095Y-98013133D01*
X142278095Y-98013133D02*
X142325714Y-98155990D01*
X142325714Y-98155990D02*
X142897142Y-98727419D01*
X142897142Y-98727419D02*
X142278095Y-98727419D01*
D13*
%TO.C,PS501*%
X162930000Y-123575000D02*
X162930000Y-123930000D01*
X162930000Y-126520000D02*
X162930000Y-126875000D01*
X164870000Y-126875000D02*
X165105000Y-126875000D01*
X167770000Y-126875000D02*
X167770000Y-123575000D01*
D14*
X163975000Y-122725000D02*
G75*
G02*
X163775000Y-122725000I-100000J0D01*
G01*
X163775000Y-122725000D02*
G75*
G02*
X163975000Y-122725000I100000J0D01*
G01*
D15*
%TO.C,C204*%
X149109137Y-120804000D02*
X149631641Y-120804000D01*
X149109137Y-122274000D02*
X149631641Y-122274000D01*
%TO.C,R607*%
X150762742Y-100702500D02*
X151237258Y-100702500D01*
X150762742Y-101747500D02*
X151237258Y-101747500D01*
%TO.C,C506*%
X168538748Y-119265000D02*
X169061252Y-119265000D01*
X168538748Y-120735000D02*
X169061252Y-120735000D01*
%TO.C,R503*%
X161277500Y-126987742D02*
X161277500Y-127462258D01*
X162322500Y-126987742D02*
X162322500Y-127462258D01*
%TO.C,C502*%
X165065000Y-128963748D02*
X165065000Y-129486252D01*
X166535000Y-128963748D02*
X166535000Y-129486252D01*
%TO.C,U501*%
X165950000Y-108390000D02*
X169710000Y-108390000D01*
X165950000Y-115210000D02*
X169710000Y-115210000D01*
X169710000Y-108390000D02*
X169710000Y-109650000D01*
X169710000Y-115210000D02*
X169710000Y-113950000D01*
X164910000Y-115440000D02*
X164430000Y-115440000D01*
X164670000Y-115110000D01*
X164910000Y-115440000D01*
G36*
X164910000Y-115440000D02*
G01*
X164430000Y-115440000D01*
X164670000Y-115110000D01*
X164910000Y-115440000D01*
G37*
%TO.C,R505*%
X165591258Y-121397500D02*
X165116742Y-121397500D01*
X165591258Y-122442500D02*
X165116742Y-122442500D01*
%TO.C,C512*%
X150903000Y-106306252D02*
X150903000Y-105783748D01*
X152373000Y-106306252D02*
X152373000Y-105783748D01*
%TO.C,R602*%
X137062258Y-103502500D02*
X136587742Y-103502500D01*
X137062258Y-104547500D02*
X136587742Y-104547500D01*
%TO.C,R606*%
X148077500Y-101787742D02*
X148077500Y-102262258D01*
X149122500Y-101787742D02*
X149122500Y-102262258D01*
%TO.C,C209*%
X146290420Y-117219000D02*
X146571580Y-117219000D01*
X146290420Y-118239000D02*
X146571580Y-118239000D01*
D16*
%TO.C,TP601*%
X140200000Y-105425000D02*
X140700000Y-105425000D01*
X140200000Y-105925000D02*
X140200000Y-105425000D01*
X140200000Y-107025000D02*
X140200000Y-106525000D01*
X140200000Y-107025000D02*
X140700000Y-107025000D01*
X142600000Y-105425000D02*
X142100000Y-105425000D01*
X142600000Y-105425000D02*
X142600000Y-105925000D01*
X142600000Y-107025000D02*
X142100000Y-107025000D01*
X142600000Y-107025000D02*
X142600000Y-106525000D01*
D17*
%TO.C,U401*%
X156044900Y-119051965D02*
X156044900Y-118339952D01*
X156044900Y-120150848D02*
X156044900Y-119438835D01*
X158407100Y-118339952D02*
X158407100Y-119051965D01*
X158407100Y-119438835D02*
X158407100Y-120150848D01*
X158077600Y-121645599D02*
G75*
G02*
X157874400Y-121645599I-101600J0D01*
G01*
X157874400Y-121645599D02*
G75*
G02*
X158077600Y-121645599I101600J0D01*
G01*
D15*
%TO.C,R604*%
X138677500Y-103000242D02*
X138677500Y-103474758D01*
X139722500Y-103000242D02*
X139722500Y-103474758D01*
%TO.C,R611*%
X148077500Y-98787742D02*
X148077500Y-99262258D01*
X149122500Y-98787742D02*
X149122500Y-99262258D01*
%TO.C,R501*%
X161277500Y-124087258D02*
X161277500Y-123612742D01*
X162322500Y-124087258D02*
X162322500Y-123612742D01*
%TO.C,R608*%
X151237258Y-102302500D02*
X150762742Y-102302500D01*
X151237258Y-103347500D02*
X150762742Y-103347500D01*
%TO.C,R603*%
X136562742Y-101902500D02*
X137037258Y-101902500D01*
X136562742Y-102947500D02*
X137037258Y-102947500D01*
%TO.C,R506*%
X162545500Y-120887258D02*
X162545500Y-120412742D01*
X163590500Y-120887258D02*
X163590500Y-120412742D01*
%TO.C,C401*%
X159290000Y-118859420D02*
X159290000Y-119140580D01*
X160310000Y-118859420D02*
X160310000Y-119140580D01*
%TO.C,C509*%
X161565000Y-114261252D02*
X161565000Y-113738748D01*
X163035000Y-114261252D02*
X163035000Y-113738748D01*
%TO.C,C613*%
X128500000Y-124346580D02*
X128500000Y-124065420D01*
X129520000Y-124346580D02*
X129520000Y-124065420D01*
D16*
%TO.C,TP602*%
X148025000Y-104225000D02*
X148525000Y-104225000D01*
X148025000Y-104725000D02*
X148025000Y-104225000D01*
X148025000Y-105825000D02*
X148025000Y-105325000D01*
X148025000Y-105825000D02*
X148525000Y-105825000D01*
X150425000Y-104225000D02*
X149925000Y-104225000D01*
X150425000Y-104225000D02*
X150425000Y-104725000D01*
X150425000Y-105825000D02*
X149925000Y-105825000D01*
X150425000Y-105825000D02*
X150425000Y-105325000D01*
D15*
%TO.C,C503*%
X163065000Y-128963748D02*
X163065000Y-129486252D01*
X164535000Y-128963748D02*
X164535000Y-129486252D01*
%TO.C,C507*%
X168538748Y-121265000D02*
X169061252Y-121265000D01*
X168538748Y-122735000D02*
X169061252Y-122735000D01*
%TO.C,C501*%
X167090000Y-128884420D02*
X167090000Y-129165580D01*
X168110000Y-128884420D02*
X168110000Y-129165580D01*
%TO.C,C211*%
X152794580Y-120140000D02*
X152513420Y-120140000D01*
X152794580Y-121160000D02*
X152513420Y-121160000D01*
%TO.C,C208*%
X144573970Y-121912781D02*
X144772781Y-121713970D01*
X145295219Y-122634030D02*
X145494030Y-122435219D01*
%TO.C,C508*%
X165715580Y-119886000D02*
X165434420Y-119886000D01*
X165715580Y-120906000D02*
X165434420Y-120906000D01*
%TO.C,R204*%
X153559742Y-118603500D02*
X154034258Y-118603500D01*
X153559742Y-119648500D02*
X154034258Y-119648500D01*
%TO.C,C205*%
X149619580Y-119124000D02*
X149338420Y-119124000D01*
X149619580Y-120144000D02*
X149338420Y-120144000D01*
%TO.C,U502*%
X152913000Y-106190000D02*
X154173000Y-106190000D01*
X152913000Y-109950000D02*
X152913000Y-106190000D01*
X159733000Y-106190000D02*
X158473000Y-106190000D01*
X159733000Y-109950000D02*
X159733000Y-106190000D01*
X159963000Y-111470000D02*
X159633000Y-111230000D01*
X159963000Y-110990000D01*
X159963000Y-111470000D01*
G36*
X159963000Y-111470000D02*
G01*
X159633000Y-111230000D01*
X159963000Y-110990000D01*
X159963000Y-111470000D01*
G37*
%TO.C,C210*%
X148068420Y-111250000D02*
X148349580Y-111250000D01*
X148068420Y-112270000D02*
X148349580Y-112270000D01*
%TO.C,C203*%
X152461473Y-113958915D02*
X152180313Y-113958915D01*
X152461473Y-114978915D02*
X152180313Y-114978915D01*
%TO.C,C614*%
X128472000Y-104380420D02*
X128472000Y-104661580D01*
X129492000Y-104380420D02*
X129492000Y-104661580D01*
%TO.C,R203*%
X153432742Y-117079500D02*
X153907258Y-117079500D01*
X153432742Y-118124500D02*
X153907258Y-118124500D01*
%TO.C,C601*%
X145484420Y-104715000D02*
X145765580Y-104715000D01*
X145484420Y-105735000D02*
X145765580Y-105735000D01*
%TO.C,C510*%
X158757252Y-112930000D02*
X158234748Y-112930000D01*
X158757252Y-114400000D02*
X158234748Y-114400000D01*
%TO.C,C212*%
X152540580Y-115441000D02*
X152259420Y-115441000D01*
X152540580Y-116461000D02*
X152259420Y-116461000D01*
%TO.C,C505*%
X165561252Y-117375000D02*
X165038748Y-117375000D01*
X165561252Y-118845000D02*
X165038748Y-118845000D01*
%TO.C,R601*%
X138677500Y-100000242D02*
X138677500Y-100474758D01*
X139722500Y-100000242D02*
X139722500Y-100474758D01*
%TO.C,C511*%
X161565000Y-110338748D02*
X161565000Y-110861252D01*
X163035000Y-110338748D02*
X163035000Y-110861252D01*
%TO.C,L201*%
X148284000Y-117537122D02*
X148284000Y-116737878D01*
X149404000Y-117537122D02*
X149404000Y-116737878D01*
%TO.C,R502*%
X159749258Y-122540500D02*
X159274742Y-122540500D01*
X159749258Y-123585500D02*
X159274742Y-123585500D01*
D13*
%TO.C,U602*%
X142090000Y-99232500D02*
X145990000Y-99232500D01*
X142090000Y-104282500D02*
X145990000Y-104282500D01*
D14*
X140100000Y-104062500D02*
G75*
G02*
X139900000Y-104062500I-100000J0D01*
G01*
X139900000Y-104062500D02*
G75*
G02*
X140100000Y-104062500I100000J0D01*
G01*
%TD*%
M02*
