%TF.GenerationSoftware,KiCad,Pcbnew,9.0.8-9.0.8~ubuntu22.04.1*%
%TF.CreationDate,2026-04-26T22:17:13+03:00*%
%TF.ProjectId,Main Board - NDT,4d61696e-2042-46f6-9172-64202d204e44,rev?*%
%TF.SameCoordinates,Original*%
%TF.FileFunction,Copper,L2,Inr*%
%TF.FilePolarity,Positive*%
%FSLAX46Y46*%
G04 Gerber Fmt 4.6, Leading zero omitted, Abs format (unit mm)*
G04 Created by KiCad (PCBNEW 9.0.8-9.0.8~ubuntu22.04.1) date 2026-04-26 22:17:13*
%MOMM*%
%LPD*%
G01*
G04 APERTURE LIST*
G04 Aperture macros list*
%AMRoundRect*
0 Rectangle with rounded corners*
0 $1 Rounding radius*
0 $2 $3 $4 $5 $6 $7 $8 $9 X,Y pos of 4 corners*
0 Add a 4 corners polygon primitive as box body*
4,1,4,$2,$3,$4,$5,$6,$7,$8,$9,$2,$3,0*
0 Add four circle primitives for the rounded corners*
1,1,$1+$1,$2,$3*
1,1,$1+$1,$4,$5*
1,1,$1+$1,$6,$7*
1,1,$1+$1,$8,$9*
0 Add four rect primitives between the rounded corners*
20,1,$1+$1,$2,$3,$4,$5,0*
20,1,$1+$1,$4,$5,$6,$7,0*
20,1,$1+$1,$6,$7,$8,$9,0*
20,1,$1+$1,$8,$9,$2,$3,0*%
G04 Aperture macros list end*
%TA.AperFunction,ComponentPad*%
%ADD10RoundRect,0.250001X-1.149999X-1.149999X1.149999X-1.149999X1.149999X1.149999X-1.149999X1.149999X0*%
%TD*%
%TA.AperFunction,ComponentPad*%
%ADD11C,2.800000*%
%TD*%
%TA.AperFunction,ComponentPad*%
%ADD12C,1.750000*%
%TD*%
%TA.AperFunction,ComponentPad*%
%ADD13C,2.100000*%
%TD*%
%TA.AperFunction,ComponentPad*%
%ADD14RoundRect,0.250001X1.149999X-1.149999X1.149999X1.149999X-1.149999X1.149999X-1.149999X-1.149999X0*%
%TD*%
%TA.AperFunction,ComponentPad*%
%ADD15C,2.500000*%
%TD*%
%TA.AperFunction,ComponentPad*%
%ADD16C,2.600000*%
%TD*%
%TA.AperFunction,ComponentPad*%
%ADD17R,1.700000X1.700000*%
%TD*%
%TA.AperFunction,ComponentPad*%
%ADD18C,1.700000*%
%TD*%
%TA.AperFunction,ComponentPad*%
%ADD19RoundRect,0.250001X-1.149999X1.149999X-1.149999X-1.149999X1.149999X-1.149999X1.149999X1.149999X0*%
%TD*%
%TA.AperFunction,ViaPad*%
%ADD20C,0.400000*%
%TD*%
%TA.AperFunction,ViaPad*%
%ADD21C,0.600000*%
%TD*%
%TA.AperFunction,ViaPad*%
%ADD22C,0.500000*%
%TD*%
G04 APERTURE END LIST*
D10*
%TO.N,Net-(J505-Pin_1)*%
%TO.C,J505*%
X160800000Y-142700000D03*
D11*
%TO.N,GND*%
X165800000Y-142700000D03*
%TD*%
D12*
%TO.N,/MCU/I2C2_SCL*%
%TO.C,J202*%
X163595000Y-98825000D03*
%TO.N,/MCU/I2C2_SDA*%
X161595000Y-98825000D03*
%TD*%
%TO.N,/MCU/UART4_RX*%
%TO.C,J205*%
X173525400Y-116685000D03*
%TO.N,/MCU/UART4_TX*%
X173525400Y-114685000D03*
%TD*%
%TO.N,/MCU/UART1_RX*%
%TO.C,J203*%
X125037700Y-114095000D03*
%TO.N,/MCU/UART1_TX*%
X125037700Y-116095000D03*
%TD*%
D13*
%TO.N,/MCU/I2C1_SDA*%
%TO.C,J603*%
X131200000Y-130389000D03*
%TO.N,/MCU/I2C1_SCL*%
X131200000Y-127889000D03*
%TO.N,GND*%
X131200000Y-125389000D03*
%TO.N,MCU_3V3_VFD*%
X131200000Y-122889000D03*
%TD*%
%TO.N,/MCU/I2C1_SCL*%
%TO.C,J604*%
X131182000Y-112732000D03*
%TO.N,GND*%
X131182000Y-110232000D03*
%TO.N,/MCU/I2C1_SDA*%
X131182000Y-107732000D03*
%TO.N,MCU_3V3_VFD*%
X131182000Y-105232000D03*
%TD*%
D14*
%TO.N,GND*%
%TO.C,J503*%
X176167500Y-108250000D03*
D11*
%TO.N,Net-(J503-Pin_2)*%
X176167500Y-103250000D03*
%TD*%
D12*
%TO.N,3V3_F*%
%TO.C,J602*%
X157103000Y-98843000D03*
%TO.N,Net-(J602-Pad2)*%
X155103000Y-98843000D03*
%TD*%
%TO.N,/MCU/UART2_RX*%
%TO.C,J204*%
X125037700Y-121545000D03*
%TO.N,/MCU/UART2_TX*%
X125037700Y-123545000D03*
%TD*%
%TO.N,Net-(J601-Pad1)*%
%TO.C,J601*%
X134116000Y-98716000D03*
%TO.N,3V3_F*%
X132116000Y-98716000D03*
%TD*%
D14*
%TO.N,Net-(J504-Pin_1)*%
%TO.C,J504*%
X176175400Y-134600000D03*
D11*
%TO.N,GND*%
X176175400Y-129600000D03*
%TD*%
D15*
%TO.N,/RF/PA_SE*%
%TO.C,J301*%
X153137256Y-142353171D03*
D16*
%TO.N,GND*%
X155677256Y-144893171D03*
X155677256Y-139813171D03*
X150597256Y-144893171D03*
X150597256Y-139813171D03*
%TD*%
D15*
%TO.N,/RF/2.4_GHZ_SE*%
%TO.C,J304*%
X133660000Y-142340000D03*
D16*
%TO.N,GND*%
X136200000Y-144880000D03*
X136200000Y-139800000D03*
X131120000Y-144880000D03*
X131120000Y-139800000D03*
%TD*%
D17*
%TO.N,/MCU/JTAG_TMS*%
%TO.C,J201*%
X150876000Y-93472000D03*
D18*
%TO.N,/MCU/JTAG_TCK*%
X148336000Y-93472000D03*
%TO.N,/MCU/JTAG_TDO*%
X145796000Y-93472000D03*
%TO.N,/MCU/JTAG_TDI*%
X143256000Y-93472000D03*
%TO.N,/MCU/SWO*%
X140716000Y-93472000D03*
%TO.N,/MCU/RESET*%
X138176000Y-93472000D03*
%TD*%
D19*
%TO.N,GND*%
%TO.C,J502*%
X122300000Y-129900000D03*
D11*
%TO.N,Net-(J502-Pin_2)*%
X122300000Y-134900000D03*
%TD*%
D15*
%TO.N,/RF/SUB_GHZ_SE*%
%TO.C,J305*%
X143540000Y-142340000D03*
D16*
%TO.N,GND*%
X146080000Y-144880000D03*
X146080000Y-139800000D03*
X141000000Y-144880000D03*
X141000000Y-139800000D03*
%TD*%
D12*
%TO.N,/MCU/UART3_TX*%
%TO.C,J206*%
X173525400Y-124020000D03*
%TO.N,/MCU/UART3_RX*%
X173525400Y-122020000D03*
%TD*%
D19*
%TO.N,Net-(J501-Pin_1)*%
%TO.C,J501*%
X122387700Y-103350000D03*
D11*
%TO.N,GND*%
X122387700Y-108350000D03*
%TD*%
D20*
%TO.N,GND*%
X150950000Y-134250000D03*
X149600000Y-131950000D03*
D21*
X147608100Y-136677000D03*
D20*
X148570937Y-129220867D03*
D21*
X157607000Y-108204000D03*
X155575000Y-107061000D03*
D20*
X144950000Y-125150000D03*
D21*
X149608100Y-136677000D03*
D20*
X150350000Y-133500000D03*
X149650000Y-130900000D03*
X151350000Y-125200000D03*
X153200000Y-131900000D03*
X153950000Y-136750000D03*
X134400000Y-140500000D03*
X144672712Y-127751534D03*
X153200000Y-132400000D03*
X140733174Y-125849367D03*
X148350000Y-128250000D03*
D21*
X138684000Y-98806000D03*
D20*
X138300000Y-133350000D03*
D21*
X143608100Y-144677000D03*
D20*
X144000000Y-132100000D03*
X153350000Y-134350000D03*
D21*
X169799000Y-113157000D03*
X148608100Y-136677000D03*
X140608100Y-136677000D03*
D20*
X152250000Y-128500000D03*
X152400000Y-129000000D03*
D21*
X170815000Y-110490000D03*
X138608100Y-138677000D03*
D20*
X142500000Y-140000000D03*
D21*
X163700000Y-119100000D03*
D20*
X152263003Y-130095078D03*
X146650000Y-130800000D03*
D21*
X163195000Y-123571000D03*
D20*
X152550000Y-140600000D03*
X142750000Y-136500000D03*
X137800000Y-130850000D03*
X139250000Y-128850000D03*
X148050000Y-127750000D03*
X153050000Y-133350000D03*
D21*
X149608100Y-137677000D03*
D20*
X145384260Y-133905938D03*
X151200000Y-124400000D03*
D21*
X139608100Y-142677000D03*
D20*
X138000000Y-133800000D03*
X133050000Y-139900000D03*
X141550000Y-124700000D03*
D21*
X157099000Y-101219000D03*
D20*
X147750000Y-127350000D03*
X152600000Y-139150000D03*
D21*
X170815000Y-111379000D03*
D20*
X147950000Y-126350000D03*
D21*
X156300000Y-125400000D03*
X146608100Y-142677000D03*
X157226000Y-113284000D03*
D20*
X144326254Y-130651534D03*
D21*
X147608100Y-141677000D03*
X153416000Y-100584000D03*
D20*
X144400000Y-128850000D03*
X152600000Y-140100000D03*
X133800000Y-137200000D03*
D21*
X140608100Y-135677000D03*
D20*
X141200000Y-125150000D03*
X145750000Y-132300000D03*
X138900000Y-129250000D03*
D21*
X156591000Y-105029000D03*
D20*
X142300000Y-138000000D03*
D21*
X157607000Y-128016000D03*
D20*
X142500000Y-139450000D03*
X147950000Y-130050000D03*
D21*
X147608100Y-135677000D03*
D20*
X144150000Y-137850000D03*
D21*
X133608100Y-145677000D03*
D20*
X148750000Y-126900000D03*
X143800000Y-140450000D03*
D21*
X155608100Y-135677000D03*
X142113000Y-117348000D03*
X157607000Y-107061000D03*
D20*
X152021272Y-127261076D03*
X133000000Y-140450000D03*
X152700000Y-130400000D03*
X148400000Y-124900000D03*
D21*
X138608100Y-136677000D03*
D20*
X148800000Y-126400000D03*
X144550000Y-128350000D03*
X145000000Y-125800000D03*
D21*
X148590000Y-98171000D03*
D20*
X149850000Y-133400000D03*
X138950000Y-132550000D03*
X152500000Y-129550000D03*
X154600000Y-128100000D03*
D21*
X170815000Y-113157000D03*
D20*
X142500000Y-140500000D03*
X149500000Y-132950000D03*
X146150000Y-131000000D03*
D21*
X169799000Y-112268000D03*
D20*
X139800000Y-131200000D03*
D21*
X164719000Y-124968000D03*
X138608100Y-139677000D03*
X140608100Y-137677000D03*
D20*
X153700000Y-135800000D03*
X153900000Y-139150000D03*
D21*
X169799000Y-109601000D03*
D20*
X136150000Y-135800000D03*
X151850000Y-135500000D03*
X143750000Y-133050000D03*
X136450000Y-132800000D03*
D21*
X137608100Y-136677000D03*
X143510000Y-120269000D03*
X150241000Y-117475000D03*
X149608100Y-135677000D03*
X133608100Y-144677000D03*
D20*
X134450000Y-139950000D03*
X144050000Y-138400000D03*
X137250000Y-131700000D03*
D21*
X137608100Y-137677000D03*
X150608100Y-137677000D03*
D20*
X150000000Y-123450000D03*
D21*
X131608100Y-137677000D03*
X155575000Y-105029000D03*
D20*
X134000000Y-136700000D03*
D21*
X163350000Y-105975000D03*
D20*
X139550000Y-131700000D03*
X135600000Y-134000000D03*
D21*
X155575000Y-106045000D03*
D20*
X153600000Y-135300000D03*
X148300000Y-128800000D03*
D21*
X165100000Y-122809000D03*
D20*
X151450000Y-134150000D03*
X143550000Y-128500000D03*
X138600000Y-132950000D03*
D21*
X155608100Y-136677000D03*
D20*
X147800000Y-126850000D03*
X152350000Y-137750000D03*
X148800000Y-129700000D03*
X140300000Y-126400000D03*
X148100000Y-129550000D03*
D21*
X144526000Y-122682000D03*
D20*
X139650000Y-127300000D03*
X143850000Y-138900000D03*
X145650000Y-135150000D03*
X134800000Y-135350000D03*
D21*
X167250000Y-113750000D03*
D20*
X143900000Y-125450000D03*
X140100000Y-130750000D03*
D21*
X156591000Y-107061000D03*
D20*
X153850000Y-136300000D03*
D21*
X138608100Y-140677000D03*
D20*
X144900000Y-127300000D03*
X137400000Y-134700000D03*
X144200000Y-130200000D03*
D21*
X170815000Y-109601000D03*
D20*
X152300000Y-137300000D03*
X151500000Y-125650000D03*
D21*
X148608100Y-135677000D03*
D20*
X142850000Y-123800000D03*
X143250000Y-128950000D03*
X152050000Y-136450000D03*
D21*
X130048000Y-101346000D03*
D20*
X146950061Y-130430511D03*
X133450000Y-138200000D03*
D21*
X149608100Y-142677000D03*
D20*
X138431391Y-129930214D03*
X142850000Y-136000000D03*
D21*
X141608100Y-131677000D03*
X161798000Y-128016000D03*
X152146000Y-104775000D03*
X139608100Y-136677000D03*
X148608100Y-142677000D03*
X138608100Y-145677000D03*
D20*
X144650000Y-137550000D03*
D21*
X162306000Y-111633000D03*
X143608100Y-145677000D03*
X137608100Y-142677000D03*
D20*
X143900000Y-128050000D03*
X145800000Y-135650000D03*
D21*
X164084000Y-124968000D03*
D20*
X134250000Y-136250000D03*
D21*
X129032000Y-103759000D03*
D20*
X145450000Y-136700000D03*
X153500000Y-134800000D03*
D21*
X170942000Y-121920000D03*
D20*
X153900000Y-140150000D03*
D21*
X169799000Y-124841000D03*
D20*
X140800000Y-129800000D03*
X151650000Y-126200000D03*
X152950000Y-132850000D03*
X145250000Y-137250000D03*
X135300000Y-137250000D03*
X143400000Y-134000000D03*
D21*
X151257000Y-117475000D03*
D20*
X134850000Y-138300000D03*
D21*
X170688000Y-131318000D03*
X168783000Y-110490000D03*
X156083000Y-121285000D03*
X130608100Y-142677000D03*
D20*
X145500000Y-133250000D03*
D21*
X140608100Y-133677000D03*
X138608100Y-142677000D03*
X170561000Y-129032000D03*
D20*
X135050000Y-137800000D03*
D21*
X144893975Y-105169025D03*
D20*
X142450000Y-124200000D03*
D21*
X157607000Y-106045000D03*
X163195000Y-124271003D03*
D20*
X152600000Y-139650000D03*
X135822878Y-136272464D03*
X148100000Y-125850000D03*
D21*
X159792474Y-121898151D03*
X131608100Y-136677000D03*
D20*
X152150000Y-127950000D03*
D21*
X155608100Y-142677000D03*
D20*
X153250000Y-133850000D03*
D21*
X148608100Y-137677000D03*
D20*
X143600000Y-133550000D03*
D21*
X148608100Y-141677000D03*
X132608100Y-135677000D03*
D20*
X140000000Y-126850000D03*
D21*
X155608100Y-137677000D03*
X139608100Y-134677000D03*
D20*
X145400000Y-125350000D03*
X142700000Y-129250000D03*
D21*
X156591000Y-108204000D03*
D20*
X153900000Y-138650000D03*
X134700000Y-138850000D03*
D21*
X138608100Y-135677000D03*
X150608100Y-136677000D03*
X140608100Y-134677000D03*
D20*
X143850000Y-139450000D03*
X139200000Y-132100000D03*
X145950000Y-131400000D03*
X148300000Y-125350000D03*
D21*
X147608100Y-142677000D03*
X129000000Y-125000000D03*
D20*
X148650000Y-125850000D03*
X136550000Y-135350000D03*
X133100000Y-139350000D03*
X152600000Y-138650000D03*
X134550000Y-139400000D03*
D21*
X157607000Y-105029000D03*
X156608100Y-137677000D03*
D20*
X151700000Y-135100000D03*
X144450000Y-125350000D03*
D21*
X136608100Y-142677000D03*
X141608100Y-134677000D03*
D20*
X153900000Y-140650000D03*
X143800000Y-139950000D03*
X135450000Y-134500000D03*
X141250000Y-129450000D03*
X150150000Y-130850000D03*
X145600000Y-132750000D03*
X143800000Y-132550000D03*
D21*
X154305000Y-106680000D03*
D20*
X145250000Y-122450000D03*
D21*
X168783000Y-109601000D03*
X147608100Y-132677000D03*
D20*
X136825376Y-132223839D03*
X151819175Y-136011548D03*
X133600000Y-137700000D03*
D21*
X138608100Y-143677000D03*
D20*
X152900000Y-130850000D03*
D21*
X141732000Y-122555000D03*
D20*
X135550000Y-136750000D03*
D21*
X150241000Y-118491000D03*
D20*
X143800000Y-125900000D03*
X142050000Y-124500000D03*
D21*
X169799000Y-110490000D03*
X145608100Y-142677000D03*
X168783000Y-112268000D03*
X148608100Y-134677000D03*
D20*
X137550000Y-131300000D03*
X144050000Y-131600000D03*
D21*
X140208000Y-120396000D03*
D20*
X154100000Y-137250000D03*
D21*
X151257000Y-103632000D03*
D20*
X144100000Y-127400000D03*
X139450000Y-128350000D03*
D21*
X156608100Y-142677000D03*
D20*
X149400000Y-132450000D03*
X152550000Y-138200000D03*
X143100000Y-135050000D03*
D21*
X135255000Y-101854000D03*
D20*
X147550000Y-130400000D03*
D21*
X142608100Y-130677000D03*
D20*
X150104327Y-131620771D03*
D21*
X147608100Y-137677000D03*
D20*
X142500000Y-138950000D03*
D21*
X139608100Y-137677000D03*
D20*
X145850000Y-131850000D03*
D21*
X138608100Y-141677000D03*
D20*
X144150000Y-129800000D03*
X137750000Y-134250000D03*
X134550000Y-135800000D03*
X143400000Y-123550000D03*
X151650000Y-134600000D03*
X155900000Y-127200000D03*
X151750000Y-126700000D03*
X143000000Y-135500000D03*
X142300000Y-138500000D03*
X140500000Y-130300000D03*
D21*
X170815000Y-112268000D03*
D20*
X152150000Y-136900000D03*
X142027146Y-129106776D03*
X153950000Y-138200000D03*
X143250000Y-134550000D03*
X136150000Y-133200000D03*
D21*
X140608100Y-142677000D03*
X139608100Y-135677000D03*
D20*
X133250000Y-138750000D03*
D21*
X147193000Y-118200000D03*
X169799000Y-111379000D03*
X168783000Y-111379000D03*
X141608100Y-132677000D03*
D20*
X153000000Y-131400000D03*
D21*
X141478000Y-98933000D03*
D20*
X135900000Y-133600000D03*
X149100000Y-130650000D03*
X138100000Y-130450000D03*
X145125527Y-134831526D03*
X148450000Y-127350000D03*
X148810437Y-130191969D03*
X153900000Y-139650000D03*
X150950000Y-123750000D03*
D21*
X156591000Y-106045000D03*
D20*
X154200000Y-137750000D03*
X145700000Y-136200000D03*
D21*
X171000000Y-119400000D03*
D20*
X144950000Y-126850000D03*
X139400000Y-127800000D03*
D21*
X151257000Y-118491000D03*
D20*
X150500000Y-130500000D03*
X143600000Y-126400000D03*
D21*
X147608100Y-133677000D03*
X147608100Y-134677000D03*
D20*
X144300000Y-129350000D03*
D21*
X138608100Y-137677000D03*
D20*
X137100000Y-135100000D03*
D21*
X131608100Y-142677000D03*
D20*
X142550000Y-137000000D03*
X144250000Y-131150000D03*
X144050000Y-123450000D03*
X145450000Y-124850000D03*
D21*
X141608100Y-133677000D03*
X138608100Y-144677000D03*
D20*
X135100000Y-134900000D03*
X150500000Y-133950000D03*
D21*
X168783000Y-113157000D03*
D20*
X142500000Y-137500000D03*
D21*
X150608100Y-142677000D03*
%TO.N,+5V_VFD*%
X164650000Y-114100000D03*
X161900000Y-106000000D03*
%TO.N,3V3*%
X163671084Y-107791084D03*
%TO.N,MCU_3V3_VFD*%
X144730901Y-118518405D03*
X154527993Y-115882999D03*
X147574000Y-112522000D03*
X143637000Y-111760000D03*
X138049000Y-113157000D03*
D20*
X149163070Y-128050000D03*
D21*
X146685001Y-108965999D03*
X138435375Y-116142855D03*
X142113000Y-111760000D03*
X154050000Y-121450000D03*
X138430000Y-117729000D03*
X150622000Y-108966000D03*
X155067000Y-115316000D03*
X148844000Y-109093000D03*
%TO.N,DCOUPL*%
X154178000Y-114427000D03*
%TO.N,MCU_VDDR*%
X145415000Y-121158000D03*
X145118119Y-119275086D03*
%TO.N,MEM_3V3_VFD*%
X158115000Y-124968000D03*
X159575000Y-116713000D03*
%TO.N,3V3_F*%
X146558000Y-105156000D03*
X154686000Y-110363000D03*
X154686000Y-111125000D03*
X154305000Y-100838000D03*
X136017000Y-105029000D03*
X152146000Y-106807000D03*
X152781000Y-101600000D03*
%TO.N,+12V*%
X172466000Y-142748000D03*
X128270000Y-142748000D03*
X127254000Y-97790000D03*
X168995000Y-134112000D03*
X171450000Y-96774000D03*
X128270000Y-140208000D03*
X125984000Y-96520000D03*
X169926000Y-140208000D03*
X166765000Y-131025000D03*
X127000000Y-140208000D03*
D22*
X164900000Y-131000000D03*
D21*
X167725000Y-135382000D03*
X168785000Y-131265000D03*
X128524000Y-97790000D03*
X172466000Y-141478000D03*
X169926000Y-142748000D03*
X167725000Y-134112000D03*
X170265000Y-134112000D03*
X127254000Y-95250000D03*
X127000000Y-142748000D03*
X170265000Y-135382000D03*
X171196000Y-140208000D03*
X171450000Y-98044000D03*
X125984000Y-97790000D03*
X170180000Y-95504000D03*
X125730000Y-141478000D03*
X125984000Y-95250000D03*
X128270000Y-141478000D03*
X171450000Y-95504000D03*
X172720000Y-98044000D03*
X171196000Y-141478000D03*
X167725000Y-136652000D03*
X170265000Y-136652000D03*
X168995000Y-136652000D03*
X128524000Y-95250000D03*
X171196000Y-142748000D03*
X127000000Y-141478000D03*
X170180000Y-98044000D03*
X168995000Y-135382000D03*
X128524000Y-96520000D03*
X170180000Y-96774000D03*
X125730000Y-142748000D03*
X127254000Y-96520000D03*
X125730000Y-140208000D03*
X172720000Y-96774000D03*
X172720000Y-95504000D03*
X172466000Y-140208000D03*
X169926000Y-141478000D03*
%TO.N,+12V_VFD*%
X160655000Y-129794000D03*
X161925000Y-131064000D03*
X161925000Y-129794000D03*
%TO.N,+5V*%
X166250000Y-116500000D03*
%TO.N,/MCU/UART3_TX*%
X140970000Y-117729000D03*
X143891000Y-117856000D03*
%TO.N,/MCU/UART3_RX*%
X140970000Y-116205000D03*
%TO.N,/MCU/UART4_RX*%
X142494000Y-114300000D03*
%TO.N,/MCU/UART4_TX*%
X144272000Y-114046000D03*
%TO.N,/MCU/UART2_TX*%
X147320000Y-110616000D03*
%TO.N,/MCU/UART2_RX*%
X148361182Y-110617000D03*
%TO.N,/MCU/UART1_RX*%
X152271425Y-110566575D03*
%TO.N,/MCU/UART1_TX*%
X150495000Y-110744000D03*
%TO.N,/MCU/I2C1_SDA*%
X141351000Y-114286062D03*
%TO.N,/MCU/I2C1_SCL*%
X139827000Y-114681000D03*
%TO.N,/MCU/I2C2_SCL*%
X155448000Y-117150252D03*
%TO.N,/MCU/I2C2_SDA*%
X155448000Y-116205000D03*
%TO.N,/MCU/RST_MEM*%
X157929636Y-116891353D03*
%TO.N,/MCU/WP_MEM*%
X156972000Y-121539000D03*
%TO.N,/MCU/PipeTemp*%
X141351000Y-106045000D03*
%TO.N,Net-(U201B-DCDC_SW)*%
X148322411Y-113284000D03*
%TO.N,Net-(U201A-DIO_5)*%
X152527000Y-122431716D03*
X156718000Y-126111000D03*
%TO.N,/MCU/AmbientTemp*%
X149800000Y-104600000D03*
%TO.N,/MCU/MISO*%
X157861000Y-121594801D03*
%TO.N,/MCU/SCLK*%
X157200923Y-116386579D03*
D22*
%TO.N,/MCU/SWO*%
X151612778Y-112729729D03*
%TO.N,/MCU/JTAG_TMS*%
X154686000Y-112776000D03*
%TO.N,/MCU/JTAG_TDI*%
X152317987Y-112700773D03*
%TO.N,/MCU/JTAG_TDO*%
X153075240Y-112750000D03*
D21*
%TO.N,/MCU/RESET*%
X147104000Y-113177455D03*
%TO.N,/MCU/CS_MEM*%
X158750000Y-121412000D03*
%TO.N,/MCU/MOSI*%
X156464000Y-116959472D03*
D22*
%TO.N,/MCU/JTAG_TCK*%
X153845380Y-112697380D03*
D20*
%TO.N,/MCU/RF_RX_TX*%
X150000000Y-122750000D03*
X147468474Y-128550000D03*
X143117062Y-127567062D03*
%TO.N,GND*%
X152000000Y-143900000D03*
X152500000Y-144100000D03*
X153100000Y-144200000D03*
X153700000Y-144100000D03*
X154200000Y-143900000D03*
X154600000Y-143500000D03*
X154900000Y-143000000D03*
X155000000Y-142400000D03*
X154900000Y-141800000D03*
X154600000Y-141300000D03*
X154300000Y-140900000D03*
X152100000Y-140800000D03*
X151700000Y-141200000D03*
X151400000Y-141700000D03*
X151300000Y-142200000D03*
X151300000Y-142700000D03*
X151400000Y-143200000D03*
X151600000Y-143600000D03*
X142200000Y-141000000D03*
X141900000Y-141400000D03*
X141700000Y-141900000D03*
X141700000Y-142400000D03*
X141800000Y-142900000D03*
X142000000Y-143300000D03*
X142300000Y-143700000D03*
X142700000Y-144000000D03*
X143200000Y-144200000D03*
X143700000Y-144200000D03*
X144200000Y-144100000D03*
X144700000Y-143800000D03*
X145100000Y-143400000D03*
X144300000Y-140600000D03*
X144700000Y-140900000D03*
X145100000Y-141300000D03*
X145300000Y-141700000D03*
X145400000Y-142200000D03*
X132500000Y-140800000D03*
X132200000Y-141200000D03*
X131900000Y-141700000D03*
X131800000Y-142200000D03*
X132000000Y-143100000D03*
X132200000Y-143500000D03*
X132500000Y-143800000D03*
X132900000Y-144000000D03*
X133400000Y-144200000D03*
X134000000Y-144200000D03*
X134500000Y-144000000D03*
X134900000Y-143700000D03*
X135200000Y-143300000D03*
X135400000Y-142800000D03*
X135500000Y-142300000D03*
X135400000Y-141800000D03*
X135200000Y-141300000D03*
X134800000Y-140900000D03*
%TD*%
%TA.AperFunction,Conductor*%
%TO.N,GND*%
G36*
X135840539Y-92221685D02*
G01*
X135886294Y-92274489D01*
X135897500Y-92326000D01*
X135897500Y-95934108D01*
X135897500Y-96065892D01*
X135905478Y-96095666D01*
X135931608Y-96193187D01*
X135950946Y-96226681D01*
X135997500Y-96307314D01*
X136090686Y-96400500D01*
X136204814Y-96466392D01*
X136332108Y-96500500D01*
X136332110Y-96500500D01*
X136717890Y-96500500D01*
X136717892Y-96500500D01*
X136845186Y-96466392D01*
X136959314Y-96400500D01*
X137052500Y-96307314D01*
X137118392Y-96193186D01*
X137152500Y-96065892D01*
X137152500Y-94641057D01*
X137172185Y-94574018D01*
X137224989Y-94528263D01*
X137294147Y-94518319D01*
X137349384Y-94540738D01*
X137468184Y-94627051D01*
X137657588Y-94723557D01*
X137719689Y-94743735D01*
X137777363Y-94783171D01*
X137804562Y-94847530D01*
X137792648Y-94916376D01*
X137779750Y-94937146D01*
X137775503Y-94942680D01*
X137709608Y-95056812D01*
X137691386Y-95124821D01*
X137675500Y-95184108D01*
X137675500Y-96077892D01*
X137684811Y-96112642D01*
X137709608Y-96205187D01*
X137722018Y-96226681D01*
X137775500Y-96319314D01*
X137868686Y-96412500D01*
X137982814Y-96478392D01*
X138110108Y-96512500D01*
X138110110Y-96512500D01*
X139003890Y-96512500D01*
X139003892Y-96512500D01*
X139131186Y-96478392D01*
X139245314Y-96412500D01*
X139338500Y-96319314D01*
X139404392Y-96205186D01*
X139438500Y-96077892D01*
X139438500Y-95184108D01*
X139404392Y-95056814D01*
X139338500Y-94942686D01*
X139245314Y-94849500D01*
X139131186Y-94783608D01*
X139044154Y-94760288D01*
X138984494Y-94723922D01*
X138953965Y-94661075D01*
X138962260Y-94591700D01*
X139003362Y-94540195D01*
X139055792Y-94502104D01*
X139206104Y-94351792D01*
X139206106Y-94351788D01*
X139206109Y-94351786D01*
X139331048Y-94179820D01*
X139331047Y-94179820D01*
X139331051Y-94179816D01*
X139335514Y-94171054D01*
X139383488Y-94120259D01*
X139451308Y-94103463D01*
X139517444Y-94125999D01*
X139556486Y-94171056D01*
X139560951Y-94179820D01*
X139685890Y-94351786D01*
X139836213Y-94502109D01*
X140008179Y-94627048D01*
X140008181Y-94627049D01*
X140008184Y-94627051D01*
X140197588Y-94723557D01*
X140259689Y-94743735D01*
X140317363Y-94783171D01*
X140344562Y-94847530D01*
X140332648Y-94916376D01*
X140319750Y-94937146D01*
X140315503Y-94942680D01*
X140249608Y-95056812D01*
X140231386Y-95124821D01*
X140215500Y-95184108D01*
X140215500Y-96077892D01*
X140224811Y-96112642D01*
X140249608Y-96205187D01*
X140262018Y-96226681D01*
X140315500Y-96319314D01*
X140408686Y-96412500D01*
X140522814Y-96478392D01*
X140650108Y-96512500D01*
X140650110Y-96512500D01*
X141543890Y-96512500D01*
X141543892Y-96512500D01*
X141671186Y-96478392D01*
X141785314Y-96412500D01*
X141878500Y-96319314D01*
X141944392Y-96205186D01*
X141978500Y-96077892D01*
X141978500Y-95184108D01*
X141944392Y-95056814D01*
X141878500Y-94942686D01*
X141785314Y-94849500D01*
X141671186Y-94783608D01*
X141584154Y-94760288D01*
X141524494Y-94723922D01*
X141493965Y-94661075D01*
X141502260Y-94591700D01*
X141543362Y-94540195D01*
X141595792Y-94502104D01*
X141746104Y-94351792D01*
X141746106Y-94351788D01*
X141746109Y-94351786D01*
X141871048Y-94179820D01*
X141871047Y-94179820D01*
X141871051Y-94179816D01*
X141875514Y-94171054D01*
X141923488Y-94120259D01*
X141991308Y-94103463D01*
X142057444Y-94125999D01*
X142096486Y-94171056D01*
X142100951Y-94179820D01*
X142225890Y-94351786D01*
X142376213Y-94502109D01*
X142548179Y-94627048D01*
X142548181Y-94627049D01*
X142548184Y-94627051D01*
X142737588Y-94723557D01*
X142799689Y-94743735D01*
X142857363Y-94783171D01*
X142884562Y-94847530D01*
X142872648Y-94916376D01*
X142859750Y-94937146D01*
X142855503Y-94942680D01*
X142789608Y-95056812D01*
X142771386Y-95124821D01*
X142755500Y-95184108D01*
X142755500Y-96077892D01*
X142764811Y-96112642D01*
X142789608Y-96205187D01*
X142802018Y-96226681D01*
X142855500Y-96319314D01*
X142948686Y-96412500D01*
X143062814Y-96478392D01*
X143190108Y-96512500D01*
X143190110Y-96512500D01*
X144083890Y-96512500D01*
X144083892Y-96512500D01*
X144211186Y-96478392D01*
X144325314Y-96412500D01*
X144418500Y-96319314D01*
X144484392Y-96205186D01*
X144518500Y-96077892D01*
X144518500Y-95184108D01*
X144484392Y-95056814D01*
X144418500Y-94942686D01*
X144325314Y-94849500D01*
X144211186Y-94783608D01*
X144124154Y-94760288D01*
X144064494Y-94723922D01*
X144033965Y-94661075D01*
X144042260Y-94591700D01*
X144083362Y-94540195D01*
X144135792Y-94502104D01*
X144286104Y-94351792D01*
X144286106Y-94351788D01*
X144286109Y-94351786D01*
X144411048Y-94179820D01*
X144411047Y-94179820D01*
X144411051Y-94179816D01*
X144415514Y-94171054D01*
X144463488Y-94120259D01*
X144531308Y-94103463D01*
X144597444Y-94125999D01*
X144636486Y-94171056D01*
X144640951Y-94179820D01*
X144765890Y-94351786D01*
X144916213Y-94502109D01*
X145088179Y-94627048D01*
X145088181Y-94627049D01*
X145088184Y-94627051D01*
X145277588Y-94723557D01*
X145339689Y-94743735D01*
X145397363Y-94783171D01*
X145424562Y-94847530D01*
X145412648Y-94916376D01*
X145399750Y-94937146D01*
X145395503Y-94942680D01*
X145329608Y-95056812D01*
X145311386Y-95124821D01*
X145295500Y-95184108D01*
X145295500Y-96077892D01*
X145304811Y-96112642D01*
X145329608Y-96205187D01*
X145342018Y-96226681D01*
X145395500Y-96319314D01*
X145488686Y-96412500D01*
X145602814Y-96478392D01*
X145730108Y-96512500D01*
X145730110Y-96512500D01*
X146623890Y-96512500D01*
X146623892Y-96512500D01*
X146751186Y-96478392D01*
X146865314Y-96412500D01*
X146958500Y-96319314D01*
X147024392Y-96205186D01*
X147058500Y-96077892D01*
X147058500Y-95184108D01*
X147024392Y-95056814D01*
X146958500Y-94942686D01*
X146865314Y-94849500D01*
X146751186Y-94783608D01*
X146664154Y-94760288D01*
X146604494Y-94723922D01*
X146573965Y-94661075D01*
X146582260Y-94591700D01*
X146623362Y-94540195D01*
X146675792Y-94502104D01*
X146826104Y-94351792D01*
X146826106Y-94351788D01*
X146826109Y-94351786D01*
X146951048Y-94179820D01*
X146951047Y-94179820D01*
X146951051Y-94179816D01*
X146955514Y-94171054D01*
X147003488Y-94120259D01*
X147071308Y-94103463D01*
X147137444Y-94125999D01*
X147176486Y-94171056D01*
X147180951Y-94179820D01*
X147305890Y-94351786D01*
X147456213Y-94502109D01*
X147628179Y-94627048D01*
X147628181Y-94627049D01*
X147628184Y-94627051D01*
X147817588Y-94723557D01*
X147879689Y-94743735D01*
X147937363Y-94783171D01*
X147964562Y-94847530D01*
X147952648Y-94916376D01*
X147939750Y-94937146D01*
X147935503Y-94942680D01*
X147869608Y-95056812D01*
X147851386Y-95124821D01*
X147835500Y-95184108D01*
X147835500Y-96077892D01*
X147844811Y-96112642D01*
X147869608Y-96205187D01*
X147882018Y-96226681D01*
X147935500Y-96319314D01*
X148028686Y-96412500D01*
X148142814Y-96478392D01*
X148270108Y-96512500D01*
X148270110Y-96512500D01*
X149163890Y-96512500D01*
X149163892Y-96512500D01*
X149291186Y-96478392D01*
X149405314Y-96412500D01*
X149498500Y-96319314D01*
X149564392Y-96205186D01*
X149598500Y-96077892D01*
X149598500Y-95184108D01*
X149564392Y-95056814D01*
X149498500Y-94942686D01*
X149405314Y-94849500D01*
X149291186Y-94783608D01*
X149204154Y-94760288D01*
X149196415Y-94755570D01*
X149187415Y-94754493D01*
X149167045Y-94737668D01*
X149144494Y-94723922D01*
X149140534Y-94715771D01*
X149133545Y-94709998D01*
X149125505Y-94684832D01*
X149113965Y-94661075D01*
X149115041Y-94652075D01*
X149112283Y-94643442D01*
X149119123Y-94617928D01*
X149122260Y-94591700D01*
X149128509Y-94582925D01*
X149130378Y-94575956D01*
X149143962Y-94561228D01*
X149152854Y-94548744D01*
X149157865Y-94544189D01*
X149215792Y-94502104D01*
X149331443Y-94386452D01*
X149333613Y-94384481D01*
X149362483Y-94370463D01*
X149390648Y-94355084D01*
X149393706Y-94355302D01*
X149396466Y-94353963D01*
X149428337Y-94357779D01*
X149460340Y-94360068D01*
X149462794Y-94361905D01*
X149465840Y-94362270D01*
X149490586Y-94382710D01*
X149516274Y-94401939D01*
X149518251Y-94405560D01*
X149519710Y-94406765D01*
X149520839Y-94410299D01*
X149533189Y-94432917D01*
X149582202Y-94564328D01*
X149582206Y-94564335D01*
X149668452Y-94679544D01*
X149668455Y-94679547D01*
X149783664Y-94765793D01*
X149783671Y-94765797D01*
X149828618Y-94782561D01*
X149918517Y-94816091D01*
X149978127Y-94822500D01*
X150228516Y-94822499D01*
X150295554Y-94842183D01*
X150341309Y-94894987D01*
X150351253Y-94964146D01*
X150335902Y-95008499D01*
X150308009Y-95056810D01*
X150308009Y-95056811D01*
X150308009Y-95056812D01*
X150308008Y-95056814D01*
X150273900Y-95184108D01*
X150273900Y-96077892D01*
X150283211Y-96112642D01*
X150308008Y-96205187D01*
X150320418Y-96226681D01*
X150373900Y-96319314D01*
X150467086Y-96412500D01*
X150581214Y-96478392D01*
X150708508Y-96512500D01*
X150708510Y-96512500D01*
X151602290Y-96512500D01*
X151602292Y-96512500D01*
X151729586Y-96478392D01*
X151843714Y-96412500D01*
X151886519Y-96369695D01*
X151947842Y-96336210D01*
X152017534Y-96341194D01*
X152061881Y-96369695D01*
X152092686Y-96400500D01*
X152206814Y-96466392D01*
X152334108Y-96500500D01*
X152334110Y-96500500D01*
X152719890Y-96500500D01*
X152719892Y-96500500D01*
X152847186Y-96466392D01*
X152961314Y-96400500D01*
X153054500Y-96307314D01*
X153120392Y-96193186D01*
X153154500Y-96065892D01*
X153154500Y-95425153D01*
X169379500Y-95425153D01*
X169379500Y-95582846D01*
X169410261Y-95737489D01*
X169410264Y-95737501D01*
X169470602Y-95883172D01*
X169470609Y-95883185D01*
X169558210Y-96014288D01*
X169558213Y-96014292D01*
X169595240Y-96051319D01*
X169628725Y-96112642D01*
X169623741Y-96182334D01*
X169595240Y-96226681D01*
X169558213Y-96263707D01*
X169558210Y-96263711D01*
X169470609Y-96394814D01*
X169470602Y-96394827D01*
X169410264Y-96540498D01*
X169410261Y-96540510D01*
X169379500Y-96695153D01*
X169379500Y-96852846D01*
X169410261Y-97007489D01*
X169410264Y-97007501D01*
X169470602Y-97153172D01*
X169470609Y-97153185D01*
X169558210Y-97284288D01*
X169558213Y-97284292D01*
X169595240Y-97321319D01*
X169628725Y-97382642D01*
X169623741Y-97452334D01*
X169595240Y-97496681D01*
X169558213Y-97533707D01*
X169558210Y-97533711D01*
X169470609Y-97664814D01*
X169470602Y-97664827D01*
X169410264Y-97810498D01*
X169410261Y-97810510D01*
X169379500Y-97965153D01*
X169379500Y-98122846D01*
X169410261Y-98277489D01*
X169410264Y-98277501D01*
X169470602Y-98423172D01*
X169470609Y-98423185D01*
X169558210Y-98554288D01*
X169558213Y-98554292D01*
X169669707Y-98665786D01*
X169669711Y-98665789D01*
X169800814Y-98753390D01*
X169800827Y-98753397D01*
X169946498Y-98813735D01*
X169946503Y-98813737D01*
X170101153Y-98844499D01*
X170101156Y-98844500D01*
X170101158Y-98844500D01*
X170258844Y-98844500D01*
X170258845Y-98844499D01*
X170413497Y-98813737D01*
X170559179Y-98753394D01*
X170690289Y-98665789D01*
X170690292Y-98665786D01*
X170727319Y-98628760D01*
X170788642Y-98595275D01*
X170858334Y-98600259D01*
X170902681Y-98628760D01*
X170939707Y-98665786D01*
X170939711Y-98665789D01*
X171070814Y-98753390D01*
X171070827Y-98753397D01*
X171216498Y-98813735D01*
X171216503Y-98813737D01*
X171371153Y-98844499D01*
X171371156Y-98844500D01*
X171371158Y-98844500D01*
X171528844Y-98844500D01*
X171528845Y-98844499D01*
X171683497Y-98813737D01*
X171829179Y-98753394D01*
X171960289Y-98665789D01*
X171960292Y-98665786D01*
X171997319Y-98628760D01*
X172058642Y-98595275D01*
X172128334Y-98600259D01*
X172172681Y-98628760D01*
X172209707Y-98665786D01*
X172209711Y-98665789D01*
X172340814Y-98753390D01*
X172340827Y-98753397D01*
X172486498Y-98813735D01*
X172486503Y-98813737D01*
X172641153Y-98844499D01*
X172641156Y-98844500D01*
X172641158Y-98844500D01*
X172798844Y-98844500D01*
X172798845Y-98844499D01*
X172953497Y-98813737D01*
X173099179Y-98753394D01*
X173230289Y-98665789D01*
X173341789Y-98554289D01*
X173429394Y-98423179D01*
X173489737Y-98277497D01*
X173520500Y-98122842D01*
X173520500Y-97965158D01*
X173520500Y-97965155D01*
X173520499Y-97965153D01*
X173513292Y-97928920D01*
X173489737Y-97810503D01*
X173482830Y-97793828D01*
X173429397Y-97664827D01*
X173429390Y-97664814D01*
X173341789Y-97533711D01*
X173341786Y-97533707D01*
X173304760Y-97496681D01*
X173271275Y-97435358D01*
X173276259Y-97365666D01*
X173304760Y-97321319D01*
X173341786Y-97284292D01*
X173341789Y-97284289D01*
X173429394Y-97153179D01*
X173439558Y-97128642D01*
X173480296Y-97030289D01*
X173489737Y-97007497D01*
X173520500Y-96852842D01*
X173520500Y-96695158D01*
X173520500Y-96695155D01*
X173520499Y-96695153D01*
X173489738Y-96540510D01*
X173489737Y-96540503D01*
X173478138Y-96512500D01*
X173429397Y-96394827D01*
X173429390Y-96394814D01*
X173341789Y-96263711D01*
X173341786Y-96263707D01*
X173304760Y-96226681D01*
X173271275Y-96165358D01*
X173276259Y-96095666D01*
X173304760Y-96051319D01*
X173341786Y-96014292D01*
X173341789Y-96014289D01*
X173429394Y-95883179D01*
X173439558Y-95858642D01*
X173480296Y-95760289D01*
X173489737Y-95737497D01*
X173520500Y-95582842D01*
X173520500Y-95425158D01*
X173520500Y-95425155D01*
X173520499Y-95425153D01*
X173489738Y-95270510D01*
X173489737Y-95270503D01*
X173453952Y-95184110D01*
X173429397Y-95124827D01*
X173429390Y-95124814D01*
X173341789Y-94993711D01*
X173341786Y-94993707D01*
X173230292Y-94882213D01*
X173230288Y-94882210D01*
X173099185Y-94794609D01*
X173099172Y-94794602D01*
X172953501Y-94734264D01*
X172953489Y-94734261D01*
X172798845Y-94703500D01*
X172798842Y-94703500D01*
X172641158Y-94703500D01*
X172641155Y-94703500D01*
X172486510Y-94734261D01*
X172486498Y-94734264D01*
X172340827Y-94794602D01*
X172340814Y-94794609D01*
X172209711Y-94882210D01*
X172209707Y-94882213D01*
X172172681Y-94919240D01*
X172111358Y-94952725D01*
X172041666Y-94947741D01*
X171997319Y-94919240D01*
X171960292Y-94882213D01*
X171960288Y-94882210D01*
X171829185Y-94794609D01*
X171829172Y-94794602D01*
X171683501Y-94734264D01*
X171683489Y-94734261D01*
X171528845Y-94703500D01*
X171528842Y-94703500D01*
X171371158Y-94703500D01*
X171371155Y-94703500D01*
X171216510Y-94734261D01*
X171216498Y-94734264D01*
X171070827Y-94794602D01*
X171070814Y-94794609D01*
X170939711Y-94882210D01*
X170939707Y-94882213D01*
X170902681Y-94919240D01*
X170841358Y-94952725D01*
X170771666Y-94947741D01*
X170727319Y-94919240D01*
X170690292Y-94882213D01*
X170690288Y-94882210D01*
X170559185Y-94794609D01*
X170559172Y-94794602D01*
X170413501Y-94734264D01*
X170413489Y-94734261D01*
X170258845Y-94703500D01*
X170258842Y-94703500D01*
X170101158Y-94703500D01*
X170101155Y-94703500D01*
X169946510Y-94734261D01*
X169946498Y-94734264D01*
X169800827Y-94794602D01*
X169800814Y-94794609D01*
X169669711Y-94882210D01*
X169669707Y-94882213D01*
X169558213Y-94993707D01*
X169558210Y-94993711D01*
X169470609Y-95124814D01*
X169470602Y-95124827D01*
X169410264Y-95270498D01*
X169410261Y-95270510D01*
X169379500Y-95425153D01*
X153154500Y-95425153D01*
X153154500Y-92326000D01*
X153174185Y-92258961D01*
X153226989Y-92213206D01*
X153278500Y-92202000D01*
X180216000Y-92202000D01*
X180283039Y-92221685D01*
X180328794Y-92274489D01*
X180340000Y-92326000D01*
X180340000Y-146688000D01*
X180337449Y-146696685D01*
X180338738Y-146705647D01*
X180327759Y-146729687D01*
X180320315Y-146755039D01*
X180313474Y-146760966D01*
X180309713Y-146769203D01*
X180287478Y-146783492D01*
X180267511Y-146800794D01*
X180256996Y-146803081D01*
X180250935Y-146806977D01*
X180216000Y-146812000D01*
X180101756Y-146812000D01*
X180034717Y-146792315D01*
X179988962Y-146739511D01*
X179978817Y-146704186D01*
X179966270Y-146608884D01*
X179898398Y-146355581D01*
X179800204Y-146118520D01*
X179798046Y-146113309D01*
X179798041Y-146113299D01*
X179666924Y-145886196D01*
X179507281Y-145678148D01*
X179507274Y-145678140D01*
X179321860Y-145492726D01*
X179321851Y-145492718D01*
X179113803Y-145333075D01*
X178886700Y-145201958D01*
X178886690Y-145201953D01*
X178644428Y-145101605D01*
X178644421Y-145101603D01*
X178644419Y-145101602D01*
X178391116Y-145033730D01*
X178333339Y-145026123D01*
X178131127Y-144999500D01*
X178131120Y-144999500D01*
X177868880Y-144999500D01*
X177868872Y-144999500D01*
X177637772Y-145029926D01*
X177608884Y-145033730D01*
X177355581Y-145101602D01*
X177355571Y-145101605D01*
X177113309Y-145201953D01*
X177113299Y-145201958D01*
X176886196Y-145333075D01*
X176678148Y-145492718D01*
X176492718Y-145678148D01*
X176333075Y-145886196D01*
X176201958Y-146113299D01*
X176201953Y-146113309D01*
X176101605Y-146355571D01*
X176101602Y-146355581D01*
X176033730Y-146608884D01*
X176022171Y-146696685D01*
X176021183Y-146704186D01*
X175992916Y-146768082D01*
X175934592Y-146806553D01*
X175898244Y-146812000D01*
X123301756Y-146812000D01*
X123234717Y-146792315D01*
X123188962Y-146739511D01*
X123178817Y-146704186D01*
X123166270Y-146608884D01*
X123098398Y-146355581D01*
X123000204Y-146118520D01*
X122998046Y-146113309D01*
X122998041Y-146113299D01*
X122866924Y-145886196D01*
X122707281Y-145678148D01*
X122707274Y-145678140D01*
X122521860Y-145492726D01*
X122521851Y-145492718D01*
X122313803Y-145333075D01*
X122086700Y-145201958D01*
X122086690Y-145201953D01*
X121844428Y-145101605D01*
X121844421Y-145101603D01*
X121844419Y-145101602D01*
X121591116Y-145033730D01*
X121533339Y-145026123D01*
X121331127Y-144999500D01*
X121331120Y-144999500D01*
X121068880Y-144999500D01*
X121068872Y-144999500D01*
X120837772Y-145029926D01*
X120808884Y-145033730D01*
X120555581Y-145101602D01*
X120555571Y-145101605D01*
X120313309Y-145201953D01*
X120313299Y-145201958D01*
X120086196Y-145333075D01*
X119878148Y-145492718D01*
X119692718Y-145678148D01*
X119533075Y-145886196D01*
X119401958Y-146113299D01*
X119401953Y-146113309D01*
X119301605Y-146355571D01*
X119301602Y-146355581D01*
X119233730Y-146608884D01*
X119222171Y-146696685D01*
X119221183Y-146704186D01*
X119192916Y-146768082D01*
X119134592Y-146806553D01*
X119098244Y-146812000D01*
X118734500Y-146812000D01*
X118667461Y-146792315D01*
X118621706Y-146739511D01*
X118610500Y-146688000D01*
X118610500Y-140129153D01*
X124929500Y-140129153D01*
X124929500Y-140286846D01*
X124960261Y-140441489D01*
X124960264Y-140441501D01*
X125020602Y-140587172D01*
X125020609Y-140587185D01*
X125108210Y-140718288D01*
X125108213Y-140718292D01*
X125145240Y-140755319D01*
X125178725Y-140816642D01*
X125173741Y-140886334D01*
X125145240Y-140930681D01*
X125108213Y-140967707D01*
X125108210Y-140967711D01*
X125020609Y-141098814D01*
X125020602Y-141098827D01*
X124960264Y-141244498D01*
X124960261Y-141244510D01*
X124929500Y-141399153D01*
X124929500Y-141556846D01*
X124960261Y-141711489D01*
X124960264Y-141711501D01*
X125020602Y-141857172D01*
X125020609Y-141857185D01*
X125108210Y-141988288D01*
X125108213Y-141988292D01*
X125145240Y-142025319D01*
X125178725Y-142086642D01*
X125173741Y-142156334D01*
X125145240Y-142200681D01*
X125108213Y-142237707D01*
X125108210Y-142237711D01*
X125020609Y-142368814D01*
X125020602Y-142368827D01*
X124960264Y-142514498D01*
X124960261Y-142514510D01*
X124929500Y-142669153D01*
X124929500Y-142826846D01*
X124960261Y-142981489D01*
X124960264Y-142981501D01*
X125020602Y-143127172D01*
X125020609Y-143127185D01*
X125108210Y-143258288D01*
X125108213Y-143258292D01*
X125219707Y-143369786D01*
X125219711Y-143369789D01*
X125350814Y-143457390D01*
X125350827Y-143457397D01*
X125445642Y-143496670D01*
X125496503Y-143517737D01*
X125651153Y-143548499D01*
X125651156Y-143548500D01*
X125651158Y-143548500D01*
X125808844Y-143548500D01*
X125808845Y-143548499D01*
X125963497Y-143517737D01*
X126109179Y-143457394D01*
X126240289Y-143369789D01*
X126240292Y-143369786D01*
X126277319Y-143332760D01*
X126338642Y-143299275D01*
X126408334Y-143304259D01*
X126452681Y-143332760D01*
X126489707Y-143369786D01*
X126489711Y-143369789D01*
X126620814Y-143457390D01*
X126620827Y-143457397D01*
X126715642Y-143496670D01*
X126766503Y-143517737D01*
X126921153Y-143548499D01*
X126921156Y-143548500D01*
X126921158Y-143548500D01*
X127078844Y-143548500D01*
X127078845Y-143548499D01*
X127233497Y-143517737D01*
X127379179Y-143457394D01*
X127510289Y-143369789D01*
X127510292Y-143369786D01*
X127547319Y-143332760D01*
X127608642Y-143299275D01*
X127678334Y-143304259D01*
X127722681Y-143332760D01*
X127759707Y-143369786D01*
X127759711Y-143369789D01*
X127890814Y-143457390D01*
X127890827Y-143457397D01*
X127985642Y-143496670D01*
X128036503Y-143517737D01*
X128191153Y-143548499D01*
X128191156Y-143548500D01*
X128191158Y-143548500D01*
X128348844Y-143548500D01*
X128348845Y-143548499D01*
X128503497Y-143517737D01*
X128649179Y-143457394D01*
X128780289Y-143369789D01*
X128891789Y-143258289D01*
X128979394Y-143127179D01*
X129039737Y-142981497D01*
X129070500Y-142826842D01*
X129070500Y-142669158D01*
X129070500Y-142669155D01*
X129070499Y-142669153D01*
X129039738Y-142514510D01*
X129039737Y-142514503D01*
X129014977Y-142454727D01*
X128979397Y-142368827D01*
X128979395Y-142368823D01*
X128979394Y-142368821D01*
X128891789Y-142237711D01*
X128879336Y-142225258D01*
X131909500Y-142225258D01*
X131909500Y-142454741D01*
X131934446Y-142644215D01*
X131939452Y-142682238D01*
X131942982Y-142695411D01*
X131998842Y-142903887D01*
X132086650Y-143115876D01*
X132086657Y-143115890D01*
X132201392Y-143314617D01*
X132341081Y-143496661D01*
X132341089Y-143496670D01*
X132503330Y-143658911D01*
X132503338Y-143658918D01*
X132503339Y-143658919D01*
X132520504Y-143672090D01*
X132685382Y-143798607D01*
X132685385Y-143798608D01*
X132685388Y-143798611D01*
X132884112Y-143913344D01*
X132884117Y-143913346D01*
X132884123Y-143913349D01*
X132975480Y-143951190D01*
X133096113Y-144001158D01*
X133317762Y-144060548D01*
X133545266Y-144090500D01*
X133545273Y-144090500D01*
X133774727Y-144090500D01*
X133774734Y-144090500D01*
X134002238Y-144060548D01*
X134223887Y-144001158D01*
X134435888Y-143913344D01*
X134634612Y-143798611D01*
X134816661Y-143658919D01*
X134816665Y-143658914D01*
X134816670Y-143658911D01*
X134978911Y-143496670D01*
X134978914Y-143496665D01*
X134978919Y-143496661D01*
X135118611Y-143314612D01*
X135233344Y-143115888D01*
X135321158Y-142903887D01*
X135380548Y-142682238D01*
X135410500Y-142454734D01*
X135410500Y-142225266D01*
X135410499Y-142225258D01*
X141789500Y-142225258D01*
X141789500Y-142454741D01*
X141814446Y-142644215D01*
X141819452Y-142682238D01*
X141822982Y-142695411D01*
X141878842Y-142903887D01*
X141966650Y-143115876D01*
X141966657Y-143115890D01*
X142081392Y-143314617D01*
X142221081Y-143496661D01*
X142221089Y-143496670D01*
X142383330Y-143658911D01*
X142383338Y-143658918D01*
X142383339Y-143658919D01*
X142400504Y-143672090D01*
X142565382Y-143798607D01*
X142565385Y-143798608D01*
X142565388Y-143798611D01*
X142764112Y-143913344D01*
X142764117Y-143913346D01*
X142764123Y-143913349D01*
X142855480Y-143951190D01*
X142976113Y-144001158D01*
X143197762Y-144060548D01*
X143425266Y-144090500D01*
X143425273Y-144090500D01*
X143654727Y-144090500D01*
X143654734Y-144090500D01*
X143882238Y-144060548D01*
X144103887Y-144001158D01*
X144315888Y-143913344D01*
X144514612Y-143798611D01*
X144696661Y-143658919D01*
X144696665Y-143658914D01*
X144696670Y-143658911D01*
X144858911Y-143496670D01*
X144858914Y-143496665D01*
X144858919Y-143496661D01*
X144998611Y-143314612D01*
X145113344Y-143115888D01*
X145201158Y-142903887D01*
X145260548Y-142682238D01*
X145290500Y-142454734D01*
X145290500Y-142238429D01*
X151386756Y-142238429D01*
X151386756Y-142467912D01*
X151411702Y-142657386D01*
X151416708Y-142695409D01*
X151416709Y-142695411D01*
X151476098Y-142917058D01*
X151563906Y-143129047D01*
X151563912Y-143129059D01*
X151665063Y-143304259D01*
X151678648Y-143327788D01*
X151818337Y-143509832D01*
X151818345Y-143509841D01*
X151980586Y-143672082D01*
X151980594Y-143672089D01*
X152162638Y-143811778D01*
X152162641Y-143811779D01*
X152162644Y-143811782D01*
X152361368Y-143926515D01*
X152361373Y-143926517D01*
X152361379Y-143926520D01*
X152452736Y-143964361D01*
X152573369Y-144014329D01*
X152795018Y-144073719D01*
X153022522Y-144103671D01*
X153022529Y-144103671D01*
X153251983Y-144103671D01*
X153251990Y-144103671D01*
X153479494Y-144073719D01*
X153701143Y-144014329D01*
X153913144Y-143926515D01*
X154111868Y-143811782D01*
X154293917Y-143672090D01*
X154293921Y-143672085D01*
X154293926Y-143672082D01*
X154456167Y-143509841D01*
X154456170Y-143509836D01*
X154456175Y-143509832D01*
X154595867Y-143327783D01*
X154710600Y-143129059D01*
X154798414Y-142917058D01*
X154857804Y-142695409D01*
X154887756Y-142467905D01*
X154887756Y-142238437D01*
X154857804Y-142010933D01*
X154798414Y-141789284D01*
X154710600Y-141577283D01*
X154665972Y-141499984D01*
X158899500Y-141499984D01*
X158899500Y-143900015D01*
X158910000Y-144002795D01*
X158910001Y-144002797D01*
X158929137Y-144060546D01*
X158965186Y-144169335D01*
X158965187Y-144169337D01*
X159057286Y-144318651D01*
X159057289Y-144318655D01*
X159181344Y-144442710D01*
X159181348Y-144442713D01*
X159330662Y-144534812D01*
X159330664Y-144534813D01*
X159330666Y-144534814D01*
X159497203Y-144589999D01*
X159599992Y-144600500D01*
X159599997Y-144600500D01*
X162000003Y-144600500D01*
X162000008Y-144600500D01*
X162102797Y-144589999D01*
X162269334Y-144534814D01*
X162418655Y-144442711D01*
X162542711Y-144318655D01*
X162634814Y-144169334D01*
X162689999Y-144002797D01*
X162700500Y-143900008D01*
X162700500Y-141499992D01*
X162689999Y-141397203D01*
X162634814Y-141230666D01*
X162613746Y-141196510D01*
X162542713Y-141081348D01*
X162542710Y-141081344D01*
X162418655Y-140957289D01*
X162418651Y-140957286D01*
X162269337Y-140865187D01*
X162269335Y-140865186D01*
X162162513Y-140829789D01*
X162102797Y-140810001D01*
X162102795Y-140810000D01*
X162000015Y-140799500D01*
X162000008Y-140799500D01*
X159599992Y-140799500D01*
X159599984Y-140799500D01*
X159497204Y-140810000D01*
X159497203Y-140810001D01*
X159330664Y-140865186D01*
X159330662Y-140865187D01*
X159181348Y-140957286D01*
X159181344Y-140957289D01*
X159057289Y-141081344D01*
X159057286Y-141081348D01*
X158965187Y-141230662D01*
X158965186Y-141230664D01*
X158910001Y-141397203D01*
X158910000Y-141397204D01*
X158899500Y-141499984D01*
X154665972Y-141499984D01*
X154595867Y-141378559D01*
X154595864Y-141378556D01*
X154595863Y-141378553D01*
X154456174Y-141196509D01*
X154456167Y-141196501D01*
X154293926Y-141034260D01*
X154293917Y-141034252D01*
X154111873Y-140894563D01*
X153913146Y-140779828D01*
X153913132Y-140779821D01*
X153701143Y-140692013D01*
X153479494Y-140632623D01*
X153441471Y-140627617D01*
X153251997Y-140602671D01*
X153251990Y-140602671D01*
X153022522Y-140602671D01*
X153022514Y-140602671D01*
X152805971Y-140631180D01*
X152795018Y-140632623D01*
X152701332Y-140657725D01*
X152573368Y-140692013D01*
X152361379Y-140779821D01*
X152361365Y-140779828D01*
X152162638Y-140894563D01*
X151980594Y-141034252D01*
X151818337Y-141196509D01*
X151678648Y-141378553D01*
X151563913Y-141577280D01*
X151563906Y-141577294D01*
X151476098Y-141789283D01*
X151476098Y-141789284D01*
X151422776Y-141988289D01*
X151416709Y-142010930D01*
X151416707Y-142010941D01*
X151386756Y-142238429D01*
X145290500Y-142238429D01*
X145290500Y-142225266D01*
X145260548Y-141997762D01*
X145201158Y-141776113D01*
X145151190Y-141655480D01*
X145113349Y-141564123D01*
X145113346Y-141564117D01*
X145113344Y-141564112D01*
X144998611Y-141365388D01*
X144998608Y-141365385D01*
X144998607Y-141365382D01*
X144895231Y-141230662D01*
X144858919Y-141183339D01*
X144858918Y-141183338D01*
X144858911Y-141183330D01*
X144696670Y-141021089D01*
X144696661Y-141021081D01*
X144514617Y-140881392D01*
X144493773Y-140869358D01*
X144315888Y-140766656D01*
X144315876Y-140766650D01*
X144103887Y-140678842D01*
X143882238Y-140619452D01*
X143844215Y-140614446D01*
X143654741Y-140589500D01*
X143654734Y-140589500D01*
X143425266Y-140589500D01*
X143425258Y-140589500D01*
X143208715Y-140618009D01*
X143197762Y-140619452D01*
X143148607Y-140632623D01*
X142976112Y-140678842D01*
X142764123Y-140766650D01*
X142764109Y-140766657D01*
X142565382Y-140881392D01*
X142383338Y-141021081D01*
X142221081Y-141183338D01*
X142081392Y-141365382D01*
X141966657Y-141564109D01*
X141966650Y-141564123D01*
X141878842Y-141776112D01*
X141857121Y-141857179D01*
X141821990Y-141988292D01*
X141819453Y-141997759D01*
X141819451Y-141997770D01*
X141789500Y-142225258D01*
X135410499Y-142225258D01*
X135380548Y-141997762D01*
X135321158Y-141776113D01*
X135271190Y-141655480D01*
X135233349Y-141564123D01*
X135233346Y-141564117D01*
X135233344Y-141564112D01*
X135118611Y-141365388D01*
X135118608Y-141365385D01*
X135118607Y-141365382D01*
X135015231Y-141230662D01*
X134978919Y-141183339D01*
X134978918Y-141183338D01*
X134978911Y-141183330D01*
X134816670Y-141021089D01*
X134816661Y-141021081D01*
X134634617Y-140881392D01*
X134613773Y-140869358D01*
X134435888Y-140766656D01*
X134435876Y-140766650D01*
X134223887Y-140678842D01*
X134002238Y-140619452D01*
X133964215Y-140614446D01*
X133774741Y-140589500D01*
X133774734Y-140589500D01*
X133545266Y-140589500D01*
X133545258Y-140589500D01*
X133328715Y-140618009D01*
X133317762Y-140619452D01*
X133268607Y-140632623D01*
X133096112Y-140678842D01*
X132884123Y-140766650D01*
X132884109Y-140766657D01*
X132685382Y-140881392D01*
X132503338Y-141021081D01*
X132341081Y-141183338D01*
X132201392Y-141365382D01*
X132086657Y-141564109D01*
X132086650Y-141564123D01*
X131998842Y-141776112D01*
X131977121Y-141857179D01*
X131941990Y-141988292D01*
X131939453Y-141997759D01*
X131939451Y-141997770D01*
X131909500Y-142225258D01*
X128879336Y-142225258D01*
X128850126Y-142196048D01*
X128846001Y-142190944D01*
X128835002Y-142164497D01*
X128821275Y-142139358D01*
X128821755Y-142132644D01*
X128819171Y-142126431D01*
X128824215Y-142098239D01*
X128826259Y-142069666D01*
X128830512Y-142063046D01*
X128831478Y-142057654D01*
X128839604Y-142048899D01*
X128854760Y-142025319D01*
X128891786Y-141988292D01*
X128891789Y-141988289D01*
X128979394Y-141857179D01*
X129039737Y-141711497D01*
X129070500Y-141556842D01*
X129070500Y-141399158D01*
X129070500Y-141399155D01*
X129070499Y-141399153D01*
X129039738Y-141244510D01*
X129039737Y-141244503D01*
X129019858Y-141196510D01*
X128979397Y-141098827D01*
X128979390Y-141098814D01*
X128891789Y-140967711D01*
X128891786Y-140967707D01*
X128854760Y-140930681D01*
X128821275Y-140869358D01*
X128826259Y-140799666D01*
X128854760Y-140755319D01*
X128891786Y-140718292D01*
X128891789Y-140718289D01*
X128979394Y-140587179D01*
X129039737Y-140441497D01*
X129070500Y-140286842D01*
X129070500Y-140129158D01*
X129070500Y-140129155D01*
X129070499Y-140129153D01*
X169125500Y-140129153D01*
X169125500Y-140286846D01*
X169156261Y-140441489D01*
X169156264Y-140441501D01*
X169216602Y-140587172D01*
X169216609Y-140587185D01*
X169304210Y-140718288D01*
X169304213Y-140718292D01*
X169341240Y-140755319D01*
X169374725Y-140816642D01*
X169369741Y-140886334D01*
X169341240Y-140930681D01*
X169304213Y-140967707D01*
X169304210Y-140967711D01*
X169216609Y-141098814D01*
X169216602Y-141098827D01*
X169156264Y-141244498D01*
X169156261Y-141244510D01*
X169125500Y-141399153D01*
X169125500Y-141556846D01*
X169156261Y-141711489D01*
X169156264Y-141711501D01*
X169216602Y-141857172D01*
X169216609Y-141857185D01*
X169304210Y-141988288D01*
X169304213Y-141988292D01*
X169341240Y-142025319D01*
X169374725Y-142086642D01*
X169369741Y-142156334D01*
X169341240Y-142200681D01*
X169304213Y-142237707D01*
X169304210Y-142237711D01*
X169216609Y-142368814D01*
X169216602Y-142368827D01*
X169156264Y-142514498D01*
X169156261Y-142514510D01*
X169125500Y-142669153D01*
X169125500Y-142826846D01*
X169156261Y-142981489D01*
X169156264Y-142981501D01*
X169216602Y-143127172D01*
X169216609Y-143127185D01*
X169304210Y-143258288D01*
X169304213Y-143258292D01*
X169415707Y-143369786D01*
X169415711Y-143369789D01*
X169546814Y-143457390D01*
X169546827Y-143457397D01*
X169641642Y-143496670D01*
X169692503Y-143517737D01*
X169847153Y-143548499D01*
X169847156Y-143548500D01*
X169847158Y-143548500D01*
X170004844Y-143548500D01*
X170004845Y-143548499D01*
X170159497Y-143517737D01*
X170305179Y-143457394D01*
X170436289Y-143369789D01*
X170436292Y-143369786D01*
X170473319Y-143332760D01*
X170534642Y-143299275D01*
X170604334Y-143304259D01*
X170648681Y-143332760D01*
X170685707Y-143369786D01*
X170685711Y-143369789D01*
X170816814Y-143457390D01*
X170816827Y-143457397D01*
X170911642Y-143496670D01*
X170962503Y-143517737D01*
X171117153Y-143548499D01*
X171117156Y-143548500D01*
X171117158Y-143548500D01*
X171274844Y-143548500D01*
X171274845Y-143548499D01*
X171429497Y-143517737D01*
X171575179Y-143457394D01*
X171706289Y-143369789D01*
X171706292Y-143369786D01*
X171743319Y-143332760D01*
X171804642Y-143299275D01*
X171874334Y-143304259D01*
X171918681Y-143332760D01*
X171955707Y-143369786D01*
X171955711Y-143369789D01*
X172086814Y-143457390D01*
X172086827Y-143457397D01*
X172181642Y-143496670D01*
X172232503Y-143517737D01*
X172387153Y-143548499D01*
X172387156Y-143548500D01*
X172387158Y-143548500D01*
X172544844Y-143548500D01*
X172544845Y-143548499D01*
X172699497Y-143517737D01*
X172845179Y-143457394D01*
X172976289Y-143369789D01*
X173087789Y-143258289D01*
X173175394Y-143127179D01*
X173235737Y-142981497D01*
X173266500Y-142826842D01*
X173266500Y-142669158D01*
X173266500Y-142669155D01*
X173266499Y-142669153D01*
X173235738Y-142514510D01*
X173235737Y-142514503D01*
X173210977Y-142454727D01*
X173175397Y-142368827D01*
X173175390Y-142368814D01*
X173087789Y-142237711D01*
X173087786Y-142237707D01*
X173050760Y-142200681D01*
X173017275Y-142139358D01*
X173022259Y-142069666D01*
X173050760Y-142025319D01*
X173087786Y-141988292D01*
X173087789Y-141988289D01*
X173175394Y-141857179D01*
X173235737Y-141711497D01*
X173266500Y-141556842D01*
X173266500Y-141399158D01*
X173266500Y-141399155D01*
X173266499Y-141399153D01*
X173235738Y-141244510D01*
X173235737Y-141244503D01*
X173215858Y-141196510D01*
X173175397Y-141098827D01*
X173175390Y-141098814D01*
X173087789Y-140967711D01*
X173087786Y-140967707D01*
X173050760Y-140930681D01*
X173017275Y-140869358D01*
X173022259Y-140799666D01*
X173050760Y-140755319D01*
X173087786Y-140718292D01*
X173087789Y-140718289D01*
X173175394Y-140587179D01*
X173235737Y-140441497D01*
X173266500Y-140286842D01*
X173266500Y-140129158D01*
X173266500Y-140129155D01*
X173266499Y-140129153D01*
X173235738Y-139974510D01*
X173235737Y-139974503D01*
X173235735Y-139974498D01*
X173175397Y-139828827D01*
X173175390Y-139828814D01*
X173087789Y-139697711D01*
X173087786Y-139697707D01*
X172976292Y-139586213D01*
X172976288Y-139586210D01*
X172845185Y-139498609D01*
X172845172Y-139498602D01*
X172699501Y-139438264D01*
X172699489Y-139438261D01*
X172544845Y-139407500D01*
X172544842Y-139407500D01*
X172387158Y-139407500D01*
X172387155Y-139407500D01*
X172232510Y-139438261D01*
X172232498Y-139438264D01*
X172086827Y-139498602D01*
X172086814Y-139498609D01*
X171955711Y-139586210D01*
X171955707Y-139586213D01*
X171918681Y-139623240D01*
X171857358Y-139656725D01*
X171787666Y-139651741D01*
X171743319Y-139623240D01*
X171706292Y-139586213D01*
X171706288Y-139586210D01*
X171575185Y-139498609D01*
X171575172Y-139498602D01*
X171429501Y-139438264D01*
X171429489Y-139438261D01*
X171274845Y-139407500D01*
X171274842Y-139407500D01*
X171117158Y-139407500D01*
X171117155Y-139407500D01*
X170962510Y-139438261D01*
X170962498Y-139438264D01*
X170816827Y-139498602D01*
X170816814Y-139498609D01*
X170685711Y-139586210D01*
X170685707Y-139586213D01*
X170648681Y-139623240D01*
X170587358Y-139656725D01*
X170517666Y-139651741D01*
X170473319Y-139623240D01*
X170436292Y-139586213D01*
X170436288Y-139586210D01*
X170305185Y-139498609D01*
X170305172Y-139498602D01*
X170159501Y-139438264D01*
X170159489Y-139438261D01*
X170004845Y-139407500D01*
X170004842Y-139407500D01*
X169847158Y-139407500D01*
X169847155Y-139407500D01*
X169692510Y-139438261D01*
X169692498Y-139438264D01*
X169546827Y-139498602D01*
X169546814Y-139498609D01*
X169415711Y-139586210D01*
X169415707Y-139586213D01*
X169304213Y-139697707D01*
X169304210Y-139697711D01*
X169216609Y-139828814D01*
X169216602Y-139828827D01*
X169156264Y-139974498D01*
X169156261Y-139974510D01*
X169125500Y-140129153D01*
X129070499Y-140129153D01*
X129039738Y-139974510D01*
X129039737Y-139974503D01*
X129039735Y-139974498D01*
X128979397Y-139828827D01*
X128979390Y-139828814D01*
X128891789Y-139697711D01*
X128891786Y-139697707D01*
X128780292Y-139586213D01*
X128780288Y-139586210D01*
X128649185Y-139498609D01*
X128649172Y-139498602D01*
X128503501Y-139438264D01*
X128503489Y-139438261D01*
X128348845Y-139407500D01*
X128348842Y-139407500D01*
X128191158Y-139407500D01*
X128191155Y-139407500D01*
X128036510Y-139438261D01*
X128036498Y-139438264D01*
X127890827Y-139498602D01*
X127890814Y-139498609D01*
X127759711Y-139586210D01*
X127759707Y-139586213D01*
X127722681Y-139623240D01*
X127661358Y-139656725D01*
X127591666Y-139651741D01*
X127547319Y-139623240D01*
X127510292Y-139586213D01*
X127510288Y-139586210D01*
X127379185Y-139498609D01*
X127379172Y-139498602D01*
X127233501Y-139438264D01*
X127233489Y-139438261D01*
X127078845Y-139407500D01*
X127078842Y-139407500D01*
X126921158Y-139407500D01*
X126921155Y-139407500D01*
X126766510Y-139438261D01*
X126766498Y-139438264D01*
X126620827Y-139498602D01*
X126620814Y-139498609D01*
X126489711Y-139586210D01*
X126489707Y-139586213D01*
X126452681Y-139623240D01*
X126391358Y-139656725D01*
X126321666Y-139651741D01*
X126277319Y-139623240D01*
X126240292Y-139586213D01*
X126240288Y-139586210D01*
X126109185Y-139498609D01*
X126109172Y-139498602D01*
X125963501Y-139438264D01*
X125963489Y-139438261D01*
X125808845Y-139407500D01*
X125808842Y-139407500D01*
X125651158Y-139407500D01*
X125651155Y-139407500D01*
X125496510Y-139438261D01*
X125496498Y-139438264D01*
X125350827Y-139498602D01*
X125350814Y-139498609D01*
X125219711Y-139586210D01*
X125219707Y-139586213D01*
X125108213Y-139697707D01*
X125108210Y-139697711D01*
X125020609Y-139828814D01*
X125020602Y-139828827D01*
X124960264Y-139974498D01*
X124960261Y-139974510D01*
X124929500Y-140129153D01*
X118610500Y-140129153D01*
X118610500Y-134775441D01*
X120399500Y-134775441D01*
X120399500Y-135024558D01*
X120399501Y-135024575D01*
X120432017Y-135271561D01*
X120496498Y-135512207D01*
X120591830Y-135742361D01*
X120591837Y-135742376D01*
X120716400Y-135958126D01*
X120868060Y-136155774D01*
X120868066Y-136155781D01*
X121044218Y-136331933D01*
X121044225Y-136331939D01*
X121241873Y-136483599D01*
X121457623Y-136608162D01*
X121457638Y-136608169D01*
X121556825Y-136649253D01*
X121687793Y-136703502D01*
X121928435Y-136767982D01*
X122175435Y-136800500D01*
X122175442Y-136800500D01*
X122424558Y-136800500D01*
X122424565Y-136800500D01*
X122671565Y-136767982D01*
X122912207Y-136703502D01*
X123142373Y-136608164D01*
X123358127Y-136483599D01*
X123555776Y-136331938D01*
X123731938Y-136155776D01*
X123883599Y-135958127D01*
X124008164Y-135742373D01*
X124103502Y-135512207D01*
X124167982Y-135271565D01*
X124200500Y-135024565D01*
X124200500Y-134775435D01*
X124167982Y-134528435D01*
X124103502Y-134287793D01*
X124056268Y-134173761D01*
X124015161Y-134074518D01*
X124008169Y-134057638D01*
X124008162Y-134057623D01*
X123994034Y-134033153D01*
X166924500Y-134033153D01*
X166924500Y-134190846D01*
X166955261Y-134345489D01*
X166955264Y-134345501D01*
X167015602Y-134491172D01*
X167015609Y-134491185D01*
X167103210Y-134622288D01*
X167103213Y-134622292D01*
X167140240Y-134659319D01*
X167173725Y-134720642D01*
X167168741Y-134790334D01*
X167140240Y-134834681D01*
X167103213Y-134871707D01*
X167103210Y-134871711D01*
X167015609Y-135002814D01*
X167015602Y-135002827D01*
X166955264Y-135148498D01*
X166955261Y-135148510D01*
X166924500Y-135303153D01*
X166924500Y-135460846D01*
X166955261Y-135615489D01*
X166955264Y-135615501D01*
X167015602Y-135761172D01*
X167015609Y-135761185D01*
X167103210Y-135892288D01*
X167103213Y-135892292D01*
X167140240Y-135929319D01*
X167173725Y-135990642D01*
X167168741Y-136060334D01*
X167140240Y-136104681D01*
X167103213Y-136141707D01*
X167103210Y-136141711D01*
X167015609Y-136272814D01*
X167015602Y-136272827D01*
X166955264Y-136418498D01*
X166955261Y-136418510D01*
X166924500Y-136573153D01*
X166924500Y-136730846D01*
X166955261Y-136885489D01*
X166955264Y-136885501D01*
X167015602Y-137031172D01*
X167015609Y-137031185D01*
X167103210Y-137162288D01*
X167103213Y-137162292D01*
X167214707Y-137273786D01*
X167214711Y-137273789D01*
X167345814Y-137361390D01*
X167345827Y-137361397D01*
X167491498Y-137421735D01*
X167491503Y-137421737D01*
X167646153Y-137452499D01*
X167646156Y-137452500D01*
X167646158Y-137452500D01*
X167803844Y-137452500D01*
X167803845Y-137452499D01*
X167958497Y-137421737D01*
X168104179Y-137361394D01*
X168235289Y-137273789D01*
X168235292Y-137273786D01*
X168272319Y-137236760D01*
X168333642Y-137203275D01*
X168403334Y-137208259D01*
X168447681Y-137236760D01*
X168484707Y-137273786D01*
X168484711Y-137273789D01*
X168615814Y-137361390D01*
X168615827Y-137361397D01*
X168761498Y-137421735D01*
X168761503Y-137421737D01*
X168916153Y-137452499D01*
X168916156Y-137452500D01*
X168916158Y-137452500D01*
X169073844Y-137452500D01*
X169073845Y-137452499D01*
X169228497Y-137421737D01*
X169374179Y-137361394D01*
X169505289Y-137273789D01*
X169505292Y-137273786D01*
X169542319Y-137236760D01*
X169603642Y-137203275D01*
X169673334Y-137208259D01*
X169717681Y-137236760D01*
X169754707Y-137273786D01*
X169754711Y-137273789D01*
X169885814Y-137361390D01*
X169885827Y-137361397D01*
X170031498Y-137421735D01*
X170031503Y-137421737D01*
X170186153Y-137452499D01*
X170186156Y-137452500D01*
X170186158Y-137452500D01*
X170343844Y-137452500D01*
X170343845Y-137452499D01*
X170498497Y-137421737D01*
X170644179Y-137361394D01*
X170775289Y-137273789D01*
X170886789Y-137162289D01*
X170974394Y-137031179D01*
X171034737Y-136885497D01*
X171065500Y-136730842D01*
X171065500Y-136573158D01*
X171065500Y-136573155D01*
X171065499Y-136573153D01*
X171051047Y-136500499D01*
X171034737Y-136418503D01*
X171003343Y-136342710D01*
X170974397Y-136272827D01*
X170974390Y-136272814D01*
X170886789Y-136141711D01*
X170886786Y-136141707D01*
X170849760Y-136104681D01*
X170816275Y-136043358D01*
X170821259Y-135973666D01*
X170849760Y-135929319D01*
X170886786Y-135892292D01*
X170886789Y-135892289D01*
X170974394Y-135761179D01*
X171034737Y-135615497D01*
X171065500Y-135460842D01*
X171065500Y-135303158D01*
X171065500Y-135303155D01*
X171065499Y-135303153D01*
X171034738Y-135148510D01*
X171034737Y-135148503D01*
X170983398Y-135024558D01*
X170974397Y-135002827D01*
X170974390Y-135002814D01*
X170886789Y-134871711D01*
X170886786Y-134871707D01*
X170849760Y-134834681D01*
X170816275Y-134773358D01*
X170821259Y-134703666D01*
X170849760Y-134659319D01*
X170886786Y-134622292D01*
X170886789Y-134622289D01*
X170974394Y-134491179D01*
X171034737Y-134345497D01*
X171065500Y-134190842D01*
X171065500Y-134033158D01*
X171065500Y-134033155D01*
X171065499Y-134033153D01*
X171034738Y-133878510D01*
X171034737Y-133878503D01*
X171034735Y-133878498D01*
X170974397Y-133732827D01*
X170974390Y-133732814D01*
X170886789Y-133601711D01*
X170886786Y-133601707D01*
X170775288Y-133490209D01*
X170644185Y-133402609D01*
X170644172Y-133402602D01*
X170637851Y-133399984D01*
X174274900Y-133399984D01*
X174274900Y-135800015D01*
X174285400Y-135902795D01*
X174285401Y-135902796D01*
X174340586Y-136069335D01*
X174340587Y-136069337D01*
X174432686Y-136218651D01*
X174432689Y-136218655D01*
X174556744Y-136342710D01*
X174556748Y-136342713D01*
X174706062Y-136434812D01*
X174706064Y-136434813D01*
X174706066Y-136434814D01*
X174872603Y-136489999D01*
X174975392Y-136500500D01*
X174975397Y-136500500D01*
X177375403Y-136500500D01*
X177375408Y-136500500D01*
X177478197Y-136489999D01*
X177644734Y-136434814D01*
X177794055Y-136342711D01*
X177918111Y-136218655D01*
X178010214Y-136069334D01*
X178065399Y-135902797D01*
X178075900Y-135800008D01*
X178075900Y-133399992D01*
X178065399Y-133297203D01*
X178010214Y-133130666D01*
X177918111Y-132981345D01*
X177794055Y-132857289D01*
X177794051Y-132857286D01*
X177644737Y-132765187D01*
X177644735Y-132765186D01*
X177561465Y-132737593D01*
X177478197Y-132710001D01*
X177478195Y-132710000D01*
X177375415Y-132699500D01*
X177375408Y-132699500D01*
X174975392Y-132699500D01*
X174975384Y-132699500D01*
X174872604Y-132710000D01*
X174872603Y-132710001D01*
X174706064Y-132765186D01*
X174706062Y-132765187D01*
X174556748Y-132857286D01*
X174556744Y-132857289D01*
X174432689Y-132981344D01*
X174432686Y-132981348D01*
X174340587Y-133130662D01*
X174340586Y-133130664D01*
X174285401Y-133297203D01*
X174285400Y-133297204D01*
X174274900Y-133399984D01*
X170637851Y-133399984D01*
X170498501Y-133342264D01*
X170498489Y-133342261D01*
X170343845Y-133311500D01*
X170343842Y-133311500D01*
X170186158Y-133311500D01*
X170186155Y-133311500D01*
X170031510Y-133342261D01*
X170031498Y-133342264D01*
X169885827Y-133402602D01*
X169885814Y-133402609D01*
X169754711Y-133490210D01*
X169754707Y-133490213D01*
X169717681Y-133527240D01*
X169656358Y-133560725D01*
X169586666Y-133555741D01*
X169542319Y-133527240D01*
X169505292Y-133490213D01*
X169505288Y-133490210D01*
X169374185Y-133402609D01*
X169374172Y-133402602D01*
X169228501Y-133342264D01*
X169228489Y-133342261D01*
X169073845Y-133311500D01*
X169073842Y-133311500D01*
X168916158Y-133311500D01*
X168916155Y-133311500D01*
X168761510Y-133342261D01*
X168761498Y-133342264D01*
X168615827Y-133402602D01*
X168615814Y-133402609D01*
X168484711Y-133490210D01*
X168484707Y-133490213D01*
X168447681Y-133527240D01*
X168386358Y-133560725D01*
X168316666Y-133555741D01*
X168272319Y-133527240D01*
X168235292Y-133490213D01*
X168235288Y-133490210D01*
X168104185Y-133402609D01*
X168104172Y-133402602D01*
X167958501Y-133342264D01*
X167958489Y-133342261D01*
X167803845Y-133311500D01*
X167803842Y-133311500D01*
X167646158Y-133311500D01*
X167646155Y-133311500D01*
X167491510Y-133342261D01*
X167491498Y-133342264D01*
X167345827Y-133402602D01*
X167345814Y-133402609D01*
X167214711Y-133490210D01*
X167214707Y-133490213D01*
X167103213Y-133601707D01*
X167103210Y-133601711D01*
X167015609Y-133732814D01*
X167015602Y-133732827D01*
X166955264Y-133878498D01*
X166955261Y-133878510D01*
X166924500Y-134033153D01*
X123994034Y-134033153D01*
X123883599Y-133841873D01*
X123731939Y-133644225D01*
X123731933Y-133644218D01*
X123555781Y-133468066D01*
X123555774Y-133468060D01*
X123358126Y-133316400D01*
X123142376Y-133191837D01*
X123142361Y-133191830D01*
X122912207Y-133096498D01*
X122671561Y-133032017D01*
X122424575Y-132999501D01*
X122424570Y-132999500D01*
X122424565Y-132999500D01*
X122175435Y-132999500D01*
X122175429Y-132999500D01*
X122175424Y-132999501D01*
X121928438Y-133032017D01*
X121687792Y-133096498D01*
X121457638Y-133191830D01*
X121457623Y-133191837D01*
X121241873Y-133316400D01*
X121044225Y-133468060D01*
X121044218Y-133468066D01*
X120868066Y-133644218D01*
X120868060Y-133644225D01*
X120716400Y-133841873D01*
X120591837Y-134057623D01*
X120591830Y-134057638D01*
X120496498Y-134287792D01*
X120432017Y-134528438D01*
X120399501Y-134775424D01*
X120399500Y-134775441D01*
X118610500Y-134775441D01*
X118610500Y-127766973D01*
X129649500Y-127766973D01*
X129649500Y-128011026D01*
X129685867Y-128240640D01*
X129687679Y-128252076D01*
X129763096Y-128484185D01*
X129819107Y-128594114D01*
X129873896Y-128701642D01*
X130017339Y-128899076D01*
X130017343Y-128899081D01*
X130169581Y-129051319D01*
X130203066Y-129112642D01*
X130198082Y-129182334D01*
X130169581Y-129226681D01*
X130017343Y-129378918D01*
X130017339Y-129378923D01*
X129873896Y-129576357D01*
X129763097Y-129793812D01*
X129763096Y-129793814D01*
X129763096Y-129793815D01*
X129737418Y-129872844D01*
X129687678Y-130025927D01*
X129687429Y-130027501D01*
X129649500Y-130266973D01*
X129649500Y-130511027D01*
X129651172Y-130521584D01*
X129677027Y-130684827D01*
X129687679Y-130752076D01*
X129750740Y-130946158D01*
X129763097Y-130984187D01*
X129873896Y-131201642D01*
X130017339Y-131399076D01*
X130017343Y-131399081D01*
X130189918Y-131571656D01*
X130189923Y-131571660D01*
X130347005Y-131685786D01*
X130387361Y-131715106D01*
X130604815Y-131825904D01*
X130836924Y-131901321D01*
X131077973Y-131939500D01*
X131077974Y-131939500D01*
X131322026Y-131939500D01*
X131322027Y-131939500D01*
X131563076Y-131901321D01*
X131795185Y-131825904D01*
X132012639Y-131715106D01*
X132210083Y-131571655D01*
X132382655Y-131399083D01*
X132526106Y-131201639D01*
X132636904Y-130984185D01*
X132712321Y-130752076D01*
X132750500Y-130511027D01*
X132750500Y-130266973D01*
X132712321Y-130025924D01*
X132636904Y-129793815D01*
X132596824Y-129715153D01*
X159854500Y-129715153D01*
X159854500Y-129872846D01*
X159885261Y-130027489D01*
X159885264Y-130027501D01*
X159945602Y-130173172D01*
X159945609Y-130173185D01*
X160033210Y-130304288D01*
X160033213Y-130304292D01*
X160144707Y-130415786D01*
X160144711Y-130415789D01*
X160275814Y-130503390D01*
X160275827Y-130503397D01*
X160397288Y-130553707D01*
X160421503Y-130563737D01*
X160576153Y-130594499D01*
X160576156Y-130594500D01*
X160576158Y-130594500D01*
X160733844Y-130594500D01*
X160733845Y-130594499D01*
X160888497Y-130563737D01*
X161034179Y-130503394D01*
X161062607Y-130484398D01*
X161129283Y-130463520D01*
X161196664Y-130482003D01*
X161243355Y-130533981D01*
X161254533Y-130602951D01*
X161234602Y-130656389D01*
X161215611Y-130684811D01*
X161215602Y-130684827D01*
X161155264Y-130830498D01*
X161155261Y-130830510D01*
X161124500Y-130985153D01*
X161124500Y-131142846D01*
X161155261Y-131297489D01*
X161155264Y-131297501D01*
X161215602Y-131443172D01*
X161215609Y-131443185D01*
X161303210Y-131574288D01*
X161303213Y-131574292D01*
X161414707Y-131685786D01*
X161414711Y-131685789D01*
X161545814Y-131773390D01*
X161545827Y-131773397D01*
X161671617Y-131825500D01*
X161691503Y-131833737D01*
X161846153Y-131864499D01*
X161846156Y-131864500D01*
X161846158Y-131864500D01*
X162003844Y-131864500D01*
X162003845Y-131864499D01*
X162158497Y-131833737D01*
X162299604Y-131775289D01*
X162304172Y-131773397D01*
X162304172Y-131773396D01*
X162304179Y-131773394D01*
X162435289Y-131685789D01*
X162546789Y-131574289D01*
X162634394Y-131443179D01*
X162694737Y-131297497D01*
X162725500Y-131142842D01*
X162725500Y-131073920D01*
X164149499Y-131073920D01*
X164178340Y-131218907D01*
X164178343Y-131218917D01*
X164234912Y-131355488D01*
X164234919Y-131355501D01*
X164317048Y-131478415D01*
X164317051Y-131478419D01*
X164421580Y-131582948D01*
X164421584Y-131582951D01*
X164544498Y-131665080D01*
X164544511Y-131665087D01*
X164594491Y-131685789D01*
X164681087Y-131721658D01*
X164681091Y-131721658D01*
X164681092Y-131721659D01*
X164826079Y-131750500D01*
X164826082Y-131750500D01*
X164973920Y-131750500D01*
X165071462Y-131731096D01*
X165118913Y-131721658D01*
X165255495Y-131665084D01*
X165378416Y-131582951D01*
X165482951Y-131478416D01*
X165565084Y-131355495D01*
X165621658Y-131218913D01*
X165636789Y-131142846D01*
X165650500Y-131073920D01*
X165650500Y-130946153D01*
X165964500Y-130946153D01*
X165964500Y-131103846D01*
X165995261Y-131258489D01*
X165995264Y-131258501D01*
X166055602Y-131404172D01*
X166055609Y-131404185D01*
X166143210Y-131535288D01*
X166143213Y-131535292D01*
X166254707Y-131646786D01*
X166254711Y-131646789D01*
X166385814Y-131734390D01*
X166385827Y-131734397D01*
X166484558Y-131775292D01*
X166531503Y-131794737D01*
X166686153Y-131825499D01*
X166686156Y-131825500D01*
X166686158Y-131825500D01*
X166843844Y-131825500D01*
X166843845Y-131825499D01*
X166998497Y-131794737D01*
X167144179Y-131734394D01*
X167275289Y-131646789D01*
X167386789Y-131535289D01*
X167474394Y-131404179D01*
X167534737Y-131258497D01*
X167542612Y-131218907D01*
X167549128Y-131186153D01*
X167984500Y-131186153D01*
X167984500Y-131343846D01*
X168015261Y-131498489D01*
X168015264Y-131498501D01*
X168075602Y-131644172D01*
X168075609Y-131644185D01*
X168163210Y-131775288D01*
X168163213Y-131775292D01*
X168274707Y-131886786D01*
X168274711Y-131886789D01*
X168405814Y-131974390D01*
X168405827Y-131974397D01*
X168551498Y-132034735D01*
X168551503Y-132034737D01*
X168706153Y-132065499D01*
X168706156Y-132065500D01*
X168706158Y-132065500D01*
X168863844Y-132065500D01*
X168863845Y-132065499D01*
X169018497Y-132034737D01*
X169164179Y-131974394D01*
X169295289Y-131886789D01*
X169406789Y-131775289D01*
X169494394Y-131644179D01*
X169554737Y-131498497D01*
X169585500Y-131343842D01*
X169585500Y-131186158D01*
X169585500Y-131186155D01*
X169585499Y-131186153D01*
X169569127Y-131103846D01*
X169554737Y-131031503D01*
X169554735Y-131031498D01*
X169494397Y-130885827D01*
X169494390Y-130885814D01*
X169406789Y-130754711D01*
X169406786Y-130754707D01*
X169295292Y-130643213D01*
X169295288Y-130643210D01*
X169164185Y-130555609D01*
X169164172Y-130555602D01*
X169018501Y-130495264D01*
X169018489Y-130495261D01*
X168863845Y-130464500D01*
X168863842Y-130464500D01*
X168706158Y-130464500D01*
X168706155Y-130464500D01*
X168551510Y-130495261D01*
X168551498Y-130495264D01*
X168405827Y-130555602D01*
X168405814Y-130555609D01*
X168274711Y-130643210D01*
X168274707Y-130643213D01*
X168163213Y-130754707D01*
X168163210Y-130754711D01*
X168075609Y-130885814D01*
X168075602Y-130885827D01*
X168015264Y-131031498D01*
X168015261Y-131031510D01*
X167984500Y-131186153D01*
X167549128Y-131186153D01*
X167555151Y-131155874D01*
X167555151Y-131155873D01*
X167565499Y-131103846D01*
X167565500Y-131103844D01*
X167565500Y-130946155D01*
X167565499Y-130946153D01*
X167542496Y-130830510D01*
X167534737Y-130791503D01*
X167530421Y-130781082D01*
X167474397Y-130645827D01*
X167474390Y-130645814D01*
X167386789Y-130514711D01*
X167386786Y-130514707D01*
X167275292Y-130403213D01*
X167275288Y-130403210D01*
X167144185Y-130315609D01*
X167144172Y-130315602D01*
X166998501Y-130255264D01*
X166998489Y-130255261D01*
X166843845Y-130224500D01*
X166843842Y-130224500D01*
X166686158Y-130224500D01*
X166686155Y-130224500D01*
X166531510Y-130255261D01*
X166531498Y-130255264D01*
X166385827Y-130315602D01*
X166385814Y-130315609D01*
X166254711Y-130403210D01*
X166254707Y-130403213D01*
X166143213Y-130514707D01*
X166143210Y-130514711D01*
X166055609Y-130645814D01*
X166055602Y-130645827D01*
X165995264Y-130791498D01*
X165995261Y-130791510D01*
X165964500Y-130946153D01*
X165650500Y-130946153D01*
X165650500Y-130926079D01*
X165621659Y-130781092D01*
X165621658Y-130781091D01*
X165621658Y-130781087D01*
X165581786Y-130684827D01*
X165565087Y-130644511D01*
X165565080Y-130644498D01*
X165482951Y-130521584D01*
X165482948Y-130521580D01*
X165378419Y-130417051D01*
X165378415Y-130417048D01*
X165255501Y-130334919D01*
X165255488Y-130334912D01*
X165118917Y-130278343D01*
X165118907Y-130278340D01*
X164973920Y-130249500D01*
X164973918Y-130249500D01*
X164826082Y-130249500D01*
X164826080Y-130249500D01*
X164681092Y-130278340D01*
X164681082Y-130278343D01*
X164544511Y-130334912D01*
X164544498Y-130334919D01*
X164421584Y-130417048D01*
X164421580Y-130417051D01*
X164317051Y-130521580D01*
X164317048Y-130521584D01*
X164234919Y-130644498D01*
X164234912Y-130644511D01*
X164178343Y-130781082D01*
X164178340Y-130781092D01*
X164149500Y-130926079D01*
X164149500Y-130926082D01*
X164149500Y-131073918D01*
X164149500Y-131073920D01*
X164149499Y-131073920D01*
X162725500Y-131073920D01*
X162725500Y-130985158D01*
X162725500Y-130985155D01*
X162725499Y-130985153D01*
X162717350Y-130944181D01*
X162694738Y-130830508D01*
X162694737Y-130830507D01*
X162694737Y-130830503D01*
X162678581Y-130791498D01*
X162634397Y-130684827D01*
X162634390Y-130684814D01*
X162546789Y-130553711D01*
X162546786Y-130553707D01*
X162509760Y-130516681D01*
X162476275Y-130455358D01*
X162481259Y-130385666D01*
X162509760Y-130341319D01*
X162546786Y-130304292D01*
X162546789Y-130304289D01*
X162634394Y-130173179D01*
X162694737Y-130027497D01*
X162725500Y-129872842D01*
X162725500Y-129715158D01*
X162725500Y-129715155D01*
X162725499Y-129715153D01*
X162697891Y-129576361D01*
X162694737Y-129560503D01*
X162694735Y-129560498D01*
X162634397Y-129414827D01*
X162634390Y-129414814D01*
X162546789Y-129283711D01*
X162546786Y-129283707D01*
X162435292Y-129172213D01*
X162435288Y-129172210D01*
X162304185Y-129084609D01*
X162304172Y-129084602D01*
X162158501Y-129024264D01*
X162158489Y-129024261D01*
X162003845Y-128993500D01*
X162003842Y-128993500D01*
X161846158Y-128993500D01*
X161846155Y-128993500D01*
X161691510Y-129024261D01*
X161691498Y-129024264D01*
X161545827Y-129084602D01*
X161545814Y-129084609D01*
X161414711Y-129172210D01*
X161414707Y-129172213D01*
X161377681Y-129209240D01*
X161316358Y-129242725D01*
X161246666Y-129237741D01*
X161202319Y-129209240D01*
X161165292Y-129172213D01*
X161165288Y-129172210D01*
X161034185Y-129084609D01*
X161034172Y-129084602D01*
X160888501Y-129024264D01*
X160888489Y-129024261D01*
X160733845Y-128993500D01*
X160733842Y-128993500D01*
X160576158Y-128993500D01*
X160576155Y-128993500D01*
X160421510Y-129024261D01*
X160421498Y-129024264D01*
X160275827Y-129084602D01*
X160275814Y-129084609D01*
X160144711Y-129172210D01*
X160144707Y-129172213D01*
X160033213Y-129283707D01*
X160033210Y-129283711D01*
X159945609Y-129414814D01*
X159945602Y-129414827D01*
X159885264Y-129560498D01*
X159885261Y-129560510D01*
X159854500Y-129715153D01*
X132596824Y-129715153D01*
X132526106Y-129576361D01*
X132507779Y-129551136D01*
X132382660Y-129378923D01*
X132382656Y-129378918D01*
X132230419Y-129226681D01*
X132196934Y-129165358D01*
X132201918Y-129095666D01*
X132230419Y-129051319D01*
X132288238Y-128993500D01*
X132382655Y-128899083D01*
X132526106Y-128701639D01*
X132568215Y-128618995D01*
X146767973Y-128618995D01*
X146794892Y-128754322D01*
X146794895Y-128754332D01*
X146847695Y-128881804D01*
X146847702Y-128881817D01*
X146924359Y-128996541D01*
X146924362Y-128996545D01*
X147021928Y-129094111D01*
X147021932Y-129094114D01*
X147136656Y-129170771D01*
X147136669Y-129170778D01*
X147229526Y-129209240D01*
X147264146Y-129223580D01*
X147264150Y-129223580D01*
X147264151Y-129223581D01*
X147399478Y-129250500D01*
X147399481Y-129250500D01*
X147537469Y-129250500D01*
X147657212Y-129226681D01*
X147672802Y-129223580D01*
X147772379Y-129182334D01*
X147800278Y-129170778D01*
X147800278Y-129170777D01*
X147800285Y-129170775D01*
X147915016Y-129094114D01*
X148012588Y-128996542D01*
X148089249Y-128881811D01*
X148142054Y-128754328D01*
X148168974Y-128618993D01*
X148168974Y-128481007D01*
X148168974Y-128481004D01*
X148142055Y-128345677D01*
X148142054Y-128345676D01*
X148142054Y-128345672D01*
X148104220Y-128254332D01*
X148089252Y-128218195D01*
X148089245Y-128218182D01*
X148022970Y-128118995D01*
X148462569Y-128118995D01*
X148489488Y-128254322D01*
X148489491Y-128254332D01*
X148542291Y-128381804D01*
X148542298Y-128381817D01*
X148618955Y-128496541D01*
X148618958Y-128496545D01*
X148716524Y-128594111D01*
X148716528Y-128594114D01*
X148831252Y-128670771D01*
X148831265Y-128670778D01*
X148958737Y-128723578D01*
X148958742Y-128723580D01*
X148958746Y-128723580D01*
X148958747Y-128723581D01*
X149094074Y-128750500D01*
X149094077Y-128750500D01*
X149232065Y-128750500D01*
X149323111Y-128732389D01*
X149367398Y-128723580D01*
X149494881Y-128670775D01*
X149609612Y-128594114D01*
X149707184Y-128496542D01*
X149783845Y-128381811D01*
X149836650Y-128254328D01*
X149863570Y-128118993D01*
X149863570Y-127981007D01*
X149863570Y-127981004D01*
X149836651Y-127845677D01*
X149836650Y-127845676D01*
X149836650Y-127845672D01*
X149805883Y-127771394D01*
X149783848Y-127718195D01*
X149783841Y-127718182D01*
X149707184Y-127603458D01*
X149707181Y-127603454D01*
X149609615Y-127505888D01*
X149609611Y-127505885D01*
X149494887Y-127429228D01*
X149494874Y-127429221D01*
X149367402Y-127376421D01*
X149367392Y-127376418D01*
X149232065Y-127349500D01*
X149232063Y-127349500D01*
X149094077Y-127349500D01*
X149094075Y-127349500D01*
X148958747Y-127376418D01*
X148958737Y-127376421D01*
X148831265Y-127429221D01*
X148831252Y-127429228D01*
X148716528Y-127505885D01*
X148716524Y-127505888D01*
X148618958Y-127603454D01*
X148618955Y-127603458D01*
X148542298Y-127718182D01*
X148542291Y-127718195D01*
X148489491Y-127845667D01*
X148489488Y-127845677D01*
X148462570Y-127981004D01*
X148462570Y-127981007D01*
X148462570Y-128118993D01*
X148462570Y-128118995D01*
X148462569Y-128118995D01*
X148022970Y-128118995D01*
X148012588Y-128103458D01*
X148012585Y-128103454D01*
X147915019Y-128005888D01*
X147915015Y-128005885D01*
X147800291Y-127929228D01*
X147800278Y-127929221D01*
X147672806Y-127876421D01*
X147672796Y-127876418D01*
X147537469Y-127849500D01*
X147537467Y-127849500D01*
X147399481Y-127849500D01*
X147399479Y-127849500D01*
X147264151Y-127876418D01*
X147264141Y-127876421D01*
X147136669Y-127929221D01*
X147136656Y-127929228D01*
X147021932Y-128005885D01*
X147021928Y-128005888D01*
X146924362Y-128103454D01*
X146924359Y-128103458D01*
X146847702Y-128218182D01*
X146847695Y-128218195D01*
X146794895Y-128345667D01*
X146794892Y-128345677D01*
X146767974Y-128481004D01*
X146767974Y-128481007D01*
X146767974Y-128618993D01*
X146767974Y-128618995D01*
X146767973Y-128618995D01*
X132568215Y-128618995D01*
X132636904Y-128484185D01*
X132712321Y-128252076D01*
X132750500Y-128011027D01*
X132750500Y-127766973D01*
X132729765Y-127636057D01*
X142416561Y-127636057D01*
X142443480Y-127771384D01*
X142443483Y-127771394D01*
X142496283Y-127898866D01*
X142496290Y-127898879D01*
X142572947Y-128013603D01*
X142572950Y-128013607D01*
X142670516Y-128111173D01*
X142670520Y-128111176D01*
X142785244Y-128187833D01*
X142785257Y-128187840D01*
X142912729Y-128240640D01*
X142912734Y-128240642D01*
X142912738Y-128240642D01*
X142912739Y-128240643D01*
X143048066Y-128267562D01*
X143048069Y-128267562D01*
X143186057Y-128267562D01*
X143277103Y-128249451D01*
X143321390Y-128240642D01*
X143448873Y-128187837D01*
X143563604Y-128111176D01*
X143661176Y-128013604D01*
X143737837Y-127898873D01*
X143790642Y-127771390D01*
X143817562Y-127636055D01*
X143817562Y-127498069D01*
X143817562Y-127498066D01*
X143790643Y-127362739D01*
X143790642Y-127362738D01*
X143790642Y-127362734D01*
X143762094Y-127293812D01*
X143737840Y-127235257D01*
X143737833Y-127235244D01*
X143661176Y-127120520D01*
X143661173Y-127120516D01*
X143563607Y-127022950D01*
X143563603Y-127022947D01*
X143448879Y-126946290D01*
X143448866Y-126946283D01*
X143321394Y-126893483D01*
X143321384Y-126893480D01*
X143186057Y-126866562D01*
X143186055Y-126866562D01*
X143048069Y-126866562D01*
X143048067Y-126866562D01*
X142912739Y-126893480D01*
X142912729Y-126893483D01*
X142785257Y-126946283D01*
X142785244Y-126946290D01*
X142670520Y-127022947D01*
X142670516Y-127022950D01*
X142572950Y-127120516D01*
X142572947Y-127120520D01*
X142496290Y-127235244D01*
X142496283Y-127235257D01*
X142443483Y-127362729D01*
X142443480Y-127362739D01*
X142416562Y-127498066D01*
X142416562Y-127498069D01*
X142416562Y-127636055D01*
X142416562Y-127636057D01*
X142416561Y-127636057D01*
X132729765Y-127636057D01*
X132712321Y-127525924D01*
X132636904Y-127293815D01*
X132526106Y-127076361D01*
X132456631Y-126980736D01*
X132382660Y-126878923D01*
X132382656Y-126878918D01*
X132210081Y-126706343D01*
X132210076Y-126706339D01*
X132012642Y-126562896D01*
X132012641Y-126562895D01*
X132012639Y-126562894D01*
X131795185Y-126452096D01*
X131563076Y-126376679D01*
X131563074Y-126376678D01*
X131563072Y-126376678D01*
X131359839Y-126344489D01*
X131322027Y-126338500D01*
X131077973Y-126338500D01*
X131040161Y-126344489D01*
X130836927Y-126376678D01*
X130604812Y-126452097D01*
X130387357Y-126562896D01*
X130189923Y-126706339D01*
X130189918Y-126706343D01*
X130017343Y-126878918D01*
X130017339Y-126878923D01*
X129873896Y-127076357D01*
X129763097Y-127293812D01*
X129687678Y-127525927D01*
X129649500Y-127766973D01*
X118610500Y-127766973D01*
X118610500Y-126032153D01*
X155917500Y-126032153D01*
X155917500Y-126189846D01*
X155948261Y-126344489D01*
X155948264Y-126344501D01*
X156008602Y-126490172D01*
X156008609Y-126490185D01*
X156096210Y-126621288D01*
X156096213Y-126621292D01*
X156207707Y-126732786D01*
X156207711Y-126732789D01*
X156338814Y-126820390D01*
X156338827Y-126820397D01*
X156484498Y-126880735D01*
X156484503Y-126880737D01*
X156639153Y-126911499D01*
X156639156Y-126911500D01*
X156639158Y-126911500D01*
X156796844Y-126911500D01*
X156796845Y-126911499D01*
X156951497Y-126880737D01*
X157097179Y-126820394D01*
X157228289Y-126732789D01*
X157339789Y-126621289D01*
X157427394Y-126490179D01*
X157487737Y-126344497D01*
X157518500Y-126189842D01*
X157518500Y-126032158D01*
X157518500Y-126032155D01*
X157518499Y-126032153D01*
X157487737Y-125877503D01*
X157442587Y-125768500D01*
X157434623Y-125749273D01*
X157427154Y-125679804D01*
X157458429Y-125617325D01*
X157518518Y-125581673D01*
X157588343Y-125584167D01*
X157618075Y-125598719D01*
X157735814Y-125677390D01*
X157735827Y-125677397D01*
X157867220Y-125731821D01*
X157881503Y-125737737D01*
X158036153Y-125768499D01*
X158036156Y-125768500D01*
X158036158Y-125768500D01*
X158193844Y-125768500D01*
X158193845Y-125768499D01*
X158348497Y-125737737D01*
X158494179Y-125677394D01*
X158625289Y-125589789D01*
X158736789Y-125478289D01*
X158824394Y-125347179D01*
X158826845Y-125341263D01*
X158854498Y-125274500D01*
X158884737Y-125201497D01*
X158915500Y-125046842D01*
X158915500Y-124889158D01*
X158915500Y-124889155D01*
X158915499Y-124889153D01*
X158899116Y-124806790D01*
X158884737Y-124734503D01*
X158879323Y-124721432D01*
X158824397Y-124588827D01*
X158824390Y-124588814D01*
X158736789Y-124457711D01*
X158736786Y-124457707D01*
X158625292Y-124346213D01*
X158625288Y-124346210D01*
X158494185Y-124258609D01*
X158494172Y-124258602D01*
X158348501Y-124198264D01*
X158348489Y-124198261D01*
X158193845Y-124167500D01*
X158193842Y-124167500D01*
X158036158Y-124167500D01*
X158036155Y-124167500D01*
X157881510Y-124198261D01*
X157881498Y-124198264D01*
X157735827Y-124258602D01*
X157735814Y-124258609D01*
X157604711Y-124346210D01*
X157604707Y-124346213D01*
X157493213Y-124457707D01*
X157493210Y-124457711D01*
X157405609Y-124588814D01*
X157405602Y-124588827D01*
X157345264Y-124734498D01*
X157345261Y-124734510D01*
X157314500Y-124889153D01*
X157314500Y-125046846D01*
X157345261Y-125201489D01*
X157345264Y-125201501D01*
X157398376Y-125329726D01*
X157405845Y-125399195D01*
X157374569Y-125461674D01*
X157314480Y-125497326D01*
X157244655Y-125494832D01*
X157214924Y-125480280D01*
X157097185Y-125401609D01*
X157097172Y-125401602D01*
X156951501Y-125341264D01*
X156951489Y-125341261D01*
X156796845Y-125310500D01*
X156796842Y-125310500D01*
X156639158Y-125310500D01*
X156639155Y-125310500D01*
X156484510Y-125341261D01*
X156484498Y-125341264D01*
X156338827Y-125401602D01*
X156338814Y-125401609D01*
X156207711Y-125489210D01*
X156207707Y-125489213D01*
X156096213Y-125600707D01*
X156096210Y-125600711D01*
X156008609Y-125731814D01*
X156008602Y-125731827D01*
X155948264Y-125877498D01*
X155948261Y-125877510D01*
X155917500Y-126032153D01*
X118610500Y-126032153D01*
X118610500Y-121436746D01*
X123662200Y-121436746D01*
X123662200Y-121653254D01*
X123673140Y-121722325D01*
X123696070Y-121867098D01*
X123762972Y-122073006D01*
X123762973Y-122073009D01*
X123852339Y-122248397D01*
X123861267Y-122265919D01*
X123988528Y-122441078D01*
X123988530Y-122441080D01*
X124004769Y-122457319D01*
X124038254Y-122518642D01*
X124033270Y-122588334D01*
X124004769Y-122632681D01*
X123988530Y-122648919D01*
X123988530Y-122648920D01*
X123988528Y-122648922D01*
X123976698Y-122665205D01*
X123861267Y-122824080D01*
X123762973Y-123016990D01*
X123762972Y-123016993D01*
X123696070Y-123222901D01*
X123672649Y-123370775D01*
X123662200Y-123436746D01*
X123662200Y-123653254D01*
X123669272Y-123697901D01*
X123696070Y-123867098D01*
X123762972Y-124073006D01*
X123762973Y-124073009D01*
X123826793Y-124198261D01*
X123861267Y-124265919D01*
X123988528Y-124441078D01*
X124141622Y-124594172D01*
X124316781Y-124721433D01*
X124411397Y-124769642D01*
X124509690Y-124819726D01*
X124509693Y-124819727D01*
X124612647Y-124853178D01*
X124715603Y-124886630D01*
X124929446Y-124920500D01*
X124929447Y-124920500D01*
X125145953Y-124920500D01*
X125145954Y-124920500D01*
X125359797Y-124886630D01*
X125565709Y-124819726D01*
X125758619Y-124721433D01*
X125933778Y-124594172D01*
X126086872Y-124441078D01*
X126214133Y-124265919D01*
X126312426Y-124073009D01*
X126379330Y-123867097D01*
X126413200Y-123653254D01*
X126413200Y-123436746D01*
X126379330Y-123222903D01*
X126312426Y-123016991D01*
X126312426Y-123016990D01*
X126214132Y-122824080D01*
X126172641Y-122766973D01*
X129649500Y-122766973D01*
X129649500Y-123011027D01*
X129656228Y-123053505D01*
X129679660Y-123201451D01*
X129687679Y-123252076D01*
X129763096Y-123484185D01*
X129873893Y-123701638D01*
X129873896Y-123701642D01*
X130017339Y-123899076D01*
X130017343Y-123899081D01*
X130189918Y-124071656D01*
X130189923Y-124071660D01*
X130267819Y-124128254D01*
X130387361Y-124215106D01*
X130604815Y-124325904D01*
X130836924Y-124401321D01*
X131077973Y-124439500D01*
X131077974Y-124439500D01*
X131322026Y-124439500D01*
X131322027Y-124439500D01*
X131563076Y-124401321D01*
X131795185Y-124325904D01*
X132012639Y-124215106D01*
X132210083Y-124071655D01*
X132382655Y-123899083D01*
X132421263Y-123845943D01*
X165074500Y-123845943D01*
X165074500Y-124004057D01*
X165107779Y-124128254D01*
X165115423Y-124156783D01*
X165115424Y-124156786D01*
X165133446Y-124188003D01*
X165149916Y-124255904D01*
X165133446Y-124311997D01*
X165115424Y-124343213D01*
X165115423Y-124343216D01*
X165074500Y-124495943D01*
X165074500Y-124654057D01*
X165096058Y-124734510D01*
X165115423Y-124806783D01*
X165115426Y-124806790D01*
X165194475Y-124943709D01*
X165194479Y-124943714D01*
X165194480Y-124943716D01*
X165306284Y-125055520D01*
X165306285Y-125055521D01*
X165306287Y-125055522D01*
X165413832Y-125117613D01*
X165462047Y-125168180D01*
X165475271Y-125236787D01*
X165449303Y-125301652D01*
X165413832Y-125332387D01*
X165306287Y-125394477D01*
X165306282Y-125394481D01*
X165194481Y-125506282D01*
X165194475Y-125506290D01*
X165115426Y-125643209D01*
X165115423Y-125643216D01*
X165074500Y-125795943D01*
X165074500Y-125954057D01*
X165095427Y-126032155D01*
X165115423Y-126106783D01*
X165115424Y-126106786D01*
X165133446Y-126138003D01*
X165149916Y-126205904D01*
X165133446Y-126261997D01*
X165115424Y-126293213D01*
X165115423Y-126293216D01*
X165074500Y-126445943D01*
X165074500Y-126604057D01*
X165101908Y-126706343D01*
X165115423Y-126756783D01*
X165115426Y-126756790D01*
X165194475Y-126893709D01*
X165194479Y-126893714D01*
X165194480Y-126893716D01*
X165306284Y-127005520D01*
X165306286Y-127005521D01*
X165306290Y-127005524D01*
X165428978Y-127076357D01*
X165443216Y-127084577D01*
X165595943Y-127125500D01*
X165595945Y-127125500D01*
X165754055Y-127125500D01*
X165754057Y-127125500D01*
X165906784Y-127084577D01*
X165947608Y-127061007D01*
X166007001Y-127026718D01*
X166074901Y-127010245D01*
X166130999Y-127026718D01*
X166216978Y-127076357D01*
X166231216Y-127084577D01*
X166383943Y-127125500D01*
X166383945Y-127125500D01*
X166542055Y-127125500D01*
X166542057Y-127125500D01*
X166694784Y-127084577D01*
X166794501Y-127027005D01*
X166862400Y-127010533D01*
X166918498Y-127027005D01*
X167018216Y-127084577D01*
X167170943Y-127125500D01*
X167170945Y-127125500D01*
X167329055Y-127125500D01*
X167329057Y-127125500D01*
X167481784Y-127084577D01*
X167618716Y-127005520D01*
X167730520Y-126893716D01*
X167809577Y-126756784D01*
X167850500Y-126604057D01*
X167850500Y-126445943D01*
X167809577Y-126293216D01*
X167791553Y-126261997D01*
X167775081Y-126194101D01*
X167791552Y-126138002D01*
X167809577Y-126106784D01*
X167850500Y-125954057D01*
X167850500Y-125795943D01*
X167809577Y-125643216D01*
X167778731Y-125589789D01*
X167730524Y-125506290D01*
X167730518Y-125506282D01*
X167618717Y-125394481D01*
X167618709Y-125394475D01*
X167511168Y-125332387D01*
X167462952Y-125281821D01*
X167449728Y-125213214D01*
X167475696Y-125148349D01*
X167511168Y-125117613D01*
X167618709Y-125055524D01*
X167618708Y-125055524D01*
X167618716Y-125055520D01*
X167730520Y-124943716D01*
X167809577Y-124806784D01*
X167850500Y-124654057D01*
X167850500Y-124495943D01*
X167809577Y-124343216D01*
X167791553Y-124311997D01*
X167775081Y-124244101D01*
X167791552Y-124188002D01*
X167809577Y-124156784D01*
X167850500Y-124004057D01*
X167850500Y-123845943D01*
X167809577Y-123693216D01*
X167786505Y-123653253D01*
X167730524Y-123556290D01*
X167730518Y-123556282D01*
X167618717Y-123444481D01*
X167618709Y-123444475D01*
X167481790Y-123365426D01*
X167481786Y-123365424D01*
X167481784Y-123365423D01*
X167329057Y-123324500D01*
X167170943Y-123324500D01*
X167018216Y-123365423D01*
X167018215Y-123365423D01*
X166918499Y-123422994D01*
X166850599Y-123439466D01*
X166794501Y-123422994D01*
X166694784Y-123365423D01*
X166542057Y-123324500D01*
X166383943Y-123324500D01*
X166231216Y-123365423D01*
X166231215Y-123365423D01*
X166130999Y-123423282D01*
X166063098Y-123439753D01*
X166007001Y-123423282D01*
X165906784Y-123365423D01*
X165754057Y-123324500D01*
X165595943Y-123324500D01*
X165443216Y-123365423D01*
X165443209Y-123365426D01*
X165306290Y-123444475D01*
X165306282Y-123444481D01*
X165194481Y-123556282D01*
X165194475Y-123556290D01*
X165115426Y-123693209D01*
X165115423Y-123693216D01*
X165074500Y-123845943D01*
X132421263Y-123845943D01*
X132526106Y-123701639D01*
X132636904Y-123484185D01*
X132712321Y-123252076D01*
X132750500Y-123011027D01*
X132750500Y-122818995D01*
X149299499Y-122818995D01*
X149326418Y-122954322D01*
X149326421Y-122954332D01*
X149379221Y-123081804D01*
X149379228Y-123081817D01*
X149455885Y-123196541D01*
X149455888Y-123196545D01*
X149553454Y-123294111D01*
X149553458Y-123294114D01*
X149668182Y-123370771D01*
X149668195Y-123370778D01*
X149795667Y-123423578D01*
X149795672Y-123423580D01*
X149795676Y-123423580D01*
X149795677Y-123423581D01*
X149931004Y-123450500D01*
X149931007Y-123450500D01*
X150068995Y-123450500D01*
X150160041Y-123432389D01*
X150204328Y-123423580D01*
X150331811Y-123370775D01*
X150446542Y-123294114D01*
X150544114Y-123196542D01*
X150620775Y-123081811D01*
X150673580Y-122954328D01*
X150699488Y-122824081D01*
X150700500Y-122818995D01*
X150700500Y-122681004D01*
X150673581Y-122545677D01*
X150673580Y-122545676D01*
X150673580Y-122545672D01*
X150673302Y-122545000D01*
X150620778Y-122418195D01*
X150620768Y-122418177D01*
X150619092Y-122415668D01*
X150577130Y-122352869D01*
X151726500Y-122352869D01*
X151726500Y-122510562D01*
X151757261Y-122665205D01*
X151757264Y-122665217D01*
X151817602Y-122810888D01*
X151817609Y-122810901D01*
X151905210Y-122942004D01*
X151905213Y-122942008D01*
X152016707Y-123053502D01*
X152016711Y-123053505D01*
X152147814Y-123141106D01*
X152147827Y-123141113D01*
X152281654Y-123196545D01*
X152293503Y-123201453D01*
X152401329Y-123222901D01*
X152448153Y-123232215D01*
X152448156Y-123232216D01*
X152448158Y-123232216D01*
X152605844Y-123232216D01*
X152605845Y-123232215D01*
X152760497Y-123201453D01*
X152906179Y-123141110D01*
X153037289Y-123053505D01*
X153148789Y-122942005D01*
X153236394Y-122810895D01*
X153296737Y-122665213D01*
X153327500Y-122510558D01*
X153327500Y-122352874D01*
X153327500Y-122352871D01*
X153327499Y-122352869D01*
X153296737Y-122198219D01*
X153274089Y-122143543D01*
X153266621Y-122074076D01*
X153297896Y-122011596D01*
X153357985Y-121975944D01*
X153427810Y-121978438D01*
X153476332Y-122008411D01*
X153539707Y-122071786D01*
X153539711Y-122071789D01*
X153670814Y-122159390D01*
X153670827Y-122159397D01*
X153816498Y-122219735D01*
X153816503Y-122219737D01*
X153960586Y-122248397D01*
X153971153Y-122250499D01*
X153971156Y-122250500D01*
X153971158Y-122250500D01*
X154128844Y-122250500D01*
X154128845Y-122250499D01*
X154283497Y-122219737D01*
X154425811Y-122160789D01*
X154429172Y-122159397D01*
X154429172Y-122159396D01*
X154429179Y-122159394D01*
X154560289Y-122071789D01*
X154671789Y-121960289D01*
X154759394Y-121829179D01*
X154819737Y-121683497D01*
X154850500Y-121528842D01*
X154850500Y-121460153D01*
X156171500Y-121460153D01*
X156171500Y-121617846D01*
X156202261Y-121772489D01*
X156202264Y-121772501D01*
X156262602Y-121918172D01*
X156262609Y-121918185D01*
X156350210Y-122049288D01*
X156350213Y-122049292D01*
X156461707Y-122160786D01*
X156461711Y-122160789D01*
X156592814Y-122248390D01*
X156592827Y-122248397D01*
X156727540Y-122304196D01*
X156738503Y-122308737D01*
X156893153Y-122339499D01*
X156893156Y-122339500D01*
X156893158Y-122339500D01*
X157050844Y-122339500D01*
X157050845Y-122339499D01*
X157205497Y-122308737D01*
X157319041Y-122261705D01*
X157388507Y-122254237D01*
X157435379Y-122273164D01*
X157481821Y-122304195D01*
X157481822Y-122304195D01*
X157481823Y-122304196D01*
X157599331Y-122352869D01*
X157627503Y-122364538D01*
X157782153Y-122395300D01*
X157782156Y-122395301D01*
X157782158Y-122395301D01*
X157939844Y-122395301D01*
X157939845Y-122395300D01*
X158094497Y-122364538D01*
X158229216Y-122308736D01*
X158240172Y-122304198D01*
X158240172Y-122304197D01*
X158240179Y-122304195D01*
X158371289Y-122216590D01*
X158379879Y-122207999D01*
X158441197Y-122174515D01*
X158510889Y-122179497D01*
X158514964Y-122181099D01*
X158516503Y-122181737D01*
X158516509Y-122181738D01*
X158516511Y-122181739D01*
X158671153Y-122212499D01*
X158671156Y-122212500D01*
X158671158Y-122212500D01*
X158828844Y-122212500D01*
X158828845Y-122212499D01*
X158983497Y-122181737D01*
X159129179Y-122121394D01*
X159260289Y-122033789D01*
X159371789Y-121922289D01*
X159378834Y-121911746D01*
X172149900Y-121911746D01*
X172149900Y-122128254D01*
X172163891Y-122216590D01*
X172183770Y-122342098D01*
X172250672Y-122548006D01*
X172250673Y-122548009D01*
X172318440Y-122681007D01*
X172348967Y-122740919D01*
X172476228Y-122916078D01*
X172476230Y-122916080D01*
X172492469Y-122932319D01*
X172525954Y-122993642D01*
X172520970Y-123063334D01*
X172492469Y-123107681D01*
X172476230Y-123123919D01*
X172476230Y-123123920D01*
X172476228Y-123123922D01*
X172463738Y-123141113D01*
X172348967Y-123299080D01*
X172250673Y-123491990D01*
X172250672Y-123491993D01*
X172183770Y-123697901D01*
X172173153Y-123764934D01*
X172149900Y-123911746D01*
X172149900Y-124128254D01*
X172160988Y-124198261D01*
X172183770Y-124342098D01*
X172250672Y-124548006D01*
X172250673Y-124548009D01*
X172304708Y-124654057D01*
X172348967Y-124740919D01*
X172476228Y-124916078D01*
X172629322Y-125069172D01*
X172804481Y-125196433D01*
X172883680Y-125236787D01*
X172997390Y-125294726D01*
X172997393Y-125294727D01*
X173100347Y-125328178D01*
X173203303Y-125361630D01*
X173417146Y-125395500D01*
X173417147Y-125395500D01*
X173633653Y-125395500D01*
X173633654Y-125395500D01*
X173847497Y-125361630D01*
X174053409Y-125294726D01*
X174246319Y-125196433D01*
X174421478Y-125069172D01*
X174574572Y-124916078D01*
X174701833Y-124740919D01*
X174800126Y-124548009D01*
X174867030Y-124342097D01*
X174900900Y-124128254D01*
X174900900Y-123911746D01*
X174867030Y-123697903D01*
X174800126Y-123491991D01*
X174800126Y-123491990D01*
X174750042Y-123393697D01*
X174701833Y-123299081D01*
X174574572Y-123123922D01*
X174558331Y-123107681D01*
X174524846Y-123046358D01*
X174529830Y-122976666D01*
X174558331Y-122932319D01*
X174574572Y-122916078D01*
X174701833Y-122740919D01*
X174800126Y-122548009D01*
X174867030Y-122342097D01*
X174900900Y-122128254D01*
X174900900Y-121911746D01*
X174867030Y-121697903D01*
X174823164Y-121562896D01*
X174800127Y-121491993D01*
X174800126Y-121491990D01*
X174719196Y-121333158D01*
X174701833Y-121299081D01*
X174574572Y-121123922D01*
X174421478Y-120970828D01*
X174246319Y-120843567D01*
X174218919Y-120829606D01*
X174053409Y-120745273D01*
X174053406Y-120745272D01*
X173847498Y-120678370D01*
X173740575Y-120661435D01*
X173633654Y-120644500D01*
X173417146Y-120644500D01*
X173385578Y-120649500D01*
X173203301Y-120678370D01*
X172997393Y-120745272D01*
X172997390Y-120745273D01*
X172804480Y-120843567D01*
X172746893Y-120885407D01*
X172629322Y-120970828D01*
X172629320Y-120970830D01*
X172629319Y-120970830D01*
X172476230Y-121123919D01*
X172476230Y-121123920D01*
X172476228Y-121123922D01*
X172436567Y-121178510D01*
X172348967Y-121299080D01*
X172250673Y-121491990D01*
X172250672Y-121491993D01*
X172183770Y-121697901D01*
X172155099Y-121878923D01*
X172149900Y-121911746D01*
X159378834Y-121911746D01*
X159408471Y-121867390D01*
X159428121Y-121837983D01*
X159459390Y-121791185D01*
X159459390Y-121791184D01*
X159459394Y-121791179D01*
X159519737Y-121645497D01*
X159550500Y-121490842D01*
X159550500Y-121333158D01*
X159550500Y-121333155D01*
X159550499Y-121333153D01*
X159531341Y-121236842D01*
X159519737Y-121178503D01*
X159491936Y-121111384D01*
X159459397Y-121032827D01*
X159459390Y-121032814D01*
X159371789Y-120901711D01*
X159371786Y-120901707D01*
X159260292Y-120790213D01*
X159260288Y-120790210D01*
X159129185Y-120702609D01*
X159129172Y-120702602D01*
X158983501Y-120642264D01*
X158983489Y-120642261D01*
X158828845Y-120611500D01*
X158828842Y-120611500D01*
X158671158Y-120611500D01*
X158671155Y-120611500D01*
X158516510Y-120642261D01*
X158516498Y-120642264D01*
X158370827Y-120702602D01*
X158370814Y-120702609D01*
X158239714Y-120790208D01*
X158239706Y-120790215D01*
X158231113Y-120798807D01*
X158169788Y-120832287D01*
X158100096Y-120827297D01*
X158095991Y-120825682D01*
X158094501Y-120825065D01*
X158094494Y-120825062D01*
X157939845Y-120794301D01*
X157939842Y-120794301D01*
X157782158Y-120794301D01*
X157782155Y-120794301D01*
X157627510Y-120825062D01*
X157627498Y-120825065D01*
X157513960Y-120872094D01*
X157444491Y-120879563D01*
X157397618Y-120860635D01*
X157372073Y-120843567D01*
X157351184Y-120829609D01*
X157351181Y-120829607D01*
X157351179Y-120829606D01*
X157351176Y-120829604D01*
X157351171Y-120829602D01*
X157205501Y-120769264D01*
X157205489Y-120769261D01*
X157050845Y-120738500D01*
X157050842Y-120738500D01*
X156893158Y-120738500D01*
X156893155Y-120738500D01*
X156738510Y-120769261D01*
X156738498Y-120769264D01*
X156592827Y-120829602D01*
X156592814Y-120829609D01*
X156461711Y-120917210D01*
X156461707Y-120917213D01*
X156350213Y-121028707D01*
X156350210Y-121028711D01*
X156262609Y-121159814D01*
X156262602Y-121159827D01*
X156202264Y-121305498D01*
X156202261Y-121305510D01*
X156171500Y-121460153D01*
X154850500Y-121460153D01*
X154850500Y-121371158D01*
X154850500Y-121371155D01*
X154850499Y-121371153D01*
X154836163Y-121299080D01*
X154819737Y-121216503D01*
X154781389Y-121123922D01*
X154759397Y-121070827D01*
X154759390Y-121070814D01*
X154671789Y-120939711D01*
X154671786Y-120939707D01*
X154560292Y-120828213D01*
X154560288Y-120828210D01*
X154429185Y-120740609D01*
X154429172Y-120740602D01*
X154283501Y-120680264D01*
X154283489Y-120680261D01*
X154128845Y-120649500D01*
X154128842Y-120649500D01*
X153971158Y-120649500D01*
X153971155Y-120649500D01*
X153816510Y-120680261D01*
X153816498Y-120680264D01*
X153670827Y-120740602D01*
X153670814Y-120740609D01*
X153539711Y-120828210D01*
X153539707Y-120828213D01*
X153428213Y-120939707D01*
X153428210Y-120939711D01*
X153340609Y-121070814D01*
X153340602Y-121070827D01*
X153280264Y-121216498D01*
X153280261Y-121216510D01*
X153249500Y-121371153D01*
X153249500Y-121528846D01*
X153280261Y-121683489D01*
X153280264Y-121683501D01*
X153302909Y-121738171D01*
X153310378Y-121807640D01*
X153279102Y-121870119D01*
X153219013Y-121905771D01*
X153149188Y-121903277D01*
X153100667Y-121873304D01*
X153037292Y-121809929D01*
X153037288Y-121809926D01*
X152906185Y-121722325D01*
X152906172Y-121722318D01*
X152760501Y-121661980D01*
X152760489Y-121661977D01*
X152605845Y-121631216D01*
X152605842Y-121631216D01*
X152448158Y-121631216D01*
X152448155Y-121631216D01*
X152293510Y-121661977D01*
X152293498Y-121661980D01*
X152147827Y-121722318D01*
X152147814Y-121722325D01*
X152016711Y-121809926D01*
X152016707Y-121809929D01*
X151905213Y-121921423D01*
X151905210Y-121921427D01*
X151817609Y-122052530D01*
X151817602Y-122052543D01*
X151757264Y-122198214D01*
X151757261Y-122198226D01*
X151726500Y-122352869D01*
X150577130Y-122352869D01*
X150544114Y-122303458D01*
X150544111Y-122303454D01*
X150446545Y-122205888D01*
X150446541Y-122205885D01*
X150331817Y-122129228D01*
X150331804Y-122129221D01*
X150204332Y-122076421D01*
X150204322Y-122076418D01*
X150068995Y-122049500D01*
X150068993Y-122049500D01*
X149931007Y-122049500D01*
X149931005Y-122049500D01*
X149795677Y-122076418D01*
X149795667Y-122076421D01*
X149668195Y-122129221D01*
X149668182Y-122129228D01*
X149553458Y-122205885D01*
X149553454Y-122205888D01*
X149455888Y-122303454D01*
X149455885Y-122303458D01*
X149379228Y-122418182D01*
X149379221Y-122418195D01*
X149326421Y-122545667D01*
X149326418Y-122545677D01*
X149299500Y-122681004D01*
X149299500Y-122681007D01*
X149299500Y-122818993D01*
X149299500Y-122818995D01*
X149299499Y-122818995D01*
X132750500Y-122818995D01*
X132750500Y-122766973D01*
X132750500Y-122766972D01*
X132738992Y-122694312D01*
X132715818Y-122548006D01*
X132712321Y-122525924D01*
X132636904Y-122293815D01*
X132526106Y-122076361D01*
X132453149Y-121975944D01*
X132382660Y-121878923D01*
X132382656Y-121878918D01*
X132210081Y-121706343D01*
X132210076Y-121706339D01*
X132012642Y-121562896D01*
X132012641Y-121562895D01*
X132012639Y-121562894D01*
X131795185Y-121452096D01*
X131563076Y-121376679D01*
X131563074Y-121376678D01*
X131563072Y-121376678D01*
X131394769Y-121350021D01*
X131322027Y-121338500D01*
X131077973Y-121338500D01*
X131022093Y-121347350D01*
X130836927Y-121376678D01*
X130604812Y-121452097D01*
X130387357Y-121562896D01*
X130189923Y-121706339D01*
X130189918Y-121706343D01*
X130017343Y-121878918D01*
X130017339Y-121878923D01*
X129873896Y-122076357D01*
X129763097Y-122293812D01*
X129763096Y-122293814D01*
X129763096Y-122293815D01*
X129743907Y-122352874D01*
X129687678Y-122525927D01*
X129653627Y-122740919D01*
X129649500Y-122766973D01*
X126172641Y-122766973D01*
X126086872Y-122648922D01*
X126070631Y-122632681D01*
X126037146Y-122571358D01*
X126042130Y-122501666D01*
X126070631Y-122457319D01*
X126086872Y-122441078D01*
X126214133Y-122265919D01*
X126312426Y-122073009D01*
X126379330Y-121867097D01*
X126413200Y-121653254D01*
X126413200Y-121436746D01*
X126379330Y-121222903D01*
X126332624Y-121079155D01*
X126332623Y-121079153D01*
X144614500Y-121079153D01*
X144614500Y-121236846D01*
X144645261Y-121391489D01*
X144645264Y-121391501D01*
X144705602Y-121537172D01*
X144705609Y-121537185D01*
X144793210Y-121668288D01*
X144793213Y-121668292D01*
X144904707Y-121779786D01*
X144904711Y-121779789D01*
X145035814Y-121867390D01*
X145035827Y-121867397D01*
X145181498Y-121927735D01*
X145181503Y-121927737D01*
X145336153Y-121958499D01*
X145336156Y-121958500D01*
X145336158Y-121958500D01*
X145493844Y-121958500D01*
X145493845Y-121958499D01*
X145648497Y-121927737D01*
X145794179Y-121867394D01*
X145794624Y-121867097D01*
X145795941Y-121866216D01*
X145925289Y-121779789D01*
X146036789Y-121668289D01*
X146124394Y-121537179D01*
X146127847Y-121528844D01*
X146138067Y-121504166D01*
X146184737Y-121391497D01*
X146215500Y-121236842D01*
X146215500Y-121079158D01*
X146215500Y-121079155D01*
X146215499Y-121079153D01*
X146206283Y-121032821D01*
X146184737Y-120924503D01*
X146168543Y-120885407D01*
X146124397Y-120778827D01*
X146124390Y-120778814D01*
X146036789Y-120647711D01*
X146036786Y-120647707D01*
X145925292Y-120536213D01*
X145925288Y-120536210D01*
X145794185Y-120448609D01*
X145794172Y-120448602D01*
X145648501Y-120388264D01*
X145648489Y-120388261D01*
X145493845Y-120357500D01*
X145493842Y-120357500D01*
X145336158Y-120357500D01*
X145336155Y-120357500D01*
X145181510Y-120388261D01*
X145181498Y-120388264D01*
X145035827Y-120448602D01*
X145035814Y-120448609D01*
X144904711Y-120536210D01*
X144904707Y-120536213D01*
X144793213Y-120647707D01*
X144793210Y-120647711D01*
X144705609Y-120778814D01*
X144705602Y-120778827D01*
X144645264Y-120924498D01*
X144645261Y-120924510D01*
X144614500Y-121079153D01*
X126332623Y-121079153D01*
X126312427Y-121016993D01*
X126312426Y-121016990D01*
X126245380Y-120885407D01*
X126214133Y-120824081D01*
X126086872Y-120648922D01*
X125933778Y-120495828D01*
X125758619Y-120368567D01*
X125736899Y-120357500D01*
X125565709Y-120270273D01*
X125565706Y-120270272D01*
X125359798Y-120203370D01*
X125252875Y-120186435D01*
X125145954Y-120169500D01*
X124929446Y-120169500D01*
X124858165Y-120180790D01*
X124715601Y-120203370D01*
X124509693Y-120270272D01*
X124509690Y-120270273D01*
X124316780Y-120368567D01*
X124216845Y-120441174D01*
X124141622Y-120495828D01*
X124141620Y-120495830D01*
X124141619Y-120495830D01*
X123988530Y-120648919D01*
X123988530Y-120648920D01*
X123988528Y-120648922D01*
X123965757Y-120680264D01*
X123861267Y-120824080D01*
X123762973Y-121016990D01*
X123762972Y-121016993D01*
X123696070Y-121222901D01*
X123684004Y-121299081D01*
X123662200Y-121436746D01*
X118610500Y-121436746D01*
X118610500Y-117650153D01*
X137629500Y-117650153D01*
X137629500Y-117807846D01*
X137660261Y-117962489D01*
X137660264Y-117962501D01*
X137720602Y-118108172D01*
X137720609Y-118108185D01*
X137808210Y-118239288D01*
X137808213Y-118239292D01*
X137919707Y-118350786D01*
X137919711Y-118350789D01*
X138050814Y-118438390D01*
X138050827Y-118438397D01*
X138196498Y-118498735D01*
X138196503Y-118498737D01*
X138314454Y-118522199D01*
X138351153Y-118529499D01*
X138351156Y-118529500D01*
X138351158Y-118529500D01*
X138508844Y-118529500D01*
X138508845Y-118529499D01*
X138663497Y-118498737D01*
X138809179Y-118438394D01*
X138940289Y-118350789D01*
X139051789Y-118239289D01*
X139139394Y-118108179D01*
X139199737Y-117962497D01*
X139230500Y-117807842D01*
X139230500Y-117650158D01*
X139230500Y-117650155D01*
X139230499Y-117650153D01*
X139206487Y-117529437D01*
X139199737Y-117495503D01*
X139191996Y-117476814D01*
X139139397Y-117349827D01*
X139139390Y-117349814D01*
X139051789Y-117218711D01*
X139051786Y-117218707D01*
X138940292Y-117107213D01*
X138940288Y-117107210D01*
X138840936Y-117040825D01*
X138796131Y-116987213D01*
X138787424Y-116917888D01*
X138817578Y-116854860D01*
X138840937Y-116834621D01*
X138936042Y-116771073D01*
X138945664Y-116764644D01*
X139057164Y-116653144D01*
X139144769Y-116522034D01*
X139147522Y-116515389D01*
X139186555Y-116421153D01*
X139205112Y-116376352D01*
X139235875Y-116221697D01*
X139235875Y-116126153D01*
X140169500Y-116126153D01*
X140169500Y-116283846D01*
X140200261Y-116438489D01*
X140200264Y-116438501D01*
X140260602Y-116584172D01*
X140260609Y-116584185D01*
X140348210Y-116715288D01*
X140348213Y-116715292D01*
X140459707Y-116826786D01*
X140459710Y-116826788D01*
X140459711Y-116826789D01*
X140487740Y-116845517D01*
X140515248Y-116863898D01*
X140560052Y-116917511D01*
X140568759Y-116986836D01*
X140538604Y-117049863D01*
X140515248Y-117070102D01*
X140459707Y-117107213D01*
X140348213Y-117218707D01*
X140348210Y-117218711D01*
X140260609Y-117349814D01*
X140260602Y-117349827D01*
X140200264Y-117495498D01*
X140200261Y-117495510D01*
X140169500Y-117650153D01*
X140169500Y-117807846D01*
X140200261Y-117962489D01*
X140200264Y-117962501D01*
X140260602Y-118108172D01*
X140260609Y-118108185D01*
X140348210Y-118239288D01*
X140348213Y-118239292D01*
X140459707Y-118350786D01*
X140459711Y-118350789D01*
X140590814Y-118438390D01*
X140590827Y-118438397D01*
X140736498Y-118498735D01*
X140736503Y-118498737D01*
X140854454Y-118522199D01*
X140891153Y-118529499D01*
X140891156Y-118529500D01*
X140891158Y-118529500D01*
X141048844Y-118529500D01*
X141048845Y-118529499D01*
X141203497Y-118498737D01*
X141349179Y-118438394D01*
X141480289Y-118350789D01*
X141591789Y-118239289D01*
X141679394Y-118108179D01*
X141739737Y-117962497D01*
X141770500Y-117807842D01*
X141770500Y-117777153D01*
X143090500Y-117777153D01*
X143090500Y-117934846D01*
X143121261Y-118089489D01*
X143121264Y-118089501D01*
X143181602Y-118235172D01*
X143181609Y-118235185D01*
X143269210Y-118366288D01*
X143269213Y-118366292D01*
X143380707Y-118477786D01*
X143380711Y-118477789D01*
X143511814Y-118565390D01*
X143511827Y-118565397D01*
X143656448Y-118625300D01*
X143657503Y-118625737D01*
X143796056Y-118653297D01*
X143812153Y-118656499D01*
X143812156Y-118656500D01*
X143812158Y-118656500D01*
X143840423Y-118656500D01*
X143907462Y-118676185D01*
X143953217Y-118728989D01*
X143958793Y-118746252D01*
X143959395Y-118746070D01*
X143961165Y-118751906D01*
X144021503Y-118897577D01*
X144021510Y-118897590D01*
X144109111Y-119028693D01*
X144109114Y-119028697D01*
X144220609Y-119140192D01*
X144220612Y-119140194D01*
X144262510Y-119168189D01*
X144307314Y-119221800D01*
X144317619Y-119271291D01*
X144317619Y-119353932D01*
X144348380Y-119508575D01*
X144348383Y-119508587D01*
X144408721Y-119654258D01*
X144408728Y-119654271D01*
X144496329Y-119785374D01*
X144496332Y-119785378D01*
X144607826Y-119896872D01*
X144607830Y-119896875D01*
X144738933Y-119984476D01*
X144738946Y-119984483D01*
X144884617Y-120044821D01*
X144884622Y-120044823D01*
X145039272Y-120075585D01*
X145039275Y-120075586D01*
X145039277Y-120075586D01*
X145196963Y-120075586D01*
X145196964Y-120075585D01*
X145351616Y-120044823D01*
X145497298Y-119984480D01*
X145628408Y-119896875D01*
X145739908Y-119785375D01*
X145827513Y-119654265D01*
X145887856Y-119508583D01*
X145918619Y-119353928D01*
X145918619Y-119196244D01*
X145918619Y-119196241D01*
X145918618Y-119196239D01*
X145887857Y-119041596D01*
X145887856Y-119041589D01*
X145882514Y-119028693D01*
X145827516Y-118895913D01*
X145827509Y-118895900D01*
X145739908Y-118764797D01*
X145739905Y-118764793D01*
X145628412Y-118653300D01*
X145587163Y-118625738D01*
X145586507Y-118625299D01*
X145541704Y-118571687D01*
X145531401Y-118522199D01*
X145531401Y-118439560D01*
X145531400Y-118439558D01*
X145516826Y-118366289D01*
X145500638Y-118284908D01*
X145500636Y-118284903D01*
X145440298Y-118139232D01*
X145440291Y-118139219D01*
X145352690Y-118008116D01*
X145352687Y-118008112D01*
X145241193Y-117896618D01*
X145241189Y-117896615D01*
X145110086Y-117809014D01*
X145110073Y-117809007D01*
X144964402Y-117748669D01*
X144964390Y-117748666D01*
X144809746Y-117717905D01*
X144809743Y-117717905D01*
X144781478Y-117717905D01*
X144714439Y-117698220D01*
X144668684Y-117645416D01*
X144663107Y-117628152D01*
X144662506Y-117628335D01*
X144660735Y-117622498D01*
X144600397Y-117476827D01*
X144600390Y-117476814D01*
X144512789Y-117345711D01*
X144512786Y-117345707D01*
X144401292Y-117234213D01*
X144401288Y-117234210D01*
X144270185Y-117146609D01*
X144270172Y-117146602D01*
X144124501Y-117086264D01*
X144124489Y-117086261D01*
X143969845Y-117055500D01*
X143969842Y-117055500D01*
X143812158Y-117055500D01*
X143812155Y-117055500D01*
X143657510Y-117086261D01*
X143657498Y-117086264D01*
X143511827Y-117146602D01*
X143511814Y-117146609D01*
X143380711Y-117234210D01*
X143380707Y-117234213D01*
X143269213Y-117345707D01*
X143269210Y-117345711D01*
X143181609Y-117476814D01*
X143181602Y-117476827D01*
X143121264Y-117622498D01*
X143121261Y-117622510D01*
X143090500Y-117777153D01*
X141770500Y-117777153D01*
X141770500Y-117650158D01*
X141770500Y-117650155D01*
X141770499Y-117650153D01*
X141746487Y-117529437D01*
X141739737Y-117495503D01*
X141731996Y-117476814D01*
X141679397Y-117349827D01*
X141679390Y-117349814D01*
X141591789Y-117218711D01*
X141591786Y-117218707D01*
X141480292Y-117107213D01*
X141480288Y-117107210D01*
X141424752Y-117070102D01*
X141379947Y-117016490D01*
X141371240Y-116947165D01*
X141401394Y-116884137D01*
X141424752Y-116863898D01*
X141442779Y-116851852D01*
X141480289Y-116826789D01*
X141591789Y-116715289D01*
X141679394Y-116584179D01*
X141739737Y-116438497D01*
X141770500Y-116283842D01*
X141770500Y-116126158D01*
X141770500Y-116126155D01*
X141770499Y-116126153D01*
X141768578Y-116116496D01*
X141739737Y-115971503D01*
X141728039Y-115943261D01*
X141679397Y-115825827D01*
X141679390Y-115825814D01*
X141591789Y-115694711D01*
X141591786Y-115694707D01*
X141480292Y-115583213D01*
X141480288Y-115583210D01*
X141349185Y-115495609D01*
X141349172Y-115495602D01*
X141203501Y-115435264D01*
X141203489Y-115435261D01*
X141048845Y-115404500D01*
X141048842Y-115404500D01*
X140891158Y-115404500D01*
X140891155Y-115404500D01*
X140736510Y-115435261D01*
X140736498Y-115435264D01*
X140590827Y-115495602D01*
X140590814Y-115495609D01*
X140459711Y-115583210D01*
X140459707Y-115583213D01*
X140348213Y-115694707D01*
X140348210Y-115694711D01*
X140260609Y-115825814D01*
X140260602Y-115825827D01*
X140200264Y-115971498D01*
X140200261Y-115971510D01*
X140169500Y-116126153D01*
X139235875Y-116126153D01*
X139235875Y-116064013D01*
X139235875Y-116064010D01*
X139235874Y-116064008D01*
X139224613Y-116007396D01*
X139205112Y-115909358D01*
X139205110Y-115909353D01*
X139144772Y-115763682D01*
X139144765Y-115763669D01*
X139057164Y-115632566D01*
X139057161Y-115632562D01*
X138945667Y-115521068D01*
X138945663Y-115521065D01*
X138814560Y-115433464D01*
X138814547Y-115433457D01*
X138668876Y-115373119D01*
X138668864Y-115373116D01*
X138514220Y-115342355D01*
X138514217Y-115342355D01*
X138356533Y-115342355D01*
X138356530Y-115342355D01*
X138201885Y-115373116D01*
X138201873Y-115373119D01*
X138056202Y-115433457D01*
X138056189Y-115433464D01*
X137925086Y-115521065D01*
X137925082Y-115521068D01*
X137813588Y-115632562D01*
X137813585Y-115632566D01*
X137725984Y-115763669D01*
X137725977Y-115763682D01*
X137665639Y-115909353D01*
X137665636Y-115909365D01*
X137634875Y-116064008D01*
X137634875Y-116221701D01*
X137665636Y-116376344D01*
X137665639Y-116376354D01*
X137725977Y-116522027D01*
X137725984Y-116522040D01*
X137813585Y-116653143D01*
X137813588Y-116653147D01*
X137925085Y-116764644D01*
X138024438Y-116831029D01*
X138069243Y-116884641D01*
X138077950Y-116953966D01*
X138047796Y-117016993D01*
X138024439Y-117037233D01*
X137919707Y-117107213D01*
X137808213Y-117218707D01*
X137808210Y-117218711D01*
X137720609Y-117349814D01*
X137720602Y-117349827D01*
X137660264Y-117495498D01*
X137660261Y-117495510D01*
X137629500Y-117650153D01*
X118610500Y-117650153D01*
X118610500Y-113986746D01*
X123662200Y-113986746D01*
X123662200Y-114203254D01*
X123673928Y-114277303D01*
X123696070Y-114417098D01*
X123762972Y-114623006D01*
X123762973Y-114623009D01*
X123856064Y-114805707D01*
X123861267Y-114815919D01*
X123988528Y-114991078D01*
X123988530Y-114991080D01*
X124004769Y-115007319D01*
X124038254Y-115068642D01*
X124033270Y-115138334D01*
X124004769Y-115182681D01*
X123988530Y-115198919D01*
X123988530Y-115198920D01*
X123988528Y-115198922D01*
X123960750Y-115237155D01*
X123861267Y-115374080D01*
X123762973Y-115566990D01*
X123762972Y-115566993D01*
X123696070Y-115772901D01*
X123679390Y-115878213D01*
X123662200Y-115986746D01*
X123662200Y-116203254D01*
X123672703Y-116269564D01*
X123696070Y-116417098D01*
X123762972Y-116623006D01*
X123762973Y-116623009D01*
X123859531Y-116812511D01*
X123861267Y-116815919D01*
X123988528Y-116991078D01*
X124141622Y-117144172D01*
X124316781Y-117271433D01*
X124373826Y-117300499D01*
X124509690Y-117369726D01*
X124509693Y-117369727D01*
X124607920Y-117401642D01*
X124715603Y-117436630D01*
X124929446Y-117470500D01*
X124929447Y-117470500D01*
X125145953Y-117470500D01*
X125145954Y-117470500D01*
X125359797Y-117436630D01*
X125565709Y-117369726D01*
X125758619Y-117271433D01*
X125933778Y-117144172D01*
X126086872Y-116991078D01*
X126214133Y-116815919D01*
X126312426Y-116623009D01*
X126379330Y-116417097D01*
X126413200Y-116203254D01*
X126413200Y-115986746D01*
X126379330Y-115772903D01*
X126339235Y-115649502D01*
X126312427Y-115566993D01*
X126312426Y-115566990D01*
X126244387Y-115433457D01*
X126214133Y-115374081D01*
X126086872Y-115198922D01*
X126070631Y-115182681D01*
X126037146Y-115121358D01*
X126042130Y-115051666D01*
X126070631Y-115007319D01*
X126070853Y-115007097D01*
X126086872Y-114991078D01*
X126214133Y-114815919D01*
X126312426Y-114623009D01*
X126319201Y-114602158D01*
X126319203Y-114602153D01*
X139026500Y-114602153D01*
X139026500Y-114759846D01*
X139057261Y-114914489D01*
X139057264Y-114914501D01*
X139117602Y-115060172D01*
X139117609Y-115060185D01*
X139205210Y-115191288D01*
X139205213Y-115191292D01*
X139316707Y-115302786D01*
X139316711Y-115302789D01*
X139447814Y-115390390D01*
X139447827Y-115390397D01*
X139593498Y-115450735D01*
X139593503Y-115450737D01*
X139748153Y-115481499D01*
X139748156Y-115481500D01*
X139748158Y-115481500D01*
X139905844Y-115481500D01*
X139905845Y-115481499D01*
X140060497Y-115450737D01*
X140173166Y-115404067D01*
X140206172Y-115390397D01*
X140206172Y-115390396D01*
X140206179Y-115390394D01*
X140337289Y-115302789D01*
X140448789Y-115191289D01*
X140536394Y-115060179D01*
X140541113Y-115048786D01*
X140599068Y-114908870D01*
X140601746Y-114909979D01*
X140633139Y-114861888D01*
X140696900Y-114833316D01*
X140765986Y-114843751D01*
X140801354Y-114868495D01*
X140840707Y-114907848D01*
X140840711Y-114907851D01*
X140971814Y-114995452D01*
X140971827Y-114995459D01*
X141100572Y-115048786D01*
X141117503Y-115055799D01*
X141272153Y-115086561D01*
X141272156Y-115086562D01*
X141272158Y-115086562D01*
X141429844Y-115086562D01*
X141429845Y-115086561D01*
X141584497Y-115055799D01*
X141730179Y-114995456D01*
X141843181Y-114919949D01*
X141909856Y-114899073D01*
X141977236Y-114917557D01*
X141980961Y-114919951D01*
X141983709Y-114921787D01*
X141983711Y-114921789D01*
X142114821Y-115009394D01*
X142114823Y-115009395D01*
X142114827Y-115009397D01*
X142237442Y-115060185D01*
X142260503Y-115069737D01*
X142387508Y-115095000D01*
X142415153Y-115100499D01*
X142415156Y-115100500D01*
X142415158Y-115100500D01*
X142572844Y-115100500D01*
X142572845Y-115100499D01*
X142727497Y-115069737D01*
X142873179Y-115009394D01*
X143004289Y-114921789D01*
X143115789Y-114810289D01*
X143203394Y-114679179D01*
X143263737Y-114533497D01*
X143294500Y-114378842D01*
X143294500Y-114378840D01*
X143295505Y-114373788D01*
X143327889Y-114311877D01*
X143388605Y-114277303D01*
X143458375Y-114281042D01*
X143515047Y-114321908D01*
X143531683Y-114350526D01*
X143562604Y-114425175D01*
X143562609Y-114425185D01*
X143650210Y-114556288D01*
X143650213Y-114556292D01*
X143761707Y-114667786D01*
X143761711Y-114667789D01*
X143892814Y-114755390D01*
X143892827Y-114755397D01*
X144038498Y-114815735D01*
X144038503Y-114815737D01*
X144179338Y-114843751D01*
X144193153Y-114846499D01*
X144193156Y-114846500D01*
X144193158Y-114846500D01*
X144350844Y-114846500D01*
X144350845Y-114846499D01*
X144505497Y-114815737D01*
X144640431Y-114759846D01*
X144651172Y-114755397D01*
X144651172Y-114755396D01*
X144651179Y-114755394D01*
X144782289Y-114667789D01*
X144893789Y-114556289D01*
X144981394Y-114425179D01*
X145041737Y-114279497D01*
X145072500Y-114124842D01*
X145072500Y-113967158D01*
X145072500Y-113967155D01*
X145072499Y-113967153D01*
X145063283Y-113920821D01*
X145041737Y-113812503D01*
X145026523Y-113775773D01*
X144981397Y-113666827D01*
X144981390Y-113666814D01*
X144893789Y-113535711D01*
X144893786Y-113535707D01*
X144782292Y-113424213D01*
X144782288Y-113424210D01*
X144651185Y-113336609D01*
X144651172Y-113336602D01*
X144505501Y-113276264D01*
X144505489Y-113276261D01*
X144350845Y-113245500D01*
X144350842Y-113245500D01*
X144193158Y-113245500D01*
X144193155Y-113245500D01*
X144038510Y-113276261D01*
X144038498Y-113276264D01*
X143892827Y-113336602D01*
X143892814Y-113336609D01*
X143761711Y-113424210D01*
X143761707Y-113424213D01*
X143650213Y-113535707D01*
X143650210Y-113535711D01*
X143562609Y-113666814D01*
X143562602Y-113666827D01*
X143502264Y-113812498D01*
X143502261Y-113812508D01*
X143470494Y-113972212D01*
X143438109Y-114034123D01*
X143377393Y-114068697D01*
X143307624Y-114064957D01*
X143250952Y-114024090D01*
X143234316Y-113995473D01*
X143203395Y-113920823D01*
X143203390Y-113920814D01*
X143115789Y-113789711D01*
X143115786Y-113789707D01*
X143004292Y-113678213D01*
X143004288Y-113678210D01*
X142873185Y-113590609D01*
X142873172Y-113590602D01*
X142727501Y-113530264D01*
X142727489Y-113530261D01*
X142572845Y-113499500D01*
X142572842Y-113499500D01*
X142415158Y-113499500D01*
X142415155Y-113499500D01*
X142260510Y-113530261D01*
X142260498Y-113530264D01*
X142114827Y-113590602D01*
X142114814Y-113590609D01*
X142001820Y-113666110D01*
X141935142Y-113686988D01*
X141867762Y-113668503D01*
X141864038Y-113666110D01*
X141861287Y-113664272D01*
X141804758Y-113626500D01*
X141730185Y-113576671D01*
X141730172Y-113576664D01*
X141584501Y-113516326D01*
X141584489Y-113516323D01*
X141429845Y-113485562D01*
X141429842Y-113485562D01*
X141272158Y-113485562D01*
X141272155Y-113485562D01*
X141117510Y-113516323D01*
X141117498Y-113516326D01*
X140971827Y-113576664D01*
X140971814Y-113576671D01*
X140840711Y-113664272D01*
X140840707Y-113664275D01*
X140729213Y-113775769D01*
X140729210Y-113775773D01*
X140641609Y-113906876D01*
X140641602Y-113906889D01*
X140578932Y-114058192D01*
X140576429Y-114057155D01*
X140544083Y-114105831D01*
X140480091Y-114133879D01*
X140411093Y-114122877D01*
X140376645Y-114098566D01*
X140337292Y-114059213D01*
X140337288Y-114059210D01*
X140206185Y-113971609D01*
X140206172Y-113971602D01*
X140060501Y-113911264D01*
X140060489Y-113911261D01*
X139905845Y-113880500D01*
X139905842Y-113880500D01*
X139748158Y-113880500D01*
X139748155Y-113880500D01*
X139593510Y-113911261D01*
X139593498Y-113911264D01*
X139447827Y-113971602D01*
X139447814Y-113971609D01*
X139316711Y-114059210D01*
X139316707Y-114059213D01*
X139205213Y-114170707D01*
X139205210Y-114170711D01*
X139117609Y-114301814D01*
X139117602Y-114301827D01*
X139057264Y-114447498D01*
X139057261Y-114447510D01*
X139026500Y-114602153D01*
X126319203Y-114602153D01*
X126333631Y-114557748D01*
X126333631Y-114557747D01*
X126379329Y-114417100D01*
X126379328Y-114417100D01*
X126379330Y-114417097D01*
X126413200Y-114203254D01*
X126413200Y-113986746D01*
X126379330Y-113772903D01*
X126333114Y-113630664D01*
X126312427Y-113566993D01*
X126312426Y-113566990D01*
X126253523Y-113451388D01*
X126214133Y-113374081D01*
X126086872Y-113198922D01*
X125933778Y-113045828D01*
X125758619Y-112918567D01*
X125731641Y-112904821D01*
X125565709Y-112820273D01*
X125565706Y-112820272D01*
X125359798Y-112753370D01*
X125196930Y-112727574D01*
X125145954Y-112719500D01*
X124929446Y-112719500D01*
X124878470Y-112727574D01*
X124715601Y-112753370D01*
X124509693Y-112820272D01*
X124509690Y-112820273D01*
X124316780Y-112918567D01*
X124216845Y-112991174D01*
X124141622Y-113045828D01*
X124141620Y-113045830D01*
X124141619Y-113045830D01*
X123988530Y-113198919D01*
X123988530Y-113198920D01*
X123988528Y-113198922D01*
X123946840Y-113256301D01*
X123861267Y-113374080D01*
X123762973Y-113566990D01*
X123762972Y-113566993D01*
X123696070Y-113772901D01*
X123664502Y-113972212D01*
X123662200Y-113986746D01*
X118610500Y-113986746D01*
X118610500Y-112609973D01*
X129631500Y-112609973D01*
X129631500Y-112854026D01*
X129668119Y-113085230D01*
X129669679Y-113095076D01*
X129745096Y-113327185D01*
X129851586Y-113536185D01*
X129855896Y-113544642D01*
X129999339Y-113742076D01*
X129999343Y-113742081D01*
X130171918Y-113914656D01*
X130171923Y-113914660D01*
X130318499Y-114021153D01*
X130369361Y-114058106D01*
X130586815Y-114168904D01*
X130818924Y-114244321D01*
X131059973Y-114282500D01*
X131059974Y-114282500D01*
X131304026Y-114282500D01*
X131304027Y-114282500D01*
X131545076Y-114244321D01*
X131777185Y-114168904D01*
X131994639Y-114058106D01*
X132192083Y-113914655D01*
X132364655Y-113742083D01*
X132508106Y-113544639D01*
X132618904Y-113327185D01*
X132694321Y-113095076D01*
X132697001Y-113078153D01*
X137248500Y-113078153D01*
X137248500Y-113235846D01*
X137279261Y-113390489D01*
X137279264Y-113390501D01*
X137339602Y-113536172D01*
X137339609Y-113536185D01*
X137427210Y-113667288D01*
X137427213Y-113667292D01*
X137538707Y-113778786D01*
X137538711Y-113778789D01*
X137669814Y-113866390D01*
X137669827Y-113866397D01*
X137801220Y-113920821D01*
X137815503Y-113926737D01*
X137918337Y-113947192D01*
X137970153Y-113957499D01*
X137970156Y-113957500D01*
X137970158Y-113957500D01*
X138127844Y-113957500D01*
X138127845Y-113957499D01*
X138282497Y-113926737D01*
X138428179Y-113866394D01*
X138559289Y-113778789D01*
X138670789Y-113667289D01*
X138758394Y-113536179D01*
X138760845Y-113530263D01*
X138793516Y-113451386D01*
X138818737Y-113390497D01*
X138849500Y-113235842D01*
X138849500Y-113098608D01*
X146303500Y-113098608D01*
X146303500Y-113256301D01*
X146334261Y-113410944D01*
X146334264Y-113410956D01*
X146394602Y-113556627D01*
X146394609Y-113556640D01*
X146482210Y-113687743D01*
X146482213Y-113687747D01*
X146593707Y-113799241D01*
X146593711Y-113799244D01*
X146724814Y-113886845D01*
X146724827Y-113886852D01*
X146821122Y-113926738D01*
X146870503Y-113947192D01*
X147025153Y-113977954D01*
X147025156Y-113977955D01*
X147025158Y-113977955D01*
X147182844Y-113977955D01*
X147182845Y-113977954D01*
X147337497Y-113947192D01*
X147483179Y-113886849D01*
X147483184Y-113886845D01*
X147483187Y-113886844D01*
X147513798Y-113866390D01*
X147584398Y-113819216D01*
X147651073Y-113798338D01*
X147718454Y-113816822D01*
X147740969Y-113834637D01*
X147812118Y-113905786D01*
X147812122Y-113905789D01*
X147943225Y-113993390D01*
X147943238Y-113993397D01*
X148088909Y-114053735D01*
X148088914Y-114053737D01*
X148243564Y-114084499D01*
X148243567Y-114084500D01*
X148243569Y-114084500D01*
X148401255Y-114084500D01*
X148401256Y-114084499D01*
X148555908Y-114053737D01*
X148701590Y-113993394D01*
X148832700Y-113905789D01*
X148944200Y-113794289D01*
X149031805Y-113663179D01*
X149034256Y-113657263D01*
X149062312Y-113589527D01*
X149092148Y-113517497D01*
X149122911Y-113362842D01*
X149122911Y-113205158D01*
X149122911Y-113205155D01*
X149122910Y-113205153D01*
X149121670Y-113198919D01*
X149092148Y-113050503D01*
X149048014Y-112943953D01*
X149031808Y-112904827D01*
X149031801Y-112904814D01*
X148964204Y-112803649D01*
X150862277Y-112803649D01*
X150891118Y-112948636D01*
X150891121Y-112948646D01*
X150947690Y-113085217D01*
X150947697Y-113085230D01*
X151029826Y-113208144D01*
X151029829Y-113208148D01*
X151134358Y-113312677D01*
X151134362Y-113312680D01*
X151257276Y-113394809D01*
X151257289Y-113394816D01*
X151385398Y-113447880D01*
X151393865Y-113451387D01*
X151393869Y-113451387D01*
X151393870Y-113451388D01*
X151538857Y-113480229D01*
X151538860Y-113480229D01*
X151686698Y-113480229D01*
X151784240Y-113460825D01*
X151831691Y-113451387D01*
X151952885Y-113401186D01*
X152022351Y-113393718D01*
X152047779Y-113401184D01*
X152099074Y-113422431D01*
X152099078Y-113422431D01*
X152099079Y-113422432D01*
X152244066Y-113451273D01*
X152244069Y-113451273D01*
X152391907Y-113451273D01*
X152536895Y-113422432D01*
X152536895Y-113422431D01*
X152536900Y-113422431D01*
X152595325Y-113398229D01*
X152664792Y-113390760D01*
X152711670Y-113409688D01*
X152719745Y-113415084D01*
X152719747Y-113415084D01*
X152719751Y-113415087D01*
X152856322Y-113471656D01*
X152856327Y-113471658D01*
X152856331Y-113471658D01*
X152856332Y-113471659D01*
X153001319Y-113500500D01*
X153001322Y-113500500D01*
X153149160Y-113500500D01*
X153251065Y-113480229D01*
X153294153Y-113471658D01*
X153430735Y-113415084D01*
X153446874Y-113404299D01*
X153513551Y-113383421D01*
X153563218Y-113392839D01*
X153626467Y-113419038D01*
X153626471Y-113419038D01*
X153626472Y-113419039D01*
X153771459Y-113447880D01*
X153826608Y-113447880D01*
X153893647Y-113467565D01*
X153939402Y-113520369D01*
X153949346Y-113589527D01*
X153920321Y-113653083D01*
X153874060Y-113686441D01*
X153798827Y-113717602D01*
X153798814Y-113717609D01*
X153667711Y-113805210D01*
X153667707Y-113805213D01*
X153556213Y-113916707D01*
X153556210Y-113916711D01*
X153468609Y-114047814D01*
X153468602Y-114047827D01*
X153408264Y-114193498D01*
X153408261Y-114193510D01*
X153377500Y-114348153D01*
X153377500Y-114505846D01*
X153408261Y-114660489D01*
X153408264Y-114660501D01*
X153468602Y-114806172D01*
X153468609Y-114806185D01*
X153556210Y-114937288D01*
X153556213Y-114937292D01*
X153667707Y-115048786D01*
X153667711Y-115048789D01*
X153798814Y-115136390D01*
X153798821Y-115136394D01*
X153870400Y-115166042D01*
X153924802Y-115209882D01*
X153946868Y-115276176D01*
X153929590Y-115343875D01*
X153910633Y-115368279D01*
X153906209Y-115372703D01*
X153906203Y-115372710D01*
X153818602Y-115503813D01*
X153818595Y-115503826D01*
X153758257Y-115649497D01*
X153758254Y-115649509D01*
X153727493Y-115804152D01*
X153727493Y-115961845D01*
X153758254Y-116116488D01*
X153758257Y-116116500D01*
X153818595Y-116262171D01*
X153818602Y-116262184D01*
X153906203Y-116393287D01*
X153906206Y-116393291D01*
X154017700Y-116504785D01*
X154017704Y-116504788D01*
X154148807Y-116592389D01*
X154148820Y-116592396D01*
X154249632Y-116634153D01*
X154294496Y-116652736D01*
X154419626Y-116677626D01*
X154449146Y-116683498D01*
X154449149Y-116683499D01*
X154589302Y-116683499D01*
X154656341Y-116703184D01*
X154702096Y-116755988D01*
X154712040Y-116825146D01*
X154703864Y-116854948D01*
X154693825Y-116879185D01*
X154678263Y-116916754D01*
X154678261Y-116916762D01*
X154647500Y-117071405D01*
X154647500Y-117229098D01*
X154678261Y-117383741D01*
X154678264Y-117383753D01*
X154738602Y-117529424D01*
X154738609Y-117529437D01*
X154826210Y-117660540D01*
X154826213Y-117660544D01*
X154937707Y-117772038D01*
X154937711Y-117772041D01*
X155068814Y-117859642D01*
X155068827Y-117859649D01*
X155214498Y-117919987D01*
X155214503Y-117919989D01*
X155369153Y-117950751D01*
X155369156Y-117950752D01*
X155369158Y-117950752D01*
X155526844Y-117950752D01*
X155526845Y-117950751D01*
X155681497Y-117919989D01*
X155827179Y-117859646D01*
X155958289Y-117772041D01*
X156009718Y-117720612D01*
X156071041Y-117687126D01*
X156140733Y-117692110D01*
X156144810Y-117693714D01*
X156230503Y-117729209D01*
X156385153Y-117759971D01*
X156385156Y-117759972D01*
X156385158Y-117759972D01*
X156542844Y-117759972D01*
X156542845Y-117759971D01*
X156697497Y-117729209D01*
X156843179Y-117668866D01*
X156974289Y-117581261D01*
X157085789Y-117469761D01*
X157118073Y-117421443D01*
X157171685Y-117376638D01*
X157241010Y-117367931D01*
X157304038Y-117398085D01*
X157308857Y-117402653D01*
X157419343Y-117513139D01*
X157419347Y-117513142D01*
X157550450Y-117600743D01*
X157550463Y-117600750D01*
X157694821Y-117660544D01*
X157696139Y-117661090D01*
X157827030Y-117687126D01*
X157850789Y-117691852D01*
X157850792Y-117691853D01*
X157850794Y-117691853D01*
X158008480Y-117691853D01*
X158008481Y-117691852D01*
X158163133Y-117661090D01*
X158308815Y-117600747D01*
X158439925Y-117513142D01*
X158551425Y-117401642D01*
X158639030Y-117270532D01*
X158682564Y-117165430D01*
X158726403Y-117111029D01*
X158792697Y-117088963D01*
X158860396Y-117106242D01*
X158900226Y-117143993D01*
X158953210Y-117223288D01*
X158953213Y-117223292D01*
X159064707Y-117334786D01*
X159064711Y-117334789D01*
X159195814Y-117422390D01*
X159195827Y-117422397D01*
X159327220Y-117476821D01*
X159341503Y-117482737D01*
X159494343Y-117513139D01*
X159496153Y-117513499D01*
X159496156Y-117513500D01*
X159496158Y-117513500D01*
X159653844Y-117513500D01*
X159653845Y-117513499D01*
X159808497Y-117482737D01*
X159954179Y-117422394D01*
X160085289Y-117334789D01*
X160196789Y-117223289D01*
X160284394Y-117092179D01*
X160286845Y-117086263D01*
X160326270Y-116991080D01*
X160344737Y-116946497D01*
X160375500Y-116791842D01*
X160375500Y-116634158D01*
X160375500Y-116634155D01*
X160375499Y-116634153D01*
X160367192Y-116592393D01*
X160344737Y-116479503D01*
X160337702Y-116462518D01*
X160320568Y-116421153D01*
X165449500Y-116421153D01*
X165449500Y-116578846D01*
X165480261Y-116733489D01*
X165480264Y-116733501D01*
X165540602Y-116879172D01*
X165540609Y-116879185D01*
X165628210Y-117010288D01*
X165628213Y-117010292D01*
X165739707Y-117121786D01*
X165739711Y-117121789D01*
X165870814Y-117209390D01*
X165870827Y-117209397D01*
X165964121Y-117248040D01*
X166016503Y-117269737D01*
X166171153Y-117300499D01*
X166171156Y-117300500D01*
X166171158Y-117300500D01*
X166328844Y-117300500D01*
X166328845Y-117300499D01*
X166483497Y-117269737D01*
X166629179Y-117209394D01*
X166760289Y-117121789D01*
X166871789Y-117010289D01*
X166959394Y-116879179D01*
X167019737Y-116733497D01*
X167050500Y-116578842D01*
X167050500Y-116421158D01*
X167050500Y-116421155D01*
X167050499Y-116421153D01*
X167038912Y-116362901D01*
X167019737Y-116266503D01*
X166986456Y-116186155D01*
X166959397Y-116120827D01*
X166959390Y-116120814D01*
X166871789Y-115989711D01*
X166871786Y-115989707D01*
X166760292Y-115878213D01*
X166760288Y-115878210D01*
X166629185Y-115790609D01*
X166629172Y-115790602D01*
X166483501Y-115730264D01*
X166483489Y-115730261D01*
X166328845Y-115699500D01*
X166328842Y-115699500D01*
X166171158Y-115699500D01*
X166171155Y-115699500D01*
X166016510Y-115730261D01*
X166016498Y-115730264D01*
X165870827Y-115790602D01*
X165870814Y-115790609D01*
X165739711Y-115878210D01*
X165739707Y-115878213D01*
X165628213Y-115989707D01*
X165628210Y-115989711D01*
X165540609Y-116120814D01*
X165540602Y-116120827D01*
X165480264Y-116266498D01*
X165480261Y-116266510D01*
X165449500Y-116421153D01*
X160320568Y-116421153D01*
X160284397Y-116333827D01*
X160284390Y-116333814D01*
X160196789Y-116202711D01*
X160196786Y-116202707D01*
X160085292Y-116091213D01*
X160085288Y-116091210D01*
X159954185Y-116003609D01*
X159954172Y-116003602D01*
X159808501Y-115943264D01*
X159808489Y-115943261D01*
X159653845Y-115912500D01*
X159653842Y-115912500D01*
X159496158Y-115912500D01*
X159496155Y-115912500D01*
X159341510Y-115943261D01*
X159341498Y-115943264D01*
X159195827Y-116003602D01*
X159195814Y-116003609D01*
X159064711Y-116091210D01*
X159064707Y-116091213D01*
X158953213Y-116202707D01*
X158953210Y-116202711D01*
X158865609Y-116333814D01*
X158865604Y-116333823D01*
X158822072Y-116438921D01*
X158778231Y-116493324D01*
X158711937Y-116515389D01*
X158644238Y-116498110D01*
X158604409Y-116460359D01*
X158551425Y-116381064D01*
X158551422Y-116381060D01*
X158439928Y-116269566D01*
X158439924Y-116269563D01*
X158308821Y-116181962D01*
X158308808Y-116181955D01*
X158163137Y-116121617D01*
X158163127Y-116121614D01*
X158004178Y-116089997D01*
X157942267Y-116057612D01*
X157913808Y-116015829D01*
X157910317Y-116007400D01*
X157910315Y-116007397D01*
X157910315Y-116007396D01*
X157822712Y-115876290D01*
X157822709Y-115876286D01*
X157711215Y-115764792D01*
X157711211Y-115764789D01*
X157580108Y-115677188D01*
X157580095Y-115677181D01*
X157434424Y-115616843D01*
X157434412Y-115616840D01*
X157279768Y-115586079D01*
X157279765Y-115586079D01*
X157122081Y-115586079D01*
X157122078Y-115586079D01*
X156967433Y-115616840D01*
X156967421Y-115616843D01*
X156821750Y-115677181D01*
X156821737Y-115677188D01*
X156690634Y-115764789D01*
X156690630Y-115764792D01*
X156579136Y-115876286D01*
X156579133Y-115876290D01*
X156491532Y-116007393D01*
X156491527Y-116007403D01*
X156467816Y-116064647D01*
X156423975Y-116119050D01*
X156357680Y-116141115D01*
X156289981Y-116123835D01*
X156242371Y-116072698D01*
X156231638Y-116041385D01*
X156217738Y-115971510D01*
X156217737Y-115971503D01*
X156206039Y-115943261D01*
X156157397Y-115825827D01*
X156157390Y-115825814D01*
X156069789Y-115694711D01*
X156069786Y-115694707D01*
X155958292Y-115583213D01*
X155958288Y-115583210D01*
X155913968Y-115553596D01*
X155869163Y-115499983D01*
X155860456Y-115430658D01*
X155861242Y-115426301D01*
X155867500Y-115394842D01*
X155867500Y-115237155D01*
X155867499Y-115237153D01*
X155853354Y-115166041D01*
X155836737Y-115082503D01*
X155806456Y-115009397D01*
X155776397Y-114936827D01*
X155776390Y-114936814D01*
X155688789Y-114805711D01*
X155688786Y-114805707D01*
X155577292Y-114694213D01*
X155577288Y-114694210D01*
X155446185Y-114606609D01*
X155446172Y-114606602D01*
X155300501Y-114546264D01*
X155300489Y-114546261D01*
X155145845Y-114515500D01*
X155145842Y-114515500D01*
X155102500Y-114515500D01*
X155035461Y-114495815D01*
X154989706Y-114443011D01*
X154978500Y-114391500D01*
X154978500Y-114348155D01*
X154978499Y-114348153D01*
X154976057Y-114335876D01*
X154947737Y-114193503D01*
X154887394Y-114047821D01*
X154887390Y-114047814D01*
X154869576Y-114021153D01*
X163849500Y-114021153D01*
X163849500Y-114178846D01*
X163880261Y-114333489D01*
X163880264Y-114333501D01*
X163940602Y-114479172D01*
X163940609Y-114479185D01*
X164028210Y-114610288D01*
X164028213Y-114610292D01*
X164139707Y-114721786D01*
X164139711Y-114721789D01*
X164270814Y-114809390D01*
X164270827Y-114809397D01*
X164416498Y-114869735D01*
X164416503Y-114869737D01*
X164563984Y-114899073D01*
X164571153Y-114900499D01*
X164571156Y-114900500D01*
X164571158Y-114900500D01*
X164728844Y-114900500D01*
X164728845Y-114900499D01*
X164883497Y-114869737D01*
X165029179Y-114809394D01*
X165160289Y-114721789D01*
X165271789Y-114610289D01*
X165294202Y-114576746D01*
X172149900Y-114576746D01*
X172149900Y-114793254D01*
X172160771Y-114861888D01*
X172183770Y-115007098D01*
X172250672Y-115213006D01*
X172250673Y-115213009D01*
X172341057Y-115390394D01*
X172348967Y-115405919D01*
X172476228Y-115581078D01*
X172476230Y-115581080D01*
X172492469Y-115597319D01*
X172525954Y-115658642D01*
X172520970Y-115728334D01*
X172492469Y-115772681D01*
X172476230Y-115788919D01*
X172476230Y-115788920D01*
X172476228Y-115788922D01*
X172449419Y-115825821D01*
X172348967Y-115964080D01*
X172250673Y-116156990D01*
X172250672Y-116156993D01*
X172183770Y-116362901D01*
X172149900Y-116576746D01*
X172149900Y-116793253D01*
X172183770Y-117007098D01*
X172250672Y-117213006D01*
X172250673Y-117213009D01*
X172337667Y-117383741D01*
X172348967Y-117405919D01*
X172476228Y-117581078D01*
X172629322Y-117734172D01*
X172804481Y-117861433D01*
X172873531Y-117896616D01*
X172997390Y-117959726D01*
X172997393Y-117959727D01*
X173100347Y-117993178D01*
X173203303Y-118026630D01*
X173417146Y-118060500D01*
X173417147Y-118060500D01*
X173633653Y-118060500D01*
X173633654Y-118060500D01*
X173847497Y-118026630D01*
X174053409Y-117959726D01*
X174246319Y-117861433D01*
X174421478Y-117734172D01*
X174574572Y-117581078D01*
X174701833Y-117405919D01*
X174800126Y-117213009D01*
X174867030Y-117007097D01*
X174900900Y-116793254D01*
X174900900Y-116576746D01*
X174867030Y-116362903D01*
X174809602Y-116186155D01*
X174800127Y-116156993D01*
X174800126Y-116156990D01*
X174749490Y-116057612D01*
X174701833Y-115964081D01*
X174574572Y-115788922D01*
X174558331Y-115772681D01*
X174524846Y-115711358D01*
X174529830Y-115641666D01*
X174558331Y-115597319D01*
X174574572Y-115581078D01*
X174701833Y-115405919D01*
X174800126Y-115213009D01*
X174867030Y-115007097D01*
X174900900Y-114793254D01*
X174900900Y-114576746D01*
X174867030Y-114362903D01*
X174811992Y-114193510D01*
X174800127Y-114156993D01*
X174800126Y-114156990D01*
X174716770Y-113993397D01*
X174701833Y-113964081D01*
X174574572Y-113788922D01*
X174421478Y-113635828D01*
X174246319Y-113508567D01*
X174224905Y-113497656D01*
X174053409Y-113410273D01*
X174053406Y-113410272D01*
X173847498Y-113343370D01*
X173653712Y-113312677D01*
X173633654Y-113309500D01*
X173417146Y-113309500D01*
X173397088Y-113312677D01*
X173203301Y-113343370D01*
X172997393Y-113410272D01*
X172997390Y-113410273D01*
X172804480Y-113508567D01*
X172724065Y-113566993D01*
X172629322Y-113635828D01*
X172629320Y-113635830D01*
X172629319Y-113635830D01*
X172476230Y-113788919D01*
X172476230Y-113788920D01*
X172476228Y-113788922D01*
X172443014Y-113834637D01*
X172348967Y-113964080D01*
X172250673Y-114156990D01*
X172250672Y-114156993D01*
X172183770Y-114362901D01*
X172159221Y-114517898D01*
X172149900Y-114576746D01*
X165294202Y-114576746D01*
X165341576Y-114505846D01*
X165343489Y-114502983D01*
X165343489Y-114502982D01*
X165348278Y-114495815D01*
X165359394Y-114479179D01*
X165419737Y-114333497D01*
X165450500Y-114178842D01*
X165450500Y-114021158D01*
X165450500Y-114021155D01*
X165450499Y-114021153D01*
X165444977Y-113993394D01*
X165419737Y-113866503D01*
X165391878Y-113799244D01*
X165359397Y-113720827D01*
X165359390Y-113720814D01*
X165271789Y-113589711D01*
X165271786Y-113589707D01*
X165160292Y-113478213D01*
X165160288Y-113478210D01*
X165029185Y-113390609D01*
X165029172Y-113390602D01*
X164883501Y-113330264D01*
X164883489Y-113330261D01*
X164728845Y-113299500D01*
X164728842Y-113299500D01*
X164571158Y-113299500D01*
X164571155Y-113299500D01*
X164416510Y-113330261D01*
X164416498Y-113330264D01*
X164270827Y-113390602D01*
X164270814Y-113390609D01*
X164139711Y-113478210D01*
X164139707Y-113478213D01*
X164028213Y-113589707D01*
X164028210Y-113589711D01*
X163940609Y-113720814D01*
X163940602Y-113720827D01*
X163880264Y-113866498D01*
X163880261Y-113866510D01*
X163849500Y-114021153D01*
X154869576Y-114021153D01*
X154799789Y-113916711D01*
X154799786Y-113916707D01*
X154688292Y-113805213D01*
X154688288Y-113805210D01*
X154611052Y-113753602D01*
X154566247Y-113699989D01*
X154557540Y-113630664D01*
X154587695Y-113567637D01*
X154647138Y-113530918D01*
X154679943Y-113526500D01*
X154759920Y-113526500D01*
X154857462Y-113507096D01*
X154904913Y-113497658D01*
X155041495Y-113441084D01*
X155164416Y-113358951D01*
X155268951Y-113254416D01*
X155351084Y-113131495D01*
X155407658Y-112994913D01*
X155436500Y-112849918D01*
X155436500Y-112702082D01*
X155436500Y-112702079D01*
X155407659Y-112557092D01*
X155407658Y-112557091D01*
X155407658Y-112557087D01*
X155396329Y-112529737D01*
X155351087Y-112420511D01*
X155351080Y-112420498D01*
X155268951Y-112297584D01*
X155268948Y-112297580D01*
X155164419Y-112193051D01*
X155164415Y-112193048D01*
X155041501Y-112110919D01*
X155041489Y-112110913D01*
X154996120Y-112092121D01*
X154941716Y-112048281D01*
X154919651Y-111981987D01*
X154936930Y-111914287D01*
X154988066Y-111866677D01*
X154996120Y-111862999D01*
X155065173Y-111834397D01*
X155065176Y-111834395D01*
X155065179Y-111834394D01*
X155196289Y-111746789D01*
X155307789Y-111635289D01*
X155395394Y-111504179D01*
X155455737Y-111358497D01*
X155486500Y-111203842D01*
X155486500Y-111046158D01*
X155486500Y-111046155D01*
X155486499Y-111046153D01*
X155476361Y-110995185D01*
X155455737Y-110891503D01*
X155414294Y-110791452D01*
X155406826Y-110721983D01*
X155414295Y-110696547D01*
X155455737Y-110596497D01*
X155486500Y-110441842D01*
X155486500Y-110284158D01*
X155486500Y-110284155D01*
X155486499Y-110284153D01*
X155477283Y-110237821D01*
X155455737Y-110129503D01*
X155445882Y-110105711D01*
X155395397Y-109983827D01*
X155395390Y-109983814D01*
X155307789Y-109852711D01*
X155307786Y-109852707D01*
X155196292Y-109741213D01*
X155196288Y-109741210D01*
X155065185Y-109653609D01*
X155065172Y-109653602D01*
X154919501Y-109593264D01*
X154919489Y-109593261D01*
X154764845Y-109562500D01*
X154764842Y-109562500D01*
X154607158Y-109562500D01*
X154607155Y-109562500D01*
X154452510Y-109593261D01*
X154452498Y-109593264D01*
X154306827Y-109653602D01*
X154306814Y-109653609D01*
X154175711Y-109741210D01*
X154175707Y-109741213D01*
X154064213Y-109852707D01*
X154064210Y-109852711D01*
X153976609Y-109983814D01*
X153976602Y-109983827D01*
X153916264Y-110129498D01*
X153916261Y-110129510D01*
X153885500Y-110284153D01*
X153885500Y-110441846D01*
X153916261Y-110596489D01*
X153916263Y-110596497D01*
X153957414Y-110695846D01*
X153957705Y-110696547D01*
X153965174Y-110766017D01*
X153957705Y-110791453D01*
X153916263Y-110891502D01*
X153916261Y-110891510D01*
X153885500Y-111046153D01*
X153885500Y-111203846D01*
X153916261Y-111358489D01*
X153916264Y-111358501D01*
X153976602Y-111504172D01*
X153976609Y-111504185D01*
X154064210Y-111635288D01*
X154064213Y-111635292D01*
X154175707Y-111746786D01*
X154175711Y-111746789D01*
X154212051Y-111771071D01*
X154256856Y-111824683D01*
X154265563Y-111894008D01*
X154235409Y-111957036D01*
X154175966Y-111993755D01*
X154106107Y-111992508D01*
X154095708Y-111988734D01*
X154064297Y-111975723D01*
X154064287Y-111975720D01*
X153919300Y-111946880D01*
X153919298Y-111946880D01*
X153771462Y-111946880D01*
X153771460Y-111946880D01*
X153626472Y-111975720D01*
X153626466Y-111975722D01*
X153489888Y-112032294D01*
X153489876Y-112032301D01*
X153473737Y-112043084D01*
X153407058Y-112063958D01*
X153357401Y-112054540D01*
X153351474Y-112052085D01*
X153294153Y-112028342D01*
X153294149Y-112028341D01*
X153294146Y-112028340D01*
X153149160Y-111999500D01*
X153149158Y-111999500D01*
X153001322Y-111999500D01*
X153001320Y-111999500D01*
X152856332Y-112028340D01*
X152856322Y-112028343D01*
X152797899Y-112052543D01*
X152728430Y-112060012D01*
X152681556Y-112041084D01*
X152673479Y-112035687D01*
X152536904Y-111979116D01*
X152536894Y-111979113D01*
X152391907Y-111950273D01*
X152391905Y-111950273D01*
X152244069Y-111950273D01*
X152244067Y-111950273D01*
X152099079Y-111979113D01*
X152099069Y-111979116D01*
X151977881Y-112029314D01*
X151908412Y-112036783D01*
X151882977Y-112029314D01*
X151831692Y-112008071D01*
X151831684Y-112008069D01*
X151686698Y-111979229D01*
X151686696Y-111979229D01*
X151538860Y-111979229D01*
X151538858Y-111979229D01*
X151393870Y-112008069D01*
X151393860Y-112008072D01*
X151257289Y-112064641D01*
X151257276Y-112064648D01*
X151134362Y-112146777D01*
X151134358Y-112146780D01*
X151029829Y-112251309D01*
X151029826Y-112251313D01*
X150947697Y-112374227D01*
X150947690Y-112374240D01*
X150891121Y-112510811D01*
X150891118Y-112510821D01*
X150862278Y-112655808D01*
X150862278Y-112803646D01*
X150862277Y-112803649D01*
X148964204Y-112803649D01*
X148944200Y-112773711D01*
X148944197Y-112773707D01*
X148832703Y-112662213D01*
X148832699Y-112662210D01*
X148701596Y-112574609D01*
X148701583Y-112574602D01*
X148555912Y-112514264D01*
X148555902Y-112514261D01*
X148463014Y-112495784D01*
X148401103Y-112463399D01*
X148366529Y-112402682D01*
X148365589Y-112398358D01*
X148345543Y-112297584D01*
X148343737Y-112288503D01*
X148304199Y-112193048D01*
X148283397Y-112142827D01*
X148283390Y-112142814D01*
X148195789Y-112011711D01*
X148195786Y-112011707D01*
X148084292Y-111900213D01*
X148084288Y-111900210D01*
X147953185Y-111812609D01*
X147953172Y-111812602D01*
X147807501Y-111752264D01*
X147807489Y-111752261D01*
X147652845Y-111721500D01*
X147652842Y-111721500D01*
X147495158Y-111721500D01*
X147495155Y-111721500D01*
X147340510Y-111752261D01*
X147340498Y-111752264D01*
X147194827Y-111812602D01*
X147194814Y-111812609D01*
X147063711Y-111900210D01*
X147063707Y-111900213D01*
X146952213Y-112011707D01*
X146952210Y-112011711D01*
X146864609Y-112142814D01*
X146864602Y-112142827D01*
X146804264Y-112288498D01*
X146804261Y-112288508D01*
X146785189Y-112384389D01*
X146752804Y-112446300D01*
X146729415Y-112463974D01*
X146729885Y-112464677D01*
X146593715Y-112555662D01*
X146593707Y-112555668D01*
X146482213Y-112667162D01*
X146482210Y-112667166D01*
X146394609Y-112798269D01*
X146394602Y-112798282D01*
X146334264Y-112943953D01*
X146334261Y-112943965D01*
X146303500Y-113098608D01*
X138849500Y-113098608D01*
X138849500Y-113078158D01*
X138849500Y-113078155D01*
X138849499Y-113078153D01*
X138843998Y-113050498D01*
X138818737Y-112923503D01*
X138818735Y-112923498D01*
X138758397Y-112777827D01*
X138758390Y-112777814D01*
X138670789Y-112646711D01*
X138670786Y-112646707D01*
X138559292Y-112535213D01*
X138559288Y-112535210D01*
X138428185Y-112447609D01*
X138428172Y-112447602D01*
X138282501Y-112387264D01*
X138282489Y-112387261D01*
X138127845Y-112356500D01*
X138127842Y-112356500D01*
X137970158Y-112356500D01*
X137970155Y-112356500D01*
X137815510Y-112387261D01*
X137815498Y-112387264D01*
X137669827Y-112447602D01*
X137669814Y-112447609D01*
X137538711Y-112535210D01*
X137538707Y-112535213D01*
X137427213Y-112646707D01*
X137427210Y-112646711D01*
X137339609Y-112777814D01*
X137339602Y-112777827D01*
X137279264Y-112923498D01*
X137279261Y-112923510D01*
X137248500Y-113078153D01*
X132697001Y-113078153D01*
X132710187Y-112994907D01*
X132732500Y-112854026D01*
X132732500Y-112609973D01*
X132724124Y-112557092D01*
X132694321Y-112368924D01*
X132618904Y-112136815D01*
X132508106Y-111919361D01*
X132508104Y-111919358D01*
X132508103Y-111919356D01*
X132383573Y-111747954D01*
X132383571Y-111747952D01*
X132364656Y-111721918D01*
X132323891Y-111681153D01*
X141312500Y-111681153D01*
X141312500Y-111838846D01*
X141343261Y-111993489D01*
X141343264Y-111993501D01*
X141403602Y-112139172D01*
X141403609Y-112139185D01*
X141491210Y-112270288D01*
X141491213Y-112270292D01*
X141602707Y-112381786D01*
X141602711Y-112381789D01*
X141733814Y-112469390D01*
X141733827Y-112469397D01*
X141879498Y-112529735D01*
X141879503Y-112529737D01*
X142009836Y-112555662D01*
X142034153Y-112560499D01*
X142034156Y-112560500D01*
X142034158Y-112560500D01*
X142191844Y-112560500D01*
X142191845Y-112560499D01*
X142346497Y-112529737D01*
X142492179Y-112469394D01*
X142623289Y-112381789D01*
X142734789Y-112270289D01*
X142771898Y-112214752D01*
X142825510Y-112169947D01*
X142894835Y-112161240D01*
X142957863Y-112191394D01*
X142978102Y-112214752D01*
X143015210Y-112270288D01*
X143015213Y-112270292D01*
X143126707Y-112381786D01*
X143126711Y-112381789D01*
X143257814Y-112469390D01*
X143257827Y-112469397D01*
X143403498Y-112529735D01*
X143403503Y-112529737D01*
X143533836Y-112555662D01*
X143558153Y-112560499D01*
X143558156Y-112560500D01*
X143558158Y-112560500D01*
X143715844Y-112560500D01*
X143715845Y-112560499D01*
X143870497Y-112529737D01*
X144016179Y-112469394D01*
X144147289Y-112381789D01*
X144258789Y-112270289D01*
X144346394Y-112139179D01*
X144347375Y-112136812D01*
X144371773Y-112077907D01*
X144406737Y-111993497D01*
X144437500Y-111838842D01*
X144437500Y-111681158D01*
X144437500Y-111681155D01*
X144437499Y-111681153D01*
X144428376Y-111635288D01*
X144406737Y-111526503D01*
X144376456Y-111453397D01*
X144346397Y-111380827D01*
X144346390Y-111380814D01*
X144258789Y-111249711D01*
X144258786Y-111249707D01*
X144147292Y-111138213D01*
X144147288Y-111138210D01*
X144016185Y-111050609D01*
X144016172Y-111050602D01*
X143870501Y-110990264D01*
X143870489Y-110990261D01*
X143715845Y-110959500D01*
X143715842Y-110959500D01*
X143558158Y-110959500D01*
X143558155Y-110959500D01*
X143403510Y-110990261D01*
X143403498Y-110990264D01*
X143257827Y-111050602D01*
X143257814Y-111050609D01*
X143126711Y-111138210D01*
X143126707Y-111138213D01*
X143015213Y-111249707D01*
X142978102Y-111305248D01*
X142924489Y-111350052D01*
X142855164Y-111358759D01*
X142792137Y-111328604D01*
X142771898Y-111305248D01*
X142751715Y-111275043D01*
X142734789Y-111249711D01*
X142734788Y-111249710D01*
X142734786Y-111249707D01*
X142623292Y-111138213D01*
X142623288Y-111138210D01*
X142492185Y-111050609D01*
X142492172Y-111050602D01*
X142346501Y-110990264D01*
X142346489Y-110990261D01*
X142191845Y-110959500D01*
X142191842Y-110959500D01*
X142034158Y-110959500D01*
X142034155Y-110959500D01*
X141879510Y-110990261D01*
X141879498Y-110990264D01*
X141733827Y-111050602D01*
X141733814Y-111050609D01*
X141602711Y-111138210D01*
X141602707Y-111138213D01*
X141491213Y-111249707D01*
X141491210Y-111249711D01*
X141403609Y-111380814D01*
X141403602Y-111380827D01*
X141343264Y-111526498D01*
X141343261Y-111526510D01*
X141312500Y-111681153D01*
X132323891Y-111681153D01*
X132192081Y-111549343D01*
X132192076Y-111549339D01*
X131994642Y-111405896D01*
X131994641Y-111405895D01*
X131994639Y-111405894D01*
X131777185Y-111295096D01*
X131545076Y-111219679D01*
X131545074Y-111219678D01*
X131545072Y-111219678D01*
X131347345Y-111188361D01*
X131304027Y-111181500D01*
X131059973Y-111181500D01*
X131016655Y-111188361D01*
X130818927Y-111219678D01*
X130586812Y-111295097D01*
X130369357Y-111405896D01*
X130171923Y-111549339D01*
X130171918Y-111549343D01*
X129999343Y-111721918D01*
X129999339Y-111721923D01*
X129855896Y-111919357D01*
X129745097Y-112136812D01*
X129669678Y-112368927D01*
X129631500Y-112609973D01*
X118610500Y-112609973D01*
X118610500Y-102149984D01*
X120487200Y-102149984D01*
X120487200Y-104550015D01*
X120497700Y-104652795D01*
X120497701Y-104652797D01*
X120507358Y-104681939D01*
X120552886Y-104819335D01*
X120552887Y-104819337D01*
X120644986Y-104968651D01*
X120644989Y-104968655D01*
X120769044Y-105092710D01*
X120769048Y-105092713D01*
X120918362Y-105184812D01*
X120918364Y-105184813D01*
X120918366Y-105184814D01*
X121084903Y-105239999D01*
X121187692Y-105250500D01*
X121187697Y-105250500D01*
X123587703Y-105250500D01*
X123587708Y-105250500D01*
X123690497Y-105239999D01*
X123857034Y-105184814D01*
X123978369Y-105109973D01*
X129631500Y-105109973D01*
X129631500Y-105354027D01*
X129635331Y-105378213D01*
X129660843Y-105539292D01*
X129669679Y-105595076D01*
X129745096Y-105827185D01*
X129852136Y-106037264D01*
X129855896Y-106044642D01*
X129999339Y-106242076D01*
X129999343Y-106242081D01*
X130151581Y-106394319D01*
X130185066Y-106455642D01*
X130180082Y-106525334D01*
X130151581Y-106569681D01*
X129999343Y-106721918D01*
X129999339Y-106721923D01*
X129855896Y-106919357D01*
X129745097Y-107136812D01*
X129669678Y-107368927D01*
X129631500Y-107609973D01*
X129631500Y-107854026D01*
X129658513Y-108024581D01*
X129669679Y-108095076D01*
X129745096Y-108327185D01*
X129833394Y-108500481D01*
X129855896Y-108544642D01*
X129999339Y-108742076D01*
X129999343Y-108742081D01*
X130171918Y-108914656D01*
X130171923Y-108914660D01*
X130344136Y-109039779D01*
X130369361Y-109058106D01*
X130586815Y-109168904D01*
X130818924Y-109244321D01*
X131059973Y-109282500D01*
X131059974Y-109282500D01*
X131304026Y-109282500D01*
X131304027Y-109282500D01*
X131545076Y-109244321D01*
X131777185Y-109168904D01*
X131994639Y-109058106D01*
X132192083Y-108914655D01*
X132219586Y-108887152D01*
X145884501Y-108887152D01*
X145884501Y-109044845D01*
X145915262Y-109199488D01*
X145915265Y-109199500D01*
X145975603Y-109345171D01*
X145975610Y-109345184D01*
X146063211Y-109476287D01*
X146063214Y-109476291D01*
X146174708Y-109587785D01*
X146174712Y-109587788D01*
X146305815Y-109675389D01*
X146305828Y-109675396D01*
X146451499Y-109735734D01*
X146451504Y-109735736D01*
X146579379Y-109761172D01*
X146606154Y-109766498D01*
X146606157Y-109766499D01*
X146741732Y-109766499D01*
X146808771Y-109786184D01*
X146854526Y-109838988D01*
X146864470Y-109908146D01*
X146835445Y-109971702D01*
X146814374Y-109990292D01*
X146814419Y-109990347D01*
X146812885Y-109991605D01*
X146810626Y-109993599D01*
X146809712Y-109994209D01*
X146809707Y-109994213D01*
X146698213Y-110105707D01*
X146698210Y-110105711D01*
X146610609Y-110236814D01*
X146610602Y-110236827D01*
X146550264Y-110382498D01*
X146550261Y-110382510D01*
X146519500Y-110537153D01*
X146519500Y-110694846D01*
X146550261Y-110849489D01*
X146550264Y-110849501D01*
X146610602Y-110995172D01*
X146610609Y-110995185D01*
X146698210Y-111126288D01*
X146698213Y-111126292D01*
X146809707Y-111237786D01*
X146809711Y-111237789D01*
X146940814Y-111325390D01*
X146940827Y-111325397D01*
X147074649Y-111380827D01*
X147086503Y-111385737D01*
X147241153Y-111416499D01*
X147241156Y-111416500D01*
X147241158Y-111416500D01*
X147398844Y-111416500D01*
X147398845Y-111416499D01*
X147553497Y-111385737D01*
X147672825Y-111336310D01*
X147699172Y-111325397D01*
X147699172Y-111325396D01*
X147699179Y-111325394D01*
X147770953Y-111277436D01*
X147837627Y-111256559D01*
X147905008Y-111275043D01*
X147908733Y-111277437D01*
X147981996Y-111326390D01*
X147982009Y-111326397D01*
X148113402Y-111380821D01*
X148127685Y-111386737D01*
X148277308Y-111416499D01*
X148282335Y-111417499D01*
X148282338Y-111417500D01*
X148282340Y-111417500D01*
X148440026Y-111417500D01*
X148440027Y-111417499D01*
X148594679Y-111386737D01*
X148716417Y-111336312D01*
X148740354Y-111326397D01*
X148740354Y-111326396D01*
X148740361Y-111326394D01*
X148871471Y-111238789D01*
X148982971Y-111127289D01*
X149070576Y-110996179D01*
X149073027Y-110990263D01*
X149130917Y-110850501D01*
X149130919Y-110850497D01*
X149161682Y-110695842D01*
X149161682Y-110538158D01*
X149161682Y-110538155D01*
X149161681Y-110538153D01*
X149130920Y-110383510D01*
X149130919Y-110383503D01*
X149123178Y-110364814D01*
X149070579Y-110237827D01*
X149070572Y-110237814D01*
X148982971Y-110106711D01*
X148982968Y-110106707D01*
X148959198Y-110082937D01*
X148925713Y-110021614D01*
X148930697Y-109951922D01*
X148972569Y-109895989D01*
X149022684Y-109873639D01*
X149077497Y-109862737D01*
X149195135Y-109814010D01*
X149223172Y-109802397D01*
X149223172Y-109802396D01*
X149223179Y-109802394D01*
X149354289Y-109714789D01*
X149465789Y-109603289D01*
X149553394Y-109472179D01*
X149613737Y-109326497D01*
X149628439Y-109252583D01*
X149660823Y-109190674D01*
X149721539Y-109156100D01*
X149791308Y-109159839D01*
X149847980Y-109200705D01*
X149864617Y-109229324D01*
X149912602Y-109345172D01*
X149912609Y-109345185D01*
X150000210Y-109476288D01*
X150000213Y-109476292D01*
X150111707Y-109587786D01*
X150111711Y-109587789D01*
X150242814Y-109675390D01*
X150242827Y-109675397D01*
X150358675Y-109723382D01*
X150413079Y-109767222D01*
X150435144Y-109833516D01*
X150417865Y-109901216D01*
X150366728Y-109948827D01*
X150335415Y-109959560D01*
X150261508Y-109974261D01*
X150261498Y-109974264D01*
X150115827Y-110034602D01*
X150115814Y-110034609D01*
X149984711Y-110122210D01*
X149984707Y-110122213D01*
X149873213Y-110233707D01*
X149873210Y-110233711D01*
X149785609Y-110364814D01*
X149785602Y-110364827D01*
X149725264Y-110510498D01*
X149725261Y-110510510D01*
X149694500Y-110665153D01*
X149694500Y-110822846D01*
X149725261Y-110977489D01*
X149725264Y-110977501D01*
X149785602Y-111123172D01*
X149785609Y-111123185D01*
X149873210Y-111254288D01*
X149873213Y-111254292D01*
X149984707Y-111365786D01*
X149984711Y-111365789D01*
X150115814Y-111453390D01*
X150115827Y-111453397D01*
X150261498Y-111513735D01*
X150261503Y-111513737D01*
X150416153Y-111544499D01*
X150416156Y-111544500D01*
X150416158Y-111544500D01*
X150573844Y-111544500D01*
X150573845Y-111544499D01*
X150728497Y-111513737D01*
X150874179Y-111453394D01*
X151005289Y-111365789D01*
X151116789Y-111254289D01*
X151204394Y-111123179D01*
X151264737Y-110977497D01*
X151285705Y-110872084D01*
X151318088Y-110810177D01*
X151378804Y-110775603D01*
X151448573Y-110779342D01*
X151505246Y-110820208D01*
X151521882Y-110848826D01*
X151562029Y-110945751D01*
X151562034Y-110945760D01*
X151649635Y-111076863D01*
X151649638Y-111076867D01*
X151761132Y-111188361D01*
X151761136Y-111188364D01*
X151892239Y-111275965D01*
X151892252Y-111275972D01*
X152013991Y-111326397D01*
X152037928Y-111336312D01*
X152149419Y-111358489D01*
X152192578Y-111367074D01*
X152192581Y-111367075D01*
X152192583Y-111367075D01*
X152350269Y-111367075D01*
X152350270Y-111367074D01*
X152504922Y-111336312D01*
X152650604Y-111275969D01*
X152781714Y-111188364D01*
X152893214Y-111076864D01*
X152980819Y-110945754D01*
X153041162Y-110800072D01*
X153071925Y-110645417D01*
X153071925Y-110487733D01*
X153071925Y-110487730D01*
X153071924Y-110487728D01*
X153062129Y-110438487D01*
X153041162Y-110333078D01*
X153001294Y-110236827D01*
X152980822Y-110187402D01*
X152980815Y-110187389D01*
X152893214Y-110056286D01*
X152893211Y-110056282D01*
X152781717Y-109944788D01*
X152781713Y-109944785D01*
X152650610Y-109857184D01*
X152650597Y-109857177D01*
X152504926Y-109796839D01*
X152504914Y-109796836D01*
X152350270Y-109766075D01*
X152350267Y-109766075D01*
X152192583Y-109766075D01*
X152192580Y-109766075D01*
X152037935Y-109796836D01*
X152037923Y-109796839D01*
X151892252Y-109857177D01*
X151892239Y-109857184D01*
X151761136Y-109944785D01*
X151761132Y-109944788D01*
X151649638Y-110056282D01*
X151649635Y-110056286D01*
X151562034Y-110187389D01*
X151562027Y-110187402D01*
X151501689Y-110333073D01*
X151501686Y-110333083D01*
X151480720Y-110438487D01*
X151448335Y-110500398D01*
X151387619Y-110534972D01*
X151317850Y-110531232D01*
X151261178Y-110490365D01*
X151244542Y-110461747D01*
X151204397Y-110364827D01*
X151204390Y-110364814D01*
X151116789Y-110233711D01*
X151116786Y-110233707D01*
X151005292Y-110122213D01*
X151005288Y-110122210D01*
X150874185Y-110034609D01*
X150874172Y-110034602D01*
X150758324Y-109986617D01*
X150703920Y-109942776D01*
X150681855Y-109876482D01*
X150699134Y-109808783D01*
X150750271Y-109761172D01*
X150781579Y-109750440D01*
X150855497Y-109735737D01*
X151001179Y-109675394D01*
X151132289Y-109587789D01*
X151243789Y-109476289D01*
X151331394Y-109345179D01*
X151391737Y-109199497D01*
X151422500Y-109044842D01*
X151422500Y-108887158D01*
X151422500Y-108887157D01*
X151422500Y-108887155D01*
X151422499Y-108887153D01*
X151403847Y-108793384D01*
X151391737Y-108732503D01*
X151333367Y-108591584D01*
X151331397Y-108586827D01*
X151331390Y-108586814D01*
X151243789Y-108455711D01*
X151243786Y-108455707D01*
X151132292Y-108344213D01*
X151132288Y-108344210D01*
X151001185Y-108256609D01*
X151001172Y-108256602D01*
X150855501Y-108196264D01*
X150855489Y-108196261D01*
X150700845Y-108165500D01*
X150700842Y-108165500D01*
X150543158Y-108165500D01*
X150543155Y-108165500D01*
X150388510Y-108196261D01*
X150388498Y-108196264D01*
X150242827Y-108256602D01*
X150242814Y-108256609D01*
X150111711Y-108344210D01*
X150111707Y-108344213D01*
X150000213Y-108455707D01*
X150000210Y-108455711D01*
X149912609Y-108586814D01*
X149912602Y-108586827D01*
X149852264Y-108732498D01*
X149852261Y-108732508D01*
X149837560Y-108806415D01*
X149805175Y-108868326D01*
X149744459Y-108902900D01*
X149674689Y-108899159D01*
X149618017Y-108858293D01*
X149601382Y-108829675D01*
X149553397Y-108713827D01*
X149553390Y-108713814D01*
X149465789Y-108582711D01*
X149465786Y-108582707D01*
X149354292Y-108471213D01*
X149354288Y-108471210D01*
X149223185Y-108383609D01*
X149223172Y-108383602D01*
X149077501Y-108323264D01*
X149077489Y-108323261D01*
X148922845Y-108292500D01*
X148922842Y-108292500D01*
X148765158Y-108292500D01*
X148765155Y-108292500D01*
X148610510Y-108323261D01*
X148610498Y-108323264D01*
X148464827Y-108383602D01*
X148464814Y-108383609D01*
X148333711Y-108471210D01*
X148333707Y-108471213D01*
X148222213Y-108582707D01*
X148222210Y-108582711D01*
X148134609Y-108713814D01*
X148134602Y-108713827D01*
X148074264Y-108859498D01*
X148074261Y-108859510D01*
X148043500Y-109014153D01*
X148043500Y-109171846D01*
X148074261Y-109326489D01*
X148074264Y-109326501D01*
X148134602Y-109472172D01*
X148134609Y-109472185D01*
X148222210Y-109603288D01*
X148222213Y-109603292D01*
X148245983Y-109627062D01*
X148279468Y-109688385D01*
X148274484Y-109758077D01*
X148232612Y-109814010D01*
X148182494Y-109836360D01*
X148127690Y-109847261D01*
X148127680Y-109847264D01*
X147982009Y-109907602D01*
X147981998Y-109907608D01*
X147910229Y-109955563D01*
X147843552Y-109976440D01*
X147776172Y-109957955D01*
X147772448Y-109955562D01*
X147699185Y-109906609D01*
X147699172Y-109906602D01*
X147553501Y-109846264D01*
X147553489Y-109846261D01*
X147398845Y-109815500D01*
X147398842Y-109815500D01*
X147263269Y-109815500D01*
X147196230Y-109795815D01*
X147150475Y-109743011D01*
X147140531Y-109673853D01*
X147169556Y-109610297D01*
X147190626Y-109591706D01*
X147190582Y-109591652D01*
X147192115Y-109590393D01*
X147194375Y-109588400D01*
X147194965Y-109588004D01*
X147195290Y-109587788D01*
X147306790Y-109476288D01*
X147394395Y-109345178D01*
X147454738Y-109199496D01*
X147485501Y-109044841D01*
X147485501Y-108887157D01*
X147485501Y-108887155D01*
X147485501Y-108887154D01*
X147485500Y-108887152D01*
X147479999Y-108859498D01*
X147454738Y-108732502D01*
X147446997Y-108713814D01*
X147394398Y-108586826D01*
X147394391Y-108586813D01*
X147306790Y-108455710D01*
X147306787Y-108455706D01*
X147195293Y-108344212D01*
X147195289Y-108344209D01*
X147064186Y-108256608D01*
X147064173Y-108256601D01*
X146918502Y-108196263D01*
X146918490Y-108196260D01*
X146763846Y-108165499D01*
X146763843Y-108165499D01*
X146606159Y-108165499D01*
X146606156Y-108165499D01*
X146451511Y-108196260D01*
X146451499Y-108196263D01*
X146305828Y-108256601D01*
X146305815Y-108256608D01*
X146174712Y-108344209D01*
X146174708Y-108344212D01*
X146063214Y-108455706D01*
X146063211Y-108455710D01*
X145975610Y-108586813D01*
X145975603Y-108586826D01*
X145915265Y-108732497D01*
X145915262Y-108732509D01*
X145884501Y-108887152D01*
X132219586Y-108887152D01*
X132364655Y-108742083D01*
X132508106Y-108544639D01*
X132618904Y-108327185D01*
X132694321Y-108095076D01*
X132732500Y-107854027D01*
X132732500Y-107712237D01*
X162870584Y-107712237D01*
X162870584Y-107869930D01*
X162901345Y-108024573D01*
X162901348Y-108024585D01*
X162961686Y-108170256D01*
X162961693Y-108170269D01*
X163049294Y-108301372D01*
X163049297Y-108301376D01*
X163160791Y-108412870D01*
X163160795Y-108412873D01*
X163291898Y-108500474D01*
X163291911Y-108500481D01*
X163398527Y-108544642D01*
X163437587Y-108560821D01*
X163547615Y-108582707D01*
X163592237Y-108591583D01*
X163592240Y-108591584D01*
X163592242Y-108591584D01*
X163749928Y-108591584D01*
X163749929Y-108591583D01*
X163904581Y-108560821D01*
X164050263Y-108500478D01*
X164181373Y-108412873D01*
X164292873Y-108301373D01*
X164380478Y-108170263D01*
X164440821Y-108024581D01*
X164471584Y-107869926D01*
X164471584Y-107712242D01*
X164471584Y-107712239D01*
X164471583Y-107712237D01*
X164444630Y-107576737D01*
X164440821Y-107557587D01*
X164423760Y-107516397D01*
X164380481Y-107411911D01*
X164380474Y-107411898D01*
X164292873Y-107280795D01*
X164292870Y-107280791D01*
X164181376Y-107169297D01*
X164181372Y-107169294D01*
X164050269Y-107081693D01*
X164050256Y-107081686D01*
X163904585Y-107021348D01*
X163904573Y-107021345D01*
X163749929Y-106990584D01*
X163749926Y-106990584D01*
X163592242Y-106990584D01*
X163592239Y-106990584D01*
X163437594Y-107021345D01*
X163437582Y-107021348D01*
X163291911Y-107081686D01*
X163291898Y-107081693D01*
X163160795Y-107169294D01*
X163160791Y-107169297D01*
X163049297Y-107280791D01*
X163049294Y-107280795D01*
X162961693Y-107411898D01*
X162961686Y-107411911D01*
X162901348Y-107557582D01*
X162901345Y-107557594D01*
X162870584Y-107712237D01*
X132732500Y-107712237D01*
X132732500Y-107609973D01*
X132694321Y-107368924D01*
X132618904Y-107136815D01*
X132508106Y-106919361D01*
X132432093Y-106814738D01*
X132364660Y-106721923D01*
X132364656Y-106721918D01*
X132212419Y-106569681D01*
X132178934Y-106508358D01*
X132183918Y-106438666D01*
X132212419Y-106394319D01*
X132227566Y-106379172D01*
X132364655Y-106242083D01*
X132508106Y-106044639D01*
X132548097Y-105966153D01*
X140550500Y-105966153D01*
X140550500Y-106123846D01*
X140581261Y-106278489D01*
X140581264Y-106278501D01*
X140641602Y-106424172D01*
X140641609Y-106424185D01*
X140729210Y-106555288D01*
X140729213Y-106555292D01*
X140840707Y-106666786D01*
X140840711Y-106666789D01*
X140971814Y-106754390D01*
X140971827Y-106754397D01*
X141117498Y-106814735D01*
X141117503Y-106814737D01*
X141272153Y-106845499D01*
X141272156Y-106845500D01*
X141272158Y-106845500D01*
X141429844Y-106845500D01*
X141429845Y-106845499D01*
X141584497Y-106814737D01*
X141730179Y-106754394D01*
X141769451Y-106728153D01*
X151345500Y-106728153D01*
X151345500Y-106885846D01*
X151376261Y-107040489D01*
X151376264Y-107040501D01*
X151436602Y-107186172D01*
X151436609Y-107186185D01*
X151524210Y-107317288D01*
X151524213Y-107317292D01*
X151635707Y-107428786D01*
X151635711Y-107428789D01*
X151766814Y-107516390D01*
X151766827Y-107516397D01*
X151866258Y-107557582D01*
X151912503Y-107576737D01*
X152067153Y-107607499D01*
X152067156Y-107607500D01*
X152067158Y-107607500D01*
X152224844Y-107607500D01*
X152224845Y-107607499D01*
X152265346Y-107599443D01*
X152340301Y-107584534D01*
X152340306Y-107584533D01*
X152366101Y-107579401D01*
X152379497Y-107576737D01*
X152525179Y-107516394D01*
X152656289Y-107428789D01*
X152767789Y-107317289D01*
X152855394Y-107186179D01*
X152915737Y-107040497D01*
X152946500Y-106885842D01*
X152946500Y-106728158D01*
X152946500Y-106728155D01*
X152946499Y-106728153D01*
X152927847Y-106634385D01*
X152915737Y-106573503D01*
X152895785Y-106525334D01*
X152855397Y-106427827D01*
X152855390Y-106427814D01*
X152767789Y-106296711D01*
X152767786Y-106296707D01*
X152656292Y-106185213D01*
X152656288Y-106185210D01*
X152525185Y-106097609D01*
X152525172Y-106097602D01*
X152379501Y-106037264D01*
X152379491Y-106037261D01*
X152376583Y-106036683D01*
X152376582Y-106036682D01*
X152224845Y-106006500D01*
X152224842Y-106006500D01*
X152067158Y-106006500D01*
X152067155Y-106006500D01*
X151912510Y-106037261D01*
X151912498Y-106037264D01*
X151766827Y-106097602D01*
X151766814Y-106097609D01*
X151635711Y-106185210D01*
X151635707Y-106185213D01*
X151524213Y-106296707D01*
X151524210Y-106296711D01*
X151436609Y-106427814D01*
X151436602Y-106427827D01*
X151376264Y-106573498D01*
X151376261Y-106573510D01*
X151345500Y-106728153D01*
X141769451Y-106728153D01*
X141861289Y-106666789D01*
X141861292Y-106666786D01*
X141893694Y-106634385D01*
X141972786Y-106555292D01*
X141972789Y-106555289D01*
X142060394Y-106424179D01*
X142120737Y-106278497D01*
X142151500Y-106123842D01*
X142151500Y-105966158D01*
X142151500Y-105966155D01*
X142151499Y-105966153D01*
X142131457Y-105865397D01*
X142120737Y-105811503D01*
X142106771Y-105777786D01*
X142060397Y-105665827D01*
X142060390Y-105665814D01*
X141972789Y-105534711D01*
X141972786Y-105534707D01*
X141861292Y-105423213D01*
X141861288Y-105423210D01*
X141730185Y-105335609D01*
X141730172Y-105335602D01*
X141584501Y-105275264D01*
X141584489Y-105275261D01*
X141429845Y-105244500D01*
X141429842Y-105244500D01*
X141272158Y-105244500D01*
X141272155Y-105244500D01*
X141117510Y-105275261D01*
X141117498Y-105275264D01*
X140971827Y-105335602D01*
X140971814Y-105335609D01*
X140840711Y-105423210D01*
X140840707Y-105423213D01*
X140729213Y-105534707D01*
X140729210Y-105534711D01*
X140641609Y-105665814D01*
X140641602Y-105665827D01*
X140581264Y-105811498D01*
X140581261Y-105811510D01*
X140550500Y-105966153D01*
X132548097Y-105966153D01*
X132568689Y-105925738D01*
X132579882Y-105903771D01*
X132579883Y-105903769D01*
X132618901Y-105827190D01*
X132618904Y-105827185D01*
X132694321Y-105595076D01*
X132732500Y-105354027D01*
X132732500Y-105109973D01*
X132710117Y-104968655D01*
X132709295Y-104963464D01*
X132707187Y-104950153D01*
X135216500Y-104950153D01*
X135216500Y-105107846D01*
X135247261Y-105262489D01*
X135247264Y-105262501D01*
X135307602Y-105408172D01*
X135307609Y-105408185D01*
X135395210Y-105539288D01*
X135395213Y-105539292D01*
X135506707Y-105650786D01*
X135506711Y-105650789D01*
X135637814Y-105738390D01*
X135637827Y-105738397D01*
X135783498Y-105798735D01*
X135783503Y-105798737D01*
X135926520Y-105827185D01*
X135938153Y-105829499D01*
X135938156Y-105829500D01*
X135938158Y-105829500D01*
X136095844Y-105829500D01*
X136095845Y-105829499D01*
X136250497Y-105798737D01*
X136396179Y-105738394D01*
X136527289Y-105650789D01*
X136638789Y-105539289D01*
X136726394Y-105408179D01*
X136786737Y-105262497D01*
X136817500Y-105107842D01*
X136817500Y-105077153D01*
X145757500Y-105077153D01*
X145757500Y-105234846D01*
X145788261Y-105389489D01*
X145788264Y-105389501D01*
X145848602Y-105535172D01*
X145848609Y-105535185D01*
X145936210Y-105666288D01*
X145936213Y-105666292D01*
X146047707Y-105777786D01*
X146047711Y-105777789D01*
X146178814Y-105865390D01*
X146178827Y-105865397D01*
X146313436Y-105921153D01*
X146324503Y-105925737D01*
X146479153Y-105956499D01*
X146479156Y-105956500D01*
X146479158Y-105956500D01*
X146636844Y-105956500D01*
X146636845Y-105956499D01*
X146791497Y-105925737D01*
X146802564Y-105921153D01*
X161099500Y-105921153D01*
X161099500Y-106078846D01*
X161130261Y-106233489D01*
X161130264Y-106233501D01*
X161190602Y-106379172D01*
X161190609Y-106379185D01*
X161278210Y-106510288D01*
X161278213Y-106510292D01*
X161389707Y-106621786D01*
X161389711Y-106621789D01*
X161520814Y-106709390D01*
X161520827Y-106709397D01*
X161666498Y-106769735D01*
X161666503Y-106769737D01*
X161821153Y-106800499D01*
X161821156Y-106800500D01*
X161821158Y-106800500D01*
X161978844Y-106800500D01*
X161978845Y-106800499D01*
X162133497Y-106769737D01*
X162279179Y-106709394D01*
X162410289Y-106621789D01*
X162521789Y-106510289D01*
X162609394Y-106379179D01*
X162669737Y-106233497D01*
X162700500Y-106078842D01*
X162700500Y-105921158D01*
X162700500Y-105921155D01*
X162700499Y-105921153D01*
X162681807Y-105827185D01*
X162669737Y-105766503D01*
X162628229Y-105666292D01*
X162609397Y-105620827D01*
X162609390Y-105620814D01*
X162521789Y-105489711D01*
X162521786Y-105489707D01*
X162410292Y-105378213D01*
X162410288Y-105378210D01*
X162279185Y-105290609D01*
X162279172Y-105290602D01*
X162133501Y-105230264D01*
X162133489Y-105230261D01*
X161978845Y-105199500D01*
X161978842Y-105199500D01*
X161821158Y-105199500D01*
X161821155Y-105199500D01*
X161666510Y-105230261D01*
X161666498Y-105230264D01*
X161520827Y-105290602D01*
X161520814Y-105290609D01*
X161389711Y-105378210D01*
X161389707Y-105378213D01*
X161278213Y-105489707D01*
X161278210Y-105489711D01*
X161190609Y-105620814D01*
X161190602Y-105620827D01*
X161130264Y-105766498D01*
X161130261Y-105766510D01*
X161099500Y-105921153D01*
X146802564Y-105921153D01*
X146937179Y-105865394D01*
X147068289Y-105777789D01*
X147179789Y-105666289D01*
X147267394Y-105535179D01*
X147327737Y-105389497D01*
X147358500Y-105234842D01*
X147358500Y-105077158D01*
X147358500Y-105077155D01*
X147358499Y-105077153D01*
X147339012Y-104979185D01*
X147327737Y-104922503D01*
X147290912Y-104833599D01*
X147267397Y-104776827D01*
X147267390Y-104776814D01*
X147179789Y-104645711D01*
X147179786Y-104645707D01*
X147068292Y-104534213D01*
X147068288Y-104534210D01*
X147048747Y-104521153D01*
X148999500Y-104521153D01*
X148999500Y-104678846D01*
X149030261Y-104833489D01*
X149030264Y-104833501D01*
X149090602Y-104979172D01*
X149090609Y-104979185D01*
X149178210Y-105110288D01*
X149178213Y-105110292D01*
X149289707Y-105221786D01*
X149289711Y-105221789D01*
X149420814Y-105309390D01*
X149420827Y-105309397D01*
X149528573Y-105354026D01*
X149566503Y-105369737D01*
X149665843Y-105389497D01*
X149721153Y-105400499D01*
X149721156Y-105400500D01*
X149721158Y-105400500D01*
X149878844Y-105400500D01*
X149878845Y-105400499D01*
X150033497Y-105369737D01*
X150179179Y-105309394D01*
X150310289Y-105221789D01*
X150421789Y-105110289D01*
X150509394Y-104979179D01*
X150569737Y-104833497D01*
X150600500Y-104678842D01*
X150600500Y-104521158D01*
X150600500Y-104521155D01*
X150600499Y-104521153D01*
X150585671Y-104446609D01*
X150569737Y-104366503D01*
X150569735Y-104366498D01*
X150509397Y-104220827D01*
X150509390Y-104220814D01*
X150421789Y-104089711D01*
X150421786Y-104089707D01*
X150310292Y-103978213D01*
X150310288Y-103978210D01*
X150179185Y-103890609D01*
X150179172Y-103890602D01*
X150033501Y-103830264D01*
X150033489Y-103830261D01*
X149878845Y-103799500D01*
X149878842Y-103799500D01*
X149721158Y-103799500D01*
X149721155Y-103799500D01*
X149566510Y-103830261D01*
X149566498Y-103830264D01*
X149420827Y-103890602D01*
X149420814Y-103890609D01*
X149289711Y-103978210D01*
X149289707Y-103978213D01*
X149178213Y-104089707D01*
X149178210Y-104089711D01*
X149090609Y-104220814D01*
X149090602Y-104220827D01*
X149030264Y-104366498D01*
X149030261Y-104366510D01*
X148999500Y-104521153D01*
X147048747Y-104521153D01*
X146937185Y-104446609D01*
X146937172Y-104446602D01*
X146791501Y-104386264D01*
X146791489Y-104386261D01*
X146636845Y-104355500D01*
X146636842Y-104355500D01*
X146479158Y-104355500D01*
X146479155Y-104355500D01*
X146324510Y-104386261D01*
X146324498Y-104386264D01*
X146178827Y-104446602D01*
X146178814Y-104446609D01*
X146047711Y-104534210D01*
X146047707Y-104534213D01*
X145936213Y-104645707D01*
X145936210Y-104645711D01*
X145848609Y-104776814D01*
X145848602Y-104776827D01*
X145788264Y-104922498D01*
X145788261Y-104922510D01*
X145757500Y-105077153D01*
X136817500Y-105077153D01*
X136817500Y-104950158D01*
X136817500Y-104950155D01*
X136817499Y-104950153D01*
X136794295Y-104833501D01*
X136786737Y-104795503D01*
X136739698Y-104681939D01*
X136726397Y-104649827D01*
X136726390Y-104649814D01*
X136638789Y-104518711D01*
X136638786Y-104518707D01*
X136527292Y-104407213D01*
X136527288Y-104407210D01*
X136396185Y-104319609D01*
X136396172Y-104319602D01*
X136250501Y-104259264D01*
X136250489Y-104259261D01*
X136095845Y-104228500D01*
X136095842Y-104228500D01*
X135938158Y-104228500D01*
X135938155Y-104228500D01*
X135783510Y-104259261D01*
X135783498Y-104259264D01*
X135637827Y-104319602D01*
X135637814Y-104319609D01*
X135506711Y-104407210D01*
X135506707Y-104407213D01*
X135395213Y-104518707D01*
X135395210Y-104518711D01*
X135307609Y-104649814D01*
X135307602Y-104649827D01*
X135247264Y-104795498D01*
X135247261Y-104795510D01*
X135216500Y-104950153D01*
X132707187Y-104950153D01*
X132694321Y-104868927D01*
X132694321Y-104868924D01*
X132618904Y-104636815D01*
X132508106Y-104419361D01*
X132469699Y-104366498D01*
X132364660Y-104221923D01*
X132364656Y-104221918D01*
X132192081Y-104049343D01*
X132192076Y-104049339D01*
X131994642Y-103905896D01*
X131994641Y-103905895D01*
X131994639Y-103905894D01*
X131777185Y-103795096D01*
X131545076Y-103719679D01*
X131545074Y-103719678D01*
X131545072Y-103719678D01*
X131376769Y-103693021D01*
X131304027Y-103681500D01*
X131059973Y-103681500D01*
X131004093Y-103690350D01*
X130818927Y-103719678D01*
X130586812Y-103795097D01*
X130369357Y-103905896D01*
X130171923Y-104049339D01*
X130171918Y-104049343D01*
X129999343Y-104221918D01*
X129999339Y-104221923D01*
X129855896Y-104419357D01*
X129745097Y-104636812D01*
X129669678Y-104868927D01*
X129653883Y-104968655D01*
X129631500Y-105109973D01*
X123978369Y-105109973D01*
X124006355Y-105092711D01*
X124130411Y-104968655D01*
X124222514Y-104819334D01*
X124277699Y-104652797D01*
X124288200Y-104550008D01*
X124288200Y-103125441D01*
X174267000Y-103125441D01*
X174267000Y-103374558D01*
X174267001Y-103374575D01*
X174299517Y-103621561D01*
X174363998Y-103862207D01*
X174459330Y-104092361D01*
X174459337Y-104092376D01*
X174583900Y-104308126D01*
X174735560Y-104505774D01*
X174735566Y-104505781D01*
X174911718Y-104681933D01*
X174911725Y-104681939D01*
X175109373Y-104833599D01*
X175325123Y-104958162D01*
X175325138Y-104958169D01*
X175375876Y-104979185D01*
X175555293Y-105053502D01*
X175795935Y-105117982D01*
X176042935Y-105150500D01*
X176042942Y-105150500D01*
X176292058Y-105150500D01*
X176292065Y-105150500D01*
X176539065Y-105117982D01*
X176779707Y-105053502D01*
X177009873Y-104958164D01*
X177225627Y-104833599D01*
X177423276Y-104681938D01*
X177599438Y-104505776D01*
X177751099Y-104308127D01*
X177875664Y-104092373D01*
X177971002Y-103862207D01*
X178035482Y-103621565D01*
X178068000Y-103374565D01*
X178068000Y-103125435D01*
X178035482Y-102878435D01*
X177971002Y-102637793D01*
X177875664Y-102407627D01*
X177871549Y-102400500D01*
X177751099Y-102191873D01*
X177599439Y-101994225D01*
X177599433Y-101994218D01*
X177423281Y-101818066D01*
X177423274Y-101818060D01*
X177225626Y-101666400D01*
X177009876Y-101541837D01*
X177009861Y-101541830D01*
X176779707Y-101446498D01*
X176539065Y-101382018D01*
X176539064Y-101382017D01*
X176539061Y-101382017D01*
X176292075Y-101349501D01*
X176292070Y-101349500D01*
X176292065Y-101349500D01*
X176042935Y-101349500D01*
X176042929Y-101349500D01*
X176042924Y-101349501D01*
X175795938Y-101382017D01*
X175555292Y-101446498D01*
X175325138Y-101541830D01*
X175325123Y-101541837D01*
X175109373Y-101666400D01*
X174911725Y-101818060D01*
X174911718Y-101818066D01*
X174735566Y-101994218D01*
X174735560Y-101994225D01*
X174583900Y-102191873D01*
X174459337Y-102407623D01*
X174459330Y-102407638D01*
X174363998Y-102637792D01*
X174299517Y-102878438D01*
X174267001Y-103125424D01*
X174267000Y-103125441D01*
X124288200Y-103125441D01*
X124288200Y-102149992D01*
X124277699Y-102047203D01*
X124222514Y-101880666D01*
X124130411Y-101731345D01*
X124006355Y-101607289D01*
X124006351Y-101607286D01*
X123866709Y-101521153D01*
X151980500Y-101521153D01*
X151980500Y-101678846D01*
X152011261Y-101833489D01*
X152011264Y-101833501D01*
X152071602Y-101979172D01*
X152071609Y-101979185D01*
X152159210Y-102110288D01*
X152159213Y-102110292D01*
X152270707Y-102221786D01*
X152270711Y-102221789D01*
X152401814Y-102309390D01*
X152401827Y-102309397D01*
X152547498Y-102369735D01*
X152547503Y-102369737D01*
X152702153Y-102400499D01*
X152702156Y-102400500D01*
X152702158Y-102400500D01*
X152859844Y-102400500D01*
X152859845Y-102400499D01*
X153014497Y-102369737D01*
X153160179Y-102309394D01*
X153291289Y-102221789D01*
X153402789Y-102110289D01*
X153490394Y-101979179D01*
X153550737Y-101833497D01*
X153581500Y-101678842D01*
X153581500Y-101545941D01*
X153601185Y-101478902D01*
X153653989Y-101433147D01*
X153723147Y-101423203D01*
X153786703Y-101452228D01*
X153793181Y-101458260D01*
X153794707Y-101459786D01*
X153794711Y-101459789D01*
X153925814Y-101547390D01*
X153925827Y-101547397D01*
X154070414Y-101607286D01*
X154071503Y-101607737D01*
X154226153Y-101638499D01*
X154226156Y-101638500D01*
X154226158Y-101638500D01*
X154383844Y-101638500D01*
X154383845Y-101638499D01*
X154538497Y-101607737D01*
X154684179Y-101547394D01*
X154815289Y-101459789D01*
X154926789Y-101348289D01*
X155014394Y-101217179D01*
X155074737Y-101071497D01*
X155105500Y-100916842D01*
X155105500Y-100759158D01*
X155105500Y-100759155D01*
X155105499Y-100759153D01*
X155074738Y-100604510D01*
X155074737Y-100604503D01*
X155074735Y-100604498D01*
X155014397Y-100458827D01*
X155014390Y-100458814D01*
X154982703Y-100411391D01*
X154961825Y-100344713D01*
X154980310Y-100277333D01*
X155032289Y-100230643D01*
X155085805Y-100218500D01*
X155211253Y-100218500D01*
X155211254Y-100218500D01*
X155425097Y-100184630D01*
X155631009Y-100117726D01*
X155823919Y-100019433D01*
X155999078Y-99892172D01*
X156015319Y-99875931D01*
X156076642Y-99842446D01*
X156146334Y-99847430D01*
X156190681Y-99875931D01*
X156206922Y-99892172D01*
X156382081Y-100019433D01*
X156465305Y-100061838D01*
X156574990Y-100117726D01*
X156574993Y-100117727D01*
X156677947Y-100151178D01*
X156780903Y-100184630D01*
X156994746Y-100218500D01*
X156994747Y-100218500D01*
X157211253Y-100218500D01*
X157211254Y-100218500D01*
X157425097Y-100184630D01*
X157631009Y-100117726D01*
X157823919Y-100019433D01*
X157999078Y-99892172D01*
X158152172Y-99739078D01*
X158279433Y-99563919D01*
X158377726Y-99371009D01*
X158444630Y-99165097D01*
X158478500Y-98951254D01*
X158478500Y-98734746D01*
X158475649Y-98716746D01*
X160219500Y-98716746D01*
X160219500Y-98933253D01*
X160253370Y-99147098D01*
X160320272Y-99353006D01*
X160320273Y-99353009D01*
X160329445Y-99371009D01*
X160418567Y-99545919D01*
X160545828Y-99721078D01*
X160698922Y-99874172D01*
X160874081Y-100001433D01*
X160909406Y-100019432D01*
X161066990Y-100099726D01*
X161066993Y-100099727D01*
X161122390Y-100117726D01*
X161272903Y-100166630D01*
X161486746Y-100200500D01*
X161486747Y-100200500D01*
X161703253Y-100200500D01*
X161703254Y-100200500D01*
X161917097Y-100166630D01*
X162123009Y-100099726D01*
X162315919Y-100001433D01*
X162491078Y-99874172D01*
X162507319Y-99857931D01*
X162568642Y-99824446D01*
X162638334Y-99829430D01*
X162682681Y-99857931D01*
X162698922Y-99874172D01*
X162874081Y-100001433D01*
X162909406Y-100019432D01*
X163066990Y-100099726D01*
X163066993Y-100099727D01*
X163122390Y-100117726D01*
X163272903Y-100166630D01*
X163486746Y-100200500D01*
X163486747Y-100200500D01*
X163703253Y-100200500D01*
X163703254Y-100200500D01*
X163917097Y-100166630D01*
X164123009Y-100099726D01*
X164315919Y-100001433D01*
X164491078Y-99874172D01*
X164644172Y-99721078D01*
X164771433Y-99545919D01*
X164869726Y-99353009D01*
X164936630Y-99147097D01*
X164970500Y-98933254D01*
X164970500Y-98716746D01*
X164936630Y-98502903D01*
X164875575Y-98314993D01*
X164869727Y-98296993D01*
X164869726Y-98296990D01*
X164771432Y-98104080D01*
X164644172Y-97928922D01*
X164491078Y-97775828D01*
X164315919Y-97648567D01*
X164123009Y-97550273D01*
X164123006Y-97550272D01*
X163917098Y-97483370D01*
X163810175Y-97466435D01*
X163703254Y-97449500D01*
X163486746Y-97449500D01*
X163415465Y-97460790D01*
X163272901Y-97483370D01*
X163066993Y-97550272D01*
X163066990Y-97550273D01*
X162874080Y-97648567D01*
X162826593Y-97683069D01*
X162698922Y-97775828D01*
X162698920Y-97775830D01*
X162698919Y-97775830D01*
X162682681Y-97792069D01*
X162621358Y-97825554D01*
X162551666Y-97820570D01*
X162507319Y-97792069D01*
X162491080Y-97775830D01*
X162491078Y-97775828D01*
X162315919Y-97648567D01*
X162123009Y-97550273D01*
X162123006Y-97550272D01*
X161917098Y-97483370D01*
X161810175Y-97466435D01*
X161703254Y-97449500D01*
X161486746Y-97449500D01*
X161415465Y-97460790D01*
X161272901Y-97483370D01*
X161066993Y-97550272D01*
X161066990Y-97550273D01*
X160874080Y-97648567D01*
X160826593Y-97683069D01*
X160698922Y-97775828D01*
X160698920Y-97775830D01*
X160698919Y-97775830D01*
X160545830Y-97928919D01*
X160545830Y-97928920D01*
X160545828Y-97928922D01*
X160491174Y-98004145D01*
X160418567Y-98104080D01*
X160320273Y-98296990D01*
X160320272Y-98296993D01*
X160253370Y-98502901D01*
X160219500Y-98716746D01*
X158475649Y-98716746D01*
X158444630Y-98520903D01*
X158397146Y-98374760D01*
X158377727Y-98314993D01*
X158377726Y-98314990D01*
X158303434Y-98169185D01*
X158279433Y-98122081D01*
X158152172Y-97946922D01*
X157999078Y-97793828D01*
X157823919Y-97666567D01*
X157820479Y-97664814D01*
X157631009Y-97568273D01*
X157631006Y-97568272D01*
X157425098Y-97501370D01*
X157311451Y-97483370D01*
X157211254Y-97467500D01*
X156994746Y-97467500D01*
X156923465Y-97478790D01*
X156780901Y-97501370D01*
X156574993Y-97568272D01*
X156574990Y-97568273D01*
X156382080Y-97666567D01*
X156320714Y-97711153D01*
X156206922Y-97793828D01*
X156206920Y-97793830D01*
X156206919Y-97793830D01*
X156190681Y-97810069D01*
X156129358Y-97843554D01*
X156059666Y-97838570D01*
X156015319Y-97810069D01*
X155999080Y-97793830D01*
X155999078Y-97793828D01*
X155823919Y-97666567D01*
X155820479Y-97664814D01*
X155631009Y-97568273D01*
X155631006Y-97568272D01*
X155425098Y-97501370D01*
X155311451Y-97483370D01*
X155211254Y-97467500D01*
X154994746Y-97467500D01*
X154923465Y-97478790D01*
X154780901Y-97501370D01*
X154574993Y-97568272D01*
X154574990Y-97568273D01*
X154382080Y-97666567D01*
X154320714Y-97711153D01*
X154206922Y-97793828D01*
X154206920Y-97793830D01*
X154206919Y-97793830D01*
X154053830Y-97946919D01*
X154053830Y-97946920D01*
X154053828Y-97946922D01*
X154040581Y-97965155D01*
X153926567Y-98122080D01*
X153828273Y-98314990D01*
X153828272Y-98314993D01*
X153761370Y-98520901D01*
X153727500Y-98734746D01*
X153727500Y-98951253D01*
X153761370Y-99165098D01*
X153828272Y-99371006D01*
X153828273Y-99371009D01*
X153926567Y-99563919D01*
X154053828Y-99739078D01*
X154053830Y-99739080D01*
X154167290Y-99852540D01*
X154200775Y-99913863D01*
X154195791Y-99983555D01*
X154153919Y-100039488D01*
X154103801Y-100061838D01*
X154071508Y-100068261D01*
X154071498Y-100068264D01*
X153925827Y-100128602D01*
X153925814Y-100128609D01*
X153794711Y-100216210D01*
X153794707Y-100216213D01*
X153683213Y-100327707D01*
X153683210Y-100327711D01*
X153595609Y-100458814D01*
X153595602Y-100458827D01*
X153535264Y-100604498D01*
X153535261Y-100604510D01*
X153504500Y-100759153D01*
X153504500Y-100892059D01*
X153484815Y-100959098D01*
X153432011Y-101004853D01*
X153362853Y-101014797D01*
X153299297Y-100985772D01*
X153292819Y-100979740D01*
X153291292Y-100978213D01*
X153291288Y-100978210D01*
X153160185Y-100890609D01*
X153160172Y-100890602D01*
X153014501Y-100830264D01*
X153014489Y-100830261D01*
X152859845Y-100799500D01*
X152859842Y-100799500D01*
X152702158Y-100799500D01*
X152702155Y-100799500D01*
X152547510Y-100830261D01*
X152547498Y-100830264D01*
X152401827Y-100890602D01*
X152401814Y-100890609D01*
X152270711Y-100978210D01*
X152270707Y-100978213D01*
X152159213Y-101089707D01*
X152159210Y-101089711D01*
X152071609Y-101220814D01*
X152071602Y-101220827D01*
X152011264Y-101366498D01*
X152011261Y-101366510D01*
X151980500Y-101521153D01*
X123866709Y-101521153D01*
X123857037Y-101515187D01*
X123857035Y-101515186D01*
X123747536Y-101478902D01*
X123690497Y-101460001D01*
X123690495Y-101460000D01*
X123587715Y-101449500D01*
X123587708Y-101449500D01*
X121187692Y-101449500D01*
X121187684Y-101449500D01*
X121084904Y-101460000D01*
X121084903Y-101460001D01*
X120918364Y-101515186D01*
X120918362Y-101515187D01*
X120769048Y-101607286D01*
X120769044Y-101607289D01*
X120644989Y-101731344D01*
X120644986Y-101731348D01*
X120552887Y-101880662D01*
X120552886Y-101880664D01*
X120497701Y-102047203D01*
X120497700Y-102047204D01*
X120487200Y-102149984D01*
X118610500Y-102149984D01*
X118610500Y-98607746D01*
X130740500Y-98607746D01*
X130740500Y-98824253D01*
X130774370Y-99038098D01*
X130841272Y-99244006D01*
X130841273Y-99244009D01*
X130905982Y-99371006D01*
X130939567Y-99436919D01*
X131066828Y-99612078D01*
X131219922Y-99765172D01*
X131395081Y-99892433D01*
X131437140Y-99913863D01*
X131587990Y-99990726D01*
X131587993Y-99990727D01*
X131676340Y-100019432D01*
X131793903Y-100057630D01*
X132007746Y-100091500D01*
X132007747Y-100091500D01*
X132224253Y-100091500D01*
X132224254Y-100091500D01*
X132438097Y-100057630D01*
X132644009Y-99990726D01*
X132836919Y-99892433D01*
X133012078Y-99765172D01*
X133028319Y-99748931D01*
X133089642Y-99715446D01*
X133159334Y-99720430D01*
X133203681Y-99748931D01*
X133219922Y-99765172D01*
X133395081Y-99892433D01*
X133437140Y-99913863D01*
X133587990Y-99990726D01*
X133587993Y-99990727D01*
X133676340Y-100019432D01*
X133793903Y-100057630D01*
X134007746Y-100091500D01*
X134007747Y-100091500D01*
X134224253Y-100091500D01*
X134224254Y-100091500D01*
X134438097Y-100057630D01*
X134644009Y-99990726D01*
X134836919Y-99892433D01*
X135012078Y-99765172D01*
X135165172Y-99612078D01*
X135292433Y-99436919D01*
X135390726Y-99244009D01*
X135457630Y-99038097D01*
X135491500Y-98824254D01*
X135491500Y-98607746D01*
X135457630Y-98393903D01*
X135390726Y-98187991D01*
X135390726Y-98187990D01*
X135340642Y-98089697D01*
X135292433Y-97995081D01*
X135165172Y-97819922D01*
X135012078Y-97666828D01*
X134836919Y-97539567D01*
X134761954Y-97501370D01*
X134644009Y-97441273D01*
X134644006Y-97441272D01*
X134438098Y-97374370D01*
X134331175Y-97357435D01*
X134224254Y-97340500D01*
X134007746Y-97340500D01*
X133936465Y-97351790D01*
X133793901Y-97374370D01*
X133587993Y-97441272D01*
X133587990Y-97441273D01*
X133395080Y-97539567D01*
X133355569Y-97568274D01*
X133219922Y-97666828D01*
X133219920Y-97666830D01*
X133219919Y-97666830D01*
X133203681Y-97683069D01*
X133142358Y-97716554D01*
X133072666Y-97711570D01*
X133028319Y-97683069D01*
X133012080Y-97666830D01*
X133012078Y-97666828D01*
X132836919Y-97539567D01*
X132761954Y-97501370D01*
X132644009Y-97441273D01*
X132644006Y-97441272D01*
X132438098Y-97374370D01*
X132331175Y-97357435D01*
X132224254Y-97340500D01*
X132007746Y-97340500D01*
X131936465Y-97351790D01*
X131793901Y-97374370D01*
X131587993Y-97441272D01*
X131587990Y-97441273D01*
X131395080Y-97539567D01*
X131355569Y-97568274D01*
X131219922Y-97666828D01*
X131219920Y-97666830D01*
X131219919Y-97666830D01*
X131066830Y-97819919D01*
X131066830Y-97819920D01*
X131066828Y-97819922D01*
X131023360Y-97879750D01*
X130939567Y-97995080D01*
X130841273Y-98187990D01*
X130841272Y-98187993D01*
X130774370Y-98393901D01*
X130740500Y-98607746D01*
X118610500Y-98607746D01*
X118610500Y-95171153D01*
X125183500Y-95171153D01*
X125183500Y-95328846D01*
X125214261Y-95483489D01*
X125214264Y-95483501D01*
X125274602Y-95629172D01*
X125274609Y-95629185D01*
X125362210Y-95760288D01*
X125362213Y-95760292D01*
X125399240Y-95797319D01*
X125432725Y-95858642D01*
X125427741Y-95928334D01*
X125399240Y-95972681D01*
X125362213Y-96009707D01*
X125362210Y-96009711D01*
X125274609Y-96140814D01*
X125274602Y-96140827D01*
X125214264Y-96286498D01*
X125214261Y-96286510D01*
X125183500Y-96441153D01*
X125183500Y-96598846D01*
X125214261Y-96753489D01*
X125214264Y-96753501D01*
X125274602Y-96899172D01*
X125274609Y-96899185D01*
X125362210Y-97030288D01*
X125362213Y-97030292D01*
X125399240Y-97067319D01*
X125432725Y-97128642D01*
X125427741Y-97198334D01*
X125399240Y-97242681D01*
X125362213Y-97279707D01*
X125362210Y-97279711D01*
X125274609Y-97410814D01*
X125274602Y-97410827D01*
X125214264Y-97556498D01*
X125214261Y-97556510D01*
X125183500Y-97711153D01*
X125183500Y-97868846D01*
X125214261Y-98023489D01*
X125214264Y-98023501D01*
X125274602Y-98169172D01*
X125274609Y-98169185D01*
X125362210Y-98300288D01*
X125362213Y-98300292D01*
X125473707Y-98411786D01*
X125473711Y-98411789D01*
X125604814Y-98499390D01*
X125604827Y-98499397D01*
X125750498Y-98559735D01*
X125750503Y-98559737D01*
X125905153Y-98590499D01*
X125905156Y-98590500D01*
X125905158Y-98590500D01*
X126062844Y-98590500D01*
X126062845Y-98590499D01*
X126217497Y-98559737D01*
X126330166Y-98513067D01*
X126363172Y-98499397D01*
X126363172Y-98499396D01*
X126363179Y-98499394D01*
X126494289Y-98411789D01*
X126512177Y-98393901D01*
X126531319Y-98374760D01*
X126592642Y-98341275D01*
X126662334Y-98346259D01*
X126706681Y-98374760D01*
X126743707Y-98411786D01*
X126743711Y-98411789D01*
X126874814Y-98499390D01*
X126874827Y-98499397D01*
X127020498Y-98559735D01*
X127020503Y-98559737D01*
X127175153Y-98590499D01*
X127175156Y-98590500D01*
X127175158Y-98590500D01*
X127332844Y-98590500D01*
X127332845Y-98590499D01*
X127487497Y-98559737D01*
X127600166Y-98513067D01*
X127633172Y-98499397D01*
X127633172Y-98499396D01*
X127633179Y-98499394D01*
X127764289Y-98411789D01*
X127782177Y-98393901D01*
X127801319Y-98374760D01*
X127862642Y-98341275D01*
X127932334Y-98346259D01*
X127976681Y-98374760D01*
X128013707Y-98411786D01*
X128013711Y-98411789D01*
X128144814Y-98499390D01*
X128144827Y-98499397D01*
X128290498Y-98559735D01*
X128290503Y-98559737D01*
X128445153Y-98590499D01*
X128445156Y-98590500D01*
X128445158Y-98590500D01*
X128602844Y-98590500D01*
X128602845Y-98590499D01*
X128757497Y-98559737D01*
X128870166Y-98513067D01*
X128903172Y-98499397D01*
X128903172Y-98499396D01*
X128903179Y-98499394D01*
X129034289Y-98411789D01*
X129145789Y-98300289D01*
X129233394Y-98169179D01*
X129293737Y-98023497D01*
X129324500Y-97868842D01*
X129324500Y-97711158D01*
X129324500Y-97711155D01*
X129324499Y-97711153D01*
X129318913Y-97683069D01*
X129293737Y-97556503D01*
X129291157Y-97550274D01*
X129233397Y-97410827D01*
X129233390Y-97410814D01*
X129145789Y-97279711D01*
X129145786Y-97279707D01*
X129108760Y-97242681D01*
X129075275Y-97181358D01*
X129080259Y-97111666D01*
X129108760Y-97067319D01*
X129145786Y-97030292D01*
X129145789Y-97030289D01*
X129233394Y-96899179D01*
X129293737Y-96753497D01*
X129324500Y-96598842D01*
X129324500Y-96441158D01*
X129324500Y-96441155D01*
X129324499Y-96441153D01*
X129293737Y-96286503D01*
X129284295Y-96263707D01*
X129233397Y-96140827D01*
X129233390Y-96140814D01*
X129145789Y-96009711D01*
X129145786Y-96009707D01*
X129108760Y-95972681D01*
X129075275Y-95911358D01*
X129080259Y-95841666D01*
X129108760Y-95797319D01*
X129145786Y-95760292D01*
X129145789Y-95760289D01*
X129233394Y-95629179D01*
X129293737Y-95483497D01*
X129324500Y-95328842D01*
X129324500Y-95171158D01*
X129324500Y-95171155D01*
X129324499Y-95171153D01*
X129315283Y-95124821D01*
X129293737Y-95016503D01*
X129272050Y-94964146D01*
X129233397Y-94870827D01*
X129233390Y-94870814D01*
X129145789Y-94739711D01*
X129145786Y-94739707D01*
X129034292Y-94628213D01*
X129034288Y-94628210D01*
X128903185Y-94540609D01*
X128903172Y-94540602D01*
X128757501Y-94480264D01*
X128757489Y-94480261D01*
X128602845Y-94449500D01*
X128602842Y-94449500D01*
X128445158Y-94449500D01*
X128445155Y-94449500D01*
X128290510Y-94480261D01*
X128290498Y-94480264D01*
X128144827Y-94540602D01*
X128144814Y-94540609D01*
X128013711Y-94628210D01*
X128013707Y-94628213D01*
X127976681Y-94665240D01*
X127915358Y-94698725D01*
X127845666Y-94693741D01*
X127801319Y-94665240D01*
X127764292Y-94628213D01*
X127764288Y-94628210D01*
X127633185Y-94540609D01*
X127633172Y-94540602D01*
X127487501Y-94480264D01*
X127487489Y-94480261D01*
X127332845Y-94449500D01*
X127332842Y-94449500D01*
X127175158Y-94449500D01*
X127175155Y-94449500D01*
X127020510Y-94480261D01*
X127020498Y-94480264D01*
X126874827Y-94540602D01*
X126874814Y-94540609D01*
X126743711Y-94628210D01*
X126743707Y-94628213D01*
X126706681Y-94665240D01*
X126645358Y-94698725D01*
X126575666Y-94693741D01*
X126531319Y-94665240D01*
X126494292Y-94628213D01*
X126494288Y-94628210D01*
X126363185Y-94540609D01*
X126363172Y-94540602D01*
X126217501Y-94480264D01*
X126217489Y-94480261D01*
X126062845Y-94449500D01*
X126062842Y-94449500D01*
X125905158Y-94449500D01*
X125905155Y-94449500D01*
X125750510Y-94480261D01*
X125750498Y-94480264D01*
X125604827Y-94540602D01*
X125604814Y-94540609D01*
X125473711Y-94628210D01*
X125473707Y-94628213D01*
X125362213Y-94739707D01*
X125362210Y-94739711D01*
X125274609Y-94870814D01*
X125274602Y-94870827D01*
X125214264Y-95016498D01*
X125214261Y-95016510D01*
X125183500Y-95171153D01*
X118610500Y-95171153D01*
X118610500Y-92326000D01*
X118630185Y-92258961D01*
X118682989Y-92213206D01*
X118734500Y-92202000D01*
X135773500Y-92202000D01*
X135840539Y-92221685D01*
G37*
%TD.AperFunction*%
%TD*%
M02*
