%TF.GenerationSoftware,KiCad,Pcbnew,9.0.8-9.0.8~ubuntu22.04.1*%
%TF.CreationDate,2026-04-26T22:17:14+03:00*%
%TF.ProjectId,Main Board - NDT,4d61696e-2042-46f6-9172-64202d204e44,rev?*%
%TF.SameCoordinates,Original*%
%TF.FileFunction,Profile,NP*%
%FSLAX46Y46*%
G04 Gerber Fmt 4.6, Leading zero omitted, Abs format (unit mm)*
G04 Created by KiCad (PCBNEW 9.0.8-9.0.8~ubuntu22.04.1) date 2026-04-26 22:17:14*
%MOMM*%
%LPD*%
G01*
G04 APERTURE LIST*
%TA.AperFunction,Profile*%
%ADD10C,0.050000*%
%TD*%
G04 APERTURE END LIST*
D10*
X152654000Y-96000000D02*
X152654000Y-87100000D01*
X136398000Y-96000000D02*
X136398000Y-87040000D01*
X118110000Y-148620000D02*
X118110000Y-88540000D01*
X119610000Y-87040000D02*
X136400000Y-87040000D01*
X152654000Y-87100000D02*
X180110000Y-87100000D01*
X181610000Y-88600000D02*
X181610000Y-148600000D01*
X157200000Y-150100000D02*
X180110000Y-150100000D01*
X129300000Y-150120000D02*
X119610000Y-150120000D01*
X179500000Y-147000000D02*
G75*
G02*
X176500000Y-147000000I-1500000J0D01*
G01*
X176500000Y-147000000D02*
G75*
G02*
X179500000Y-147000000I1500000J0D01*
G01*
X138176000Y-95250000D02*
X138938000Y-95250000D01*
X138938000Y-96012000D01*
X138176000Y-96012000D01*
X138176000Y-95250000D01*
X140716000Y-95250000D02*
X141478000Y-95250000D01*
X141478000Y-96012000D01*
X140716000Y-96012000D01*
X140716000Y-95250000D01*
X143256000Y-95250000D02*
X144018000Y-95250000D01*
X144018000Y-96012000D01*
X143256000Y-96012000D01*
X143256000Y-95250000D01*
X145796000Y-95250000D02*
X146558000Y-95250000D01*
X146558000Y-96012000D01*
X145796000Y-96012000D01*
X145796000Y-95250000D01*
X148336000Y-95250000D02*
X149098000Y-95250000D01*
X149098000Y-96012000D01*
X148336000Y-96012000D01*
X148336000Y-95250000D01*
X150774400Y-95250000D02*
X151536400Y-95250000D01*
X151536400Y-96012000D01*
X150774400Y-96012000D01*
X150774400Y-95250000D01*
X136652000Y-91694000D02*
X152400000Y-91694000D01*
X129300000Y-150120000D02*
X129300000Y-147600000D01*
X129300000Y-147600000D02*
X157200000Y-147600000D01*
X157200000Y-147600000D02*
X157200000Y-150100000D01*
X122700000Y-147000000D02*
G75*
G02*
X119700000Y-147000000I-1500000J0D01*
G01*
X119700000Y-147000000D02*
G75*
G02*
X122700000Y-147000000I1500000J0D01*
G01*
X122518300Y-90100000D02*
G75*
G02*
X119518300Y-90100000I-1500000J0D01*
G01*
X119518300Y-90100000D02*
G75*
G02*
X122518300Y-90100000I1500000J0D01*
G01*
X179600000Y-90100000D02*
G75*
G02*
X176600000Y-90100000I-1500000J0D01*
G01*
X176600000Y-90100000D02*
G75*
G02*
X179600000Y-90100000I1500000J0D01*
G01*
X119610000Y-150120000D02*
G75*
G02*
X118110000Y-148620000I0J1500000D01*
G01*
X181610000Y-148600000D02*
G75*
G02*
X180110000Y-150100000I-1500000J0D01*
G01*
X180110000Y-87100000D02*
G75*
G02*
X181610000Y-88600000I0J-1500000D01*
G01*
X118110000Y-88540000D02*
G75*
G02*
X119610000Y-87040000I1500000J0D01*
G01*
X152400000Y-91702000D02*
X152400000Y-96000000D01*
X152400000Y-96000000D02*
X152654000Y-96000000D01*
X136652000Y-91694000D02*
X136652000Y-96000000D01*
X136652000Y-96000000D02*
X136398000Y-96000000D01*
M02*
