M48
; DRILL file {KiCad 9.0.7-9.0.7~ubuntu22.04.1} date 2026-03-12T12:07:10+0200
; FORMAT={-:-/ absolute / metric / decimal}
; #@! TF.CreationDate,2026-03-12T12:07:10+02:00
; #@! TF.GenerationSoftware,Kicad,Pcbnew,9.0.7-9.0.7~ubuntu22.04.1
; #@! TF.FileFunction,Plated,1,6,PTH
FMAT,2
METRIC
; #@! TA.AperFunction,Plated,PTH,ComponentDrill
T1C0.200
; #@! TA.AperFunction,Plated,PTH,ViaDrill
T2C0.300
; #@! TA.AperFunction,Plated,PTH,ComponentDrill
T3C1.000
; #@! TA.AperFunction,Plated,PTH,ComponentDrill
T4C1.100
; #@! TA.AperFunction,Plated,PTH,ComponentDrill
T5C1.300
; #@! TA.AperFunction,Plated,PTH,ComponentDrill
T6C1.500
; #@! TA.AperFunction,Plated,PTH,ComponentDrill
T7C1.600
%
G90
G05
T1
X165.675Y-123.925
X165.675Y-124.575
X165.675Y-125.875
X165.675Y-126.525
X166.463Y-123.925
X166.463Y-124.575
X166.463Y-125.875
X166.463Y-126.525
X167.25Y-123.925
X167.25Y-124.575
X167.25Y-125.875
X167.25Y-126.525
T2
X125.73Y-140.208
X125.73Y-141.478
X125.73Y-142.748
X125.984Y-95.25
X125.984Y-96.52
X125.984Y-97.79
X127.0Y-140.208
X127.0Y-141.478
X127.0Y-142.748
X127.254Y-95.25
X127.254Y-96.52
X127.254Y-97.79
X128.27Y-140.208
X128.27Y-141.478
X128.27Y-142.748
X128.524Y-95.25
X128.524Y-96.52
X128.524Y-97.79
X129.0Y-125.0
X129.032Y-103.759
X130.048Y-101.346
X135.255Y-101.854
X136.017Y-105.029
X138.049Y-113.157
X138.43Y-117.729
X138.435Y-116.143
X138.651Y-132.182
X138.684Y-98.806
X138.684Y-134.01
X139.827Y-114.681
X140.208Y-120.396
X140.97Y-116.205
X140.97Y-117.729
X141.351Y-106.045
X141.351Y-114.286
X141.478Y-98.933
X141.732Y-122.555
X142.113Y-111.76
X142.113Y-117.348
X142.494Y-114.3
X143.51Y-120.269
X143.637Y-111.76
X143.891Y-117.856
X144.272Y-114.046
X144.374Y-134.823
X144.384Y-132.944
X144.526Y-122.682
X144.731Y-118.518
X144.894Y-105.169
X145.118Y-119.275
X145.415Y-121.158
X146.685Y-108.966
X147.104Y-113.177
X147.193Y-118.2
X147.32Y-105.664
X147.32Y-110.616
X147.574Y-112.522
X148.322Y-113.284
X148.361Y-110.617
X148.59Y-98.171
X148.844Y-109.093
X149.8Y-104.6
X150.241Y-117.475
X150.241Y-118.491
X150.495Y-110.744
X150.622Y-108.966
X151.003Y-124.841
X151.079Y-132.486
X151.257Y-103.632
X151.257Y-117.475
X151.257Y-118.491
X151.613Y-112.73
X152.146Y-104.775
X152.146Y-106.807
X152.271Y-110.567
X152.318Y-112.701
X152.349Y-133.756
X152.527Y-122.432
X152.781Y-101.6
X153.075Y-112.75
X153.416Y-100.584
X153.797Y-121.031
X153.845Y-112.697
X154.178Y-114.427
X154.305Y-100.838
X154.305Y-106.68
X154.528Y-115.883
X154.686Y-110.363
X154.686Y-111.125
X154.686Y-112.776
X154.813Y-122.174
X155.067Y-115.316
X155.448Y-116.205
X155.448Y-117.15
X155.575Y-105.029
X155.575Y-106.045
X155.575Y-107.061
X155.956Y-126.492
X156.083Y-121.285
X156.464Y-116.959
X156.591Y-105.029
X156.591Y-106.045
X156.591Y-107.061
X156.591Y-108.204
X156.718Y-126.111
X156.972Y-121.539
X157.099Y-101.219
X157.201Y-116.387
X157.226Y-113.284
X157.607Y-105.029
X157.607Y-106.045
X157.607Y-107.061
X157.607Y-108.204
X157.607Y-128.016
X157.861Y-121.595
X157.93Y-116.891
X158.115Y-124.968
X158.75Y-121.412
X159.575Y-116.713
X159.792Y-121.898
X160.655Y-129.794
X161.798Y-128.016
X161.9Y-106.0
X161.925Y-129.794
X161.925Y-131.064
X162.306Y-111.633
X163.195Y-123.571
X163.195Y-124.271
X163.35Y-105.975
X163.671Y-107.791
X163.7Y-119.1
X164.084Y-124.968
X164.65Y-114.1
X164.719Y-124.968
X164.9Y-131.0
X165.1Y-122.809
X166.25Y-116.5
X166.765Y-131.025
X167.25Y-113.75
X167.725Y-134.112
X167.725Y-135.382
X167.725Y-136.652
X168.783Y-109.601
X168.783Y-110.49
X168.783Y-111.379
X168.783Y-112.268
X168.783Y-113.157
X168.785Y-131.265
X168.995Y-134.112
X168.995Y-135.382
X168.995Y-136.652
X169.799Y-109.601
X169.799Y-110.49
X169.799Y-111.379
X169.799Y-112.268
X169.799Y-113.157
X169.799Y-124.841
X169.926Y-140.208
X169.926Y-141.478
X169.926Y-142.748
X170.18Y-95.504
X170.18Y-96.774
X170.18Y-98.044
X170.265Y-134.112
X170.265Y-135.382
X170.265Y-136.652
X170.561Y-129.032
X170.688Y-131.318
X170.815Y-109.601
X170.815Y-110.49
X170.815Y-111.379
X170.815Y-112.268
X170.815Y-113.157
X170.942Y-121.92
X171.0Y-119.4
X171.196Y-140.208
X171.196Y-141.478
X171.196Y-142.748
X171.45Y-95.504
X171.45Y-96.774
X171.45Y-98.044
X172.466Y-140.208
X172.466Y-141.478
X172.466Y-142.748
X172.72Y-95.504
X172.72Y-96.774
X172.72Y-98.044
T3
X125.038Y-114.095
X125.038Y-116.095
X125.038Y-121.545
X125.038Y-123.545
X132.116Y-98.716
X134.116Y-98.716
X138.176Y-93.472
X140.716Y-93.472
X143.256Y-93.472
X145.796Y-93.472
X148.336Y-93.472
X150.876Y-93.472
X155.103Y-98.843
X157.103Y-98.843
X161.595Y-98.825
X163.595Y-98.825
X173.525Y-114.685
X173.525Y-116.685
X173.525Y-122.02
X173.525Y-124.02
T4
X131.182Y-105.232
X131.182Y-107.732
X131.182Y-110.232
X131.182Y-112.732
X131.2Y-122.889
X131.2Y-125.389
X131.2Y-127.889
X131.2Y-130.389
T5
X122.3Y-129.9
X122.3Y-134.9
X122.388Y-103.35
X122.388Y-108.35
X160.85Y-142.868
X165.85Y-142.868
X176.167Y-103.25
X176.167Y-108.25
X176.175Y-129.6
X176.175Y-134.6
T6
X134.86Y-139.94
X143.6Y-140.0
X152.5Y-140.0
T7
X132.32Y-137.4
X132.32Y-142.48
X137.4Y-137.4
X137.4Y-142.48
X141.06Y-137.46
X141.06Y-142.54
X146.14Y-137.46
X146.14Y-142.54
X149.96Y-137.46
X149.96Y-142.54
X155.04Y-137.46
X155.04Y-142.54
M30
