%TF.GenerationSoftware,KiCad,Pcbnew,9.0.8-9.0.8~ubuntu22.04.1*%
%TF.CreationDate,2026-04-26T22:17:14+03:00*%
%TF.ProjectId,Main Board - NDT,4d61696e-2042-46f6-9172-64202d204e44,rev?*%
%TF.SameCoordinates,Original*%
%TF.FileFunction,Soldermask,Bot*%
%TF.FilePolarity,Negative*%
%FSLAX46Y46*%
G04 Gerber Fmt 4.6, Leading zero omitted, Abs format (unit mm)*
G04 Created by KiCad (PCBNEW 9.0.8-9.0.8~ubuntu22.04.1) date 2026-04-26 22:17:14*
%MOMM*%
%LPD*%
G01*
G04 APERTURE LIST*
G04 Aperture macros list*
%AMRoundRect*
0 Rectangle with rounded corners*
0 $1 Rounding radius*
0 $2 $3 $4 $5 $6 $7 $8 $9 X,Y pos of 4 corners*
0 Add a 4 corners polygon primitive as box body*
4,1,4,$2,$3,$4,$5,$6,$7,$8,$9,$2,$3,0*
0 Add four circle primitives for the rounded corners*
1,1,$1+$1,$2,$3*
1,1,$1+$1,$4,$5*
1,1,$1+$1,$6,$7*
1,1,$1+$1,$8,$9*
0 Add four rect primitives between the rounded corners*
20,1,$1+$1,$2,$3,$4,$5,0*
20,1,$1+$1,$4,$5,$6,$7,0*
20,1,$1+$1,$6,$7,$8,$9,0*
20,1,$1+$1,$8,$9,$2,$3,0*%
G04 Aperture macros list end*
%ADD10C,0.010000*%
%ADD11RoundRect,0.250001X-1.149999X-1.149999X1.149999X-1.149999X1.149999X1.149999X-1.149999X1.149999X0*%
%ADD12C,2.800000*%
%ADD13C,1.750000*%
%ADD14C,2.100000*%
%ADD15RoundRect,0.250001X1.149999X-1.149999X1.149999X1.149999X-1.149999X1.149999X-1.149999X-1.149999X0*%
%ADD16C,2.500000*%
%ADD17C,2.600000*%
%ADD18R,1.700000X1.700000*%
%ADD19C,1.700000*%
%ADD20RoundRect,0.250001X-1.149999X1.149999X-1.149999X-1.149999X1.149999X-1.149999X1.149999X1.149999X0*%
%ADD21RoundRect,0.250000X-0.250000X-0.475000X0.250000X-0.475000X0.250000X0.475000X-0.250000X0.475000X0*%
%ADD22RoundRect,0.200000X-0.200000X-0.275000X0.200000X-0.275000X0.200000X0.275000X-0.200000X0.275000X0*%
%ADD23RoundRect,0.200000X-0.275000X0.200000X-0.275000X-0.200000X0.275000X-0.200000X0.275000X0.200000X0*%
%ADD24RoundRect,0.250000X-0.475000X0.250000X-0.475000X-0.250000X0.475000X-0.250000X0.475000X0.250000X0*%
%ADD25RoundRect,0.375000X-0.625000X-0.375000X0.625000X-0.375000X0.625000X0.375000X-0.625000X0.375000X0*%
%ADD26RoundRect,1.400000X-1.400000X-2.000000X1.400000X-2.000000X1.400000X2.000000X-1.400000X2.000000X0*%
%ADD27RoundRect,0.200000X0.200000X0.275000X-0.200000X0.275000X-0.200000X-0.275000X0.200000X-0.275000X0*%
%ADD28RoundRect,0.250000X0.475000X-0.250000X0.475000X0.250000X-0.475000X0.250000X-0.475000X-0.250000X0*%
%ADD29RoundRect,0.225000X-0.225000X-0.250000X0.225000X-0.250000X0.225000X0.250000X-0.225000X0.250000X0*%
%ADD30R,2.200000X1.450000*%
%ADD31R,0.254800X0.807999*%
%ADD32R,1.701800X0.304800*%
%ADD33RoundRect,0.200000X0.275000X-0.200000X0.275000X0.200000X-0.275000X0.200000X-0.275000X-0.200000X0*%
%ADD34RoundRect,0.225000X-0.250000X0.225000X-0.250000X-0.225000X0.250000X-0.225000X0.250000X0.225000X0*%
%ADD35RoundRect,0.225000X0.250000X-0.225000X0.250000X0.225000X-0.250000X0.225000X-0.250000X-0.225000X0*%
%ADD36RoundRect,0.225000X0.225000X0.250000X-0.225000X0.250000X-0.225000X-0.250000X0.225000X-0.250000X0*%
%ADD37RoundRect,0.225000X0.017678X-0.335876X0.335876X-0.017678X-0.017678X0.335876X-0.335876X0.017678X0*%
%ADD38RoundRect,0.375000X0.375000X-0.625000X0.375000X0.625000X-0.375000X0.625000X-0.375000X-0.625000X0*%
%ADD39RoundRect,1.375000X2.025000X-1.375000X2.025000X1.375000X-2.025000X1.375000X-2.025000X-1.375000X0*%
%ADD40RoundRect,0.250000X0.250000X0.475000X-0.250000X0.475000X-0.250000X-0.475000X0.250000X-0.475000X0*%
%ADD41RoundRect,0.218750X0.381250X-0.218750X0.381250X0.218750X-0.381250X0.218750X-0.381250X-0.218750X0*%
%ADD42RoundRect,0.100500X-0.986500X-0.301500X0.986500X-0.301500X0.986500X0.301500X-0.986500X0.301500X0*%
G04 APERTURE END LIST*
D10*
%TO.C,PS501*%
X163410000Y-124801000D02*
X163416000Y-124801000D01*
X163421000Y-124802000D01*
X163426000Y-124803000D01*
X163431000Y-124805000D01*
X163436000Y-124807000D01*
X163441000Y-124809000D01*
X163445000Y-124811000D01*
X163450000Y-124813000D01*
X163454000Y-124816000D01*
X163459000Y-124819000D01*
X163463000Y-124822000D01*
X163467000Y-124826000D01*
X163471000Y-124829000D01*
X163474000Y-124833000D01*
X163478000Y-124837000D01*
X163481000Y-124841000D01*
X163484000Y-124846000D01*
X163487000Y-124850000D01*
X163489000Y-124855000D01*
X163491000Y-124859000D01*
X163493000Y-124864000D01*
X163495000Y-124869000D01*
X163497000Y-124874000D01*
X163498000Y-124879000D01*
X163499000Y-124884000D01*
X163499000Y-124890000D01*
X163500000Y-124895000D01*
X163500000Y-124900000D01*
X163500000Y-125100000D01*
X163500000Y-125105000D01*
X163499000Y-125110000D01*
X163499000Y-125116000D01*
X163498000Y-125121000D01*
X163497000Y-125126000D01*
X163495000Y-125131000D01*
X163493000Y-125136000D01*
X163491000Y-125141000D01*
X163489000Y-125145000D01*
X163487000Y-125150000D01*
X163484000Y-125154000D01*
X163481000Y-125159000D01*
X163478000Y-125163000D01*
X163474000Y-125167000D01*
X163471000Y-125171000D01*
X163467000Y-125174000D01*
X163463000Y-125178000D01*
X163459000Y-125181000D01*
X163454000Y-125184000D01*
X163450000Y-125187000D01*
X163445000Y-125189000D01*
X163441000Y-125191000D01*
X163436000Y-125193000D01*
X163431000Y-125195000D01*
X163426000Y-125197000D01*
X163421000Y-125198000D01*
X163416000Y-125199000D01*
X163410000Y-125199000D01*
X163405000Y-125200000D01*
X163400000Y-125200000D01*
X162950000Y-125200000D01*
X162945000Y-125200000D01*
X162940000Y-125199000D01*
X162934000Y-125199000D01*
X162929000Y-125198000D01*
X162924000Y-125197000D01*
X162919000Y-125195000D01*
X162914000Y-125193000D01*
X162909000Y-125191000D01*
X162905000Y-125189000D01*
X162900000Y-125187000D01*
X162896000Y-125184000D01*
X162891000Y-125181000D01*
X162887000Y-125178000D01*
X162883000Y-125174000D01*
X162879000Y-125171000D01*
X162876000Y-125167000D01*
X162872000Y-125163000D01*
X162869000Y-125159000D01*
X162866000Y-125154000D01*
X162863000Y-125150000D01*
X162861000Y-125145000D01*
X162859000Y-125141000D01*
X162857000Y-125136000D01*
X162855000Y-125131000D01*
X162853000Y-125126000D01*
X162852000Y-125121000D01*
X162851000Y-125116000D01*
X162851000Y-125110000D01*
X162850000Y-125105000D01*
X162850000Y-125100000D01*
X162850000Y-124900000D01*
X162850000Y-124895000D01*
X162851000Y-124890000D01*
X162851000Y-124884000D01*
X162852000Y-124879000D01*
X162853000Y-124874000D01*
X162855000Y-124869000D01*
X162857000Y-124864000D01*
X162859000Y-124859000D01*
X162861000Y-124855000D01*
X162863000Y-124850000D01*
X162866000Y-124846000D01*
X162869000Y-124841000D01*
X162872000Y-124837000D01*
X162876000Y-124833000D01*
X162879000Y-124829000D01*
X162883000Y-124826000D01*
X162887000Y-124822000D01*
X162891000Y-124819000D01*
X162896000Y-124816000D01*
X162900000Y-124813000D01*
X162905000Y-124811000D01*
X162909000Y-124809000D01*
X162914000Y-124807000D01*
X162919000Y-124805000D01*
X162924000Y-124803000D01*
X162929000Y-124802000D01*
X162934000Y-124801000D01*
X162940000Y-124801000D01*
X162945000Y-124800000D01*
X162950000Y-124800000D01*
X163400000Y-124800000D01*
X163405000Y-124800000D01*
X163410000Y-124801000D01*
G36*
X163410000Y-124801000D02*
G01*
X163416000Y-124801000D01*
X163421000Y-124802000D01*
X163426000Y-124803000D01*
X163431000Y-124805000D01*
X163436000Y-124807000D01*
X163441000Y-124809000D01*
X163445000Y-124811000D01*
X163450000Y-124813000D01*
X163454000Y-124816000D01*
X163459000Y-124819000D01*
X163463000Y-124822000D01*
X163467000Y-124826000D01*
X163471000Y-124829000D01*
X163474000Y-124833000D01*
X163478000Y-124837000D01*
X163481000Y-124841000D01*
X163484000Y-124846000D01*
X163487000Y-124850000D01*
X163489000Y-124855000D01*
X163491000Y-124859000D01*
X163493000Y-124864000D01*
X163495000Y-124869000D01*
X163497000Y-124874000D01*
X163498000Y-124879000D01*
X163499000Y-124884000D01*
X163499000Y-124890000D01*
X163500000Y-124895000D01*
X163500000Y-124900000D01*
X163500000Y-125100000D01*
X163500000Y-125105000D01*
X163499000Y-125110000D01*
X163499000Y-125116000D01*
X163498000Y-125121000D01*
X163497000Y-125126000D01*
X163495000Y-125131000D01*
X163493000Y-125136000D01*
X163491000Y-125141000D01*
X163489000Y-125145000D01*
X163487000Y-125150000D01*
X163484000Y-125154000D01*
X163481000Y-125159000D01*
X163478000Y-125163000D01*
X163474000Y-125167000D01*
X163471000Y-125171000D01*
X163467000Y-125174000D01*
X163463000Y-125178000D01*
X163459000Y-125181000D01*
X163454000Y-125184000D01*
X163450000Y-125187000D01*
X163445000Y-125189000D01*
X163441000Y-125191000D01*
X163436000Y-125193000D01*
X163431000Y-125195000D01*
X163426000Y-125197000D01*
X163421000Y-125198000D01*
X163416000Y-125199000D01*
X163410000Y-125199000D01*
X163405000Y-125200000D01*
X163400000Y-125200000D01*
X162950000Y-125200000D01*
X162945000Y-125200000D01*
X162940000Y-125199000D01*
X162934000Y-125199000D01*
X162929000Y-125198000D01*
X162924000Y-125197000D01*
X162919000Y-125195000D01*
X162914000Y-125193000D01*
X162909000Y-125191000D01*
X162905000Y-125189000D01*
X162900000Y-125187000D01*
X162896000Y-125184000D01*
X162891000Y-125181000D01*
X162887000Y-125178000D01*
X162883000Y-125174000D01*
X162879000Y-125171000D01*
X162876000Y-125167000D01*
X162872000Y-125163000D01*
X162869000Y-125159000D01*
X162866000Y-125154000D01*
X162863000Y-125150000D01*
X162861000Y-125145000D01*
X162859000Y-125141000D01*
X162857000Y-125136000D01*
X162855000Y-125131000D01*
X162853000Y-125126000D01*
X162852000Y-125121000D01*
X162851000Y-125116000D01*
X162851000Y-125110000D01*
X162850000Y-125105000D01*
X162850000Y-125100000D01*
X162850000Y-124900000D01*
X162850000Y-124895000D01*
X162851000Y-124890000D01*
X162851000Y-124884000D01*
X162852000Y-124879000D01*
X162853000Y-124874000D01*
X162855000Y-124869000D01*
X162857000Y-124864000D01*
X162859000Y-124859000D01*
X162861000Y-124855000D01*
X162863000Y-124850000D01*
X162866000Y-124846000D01*
X162869000Y-124841000D01*
X162872000Y-124837000D01*
X162876000Y-124833000D01*
X162879000Y-124829000D01*
X162883000Y-124826000D01*
X162887000Y-124822000D01*
X162891000Y-124819000D01*
X162896000Y-124816000D01*
X162900000Y-124813000D01*
X162905000Y-124811000D01*
X162909000Y-124809000D01*
X162914000Y-124807000D01*
X162919000Y-124805000D01*
X162924000Y-124803000D01*
X162929000Y-124802000D01*
X162934000Y-124801000D01*
X162940000Y-124801000D01*
X162945000Y-124800000D01*
X162950000Y-124800000D01*
X163400000Y-124800000D01*
X163405000Y-124800000D01*
X163410000Y-124801000D01*
G37*
X163960000Y-123326000D02*
X163966000Y-123326000D01*
X163971000Y-123327000D01*
X163976000Y-123328000D01*
X163981000Y-123330000D01*
X163986000Y-123332000D01*
X163991000Y-123334000D01*
X163995000Y-123336000D01*
X164000000Y-123338000D01*
X164004000Y-123341000D01*
X164009000Y-123344000D01*
X164013000Y-123347000D01*
X164017000Y-123351000D01*
X164021000Y-123354000D01*
X164024000Y-123358000D01*
X164028000Y-123362000D01*
X164031000Y-123366000D01*
X164034000Y-123371000D01*
X164037000Y-123375000D01*
X164039000Y-123380000D01*
X164041000Y-123384000D01*
X164043000Y-123389000D01*
X164045000Y-123394000D01*
X164047000Y-123399000D01*
X164048000Y-123404000D01*
X164049000Y-123409000D01*
X164049000Y-123415000D01*
X164050000Y-123420000D01*
X164050000Y-123425000D01*
X164050000Y-124125000D01*
X164050000Y-124130000D01*
X164049000Y-124135000D01*
X164049000Y-124141000D01*
X164048000Y-124146000D01*
X164047000Y-124151000D01*
X164045000Y-124156000D01*
X164043000Y-124161000D01*
X164041000Y-124166000D01*
X164039000Y-124170000D01*
X164037000Y-124175000D01*
X164034000Y-124179000D01*
X164031000Y-124184000D01*
X164028000Y-124188000D01*
X164024000Y-124192000D01*
X164021000Y-124196000D01*
X164017000Y-124199000D01*
X164013000Y-124203000D01*
X164009000Y-124206000D01*
X164004000Y-124209000D01*
X164000000Y-124212000D01*
X163995000Y-124214000D01*
X163991000Y-124216000D01*
X163986000Y-124218000D01*
X163981000Y-124220000D01*
X163976000Y-124222000D01*
X163971000Y-124223000D01*
X163966000Y-124224000D01*
X163960000Y-124224000D01*
X163955000Y-124225000D01*
X163950000Y-124225000D01*
X163800000Y-124225000D01*
X163795000Y-124225000D01*
X163790000Y-124224000D01*
X163784000Y-124224000D01*
X163779000Y-124223000D01*
X163774000Y-124222000D01*
X163769000Y-124220000D01*
X163764000Y-124218000D01*
X163759000Y-124216000D01*
X163755000Y-124214000D01*
X163750000Y-124212000D01*
X163746000Y-124209000D01*
X163741000Y-124206000D01*
X163737000Y-124203000D01*
X163733000Y-124199000D01*
X163729000Y-124196000D01*
X163726000Y-124192000D01*
X163722000Y-124188000D01*
X163719000Y-124184000D01*
X163716000Y-124179000D01*
X163713000Y-124175000D01*
X163711000Y-124170000D01*
X163709000Y-124166000D01*
X163707000Y-124161000D01*
X163705000Y-124156000D01*
X163703000Y-124151000D01*
X163702000Y-124146000D01*
X163701000Y-124141000D01*
X163701000Y-124135000D01*
X163700000Y-124130000D01*
X163700000Y-124125000D01*
X163700000Y-123425000D01*
X163700000Y-123420000D01*
X163701000Y-123415000D01*
X163701000Y-123409000D01*
X163702000Y-123404000D01*
X163703000Y-123399000D01*
X163705000Y-123394000D01*
X163707000Y-123389000D01*
X163709000Y-123384000D01*
X163711000Y-123380000D01*
X163713000Y-123375000D01*
X163716000Y-123371000D01*
X163719000Y-123366000D01*
X163722000Y-123362000D01*
X163726000Y-123358000D01*
X163729000Y-123354000D01*
X163733000Y-123351000D01*
X163737000Y-123347000D01*
X163741000Y-123344000D01*
X163746000Y-123341000D01*
X163750000Y-123338000D01*
X163755000Y-123336000D01*
X163759000Y-123334000D01*
X163764000Y-123332000D01*
X163769000Y-123330000D01*
X163774000Y-123328000D01*
X163779000Y-123327000D01*
X163784000Y-123326000D01*
X163790000Y-123326000D01*
X163795000Y-123325000D01*
X163800000Y-123325000D01*
X163950000Y-123325000D01*
X163955000Y-123325000D01*
X163960000Y-123326000D01*
G36*
X163960000Y-123326000D02*
G01*
X163966000Y-123326000D01*
X163971000Y-123327000D01*
X163976000Y-123328000D01*
X163981000Y-123330000D01*
X163986000Y-123332000D01*
X163991000Y-123334000D01*
X163995000Y-123336000D01*
X164000000Y-123338000D01*
X164004000Y-123341000D01*
X164009000Y-123344000D01*
X164013000Y-123347000D01*
X164017000Y-123351000D01*
X164021000Y-123354000D01*
X164024000Y-123358000D01*
X164028000Y-123362000D01*
X164031000Y-123366000D01*
X164034000Y-123371000D01*
X164037000Y-123375000D01*
X164039000Y-123380000D01*
X164041000Y-123384000D01*
X164043000Y-123389000D01*
X164045000Y-123394000D01*
X164047000Y-123399000D01*
X164048000Y-123404000D01*
X164049000Y-123409000D01*
X164049000Y-123415000D01*
X164050000Y-123420000D01*
X164050000Y-123425000D01*
X164050000Y-124125000D01*
X164050000Y-124130000D01*
X164049000Y-124135000D01*
X164049000Y-124141000D01*
X164048000Y-124146000D01*
X164047000Y-124151000D01*
X164045000Y-124156000D01*
X164043000Y-124161000D01*
X164041000Y-124166000D01*
X164039000Y-124170000D01*
X164037000Y-124175000D01*
X164034000Y-124179000D01*
X164031000Y-124184000D01*
X164028000Y-124188000D01*
X164024000Y-124192000D01*
X164021000Y-124196000D01*
X164017000Y-124199000D01*
X164013000Y-124203000D01*
X164009000Y-124206000D01*
X164004000Y-124209000D01*
X164000000Y-124212000D01*
X163995000Y-124214000D01*
X163991000Y-124216000D01*
X163986000Y-124218000D01*
X163981000Y-124220000D01*
X163976000Y-124222000D01*
X163971000Y-124223000D01*
X163966000Y-124224000D01*
X163960000Y-124224000D01*
X163955000Y-124225000D01*
X163950000Y-124225000D01*
X163800000Y-124225000D01*
X163795000Y-124225000D01*
X163790000Y-124224000D01*
X163784000Y-124224000D01*
X163779000Y-124223000D01*
X163774000Y-124222000D01*
X163769000Y-124220000D01*
X163764000Y-124218000D01*
X163759000Y-124216000D01*
X163755000Y-124214000D01*
X163750000Y-124212000D01*
X163746000Y-124209000D01*
X163741000Y-124206000D01*
X163737000Y-124203000D01*
X163733000Y-124199000D01*
X163729000Y-124196000D01*
X163726000Y-124192000D01*
X163722000Y-124188000D01*
X163719000Y-124184000D01*
X163716000Y-124179000D01*
X163713000Y-124175000D01*
X163711000Y-124170000D01*
X163709000Y-124166000D01*
X163707000Y-124161000D01*
X163705000Y-124156000D01*
X163703000Y-124151000D01*
X163702000Y-124146000D01*
X163701000Y-124141000D01*
X163701000Y-124135000D01*
X163700000Y-124130000D01*
X163700000Y-124125000D01*
X163700000Y-123425000D01*
X163700000Y-123420000D01*
X163701000Y-123415000D01*
X163701000Y-123409000D01*
X163702000Y-123404000D01*
X163703000Y-123399000D01*
X163705000Y-123394000D01*
X163707000Y-123389000D01*
X163709000Y-123384000D01*
X163711000Y-123380000D01*
X163713000Y-123375000D01*
X163716000Y-123371000D01*
X163719000Y-123366000D01*
X163722000Y-123362000D01*
X163726000Y-123358000D01*
X163729000Y-123354000D01*
X163733000Y-123351000D01*
X163737000Y-123347000D01*
X163741000Y-123344000D01*
X163746000Y-123341000D01*
X163750000Y-123338000D01*
X163755000Y-123336000D01*
X163759000Y-123334000D01*
X163764000Y-123332000D01*
X163769000Y-123330000D01*
X163774000Y-123328000D01*
X163779000Y-123327000D01*
X163784000Y-123326000D01*
X163790000Y-123326000D01*
X163795000Y-123325000D01*
X163800000Y-123325000D01*
X163950000Y-123325000D01*
X163955000Y-123325000D01*
X163960000Y-123326000D01*
G37*
X164460000Y-123326000D02*
X164466000Y-123326000D01*
X164471000Y-123327000D01*
X164476000Y-123328000D01*
X164481000Y-123330000D01*
X164486000Y-123332000D01*
X164491000Y-123334000D01*
X164495000Y-123336000D01*
X164500000Y-123338000D01*
X164504000Y-123341000D01*
X164509000Y-123344000D01*
X164513000Y-123347000D01*
X164517000Y-123351000D01*
X164521000Y-123354000D01*
X164524000Y-123358000D01*
X164528000Y-123362000D01*
X164531000Y-123366000D01*
X164534000Y-123371000D01*
X164537000Y-123375000D01*
X164539000Y-123380000D01*
X164541000Y-123384000D01*
X164543000Y-123389000D01*
X164545000Y-123394000D01*
X164547000Y-123399000D01*
X164548000Y-123404000D01*
X164549000Y-123409000D01*
X164549000Y-123415000D01*
X164550000Y-123420000D01*
X164550000Y-123425000D01*
X164550000Y-124125000D01*
X164550000Y-124130000D01*
X164549000Y-124135000D01*
X164549000Y-124141000D01*
X164548000Y-124146000D01*
X164547000Y-124151000D01*
X164545000Y-124156000D01*
X164543000Y-124161000D01*
X164541000Y-124166000D01*
X164539000Y-124170000D01*
X164537000Y-124175000D01*
X164534000Y-124179000D01*
X164531000Y-124184000D01*
X164528000Y-124188000D01*
X164524000Y-124192000D01*
X164521000Y-124196000D01*
X164517000Y-124199000D01*
X164513000Y-124203000D01*
X164509000Y-124206000D01*
X164504000Y-124209000D01*
X164500000Y-124212000D01*
X164495000Y-124214000D01*
X164491000Y-124216000D01*
X164486000Y-124218000D01*
X164481000Y-124220000D01*
X164476000Y-124222000D01*
X164471000Y-124223000D01*
X164466000Y-124224000D01*
X164460000Y-124224000D01*
X164455000Y-124225000D01*
X164450000Y-124225000D01*
X164300000Y-124225000D01*
X164295000Y-124225000D01*
X164290000Y-124224000D01*
X164284000Y-124224000D01*
X164279000Y-124223000D01*
X164274000Y-124222000D01*
X164269000Y-124220000D01*
X164264000Y-124218000D01*
X164259000Y-124216000D01*
X164255000Y-124214000D01*
X164250000Y-124212000D01*
X164246000Y-124209000D01*
X164241000Y-124206000D01*
X164237000Y-124203000D01*
X164233000Y-124199000D01*
X164229000Y-124196000D01*
X164226000Y-124192000D01*
X164222000Y-124188000D01*
X164219000Y-124184000D01*
X164216000Y-124179000D01*
X164213000Y-124175000D01*
X164211000Y-124170000D01*
X164209000Y-124166000D01*
X164207000Y-124161000D01*
X164205000Y-124156000D01*
X164203000Y-124151000D01*
X164202000Y-124146000D01*
X164201000Y-124141000D01*
X164201000Y-124135000D01*
X164200000Y-124130000D01*
X164200000Y-124125000D01*
X164200000Y-123425000D01*
X164200000Y-123420000D01*
X164201000Y-123415000D01*
X164201000Y-123409000D01*
X164202000Y-123404000D01*
X164203000Y-123399000D01*
X164205000Y-123394000D01*
X164207000Y-123389000D01*
X164209000Y-123384000D01*
X164211000Y-123380000D01*
X164213000Y-123375000D01*
X164216000Y-123371000D01*
X164219000Y-123366000D01*
X164222000Y-123362000D01*
X164226000Y-123358000D01*
X164229000Y-123354000D01*
X164233000Y-123351000D01*
X164237000Y-123347000D01*
X164241000Y-123344000D01*
X164246000Y-123341000D01*
X164250000Y-123338000D01*
X164255000Y-123336000D01*
X164259000Y-123334000D01*
X164264000Y-123332000D01*
X164269000Y-123330000D01*
X164274000Y-123328000D01*
X164279000Y-123327000D01*
X164284000Y-123326000D01*
X164290000Y-123326000D01*
X164295000Y-123325000D01*
X164300000Y-123325000D01*
X164450000Y-123325000D01*
X164455000Y-123325000D01*
X164460000Y-123326000D01*
G36*
X164460000Y-123326000D02*
G01*
X164466000Y-123326000D01*
X164471000Y-123327000D01*
X164476000Y-123328000D01*
X164481000Y-123330000D01*
X164486000Y-123332000D01*
X164491000Y-123334000D01*
X164495000Y-123336000D01*
X164500000Y-123338000D01*
X164504000Y-123341000D01*
X164509000Y-123344000D01*
X164513000Y-123347000D01*
X164517000Y-123351000D01*
X164521000Y-123354000D01*
X164524000Y-123358000D01*
X164528000Y-123362000D01*
X164531000Y-123366000D01*
X164534000Y-123371000D01*
X164537000Y-123375000D01*
X164539000Y-123380000D01*
X164541000Y-123384000D01*
X164543000Y-123389000D01*
X164545000Y-123394000D01*
X164547000Y-123399000D01*
X164548000Y-123404000D01*
X164549000Y-123409000D01*
X164549000Y-123415000D01*
X164550000Y-123420000D01*
X164550000Y-123425000D01*
X164550000Y-124125000D01*
X164550000Y-124130000D01*
X164549000Y-124135000D01*
X164549000Y-124141000D01*
X164548000Y-124146000D01*
X164547000Y-124151000D01*
X164545000Y-124156000D01*
X164543000Y-124161000D01*
X164541000Y-124166000D01*
X164539000Y-124170000D01*
X164537000Y-124175000D01*
X164534000Y-124179000D01*
X164531000Y-124184000D01*
X164528000Y-124188000D01*
X164524000Y-124192000D01*
X164521000Y-124196000D01*
X164517000Y-124199000D01*
X164513000Y-124203000D01*
X164509000Y-124206000D01*
X164504000Y-124209000D01*
X164500000Y-124212000D01*
X164495000Y-124214000D01*
X164491000Y-124216000D01*
X164486000Y-124218000D01*
X164481000Y-124220000D01*
X164476000Y-124222000D01*
X164471000Y-124223000D01*
X164466000Y-124224000D01*
X164460000Y-124224000D01*
X164455000Y-124225000D01*
X164450000Y-124225000D01*
X164300000Y-124225000D01*
X164295000Y-124225000D01*
X164290000Y-124224000D01*
X164284000Y-124224000D01*
X164279000Y-124223000D01*
X164274000Y-124222000D01*
X164269000Y-124220000D01*
X164264000Y-124218000D01*
X164259000Y-124216000D01*
X164255000Y-124214000D01*
X164250000Y-124212000D01*
X164246000Y-124209000D01*
X164241000Y-124206000D01*
X164237000Y-124203000D01*
X164233000Y-124199000D01*
X164229000Y-124196000D01*
X164226000Y-124192000D01*
X164222000Y-124188000D01*
X164219000Y-124184000D01*
X164216000Y-124179000D01*
X164213000Y-124175000D01*
X164211000Y-124170000D01*
X164209000Y-124166000D01*
X164207000Y-124161000D01*
X164205000Y-124156000D01*
X164203000Y-124151000D01*
X164202000Y-124146000D01*
X164201000Y-124141000D01*
X164201000Y-124135000D01*
X164200000Y-124130000D01*
X164200000Y-124125000D01*
X164200000Y-123425000D01*
X164200000Y-123420000D01*
X164201000Y-123415000D01*
X164201000Y-123409000D01*
X164202000Y-123404000D01*
X164203000Y-123399000D01*
X164205000Y-123394000D01*
X164207000Y-123389000D01*
X164209000Y-123384000D01*
X164211000Y-123380000D01*
X164213000Y-123375000D01*
X164216000Y-123371000D01*
X164219000Y-123366000D01*
X164222000Y-123362000D01*
X164226000Y-123358000D01*
X164229000Y-123354000D01*
X164233000Y-123351000D01*
X164237000Y-123347000D01*
X164241000Y-123344000D01*
X164246000Y-123341000D01*
X164250000Y-123338000D01*
X164255000Y-123336000D01*
X164259000Y-123334000D01*
X164264000Y-123332000D01*
X164269000Y-123330000D01*
X164274000Y-123328000D01*
X164279000Y-123327000D01*
X164284000Y-123326000D01*
X164290000Y-123326000D01*
X164295000Y-123325000D01*
X164300000Y-123325000D01*
X164450000Y-123325000D01*
X164455000Y-123325000D01*
X164460000Y-123326000D01*
G37*
X163460000Y-123326000D02*
X163466000Y-123326000D01*
X163471000Y-123327000D01*
X163476000Y-123328000D01*
X163481000Y-123330000D01*
X163486000Y-123332000D01*
X163491000Y-123334000D01*
X163495000Y-123336000D01*
X163500000Y-123338000D01*
X163504000Y-123341000D01*
X163509000Y-123344000D01*
X163513000Y-123347000D01*
X163517000Y-123351000D01*
X163521000Y-123354000D01*
X163524000Y-123358000D01*
X163528000Y-123362000D01*
X163531000Y-123366000D01*
X163534000Y-123371000D01*
X163537000Y-123375000D01*
X163539000Y-123380000D01*
X163541000Y-123384000D01*
X163543000Y-123389000D01*
X163545000Y-123394000D01*
X163547000Y-123399000D01*
X163548000Y-123404000D01*
X163549000Y-123409000D01*
X163549000Y-123415000D01*
X163550000Y-123420000D01*
X163550000Y-123425000D01*
X163550000Y-124550000D01*
X163550000Y-124555000D01*
X163549000Y-124560000D01*
X163549000Y-124566000D01*
X163548000Y-124571000D01*
X163547000Y-124576000D01*
X163545000Y-124581000D01*
X163543000Y-124586000D01*
X163541000Y-124591000D01*
X163539000Y-124595000D01*
X163537000Y-124600000D01*
X163534000Y-124604000D01*
X163531000Y-124609000D01*
X163528000Y-124613000D01*
X163524000Y-124617000D01*
X163521000Y-124621000D01*
X163517000Y-124624000D01*
X163513000Y-124628000D01*
X163509000Y-124631000D01*
X163504000Y-124634000D01*
X163500000Y-124637000D01*
X163495000Y-124639000D01*
X163491000Y-124641000D01*
X163486000Y-124643000D01*
X163481000Y-124645000D01*
X163476000Y-124647000D01*
X163471000Y-124648000D01*
X163466000Y-124649000D01*
X163460000Y-124649000D01*
X163455000Y-124650000D01*
X163450000Y-124650000D01*
X162950000Y-124650000D01*
X162945000Y-124650000D01*
X162940000Y-124649000D01*
X162934000Y-124649000D01*
X162929000Y-124648000D01*
X162924000Y-124647000D01*
X162919000Y-124645000D01*
X162914000Y-124643000D01*
X162909000Y-124641000D01*
X162905000Y-124639000D01*
X162900000Y-124637000D01*
X162896000Y-124634000D01*
X162891000Y-124631000D01*
X162887000Y-124628000D01*
X162883000Y-124624000D01*
X162879000Y-124621000D01*
X162876000Y-124617000D01*
X162872000Y-124613000D01*
X162869000Y-124609000D01*
X162866000Y-124604000D01*
X162863000Y-124600000D01*
X162861000Y-124595000D01*
X162859000Y-124591000D01*
X162857000Y-124586000D01*
X162855000Y-124581000D01*
X162853000Y-124576000D01*
X162852000Y-124571000D01*
X162851000Y-124566000D01*
X162851000Y-124560000D01*
X162850000Y-124555000D01*
X162850000Y-124550000D01*
X162850000Y-124300000D01*
X162850000Y-124295000D01*
X162851000Y-124290000D01*
X162851000Y-124284000D01*
X162852000Y-124279000D01*
X162853000Y-124274000D01*
X162855000Y-124269000D01*
X162857000Y-124264000D01*
X162859000Y-124259000D01*
X162861000Y-124255000D01*
X162863000Y-124250000D01*
X162866000Y-124246000D01*
X162869000Y-124241000D01*
X162872000Y-124237000D01*
X162876000Y-124233000D01*
X162879000Y-124229000D01*
X162883000Y-124226000D01*
X162887000Y-124222000D01*
X162891000Y-124219000D01*
X162896000Y-124216000D01*
X162900000Y-124213000D01*
X162905000Y-124211000D01*
X162909000Y-124209000D01*
X162914000Y-124207000D01*
X162919000Y-124205000D01*
X162924000Y-124203000D01*
X162929000Y-124202000D01*
X162934000Y-124201000D01*
X162940000Y-124201000D01*
X162945000Y-124200000D01*
X162950000Y-124200000D01*
X163150000Y-124200000D01*
X163153000Y-124200000D01*
X163155000Y-124200000D01*
X163158000Y-124199000D01*
X163160000Y-124199000D01*
X163163000Y-124198000D01*
X163165000Y-124198000D01*
X163168000Y-124197000D01*
X163170000Y-124196000D01*
X163173000Y-124195000D01*
X163175000Y-124193000D01*
X163177000Y-124192000D01*
X163179000Y-124190000D01*
X163181000Y-124189000D01*
X163183000Y-124187000D01*
X163185000Y-124185000D01*
X163187000Y-124183000D01*
X163189000Y-124181000D01*
X163190000Y-124179000D01*
X163192000Y-124177000D01*
X163193000Y-124175000D01*
X163195000Y-124173000D01*
X163196000Y-124170000D01*
X163197000Y-124168000D01*
X163198000Y-124165000D01*
X163198000Y-124163000D01*
X163199000Y-124160000D01*
X163199000Y-124158000D01*
X163200000Y-124155000D01*
X163200000Y-124153000D01*
X163200000Y-124150000D01*
X163200000Y-123425000D01*
X163200000Y-123420000D01*
X163201000Y-123415000D01*
X163201000Y-123409000D01*
X163202000Y-123404000D01*
X163203000Y-123399000D01*
X163205000Y-123394000D01*
X163207000Y-123389000D01*
X163209000Y-123384000D01*
X163211000Y-123380000D01*
X163213000Y-123375000D01*
X163216000Y-123371000D01*
X163219000Y-123366000D01*
X163222000Y-123362000D01*
X163226000Y-123358000D01*
X163229000Y-123354000D01*
X163233000Y-123351000D01*
X163237000Y-123347000D01*
X163241000Y-123344000D01*
X163246000Y-123341000D01*
X163250000Y-123338000D01*
X163255000Y-123336000D01*
X163259000Y-123334000D01*
X163264000Y-123332000D01*
X163269000Y-123330000D01*
X163274000Y-123328000D01*
X163279000Y-123327000D01*
X163284000Y-123326000D01*
X163290000Y-123326000D01*
X163295000Y-123325000D01*
X163300000Y-123325000D01*
X163450000Y-123325000D01*
X163455000Y-123325000D01*
X163460000Y-123326000D01*
G36*
X163460000Y-123326000D02*
G01*
X163466000Y-123326000D01*
X163471000Y-123327000D01*
X163476000Y-123328000D01*
X163481000Y-123330000D01*
X163486000Y-123332000D01*
X163491000Y-123334000D01*
X163495000Y-123336000D01*
X163500000Y-123338000D01*
X163504000Y-123341000D01*
X163509000Y-123344000D01*
X163513000Y-123347000D01*
X163517000Y-123351000D01*
X163521000Y-123354000D01*
X163524000Y-123358000D01*
X163528000Y-123362000D01*
X163531000Y-123366000D01*
X163534000Y-123371000D01*
X163537000Y-123375000D01*
X163539000Y-123380000D01*
X163541000Y-123384000D01*
X163543000Y-123389000D01*
X163545000Y-123394000D01*
X163547000Y-123399000D01*
X163548000Y-123404000D01*
X163549000Y-123409000D01*
X163549000Y-123415000D01*
X163550000Y-123420000D01*
X163550000Y-123425000D01*
X163550000Y-124550000D01*
X163550000Y-124555000D01*
X163549000Y-124560000D01*
X163549000Y-124566000D01*
X163548000Y-124571000D01*
X163547000Y-124576000D01*
X163545000Y-124581000D01*
X163543000Y-124586000D01*
X163541000Y-124591000D01*
X163539000Y-124595000D01*
X163537000Y-124600000D01*
X163534000Y-124604000D01*
X163531000Y-124609000D01*
X163528000Y-124613000D01*
X163524000Y-124617000D01*
X163521000Y-124621000D01*
X163517000Y-124624000D01*
X163513000Y-124628000D01*
X163509000Y-124631000D01*
X163504000Y-124634000D01*
X163500000Y-124637000D01*
X163495000Y-124639000D01*
X163491000Y-124641000D01*
X163486000Y-124643000D01*
X163481000Y-124645000D01*
X163476000Y-124647000D01*
X163471000Y-124648000D01*
X163466000Y-124649000D01*
X163460000Y-124649000D01*
X163455000Y-124650000D01*
X163450000Y-124650000D01*
X162950000Y-124650000D01*
X162945000Y-124650000D01*
X162940000Y-124649000D01*
X162934000Y-124649000D01*
X162929000Y-124648000D01*
X162924000Y-124647000D01*
X162919000Y-124645000D01*
X162914000Y-124643000D01*
X162909000Y-124641000D01*
X162905000Y-124639000D01*
X162900000Y-124637000D01*
X162896000Y-124634000D01*
X162891000Y-124631000D01*
X162887000Y-124628000D01*
X162883000Y-124624000D01*
X162879000Y-124621000D01*
X162876000Y-124617000D01*
X162872000Y-124613000D01*
X162869000Y-124609000D01*
X162866000Y-124604000D01*
X162863000Y-124600000D01*
X162861000Y-124595000D01*
X162859000Y-124591000D01*
X162857000Y-124586000D01*
X162855000Y-124581000D01*
X162853000Y-124576000D01*
X162852000Y-124571000D01*
X162851000Y-124566000D01*
X162851000Y-124560000D01*
X162850000Y-124555000D01*
X162850000Y-124550000D01*
X162850000Y-124300000D01*
X162850000Y-124295000D01*
X162851000Y-124290000D01*
X162851000Y-124284000D01*
X162852000Y-124279000D01*
X162853000Y-124274000D01*
X162855000Y-124269000D01*
X162857000Y-124264000D01*
X162859000Y-124259000D01*
X162861000Y-124255000D01*
X162863000Y-124250000D01*
X162866000Y-124246000D01*
X162869000Y-124241000D01*
X162872000Y-124237000D01*
X162876000Y-124233000D01*
X162879000Y-124229000D01*
X162883000Y-124226000D01*
X162887000Y-124222000D01*
X162891000Y-124219000D01*
X162896000Y-124216000D01*
X162900000Y-124213000D01*
X162905000Y-124211000D01*
X162909000Y-124209000D01*
X162914000Y-124207000D01*
X162919000Y-124205000D01*
X162924000Y-124203000D01*
X162929000Y-124202000D01*
X162934000Y-124201000D01*
X162940000Y-124201000D01*
X162945000Y-124200000D01*
X162950000Y-124200000D01*
X163150000Y-124200000D01*
X163153000Y-124200000D01*
X163155000Y-124200000D01*
X163158000Y-124199000D01*
X163160000Y-124199000D01*
X163163000Y-124198000D01*
X163165000Y-124198000D01*
X163168000Y-124197000D01*
X163170000Y-124196000D01*
X163173000Y-124195000D01*
X163175000Y-124193000D01*
X163177000Y-124192000D01*
X163179000Y-124190000D01*
X163181000Y-124189000D01*
X163183000Y-124187000D01*
X163185000Y-124185000D01*
X163187000Y-124183000D01*
X163189000Y-124181000D01*
X163190000Y-124179000D01*
X163192000Y-124177000D01*
X163193000Y-124175000D01*
X163195000Y-124173000D01*
X163196000Y-124170000D01*
X163197000Y-124168000D01*
X163198000Y-124165000D01*
X163198000Y-124163000D01*
X163199000Y-124160000D01*
X163199000Y-124158000D01*
X163200000Y-124155000D01*
X163200000Y-124153000D01*
X163200000Y-124150000D01*
X163200000Y-123425000D01*
X163200000Y-123420000D01*
X163201000Y-123415000D01*
X163201000Y-123409000D01*
X163202000Y-123404000D01*
X163203000Y-123399000D01*
X163205000Y-123394000D01*
X163207000Y-123389000D01*
X163209000Y-123384000D01*
X163211000Y-123380000D01*
X163213000Y-123375000D01*
X163216000Y-123371000D01*
X163219000Y-123366000D01*
X163222000Y-123362000D01*
X163226000Y-123358000D01*
X163229000Y-123354000D01*
X163233000Y-123351000D01*
X163237000Y-123347000D01*
X163241000Y-123344000D01*
X163246000Y-123341000D01*
X163250000Y-123338000D01*
X163255000Y-123336000D01*
X163259000Y-123334000D01*
X163264000Y-123332000D01*
X163269000Y-123330000D01*
X163274000Y-123328000D01*
X163279000Y-123327000D01*
X163284000Y-123326000D01*
X163290000Y-123326000D01*
X163295000Y-123325000D01*
X163300000Y-123325000D01*
X163450000Y-123325000D01*
X163455000Y-123325000D01*
X163460000Y-123326000D01*
G37*
X163460000Y-125801000D02*
X163466000Y-125801000D01*
X163471000Y-125802000D01*
X163476000Y-125803000D01*
X163481000Y-125805000D01*
X163486000Y-125807000D01*
X163491000Y-125809000D01*
X163495000Y-125811000D01*
X163500000Y-125813000D01*
X163504000Y-125816000D01*
X163509000Y-125819000D01*
X163513000Y-125822000D01*
X163517000Y-125826000D01*
X163521000Y-125829000D01*
X163524000Y-125833000D01*
X163528000Y-125837000D01*
X163531000Y-125841000D01*
X163534000Y-125846000D01*
X163537000Y-125850000D01*
X163539000Y-125855000D01*
X163541000Y-125859000D01*
X163543000Y-125864000D01*
X163545000Y-125869000D01*
X163547000Y-125874000D01*
X163548000Y-125879000D01*
X163549000Y-125884000D01*
X163549000Y-125890000D01*
X163550000Y-125895000D01*
X163550000Y-125900000D01*
X163550000Y-127025000D01*
X163550000Y-127030000D01*
X163549000Y-127035000D01*
X163549000Y-127041000D01*
X163548000Y-127046000D01*
X163547000Y-127051000D01*
X163545000Y-127056000D01*
X163543000Y-127061000D01*
X163541000Y-127066000D01*
X163539000Y-127070000D01*
X163537000Y-127075000D01*
X163534000Y-127079000D01*
X163531000Y-127084000D01*
X163528000Y-127088000D01*
X163524000Y-127092000D01*
X163521000Y-127096000D01*
X163517000Y-127099000D01*
X163513000Y-127103000D01*
X163509000Y-127106000D01*
X163504000Y-127109000D01*
X163500000Y-127112000D01*
X163495000Y-127114000D01*
X163491000Y-127116000D01*
X163486000Y-127118000D01*
X163481000Y-127120000D01*
X163476000Y-127122000D01*
X163471000Y-127123000D01*
X163466000Y-127124000D01*
X163460000Y-127124000D01*
X163455000Y-127125000D01*
X163450000Y-127125000D01*
X163300000Y-127125000D01*
X163295000Y-127125000D01*
X163290000Y-127124000D01*
X163284000Y-127124000D01*
X163279000Y-127123000D01*
X163274000Y-127122000D01*
X163269000Y-127120000D01*
X163264000Y-127118000D01*
X163259000Y-127116000D01*
X163255000Y-127114000D01*
X163250000Y-127112000D01*
X163246000Y-127109000D01*
X163241000Y-127106000D01*
X163237000Y-127103000D01*
X163233000Y-127099000D01*
X163229000Y-127096000D01*
X163226000Y-127092000D01*
X163222000Y-127088000D01*
X163219000Y-127084000D01*
X163216000Y-127079000D01*
X163213000Y-127075000D01*
X163211000Y-127070000D01*
X163209000Y-127066000D01*
X163207000Y-127061000D01*
X163205000Y-127056000D01*
X163203000Y-127051000D01*
X163202000Y-127046000D01*
X163201000Y-127041000D01*
X163201000Y-127035000D01*
X163200000Y-127030000D01*
X163200000Y-127025000D01*
X163200000Y-126300000D01*
X163200000Y-126297000D01*
X163200000Y-126295000D01*
X163199000Y-126292000D01*
X163199000Y-126290000D01*
X163198000Y-126287000D01*
X163198000Y-126285000D01*
X163197000Y-126282000D01*
X163196000Y-126280000D01*
X163195000Y-126277000D01*
X163193000Y-126275000D01*
X163192000Y-126273000D01*
X163190000Y-126271000D01*
X163189000Y-126269000D01*
X163187000Y-126267000D01*
X163185000Y-126265000D01*
X163183000Y-126263000D01*
X163181000Y-126261000D01*
X163179000Y-126260000D01*
X163177000Y-126258000D01*
X163175000Y-126257000D01*
X163173000Y-126255000D01*
X163170000Y-126254000D01*
X163168000Y-126253000D01*
X163165000Y-126252000D01*
X163163000Y-126252000D01*
X163160000Y-126251000D01*
X163158000Y-126251000D01*
X163155000Y-126250000D01*
X163153000Y-126250000D01*
X163150000Y-126250000D01*
X162950000Y-126250000D01*
X162945000Y-126250000D01*
X162940000Y-126249000D01*
X162934000Y-126249000D01*
X162929000Y-126248000D01*
X162924000Y-126247000D01*
X162919000Y-126245000D01*
X162914000Y-126243000D01*
X162909000Y-126241000D01*
X162905000Y-126239000D01*
X162900000Y-126237000D01*
X162896000Y-126234000D01*
X162891000Y-126231000D01*
X162887000Y-126228000D01*
X162883000Y-126224000D01*
X162879000Y-126221000D01*
X162876000Y-126217000D01*
X162872000Y-126213000D01*
X162869000Y-126209000D01*
X162866000Y-126204000D01*
X162863000Y-126200000D01*
X162861000Y-126195000D01*
X162859000Y-126191000D01*
X162857000Y-126186000D01*
X162855000Y-126181000D01*
X162853000Y-126176000D01*
X162852000Y-126171000D01*
X162851000Y-126166000D01*
X162851000Y-126160000D01*
X162850000Y-126155000D01*
X162850000Y-126150000D01*
X162850000Y-125900000D01*
X162850000Y-125895000D01*
X162851000Y-125890000D01*
X162851000Y-125884000D01*
X162852000Y-125879000D01*
X162853000Y-125874000D01*
X162855000Y-125869000D01*
X162857000Y-125864000D01*
X162859000Y-125859000D01*
X162861000Y-125855000D01*
X162863000Y-125850000D01*
X162866000Y-125846000D01*
X162869000Y-125841000D01*
X162872000Y-125837000D01*
X162876000Y-125833000D01*
X162879000Y-125829000D01*
X162883000Y-125826000D01*
X162887000Y-125822000D01*
X162891000Y-125819000D01*
X162896000Y-125816000D01*
X162900000Y-125813000D01*
X162905000Y-125811000D01*
X162909000Y-125809000D01*
X162914000Y-125807000D01*
X162919000Y-125805000D01*
X162924000Y-125803000D01*
X162929000Y-125802000D01*
X162934000Y-125801000D01*
X162940000Y-125801000D01*
X162945000Y-125800000D01*
X162950000Y-125800000D01*
X163450000Y-125800000D01*
X163455000Y-125800000D01*
X163460000Y-125801000D01*
G36*
X163460000Y-125801000D02*
G01*
X163466000Y-125801000D01*
X163471000Y-125802000D01*
X163476000Y-125803000D01*
X163481000Y-125805000D01*
X163486000Y-125807000D01*
X163491000Y-125809000D01*
X163495000Y-125811000D01*
X163500000Y-125813000D01*
X163504000Y-125816000D01*
X163509000Y-125819000D01*
X163513000Y-125822000D01*
X163517000Y-125826000D01*
X163521000Y-125829000D01*
X163524000Y-125833000D01*
X163528000Y-125837000D01*
X163531000Y-125841000D01*
X163534000Y-125846000D01*
X163537000Y-125850000D01*
X163539000Y-125855000D01*
X163541000Y-125859000D01*
X163543000Y-125864000D01*
X163545000Y-125869000D01*
X163547000Y-125874000D01*
X163548000Y-125879000D01*
X163549000Y-125884000D01*
X163549000Y-125890000D01*
X163550000Y-125895000D01*
X163550000Y-125900000D01*
X163550000Y-127025000D01*
X163550000Y-127030000D01*
X163549000Y-127035000D01*
X163549000Y-127041000D01*
X163548000Y-127046000D01*
X163547000Y-127051000D01*
X163545000Y-127056000D01*
X163543000Y-127061000D01*
X163541000Y-127066000D01*
X163539000Y-127070000D01*
X163537000Y-127075000D01*
X163534000Y-127079000D01*
X163531000Y-127084000D01*
X163528000Y-127088000D01*
X163524000Y-127092000D01*
X163521000Y-127096000D01*
X163517000Y-127099000D01*
X163513000Y-127103000D01*
X163509000Y-127106000D01*
X163504000Y-127109000D01*
X163500000Y-127112000D01*
X163495000Y-127114000D01*
X163491000Y-127116000D01*
X163486000Y-127118000D01*
X163481000Y-127120000D01*
X163476000Y-127122000D01*
X163471000Y-127123000D01*
X163466000Y-127124000D01*
X163460000Y-127124000D01*
X163455000Y-127125000D01*
X163450000Y-127125000D01*
X163300000Y-127125000D01*
X163295000Y-127125000D01*
X163290000Y-127124000D01*
X163284000Y-127124000D01*
X163279000Y-127123000D01*
X163274000Y-127122000D01*
X163269000Y-127120000D01*
X163264000Y-127118000D01*
X163259000Y-127116000D01*
X163255000Y-127114000D01*
X163250000Y-127112000D01*
X163246000Y-127109000D01*
X163241000Y-127106000D01*
X163237000Y-127103000D01*
X163233000Y-127099000D01*
X163229000Y-127096000D01*
X163226000Y-127092000D01*
X163222000Y-127088000D01*
X163219000Y-127084000D01*
X163216000Y-127079000D01*
X163213000Y-127075000D01*
X163211000Y-127070000D01*
X163209000Y-127066000D01*
X163207000Y-127061000D01*
X163205000Y-127056000D01*
X163203000Y-127051000D01*
X163202000Y-127046000D01*
X163201000Y-127041000D01*
X163201000Y-127035000D01*
X163200000Y-127030000D01*
X163200000Y-127025000D01*
X163200000Y-126300000D01*
X163200000Y-126297000D01*
X163200000Y-126295000D01*
X163199000Y-126292000D01*
X163199000Y-126290000D01*
X163198000Y-126287000D01*
X163198000Y-126285000D01*
X163197000Y-126282000D01*
X163196000Y-126280000D01*
X163195000Y-126277000D01*
X163193000Y-126275000D01*
X163192000Y-126273000D01*
X163190000Y-126271000D01*
X163189000Y-126269000D01*
X163187000Y-126267000D01*
X163185000Y-126265000D01*
X163183000Y-126263000D01*
X163181000Y-126261000D01*
X163179000Y-126260000D01*
X163177000Y-126258000D01*
X163175000Y-126257000D01*
X163173000Y-126255000D01*
X163170000Y-126254000D01*
X163168000Y-126253000D01*
X163165000Y-126252000D01*
X163163000Y-126252000D01*
X163160000Y-126251000D01*
X163158000Y-126251000D01*
X163155000Y-126250000D01*
X163153000Y-126250000D01*
X163150000Y-126250000D01*
X162950000Y-126250000D01*
X162945000Y-126250000D01*
X162940000Y-126249000D01*
X162934000Y-126249000D01*
X162929000Y-126248000D01*
X162924000Y-126247000D01*
X162919000Y-126245000D01*
X162914000Y-126243000D01*
X162909000Y-126241000D01*
X162905000Y-126239000D01*
X162900000Y-126237000D01*
X162896000Y-126234000D01*
X162891000Y-126231000D01*
X162887000Y-126228000D01*
X162883000Y-126224000D01*
X162879000Y-126221000D01*
X162876000Y-126217000D01*
X162872000Y-126213000D01*
X162869000Y-126209000D01*
X162866000Y-126204000D01*
X162863000Y-126200000D01*
X162861000Y-126195000D01*
X162859000Y-126191000D01*
X162857000Y-126186000D01*
X162855000Y-126181000D01*
X162853000Y-126176000D01*
X162852000Y-126171000D01*
X162851000Y-126166000D01*
X162851000Y-126160000D01*
X162850000Y-126155000D01*
X162850000Y-126150000D01*
X162850000Y-125900000D01*
X162850000Y-125895000D01*
X162851000Y-125890000D01*
X162851000Y-125884000D01*
X162852000Y-125879000D01*
X162853000Y-125874000D01*
X162855000Y-125869000D01*
X162857000Y-125864000D01*
X162859000Y-125859000D01*
X162861000Y-125855000D01*
X162863000Y-125850000D01*
X162866000Y-125846000D01*
X162869000Y-125841000D01*
X162872000Y-125837000D01*
X162876000Y-125833000D01*
X162879000Y-125829000D01*
X162883000Y-125826000D01*
X162887000Y-125822000D01*
X162891000Y-125819000D01*
X162896000Y-125816000D01*
X162900000Y-125813000D01*
X162905000Y-125811000D01*
X162909000Y-125809000D01*
X162914000Y-125807000D01*
X162919000Y-125805000D01*
X162924000Y-125803000D01*
X162929000Y-125802000D01*
X162934000Y-125801000D01*
X162940000Y-125801000D01*
X162945000Y-125800000D01*
X162950000Y-125800000D01*
X163450000Y-125800000D01*
X163455000Y-125800000D01*
X163460000Y-125801000D01*
G37*
X164985000Y-123326000D02*
X164990000Y-123326000D01*
X164995000Y-123327000D01*
X165000000Y-123328000D01*
X165005000Y-123330000D01*
X165010000Y-123332000D01*
X165015000Y-123334000D01*
X165020000Y-123336000D01*
X165025000Y-123338000D01*
X165029000Y-123341000D01*
X165033000Y-123344000D01*
X165037000Y-123347000D01*
X165041000Y-123351000D01*
X165045000Y-123354000D01*
X165049000Y-123358000D01*
X165052000Y-123362000D01*
X165055000Y-123366000D01*
X165058000Y-123371000D01*
X165061000Y-123375000D01*
X165064000Y-123380000D01*
X165066000Y-123384000D01*
X165068000Y-123389000D01*
X165070000Y-123394000D01*
X165071000Y-123399000D01*
X165072000Y-123404000D01*
X165073000Y-123409000D01*
X165074000Y-123415000D01*
X165074000Y-123420000D01*
X165074000Y-123425000D01*
X165074000Y-125050000D01*
X165074000Y-125055000D01*
X165074000Y-125060000D01*
X165073000Y-125066000D01*
X165072000Y-125071000D01*
X165071000Y-125076000D01*
X165070000Y-125081000D01*
X165068000Y-125086000D01*
X165066000Y-125091000D01*
X165064000Y-125095000D01*
X165061000Y-125100000D01*
X165058000Y-125104000D01*
X165055000Y-125109000D01*
X165052000Y-125113000D01*
X165049000Y-125117000D01*
X165045000Y-125121000D01*
X165041000Y-125124000D01*
X165037000Y-125128000D01*
X165033000Y-125131000D01*
X165029000Y-125134000D01*
X165024000Y-125137000D01*
X165020000Y-125139000D01*
X165015000Y-125141000D01*
X165010000Y-125143000D01*
X165005000Y-125145000D01*
X165000000Y-125147000D01*
X164995000Y-125148000D01*
X164990000Y-125149000D01*
X164985000Y-125149000D01*
X164980000Y-125150000D01*
X164974000Y-125150000D01*
X163750000Y-125150000D01*
X163745000Y-125150000D01*
X163740000Y-125149000D01*
X163734000Y-125149000D01*
X163729000Y-125148000D01*
X163724000Y-125147000D01*
X163719000Y-125145000D01*
X163714000Y-125143000D01*
X163709000Y-125141000D01*
X163705000Y-125139000D01*
X163700000Y-125137000D01*
X163696000Y-125134000D01*
X163691000Y-125131000D01*
X163687000Y-125128000D01*
X163683000Y-125124000D01*
X163679000Y-125121000D01*
X163676000Y-125117000D01*
X163672000Y-125113000D01*
X163669000Y-125109000D01*
X163666000Y-125104000D01*
X163663000Y-125100000D01*
X163661000Y-125095000D01*
X163659000Y-125091000D01*
X163657000Y-125086000D01*
X163655000Y-125081000D01*
X163653000Y-125076000D01*
X163652000Y-125071000D01*
X163651000Y-125066000D01*
X163651000Y-125060000D01*
X163650000Y-125055000D01*
X163650000Y-125050000D01*
X163650000Y-124900000D01*
X163650000Y-124895000D01*
X163651000Y-124890000D01*
X163651000Y-124884000D01*
X163652000Y-124879000D01*
X163653000Y-124874000D01*
X163655000Y-124869000D01*
X163657000Y-124864000D01*
X163659000Y-124859000D01*
X163661000Y-124855000D01*
X163663000Y-124850000D01*
X163666000Y-124846000D01*
X163669000Y-124841000D01*
X163672000Y-124837000D01*
X163676000Y-124833000D01*
X163679000Y-124829000D01*
X163683000Y-124826000D01*
X163687000Y-124822000D01*
X163691000Y-124819000D01*
X163696000Y-124816000D01*
X163700000Y-124813000D01*
X163705000Y-124811000D01*
X163709000Y-124809000D01*
X163714000Y-124807000D01*
X163719000Y-124805000D01*
X163724000Y-124803000D01*
X163729000Y-124802000D01*
X163734000Y-124801000D01*
X163740000Y-124801000D01*
X163745000Y-124800000D01*
X163750000Y-124800000D01*
X164503000Y-124800000D01*
X164505000Y-124800000D01*
X164507000Y-124800000D01*
X164509000Y-124800000D01*
X164511000Y-124800000D01*
X164513000Y-124799000D01*
X164515000Y-124799000D01*
X164517000Y-124799000D01*
X164519000Y-124798000D01*
X164521000Y-124798000D01*
X164523000Y-124797000D01*
X164525000Y-124797000D01*
X164527000Y-124796000D01*
X164528000Y-124796000D01*
X164530000Y-124795000D01*
X164532000Y-124794000D01*
X164534000Y-124794000D01*
X164536000Y-124793000D01*
X164537000Y-124792000D01*
X164539000Y-124791000D01*
X164541000Y-124790000D01*
X164543000Y-124789000D01*
X164544000Y-124788000D01*
X164546000Y-124787000D01*
X164548000Y-124786000D01*
X164549000Y-124785000D01*
X164551000Y-124783000D01*
X164552000Y-124782000D01*
X164554000Y-124781000D01*
X164555000Y-124779000D01*
X164556000Y-124778000D01*
X164678000Y-124657000D01*
X164679000Y-124656000D01*
X164680000Y-124654000D01*
X164682000Y-124653000D01*
X164683000Y-124651000D01*
X164684000Y-124650000D01*
X164685000Y-124648000D01*
X164686000Y-124646000D01*
X164687000Y-124645000D01*
X164688000Y-124643000D01*
X164689000Y-124641000D01*
X164690000Y-124640000D01*
X164691000Y-124638000D01*
X164692000Y-124636000D01*
X164693000Y-124634000D01*
X164694000Y-124633000D01*
X164695000Y-124631000D01*
X164695000Y-124629000D01*
X164696000Y-124627000D01*
X164696000Y-124625000D01*
X164697000Y-124623000D01*
X164697000Y-124621000D01*
X164698000Y-124620000D01*
X164698000Y-124618000D01*
X164699000Y-124616000D01*
X164699000Y-124614000D01*
X164699000Y-124612000D01*
X164699000Y-124610000D01*
X164699000Y-124608000D01*
X164699000Y-124606000D01*
X164700000Y-124604000D01*
X164700000Y-123425000D01*
X164700000Y-123420000D01*
X164700000Y-123415000D01*
X164701000Y-123409000D01*
X164702000Y-123404000D01*
X164703000Y-123399000D01*
X164704000Y-123394000D01*
X164706000Y-123389000D01*
X164708000Y-123384000D01*
X164710000Y-123380000D01*
X164713000Y-123375000D01*
X164716000Y-123371000D01*
X164719000Y-123366000D01*
X164722000Y-123362000D01*
X164725000Y-123358000D01*
X164729000Y-123354000D01*
X164733000Y-123351000D01*
X164737000Y-123347000D01*
X164741000Y-123344000D01*
X164745000Y-123341000D01*
X164749000Y-123338000D01*
X164754000Y-123336000D01*
X164759000Y-123334000D01*
X164764000Y-123332000D01*
X164769000Y-123330000D01*
X164774000Y-123328000D01*
X164779000Y-123327000D01*
X164784000Y-123326000D01*
X164789000Y-123326000D01*
X164794000Y-123325000D01*
X164800000Y-123325000D01*
X164974000Y-123325000D01*
X164980000Y-123325000D01*
X164985000Y-123326000D01*
G36*
X164985000Y-123326000D02*
G01*
X164990000Y-123326000D01*
X164995000Y-123327000D01*
X165000000Y-123328000D01*
X165005000Y-123330000D01*
X165010000Y-123332000D01*
X165015000Y-123334000D01*
X165020000Y-123336000D01*
X165025000Y-123338000D01*
X165029000Y-123341000D01*
X165033000Y-123344000D01*
X165037000Y-123347000D01*
X165041000Y-123351000D01*
X165045000Y-123354000D01*
X165049000Y-123358000D01*
X165052000Y-123362000D01*
X165055000Y-123366000D01*
X165058000Y-123371000D01*
X165061000Y-123375000D01*
X165064000Y-123380000D01*
X165066000Y-123384000D01*
X165068000Y-123389000D01*
X165070000Y-123394000D01*
X165071000Y-123399000D01*
X165072000Y-123404000D01*
X165073000Y-123409000D01*
X165074000Y-123415000D01*
X165074000Y-123420000D01*
X165074000Y-123425000D01*
X165074000Y-125050000D01*
X165074000Y-125055000D01*
X165074000Y-125060000D01*
X165073000Y-125066000D01*
X165072000Y-125071000D01*
X165071000Y-125076000D01*
X165070000Y-125081000D01*
X165068000Y-125086000D01*
X165066000Y-125091000D01*
X165064000Y-125095000D01*
X165061000Y-125100000D01*
X165058000Y-125104000D01*
X165055000Y-125109000D01*
X165052000Y-125113000D01*
X165049000Y-125117000D01*
X165045000Y-125121000D01*
X165041000Y-125124000D01*
X165037000Y-125128000D01*
X165033000Y-125131000D01*
X165029000Y-125134000D01*
X165024000Y-125137000D01*
X165020000Y-125139000D01*
X165015000Y-125141000D01*
X165010000Y-125143000D01*
X165005000Y-125145000D01*
X165000000Y-125147000D01*
X164995000Y-125148000D01*
X164990000Y-125149000D01*
X164985000Y-125149000D01*
X164980000Y-125150000D01*
X164974000Y-125150000D01*
X163750000Y-125150000D01*
X163745000Y-125150000D01*
X163740000Y-125149000D01*
X163734000Y-125149000D01*
X163729000Y-125148000D01*
X163724000Y-125147000D01*
X163719000Y-125145000D01*
X163714000Y-125143000D01*
X163709000Y-125141000D01*
X163705000Y-125139000D01*
X163700000Y-125137000D01*
X163696000Y-125134000D01*
X163691000Y-125131000D01*
X163687000Y-125128000D01*
X163683000Y-125124000D01*
X163679000Y-125121000D01*
X163676000Y-125117000D01*
X163672000Y-125113000D01*
X163669000Y-125109000D01*
X163666000Y-125104000D01*
X163663000Y-125100000D01*
X163661000Y-125095000D01*
X163659000Y-125091000D01*
X163657000Y-125086000D01*
X163655000Y-125081000D01*
X163653000Y-125076000D01*
X163652000Y-125071000D01*
X163651000Y-125066000D01*
X163651000Y-125060000D01*
X163650000Y-125055000D01*
X163650000Y-125050000D01*
X163650000Y-124900000D01*
X163650000Y-124895000D01*
X163651000Y-124890000D01*
X163651000Y-124884000D01*
X163652000Y-124879000D01*
X163653000Y-124874000D01*
X163655000Y-124869000D01*
X163657000Y-124864000D01*
X163659000Y-124859000D01*
X163661000Y-124855000D01*
X163663000Y-124850000D01*
X163666000Y-124846000D01*
X163669000Y-124841000D01*
X163672000Y-124837000D01*
X163676000Y-124833000D01*
X163679000Y-124829000D01*
X163683000Y-124826000D01*
X163687000Y-124822000D01*
X163691000Y-124819000D01*
X163696000Y-124816000D01*
X163700000Y-124813000D01*
X163705000Y-124811000D01*
X163709000Y-124809000D01*
X163714000Y-124807000D01*
X163719000Y-124805000D01*
X163724000Y-124803000D01*
X163729000Y-124802000D01*
X163734000Y-124801000D01*
X163740000Y-124801000D01*
X163745000Y-124800000D01*
X163750000Y-124800000D01*
X164503000Y-124800000D01*
X164505000Y-124800000D01*
X164507000Y-124800000D01*
X164509000Y-124800000D01*
X164511000Y-124800000D01*
X164513000Y-124799000D01*
X164515000Y-124799000D01*
X164517000Y-124799000D01*
X164519000Y-124798000D01*
X164521000Y-124798000D01*
X164523000Y-124797000D01*
X164525000Y-124797000D01*
X164527000Y-124796000D01*
X164528000Y-124796000D01*
X164530000Y-124795000D01*
X164532000Y-124794000D01*
X164534000Y-124794000D01*
X164536000Y-124793000D01*
X164537000Y-124792000D01*
X164539000Y-124791000D01*
X164541000Y-124790000D01*
X164543000Y-124789000D01*
X164544000Y-124788000D01*
X164546000Y-124787000D01*
X164548000Y-124786000D01*
X164549000Y-124785000D01*
X164551000Y-124783000D01*
X164552000Y-124782000D01*
X164554000Y-124781000D01*
X164555000Y-124779000D01*
X164556000Y-124778000D01*
X164678000Y-124657000D01*
X164679000Y-124656000D01*
X164680000Y-124654000D01*
X164682000Y-124653000D01*
X164683000Y-124651000D01*
X164684000Y-124650000D01*
X164685000Y-124648000D01*
X164686000Y-124646000D01*
X164687000Y-124645000D01*
X164688000Y-124643000D01*
X164689000Y-124641000D01*
X164690000Y-124640000D01*
X164691000Y-124638000D01*
X164692000Y-124636000D01*
X164693000Y-124634000D01*
X164694000Y-124633000D01*
X164695000Y-124631000D01*
X164695000Y-124629000D01*
X164696000Y-124627000D01*
X164696000Y-124625000D01*
X164697000Y-124623000D01*
X164697000Y-124621000D01*
X164698000Y-124620000D01*
X164698000Y-124618000D01*
X164699000Y-124616000D01*
X164699000Y-124614000D01*
X164699000Y-124612000D01*
X164699000Y-124610000D01*
X164699000Y-124608000D01*
X164699000Y-124606000D01*
X164700000Y-124604000D01*
X164700000Y-123425000D01*
X164700000Y-123420000D01*
X164700000Y-123415000D01*
X164701000Y-123409000D01*
X164702000Y-123404000D01*
X164703000Y-123399000D01*
X164704000Y-123394000D01*
X164706000Y-123389000D01*
X164708000Y-123384000D01*
X164710000Y-123380000D01*
X164713000Y-123375000D01*
X164716000Y-123371000D01*
X164719000Y-123366000D01*
X164722000Y-123362000D01*
X164725000Y-123358000D01*
X164729000Y-123354000D01*
X164733000Y-123351000D01*
X164737000Y-123347000D01*
X164741000Y-123344000D01*
X164745000Y-123341000D01*
X164749000Y-123338000D01*
X164754000Y-123336000D01*
X164759000Y-123334000D01*
X164764000Y-123332000D01*
X164769000Y-123330000D01*
X164774000Y-123328000D01*
X164779000Y-123327000D01*
X164784000Y-123326000D01*
X164789000Y-123326000D01*
X164794000Y-123325000D01*
X164800000Y-123325000D01*
X164974000Y-123325000D01*
X164980000Y-123325000D01*
X164985000Y-123326000D01*
G37*
X164458000Y-125876000D02*
X164460000Y-125876000D01*
X164463000Y-125877000D01*
X164465000Y-125877000D01*
X164468000Y-125878000D01*
X164470000Y-125879000D01*
X164473000Y-125880000D01*
X164475000Y-125882000D01*
X164477000Y-125883000D01*
X164479000Y-125885000D01*
X164481000Y-125886000D01*
X164483000Y-125888000D01*
X164485000Y-125890000D01*
X164487000Y-125892000D01*
X164489000Y-125894000D01*
X164490000Y-125896000D01*
X164492000Y-125898000D01*
X164493000Y-125900000D01*
X164495000Y-125902000D01*
X164496000Y-125905000D01*
X164497000Y-125907000D01*
X164498000Y-125910000D01*
X164498000Y-125912000D01*
X164499000Y-125915000D01*
X164499000Y-125917000D01*
X164500000Y-125920000D01*
X164500000Y-125922000D01*
X164500000Y-125925000D01*
X164500000Y-127025000D01*
X164500000Y-127028000D01*
X164500000Y-127030000D01*
X164499000Y-127033000D01*
X164499000Y-127035000D01*
X164498000Y-127038000D01*
X164498000Y-127040000D01*
X164497000Y-127043000D01*
X164496000Y-127045000D01*
X164495000Y-127048000D01*
X164493000Y-127050000D01*
X164492000Y-127052000D01*
X164490000Y-127054000D01*
X164489000Y-127056000D01*
X164487000Y-127058000D01*
X164485000Y-127060000D01*
X164483000Y-127062000D01*
X164481000Y-127064000D01*
X164479000Y-127065000D01*
X164477000Y-127067000D01*
X164475000Y-127068000D01*
X164473000Y-127070000D01*
X164470000Y-127071000D01*
X164468000Y-127072000D01*
X164465000Y-127073000D01*
X164463000Y-127073000D01*
X164460000Y-127074000D01*
X164458000Y-127074000D01*
X164455000Y-127075000D01*
X164453000Y-127075000D01*
X164450000Y-127075000D01*
X164300000Y-127075000D01*
X164297000Y-127075000D01*
X164295000Y-127075000D01*
X164292000Y-127074000D01*
X164290000Y-127074000D01*
X164287000Y-127073000D01*
X164285000Y-127073000D01*
X164282000Y-127072000D01*
X164280000Y-127071000D01*
X164277000Y-127070000D01*
X164275000Y-127068000D01*
X164273000Y-127067000D01*
X164271000Y-127065000D01*
X164269000Y-127064000D01*
X164267000Y-127062000D01*
X164265000Y-127060000D01*
X164263000Y-127058000D01*
X164261000Y-127056000D01*
X164260000Y-127054000D01*
X164258000Y-127052000D01*
X164257000Y-127050000D01*
X164255000Y-127048000D01*
X164254000Y-127045000D01*
X164253000Y-127043000D01*
X164252000Y-127040000D01*
X164252000Y-127038000D01*
X164251000Y-127035000D01*
X164251000Y-127033000D01*
X164250000Y-127030000D01*
X164250000Y-127028000D01*
X164250000Y-127025000D01*
X164250000Y-126725000D01*
X164250000Y-126722000D01*
X164250000Y-126720000D01*
X164249000Y-126717000D01*
X164249000Y-126715000D01*
X164248000Y-126712000D01*
X164248000Y-126710000D01*
X164247000Y-126707000D01*
X164246000Y-126705000D01*
X164245000Y-126702000D01*
X164243000Y-126700000D01*
X164242000Y-126698000D01*
X164240000Y-126696000D01*
X164239000Y-126694000D01*
X164237000Y-126692000D01*
X164235000Y-126690000D01*
X164233000Y-126688000D01*
X164231000Y-126686000D01*
X164229000Y-126685000D01*
X164227000Y-126683000D01*
X164225000Y-126682000D01*
X164223000Y-126680000D01*
X164220000Y-126679000D01*
X164218000Y-126678000D01*
X164215000Y-126677000D01*
X164213000Y-126677000D01*
X164210000Y-126676000D01*
X164208000Y-126676000D01*
X164205000Y-126675000D01*
X164203000Y-126675000D01*
X164200000Y-126675000D01*
X164050000Y-126675000D01*
X164047000Y-126675000D01*
X164045000Y-126675000D01*
X164042000Y-126676000D01*
X164040000Y-126676000D01*
X164037000Y-126677000D01*
X164035000Y-126677000D01*
X164032000Y-126678000D01*
X164030000Y-126679000D01*
X164027000Y-126680000D01*
X164025000Y-126682000D01*
X164023000Y-126683000D01*
X164021000Y-126685000D01*
X164019000Y-126686000D01*
X164017000Y-126688000D01*
X164015000Y-126690000D01*
X164013000Y-126692000D01*
X164011000Y-126694000D01*
X164010000Y-126696000D01*
X164008000Y-126698000D01*
X164007000Y-126700000D01*
X164005000Y-126702000D01*
X164004000Y-126705000D01*
X164003000Y-126707000D01*
X164002000Y-126710000D01*
X164002000Y-126712000D01*
X164001000Y-126715000D01*
X164001000Y-126717000D01*
X164000000Y-126720000D01*
X164000000Y-126722000D01*
X164000000Y-126725000D01*
X164000000Y-127025000D01*
X164000000Y-127028000D01*
X164000000Y-127030000D01*
X163999000Y-127033000D01*
X163999000Y-127035000D01*
X163998000Y-127038000D01*
X163998000Y-127040000D01*
X163997000Y-127043000D01*
X163996000Y-127045000D01*
X163995000Y-127048000D01*
X163993000Y-127050000D01*
X163992000Y-127052000D01*
X163990000Y-127054000D01*
X163989000Y-127056000D01*
X163987000Y-127058000D01*
X163985000Y-127060000D01*
X163983000Y-127062000D01*
X163981000Y-127064000D01*
X163979000Y-127065000D01*
X163977000Y-127067000D01*
X163975000Y-127068000D01*
X163973000Y-127070000D01*
X163970000Y-127071000D01*
X163968000Y-127072000D01*
X163965000Y-127073000D01*
X163963000Y-127073000D01*
X163960000Y-127074000D01*
X163958000Y-127074000D01*
X163955000Y-127075000D01*
X163953000Y-127075000D01*
X163950000Y-127075000D01*
X163800000Y-127075000D01*
X163797000Y-127075000D01*
X163795000Y-127075000D01*
X163792000Y-127074000D01*
X163790000Y-127074000D01*
X163787000Y-127073000D01*
X163785000Y-127073000D01*
X163782000Y-127072000D01*
X163780000Y-127071000D01*
X163777000Y-127070000D01*
X163775000Y-127068000D01*
X163773000Y-127067000D01*
X163771000Y-127065000D01*
X163769000Y-127064000D01*
X163767000Y-127062000D01*
X163765000Y-127060000D01*
X163763000Y-127058000D01*
X163761000Y-127056000D01*
X163760000Y-127054000D01*
X163758000Y-127052000D01*
X163757000Y-127050000D01*
X163755000Y-127048000D01*
X163754000Y-127045000D01*
X163753000Y-127043000D01*
X163752000Y-127040000D01*
X163752000Y-127038000D01*
X163751000Y-127035000D01*
X163751000Y-127033000D01*
X163750000Y-127030000D01*
X163750000Y-127028000D01*
X163750000Y-127025000D01*
X163750000Y-125925000D01*
X163750000Y-125922000D01*
X163750000Y-125920000D01*
X163751000Y-125917000D01*
X163751000Y-125915000D01*
X163752000Y-125912000D01*
X163752000Y-125910000D01*
X163753000Y-125907000D01*
X163754000Y-125905000D01*
X163755000Y-125902000D01*
X163757000Y-125900000D01*
X163758000Y-125898000D01*
X163760000Y-125896000D01*
X163761000Y-125894000D01*
X163763000Y-125892000D01*
X163765000Y-125890000D01*
X163767000Y-125888000D01*
X163769000Y-125886000D01*
X163771000Y-125885000D01*
X163773000Y-125883000D01*
X163775000Y-125882000D01*
X163777000Y-125880000D01*
X163780000Y-125879000D01*
X163782000Y-125878000D01*
X163785000Y-125877000D01*
X163787000Y-125877000D01*
X163790000Y-125876000D01*
X163792000Y-125876000D01*
X163795000Y-125875000D01*
X163797000Y-125875000D01*
X163800000Y-125875000D01*
X164450000Y-125875000D01*
X164453000Y-125875000D01*
X164455000Y-125875000D01*
X164458000Y-125876000D01*
G36*
X164458000Y-125876000D02*
G01*
X164460000Y-125876000D01*
X164463000Y-125877000D01*
X164465000Y-125877000D01*
X164468000Y-125878000D01*
X164470000Y-125879000D01*
X164473000Y-125880000D01*
X164475000Y-125882000D01*
X164477000Y-125883000D01*
X164479000Y-125885000D01*
X164481000Y-125886000D01*
X164483000Y-125888000D01*
X164485000Y-125890000D01*
X164487000Y-125892000D01*
X164489000Y-125894000D01*
X164490000Y-125896000D01*
X164492000Y-125898000D01*
X164493000Y-125900000D01*
X164495000Y-125902000D01*
X164496000Y-125905000D01*
X164497000Y-125907000D01*
X164498000Y-125910000D01*
X164498000Y-125912000D01*
X164499000Y-125915000D01*
X164499000Y-125917000D01*
X164500000Y-125920000D01*
X164500000Y-125922000D01*
X164500000Y-125925000D01*
X164500000Y-127025000D01*
X164500000Y-127028000D01*
X164500000Y-127030000D01*
X164499000Y-127033000D01*
X164499000Y-127035000D01*
X164498000Y-127038000D01*
X164498000Y-127040000D01*
X164497000Y-127043000D01*
X164496000Y-127045000D01*
X164495000Y-127048000D01*
X164493000Y-127050000D01*
X164492000Y-127052000D01*
X164490000Y-127054000D01*
X164489000Y-127056000D01*
X164487000Y-127058000D01*
X164485000Y-127060000D01*
X164483000Y-127062000D01*
X164481000Y-127064000D01*
X164479000Y-127065000D01*
X164477000Y-127067000D01*
X164475000Y-127068000D01*
X164473000Y-127070000D01*
X164470000Y-127071000D01*
X164468000Y-127072000D01*
X164465000Y-127073000D01*
X164463000Y-127073000D01*
X164460000Y-127074000D01*
X164458000Y-127074000D01*
X164455000Y-127075000D01*
X164453000Y-127075000D01*
X164450000Y-127075000D01*
X164300000Y-127075000D01*
X164297000Y-127075000D01*
X164295000Y-127075000D01*
X164292000Y-127074000D01*
X164290000Y-127074000D01*
X164287000Y-127073000D01*
X164285000Y-127073000D01*
X164282000Y-127072000D01*
X164280000Y-127071000D01*
X164277000Y-127070000D01*
X164275000Y-127068000D01*
X164273000Y-127067000D01*
X164271000Y-127065000D01*
X164269000Y-127064000D01*
X164267000Y-127062000D01*
X164265000Y-127060000D01*
X164263000Y-127058000D01*
X164261000Y-127056000D01*
X164260000Y-127054000D01*
X164258000Y-127052000D01*
X164257000Y-127050000D01*
X164255000Y-127048000D01*
X164254000Y-127045000D01*
X164253000Y-127043000D01*
X164252000Y-127040000D01*
X164252000Y-127038000D01*
X164251000Y-127035000D01*
X164251000Y-127033000D01*
X164250000Y-127030000D01*
X164250000Y-127028000D01*
X164250000Y-127025000D01*
X164250000Y-126725000D01*
X164250000Y-126722000D01*
X164250000Y-126720000D01*
X164249000Y-126717000D01*
X164249000Y-126715000D01*
X164248000Y-126712000D01*
X164248000Y-126710000D01*
X164247000Y-126707000D01*
X164246000Y-126705000D01*
X164245000Y-126702000D01*
X164243000Y-126700000D01*
X164242000Y-126698000D01*
X164240000Y-126696000D01*
X164239000Y-126694000D01*
X164237000Y-126692000D01*
X164235000Y-126690000D01*
X164233000Y-126688000D01*
X164231000Y-126686000D01*
X164229000Y-126685000D01*
X164227000Y-126683000D01*
X164225000Y-126682000D01*
X164223000Y-126680000D01*
X164220000Y-126679000D01*
X164218000Y-126678000D01*
X164215000Y-126677000D01*
X164213000Y-126677000D01*
X164210000Y-126676000D01*
X164208000Y-126676000D01*
X164205000Y-126675000D01*
X164203000Y-126675000D01*
X164200000Y-126675000D01*
X164050000Y-126675000D01*
X164047000Y-126675000D01*
X164045000Y-126675000D01*
X164042000Y-126676000D01*
X164040000Y-126676000D01*
X164037000Y-126677000D01*
X164035000Y-126677000D01*
X164032000Y-126678000D01*
X164030000Y-126679000D01*
X164027000Y-126680000D01*
X164025000Y-126682000D01*
X164023000Y-126683000D01*
X164021000Y-126685000D01*
X164019000Y-126686000D01*
X164017000Y-126688000D01*
X164015000Y-126690000D01*
X164013000Y-126692000D01*
X164011000Y-126694000D01*
X164010000Y-126696000D01*
X164008000Y-126698000D01*
X164007000Y-126700000D01*
X164005000Y-126702000D01*
X164004000Y-126705000D01*
X164003000Y-126707000D01*
X164002000Y-126710000D01*
X164002000Y-126712000D01*
X164001000Y-126715000D01*
X164001000Y-126717000D01*
X164000000Y-126720000D01*
X164000000Y-126722000D01*
X164000000Y-126725000D01*
X164000000Y-127025000D01*
X164000000Y-127028000D01*
X164000000Y-127030000D01*
X163999000Y-127033000D01*
X163999000Y-127035000D01*
X163998000Y-127038000D01*
X163998000Y-127040000D01*
X163997000Y-127043000D01*
X163996000Y-127045000D01*
X163995000Y-127048000D01*
X163993000Y-127050000D01*
X163992000Y-127052000D01*
X163990000Y-127054000D01*
X163989000Y-127056000D01*
X163987000Y-127058000D01*
X163985000Y-127060000D01*
X163983000Y-127062000D01*
X163981000Y-127064000D01*
X163979000Y-127065000D01*
X163977000Y-127067000D01*
X163975000Y-127068000D01*
X163973000Y-127070000D01*
X163970000Y-127071000D01*
X163968000Y-127072000D01*
X163965000Y-127073000D01*
X163963000Y-127073000D01*
X163960000Y-127074000D01*
X163958000Y-127074000D01*
X163955000Y-127075000D01*
X163953000Y-127075000D01*
X163950000Y-127075000D01*
X163800000Y-127075000D01*
X163797000Y-127075000D01*
X163795000Y-127075000D01*
X163792000Y-127074000D01*
X163790000Y-127074000D01*
X163787000Y-127073000D01*
X163785000Y-127073000D01*
X163782000Y-127072000D01*
X163780000Y-127071000D01*
X163777000Y-127070000D01*
X163775000Y-127068000D01*
X163773000Y-127067000D01*
X163771000Y-127065000D01*
X163769000Y-127064000D01*
X163767000Y-127062000D01*
X163765000Y-127060000D01*
X163763000Y-127058000D01*
X163761000Y-127056000D01*
X163760000Y-127054000D01*
X163758000Y-127052000D01*
X163757000Y-127050000D01*
X163755000Y-127048000D01*
X163754000Y-127045000D01*
X163753000Y-127043000D01*
X163752000Y-127040000D01*
X163752000Y-127038000D01*
X163751000Y-127035000D01*
X163751000Y-127033000D01*
X163750000Y-127030000D01*
X163750000Y-127028000D01*
X163750000Y-127025000D01*
X163750000Y-125925000D01*
X163750000Y-125922000D01*
X163750000Y-125920000D01*
X163751000Y-125917000D01*
X163751000Y-125915000D01*
X163752000Y-125912000D01*
X163752000Y-125910000D01*
X163753000Y-125907000D01*
X163754000Y-125905000D01*
X163755000Y-125902000D01*
X163757000Y-125900000D01*
X163758000Y-125898000D01*
X163760000Y-125896000D01*
X163761000Y-125894000D01*
X163763000Y-125892000D01*
X163765000Y-125890000D01*
X163767000Y-125888000D01*
X163769000Y-125886000D01*
X163771000Y-125885000D01*
X163773000Y-125883000D01*
X163775000Y-125882000D01*
X163777000Y-125880000D01*
X163780000Y-125879000D01*
X163782000Y-125878000D01*
X163785000Y-125877000D01*
X163787000Y-125877000D01*
X163790000Y-125876000D01*
X163792000Y-125876000D01*
X163795000Y-125875000D01*
X163797000Y-125875000D01*
X163800000Y-125875000D01*
X164450000Y-125875000D01*
X164453000Y-125875000D01*
X164455000Y-125875000D01*
X164458000Y-125876000D01*
G37*
X166098000Y-123376000D02*
X166100000Y-123376000D01*
X166103000Y-123377000D01*
X166105000Y-123377000D01*
X166108000Y-123378000D01*
X166110000Y-123379000D01*
X166113000Y-123380000D01*
X166115000Y-123382000D01*
X166117000Y-123383000D01*
X166119000Y-123385000D01*
X166121000Y-123386000D01*
X166123000Y-123388000D01*
X166125000Y-123390000D01*
X166127000Y-123392000D01*
X166129000Y-123394000D01*
X166130000Y-123396000D01*
X166132000Y-123398000D01*
X166133000Y-123400000D01*
X166135000Y-123402000D01*
X166136000Y-123405000D01*
X166137000Y-123407000D01*
X166138000Y-123410000D01*
X166138000Y-123412000D01*
X166139000Y-123415000D01*
X166139000Y-123417000D01*
X166140000Y-123420000D01*
X166140000Y-123422000D01*
X166140000Y-123425000D01*
X166140000Y-123725000D01*
X166140000Y-123728000D01*
X166140000Y-123730000D01*
X166141000Y-123733000D01*
X166141000Y-123735000D01*
X166142000Y-123738000D01*
X166142000Y-123740000D01*
X166143000Y-123743000D01*
X166144000Y-123745000D01*
X166145000Y-123748000D01*
X166147000Y-123750000D01*
X166148000Y-123752000D01*
X166150000Y-123754000D01*
X166151000Y-123756000D01*
X166153000Y-123758000D01*
X166155000Y-123760000D01*
X166157000Y-123762000D01*
X166159000Y-123764000D01*
X166161000Y-123765000D01*
X166163000Y-123767000D01*
X166165000Y-123768000D01*
X166167000Y-123770000D01*
X166170000Y-123771000D01*
X166172000Y-123772000D01*
X166175000Y-123773000D01*
X166177000Y-123773000D01*
X166180000Y-123774000D01*
X166182000Y-123774000D01*
X166185000Y-123775000D01*
X166187000Y-123775000D01*
X166190000Y-123775000D01*
X166340000Y-123775000D01*
X166343000Y-123775000D01*
X166345000Y-123775000D01*
X166348000Y-123774000D01*
X166350000Y-123774000D01*
X166353000Y-123773000D01*
X166355000Y-123773000D01*
X166358000Y-123772000D01*
X166360000Y-123771000D01*
X166363000Y-123770000D01*
X166365000Y-123768000D01*
X166367000Y-123767000D01*
X166369000Y-123765000D01*
X166371000Y-123764000D01*
X166373000Y-123762000D01*
X166375000Y-123760000D01*
X166377000Y-123758000D01*
X166379000Y-123756000D01*
X166380000Y-123754000D01*
X166382000Y-123752000D01*
X166383000Y-123750000D01*
X166385000Y-123748000D01*
X166386000Y-123745000D01*
X166387000Y-123743000D01*
X166388000Y-123740000D01*
X166388000Y-123738000D01*
X166389000Y-123735000D01*
X166389000Y-123733000D01*
X166390000Y-123730000D01*
X166390000Y-123728000D01*
X166390000Y-123725000D01*
X166390000Y-123425000D01*
X166390000Y-123422000D01*
X166390000Y-123420000D01*
X166391000Y-123417000D01*
X166391000Y-123415000D01*
X166392000Y-123412000D01*
X166392000Y-123410000D01*
X166393000Y-123407000D01*
X166394000Y-123405000D01*
X166395000Y-123402000D01*
X166397000Y-123400000D01*
X166398000Y-123398000D01*
X166400000Y-123396000D01*
X166401000Y-123394000D01*
X166403000Y-123392000D01*
X166405000Y-123390000D01*
X166407000Y-123388000D01*
X166409000Y-123386000D01*
X166411000Y-123385000D01*
X166413000Y-123383000D01*
X166415000Y-123382000D01*
X166417000Y-123380000D01*
X166420000Y-123379000D01*
X166422000Y-123378000D01*
X166425000Y-123377000D01*
X166427000Y-123377000D01*
X166430000Y-123376000D01*
X166432000Y-123376000D01*
X166435000Y-123375000D01*
X166437000Y-123375000D01*
X166440000Y-123375000D01*
X166590000Y-123375000D01*
X166593000Y-123375000D01*
X166595000Y-123375000D01*
X166598000Y-123376000D01*
X166600000Y-123376000D01*
X166603000Y-123377000D01*
X166605000Y-123377000D01*
X166608000Y-123378000D01*
X166610000Y-123379000D01*
X166613000Y-123380000D01*
X166615000Y-123382000D01*
X166617000Y-123383000D01*
X166619000Y-123385000D01*
X166621000Y-123386000D01*
X166623000Y-123388000D01*
X166625000Y-123390000D01*
X166627000Y-123392000D01*
X166629000Y-123394000D01*
X166630000Y-123396000D01*
X166632000Y-123398000D01*
X166633000Y-123400000D01*
X166635000Y-123402000D01*
X166636000Y-123405000D01*
X166637000Y-123407000D01*
X166638000Y-123410000D01*
X166638000Y-123412000D01*
X166639000Y-123415000D01*
X166639000Y-123417000D01*
X166640000Y-123420000D01*
X166640000Y-123422000D01*
X166640000Y-123425000D01*
X166640000Y-123725000D01*
X166640000Y-123728000D01*
X166640000Y-123730000D01*
X166641000Y-123733000D01*
X166641000Y-123735000D01*
X166642000Y-123738000D01*
X166642000Y-123740000D01*
X166643000Y-123743000D01*
X166644000Y-123745000D01*
X166645000Y-123748000D01*
X166647000Y-123750000D01*
X166648000Y-123752000D01*
X166650000Y-123754000D01*
X166651000Y-123756000D01*
X166653000Y-123758000D01*
X166655000Y-123760000D01*
X166657000Y-123762000D01*
X166659000Y-123764000D01*
X166661000Y-123765000D01*
X166663000Y-123767000D01*
X166665000Y-123768000D01*
X166667000Y-123770000D01*
X166670000Y-123771000D01*
X166672000Y-123772000D01*
X166675000Y-123773000D01*
X166677000Y-123773000D01*
X166680000Y-123774000D01*
X166682000Y-123774000D01*
X166685000Y-123775000D01*
X166687000Y-123775000D01*
X166690000Y-123775000D01*
X166840000Y-123775000D01*
X166843000Y-123775000D01*
X166845000Y-123775000D01*
X166848000Y-123774000D01*
X166850000Y-123774000D01*
X166853000Y-123773000D01*
X166855000Y-123773000D01*
X166858000Y-123772000D01*
X166860000Y-123771000D01*
X166863000Y-123770000D01*
X166865000Y-123768000D01*
X166867000Y-123767000D01*
X166869000Y-123765000D01*
X166871000Y-123764000D01*
X166873000Y-123762000D01*
X166875000Y-123760000D01*
X166877000Y-123758000D01*
X166879000Y-123756000D01*
X166880000Y-123754000D01*
X166882000Y-123752000D01*
X166883000Y-123750000D01*
X166885000Y-123748000D01*
X166886000Y-123745000D01*
X166887000Y-123743000D01*
X166888000Y-123740000D01*
X166888000Y-123738000D01*
X166889000Y-123735000D01*
X166889000Y-123733000D01*
X166890000Y-123730000D01*
X166890000Y-123728000D01*
X166890000Y-123725000D01*
X166890000Y-123425000D01*
X166890000Y-123422000D01*
X166890000Y-123420000D01*
X166891000Y-123417000D01*
X166891000Y-123415000D01*
X166892000Y-123412000D01*
X166892000Y-123410000D01*
X166893000Y-123407000D01*
X166894000Y-123405000D01*
X166895000Y-123402000D01*
X166897000Y-123400000D01*
X166898000Y-123398000D01*
X166900000Y-123396000D01*
X166901000Y-123394000D01*
X166903000Y-123392000D01*
X166905000Y-123390000D01*
X166907000Y-123388000D01*
X166909000Y-123386000D01*
X166911000Y-123385000D01*
X166913000Y-123383000D01*
X166915000Y-123382000D01*
X166917000Y-123380000D01*
X166920000Y-123379000D01*
X166922000Y-123378000D01*
X166925000Y-123377000D01*
X166927000Y-123377000D01*
X166930000Y-123376000D01*
X166932000Y-123376000D01*
X166935000Y-123375000D01*
X166937000Y-123375000D01*
X166940000Y-123375000D01*
X167090000Y-123375000D01*
X167093000Y-123375000D01*
X167095000Y-123375000D01*
X167098000Y-123376000D01*
X167100000Y-123376000D01*
X167103000Y-123377000D01*
X167105000Y-123377000D01*
X167108000Y-123378000D01*
X167110000Y-123379000D01*
X167113000Y-123380000D01*
X167115000Y-123382000D01*
X167117000Y-123383000D01*
X167119000Y-123385000D01*
X167121000Y-123386000D01*
X167123000Y-123388000D01*
X167125000Y-123390000D01*
X167127000Y-123392000D01*
X167129000Y-123394000D01*
X167130000Y-123396000D01*
X167132000Y-123398000D01*
X167133000Y-123400000D01*
X167135000Y-123402000D01*
X167136000Y-123405000D01*
X167137000Y-123407000D01*
X167138000Y-123410000D01*
X167138000Y-123412000D01*
X167139000Y-123415000D01*
X167139000Y-123417000D01*
X167140000Y-123420000D01*
X167140000Y-123422000D01*
X167140000Y-123425000D01*
X167140000Y-123725000D01*
X167140000Y-123728000D01*
X167140000Y-123730000D01*
X167141000Y-123733000D01*
X167141000Y-123735000D01*
X167142000Y-123738000D01*
X167142000Y-123740000D01*
X167143000Y-123743000D01*
X167144000Y-123745000D01*
X167145000Y-123748000D01*
X167147000Y-123750000D01*
X167148000Y-123752000D01*
X167150000Y-123754000D01*
X167151000Y-123756000D01*
X167153000Y-123758000D01*
X167155000Y-123760000D01*
X167157000Y-123762000D01*
X167159000Y-123764000D01*
X167161000Y-123765000D01*
X167163000Y-123767000D01*
X167165000Y-123768000D01*
X167167000Y-123770000D01*
X167170000Y-123771000D01*
X167172000Y-123772000D01*
X167175000Y-123773000D01*
X167177000Y-123773000D01*
X167180000Y-123774000D01*
X167182000Y-123774000D01*
X167185000Y-123775000D01*
X167187000Y-123775000D01*
X167190000Y-123775000D01*
X167350000Y-123775000D01*
X167353000Y-123775000D01*
X167355000Y-123775000D01*
X167358000Y-123776000D01*
X167360000Y-123776000D01*
X167363000Y-123777000D01*
X167365000Y-123777000D01*
X167368000Y-123778000D01*
X167370000Y-123779000D01*
X167373000Y-123780000D01*
X167375000Y-123782000D01*
X167377000Y-123783000D01*
X167379000Y-123785000D01*
X167381000Y-123786000D01*
X167383000Y-123788000D01*
X167385000Y-123790000D01*
X167387000Y-123792000D01*
X167389000Y-123794000D01*
X167390000Y-123796000D01*
X167392000Y-123798000D01*
X167393000Y-123800000D01*
X167395000Y-123802000D01*
X167396000Y-123805000D01*
X167397000Y-123807000D01*
X167398000Y-123810000D01*
X167398000Y-123812000D01*
X167399000Y-123815000D01*
X167399000Y-123817000D01*
X167400000Y-123820000D01*
X167400000Y-123822000D01*
X167400000Y-123825000D01*
X167400000Y-124725000D01*
X167400000Y-124728000D01*
X167400000Y-124730000D01*
X167399000Y-124733000D01*
X167399000Y-124735000D01*
X167398000Y-124738000D01*
X167398000Y-124740000D01*
X167397000Y-124743000D01*
X167396000Y-124745000D01*
X167395000Y-124748000D01*
X167393000Y-124750000D01*
X167392000Y-124752000D01*
X167390000Y-124754000D01*
X167389000Y-124756000D01*
X167387000Y-124758000D01*
X167385000Y-124760000D01*
X167383000Y-124762000D01*
X167381000Y-124764000D01*
X167379000Y-124765000D01*
X167377000Y-124767000D01*
X167375000Y-124768000D01*
X167373000Y-124770000D01*
X167370000Y-124771000D01*
X167368000Y-124772000D01*
X167365000Y-124773000D01*
X167363000Y-124773000D01*
X167360000Y-124774000D01*
X167358000Y-124774000D01*
X167355000Y-124775000D01*
X167353000Y-124775000D01*
X167350000Y-124775000D01*
X165525000Y-124775000D01*
X165522000Y-124775000D01*
X165520000Y-124775000D01*
X165517000Y-124774000D01*
X165515000Y-124774000D01*
X165512000Y-124773000D01*
X165510000Y-124773000D01*
X165507000Y-124772000D01*
X165505000Y-124771000D01*
X165502000Y-124770000D01*
X165500000Y-124768000D01*
X165498000Y-124767000D01*
X165496000Y-124765000D01*
X165494000Y-124764000D01*
X165492000Y-124762000D01*
X165490000Y-124760000D01*
X165488000Y-124758000D01*
X165486000Y-124756000D01*
X165485000Y-124754000D01*
X165483000Y-124752000D01*
X165482000Y-124750000D01*
X165480000Y-124748000D01*
X165479000Y-124745000D01*
X165478000Y-124743000D01*
X165477000Y-124740000D01*
X165477000Y-124738000D01*
X165476000Y-124735000D01*
X165476000Y-124733000D01*
X165475000Y-124730000D01*
X165475000Y-124728000D01*
X165475000Y-124725000D01*
X165475000Y-123825000D01*
X165475000Y-123822000D01*
X165475000Y-123820000D01*
X165476000Y-123817000D01*
X165476000Y-123815000D01*
X165477000Y-123812000D01*
X165477000Y-123810000D01*
X165478000Y-123807000D01*
X165479000Y-123805000D01*
X165480000Y-123802000D01*
X165482000Y-123800000D01*
X165483000Y-123798000D01*
X165485000Y-123796000D01*
X165486000Y-123794000D01*
X165488000Y-123792000D01*
X165490000Y-123790000D01*
X165492000Y-123788000D01*
X165494000Y-123786000D01*
X165496000Y-123785000D01*
X165498000Y-123783000D01*
X165500000Y-123782000D01*
X165502000Y-123780000D01*
X165505000Y-123779000D01*
X165507000Y-123778000D01*
X165510000Y-123777000D01*
X165512000Y-123777000D01*
X165515000Y-123776000D01*
X165517000Y-123776000D01*
X165520000Y-123775000D01*
X165522000Y-123775000D01*
X165525000Y-123775000D01*
X165840000Y-123775000D01*
X165843000Y-123775000D01*
X165845000Y-123775000D01*
X165848000Y-123774000D01*
X165850000Y-123774000D01*
X165853000Y-123773000D01*
X165855000Y-123773000D01*
X165858000Y-123772000D01*
X165860000Y-123771000D01*
X165863000Y-123770000D01*
X165865000Y-123768000D01*
X165867000Y-123767000D01*
X165869000Y-123765000D01*
X165871000Y-123764000D01*
X165873000Y-123762000D01*
X165875000Y-123760000D01*
X165877000Y-123758000D01*
X165879000Y-123756000D01*
X165880000Y-123754000D01*
X165882000Y-123752000D01*
X165883000Y-123750000D01*
X165885000Y-123748000D01*
X165886000Y-123745000D01*
X165887000Y-123743000D01*
X165888000Y-123740000D01*
X165888000Y-123738000D01*
X165889000Y-123735000D01*
X165889000Y-123733000D01*
X165890000Y-123730000D01*
X165890000Y-123728000D01*
X165890000Y-123725000D01*
X165890000Y-123425000D01*
X165890000Y-123422000D01*
X165890000Y-123420000D01*
X165891000Y-123417000D01*
X165891000Y-123415000D01*
X165892000Y-123412000D01*
X165892000Y-123410000D01*
X165893000Y-123407000D01*
X165894000Y-123405000D01*
X165895000Y-123402000D01*
X165897000Y-123400000D01*
X165898000Y-123398000D01*
X165900000Y-123396000D01*
X165901000Y-123394000D01*
X165903000Y-123392000D01*
X165905000Y-123390000D01*
X165907000Y-123388000D01*
X165909000Y-123386000D01*
X165911000Y-123385000D01*
X165913000Y-123383000D01*
X165915000Y-123382000D01*
X165917000Y-123380000D01*
X165920000Y-123379000D01*
X165922000Y-123378000D01*
X165925000Y-123377000D01*
X165927000Y-123377000D01*
X165930000Y-123376000D01*
X165932000Y-123376000D01*
X165935000Y-123375000D01*
X165937000Y-123375000D01*
X165940000Y-123375000D01*
X166090000Y-123375000D01*
X166093000Y-123375000D01*
X166095000Y-123375000D01*
X166098000Y-123376000D01*
G36*
X166098000Y-123376000D02*
G01*
X166100000Y-123376000D01*
X166103000Y-123377000D01*
X166105000Y-123377000D01*
X166108000Y-123378000D01*
X166110000Y-123379000D01*
X166113000Y-123380000D01*
X166115000Y-123382000D01*
X166117000Y-123383000D01*
X166119000Y-123385000D01*
X166121000Y-123386000D01*
X166123000Y-123388000D01*
X166125000Y-123390000D01*
X166127000Y-123392000D01*
X166129000Y-123394000D01*
X166130000Y-123396000D01*
X166132000Y-123398000D01*
X166133000Y-123400000D01*
X166135000Y-123402000D01*
X166136000Y-123405000D01*
X166137000Y-123407000D01*
X166138000Y-123410000D01*
X166138000Y-123412000D01*
X166139000Y-123415000D01*
X166139000Y-123417000D01*
X166140000Y-123420000D01*
X166140000Y-123422000D01*
X166140000Y-123425000D01*
X166140000Y-123725000D01*
X166140000Y-123728000D01*
X166140000Y-123730000D01*
X166141000Y-123733000D01*
X166141000Y-123735000D01*
X166142000Y-123738000D01*
X166142000Y-123740000D01*
X166143000Y-123743000D01*
X166144000Y-123745000D01*
X166145000Y-123748000D01*
X166147000Y-123750000D01*
X166148000Y-123752000D01*
X166150000Y-123754000D01*
X166151000Y-123756000D01*
X166153000Y-123758000D01*
X166155000Y-123760000D01*
X166157000Y-123762000D01*
X166159000Y-123764000D01*
X166161000Y-123765000D01*
X166163000Y-123767000D01*
X166165000Y-123768000D01*
X166167000Y-123770000D01*
X166170000Y-123771000D01*
X166172000Y-123772000D01*
X166175000Y-123773000D01*
X166177000Y-123773000D01*
X166180000Y-123774000D01*
X166182000Y-123774000D01*
X166185000Y-123775000D01*
X166187000Y-123775000D01*
X166190000Y-123775000D01*
X166340000Y-123775000D01*
X166343000Y-123775000D01*
X166345000Y-123775000D01*
X166348000Y-123774000D01*
X166350000Y-123774000D01*
X166353000Y-123773000D01*
X166355000Y-123773000D01*
X166358000Y-123772000D01*
X166360000Y-123771000D01*
X166363000Y-123770000D01*
X166365000Y-123768000D01*
X166367000Y-123767000D01*
X166369000Y-123765000D01*
X166371000Y-123764000D01*
X166373000Y-123762000D01*
X166375000Y-123760000D01*
X166377000Y-123758000D01*
X166379000Y-123756000D01*
X166380000Y-123754000D01*
X166382000Y-123752000D01*
X166383000Y-123750000D01*
X166385000Y-123748000D01*
X166386000Y-123745000D01*
X166387000Y-123743000D01*
X166388000Y-123740000D01*
X166388000Y-123738000D01*
X166389000Y-123735000D01*
X166389000Y-123733000D01*
X166390000Y-123730000D01*
X166390000Y-123728000D01*
X166390000Y-123725000D01*
X166390000Y-123425000D01*
X166390000Y-123422000D01*
X166390000Y-123420000D01*
X166391000Y-123417000D01*
X166391000Y-123415000D01*
X166392000Y-123412000D01*
X166392000Y-123410000D01*
X166393000Y-123407000D01*
X166394000Y-123405000D01*
X166395000Y-123402000D01*
X166397000Y-123400000D01*
X166398000Y-123398000D01*
X166400000Y-123396000D01*
X166401000Y-123394000D01*
X166403000Y-123392000D01*
X166405000Y-123390000D01*
X166407000Y-123388000D01*
X166409000Y-123386000D01*
X166411000Y-123385000D01*
X166413000Y-123383000D01*
X166415000Y-123382000D01*
X166417000Y-123380000D01*
X166420000Y-123379000D01*
X166422000Y-123378000D01*
X166425000Y-123377000D01*
X166427000Y-123377000D01*
X166430000Y-123376000D01*
X166432000Y-123376000D01*
X166435000Y-123375000D01*
X166437000Y-123375000D01*
X166440000Y-123375000D01*
X166590000Y-123375000D01*
X166593000Y-123375000D01*
X166595000Y-123375000D01*
X166598000Y-123376000D01*
X166600000Y-123376000D01*
X166603000Y-123377000D01*
X166605000Y-123377000D01*
X166608000Y-123378000D01*
X166610000Y-123379000D01*
X166613000Y-123380000D01*
X166615000Y-123382000D01*
X166617000Y-123383000D01*
X166619000Y-123385000D01*
X166621000Y-123386000D01*
X166623000Y-123388000D01*
X166625000Y-123390000D01*
X166627000Y-123392000D01*
X166629000Y-123394000D01*
X166630000Y-123396000D01*
X166632000Y-123398000D01*
X166633000Y-123400000D01*
X166635000Y-123402000D01*
X166636000Y-123405000D01*
X166637000Y-123407000D01*
X166638000Y-123410000D01*
X166638000Y-123412000D01*
X166639000Y-123415000D01*
X166639000Y-123417000D01*
X166640000Y-123420000D01*
X166640000Y-123422000D01*
X166640000Y-123425000D01*
X166640000Y-123725000D01*
X166640000Y-123728000D01*
X166640000Y-123730000D01*
X166641000Y-123733000D01*
X166641000Y-123735000D01*
X166642000Y-123738000D01*
X166642000Y-123740000D01*
X166643000Y-123743000D01*
X166644000Y-123745000D01*
X166645000Y-123748000D01*
X166647000Y-123750000D01*
X166648000Y-123752000D01*
X166650000Y-123754000D01*
X166651000Y-123756000D01*
X166653000Y-123758000D01*
X166655000Y-123760000D01*
X166657000Y-123762000D01*
X166659000Y-123764000D01*
X166661000Y-123765000D01*
X166663000Y-123767000D01*
X166665000Y-123768000D01*
X166667000Y-123770000D01*
X166670000Y-123771000D01*
X166672000Y-123772000D01*
X166675000Y-123773000D01*
X166677000Y-123773000D01*
X166680000Y-123774000D01*
X166682000Y-123774000D01*
X166685000Y-123775000D01*
X166687000Y-123775000D01*
X166690000Y-123775000D01*
X166840000Y-123775000D01*
X166843000Y-123775000D01*
X166845000Y-123775000D01*
X166848000Y-123774000D01*
X166850000Y-123774000D01*
X166853000Y-123773000D01*
X166855000Y-123773000D01*
X166858000Y-123772000D01*
X166860000Y-123771000D01*
X166863000Y-123770000D01*
X166865000Y-123768000D01*
X166867000Y-123767000D01*
X166869000Y-123765000D01*
X166871000Y-123764000D01*
X166873000Y-123762000D01*
X166875000Y-123760000D01*
X166877000Y-123758000D01*
X166879000Y-123756000D01*
X166880000Y-123754000D01*
X166882000Y-123752000D01*
X166883000Y-123750000D01*
X166885000Y-123748000D01*
X166886000Y-123745000D01*
X166887000Y-123743000D01*
X166888000Y-123740000D01*
X166888000Y-123738000D01*
X166889000Y-123735000D01*
X166889000Y-123733000D01*
X166890000Y-123730000D01*
X166890000Y-123728000D01*
X166890000Y-123725000D01*
X166890000Y-123425000D01*
X166890000Y-123422000D01*
X166890000Y-123420000D01*
X166891000Y-123417000D01*
X166891000Y-123415000D01*
X166892000Y-123412000D01*
X166892000Y-123410000D01*
X166893000Y-123407000D01*
X166894000Y-123405000D01*
X166895000Y-123402000D01*
X166897000Y-123400000D01*
X166898000Y-123398000D01*
X166900000Y-123396000D01*
X166901000Y-123394000D01*
X166903000Y-123392000D01*
X166905000Y-123390000D01*
X166907000Y-123388000D01*
X166909000Y-123386000D01*
X166911000Y-123385000D01*
X166913000Y-123383000D01*
X166915000Y-123382000D01*
X166917000Y-123380000D01*
X166920000Y-123379000D01*
X166922000Y-123378000D01*
X166925000Y-123377000D01*
X166927000Y-123377000D01*
X166930000Y-123376000D01*
X166932000Y-123376000D01*
X166935000Y-123375000D01*
X166937000Y-123375000D01*
X166940000Y-123375000D01*
X167090000Y-123375000D01*
X167093000Y-123375000D01*
X167095000Y-123375000D01*
X167098000Y-123376000D01*
X167100000Y-123376000D01*
X167103000Y-123377000D01*
X167105000Y-123377000D01*
X167108000Y-123378000D01*
X167110000Y-123379000D01*
X167113000Y-123380000D01*
X167115000Y-123382000D01*
X167117000Y-123383000D01*
X167119000Y-123385000D01*
X167121000Y-123386000D01*
X167123000Y-123388000D01*
X167125000Y-123390000D01*
X167127000Y-123392000D01*
X167129000Y-123394000D01*
X167130000Y-123396000D01*
X167132000Y-123398000D01*
X167133000Y-123400000D01*
X167135000Y-123402000D01*
X167136000Y-123405000D01*
X167137000Y-123407000D01*
X167138000Y-123410000D01*
X167138000Y-123412000D01*
X167139000Y-123415000D01*
X167139000Y-123417000D01*
X167140000Y-123420000D01*
X167140000Y-123422000D01*
X167140000Y-123425000D01*
X167140000Y-123725000D01*
X167140000Y-123728000D01*
X167140000Y-123730000D01*
X167141000Y-123733000D01*
X167141000Y-123735000D01*
X167142000Y-123738000D01*
X167142000Y-123740000D01*
X167143000Y-123743000D01*
X167144000Y-123745000D01*
X167145000Y-123748000D01*
X167147000Y-123750000D01*
X167148000Y-123752000D01*
X167150000Y-123754000D01*
X167151000Y-123756000D01*
X167153000Y-123758000D01*
X167155000Y-123760000D01*
X167157000Y-123762000D01*
X167159000Y-123764000D01*
X167161000Y-123765000D01*
X167163000Y-123767000D01*
X167165000Y-123768000D01*
X167167000Y-123770000D01*
X167170000Y-123771000D01*
X167172000Y-123772000D01*
X167175000Y-123773000D01*
X167177000Y-123773000D01*
X167180000Y-123774000D01*
X167182000Y-123774000D01*
X167185000Y-123775000D01*
X167187000Y-123775000D01*
X167190000Y-123775000D01*
X167350000Y-123775000D01*
X167353000Y-123775000D01*
X167355000Y-123775000D01*
X167358000Y-123776000D01*
X167360000Y-123776000D01*
X167363000Y-123777000D01*
X167365000Y-123777000D01*
X167368000Y-123778000D01*
X167370000Y-123779000D01*
X167373000Y-123780000D01*
X167375000Y-123782000D01*
X167377000Y-123783000D01*
X167379000Y-123785000D01*
X167381000Y-123786000D01*
X167383000Y-123788000D01*
X167385000Y-123790000D01*
X167387000Y-123792000D01*
X167389000Y-123794000D01*
X167390000Y-123796000D01*
X167392000Y-123798000D01*
X167393000Y-123800000D01*
X167395000Y-123802000D01*
X167396000Y-123805000D01*
X167397000Y-123807000D01*
X167398000Y-123810000D01*
X167398000Y-123812000D01*
X167399000Y-123815000D01*
X167399000Y-123817000D01*
X167400000Y-123820000D01*
X167400000Y-123822000D01*
X167400000Y-123825000D01*
X167400000Y-124725000D01*
X167400000Y-124728000D01*
X167400000Y-124730000D01*
X167399000Y-124733000D01*
X167399000Y-124735000D01*
X167398000Y-124738000D01*
X167398000Y-124740000D01*
X167397000Y-124743000D01*
X167396000Y-124745000D01*
X167395000Y-124748000D01*
X167393000Y-124750000D01*
X167392000Y-124752000D01*
X167390000Y-124754000D01*
X167389000Y-124756000D01*
X167387000Y-124758000D01*
X167385000Y-124760000D01*
X167383000Y-124762000D01*
X167381000Y-124764000D01*
X167379000Y-124765000D01*
X167377000Y-124767000D01*
X167375000Y-124768000D01*
X167373000Y-124770000D01*
X167370000Y-124771000D01*
X167368000Y-124772000D01*
X167365000Y-124773000D01*
X167363000Y-124773000D01*
X167360000Y-124774000D01*
X167358000Y-124774000D01*
X167355000Y-124775000D01*
X167353000Y-124775000D01*
X167350000Y-124775000D01*
X165525000Y-124775000D01*
X165522000Y-124775000D01*
X165520000Y-124775000D01*
X165517000Y-124774000D01*
X165515000Y-124774000D01*
X165512000Y-124773000D01*
X165510000Y-124773000D01*
X165507000Y-124772000D01*
X165505000Y-124771000D01*
X165502000Y-124770000D01*
X165500000Y-124768000D01*
X165498000Y-124767000D01*
X165496000Y-124765000D01*
X165494000Y-124764000D01*
X165492000Y-124762000D01*
X165490000Y-124760000D01*
X165488000Y-124758000D01*
X165486000Y-124756000D01*
X165485000Y-124754000D01*
X165483000Y-124752000D01*
X165482000Y-124750000D01*
X165480000Y-124748000D01*
X165479000Y-124745000D01*
X165478000Y-124743000D01*
X165477000Y-124740000D01*
X165477000Y-124738000D01*
X165476000Y-124735000D01*
X165476000Y-124733000D01*
X165475000Y-124730000D01*
X165475000Y-124728000D01*
X165475000Y-124725000D01*
X165475000Y-123825000D01*
X165475000Y-123822000D01*
X165475000Y-123820000D01*
X165476000Y-123817000D01*
X165476000Y-123815000D01*
X165477000Y-123812000D01*
X165477000Y-123810000D01*
X165478000Y-123807000D01*
X165479000Y-123805000D01*
X165480000Y-123802000D01*
X165482000Y-123800000D01*
X165483000Y-123798000D01*
X165485000Y-123796000D01*
X165486000Y-123794000D01*
X165488000Y-123792000D01*
X165490000Y-123790000D01*
X165492000Y-123788000D01*
X165494000Y-123786000D01*
X165496000Y-123785000D01*
X165498000Y-123783000D01*
X165500000Y-123782000D01*
X165502000Y-123780000D01*
X165505000Y-123779000D01*
X165507000Y-123778000D01*
X165510000Y-123777000D01*
X165512000Y-123777000D01*
X165515000Y-123776000D01*
X165517000Y-123776000D01*
X165520000Y-123775000D01*
X165522000Y-123775000D01*
X165525000Y-123775000D01*
X165840000Y-123775000D01*
X165843000Y-123775000D01*
X165845000Y-123775000D01*
X165848000Y-123774000D01*
X165850000Y-123774000D01*
X165853000Y-123773000D01*
X165855000Y-123773000D01*
X165858000Y-123772000D01*
X165860000Y-123771000D01*
X165863000Y-123770000D01*
X165865000Y-123768000D01*
X165867000Y-123767000D01*
X165869000Y-123765000D01*
X165871000Y-123764000D01*
X165873000Y-123762000D01*
X165875000Y-123760000D01*
X165877000Y-123758000D01*
X165879000Y-123756000D01*
X165880000Y-123754000D01*
X165882000Y-123752000D01*
X165883000Y-123750000D01*
X165885000Y-123748000D01*
X165886000Y-123745000D01*
X165887000Y-123743000D01*
X165888000Y-123740000D01*
X165888000Y-123738000D01*
X165889000Y-123735000D01*
X165889000Y-123733000D01*
X165890000Y-123730000D01*
X165890000Y-123728000D01*
X165890000Y-123725000D01*
X165890000Y-123425000D01*
X165890000Y-123422000D01*
X165890000Y-123420000D01*
X165891000Y-123417000D01*
X165891000Y-123415000D01*
X165892000Y-123412000D01*
X165892000Y-123410000D01*
X165893000Y-123407000D01*
X165894000Y-123405000D01*
X165895000Y-123402000D01*
X165897000Y-123400000D01*
X165898000Y-123398000D01*
X165900000Y-123396000D01*
X165901000Y-123394000D01*
X165903000Y-123392000D01*
X165905000Y-123390000D01*
X165907000Y-123388000D01*
X165909000Y-123386000D01*
X165911000Y-123385000D01*
X165913000Y-123383000D01*
X165915000Y-123382000D01*
X165917000Y-123380000D01*
X165920000Y-123379000D01*
X165922000Y-123378000D01*
X165925000Y-123377000D01*
X165927000Y-123377000D01*
X165930000Y-123376000D01*
X165932000Y-123376000D01*
X165935000Y-123375000D01*
X165937000Y-123375000D01*
X165940000Y-123375000D01*
X166090000Y-123375000D01*
X166093000Y-123375000D01*
X166095000Y-123375000D01*
X166098000Y-123376000D01*
G37*
X167358000Y-125676000D02*
X167360000Y-125676000D01*
X167363000Y-125677000D01*
X167365000Y-125677000D01*
X167368000Y-125678000D01*
X167370000Y-125679000D01*
X167373000Y-125680000D01*
X167375000Y-125682000D01*
X167377000Y-125683000D01*
X167379000Y-125685000D01*
X167381000Y-125686000D01*
X167383000Y-125688000D01*
X167385000Y-125690000D01*
X167387000Y-125692000D01*
X167389000Y-125694000D01*
X167390000Y-125696000D01*
X167392000Y-125698000D01*
X167393000Y-125700000D01*
X167395000Y-125702000D01*
X167396000Y-125705000D01*
X167397000Y-125707000D01*
X167398000Y-125710000D01*
X167398000Y-125712000D01*
X167399000Y-125715000D01*
X167399000Y-125717000D01*
X167400000Y-125720000D01*
X167400000Y-125722000D01*
X167400000Y-125725000D01*
X167400000Y-126625000D01*
X167400000Y-126628000D01*
X167400000Y-126630000D01*
X167399000Y-126633000D01*
X167399000Y-126635000D01*
X167398000Y-126638000D01*
X167398000Y-126640000D01*
X167397000Y-126643000D01*
X167396000Y-126645000D01*
X167395000Y-126648000D01*
X167393000Y-126650000D01*
X167392000Y-126652000D01*
X167390000Y-126654000D01*
X167389000Y-126656000D01*
X167387000Y-126658000D01*
X167385000Y-126660000D01*
X167383000Y-126662000D01*
X167381000Y-126664000D01*
X167379000Y-126665000D01*
X167377000Y-126667000D01*
X167375000Y-126668000D01*
X167373000Y-126670000D01*
X167370000Y-126671000D01*
X167368000Y-126672000D01*
X167365000Y-126673000D01*
X167363000Y-126673000D01*
X167360000Y-126674000D01*
X167358000Y-126674000D01*
X167355000Y-126675000D01*
X167353000Y-126675000D01*
X167350000Y-126675000D01*
X167190000Y-126675000D01*
X167187000Y-126675000D01*
X167185000Y-126675000D01*
X167182000Y-126676000D01*
X167180000Y-126676000D01*
X167177000Y-126677000D01*
X167175000Y-126677000D01*
X167172000Y-126678000D01*
X167170000Y-126679000D01*
X167167000Y-126680000D01*
X167165000Y-126682000D01*
X167163000Y-126683000D01*
X167161000Y-126685000D01*
X167159000Y-126686000D01*
X167157000Y-126688000D01*
X167155000Y-126690000D01*
X167153000Y-126692000D01*
X167151000Y-126694000D01*
X167150000Y-126696000D01*
X167148000Y-126698000D01*
X167147000Y-126700000D01*
X167145000Y-126702000D01*
X167144000Y-126705000D01*
X167143000Y-126707000D01*
X167142000Y-126710000D01*
X167142000Y-126712000D01*
X167141000Y-126715000D01*
X167141000Y-126717000D01*
X167140000Y-126720000D01*
X167140000Y-126722000D01*
X167140000Y-126725000D01*
X167140000Y-127025000D01*
X167140000Y-127028000D01*
X167140000Y-127030000D01*
X167139000Y-127033000D01*
X167139000Y-127035000D01*
X167138000Y-127038000D01*
X167138000Y-127040000D01*
X167137000Y-127043000D01*
X167136000Y-127045000D01*
X167135000Y-127048000D01*
X167133000Y-127050000D01*
X167132000Y-127052000D01*
X167130000Y-127054000D01*
X167129000Y-127056000D01*
X167127000Y-127058000D01*
X167125000Y-127060000D01*
X167123000Y-127062000D01*
X167121000Y-127064000D01*
X167119000Y-127065000D01*
X167117000Y-127067000D01*
X167115000Y-127068000D01*
X167113000Y-127070000D01*
X167110000Y-127071000D01*
X167108000Y-127072000D01*
X167105000Y-127073000D01*
X167103000Y-127073000D01*
X167100000Y-127074000D01*
X167098000Y-127074000D01*
X167095000Y-127075000D01*
X167093000Y-127075000D01*
X167090000Y-127075000D01*
X166940000Y-127075000D01*
X166937000Y-127075000D01*
X166935000Y-127075000D01*
X166932000Y-127074000D01*
X166930000Y-127074000D01*
X166927000Y-127073000D01*
X166925000Y-127073000D01*
X166922000Y-127072000D01*
X166920000Y-127071000D01*
X166917000Y-127070000D01*
X166915000Y-127068000D01*
X166913000Y-127067000D01*
X166911000Y-127065000D01*
X166909000Y-127064000D01*
X166907000Y-127062000D01*
X166905000Y-127060000D01*
X166903000Y-127058000D01*
X166901000Y-127056000D01*
X166900000Y-127054000D01*
X166898000Y-127052000D01*
X166897000Y-127050000D01*
X166895000Y-127048000D01*
X166894000Y-127045000D01*
X166893000Y-127043000D01*
X166892000Y-127040000D01*
X166892000Y-127038000D01*
X166891000Y-127035000D01*
X166891000Y-127033000D01*
X166890000Y-127030000D01*
X166890000Y-127028000D01*
X166890000Y-127025000D01*
X166890000Y-126725000D01*
X166890000Y-126722000D01*
X166890000Y-126720000D01*
X166889000Y-126717000D01*
X166889000Y-126715000D01*
X166888000Y-126712000D01*
X166888000Y-126710000D01*
X166887000Y-126707000D01*
X166886000Y-126705000D01*
X166885000Y-126702000D01*
X166883000Y-126700000D01*
X166882000Y-126698000D01*
X166880000Y-126696000D01*
X166879000Y-126694000D01*
X166877000Y-126692000D01*
X166875000Y-126690000D01*
X166873000Y-126688000D01*
X166871000Y-126686000D01*
X166869000Y-126685000D01*
X166867000Y-126683000D01*
X166865000Y-126682000D01*
X166863000Y-126680000D01*
X166860000Y-126679000D01*
X166858000Y-126678000D01*
X166855000Y-126677000D01*
X166853000Y-126677000D01*
X166850000Y-126676000D01*
X166848000Y-126676000D01*
X166845000Y-126675000D01*
X166843000Y-126675000D01*
X166840000Y-126675000D01*
X166690000Y-126675000D01*
X166687000Y-126675000D01*
X166685000Y-126675000D01*
X166682000Y-126676000D01*
X166680000Y-126676000D01*
X166677000Y-126677000D01*
X166675000Y-126677000D01*
X166672000Y-126678000D01*
X166670000Y-126679000D01*
X166667000Y-126680000D01*
X166665000Y-126682000D01*
X166663000Y-126683000D01*
X166661000Y-126685000D01*
X166659000Y-126686000D01*
X166657000Y-126688000D01*
X166655000Y-126690000D01*
X166653000Y-126692000D01*
X166651000Y-126694000D01*
X166650000Y-126696000D01*
X166648000Y-126698000D01*
X166647000Y-126700000D01*
X166645000Y-126702000D01*
X166644000Y-126705000D01*
X166643000Y-126707000D01*
X166642000Y-126710000D01*
X166642000Y-126712000D01*
X166641000Y-126715000D01*
X166641000Y-126717000D01*
X166640000Y-126720000D01*
X166640000Y-126722000D01*
X166640000Y-126725000D01*
X166640000Y-127025000D01*
X166640000Y-127028000D01*
X166640000Y-127030000D01*
X166639000Y-127033000D01*
X166639000Y-127035000D01*
X166638000Y-127038000D01*
X166638000Y-127040000D01*
X166637000Y-127043000D01*
X166636000Y-127045000D01*
X166635000Y-127048000D01*
X166633000Y-127050000D01*
X166632000Y-127052000D01*
X166630000Y-127054000D01*
X166629000Y-127056000D01*
X166627000Y-127058000D01*
X166625000Y-127060000D01*
X166623000Y-127062000D01*
X166621000Y-127064000D01*
X166619000Y-127065000D01*
X166617000Y-127067000D01*
X166615000Y-127068000D01*
X166613000Y-127070000D01*
X166610000Y-127071000D01*
X166608000Y-127072000D01*
X166605000Y-127073000D01*
X166603000Y-127073000D01*
X166600000Y-127074000D01*
X166598000Y-127074000D01*
X166595000Y-127075000D01*
X166593000Y-127075000D01*
X166590000Y-127075000D01*
X166440000Y-127075000D01*
X166437000Y-127075000D01*
X166435000Y-127075000D01*
X166432000Y-127074000D01*
X166430000Y-127074000D01*
X166427000Y-127073000D01*
X166425000Y-127073000D01*
X166422000Y-127072000D01*
X166420000Y-127071000D01*
X166417000Y-127070000D01*
X166415000Y-127068000D01*
X166413000Y-127067000D01*
X166411000Y-127065000D01*
X166409000Y-127064000D01*
X166407000Y-127062000D01*
X166405000Y-127060000D01*
X166403000Y-127058000D01*
X166401000Y-127056000D01*
X166400000Y-127054000D01*
X166398000Y-127052000D01*
X166397000Y-127050000D01*
X166395000Y-127048000D01*
X166394000Y-127045000D01*
X166393000Y-127043000D01*
X166392000Y-127040000D01*
X166392000Y-127038000D01*
X166391000Y-127035000D01*
X166391000Y-127033000D01*
X166390000Y-127030000D01*
X166390000Y-127028000D01*
X166390000Y-127025000D01*
X166390000Y-126725000D01*
X166390000Y-126722000D01*
X166390000Y-126720000D01*
X166389000Y-126717000D01*
X166389000Y-126715000D01*
X166388000Y-126712000D01*
X166388000Y-126710000D01*
X166387000Y-126707000D01*
X166386000Y-126705000D01*
X166385000Y-126702000D01*
X166383000Y-126700000D01*
X166382000Y-126698000D01*
X166380000Y-126696000D01*
X166379000Y-126694000D01*
X166377000Y-126692000D01*
X166375000Y-126690000D01*
X166373000Y-126688000D01*
X166371000Y-126686000D01*
X166369000Y-126685000D01*
X166367000Y-126683000D01*
X166365000Y-126682000D01*
X166363000Y-126680000D01*
X166360000Y-126679000D01*
X166358000Y-126678000D01*
X166355000Y-126677000D01*
X166353000Y-126677000D01*
X166350000Y-126676000D01*
X166348000Y-126676000D01*
X166345000Y-126675000D01*
X166343000Y-126675000D01*
X166340000Y-126675000D01*
X166190000Y-126675000D01*
X166187000Y-126675000D01*
X166185000Y-126675000D01*
X166182000Y-126676000D01*
X166180000Y-126676000D01*
X166177000Y-126677000D01*
X166175000Y-126677000D01*
X166172000Y-126678000D01*
X166170000Y-126679000D01*
X166167000Y-126680000D01*
X166165000Y-126682000D01*
X166163000Y-126683000D01*
X166161000Y-126685000D01*
X166159000Y-126686000D01*
X166157000Y-126688000D01*
X166155000Y-126690000D01*
X166153000Y-126692000D01*
X166151000Y-126694000D01*
X166150000Y-126696000D01*
X166148000Y-126698000D01*
X166147000Y-126700000D01*
X166145000Y-126702000D01*
X166144000Y-126705000D01*
X166143000Y-126707000D01*
X166142000Y-126710000D01*
X166142000Y-126712000D01*
X166141000Y-126715000D01*
X166141000Y-126717000D01*
X166140000Y-126720000D01*
X166140000Y-126722000D01*
X166140000Y-126725000D01*
X166140000Y-127025000D01*
X166140000Y-127028000D01*
X166140000Y-127030000D01*
X166139000Y-127033000D01*
X166139000Y-127035000D01*
X166138000Y-127038000D01*
X166138000Y-127040000D01*
X166137000Y-127043000D01*
X166136000Y-127045000D01*
X166135000Y-127048000D01*
X166133000Y-127050000D01*
X166132000Y-127052000D01*
X166130000Y-127054000D01*
X166129000Y-127056000D01*
X166127000Y-127058000D01*
X166125000Y-127060000D01*
X166123000Y-127062000D01*
X166121000Y-127064000D01*
X166119000Y-127065000D01*
X166117000Y-127067000D01*
X166115000Y-127068000D01*
X166113000Y-127070000D01*
X166110000Y-127071000D01*
X166108000Y-127072000D01*
X166105000Y-127073000D01*
X166103000Y-127073000D01*
X166100000Y-127074000D01*
X166098000Y-127074000D01*
X166095000Y-127075000D01*
X166093000Y-127075000D01*
X166090000Y-127075000D01*
X165940000Y-127075000D01*
X165937000Y-127075000D01*
X165935000Y-127075000D01*
X165932000Y-127074000D01*
X165930000Y-127074000D01*
X165927000Y-127073000D01*
X165925000Y-127073000D01*
X165922000Y-127072000D01*
X165920000Y-127071000D01*
X165917000Y-127070000D01*
X165915000Y-127068000D01*
X165913000Y-127067000D01*
X165911000Y-127065000D01*
X165909000Y-127064000D01*
X165907000Y-127062000D01*
X165905000Y-127060000D01*
X165903000Y-127058000D01*
X165901000Y-127056000D01*
X165900000Y-127054000D01*
X165898000Y-127052000D01*
X165897000Y-127050000D01*
X165895000Y-127048000D01*
X165894000Y-127045000D01*
X165893000Y-127043000D01*
X165892000Y-127040000D01*
X165892000Y-127038000D01*
X165891000Y-127035000D01*
X165891000Y-127033000D01*
X165890000Y-127030000D01*
X165890000Y-127028000D01*
X165890000Y-127025000D01*
X165890000Y-126725000D01*
X165890000Y-126722000D01*
X165890000Y-126720000D01*
X165889000Y-126717000D01*
X165889000Y-126715000D01*
X165888000Y-126712000D01*
X165888000Y-126710000D01*
X165887000Y-126707000D01*
X165886000Y-126705000D01*
X165885000Y-126702000D01*
X165883000Y-126700000D01*
X165882000Y-126698000D01*
X165880000Y-126696000D01*
X165879000Y-126694000D01*
X165877000Y-126692000D01*
X165875000Y-126690000D01*
X165873000Y-126688000D01*
X165871000Y-126686000D01*
X165869000Y-126685000D01*
X165867000Y-126683000D01*
X165865000Y-126682000D01*
X165863000Y-126680000D01*
X165860000Y-126679000D01*
X165858000Y-126678000D01*
X165855000Y-126677000D01*
X165853000Y-126677000D01*
X165850000Y-126676000D01*
X165848000Y-126676000D01*
X165845000Y-126675000D01*
X165843000Y-126675000D01*
X165840000Y-126675000D01*
X165525000Y-126675000D01*
X165522000Y-126675000D01*
X165520000Y-126675000D01*
X165517000Y-126674000D01*
X165515000Y-126674000D01*
X165512000Y-126673000D01*
X165510000Y-126673000D01*
X165507000Y-126672000D01*
X165505000Y-126671000D01*
X165502000Y-126670000D01*
X165500000Y-126668000D01*
X165498000Y-126667000D01*
X165496000Y-126665000D01*
X165494000Y-126664000D01*
X165492000Y-126662000D01*
X165490000Y-126660000D01*
X165488000Y-126658000D01*
X165486000Y-126656000D01*
X165485000Y-126654000D01*
X165483000Y-126652000D01*
X165482000Y-126650000D01*
X165480000Y-126648000D01*
X165479000Y-126645000D01*
X165478000Y-126643000D01*
X165477000Y-126640000D01*
X165477000Y-126638000D01*
X165476000Y-126635000D01*
X165476000Y-126633000D01*
X165475000Y-126630000D01*
X165475000Y-126628000D01*
X165475000Y-126625000D01*
X165475000Y-125725000D01*
X165475000Y-125722000D01*
X165475000Y-125720000D01*
X165476000Y-125717000D01*
X165476000Y-125715000D01*
X165477000Y-125712000D01*
X165477000Y-125710000D01*
X165478000Y-125707000D01*
X165479000Y-125705000D01*
X165480000Y-125702000D01*
X165482000Y-125700000D01*
X165483000Y-125698000D01*
X165485000Y-125696000D01*
X165486000Y-125694000D01*
X165488000Y-125692000D01*
X165490000Y-125690000D01*
X165492000Y-125688000D01*
X165494000Y-125686000D01*
X165496000Y-125685000D01*
X165498000Y-125683000D01*
X165500000Y-125682000D01*
X165502000Y-125680000D01*
X165505000Y-125679000D01*
X165507000Y-125678000D01*
X165510000Y-125677000D01*
X165512000Y-125677000D01*
X165515000Y-125676000D01*
X165517000Y-125676000D01*
X165520000Y-125675000D01*
X165522000Y-125675000D01*
X165525000Y-125675000D01*
X167350000Y-125675000D01*
X167353000Y-125675000D01*
X167355000Y-125675000D01*
X167358000Y-125676000D01*
G36*
X167358000Y-125676000D02*
G01*
X167360000Y-125676000D01*
X167363000Y-125677000D01*
X167365000Y-125677000D01*
X167368000Y-125678000D01*
X167370000Y-125679000D01*
X167373000Y-125680000D01*
X167375000Y-125682000D01*
X167377000Y-125683000D01*
X167379000Y-125685000D01*
X167381000Y-125686000D01*
X167383000Y-125688000D01*
X167385000Y-125690000D01*
X167387000Y-125692000D01*
X167389000Y-125694000D01*
X167390000Y-125696000D01*
X167392000Y-125698000D01*
X167393000Y-125700000D01*
X167395000Y-125702000D01*
X167396000Y-125705000D01*
X167397000Y-125707000D01*
X167398000Y-125710000D01*
X167398000Y-125712000D01*
X167399000Y-125715000D01*
X167399000Y-125717000D01*
X167400000Y-125720000D01*
X167400000Y-125722000D01*
X167400000Y-125725000D01*
X167400000Y-126625000D01*
X167400000Y-126628000D01*
X167400000Y-126630000D01*
X167399000Y-126633000D01*
X167399000Y-126635000D01*
X167398000Y-126638000D01*
X167398000Y-126640000D01*
X167397000Y-126643000D01*
X167396000Y-126645000D01*
X167395000Y-126648000D01*
X167393000Y-126650000D01*
X167392000Y-126652000D01*
X167390000Y-126654000D01*
X167389000Y-126656000D01*
X167387000Y-126658000D01*
X167385000Y-126660000D01*
X167383000Y-126662000D01*
X167381000Y-126664000D01*
X167379000Y-126665000D01*
X167377000Y-126667000D01*
X167375000Y-126668000D01*
X167373000Y-126670000D01*
X167370000Y-126671000D01*
X167368000Y-126672000D01*
X167365000Y-126673000D01*
X167363000Y-126673000D01*
X167360000Y-126674000D01*
X167358000Y-126674000D01*
X167355000Y-126675000D01*
X167353000Y-126675000D01*
X167350000Y-126675000D01*
X167190000Y-126675000D01*
X167187000Y-126675000D01*
X167185000Y-126675000D01*
X167182000Y-126676000D01*
X167180000Y-126676000D01*
X167177000Y-126677000D01*
X167175000Y-126677000D01*
X167172000Y-126678000D01*
X167170000Y-126679000D01*
X167167000Y-126680000D01*
X167165000Y-126682000D01*
X167163000Y-126683000D01*
X167161000Y-126685000D01*
X167159000Y-126686000D01*
X167157000Y-126688000D01*
X167155000Y-126690000D01*
X167153000Y-126692000D01*
X167151000Y-126694000D01*
X167150000Y-126696000D01*
X167148000Y-126698000D01*
X167147000Y-126700000D01*
X167145000Y-126702000D01*
X167144000Y-126705000D01*
X167143000Y-126707000D01*
X167142000Y-126710000D01*
X167142000Y-126712000D01*
X167141000Y-126715000D01*
X167141000Y-126717000D01*
X167140000Y-126720000D01*
X167140000Y-126722000D01*
X167140000Y-126725000D01*
X167140000Y-127025000D01*
X167140000Y-127028000D01*
X167140000Y-127030000D01*
X167139000Y-127033000D01*
X167139000Y-127035000D01*
X167138000Y-127038000D01*
X167138000Y-127040000D01*
X167137000Y-127043000D01*
X167136000Y-127045000D01*
X167135000Y-127048000D01*
X167133000Y-127050000D01*
X167132000Y-127052000D01*
X167130000Y-127054000D01*
X167129000Y-127056000D01*
X167127000Y-127058000D01*
X167125000Y-127060000D01*
X167123000Y-127062000D01*
X167121000Y-127064000D01*
X167119000Y-127065000D01*
X167117000Y-127067000D01*
X167115000Y-127068000D01*
X167113000Y-127070000D01*
X167110000Y-127071000D01*
X167108000Y-127072000D01*
X167105000Y-127073000D01*
X167103000Y-127073000D01*
X167100000Y-127074000D01*
X167098000Y-127074000D01*
X167095000Y-127075000D01*
X167093000Y-127075000D01*
X167090000Y-127075000D01*
X166940000Y-127075000D01*
X166937000Y-127075000D01*
X166935000Y-127075000D01*
X166932000Y-127074000D01*
X166930000Y-127074000D01*
X166927000Y-127073000D01*
X166925000Y-127073000D01*
X166922000Y-127072000D01*
X166920000Y-127071000D01*
X166917000Y-127070000D01*
X166915000Y-127068000D01*
X166913000Y-127067000D01*
X166911000Y-127065000D01*
X166909000Y-127064000D01*
X166907000Y-127062000D01*
X166905000Y-127060000D01*
X166903000Y-127058000D01*
X166901000Y-127056000D01*
X166900000Y-127054000D01*
X166898000Y-127052000D01*
X166897000Y-127050000D01*
X166895000Y-127048000D01*
X166894000Y-127045000D01*
X166893000Y-127043000D01*
X166892000Y-127040000D01*
X166892000Y-127038000D01*
X166891000Y-127035000D01*
X166891000Y-127033000D01*
X166890000Y-127030000D01*
X166890000Y-127028000D01*
X166890000Y-127025000D01*
X166890000Y-126725000D01*
X166890000Y-126722000D01*
X166890000Y-126720000D01*
X166889000Y-126717000D01*
X166889000Y-126715000D01*
X166888000Y-126712000D01*
X166888000Y-126710000D01*
X166887000Y-126707000D01*
X166886000Y-126705000D01*
X166885000Y-126702000D01*
X166883000Y-126700000D01*
X166882000Y-126698000D01*
X166880000Y-126696000D01*
X166879000Y-126694000D01*
X166877000Y-126692000D01*
X166875000Y-126690000D01*
X166873000Y-126688000D01*
X166871000Y-126686000D01*
X166869000Y-126685000D01*
X166867000Y-126683000D01*
X166865000Y-126682000D01*
X166863000Y-126680000D01*
X166860000Y-126679000D01*
X166858000Y-126678000D01*
X166855000Y-126677000D01*
X166853000Y-126677000D01*
X166850000Y-126676000D01*
X166848000Y-126676000D01*
X166845000Y-126675000D01*
X166843000Y-126675000D01*
X166840000Y-126675000D01*
X166690000Y-126675000D01*
X166687000Y-126675000D01*
X166685000Y-126675000D01*
X166682000Y-126676000D01*
X166680000Y-126676000D01*
X166677000Y-126677000D01*
X166675000Y-126677000D01*
X166672000Y-126678000D01*
X166670000Y-126679000D01*
X166667000Y-126680000D01*
X166665000Y-126682000D01*
X166663000Y-126683000D01*
X166661000Y-126685000D01*
X166659000Y-126686000D01*
X166657000Y-126688000D01*
X166655000Y-126690000D01*
X166653000Y-126692000D01*
X166651000Y-126694000D01*
X166650000Y-126696000D01*
X166648000Y-126698000D01*
X166647000Y-126700000D01*
X166645000Y-126702000D01*
X166644000Y-126705000D01*
X166643000Y-126707000D01*
X166642000Y-126710000D01*
X166642000Y-126712000D01*
X166641000Y-126715000D01*
X166641000Y-126717000D01*
X166640000Y-126720000D01*
X166640000Y-126722000D01*
X166640000Y-126725000D01*
X166640000Y-127025000D01*
X166640000Y-127028000D01*
X166640000Y-127030000D01*
X166639000Y-127033000D01*
X166639000Y-127035000D01*
X166638000Y-127038000D01*
X166638000Y-127040000D01*
X166637000Y-127043000D01*
X166636000Y-127045000D01*
X166635000Y-127048000D01*
X166633000Y-127050000D01*
X166632000Y-127052000D01*
X166630000Y-127054000D01*
X166629000Y-127056000D01*
X166627000Y-127058000D01*
X166625000Y-127060000D01*
X166623000Y-127062000D01*
X166621000Y-127064000D01*
X166619000Y-127065000D01*
X166617000Y-127067000D01*
X166615000Y-127068000D01*
X166613000Y-127070000D01*
X166610000Y-127071000D01*
X166608000Y-127072000D01*
X166605000Y-127073000D01*
X166603000Y-127073000D01*
X166600000Y-127074000D01*
X166598000Y-127074000D01*
X166595000Y-127075000D01*
X166593000Y-127075000D01*
X166590000Y-127075000D01*
X166440000Y-127075000D01*
X166437000Y-127075000D01*
X166435000Y-127075000D01*
X166432000Y-127074000D01*
X166430000Y-127074000D01*
X166427000Y-127073000D01*
X166425000Y-127073000D01*
X166422000Y-127072000D01*
X166420000Y-127071000D01*
X166417000Y-127070000D01*
X166415000Y-127068000D01*
X166413000Y-127067000D01*
X166411000Y-127065000D01*
X166409000Y-127064000D01*
X166407000Y-127062000D01*
X166405000Y-127060000D01*
X166403000Y-127058000D01*
X166401000Y-127056000D01*
X166400000Y-127054000D01*
X166398000Y-127052000D01*
X166397000Y-127050000D01*
X166395000Y-127048000D01*
X166394000Y-127045000D01*
X166393000Y-127043000D01*
X166392000Y-127040000D01*
X166392000Y-127038000D01*
X166391000Y-127035000D01*
X166391000Y-127033000D01*
X166390000Y-127030000D01*
X166390000Y-127028000D01*
X166390000Y-127025000D01*
X166390000Y-126725000D01*
X166390000Y-126722000D01*
X166390000Y-126720000D01*
X166389000Y-126717000D01*
X166389000Y-126715000D01*
X166388000Y-126712000D01*
X166388000Y-126710000D01*
X166387000Y-126707000D01*
X166386000Y-126705000D01*
X166385000Y-126702000D01*
X166383000Y-126700000D01*
X166382000Y-126698000D01*
X166380000Y-126696000D01*
X166379000Y-126694000D01*
X166377000Y-126692000D01*
X166375000Y-126690000D01*
X166373000Y-126688000D01*
X166371000Y-126686000D01*
X166369000Y-126685000D01*
X166367000Y-126683000D01*
X166365000Y-126682000D01*
X166363000Y-126680000D01*
X166360000Y-126679000D01*
X166358000Y-126678000D01*
X166355000Y-126677000D01*
X166353000Y-126677000D01*
X166350000Y-126676000D01*
X166348000Y-126676000D01*
X166345000Y-126675000D01*
X166343000Y-126675000D01*
X166340000Y-126675000D01*
X166190000Y-126675000D01*
X166187000Y-126675000D01*
X166185000Y-126675000D01*
X166182000Y-126676000D01*
X166180000Y-126676000D01*
X166177000Y-126677000D01*
X166175000Y-126677000D01*
X166172000Y-126678000D01*
X166170000Y-126679000D01*
X166167000Y-126680000D01*
X166165000Y-126682000D01*
X166163000Y-126683000D01*
X166161000Y-126685000D01*
X166159000Y-126686000D01*
X166157000Y-126688000D01*
X166155000Y-126690000D01*
X166153000Y-126692000D01*
X166151000Y-126694000D01*
X166150000Y-126696000D01*
X166148000Y-126698000D01*
X166147000Y-126700000D01*
X166145000Y-126702000D01*
X166144000Y-126705000D01*
X166143000Y-126707000D01*
X166142000Y-126710000D01*
X166142000Y-126712000D01*
X166141000Y-126715000D01*
X166141000Y-126717000D01*
X166140000Y-126720000D01*
X166140000Y-126722000D01*
X166140000Y-126725000D01*
X166140000Y-127025000D01*
X166140000Y-127028000D01*
X166140000Y-127030000D01*
X166139000Y-127033000D01*
X166139000Y-127035000D01*
X166138000Y-127038000D01*
X166138000Y-127040000D01*
X166137000Y-127043000D01*
X166136000Y-127045000D01*
X166135000Y-127048000D01*
X166133000Y-127050000D01*
X166132000Y-127052000D01*
X166130000Y-127054000D01*
X166129000Y-127056000D01*
X166127000Y-127058000D01*
X166125000Y-127060000D01*
X166123000Y-127062000D01*
X166121000Y-127064000D01*
X166119000Y-127065000D01*
X166117000Y-127067000D01*
X166115000Y-127068000D01*
X166113000Y-127070000D01*
X166110000Y-127071000D01*
X166108000Y-127072000D01*
X166105000Y-127073000D01*
X166103000Y-127073000D01*
X166100000Y-127074000D01*
X166098000Y-127074000D01*
X166095000Y-127075000D01*
X166093000Y-127075000D01*
X166090000Y-127075000D01*
X165940000Y-127075000D01*
X165937000Y-127075000D01*
X165935000Y-127075000D01*
X165932000Y-127074000D01*
X165930000Y-127074000D01*
X165927000Y-127073000D01*
X165925000Y-127073000D01*
X165922000Y-127072000D01*
X165920000Y-127071000D01*
X165917000Y-127070000D01*
X165915000Y-127068000D01*
X165913000Y-127067000D01*
X165911000Y-127065000D01*
X165909000Y-127064000D01*
X165907000Y-127062000D01*
X165905000Y-127060000D01*
X165903000Y-127058000D01*
X165901000Y-127056000D01*
X165900000Y-127054000D01*
X165898000Y-127052000D01*
X165897000Y-127050000D01*
X165895000Y-127048000D01*
X165894000Y-127045000D01*
X165893000Y-127043000D01*
X165892000Y-127040000D01*
X165892000Y-127038000D01*
X165891000Y-127035000D01*
X165891000Y-127033000D01*
X165890000Y-127030000D01*
X165890000Y-127028000D01*
X165890000Y-127025000D01*
X165890000Y-126725000D01*
X165890000Y-126722000D01*
X165890000Y-126720000D01*
X165889000Y-126717000D01*
X165889000Y-126715000D01*
X165888000Y-126712000D01*
X165888000Y-126710000D01*
X165887000Y-126707000D01*
X165886000Y-126705000D01*
X165885000Y-126702000D01*
X165883000Y-126700000D01*
X165882000Y-126698000D01*
X165880000Y-126696000D01*
X165879000Y-126694000D01*
X165877000Y-126692000D01*
X165875000Y-126690000D01*
X165873000Y-126688000D01*
X165871000Y-126686000D01*
X165869000Y-126685000D01*
X165867000Y-126683000D01*
X165865000Y-126682000D01*
X165863000Y-126680000D01*
X165860000Y-126679000D01*
X165858000Y-126678000D01*
X165855000Y-126677000D01*
X165853000Y-126677000D01*
X165850000Y-126676000D01*
X165848000Y-126676000D01*
X165845000Y-126675000D01*
X165843000Y-126675000D01*
X165840000Y-126675000D01*
X165525000Y-126675000D01*
X165522000Y-126675000D01*
X165520000Y-126675000D01*
X165517000Y-126674000D01*
X165515000Y-126674000D01*
X165512000Y-126673000D01*
X165510000Y-126673000D01*
X165507000Y-126672000D01*
X165505000Y-126671000D01*
X165502000Y-126670000D01*
X165500000Y-126668000D01*
X165498000Y-126667000D01*
X165496000Y-126665000D01*
X165494000Y-126664000D01*
X165492000Y-126662000D01*
X165490000Y-126660000D01*
X165488000Y-126658000D01*
X165486000Y-126656000D01*
X165485000Y-126654000D01*
X165483000Y-126652000D01*
X165482000Y-126650000D01*
X165480000Y-126648000D01*
X165479000Y-126645000D01*
X165478000Y-126643000D01*
X165477000Y-126640000D01*
X165477000Y-126638000D01*
X165476000Y-126635000D01*
X165476000Y-126633000D01*
X165475000Y-126630000D01*
X165475000Y-126628000D01*
X165475000Y-126625000D01*
X165475000Y-125725000D01*
X165475000Y-125722000D01*
X165475000Y-125720000D01*
X165476000Y-125717000D01*
X165476000Y-125715000D01*
X165477000Y-125712000D01*
X165477000Y-125710000D01*
X165478000Y-125707000D01*
X165479000Y-125705000D01*
X165480000Y-125702000D01*
X165482000Y-125700000D01*
X165483000Y-125698000D01*
X165485000Y-125696000D01*
X165486000Y-125694000D01*
X165488000Y-125692000D01*
X165490000Y-125690000D01*
X165492000Y-125688000D01*
X165494000Y-125686000D01*
X165496000Y-125685000D01*
X165498000Y-125683000D01*
X165500000Y-125682000D01*
X165502000Y-125680000D01*
X165505000Y-125679000D01*
X165507000Y-125678000D01*
X165510000Y-125677000D01*
X165512000Y-125677000D01*
X165515000Y-125676000D01*
X165517000Y-125676000D01*
X165520000Y-125675000D01*
X165522000Y-125675000D01*
X165525000Y-125675000D01*
X167350000Y-125675000D01*
X167353000Y-125675000D01*
X167355000Y-125675000D01*
X167358000Y-125676000D01*
G37*
%TD*%
D11*
%TO.C,J505*%
X160800000Y-142700000D03*
D12*
X165800000Y-142700000D03*
%TD*%
D13*
%TO.C,J202*%
X163595000Y-98825000D03*
X161595000Y-98825000D03*
%TD*%
%TO.C,J205*%
X173525400Y-116685000D03*
X173525400Y-114685000D03*
%TD*%
%TO.C,J203*%
X125037700Y-114095000D03*
X125037700Y-116095000D03*
%TD*%
D14*
%TO.C,J603*%
X131200000Y-130389000D03*
X131200000Y-127889000D03*
X131200000Y-125389000D03*
X131200000Y-122889000D03*
%TD*%
%TO.C,J604*%
X131182000Y-112732000D03*
X131182000Y-110232000D03*
X131182000Y-107732000D03*
X131182000Y-105232000D03*
%TD*%
D15*
%TO.C,J503*%
X176167500Y-108250000D03*
D12*
X176167500Y-103250000D03*
%TD*%
D13*
%TO.C,J602*%
X157103000Y-98843000D03*
X155103000Y-98843000D03*
%TD*%
%TO.C,J204*%
X125037700Y-121545000D03*
X125037700Y-123545000D03*
%TD*%
%TO.C,J601*%
X134116000Y-98716000D03*
X132116000Y-98716000D03*
%TD*%
D15*
%TO.C,J504*%
X176175400Y-134600000D03*
D12*
X176175400Y-129600000D03*
%TD*%
D16*
%TO.C,J301*%
X153137256Y-142353171D03*
D17*
X155677256Y-144893171D03*
X155677256Y-139813171D03*
X150597256Y-144893171D03*
X150597256Y-139813171D03*
%TD*%
D16*
%TO.C,J304*%
X133660000Y-142340000D03*
D17*
X136200000Y-144880000D03*
X136200000Y-139800000D03*
X131120000Y-144880000D03*
X131120000Y-139800000D03*
%TD*%
D18*
%TO.C,J201*%
X150876000Y-93472000D03*
D19*
X148336000Y-93472000D03*
X145796000Y-93472000D03*
X143256000Y-93472000D03*
X140716000Y-93472000D03*
X138176000Y-93472000D03*
%TD*%
D20*
%TO.C,J502*%
X122300000Y-129900000D03*
D12*
X122300000Y-134900000D03*
%TD*%
D16*
%TO.C,J305*%
X143540000Y-142340000D03*
D17*
X146080000Y-144880000D03*
X146080000Y-139800000D03*
X141000000Y-144880000D03*
X141000000Y-139800000D03*
%TD*%
D13*
%TO.C,J206*%
X173525400Y-124020000D03*
X173525400Y-122020000D03*
%TD*%
D20*
%TO.C,J501*%
X122387700Y-103350000D03*
D12*
X122387700Y-108350000D03*
%TD*%
D21*
%TO.C,C204*%
X148420389Y-121539000D03*
X150320389Y-121539000D03*
%TD*%
D22*
%TO.C,R607*%
X150175000Y-101225000D03*
X151825000Y-101225000D03*
%TD*%
D21*
%TO.C,C506*%
X167850000Y-120000000D03*
X169750000Y-120000000D03*
%TD*%
D23*
%TO.C,R503*%
X161800000Y-126400000D03*
X161800000Y-128050000D03*
%TD*%
D24*
%TO.C,C502*%
X165800000Y-128275000D03*
X165800000Y-130175000D03*
%TD*%
D25*
%TO.C,U501*%
X164650000Y-114100000D03*
X164650000Y-111800000D03*
D26*
X169100000Y-111800000D03*
D25*
X164650000Y-109500000D03*
%TD*%
D27*
%TO.C,R505*%
X166179000Y-121920000D03*
X164529000Y-121920000D03*
%TD*%
D28*
%TO.C,C512*%
X151638000Y-106995000D03*
X151638000Y-105095000D03*
%TD*%
D27*
%TO.C,R602*%
X137650000Y-104025000D03*
X136000000Y-104025000D03*
%TD*%
D23*
%TO.C,R606*%
X148600000Y-101200000D03*
X148600000Y-102850000D03*
%TD*%
D29*
%TO.C,C209*%
X145656000Y-117729000D03*
X147206000Y-117729000D03*
%TD*%
D30*
%TO.C,TP601*%
X141400000Y-106225000D03*
%TD*%
D31*
%TO.C,U401*%
X157976001Y-120690800D03*
X157476000Y-120690800D03*
X156976000Y-120690800D03*
X156475999Y-120690800D03*
X156475999Y-117800000D03*
X156976000Y-117800000D03*
X157476000Y-117800000D03*
X157976001Y-117800000D03*
D32*
X157226000Y-119245400D03*
%TD*%
D23*
%TO.C,R604*%
X139200000Y-102412500D03*
X139200000Y-104062500D03*
%TD*%
%TO.C,R611*%
X148600000Y-98200000D03*
X148600000Y-99850000D03*
%TD*%
D33*
%TO.C,R501*%
X161800000Y-124675000D03*
X161800000Y-123025000D03*
%TD*%
D27*
%TO.C,R608*%
X151825000Y-102825000D03*
X150175000Y-102825000D03*
%TD*%
D22*
%TO.C,R603*%
X135975000Y-102425000D03*
X137625000Y-102425000D03*
%TD*%
D33*
%TO.C,R506*%
X163068000Y-121475000D03*
X163068000Y-119825000D03*
%TD*%
D34*
%TO.C,C401*%
X159800000Y-118225000D03*
X159800000Y-119775000D03*
%TD*%
D28*
%TO.C,C509*%
X162300000Y-114950000D03*
X162300000Y-113050000D03*
%TD*%
D35*
%TO.C,C613*%
X129010000Y-124981000D03*
X129010000Y-123431000D03*
%TD*%
D30*
%TO.C,TP602*%
X149225000Y-105025000D03*
%TD*%
D24*
%TO.C,C503*%
X163800000Y-128275000D03*
X163800000Y-130175000D03*
%TD*%
D21*
%TO.C,C507*%
X167850000Y-122000000D03*
X169750000Y-122000000D03*
%TD*%
D34*
%TO.C,C501*%
X167600000Y-128250000D03*
X167600000Y-129800000D03*
%TD*%
D36*
%TO.C,C211*%
X153429000Y-120650000D03*
X151879000Y-120650000D03*
%TD*%
D37*
%TO.C,C208*%
X144485992Y-122722008D03*
X145582008Y-121625992D03*
%TD*%
D36*
%TO.C,C508*%
X166350000Y-120396000D03*
X164800000Y-120396000D03*
%TD*%
D22*
%TO.C,R204*%
X152972000Y-119126000D03*
X154622000Y-119126000D03*
%TD*%
D36*
%TO.C,C205*%
X150254000Y-119634000D03*
X148704000Y-119634000D03*
%TD*%
D38*
%TO.C,U502*%
X158623000Y-111250000D03*
X156323000Y-111250000D03*
D39*
X156323000Y-106650000D03*
D38*
X154023000Y-111250000D03*
%TD*%
D29*
%TO.C,C210*%
X147434000Y-111760000D03*
X148984000Y-111760000D03*
%TD*%
D36*
%TO.C,C203*%
X153095893Y-114468915D03*
X151545893Y-114468915D03*
%TD*%
D34*
%TO.C,C614*%
X128982000Y-103746000D03*
X128982000Y-105296000D03*
%TD*%
D22*
%TO.C,R203*%
X152845000Y-117602000D03*
X154495000Y-117602000D03*
%TD*%
D29*
%TO.C,C601*%
X144850000Y-105225000D03*
X146400000Y-105225000D03*
%TD*%
D40*
%TO.C,C510*%
X159446000Y-113665000D03*
X157546000Y-113665000D03*
%TD*%
D36*
%TO.C,C212*%
X153175000Y-115951000D03*
X151625000Y-115951000D03*
%TD*%
D40*
%TO.C,C505*%
X166250000Y-118110000D03*
X164350000Y-118110000D03*
%TD*%
D23*
%TO.C,R601*%
X139200000Y-99412500D03*
X139200000Y-101062500D03*
%TD*%
D24*
%TO.C,C511*%
X162300000Y-109650000D03*
X162300000Y-111550000D03*
%TD*%
D41*
%TO.C,L201*%
X148844000Y-118200000D03*
X148844000Y-116075000D03*
%TD*%
D27*
%TO.C,R502*%
X160337000Y-123063000D03*
X158687000Y-123063000D03*
%TD*%
D42*
%TO.C,U602*%
X141570000Y-103662500D03*
X141570000Y-102392500D03*
X141570000Y-101122500D03*
X141570000Y-99852500D03*
X146510000Y-99852500D03*
X146510000Y-101122500D03*
X146510000Y-102392500D03*
X146510000Y-103662500D03*
%TD*%
M02*
