%TF.GenerationSoftware,KiCad,Pcbnew,9.0.8-9.0.8~ubuntu22.04.1*%
%TF.CreationDate,2026-04-26T22:17:13+03:00*%
%TF.ProjectId,Main Board - NDT,4d61696e-2042-46f6-9172-64202d204e44,rev?*%
%TF.SameCoordinates,Original*%
%TF.FileFunction,Copper,L3,Inr*%
%TF.FilePolarity,Positive*%
%FSLAX46Y46*%
G04 Gerber Fmt 4.6, Leading zero omitted, Abs format (unit mm)*
G04 Created by KiCad (PCBNEW 9.0.8-9.0.8~ubuntu22.04.1) date 2026-04-26 22:17:13*
%MOMM*%
%LPD*%
G01*
G04 APERTURE LIST*
G04 Aperture macros list*
%AMRoundRect*
0 Rectangle with rounded corners*
0 $1 Rounding radius*
0 $2 $3 $4 $5 $6 $7 $8 $9 X,Y pos of 4 corners*
0 Add a 4 corners polygon primitive as box body*
4,1,4,$2,$3,$4,$5,$6,$7,$8,$9,$2,$3,0*
0 Add four circle primitives for the rounded corners*
1,1,$1+$1,$2,$3*
1,1,$1+$1,$4,$5*
1,1,$1+$1,$6,$7*
1,1,$1+$1,$8,$9*
0 Add four rect primitives between the rounded corners*
20,1,$1+$1,$2,$3,$4,$5,0*
20,1,$1+$1,$4,$5,$6,$7,0*
20,1,$1+$1,$6,$7,$8,$9,0*
20,1,$1+$1,$8,$9,$2,$3,0*%
G04 Aperture macros list end*
%TA.AperFunction,ComponentPad*%
%ADD10RoundRect,0.250001X-1.149999X-1.149999X1.149999X-1.149999X1.149999X1.149999X-1.149999X1.149999X0*%
%TD*%
%TA.AperFunction,ComponentPad*%
%ADD11C,2.800000*%
%TD*%
%TA.AperFunction,ComponentPad*%
%ADD12C,1.750000*%
%TD*%
%TA.AperFunction,ComponentPad*%
%ADD13C,2.100000*%
%TD*%
%TA.AperFunction,ComponentPad*%
%ADD14RoundRect,0.250001X1.149999X-1.149999X1.149999X1.149999X-1.149999X1.149999X-1.149999X-1.149999X0*%
%TD*%
%TA.AperFunction,ComponentPad*%
%ADD15C,2.500000*%
%TD*%
%TA.AperFunction,ComponentPad*%
%ADD16C,2.600000*%
%TD*%
%TA.AperFunction,ComponentPad*%
%ADD17R,1.700000X1.700000*%
%TD*%
%TA.AperFunction,ComponentPad*%
%ADD18C,1.700000*%
%TD*%
%TA.AperFunction,ComponentPad*%
%ADD19RoundRect,0.250001X-1.149999X1.149999X-1.149999X-1.149999X1.149999X-1.149999X1.149999X1.149999X0*%
%TD*%
%TA.AperFunction,ViaPad*%
%ADD20C,0.400000*%
%TD*%
%TA.AperFunction,ViaPad*%
%ADD21C,0.600000*%
%TD*%
%TA.AperFunction,ViaPad*%
%ADD22C,0.500000*%
%TD*%
%TA.AperFunction,Conductor*%
%ADD23C,0.250000*%
%TD*%
%TA.AperFunction,Conductor*%
%ADD24C,0.300000*%
%TD*%
%TA.AperFunction,Conductor*%
%ADD25C,0.200000*%
%TD*%
%TA.AperFunction,Conductor*%
%ADD26C,0.150000*%
%TD*%
G04 APERTURE END LIST*
D10*
%TO.N,Net-(J505-Pin_1)*%
%TO.C,J505*%
X160800000Y-142700000D03*
D11*
%TO.N,GND*%
X165800000Y-142700000D03*
%TD*%
D12*
%TO.N,/MCU/I2C2_SCL*%
%TO.C,J202*%
X163595000Y-98825000D03*
%TO.N,/MCU/I2C2_SDA*%
X161595000Y-98825000D03*
%TD*%
%TO.N,/MCU/UART4_RX*%
%TO.C,J205*%
X173525400Y-116685000D03*
%TO.N,/MCU/UART4_TX*%
X173525400Y-114685000D03*
%TD*%
%TO.N,/MCU/UART1_RX*%
%TO.C,J203*%
X125037700Y-114095000D03*
%TO.N,/MCU/UART1_TX*%
X125037700Y-116095000D03*
%TD*%
D13*
%TO.N,/MCU/I2C1_SDA*%
%TO.C,J603*%
X131200000Y-130389000D03*
%TO.N,/MCU/I2C1_SCL*%
X131200000Y-127889000D03*
%TO.N,GND*%
X131200000Y-125389000D03*
%TO.N,MCU_3V3_VFD*%
X131200000Y-122889000D03*
%TD*%
%TO.N,/MCU/I2C1_SCL*%
%TO.C,J604*%
X131182000Y-112732000D03*
%TO.N,GND*%
X131182000Y-110232000D03*
%TO.N,/MCU/I2C1_SDA*%
X131182000Y-107732000D03*
%TO.N,MCU_3V3_VFD*%
X131182000Y-105232000D03*
%TD*%
D14*
%TO.N,GND*%
%TO.C,J503*%
X176167500Y-108250000D03*
D11*
%TO.N,Net-(J503-Pin_2)*%
X176167500Y-103250000D03*
%TD*%
D12*
%TO.N,3V3_F*%
%TO.C,J602*%
X157103000Y-98843000D03*
%TO.N,Net-(J602-Pad2)*%
X155103000Y-98843000D03*
%TD*%
%TO.N,/MCU/UART2_RX*%
%TO.C,J204*%
X125037700Y-121545000D03*
%TO.N,/MCU/UART2_TX*%
X125037700Y-123545000D03*
%TD*%
%TO.N,Net-(J601-Pad1)*%
%TO.C,J601*%
X134116000Y-98716000D03*
%TO.N,3V3_F*%
X132116000Y-98716000D03*
%TD*%
D14*
%TO.N,Net-(J504-Pin_1)*%
%TO.C,J504*%
X176175400Y-134600000D03*
D11*
%TO.N,GND*%
X176175400Y-129600000D03*
%TD*%
D15*
%TO.N,/RF/PA_SE*%
%TO.C,J301*%
X153137256Y-142353171D03*
D16*
%TO.N,GND*%
X155677256Y-144893171D03*
X155677256Y-139813171D03*
X150597256Y-144893171D03*
X150597256Y-139813171D03*
%TD*%
D15*
%TO.N,/RF/2.4_GHZ_SE*%
%TO.C,J304*%
X133660000Y-142340000D03*
D16*
%TO.N,GND*%
X136200000Y-144880000D03*
X136200000Y-139800000D03*
X131120000Y-144880000D03*
X131120000Y-139800000D03*
%TD*%
D17*
%TO.N,/MCU/JTAG_TMS*%
%TO.C,J201*%
X150876000Y-93472000D03*
D18*
%TO.N,/MCU/JTAG_TCK*%
X148336000Y-93472000D03*
%TO.N,/MCU/JTAG_TDO*%
X145796000Y-93472000D03*
%TO.N,/MCU/JTAG_TDI*%
X143256000Y-93472000D03*
%TO.N,/MCU/SWO*%
X140716000Y-93472000D03*
%TO.N,/MCU/RESET*%
X138176000Y-93472000D03*
%TD*%
D19*
%TO.N,GND*%
%TO.C,J502*%
X122300000Y-129900000D03*
D11*
%TO.N,Net-(J502-Pin_2)*%
X122300000Y-134900000D03*
%TD*%
D15*
%TO.N,/RF/SUB_GHZ_SE*%
%TO.C,J305*%
X143540000Y-142340000D03*
D16*
%TO.N,GND*%
X146080000Y-144880000D03*
X146080000Y-139800000D03*
X141000000Y-144880000D03*
X141000000Y-139800000D03*
%TD*%
D12*
%TO.N,/MCU/UART3_TX*%
%TO.C,J206*%
X173525400Y-124020000D03*
%TO.N,/MCU/UART3_RX*%
X173525400Y-122020000D03*
%TD*%
D19*
%TO.N,Net-(J501-Pin_1)*%
%TO.C,J501*%
X122387700Y-103350000D03*
D11*
%TO.N,GND*%
X122387700Y-108350000D03*
%TD*%
D20*
%TO.N,GND*%
X150950000Y-134250000D03*
X149600000Y-131950000D03*
D21*
X147608100Y-136677000D03*
D20*
X148570937Y-129220867D03*
D21*
X157607000Y-108204000D03*
X155575000Y-107061000D03*
D20*
X144950000Y-125150000D03*
D21*
X149608100Y-136677000D03*
D20*
X150350000Y-133500000D03*
X149650000Y-130900000D03*
X151350000Y-125200000D03*
X153200000Y-131900000D03*
X153950000Y-136750000D03*
X134400000Y-140500000D03*
X144672712Y-127751534D03*
X153200000Y-132400000D03*
X140733174Y-125849367D03*
X148350000Y-128250000D03*
D21*
X138684000Y-98806000D03*
D20*
X138300000Y-133350000D03*
D21*
X143608100Y-144677000D03*
D20*
X144000000Y-132100000D03*
X153350000Y-134350000D03*
D21*
X169799000Y-113157000D03*
X148608100Y-136677000D03*
X140608100Y-136677000D03*
D20*
X152250000Y-128500000D03*
X152400000Y-129000000D03*
D21*
X170815000Y-110490000D03*
X138608100Y-138677000D03*
D20*
X142500000Y-140000000D03*
D21*
X163700000Y-119100000D03*
D20*
X152263003Y-130095078D03*
X146650000Y-130800000D03*
D21*
X163195000Y-123571000D03*
D20*
X152550000Y-140600000D03*
X142750000Y-136500000D03*
X137800000Y-130850000D03*
X139250000Y-128850000D03*
X148050000Y-127750000D03*
X153050000Y-133350000D03*
D21*
X149608100Y-137677000D03*
D20*
X145384260Y-133905938D03*
X151200000Y-124400000D03*
D21*
X139608100Y-142677000D03*
D20*
X138000000Y-133800000D03*
X133050000Y-139900000D03*
X141550000Y-124700000D03*
D21*
X157099000Y-101219000D03*
D20*
X147750000Y-127350000D03*
X152600000Y-139150000D03*
D21*
X170815000Y-111379000D03*
D20*
X147950000Y-126350000D03*
D21*
X156300000Y-125400000D03*
X146608100Y-142677000D03*
X157226000Y-113284000D03*
D20*
X144326254Y-130651534D03*
D21*
X147608100Y-141677000D03*
X153416000Y-100584000D03*
D20*
X144400000Y-128850000D03*
X152600000Y-140100000D03*
X133800000Y-137200000D03*
D21*
X140608100Y-135677000D03*
D20*
X141200000Y-125150000D03*
X145750000Y-132300000D03*
X138900000Y-129250000D03*
D21*
X156591000Y-105029000D03*
D20*
X142300000Y-138000000D03*
D21*
X157607000Y-128016000D03*
D20*
X142500000Y-139450000D03*
X147950000Y-130050000D03*
D21*
X147608100Y-135677000D03*
D20*
X144150000Y-137850000D03*
D21*
X133608100Y-145677000D03*
D20*
X148750000Y-126900000D03*
X143800000Y-140450000D03*
D21*
X155608100Y-135677000D03*
X142113000Y-117348000D03*
X157607000Y-107061000D03*
D20*
X152021272Y-127261076D03*
X133000000Y-140450000D03*
X152700000Y-130400000D03*
X148400000Y-124900000D03*
D21*
X138608100Y-136677000D03*
D20*
X148800000Y-126400000D03*
X144550000Y-128350000D03*
X145000000Y-125800000D03*
D21*
X148590000Y-98171000D03*
D20*
X149850000Y-133400000D03*
X138950000Y-132550000D03*
X152500000Y-129550000D03*
X154600000Y-128100000D03*
D21*
X170815000Y-113157000D03*
D20*
X142500000Y-140500000D03*
X149500000Y-132950000D03*
X146150000Y-131000000D03*
D21*
X169799000Y-112268000D03*
D20*
X139800000Y-131200000D03*
D21*
X164719000Y-124968000D03*
X138608100Y-139677000D03*
X140608100Y-137677000D03*
D20*
X153700000Y-135800000D03*
X153900000Y-139150000D03*
D21*
X169799000Y-109601000D03*
D20*
X136150000Y-135800000D03*
X151850000Y-135500000D03*
X143750000Y-133050000D03*
X136450000Y-132800000D03*
D21*
X137608100Y-136677000D03*
X143510000Y-120269000D03*
X150241000Y-117475000D03*
X149608100Y-135677000D03*
X133608100Y-144677000D03*
D20*
X134450000Y-139950000D03*
X144050000Y-138400000D03*
X137250000Y-131700000D03*
D21*
X137608100Y-137677000D03*
X150608100Y-137677000D03*
D20*
X150000000Y-123450000D03*
D21*
X131608100Y-137677000D03*
X155575000Y-105029000D03*
D20*
X134000000Y-136700000D03*
D21*
X163350000Y-105975000D03*
D20*
X139550000Y-131700000D03*
X135600000Y-134000000D03*
D21*
X155575000Y-106045000D03*
D20*
X153600000Y-135300000D03*
X148300000Y-128800000D03*
D21*
X165100000Y-122809000D03*
D20*
X151450000Y-134150000D03*
X143550000Y-128500000D03*
X138600000Y-132950000D03*
D21*
X155608100Y-136677000D03*
D20*
X147800000Y-126850000D03*
X152350000Y-137750000D03*
X148800000Y-129700000D03*
X140300000Y-126400000D03*
X148100000Y-129550000D03*
D21*
X144526000Y-122682000D03*
D20*
X139650000Y-127300000D03*
X143850000Y-138900000D03*
X145650000Y-135150000D03*
X134800000Y-135350000D03*
D21*
X167250000Y-113750000D03*
D20*
X143900000Y-125450000D03*
X140100000Y-130750000D03*
D21*
X156591000Y-107061000D03*
D20*
X153850000Y-136300000D03*
D21*
X138608100Y-140677000D03*
D20*
X144900000Y-127300000D03*
X137400000Y-134700000D03*
X144200000Y-130200000D03*
D21*
X170815000Y-109601000D03*
D20*
X152300000Y-137300000D03*
X151500000Y-125650000D03*
D21*
X148608100Y-135677000D03*
D20*
X142850000Y-123800000D03*
X143250000Y-128950000D03*
X152050000Y-136450000D03*
D21*
X130048000Y-101346000D03*
D20*
X146950061Y-130430511D03*
X133450000Y-138200000D03*
D21*
X149608100Y-142677000D03*
D20*
X138431391Y-129930214D03*
X142850000Y-136000000D03*
D21*
X141608100Y-131677000D03*
X161798000Y-128016000D03*
X152146000Y-104775000D03*
X139608100Y-136677000D03*
X148608100Y-142677000D03*
X138608100Y-145677000D03*
D20*
X144650000Y-137550000D03*
D21*
X162306000Y-111633000D03*
X143608100Y-145677000D03*
X137608100Y-142677000D03*
D20*
X143900000Y-128050000D03*
X145800000Y-135650000D03*
D21*
X164084000Y-124968000D03*
D20*
X134250000Y-136250000D03*
D21*
X129032000Y-103759000D03*
D20*
X145450000Y-136700000D03*
X153500000Y-134800000D03*
D21*
X170942000Y-121920000D03*
D20*
X153900000Y-140150000D03*
D21*
X169799000Y-124841000D03*
D20*
X140800000Y-129800000D03*
X151650000Y-126200000D03*
X152950000Y-132850000D03*
X145250000Y-137250000D03*
X135300000Y-137250000D03*
X143400000Y-134000000D03*
D21*
X151257000Y-117475000D03*
D20*
X134850000Y-138300000D03*
D21*
X170688000Y-131318000D03*
X168783000Y-110490000D03*
X156083000Y-121285000D03*
X130608100Y-142677000D03*
D20*
X145500000Y-133250000D03*
D21*
X140608100Y-133677000D03*
X138608100Y-142677000D03*
X170561000Y-129032000D03*
D20*
X135050000Y-137800000D03*
D21*
X144893975Y-105169025D03*
D20*
X142450000Y-124200000D03*
D21*
X157607000Y-106045000D03*
X163195000Y-124271003D03*
D20*
X152600000Y-139650000D03*
X135822878Y-136272464D03*
X148100000Y-125850000D03*
D21*
X159792474Y-121898151D03*
X131608100Y-136677000D03*
D20*
X152150000Y-127950000D03*
D21*
X155608100Y-142677000D03*
D20*
X153250000Y-133850000D03*
D21*
X148608100Y-137677000D03*
D20*
X143600000Y-133550000D03*
D21*
X148608100Y-141677000D03*
X132608100Y-135677000D03*
D20*
X140000000Y-126850000D03*
D21*
X155608100Y-137677000D03*
X139608100Y-134677000D03*
D20*
X145400000Y-125350000D03*
X142700000Y-129250000D03*
D21*
X156591000Y-108204000D03*
D20*
X153900000Y-138650000D03*
X134700000Y-138850000D03*
D21*
X138608100Y-135677000D03*
X150608100Y-136677000D03*
X140608100Y-134677000D03*
D20*
X143850000Y-139450000D03*
X139200000Y-132100000D03*
X145950000Y-131400000D03*
X148300000Y-125350000D03*
D21*
X147608100Y-142677000D03*
X129000000Y-125000000D03*
D20*
X148650000Y-125850000D03*
X136550000Y-135350000D03*
X133100000Y-139350000D03*
X152600000Y-138650000D03*
X134550000Y-139400000D03*
D21*
X157607000Y-105029000D03*
X156608100Y-137677000D03*
D20*
X151700000Y-135100000D03*
X144450000Y-125350000D03*
D21*
X136608100Y-142677000D03*
X141608100Y-134677000D03*
D20*
X153900000Y-140650000D03*
X143800000Y-139950000D03*
X135450000Y-134500000D03*
X141250000Y-129450000D03*
X150150000Y-130850000D03*
X145600000Y-132750000D03*
X143800000Y-132550000D03*
D21*
X154305000Y-106680000D03*
D20*
X145250000Y-122450000D03*
D21*
X168783000Y-109601000D03*
X147608100Y-132677000D03*
D20*
X136825376Y-132223839D03*
X151819175Y-136011548D03*
X133600000Y-137700000D03*
D21*
X138608100Y-143677000D03*
D20*
X152900000Y-130850000D03*
D21*
X141732000Y-122555000D03*
D20*
X135550000Y-136750000D03*
D21*
X150241000Y-118491000D03*
D20*
X143800000Y-125900000D03*
X142050000Y-124500000D03*
D21*
X169799000Y-110490000D03*
X145608100Y-142677000D03*
X168783000Y-112268000D03*
X148608100Y-134677000D03*
D20*
X137550000Y-131300000D03*
X144050000Y-131600000D03*
D21*
X140208000Y-120396000D03*
D20*
X154100000Y-137250000D03*
D21*
X151257000Y-103632000D03*
D20*
X144100000Y-127400000D03*
X139450000Y-128350000D03*
D21*
X156608100Y-142677000D03*
D20*
X149400000Y-132450000D03*
X152550000Y-138200000D03*
X143100000Y-135050000D03*
D21*
X135255000Y-101854000D03*
D20*
X147550000Y-130400000D03*
D21*
X142608100Y-130677000D03*
D20*
X150104327Y-131620771D03*
D21*
X147608100Y-137677000D03*
D20*
X142500000Y-138950000D03*
D21*
X139608100Y-137677000D03*
D20*
X145850000Y-131850000D03*
D21*
X138608100Y-141677000D03*
D20*
X144150000Y-129800000D03*
X137750000Y-134250000D03*
X134550000Y-135800000D03*
X143400000Y-123550000D03*
X151650000Y-134600000D03*
X155900000Y-127200000D03*
X151750000Y-126700000D03*
X143000000Y-135500000D03*
X142300000Y-138500000D03*
X140500000Y-130300000D03*
D21*
X170815000Y-112268000D03*
D20*
X152150000Y-136900000D03*
X142027146Y-129106776D03*
X153950000Y-138200000D03*
X143250000Y-134550000D03*
X136150000Y-133200000D03*
D21*
X140608100Y-142677000D03*
X139608100Y-135677000D03*
D20*
X133250000Y-138750000D03*
D21*
X147193000Y-118200000D03*
X169799000Y-111379000D03*
X168783000Y-111379000D03*
X141608100Y-132677000D03*
D20*
X153000000Y-131400000D03*
D21*
X141478000Y-98933000D03*
D20*
X135900000Y-133600000D03*
X149100000Y-130650000D03*
X138100000Y-130450000D03*
X145125527Y-134831526D03*
X148450000Y-127350000D03*
X148810437Y-130191969D03*
X153900000Y-139650000D03*
X150950000Y-123750000D03*
D21*
X156591000Y-106045000D03*
D20*
X154200000Y-137750000D03*
X145700000Y-136200000D03*
D21*
X171000000Y-119400000D03*
D20*
X144950000Y-126850000D03*
X139400000Y-127800000D03*
D21*
X151257000Y-118491000D03*
D20*
X150500000Y-130500000D03*
X143600000Y-126400000D03*
D21*
X147608100Y-133677000D03*
X147608100Y-134677000D03*
D20*
X144300000Y-129350000D03*
D21*
X138608100Y-137677000D03*
D20*
X137100000Y-135100000D03*
D21*
X131608100Y-142677000D03*
D20*
X142550000Y-137000000D03*
X144250000Y-131150000D03*
X144050000Y-123450000D03*
X145450000Y-124850000D03*
D21*
X141608100Y-133677000D03*
X138608100Y-144677000D03*
D20*
X135100000Y-134900000D03*
X150500000Y-133950000D03*
D21*
X168783000Y-113157000D03*
D20*
X142500000Y-137500000D03*
D21*
X150608100Y-142677000D03*
%TO.N,+5V_VFD*%
X164650000Y-114100000D03*
X161900000Y-106000000D03*
%TO.N,3V3*%
X163671084Y-107791084D03*
%TO.N,MCU_3V3_VFD*%
X144730901Y-118518405D03*
X154527993Y-115882999D03*
X147574000Y-112522000D03*
X143637000Y-111760000D03*
X138049000Y-113157000D03*
D20*
X149163070Y-128050000D03*
D21*
X146685001Y-108965999D03*
X138435375Y-116142855D03*
X142113000Y-111760000D03*
X154050000Y-121450000D03*
X138430000Y-117729000D03*
X150622000Y-108966000D03*
X155067000Y-115316000D03*
X148844000Y-109093000D03*
%TO.N,DCOUPL*%
X154178000Y-114427000D03*
%TO.N,MCU_VDDR*%
X145415000Y-121158000D03*
X145118119Y-119275086D03*
%TO.N,MEM_3V3_VFD*%
X158115000Y-124968000D03*
X159575000Y-116713000D03*
%TO.N,3V3_F*%
X146558000Y-105156000D03*
X154686000Y-110363000D03*
X154686000Y-111125000D03*
X154305000Y-100838000D03*
X136017000Y-105029000D03*
X152146000Y-106807000D03*
X152781000Y-101600000D03*
%TO.N,+12V*%
X172466000Y-142748000D03*
X128270000Y-142748000D03*
X127254000Y-97790000D03*
X168995000Y-134112000D03*
X171450000Y-96774000D03*
X128270000Y-140208000D03*
X125984000Y-96520000D03*
X169926000Y-140208000D03*
X166765000Y-131025000D03*
X127000000Y-140208000D03*
D22*
X164900000Y-131000000D03*
D21*
X167725000Y-135382000D03*
X168785000Y-131265000D03*
X128524000Y-97790000D03*
X172466000Y-141478000D03*
X169926000Y-142748000D03*
X167725000Y-134112000D03*
X170265000Y-134112000D03*
X127254000Y-95250000D03*
X127000000Y-142748000D03*
X170265000Y-135382000D03*
X171196000Y-140208000D03*
X171450000Y-98044000D03*
X125984000Y-97790000D03*
X170180000Y-95504000D03*
X125730000Y-141478000D03*
X125984000Y-95250000D03*
X128270000Y-141478000D03*
X171450000Y-95504000D03*
X172720000Y-98044000D03*
X171196000Y-141478000D03*
X167725000Y-136652000D03*
X170265000Y-136652000D03*
X168995000Y-136652000D03*
X128524000Y-95250000D03*
X171196000Y-142748000D03*
X127000000Y-141478000D03*
X170180000Y-98044000D03*
X168995000Y-135382000D03*
X128524000Y-96520000D03*
X170180000Y-96774000D03*
X125730000Y-142748000D03*
X127254000Y-96520000D03*
X125730000Y-140208000D03*
X172720000Y-96774000D03*
X172720000Y-95504000D03*
X172466000Y-140208000D03*
X169926000Y-141478000D03*
%TO.N,+12V_VFD*%
X160655000Y-129794000D03*
X161925000Y-131064000D03*
X161925000Y-129794000D03*
%TO.N,+5V*%
X166250000Y-116500000D03*
%TO.N,/MCU/UART3_TX*%
X140970000Y-117729000D03*
X143891000Y-117856000D03*
%TO.N,/MCU/UART3_RX*%
X140970000Y-116205000D03*
%TO.N,/MCU/UART4_RX*%
X142494000Y-114300000D03*
%TO.N,/MCU/UART4_TX*%
X144272000Y-114046000D03*
%TO.N,/MCU/UART2_TX*%
X147320000Y-110616000D03*
%TO.N,/MCU/UART2_RX*%
X148361182Y-110617000D03*
%TO.N,/MCU/UART1_RX*%
X152271425Y-110566575D03*
%TO.N,/MCU/UART1_TX*%
X150495000Y-110744000D03*
%TO.N,/MCU/I2C1_SDA*%
X141351000Y-114286062D03*
%TO.N,/MCU/I2C1_SCL*%
X139827000Y-114681000D03*
%TO.N,/MCU/I2C2_SCL*%
X155448000Y-117150252D03*
%TO.N,/MCU/I2C2_SDA*%
X155448000Y-116205000D03*
%TO.N,/MCU/RST_MEM*%
X157929636Y-116891353D03*
%TO.N,/MCU/WP_MEM*%
X156972000Y-121539000D03*
%TO.N,/MCU/PipeTemp*%
X141351000Y-106045000D03*
%TO.N,Net-(U201B-DCDC_SW)*%
X148322411Y-113284000D03*
%TO.N,Net-(U201A-DIO_5)*%
X152527000Y-122431716D03*
X156718000Y-126111000D03*
%TO.N,/MCU/AmbientTemp*%
X149800000Y-104600000D03*
%TO.N,/MCU/MISO*%
X157861000Y-121594801D03*
%TO.N,/MCU/SCLK*%
X157200923Y-116386579D03*
D22*
%TO.N,/MCU/SWO*%
X151612778Y-112729729D03*
%TO.N,/MCU/JTAG_TMS*%
X154686000Y-112776000D03*
%TO.N,/MCU/JTAG_TDI*%
X152317987Y-112700773D03*
%TO.N,/MCU/JTAG_TDO*%
X153075240Y-112750000D03*
D21*
%TO.N,/MCU/RESET*%
X147104000Y-113177455D03*
%TO.N,/MCU/CS_MEM*%
X158750000Y-121412000D03*
%TO.N,/MCU/MOSI*%
X156464000Y-116959472D03*
D22*
%TO.N,/MCU/JTAG_TCK*%
X153845380Y-112697380D03*
D20*
%TO.N,/MCU/RF_RX_TX*%
X150000000Y-122750000D03*
X147468474Y-128550000D03*
X143117062Y-127567062D03*
%TO.N,GND*%
X152000000Y-143900000D03*
X152500000Y-144100000D03*
X153100000Y-144200000D03*
X153700000Y-144100000D03*
X154200000Y-143900000D03*
X154600000Y-143500000D03*
X154900000Y-143000000D03*
X155000000Y-142400000D03*
X154900000Y-141800000D03*
X154600000Y-141300000D03*
X154300000Y-140900000D03*
X152100000Y-140800000D03*
X151700000Y-141200000D03*
X151400000Y-141700000D03*
X151300000Y-142200000D03*
X151300000Y-142700000D03*
X151400000Y-143200000D03*
X151600000Y-143600000D03*
X142200000Y-141000000D03*
X141900000Y-141400000D03*
X141700000Y-141900000D03*
X141700000Y-142400000D03*
X141800000Y-142900000D03*
X142000000Y-143300000D03*
X142300000Y-143700000D03*
X142700000Y-144000000D03*
X143200000Y-144200000D03*
X143700000Y-144200000D03*
X144200000Y-144100000D03*
X144700000Y-143800000D03*
X145100000Y-143400000D03*
X144300000Y-140600000D03*
X144700000Y-140900000D03*
X145100000Y-141300000D03*
X145300000Y-141700000D03*
X145400000Y-142200000D03*
X132500000Y-140800000D03*
X132200000Y-141200000D03*
X131900000Y-141700000D03*
X131800000Y-142200000D03*
X132000000Y-143100000D03*
X132200000Y-143500000D03*
X132500000Y-143800000D03*
X132900000Y-144000000D03*
X133400000Y-144200000D03*
X134000000Y-144200000D03*
X134500000Y-144000000D03*
X134900000Y-143700000D03*
X135200000Y-143300000D03*
X135400000Y-142800000D03*
X135500000Y-142300000D03*
X135400000Y-141800000D03*
X135200000Y-141300000D03*
X134800000Y-140900000D03*
%TD*%
D23*
%TO.N,MCU_3V3_VFD*%
X151576475Y-122223525D02*
X151650000Y-122150000D01*
X153339949Y-121450000D02*
X154050000Y-121450000D01*
X149163070Y-128050000D02*
G75*
G02*
X151576465Y-122223515I8239930J0D01*
G01*
X151650000Y-122150000D02*
G75*
G02*
X153339949Y-121450021I1689900J-1689900D01*
G01*
D24*
%TO.N,/MCU/UART3_TX*%
X168101959Y-122449726D02*
X167895741Y-122288165D01*
X170364866Y-123942745D02*
X170212488Y-123904575D01*
X166796782Y-121577635D02*
X166564820Y-121455892D01*
X169223251Y-123436691D02*
X169097080Y-123343114D01*
X170212488Y-123904575D02*
X170062167Y-123858975D01*
X164342840Y-120689134D02*
X164085162Y-120641913D01*
X165105678Y-120877157D02*
X164853331Y-120806810D01*
X166090397Y-121233695D02*
X165848370Y-121133444D01*
X147558590Y-119456318D02*
X147408134Y-119328887D01*
X167895741Y-122288165D02*
X167684738Y-122132906D01*
X169769137Y-123745938D02*
X169627134Y-123678774D01*
X148923874Y-120232079D02*
X148740193Y-120160405D01*
X146243908Y-118333760D02*
X146103894Y-118255774D01*
X150467071Y-120522506D02*
X150270071Y-120514356D01*
X144726390Y-117863852D02*
X144566293Y-117856452D01*
X168803390Y-123082761D02*
X168783000Y-123063000D01*
X166564820Y-121455892D02*
X166329287Y-121341210D01*
X145358258Y-117966918D02*
X145202246Y-117930226D01*
X167469142Y-121984091D02*
X167249149Y-121841855D01*
X148559631Y-120081203D02*
X148382497Y-119994606D01*
X173525400Y-124020000D02*
X171066085Y-124020000D01*
X168690040Y-122970720D02*
X168499289Y-122791160D01*
X145813814Y-118119602D02*
X145664368Y-118061707D01*
X168303203Y-122617442D02*
X168101959Y-122449726D01*
X150270071Y-120514356D02*
X150073575Y-120498072D01*
X163566117Y-120570919D02*
X163305223Y-120547212D01*
X163043732Y-120531394D02*
X162781882Y-120523482D01*
X169353862Y-123523964D02*
X169223251Y-123436691D01*
X164853331Y-120806810D02*
X164598974Y-120744117D01*
X149683440Y-120441228D02*
X149490468Y-120400765D01*
X164085162Y-120641913D02*
X163826176Y-120602496D01*
X147874650Y-119691993D02*
X147714184Y-119577422D01*
X163305223Y-120547212D02*
X163043732Y-120531394D01*
X168859261Y-123137966D02*
X168803390Y-123082761D01*
X170830646Y-124011840D02*
X170674317Y-123996442D01*
X146763589Y-118707673D02*
X146640289Y-118605286D01*
X169488598Y-123604724D02*
X169353862Y-123523964D01*
X165848370Y-121133444D02*
X165603424Y-121040548D01*
X170674317Y-123996442D02*
X170518932Y-123973392D01*
X145044707Y-117900778D02*
X144885975Y-117878638D01*
X146380171Y-118418130D02*
X146243908Y-118333760D01*
X147408134Y-119328887D02*
X147263071Y-119195348D01*
X147263071Y-119195348D02*
X147193000Y-119126000D01*
X171066085Y-124020000D02*
X170987542Y-124019548D01*
X147193000Y-119126000D02*
X146939000Y-118872000D01*
X150565656Y-120523000D02*
X150467071Y-120522506D01*
X145664368Y-118061707D02*
X145512408Y-118010776D01*
X149490468Y-120400765D02*
X149299332Y-120352361D01*
X167684738Y-122132906D02*
X167469142Y-121984091D01*
X162781882Y-120523482D02*
X162650898Y-120523000D01*
X165355785Y-120955093D02*
X165105678Y-120877157D01*
X148209092Y-119900763D02*
X148039713Y-119799835D01*
X146882029Y-118815645D02*
X146763589Y-118707673D01*
X166329287Y-121341210D02*
X166090397Y-121233695D01*
X146939000Y-118872000D02*
X146882029Y-118815645D01*
X144885975Y-117878638D02*
X144726390Y-117863852D01*
X148382497Y-119994606D02*
X148209092Y-119900763D01*
X148740193Y-120160405D02*
X148559631Y-120081203D01*
X145512408Y-118010776D02*
X145358258Y-117966918D01*
X149877920Y-120473682D02*
X149683440Y-120441228D01*
X170987542Y-124019548D02*
X170830646Y-124011840D01*
X145960427Y-118184337D02*
X145813814Y-118119602D01*
X169914265Y-123806053D02*
X169769137Y-123745938D01*
X167024961Y-121706328D02*
X166796782Y-121577635D01*
X170062167Y-123858975D02*
X169914265Y-123806053D01*
X165603424Y-121040548D02*
X165355785Y-120955093D01*
X164598974Y-120744117D02*
X164342840Y-120689134D01*
X169097080Y-123343114D02*
X168975653Y-123243459D01*
X149110360Y-120296101D02*
X148923874Y-120232079D01*
X146512392Y-118508703D02*
X146380171Y-118418130D01*
X168499289Y-122791160D02*
X168303203Y-122617442D01*
X167249149Y-121841855D02*
X167024961Y-121706328D01*
X170518932Y-123973392D02*
X170364866Y-123942745D01*
X150073575Y-120498072D02*
X149877920Y-120473682D01*
X168783000Y-123063000D02*
X168690040Y-122970720D01*
D25*
X140970000Y-117729000D02*
X141245790Y-118004790D01*
D24*
X146640289Y-118605286D02*
X146512392Y-118508703D01*
X149299332Y-120352361D02*
X149110360Y-120296101D01*
X144566293Y-117856452D02*
X144486159Y-117856000D01*
X163826176Y-120602496D02*
X163566117Y-120570919D01*
X145202246Y-117930226D02*
X145044707Y-117900778D01*
X169627134Y-123678774D02*
X169488598Y-123604724D01*
X162650898Y-120523000D02*
X150565656Y-120523000D01*
X168975653Y-123243459D02*
X168859261Y-123137966D01*
X148039713Y-119799835D02*
X147874650Y-119691993D01*
X146103894Y-118255774D02*
X145960427Y-118184337D01*
D25*
X142113000Y-118364000D02*
X142664580Y-118364000D01*
D24*
X144486159Y-117856000D02*
X143891000Y-117856000D01*
X147714184Y-119577422D02*
X147558590Y-119456318D01*
D25*
X141245790Y-118004790D02*
G75*
G03*
X142113000Y-118364006I867210J867190D01*
G01*
X142664580Y-118364000D02*
G75*
G03*
X143891006Y-117856006I20J1734400D01*
G01*
D24*
%TO.N,/MCU/UART3_RX*%
X144810815Y-117221000D02*
X145870395Y-117221000D01*
X143643207Y-116626344D02*
X143746325Y-116707131D01*
X172858836Y-121422275D02*
X173056033Y-121585411D01*
X172656612Y-121265414D02*
X172858836Y-121422275D01*
X172237885Y-120971128D02*
X172449560Y-121114982D01*
X143994297Y-116933422D02*
X144068661Y-116989089D01*
X149625340Y-119310343D02*
X149760035Y-119374048D01*
X171349199Y-120464231D02*
X171577234Y-120580421D01*
X143746325Y-116707131D02*
X143844376Y-116793997D01*
X148043654Y-117976948D02*
X148168048Y-118080246D01*
X173056033Y-121585411D02*
X173248009Y-121754660D01*
X150180570Y-119524515D02*
X150325106Y-119560718D01*
X150037985Y-119481263D02*
X150180570Y-119524515D01*
X142423471Y-116205449D02*
X142554227Y-116213357D01*
X169165764Y-119754793D02*
X169417161Y-119802749D01*
X169914817Y-119922225D02*
X170160584Y-119993627D01*
X147502497Y-117624325D02*
X147643754Y-117703006D01*
X142684267Y-116229145D02*
X142813117Y-116252757D01*
X171117626Y-120355262D02*
X171349199Y-120464231D01*
X167893051Y-119634488D02*
X168148854Y-119642526D01*
X147209842Y-117486941D02*
X147357757Y-117552252D01*
X147643754Y-117703006D02*
X147781227Y-117788127D01*
X171577234Y-120580421D02*
X171801507Y-120703716D01*
X173248009Y-121754660D02*
X173434574Y-121929856D01*
X148844000Y-118745000D02*
X148896981Y-118797378D01*
X167765086Y-119634000D02*
X167893051Y-119634488D01*
X146750240Y-117332896D02*
X146905759Y-117377145D01*
X170403988Y-120072713D02*
X170644788Y-120159406D01*
X150766915Y-119626250D02*
X150915736Y-119633559D01*
X146905759Y-117377145D02*
X147059069Y-117428530D01*
X142554227Y-116213357D02*
X142684267Y-116229145D01*
X147914622Y-117879506D02*
X148043654Y-117976948D01*
X150325106Y-119560718D02*
X150471243Y-119589785D01*
X150990236Y-119634000D02*
X163244050Y-119634000D01*
X170882745Y-120253620D02*
X171117626Y-120355262D01*
X170160584Y-119993627D02*
X170403988Y-120072713D01*
X163410050Y-119800000D02*
X163989950Y-119800000D01*
X146273763Y-117243826D02*
X146433904Y-117266165D01*
X147781227Y-117788127D02*
X147914622Y-117879506D01*
X148896981Y-118797378D02*
X149007384Y-118897440D01*
X140970000Y-116205000D02*
X142357974Y-116205000D01*
X148168048Y-118080246D02*
X148287539Y-118189178D01*
X148287539Y-118189178D02*
X148345025Y-118246026D01*
X150471243Y-119589785D02*
X150618631Y-119611647D01*
X147059069Y-117428530D02*
X147209842Y-117486941D01*
X143844376Y-116793997D02*
X143891000Y-116840000D01*
X144671714Y-117214012D02*
X144764369Y-117220638D01*
X143187852Y-116369526D02*
X143307307Y-116423287D01*
X149760035Y-119374048D02*
X149897694Y-119431068D01*
X172021797Y-120833994D02*
X172237885Y-120971128D01*
X146433904Y-117266165D02*
X146592843Y-117295876D01*
X144228336Y-117083828D02*
X144312834Y-117122416D01*
X147357757Y-117552252D02*
X147502497Y-117624325D01*
X150915736Y-119633559D02*
X150990236Y-119634000D01*
X149366131Y-119163504D02*
X149493933Y-119240105D01*
X145870395Y-117221000D02*
X145951241Y-117221440D01*
X149007384Y-118897440D02*
X149122563Y-118991965D01*
X143535400Y-116551931D02*
X143643207Y-116626344D01*
X149242241Y-119080724D02*
X149366131Y-119163504D01*
X144146807Y-117039310D02*
X144228336Y-117083828D01*
X169666927Y-119858578D02*
X169914817Y-119922225D01*
X148345025Y-118246026D02*
X148844000Y-118745000D01*
X144579767Y-117200793D02*
X144671714Y-117214012D01*
X142813117Y-116252757D02*
X142940306Y-116284105D01*
X168659073Y-119682681D02*
X168912985Y-119714757D01*
X172449560Y-121114982D02*
X172656612Y-121265414D01*
X144068661Y-116989089D02*
X144146807Y-117039310D01*
X168148854Y-119642526D02*
X168404279Y-119658596D01*
X168912985Y-119714757D02*
X169165764Y-119754793D01*
X150618631Y-119611647D02*
X150766915Y-119626250D01*
X171801507Y-120703716D02*
X172021797Y-120833994D01*
X143065369Y-116323075D02*
X143187852Y-116369526D01*
X163244050Y-119634000D02*
X163410050Y-119800000D01*
X145951241Y-117221440D02*
X146112760Y-117228907D01*
X146112760Y-117228907D02*
X146273763Y-117243826D01*
X170644788Y-120159406D02*
X170882745Y-120253620D01*
X173434574Y-121929856D02*
X173525400Y-122020000D01*
X144399869Y-117154878D02*
X144488998Y-117181048D01*
X149897694Y-119431068D02*
X150037985Y-119481263D01*
X143924094Y-116872590D02*
X143994297Y-116933422D01*
X168404279Y-119658596D02*
X168659073Y-119682681D01*
X143423297Y-116484163D02*
X143535400Y-116551931D01*
X142357974Y-116205000D02*
X142423471Y-116205449D01*
X149122563Y-118991965D02*
X149242241Y-119080724D01*
X142940306Y-116284105D02*
X143065369Y-116323075D01*
X143307307Y-116423287D02*
X143423297Y-116484163D01*
X149493933Y-119240105D02*
X149625340Y-119310343D01*
X143891000Y-116840000D02*
X143924094Y-116872590D01*
X169417161Y-119802749D02*
X169666927Y-119858578D01*
X144764369Y-117220638D02*
X144810815Y-117221000D01*
X163989950Y-119800000D02*
X164155950Y-119634000D01*
X144312834Y-117122416D02*
X144399869Y-117154878D01*
X164155950Y-119634000D02*
X167765086Y-119634000D01*
X146592843Y-117295876D02*
X146750240Y-117332896D01*
X144488998Y-117181048D02*
X144579767Y-117200793D01*
%TO.N,/MCU/UART4_RX*%
X154522011Y-118303146D02*
X154643394Y-118364993D01*
X151658740Y-116576855D02*
X151843041Y-116623526D01*
X163192498Y-118617552D02*
X163410050Y-118400000D01*
X145061577Y-116254655D02*
X145163400Y-116304868D01*
X152727092Y-116968482D02*
X152894297Y-117058968D01*
X145268289Y-116348314D02*
X145375795Y-116384806D01*
X145485458Y-116414189D02*
X145596807Y-116436337D01*
X159558056Y-118618000D02*
X159558504Y-118617552D01*
X172384109Y-117598051D02*
X172572516Y-117474475D01*
X172756594Y-117344539D02*
X172936128Y-117208394D01*
X173280734Y-116918119D02*
X173445404Y-116764328D01*
X154895029Y-118469222D02*
X155024592Y-118511319D01*
X152894297Y-117058968D02*
X153057619Y-117156286D01*
X144653000Y-115951000D02*
X144693432Y-115990847D01*
X154767846Y-118420402D02*
X154895029Y-118469222D01*
X150622000Y-116459000D02*
X150717059Y-116459475D01*
X145375795Y-116384806D02*
X145485458Y-116414189D01*
X145163400Y-116304868D02*
X145268289Y-116348314D01*
X155156181Y-118546577D02*
X155289434Y-118574899D01*
X142827047Y-114345522D02*
X142918672Y-114375294D01*
X170963079Y-118273864D02*
X171175387Y-118198410D01*
X168972466Y-118617082D02*
X169197652Y-118609389D01*
X143361210Y-114659210D02*
X144653000Y-115951000D01*
X168859807Y-118617552D02*
X168972466Y-118617082D01*
X150717059Y-116459475D02*
X150907015Y-116467331D01*
X169646581Y-118570971D02*
X169869799Y-118540290D01*
X150907015Y-116467331D02*
X151096484Y-116483031D01*
X144693432Y-115990847D02*
X144778789Y-116065703D01*
X154073695Y-117995029D02*
X154179566Y-118080762D01*
X169197652Y-118609389D02*
X169422444Y-118594013D01*
X155695516Y-118617576D02*
X155763631Y-118618000D01*
X171175387Y-118198410D02*
X171384995Y-118115751D01*
X154643394Y-118364993D02*
X154767846Y-118420402D01*
X151472668Y-116537840D02*
X151658740Y-116576855D01*
X142918672Y-114375294D02*
X143007679Y-114412162D01*
X153371508Y-117370744D02*
X153521538Y-117487517D01*
X143326861Y-114625436D02*
X143361210Y-114659210D01*
X151096484Y-116483031D02*
X151285143Y-116506547D01*
X172191594Y-117715122D02*
X172384109Y-117598051D01*
X153806490Y-117739153D02*
X153874039Y-117806038D01*
X169422444Y-118594013D02*
X169646581Y-118570971D01*
X153057619Y-117156286D02*
X153216780Y-117260271D01*
X145879420Y-116459000D02*
X150622000Y-116459000D01*
X170091841Y-118502006D02*
X170312446Y-118456163D01*
X145822655Y-116458579D02*
X145879420Y-116459000D01*
X171591659Y-118025984D02*
X171795137Y-117929214D01*
X145596807Y-116436337D02*
X145709367Y-116451155D01*
X173445404Y-116764328D02*
X173525400Y-116685000D01*
X163410050Y-118400000D02*
X163989950Y-118400000D01*
X151285143Y-116506547D02*
X151472668Y-116537840D01*
X154404032Y-118235031D02*
X154522011Y-118303146D01*
X153924000Y-117856000D02*
X153972456Y-117903873D01*
X170312446Y-118456163D02*
X170531357Y-118402816D01*
X172572516Y-117474475D02*
X172756594Y-117344539D01*
X159558504Y-118617552D02*
X163192498Y-118617552D01*
X152556292Y-116884983D02*
X152727092Y-116968482D01*
X152205073Y-116739504D02*
X152382186Y-116808614D01*
X170748319Y-118342026D02*
X170963079Y-118273864D01*
X142638214Y-114307960D02*
X142733368Y-114323032D01*
X152025256Y-116677773D02*
X152205073Y-116739504D01*
X142733368Y-114323032D02*
X142827047Y-114345522D01*
X154289779Y-118160835D02*
X154404032Y-118235031D01*
X143253603Y-114562867D02*
X143326861Y-114625436D01*
X163989950Y-118400000D02*
X164207502Y-118617552D01*
X153521538Y-117487517D02*
X153666615Y-117610390D01*
X153666615Y-117610390D02*
X153806490Y-117739153D01*
X171384995Y-118115751D02*
X171591659Y-118025984D01*
X155289434Y-118574899D02*
X155423988Y-118596209D01*
X153216780Y-117260271D02*
X153371508Y-117370744D01*
X151843041Y-116623526D02*
X152025256Y-116677773D01*
X145709367Y-116451155D02*
X145822655Y-116458579D01*
X143093519Y-114455900D02*
X143175663Y-114506239D01*
X143007679Y-114412162D02*
X143093519Y-114455900D01*
X144963256Y-116197890D02*
X145061577Y-116254655D01*
X155763631Y-118618000D02*
X159558056Y-118618000D01*
X143175663Y-114506239D02*
X143253603Y-114562867D01*
X155559472Y-118610448D02*
X155695516Y-118617576D01*
X142542170Y-114300401D02*
X142638214Y-114307960D01*
X172936128Y-117208394D02*
X173110909Y-117066198D01*
X164207502Y-118617552D02*
X168859807Y-118617552D01*
X173110909Y-117066198D02*
X173280734Y-116918119D01*
X171995193Y-117825553D02*
X172191594Y-117715122D01*
X155024592Y-118511319D02*
X155156181Y-118546577D01*
X169869799Y-118540290D02*
X170091841Y-118502006D01*
X144868859Y-116134816D02*
X144963256Y-116197890D01*
X144778789Y-116065703D02*
X144868859Y-116134816D01*
X155423988Y-118596209D02*
X155559472Y-118610448D01*
X171795137Y-117929214D02*
X171995193Y-117825553D01*
X153874039Y-117806038D02*
X153924000Y-117856000D01*
X152382186Y-116808614D02*
X152556292Y-116884983D01*
X154179566Y-118080762D02*
X154289779Y-118160835D01*
X142494000Y-114300000D02*
X142542170Y-114300401D01*
X170531357Y-118402816D02*
X170748319Y-118342026D01*
X153972456Y-117903873D02*
X154073695Y-117995029D01*
%TO.N,/MCU/UART4_TX*%
X145755708Y-115544828D02*
X145871698Y-115605703D01*
X160633908Y-117982512D02*
X160838089Y-117974488D01*
X152279256Y-116042773D02*
X152459073Y-116104504D01*
X166676649Y-114958160D02*
X166881813Y-114897918D01*
X166075873Y-115182240D02*
X166273422Y-115100412D01*
X145643605Y-115477060D02*
X145755708Y-115544828D01*
X153775538Y-116852517D02*
X153920615Y-116975390D01*
X153148297Y-116423968D02*
X153311619Y-116521286D01*
X160531739Y-117983000D02*
X160633908Y-117982512D01*
X153625508Y-116735744D02*
X153775538Y-116852517D01*
X161446541Y-117902469D02*
X161646953Y-117862604D01*
X144323248Y-114216624D02*
X144347704Y-114248495D01*
X151350484Y-115848031D02*
X151539143Y-115871547D01*
X167932614Y-114708331D02*
X168145895Y-114693076D01*
X165318599Y-115578366D02*
X165502492Y-115469256D01*
X164463811Y-116218259D02*
X164625409Y-116078232D01*
X145991152Y-115659464D02*
X146113634Y-115705915D01*
X161646953Y-117862604D02*
X161845645Y-117814901D01*
X167297936Y-114799585D02*
X167508364Y-114761619D01*
X144361803Y-114262802D02*
X145288000Y-115189000D01*
X146113634Y-115705915D02*
X146238697Y-115744885D01*
X162042311Y-117759434D02*
X162236648Y-117696289D01*
X162236648Y-117696289D02*
X162428356Y-117625564D01*
X154896336Y-117845828D02*
X154980834Y-117884416D01*
X146755529Y-115823540D02*
X146821026Y-115824000D01*
X168359585Y-114685444D02*
X168466498Y-114685000D01*
X165690162Y-115366780D02*
X165881370Y-115271067D01*
X154814807Y-117801310D02*
X154896336Y-117845828D01*
X154662297Y-117695422D02*
X154736661Y-117751089D01*
X164307313Y-116363965D02*
X164463811Y-116218259D01*
X155156998Y-117943048D02*
X155247767Y-117962793D01*
X146365885Y-115776233D02*
X146494734Y-115799844D01*
X153311619Y-116521286D02*
X153470780Y-116625271D01*
X144347704Y-114248495D02*
X144361803Y-114262802D01*
X144287788Y-114144719D02*
X144303161Y-114181834D01*
X164963077Y-115815920D02*
X165138718Y-115693970D01*
X145871698Y-115605703D02*
X145991152Y-115659464D01*
X152459073Y-116104504D02*
X152636186Y-116173614D01*
X165881370Y-115271067D02*
X166075873Y-115182240D01*
X167508364Y-114761619D02*
X167720014Y-114731188D01*
X145288000Y-115189000D02*
X145334632Y-115234995D01*
X162617140Y-117547366D02*
X162802708Y-117461817D01*
X154592094Y-117634590D02*
X154662297Y-117695422D01*
X144277390Y-114105915D02*
X144287788Y-114144719D01*
X153470780Y-116625271D02*
X153625508Y-116735744D01*
X144303161Y-114181834D02*
X144323248Y-114216624D01*
X155067869Y-117916878D02*
X155156998Y-117943048D01*
X160838089Y-117974488D02*
X161041797Y-117958455D01*
X155339714Y-117976012D02*
X155432369Y-117982638D01*
X152636186Y-116173614D02*
X152810292Y-116249983D01*
X168466498Y-114685000D02*
X173525400Y-114685000D01*
X155247767Y-117962793D02*
X155339714Y-117976012D01*
X167088997Y-114845037D02*
X167297936Y-114799585D01*
X152810292Y-116249983D02*
X152981092Y-116333482D01*
X164138400Y-116530889D02*
X164211000Y-116459000D01*
X168145895Y-114693076D02*
X168359585Y-114685444D01*
X166273422Y-115100412D02*
X166473766Y-115025687D01*
X163337286Y-117162438D02*
X163507187Y-117048913D01*
X164625409Y-116078232D02*
X164791902Y-115944062D01*
X150971059Y-115824475D02*
X151161015Y-115832331D01*
X163672500Y-116928806D02*
X163832970Y-116802301D01*
X144272000Y-114046000D02*
X144272147Y-114066086D01*
X166473766Y-115025687D02*
X166676649Y-114958160D01*
X153920615Y-116975390D02*
X154060490Y-117104153D01*
X161041797Y-117958455D02*
X161244719Y-117934436D01*
X161845645Y-117814901D02*
X162042311Y-117759434D01*
X163988350Y-116669594D02*
X164138400Y-116530889D01*
X162802708Y-117461817D02*
X162984775Y-117369049D01*
X151726668Y-115902840D02*
X151912740Y-115941855D01*
X166881813Y-114897918D02*
X167088997Y-114845037D01*
X165138718Y-115693970D02*
X165318599Y-115578366D01*
X144272147Y-114066086D02*
X144277390Y-114105915D01*
X164211000Y-116459000D02*
X164231390Y-116439239D01*
X165502492Y-115469256D02*
X165690162Y-115366780D01*
X161244719Y-117934436D02*
X161446541Y-117902469D01*
X154128039Y-117171038D02*
X154559000Y-117602000D01*
X162984775Y-117369049D02*
X163163059Y-117269205D01*
X146821026Y-115824000D02*
X150876000Y-115824000D01*
X164231390Y-116439239D02*
X164307313Y-116363965D01*
X151539143Y-115871547D02*
X151726668Y-115902840D01*
X163507187Y-117048913D02*
X163672500Y-116928806D01*
X145334632Y-115234995D02*
X145432682Y-115321861D01*
X145432682Y-115321861D02*
X145535799Y-115402647D01*
X150876000Y-115824000D02*
X150971059Y-115824475D01*
X146238697Y-115744885D02*
X146365885Y-115776233D01*
X146494734Y-115799844D02*
X146624773Y-115815633D01*
X146624773Y-115815633D02*
X146755529Y-115823540D01*
X155432369Y-117982638D02*
X155478815Y-117983000D01*
X154060490Y-117104153D02*
X154128039Y-117171038D01*
X151161015Y-115832331D02*
X151350484Y-115848031D01*
X162428356Y-117625564D02*
X162617140Y-117547366D01*
X167720014Y-114731188D02*
X167932614Y-114708331D01*
X163163059Y-117269205D02*
X163337286Y-117162438D01*
X151912740Y-115941855D02*
X152097041Y-115988526D01*
X154559000Y-117602000D02*
X154592094Y-117634590D01*
X152097041Y-115988526D02*
X152279256Y-116042773D01*
X155478815Y-117983000D02*
X160531739Y-117983000D01*
X152981092Y-116333482D02*
X153148297Y-116423968D01*
X145535799Y-115402647D02*
X145643605Y-115477060D01*
X164791902Y-115944062D02*
X164963077Y-115815920D01*
X163832970Y-116802301D02*
X163988350Y-116669594D01*
X154736661Y-117751089D02*
X154814807Y-117801310D01*
X154980834Y-117884416D02*
X155067869Y-117916878D01*
%TO.N,/MCU/I2C1_SDA*%
X136271000Y-128143000D02*
X136308197Y-128105803D01*
X137668000Y-124822948D02*
X137668000Y-117707210D01*
X138811000Y-116840000D02*
X138835095Y-116839552D01*
X136022576Y-128391423D02*
X136271000Y-128143000D01*
X137353085Y-110288147D02*
X141351000Y-114286062D01*
X138535210Y-116840000D02*
X138811000Y-116840000D01*
X139445134Y-116586865D02*
X139954000Y-116078000D01*
X139954000Y-116078000D02*
X141071736Y-114960264D01*
X137668000Y-117707210D02*
G75*
G02*
X137921997Y-117093997I867200J10D01*
G01*
X137922000Y-117094000D02*
G75*
G02*
X138535210Y-116840004I613200J-613200D01*
G01*
X131182000Y-107732000D02*
G75*
G02*
X137353078Y-110288154I0J-8727200D01*
G01*
X141071736Y-114960264D02*
G75*
G03*
X141350963Y-114286062I-674236J674164D01*
G01*
X131200000Y-130389000D02*
G75*
G03*
X136022565Y-128391412I0J6820100D01*
G01*
X138835095Y-116839552D02*
G75*
G03*
X139445142Y-116586873I5J862752D01*
G01*
X136308197Y-128105803D02*
G75*
G03*
X137668022Y-124822948I-3282897J3282903D01*
G01*
%TO.N,/MCU/I2C1_SCL*%
X135803816Y-117434184D02*
X136816197Y-116421803D01*
X134219872Y-126638128D02*
X134493000Y-126365000D01*
X135763000Y-117475000D02*
X135787095Y-117474552D01*
X135763000Y-123298949D02*
X135763000Y-117475000D01*
X139730816Y-114777185D02*
X139827000Y-114681000D01*
X135763000Y-117475000D02*
X131296552Y-113008552D01*
X136816197Y-116421803D02*
X137562790Y-115675210D01*
X137562790Y-115675210D02*
G75*
G02*
X138430000Y-115315994I867210J-867190D01*
G01*
X134493000Y-126365000D02*
G75*
G03*
X135763020Y-123298949I-3066100J3066100D01*
G01*
X135787095Y-117474552D02*
G75*
G02*
X135803837Y-117434205I57105J-48D01*
G01*
X138430000Y-115316000D02*
G75*
G03*
X139730809Y-114777178I0J1839600D01*
G01*
X131296552Y-113008552D02*
G75*
G02*
X131181999Y-112732000I276548J276552D01*
G01*
X131200000Y-127889000D02*
G75*
G03*
X134219863Y-126638119I0J4270700D01*
G01*
D25*
%TO.N,/MCU/I2C2_SCL*%
X155448000Y-117150252D02*
X155448522Y-117132440D01*
X161197371Y-109791561D02*
X161385889Y-109410816D01*
X159434277Y-112693570D02*
X159678706Y-112346065D01*
X160588553Y-110911159D02*
X160798630Y-110541870D01*
X163594484Y-99972699D02*
X163595000Y-99760269D01*
X157832161Y-114674604D02*
X158114831Y-114357424D01*
X161001593Y-110168625D02*
X161197371Y-109791561D01*
X163423795Y-102514772D02*
X163472519Y-102092715D01*
X155487776Y-117054224D02*
X157099000Y-115443000D01*
X163059504Y-104606813D02*
X163148367Y-104191350D01*
X161385889Y-109410816D02*
X161567080Y-109026530D01*
X163570074Y-100822030D02*
X163586346Y-100397481D01*
X163302142Y-103355700D02*
X163366996Y-102935819D01*
X162857986Y-105432252D02*
X162962698Y-105020498D01*
X161907216Y-108247898D02*
X162066036Y-107853839D01*
X159916435Y-111993941D02*
X160147375Y-111637327D01*
X162360888Y-107056958D02*
X162496812Y-106654427D01*
X163513150Y-101669802D02*
X163545672Y-101246189D01*
X157248855Y-115292433D02*
X157543467Y-114986312D01*
X162745407Y-105841925D02*
X162857986Y-105432252D01*
X157543467Y-114986312D02*
X157832161Y-114674604D01*
X161567080Y-109026530D02*
X161740877Y-108638843D01*
X162066036Y-107853839D02*
X162217278Y-107456811D01*
X162625000Y-106249367D02*
X162745407Y-105841925D01*
X158391374Y-114034886D02*
X158661688Y-113707111D01*
X161740877Y-108638843D02*
X161907216Y-108247898D01*
X163595000Y-99760269D02*
X163595000Y-98825000D01*
X162217278Y-107456811D02*
X162360888Y-107056958D01*
X163586346Y-100397481D02*
X163594484Y-99972699D01*
X160798630Y-110541870D02*
X161001593Y-110168625D01*
X163545672Y-101246189D02*
X163570074Y-100822030D01*
X163229257Y-103774262D02*
X163302142Y-103355700D01*
X157099000Y-115443000D02*
X157248855Y-115292433D01*
X159183235Y-113036330D02*
X159434277Y-112693570D01*
X158925674Y-113374218D02*
X159183235Y-113036330D01*
X158661688Y-113707111D02*
X158925674Y-113374218D01*
X162496812Y-106654427D02*
X162625000Y-106249367D01*
X163148367Y-104191350D02*
X163229257Y-103774262D01*
X160371442Y-111276356D02*
X160588553Y-110911159D01*
X163366996Y-102935819D02*
X163423795Y-102514772D01*
X159678706Y-112346065D02*
X159916435Y-111993941D01*
X163472519Y-102092715D02*
X163513150Y-101669802D01*
X158114831Y-114357424D02*
X158391374Y-114034886D01*
X160147375Y-111637327D02*
X160371442Y-111276356D01*
X162962698Y-105020498D02*
X163059504Y-104606813D01*
X155448522Y-117132440D02*
G75*
G02*
X155487771Y-117054219I129378J-15960D01*
G01*
%TO.N,/MCU/I2C2_SDA*%
X156591000Y-115062000D02*
X155448000Y-116205000D01*
X161595000Y-98825000D02*
X161595000Y-102981275D01*
X161595000Y-102981275D02*
G75*
G02*
X156591001Y-115062001I-17084720J-5D01*
G01*
D26*
%TO.N,Net-(U201A-DIO_5)*%
X155675000Y-125658884D02*
X156127116Y-126111000D01*
X152862476Y-122477600D02*
X152954769Y-122507588D01*
X152527000Y-122431716D02*
X152575522Y-122432150D01*
X156127116Y-126111000D02*
X156718000Y-126111000D01*
X153130891Y-122588782D02*
X153213634Y-122639487D01*
X152672266Y-122439764D02*
X152768114Y-122454945D01*
X153400554Y-122793554D02*
X155675000Y-125068000D01*
X155675000Y-125068000D02*
X155675000Y-125658884D01*
X153365935Y-122759553D02*
X153400554Y-122793554D01*
X152954769Y-122507588D02*
X153044425Y-122544725D01*
X152575522Y-122432150D02*
X152672266Y-122439764D01*
X153292144Y-122696528D02*
X153365935Y-122759553D01*
X153044425Y-122544725D02*
X153130891Y-122588782D01*
X152768114Y-122454945D02*
X152862476Y-122477600D01*
X153213634Y-122639487D02*
X153292144Y-122696528D01*
D24*
%TO.N,/MCU/SWO*%
X139780000Y-101045000D02*
X139780000Y-94408000D01*
X139780000Y-94408000D02*
X140716000Y-93472000D01*
X151612778Y-112729729D02*
X151464729Y-112729729D01*
X151464729Y-112729729D02*
X139780000Y-101045000D01*
%TO.N,/MCU/JTAG_TMS*%
X155448000Y-112014000D02*
X155448000Y-109093000D01*
X154686000Y-112776000D02*
X155448000Y-112014000D01*
X149940000Y-103585000D02*
X149940000Y-94408000D01*
X149940000Y-94408000D02*
X150876000Y-93472000D01*
X155448000Y-109093000D02*
X149940000Y-103585000D01*
%TO.N,/MCU/JTAG_TDI*%
X145858000Y-105143100D02*
X142320000Y-101605100D01*
X146570900Y-105856000D02*
X146268050Y-105856000D01*
X146268050Y-105856000D02*
X145858000Y-105445950D01*
X142320000Y-94408000D02*
X143256000Y-93472000D01*
X152317987Y-112700773D02*
X152317987Y-111603087D01*
X145858000Y-105445950D02*
X145858000Y-105143100D01*
X142320000Y-101605100D02*
X142320000Y-94408000D01*
X152317987Y-111603087D02*
X146570900Y-105856000D01*
%TO.N,/MCU/JTAG_TDO*%
X144860000Y-102188000D02*
X144860000Y-94535000D01*
X153075240Y-110403240D02*
X144860000Y-102188000D01*
X144860000Y-94535000D02*
X145923000Y-93472000D01*
X153075240Y-112750000D02*
X153075240Y-110403240D01*
%TO.N,/MCU/RESET*%
X137500000Y-94148000D02*
X137500000Y-103573455D01*
X137500000Y-103573455D02*
X147104000Y-113177455D01*
X138049000Y-93599000D02*
X137500000Y-94148000D01*
%TO.N,/MCU/JTAG_TCK*%
X153845380Y-109649380D02*
X147400000Y-103204000D01*
X147400000Y-103204000D02*
X147400000Y-94408000D01*
X147400000Y-94408000D02*
X148336000Y-93472000D01*
X153845380Y-112697380D02*
X153845380Y-109649380D01*
D23*
%TO.N,/MCU/RF_RX_TX*%
X143117062Y-127567062D02*
X143335461Y-127348663D01*
X146526943Y-126276943D02*
X146350000Y-126100000D01*
X146350000Y-126100000D02*
X149487868Y-122962132D01*
X143335461Y-127348663D02*
G75*
G02*
X146350000Y-126099999I3014539J-3014537D01*
G01*
X149487868Y-122962132D02*
G75*
G02*
X150000000Y-122750011I512132J-512168D01*
G01*
X147468474Y-128550000D02*
G75*
G03*
X146526940Y-126276946I-3214574J0D01*
G01*
%TD*%
M02*
