M48
; DRILL file {KiCad 9.0.8-9.0.8~ubuntu22.04.1} date 2026-04-26T22:17:10+0300
; FORMAT={-:-/ absolute / metric / decimal}
; #@! TF.CreationDate,2026-04-26T22:17:10+03:00
; #@! TF.GenerationSoftware,Kicad,Pcbnew,9.0.8-9.0.8~ubuntu22.04.1
; #@! TF.FileFunction,Plated,1,6,PTH
FMAT,2
METRIC
; #@! TA.AperFunction,Plated,PTH,ViaDrill
T1C0.200
; #@! TA.AperFunction,Plated,PTH,ComponentDrill
T2C0.200
; #@! TA.AperFunction,Plated,PTH,ViaDrill
T3C0.300
; #@! TA.AperFunction,Plated,PTH,ComponentDrill
T4C1.000
; #@! TA.AperFunction,Plated,PTH,ComponentDrill
T5C1.100
; #@! TA.AperFunction,Plated,PTH,ComponentDrill
T6C1.300
; #@! TA.AperFunction,Plated,PTH,ComponentDrill
T7C1.500
; #@! TA.AperFunction,Plated,PTH,ComponentDrill
T8C1.600
%
G90
G05
T1
X131.8Y-142.2
X131.9Y-141.7
X132.0Y-143.1
X132.2Y-141.2
X132.2Y-143.5
X132.5Y-140.8
X132.5Y-143.8
X132.9Y-144.0
X133.0Y-140.45
X133.05Y-139.9
X133.1Y-139.35
X133.25Y-138.75
X133.4Y-144.2
X133.45Y-138.2
X133.6Y-137.7
X133.8Y-137.2
X134.0Y-136.7
X134.0Y-144.2
X134.25Y-136.25
X134.4Y-140.5
X134.45Y-139.95
X134.5Y-144.0
X134.55Y-135.8
X134.55Y-139.4
X134.7Y-138.85
X134.8Y-135.35
X134.8Y-140.9
X134.85Y-138.3
X134.9Y-143.7
X135.05Y-137.8
X135.1Y-134.9
X135.2Y-141.3
X135.2Y-143.3
X135.3Y-137.25
X135.4Y-141.8
X135.4Y-142.8
X135.45Y-134.5
X135.5Y-142.3
X135.55Y-136.75
X135.6Y-134.0
X135.823Y-136.272
X135.9Y-133.6
X136.15Y-133.2
X136.15Y-135.8
X136.45Y-132.8
X136.55Y-135.35
X136.825Y-132.224
X137.1Y-135.1
X137.25Y-131.7
X137.4Y-134.7
X137.55Y-131.3
X137.75Y-134.25
X137.8Y-130.85
X138.0Y-133.8
X138.1Y-130.45
X138.3Y-133.35
X138.431Y-129.93
X138.6Y-132.95
X138.9Y-129.25
X138.95Y-132.55
X139.2Y-132.1
X139.25Y-128.85
X139.4Y-127.8
X139.45Y-128.35
X139.55Y-131.7
X139.65Y-127.3
X139.8Y-131.2
X140.0Y-126.85
X140.1Y-130.75
X140.3Y-126.4
X140.5Y-130.3
X140.733Y-125.849
X140.8Y-129.8
X141.2Y-125.15
X141.25Y-129.45
X141.55Y-124.7
X141.7Y-141.9
X141.7Y-142.4
X141.8Y-142.9
X141.9Y-141.4
X142.0Y-143.3
X142.027Y-129.107
X142.05Y-124.5
X142.2Y-141.0
X142.3Y-138.0
X142.3Y-138.5
X142.3Y-143.7
X142.45Y-124.2
X142.5Y-137.5
X142.5Y-138.95
X142.5Y-139.45
X142.5Y-140.0
X142.5Y-140.5
X142.55Y-137.0
X142.7Y-129.25
X142.7Y-144.0
X142.75Y-136.5
X142.85Y-123.8
X142.85Y-136.0
X143.0Y-135.5
X143.1Y-135.05
X143.117Y-127.567
X143.2Y-144.2
X143.25Y-128.95
X143.25Y-134.55
X143.4Y-123.55
X143.4Y-134.0
X143.55Y-128.5
X143.6Y-126.4
X143.6Y-133.55
X143.7Y-144.2
X143.75Y-133.05
X143.8Y-125.9
X143.8Y-132.55
X143.8Y-139.95
X143.8Y-140.45
X143.85Y-138.9
X143.85Y-139.45
X143.9Y-125.45
X143.9Y-128.05
X144.0Y-132.1
X144.05Y-123.45
X144.05Y-131.6
X144.05Y-138.4
X144.1Y-127.4
X144.15Y-129.8
X144.15Y-137.85
X144.2Y-130.2
X144.2Y-144.1
X144.25Y-131.15
X144.3Y-129.35
X144.3Y-140.6
X144.326Y-130.652
X144.4Y-128.85
X144.45Y-125.35
X144.55Y-128.35
X144.65Y-137.55
X144.673Y-127.752
X144.7Y-140.9
X144.7Y-143.8
X144.9Y-127.3
X144.95Y-125.15
X144.95Y-126.85
X145.0Y-125.8
X145.1Y-141.3
X145.1Y-143.4
X145.126Y-134.832
X145.25Y-122.45
X145.25Y-137.25
X145.3Y-141.7
X145.384Y-133.906
X145.4Y-125.35
X145.4Y-142.2
X145.45Y-124.85
X145.45Y-136.7
X145.5Y-133.25
X145.6Y-132.75
X145.65Y-135.15
X145.7Y-136.2
X145.75Y-132.3
X145.8Y-135.65
X145.85Y-131.85
X145.95Y-131.4
X146.15Y-131.0
X146.65Y-130.8
X146.95Y-130.431
X147.468Y-128.55
X147.55Y-130.4
X147.75Y-127.35
X147.8Y-126.85
X147.95Y-126.35
X147.95Y-130.05
X148.05Y-127.75
X148.1Y-125.85
X148.1Y-129.55
X148.3Y-125.35
X148.3Y-128.8
X148.35Y-128.25
X148.4Y-124.9
X148.45Y-127.35
X148.571Y-129.221
X148.65Y-125.85
X148.75Y-126.9
X148.8Y-126.4
X148.8Y-129.7
X148.81Y-130.192
X149.1Y-130.65
X149.163Y-128.05
X149.4Y-132.45
X149.5Y-132.95
X149.6Y-131.95
X149.65Y-130.9
X149.85Y-133.4
X150.0Y-122.75
X150.0Y-123.45
X150.104Y-131.621
X150.15Y-130.85
X150.35Y-133.5
X150.5Y-130.5
X150.5Y-133.95
X150.95Y-123.75
X150.95Y-134.25
X151.2Y-124.4
X151.3Y-142.2
X151.3Y-142.7
X151.35Y-125.2
X151.4Y-141.7
X151.4Y-143.2
X151.45Y-134.15
X151.5Y-125.65
X151.6Y-143.6
X151.65Y-126.2
X151.65Y-134.6
X151.7Y-135.1
X151.7Y-141.2
X151.75Y-126.7
X151.819Y-136.012
X151.85Y-135.5
X152.0Y-143.9
X152.021Y-127.261
X152.05Y-136.45
X152.1Y-140.8
X152.15Y-127.95
X152.15Y-136.9
X152.25Y-128.5
X152.263Y-130.095
X152.3Y-137.3
X152.35Y-137.75
X152.4Y-129.0
X152.5Y-129.55
X152.5Y-144.1
X152.55Y-138.2
X152.55Y-140.6
X152.6Y-138.65
X152.6Y-139.15
X152.6Y-139.65
X152.6Y-140.1
X152.7Y-130.4
X152.9Y-130.85
X152.95Y-132.85
X153.0Y-131.4
X153.05Y-133.35
X153.1Y-144.2
X153.2Y-131.9
X153.2Y-132.4
X153.25Y-133.85
X153.35Y-134.35
X153.5Y-134.8
X153.6Y-135.3
X153.7Y-135.8
X153.7Y-144.1
X153.85Y-136.3
X153.9Y-138.65
X153.9Y-139.15
X153.9Y-139.65
X153.9Y-140.15
X153.9Y-140.65
X153.95Y-136.75
X153.95Y-138.2
X154.1Y-137.25
X154.2Y-137.75
X154.2Y-143.9
X154.3Y-140.9
X154.6Y-128.1
X154.6Y-141.3
X154.6Y-143.5
X154.9Y-141.8
X154.9Y-143.0
X155.0Y-142.4
X155.9Y-127.2
T2
X165.675Y-123.925
X165.675Y-124.575
X165.675Y-125.875
X165.675Y-126.525
X166.463Y-123.925
X166.463Y-124.575
X166.463Y-125.875
X166.463Y-126.525
X167.25Y-123.925
X167.25Y-124.575
X167.25Y-125.875
X167.25Y-126.525
T3
X125.73Y-140.208
X125.73Y-141.478
X125.73Y-142.748
X125.984Y-95.25
X125.984Y-96.52
X125.984Y-97.79
X127.0Y-140.208
X127.0Y-141.478
X127.0Y-142.748
X127.254Y-95.25
X127.254Y-96.52
X127.254Y-97.79
X128.27Y-140.208
X128.27Y-141.478
X128.27Y-142.748
X128.524Y-95.25
X128.524Y-96.52
X128.524Y-97.79
X129.0Y-125.0
X129.032Y-103.759
X130.048Y-101.346
X130.608Y-142.677
X131.608Y-136.677
X131.608Y-137.677
X131.608Y-142.677
X132.608Y-135.677
X133.608Y-144.677
X133.608Y-145.677
X135.255Y-101.854
X136.017Y-105.029
X136.608Y-142.677
X137.608Y-136.677
X137.608Y-137.677
X137.608Y-142.677
X138.049Y-113.157
X138.43Y-117.729
X138.435Y-116.143
X138.608Y-135.677
X138.608Y-136.677
X138.608Y-137.677
X138.608Y-138.677
X138.608Y-139.677
X138.608Y-140.677
X138.608Y-141.677
X138.608Y-142.677
X138.608Y-143.677
X138.608Y-144.677
X138.608Y-145.677
X138.684Y-98.806
X139.608Y-134.677
X139.608Y-135.677
X139.608Y-136.677
X139.608Y-137.677
X139.608Y-142.677
X139.827Y-114.681
X140.208Y-120.396
X140.608Y-133.677
X140.608Y-134.677
X140.608Y-135.677
X140.608Y-136.677
X140.608Y-137.677
X140.608Y-142.677
X140.97Y-116.205
X140.97Y-117.729
X141.351Y-106.045
X141.351Y-114.286
X141.478Y-98.933
X141.608Y-131.677
X141.608Y-132.677
X141.608Y-133.677
X141.608Y-134.677
X141.732Y-122.555
X142.113Y-111.76
X142.113Y-117.348
X142.494Y-114.3
X142.608Y-130.677
X143.51Y-120.269
X143.608Y-144.677
X143.608Y-145.677
X143.637Y-111.76
X143.891Y-117.856
X144.272Y-114.046
X144.526Y-122.682
X144.731Y-118.518
X144.894Y-105.169
X145.118Y-119.275
X145.415Y-121.158
X145.608Y-142.677
X146.558Y-105.156
X146.608Y-142.677
X146.685Y-108.966
X147.104Y-113.177
X147.193Y-118.2
X147.32Y-110.616
X147.574Y-112.522
X147.608Y-132.677
X147.608Y-133.677
X147.608Y-134.677
X147.608Y-135.677
X147.608Y-136.677
X147.608Y-137.677
X147.608Y-141.677
X147.608Y-142.677
X148.322Y-113.284
X148.361Y-110.617
X148.59Y-98.171
X148.608Y-134.677
X148.608Y-135.677
X148.608Y-136.677
X148.608Y-137.677
X148.608Y-141.677
X148.608Y-142.677
X148.844Y-109.093
X149.608Y-135.677
X149.608Y-136.677
X149.608Y-137.677
X149.608Y-142.677
X149.8Y-104.6
X150.241Y-117.475
X150.241Y-118.491
X150.495Y-110.744
X150.608Y-136.677
X150.608Y-137.677
X150.608Y-142.677
X150.622Y-108.966
X151.257Y-103.632
X151.257Y-117.475
X151.257Y-118.491
X151.613Y-112.73
X152.146Y-104.775
X152.146Y-106.807
X152.271Y-110.567
X152.318Y-112.701
X152.527Y-122.432
X152.781Y-101.6
X153.075Y-112.75
X153.416Y-100.584
X153.845Y-112.697
X154.05Y-121.45
X154.178Y-114.427
X154.305Y-100.838
X154.305Y-106.68
X154.528Y-115.883
X154.686Y-110.363
X154.686Y-111.125
X154.686Y-112.776
X155.067Y-115.316
X155.448Y-116.205
X155.448Y-117.15
X155.575Y-105.029
X155.575Y-106.045
X155.575Y-107.061
X155.608Y-135.677
X155.608Y-136.677
X155.608Y-137.677
X155.608Y-142.677
X156.083Y-121.285
X156.3Y-125.4
X156.464Y-116.959
X156.591Y-105.029
X156.591Y-106.045
X156.591Y-107.061
X156.591Y-108.204
X156.608Y-137.677
X156.608Y-142.677
X156.718Y-126.111
X156.972Y-121.539
X157.099Y-101.219
X157.201Y-116.387
X157.226Y-113.284
X157.607Y-105.029
X157.607Y-106.045
X157.607Y-107.061
X157.607Y-108.204
X157.607Y-128.016
X157.861Y-121.595
X157.93Y-116.891
X158.115Y-124.968
X158.75Y-121.412
X159.575Y-116.713
X159.792Y-121.898
X160.655Y-129.794
X161.798Y-128.016
X161.9Y-106.0
X161.925Y-129.794
X161.925Y-131.064
X162.306Y-111.633
X163.195Y-123.571
X163.195Y-124.271
X163.35Y-105.975
X163.671Y-107.791
X163.7Y-119.1
X164.084Y-124.968
X164.65Y-114.1
X164.719Y-124.968
X164.9Y-131.0
X165.1Y-122.809
X166.25Y-116.5
X166.765Y-131.025
X167.25Y-113.75
X167.725Y-134.112
X167.725Y-135.382
X167.725Y-136.652
X168.783Y-109.601
X168.783Y-110.49
X168.783Y-111.379
X168.783Y-112.268
X168.783Y-113.157
X168.785Y-131.265
X168.995Y-134.112
X168.995Y-135.382
X168.995Y-136.652
X169.799Y-109.601
X169.799Y-110.49
X169.799Y-111.379
X169.799Y-112.268
X169.799Y-113.157
X169.799Y-124.841
X169.926Y-140.208
X169.926Y-141.478
X169.926Y-142.748
X170.18Y-95.504
X170.18Y-96.774
X170.18Y-98.044
X170.265Y-134.112
X170.265Y-135.382
X170.265Y-136.652
X170.561Y-129.032
X170.688Y-131.318
X170.815Y-109.601
X170.815Y-110.49
X170.815Y-111.379
X170.815Y-112.268
X170.815Y-113.157
X170.942Y-121.92
X171.0Y-119.4
X171.196Y-140.208
X171.196Y-141.478
X171.196Y-142.748
X171.45Y-95.504
X171.45Y-96.774
X171.45Y-98.044
X172.466Y-140.208
X172.466Y-141.478
X172.466Y-142.748
X172.72Y-95.504
X172.72Y-96.774
X172.72Y-98.044
T4
X125.038Y-114.095
X125.038Y-116.095
X125.038Y-121.545
X125.038Y-123.545
X132.116Y-98.716
X134.116Y-98.716
X138.176Y-93.472
X140.716Y-93.472
X143.256Y-93.472
X145.796Y-93.472
X148.336Y-93.472
X150.876Y-93.472
X155.103Y-98.843
X157.103Y-98.843
X161.595Y-98.825
X163.595Y-98.825
X173.525Y-114.685
X173.525Y-116.685
X173.525Y-122.02
X173.525Y-124.02
T5
X131.182Y-105.232
X131.182Y-107.732
X131.182Y-110.232
X131.182Y-112.732
X131.2Y-122.889
X131.2Y-125.389
X131.2Y-127.889
X131.2Y-130.389
T6
X122.3Y-129.9
X122.3Y-134.9
X122.388Y-103.35
X122.388Y-108.35
X160.8Y-142.7
X165.8Y-142.7
X176.167Y-103.25
X176.167Y-108.25
X176.175Y-129.6
X176.175Y-134.6
T7
X133.66Y-142.34
X143.54Y-142.34
X153.137Y-142.353
T8
X131.12Y-139.8
X131.12Y-144.88
X136.2Y-139.8
X136.2Y-144.88
X141.0Y-139.8
X141.0Y-144.88
X146.08Y-139.8
X146.08Y-144.88
X150.597Y-139.813
X150.597Y-144.893
X155.677Y-139.813
X155.677Y-144.893
M30
