%TF.GenerationSoftware,KiCad,Pcbnew,9.0.8-9.0.8~ubuntu22.04.1*%
%TF.CreationDate,2026-04-26T22:17:13+03:00*%
%TF.ProjectId,Main Board - NDT,4d61696e-2042-46f6-9172-64202d204e44,rev?*%
%TF.SameCoordinates,Original*%
%TF.FileFunction,Paste,Bot*%
%TF.FilePolarity,Positive*%
%FSLAX46Y46*%
G04 Gerber Fmt 4.6, Leading zero omitted, Abs format (unit mm)*
G04 Created by KiCad (PCBNEW 9.0.8-9.0.8~ubuntu22.04.1) date 2026-04-26 22:17:13*
%MOMM*%
%LPD*%
G01*
G04 APERTURE LIST*
G04 Aperture macros list*
%AMRoundRect*
0 Rectangle with rounded corners*
0 $1 Rounding radius*
0 $2 $3 $4 $5 $6 $7 $8 $9 X,Y pos of 4 corners*
0 Add a 4 corners polygon primitive as box body*
4,1,4,$2,$3,$4,$5,$6,$7,$8,$9,$2,$3,0*
0 Add four circle primitives for the rounded corners*
1,1,$1+$1,$2,$3*
1,1,$1+$1,$4,$5*
1,1,$1+$1,$6,$7*
1,1,$1+$1,$8,$9*
0 Add four rect primitives between the rounded corners*
20,1,$1+$1,$2,$3,$4,$5,0*
20,1,$1+$1,$4,$5,$6,$7,0*
20,1,$1+$1,$6,$7,$8,$9,0*
20,1,$1+$1,$8,$9,$2,$3,0*%
G04 Aperture macros list end*
%ADD10C,0.010000*%
%ADD11RoundRect,0.050000X-0.075000X0.350000X-0.075000X-0.350000X0.075000X-0.350000X0.075000X0.350000X0*%
%ADD12RoundRect,0.049500X-0.225500X0.100500X-0.225500X-0.100500X0.225500X-0.100500X0.225500X0.100500X0*%
%ADD13RoundRect,0.250000X-0.250000X-0.475000X0.250000X-0.475000X0.250000X0.475000X-0.250000X0.475000X0*%
%ADD14RoundRect,0.200000X-0.200000X-0.275000X0.200000X-0.275000X0.200000X0.275000X-0.200000X0.275000X0*%
%ADD15RoundRect,0.200000X-0.275000X0.200000X-0.275000X-0.200000X0.275000X-0.200000X0.275000X0.200000X0*%
%ADD16RoundRect,0.250000X-0.475000X0.250000X-0.475000X-0.250000X0.475000X-0.250000X0.475000X0.250000X0*%
%ADD17RoundRect,0.375000X-0.625000X-0.375000X0.625000X-0.375000X0.625000X0.375000X-0.625000X0.375000X0*%
%ADD18RoundRect,1.400000X-1.400000X-2.000000X1.400000X-2.000000X1.400000X2.000000X-1.400000X2.000000X0*%
%ADD19RoundRect,0.200000X0.200000X0.275000X-0.200000X0.275000X-0.200000X-0.275000X0.200000X-0.275000X0*%
%ADD20RoundRect,0.250000X0.475000X-0.250000X0.475000X0.250000X-0.475000X0.250000X-0.475000X-0.250000X0*%
%ADD21RoundRect,0.225000X-0.225000X-0.250000X0.225000X-0.250000X0.225000X0.250000X-0.225000X0.250000X0*%
%ADD22R,2.200000X1.450000*%
%ADD23R,0.254800X0.807999*%
%ADD24R,1.701800X0.304800*%
%ADD25RoundRect,0.200000X0.275000X-0.200000X0.275000X0.200000X-0.275000X0.200000X-0.275000X-0.200000X0*%
%ADD26RoundRect,0.225000X-0.250000X0.225000X-0.250000X-0.225000X0.250000X-0.225000X0.250000X0.225000X0*%
%ADD27RoundRect,0.225000X0.250000X-0.225000X0.250000X0.225000X-0.250000X0.225000X-0.250000X-0.225000X0*%
%ADD28RoundRect,0.225000X0.225000X0.250000X-0.225000X0.250000X-0.225000X-0.250000X0.225000X-0.250000X0*%
%ADD29RoundRect,0.225000X0.017678X-0.335876X0.335876X-0.017678X-0.017678X0.335876X-0.335876X0.017678X0*%
%ADD30RoundRect,0.375000X0.375000X-0.625000X0.375000X0.625000X-0.375000X0.625000X-0.375000X-0.625000X0*%
%ADD31RoundRect,1.375000X2.025000X-1.375000X2.025000X1.375000X-2.025000X1.375000X-2.025000X-1.375000X0*%
%ADD32RoundRect,0.250000X0.250000X0.475000X-0.250000X0.475000X-0.250000X-0.475000X0.250000X-0.475000X0*%
%ADD33RoundRect,0.218750X0.381250X-0.218750X0.381250X0.218750X-0.381250X0.218750X-0.381250X-0.218750X0*%
%ADD34RoundRect,0.075000X-0.910000X-0.225000X0.910000X-0.225000X0.910000X0.225000X-0.910000X0.225000X0*%
G04 APERTURE END LIST*
D10*
%TO.C,PS501*%
X164983000Y-124851000D02*
X164985000Y-124851000D01*
X164988000Y-124852000D01*
X164990000Y-124852000D01*
X164993000Y-124853000D01*
X164995000Y-124854000D01*
X164998000Y-124855000D01*
X165000000Y-124857000D01*
X165002000Y-124858000D01*
X165004000Y-124860000D01*
X165006000Y-124861000D01*
X165008000Y-124863000D01*
X165010000Y-124865000D01*
X165012000Y-124867000D01*
X165014000Y-124869000D01*
X165015000Y-124871000D01*
X165017000Y-124873000D01*
X165018000Y-124875000D01*
X165020000Y-124877000D01*
X165021000Y-124880000D01*
X165022000Y-124882000D01*
X165023000Y-124885000D01*
X165023000Y-124887000D01*
X165024000Y-124890000D01*
X165024000Y-124892000D01*
X165025000Y-124895000D01*
X165025000Y-124897000D01*
X165025000Y-124900000D01*
X165025000Y-125050000D01*
X165025000Y-125053000D01*
X165025000Y-125055000D01*
X165024000Y-125058000D01*
X165024000Y-125060000D01*
X165023000Y-125063000D01*
X165023000Y-125065000D01*
X165022000Y-125068000D01*
X165021000Y-125070000D01*
X165020000Y-125073000D01*
X165018000Y-125075000D01*
X165017000Y-125077000D01*
X165015000Y-125079000D01*
X165014000Y-125081000D01*
X165012000Y-125083000D01*
X165010000Y-125085000D01*
X165008000Y-125087000D01*
X165006000Y-125089000D01*
X165004000Y-125090000D01*
X165002000Y-125092000D01*
X165000000Y-125093000D01*
X164998000Y-125095000D01*
X164995000Y-125096000D01*
X164993000Y-125097000D01*
X164990000Y-125098000D01*
X164988000Y-125098000D01*
X164985000Y-125099000D01*
X164983000Y-125099000D01*
X164980000Y-125100000D01*
X164978000Y-125100000D01*
X164975000Y-125100000D01*
X163750000Y-125100000D01*
X163747000Y-125100000D01*
X163745000Y-125100000D01*
X163742000Y-125099000D01*
X163740000Y-125099000D01*
X163737000Y-125098000D01*
X163735000Y-125098000D01*
X163732000Y-125097000D01*
X163730000Y-125096000D01*
X163727000Y-125095000D01*
X163725000Y-125093000D01*
X163723000Y-125092000D01*
X163721000Y-125090000D01*
X163719000Y-125089000D01*
X163717000Y-125087000D01*
X163715000Y-125085000D01*
X163713000Y-125083000D01*
X163711000Y-125081000D01*
X163710000Y-125079000D01*
X163708000Y-125077000D01*
X163707000Y-125075000D01*
X163705000Y-125073000D01*
X163704000Y-125070000D01*
X163703000Y-125068000D01*
X163702000Y-125065000D01*
X163702000Y-125063000D01*
X163701000Y-125060000D01*
X163701000Y-125058000D01*
X163700000Y-125055000D01*
X163700000Y-125053000D01*
X163700000Y-125050000D01*
X163700000Y-124900000D01*
X163700000Y-124897000D01*
X163700000Y-124895000D01*
X163701000Y-124892000D01*
X163701000Y-124890000D01*
X163702000Y-124887000D01*
X163702000Y-124885000D01*
X163703000Y-124882000D01*
X163704000Y-124880000D01*
X163705000Y-124877000D01*
X163707000Y-124875000D01*
X163708000Y-124873000D01*
X163710000Y-124871000D01*
X163711000Y-124869000D01*
X163713000Y-124867000D01*
X163715000Y-124865000D01*
X163717000Y-124863000D01*
X163719000Y-124861000D01*
X163721000Y-124860000D01*
X163723000Y-124858000D01*
X163725000Y-124857000D01*
X163727000Y-124855000D01*
X163730000Y-124854000D01*
X163732000Y-124853000D01*
X163735000Y-124852000D01*
X163737000Y-124852000D01*
X163740000Y-124851000D01*
X163742000Y-124851000D01*
X163745000Y-124850000D01*
X163747000Y-124850000D01*
X163750000Y-124850000D01*
X164975000Y-124850000D01*
X164978000Y-124850000D01*
X164980000Y-124850000D01*
X164983000Y-124851000D01*
G36*
X164983000Y-124851000D02*
G01*
X164985000Y-124851000D01*
X164988000Y-124852000D01*
X164990000Y-124852000D01*
X164993000Y-124853000D01*
X164995000Y-124854000D01*
X164998000Y-124855000D01*
X165000000Y-124857000D01*
X165002000Y-124858000D01*
X165004000Y-124860000D01*
X165006000Y-124861000D01*
X165008000Y-124863000D01*
X165010000Y-124865000D01*
X165012000Y-124867000D01*
X165014000Y-124869000D01*
X165015000Y-124871000D01*
X165017000Y-124873000D01*
X165018000Y-124875000D01*
X165020000Y-124877000D01*
X165021000Y-124880000D01*
X165022000Y-124882000D01*
X165023000Y-124885000D01*
X165023000Y-124887000D01*
X165024000Y-124890000D01*
X165024000Y-124892000D01*
X165025000Y-124895000D01*
X165025000Y-124897000D01*
X165025000Y-124900000D01*
X165025000Y-125050000D01*
X165025000Y-125053000D01*
X165025000Y-125055000D01*
X165024000Y-125058000D01*
X165024000Y-125060000D01*
X165023000Y-125063000D01*
X165023000Y-125065000D01*
X165022000Y-125068000D01*
X165021000Y-125070000D01*
X165020000Y-125073000D01*
X165018000Y-125075000D01*
X165017000Y-125077000D01*
X165015000Y-125079000D01*
X165014000Y-125081000D01*
X165012000Y-125083000D01*
X165010000Y-125085000D01*
X165008000Y-125087000D01*
X165006000Y-125089000D01*
X165004000Y-125090000D01*
X165002000Y-125092000D01*
X165000000Y-125093000D01*
X164998000Y-125095000D01*
X164995000Y-125096000D01*
X164993000Y-125097000D01*
X164990000Y-125098000D01*
X164988000Y-125098000D01*
X164985000Y-125099000D01*
X164983000Y-125099000D01*
X164980000Y-125100000D01*
X164978000Y-125100000D01*
X164975000Y-125100000D01*
X163750000Y-125100000D01*
X163747000Y-125100000D01*
X163745000Y-125100000D01*
X163742000Y-125099000D01*
X163740000Y-125099000D01*
X163737000Y-125098000D01*
X163735000Y-125098000D01*
X163732000Y-125097000D01*
X163730000Y-125096000D01*
X163727000Y-125095000D01*
X163725000Y-125093000D01*
X163723000Y-125092000D01*
X163721000Y-125090000D01*
X163719000Y-125089000D01*
X163717000Y-125087000D01*
X163715000Y-125085000D01*
X163713000Y-125083000D01*
X163711000Y-125081000D01*
X163710000Y-125079000D01*
X163708000Y-125077000D01*
X163707000Y-125075000D01*
X163705000Y-125073000D01*
X163704000Y-125070000D01*
X163703000Y-125068000D01*
X163702000Y-125065000D01*
X163702000Y-125063000D01*
X163701000Y-125060000D01*
X163701000Y-125058000D01*
X163700000Y-125055000D01*
X163700000Y-125053000D01*
X163700000Y-125050000D01*
X163700000Y-124900000D01*
X163700000Y-124897000D01*
X163700000Y-124895000D01*
X163701000Y-124892000D01*
X163701000Y-124890000D01*
X163702000Y-124887000D01*
X163702000Y-124885000D01*
X163703000Y-124882000D01*
X163704000Y-124880000D01*
X163705000Y-124877000D01*
X163707000Y-124875000D01*
X163708000Y-124873000D01*
X163710000Y-124871000D01*
X163711000Y-124869000D01*
X163713000Y-124867000D01*
X163715000Y-124865000D01*
X163717000Y-124863000D01*
X163719000Y-124861000D01*
X163721000Y-124860000D01*
X163723000Y-124858000D01*
X163725000Y-124857000D01*
X163727000Y-124855000D01*
X163730000Y-124854000D01*
X163732000Y-124853000D01*
X163735000Y-124852000D01*
X163737000Y-124852000D01*
X163740000Y-124851000D01*
X163742000Y-124851000D01*
X163745000Y-124850000D01*
X163747000Y-124850000D01*
X163750000Y-124850000D01*
X164975000Y-124850000D01*
X164978000Y-124850000D01*
X164980000Y-124850000D01*
X164983000Y-124851000D01*
G37*
X166098000Y-123376000D02*
X166100000Y-123376000D01*
X166103000Y-123377000D01*
X166105000Y-123377000D01*
X166108000Y-123378000D01*
X166110000Y-123379000D01*
X166113000Y-123380000D01*
X166115000Y-123382000D01*
X166117000Y-123383000D01*
X166119000Y-123385000D01*
X166121000Y-123386000D01*
X166123000Y-123388000D01*
X166125000Y-123390000D01*
X166127000Y-123392000D01*
X166129000Y-123394000D01*
X166130000Y-123396000D01*
X166132000Y-123398000D01*
X166133000Y-123400000D01*
X166135000Y-123402000D01*
X166136000Y-123405000D01*
X166137000Y-123407000D01*
X166138000Y-123410000D01*
X166138000Y-123412000D01*
X166139000Y-123415000D01*
X166139000Y-123417000D01*
X166140000Y-123420000D01*
X166140000Y-123422000D01*
X166140000Y-123425000D01*
X166140000Y-123775000D01*
X166140000Y-123778000D01*
X166140000Y-123780000D01*
X166139000Y-123783000D01*
X166139000Y-123785000D01*
X166138000Y-123788000D01*
X166138000Y-123790000D01*
X166137000Y-123793000D01*
X166136000Y-123795000D01*
X166135000Y-123798000D01*
X166133000Y-123800000D01*
X166132000Y-123802000D01*
X166130000Y-123804000D01*
X166129000Y-123806000D01*
X166127000Y-123808000D01*
X166125000Y-123810000D01*
X166123000Y-123812000D01*
X166121000Y-123814000D01*
X166119000Y-123815000D01*
X166117000Y-123817000D01*
X166115000Y-123818000D01*
X166113000Y-123820000D01*
X166110000Y-123821000D01*
X166108000Y-123822000D01*
X166105000Y-123823000D01*
X166103000Y-123823000D01*
X166100000Y-123824000D01*
X166098000Y-123824000D01*
X166095000Y-123825000D01*
X166093000Y-123825000D01*
X166090000Y-123825000D01*
X165940000Y-123825000D01*
X165937000Y-123825000D01*
X165935000Y-123825000D01*
X165932000Y-123824000D01*
X165930000Y-123824000D01*
X165927000Y-123823000D01*
X165925000Y-123823000D01*
X165922000Y-123822000D01*
X165920000Y-123821000D01*
X165917000Y-123820000D01*
X165915000Y-123818000D01*
X165913000Y-123817000D01*
X165911000Y-123815000D01*
X165909000Y-123814000D01*
X165907000Y-123812000D01*
X165905000Y-123810000D01*
X165903000Y-123808000D01*
X165901000Y-123806000D01*
X165900000Y-123804000D01*
X165898000Y-123802000D01*
X165897000Y-123800000D01*
X165895000Y-123798000D01*
X165894000Y-123795000D01*
X165893000Y-123793000D01*
X165892000Y-123790000D01*
X165892000Y-123788000D01*
X165891000Y-123785000D01*
X165891000Y-123783000D01*
X165890000Y-123780000D01*
X165890000Y-123778000D01*
X165890000Y-123775000D01*
X165890000Y-123425000D01*
X165890000Y-123422000D01*
X165890000Y-123420000D01*
X165891000Y-123417000D01*
X165891000Y-123415000D01*
X165892000Y-123412000D01*
X165892000Y-123410000D01*
X165893000Y-123407000D01*
X165894000Y-123405000D01*
X165895000Y-123402000D01*
X165897000Y-123400000D01*
X165898000Y-123398000D01*
X165900000Y-123396000D01*
X165901000Y-123394000D01*
X165903000Y-123392000D01*
X165905000Y-123390000D01*
X165907000Y-123388000D01*
X165909000Y-123386000D01*
X165911000Y-123385000D01*
X165913000Y-123383000D01*
X165915000Y-123382000D01*
X165917000Y-123380000D01*
X165920000Y-123379000D01*
X165922000Y-123378000D01*
X165925000Y-123377000D01*
X165927000Y-123377000D01*
X165930000Y-123376000D01*
X165932000Y-123376000D01*
X165935000Y-123375000D01*
X165937000Y-123375000D01*
X165940000Y-123375000D01*
X166090000Y-123375000D01*
X166093000Y-123375000D01*
X166095000Y-123375000D01*
X166098000Y-123376000D01*
G36*
X166098000Y-123376000D02*
G01*
X166100000Y-123376000D01*
X166103000Y-123377000D01*
X166105000Y-123377000D01*
X166108000Y-123378000D01*
X166110000Y-123379000D01*
X166113000Y-123380000D01*
X166115000Y-123382000D01*
X166117000Y-123383000D01*
X166119000Y-123385000D01*
X166121000Y-123386000D01*
X166123000Y-123388000D01*
X166125000Y-123390000D01*
X166127000Y-123392000D01*
X166129000Y-123394000D01*
X166130000Y-123396000D01*
X166132000Y-123398000D01*
X166133000Y-123400000D01*
X166135000Y-123402000D01*
X166136000Y-123405000D01*
X166137000Y-123407000D01*
X166138000Y-123410000D01*
X166138000Y-123412000D01*
X166139000Y-123415000D01*
X166139000Y-123417000D01*
X166140000Y-123420000D01*
X166140000Y-123422000D01*
X166140000Y-123425000D01*
X166140000Y-123775000D01*
X166140000Y-123778000D01*
X166140000Y-123780000D01*
X166139000Y-123783000D01*
X166139000Y-123785000D01*
X166138000Y-123788000D01*
X166138000Y-123790000D01*
X166137000Y-123793000D01*
X166136000Y-123795000D01*
X166135000Y-123798000D01*
X166133000Y-123800000D01*
X166132000Y-123802000D01*
X166130000Y-123804000D01*
X166129000Y-123806000D01*
X166127000Y-123808000D01*
X166125000Y-123810000D01*
X166123000Y-123812000D01*
X166121000Y-123814000D01*
X166119000Y-123815000D01*
X166117000Y-123817000D01*
X166115000Y-123818000D01*
X166113000Y-123820000D01*
X166110000Y-123821000D01*
X166108000Y-123822000D01*
X166105000Y-123823000D01*
X166103000Y-123823000D01*
X166100000Y-123824000D01*
X166098000Y-123824000D01*
X166095000Y-123825000D01*
X166093000Y-123825000D01*
X166090000Y-123825000D01*
X165940000Y-123825000D01*
X165937000Y-123825000D01*
X165935000Y-123825000D01*
X165932000Y-123824000D01*
X165930000Y-123824000D01*
X165927000Y-123823000D01*
X165925000Y-123823000D01*
X165922000Y-123822000D01*
X165920000Y-123821000D01*
X165917000Y-123820000D01*
X165915000Y-123818000D01*
X165913000Y-123817000D01*
X165911000Y-123815000D01*
X165909000Y-123814000D01*
X165907000Y-123812000D01*
X165905000Y-123810000D01*
X165903000Y-123808000D01*
X165901000Y-123806000D01*
X165900000Y-123804000D01*
X165898000Y-123802000D01*
X165897000Y-123800000D01*
X165895000Y-123798000D01*
X165894000Y-123795000D01*
X165893000Y-123793000D01*
X165892000Y-123790000D01*
X165892000Y-123788000D01*
X165891000Y-123785000D01*
X165891000Y-123783000D01*
X165890000Y-123780000D01*
X165890000Y-123778000D01*
X165890000Y-123775000D01*
X165890000Y-123425000D01*
X165890000Y-123422000D01*
X165890000Y-123420000D01*
X165891000Y-123417000D01*
X165891000Y-123415000D01*
X165892000Y-123412000D01*
X165892000Y-123410000D01*
X165893000Y-123407000D01*
X165894000Y-123405000D01*
X165895000Y-123402000D01*
X165897000Y-123400000D01*
X165898000Y-123398000D01*
X165900000Y-123396000D01*
X165901000Y-123394000D01*
X165903000Y-123392000D01*
X165905000Y-123390000D01*
X165907000Y-123388000D01*
X165909000Y-123386000D01*
X165911000Y-123385000D01*
X165913000Y-123383000D01*
X165915000Y-123382000D01*
X165917000Y-123380000D01*
X165920000Y-123379000D01*
X165922000Y-123378000D01*
X165925000Y-123377000D01*
X165927000Y-123377000D01*
X165930000Y-123376000D01*
X165932000Y-123376000D01*
X165935000Y-123375000D01*
X165937000Y-123375000D01*
X165940000Y-123375000D01*
X166090000Y-123375000D01*
X166093000Y-123375000D01*
X166095000Y-123375000D01*
X166098000Y-123376000D01*
G37*
X166098000Y-126626000D02*
X166100000Y-126626000D01*
X166103000Y-126627000D01*
X166105000Y-126627000D01*
X166108000Y-126628000D01*
X166110000Y-126629000D01*
X166113000Y-126630000D01*
X166115000Y-126632000D01*
X166117000Y-126633000D01*
X166119000Y-126635000D01*
X166121000Y-126636000D01*
X166123000Y-126638000D01*
X166125000Y-126640000D01*
X166127000Y-126642000D01*
X166129000Y-126644000D01*
X166130000Y-126646000D01*
X166132000Y-126648000D01*
X166133000Y-126650000D01*
X166135000Y-126652000D01*
X166136000Y-126655000D01*
X166137000Y-126657000D01*
X166138000Y-126660000D01*
X166138000Y-126662000D01*
X166139000Y-126665000D01*
X166139000Y-126667000D01*
X166140000Y-126670000D01*
X166140000Y-126672000D01*
X166140000Y-126675000D01*
X166140000Y-127025000D01*
X166140000Y-127028000D01*
X166140000Y-127030000D01*
X166139000Y-127033000D01*
X166139000Y-127035000D01*
X166138000Y-127038000D01*
X166138000Y-127040000D01*
X166137000Y-127043000D01*
X166136000Y-127045000D01*
X166135000Y-127048000D01*
X166133000Y-127050000D01*
X166132000Y-127052000D01*
X166130000Y-127054000D01*
X166129000Y-127056000D01*
X166127000Y-127058000D01*
X166125000Y-127060000D01*
X166123000Y-127062000D01*
X166121000Y-127064000D01*
X166119000Y-127065000D01*
X166117000Y-127067000D01*
X166115000Y-127068000D01*
X166113000Y-127070000D01*
X166110000Y-127071000D01*
X166108000Y-127072000D01*
X166105000Y-127073000D01*
X166103000Y-127073000D01*
X166100000Y-127074000D01*
X166098000Y-127074000D01*
X166095000Y-127075000D01*
X166093000Y-127075000D01*
X166090000Y-127075000D01*
X165940000Y-127075000D01*
X165937000Y-127075000D01*
X165935000Y-127075000D01*
X165932000Y-127074000D01*
X165930000Y-127074000D01*
X165927000Y-127073000D01*
X165925000Y-127073000D01*
X165922000Y-127072000D01*
X165920000Y-127071000D01*
X165917000Y-127070000D01*
X165915000Y-127068000D01*
X165913000Y-127067000D01*
X165911000Y-127065000D01*
X165909000Y-127064000D01*
X165907000Y-127062000D01*
X165905000Y-127060000D01*
X165903000Y-127058000D01*
X165901000Y-127056000D01*
X165900000Y-127054000D01*
X165898000Y-127052000D01*
X165897000Y-127050000D01*
X165895000Y-127048000D01*
X165894000Y-127045000D01*
X165893000Y-127043000D01*
X165892000Y-127040000D01*
X165892000Y-127038000D01*
X165891000Y-127035000D01*
X165891000Y-127033000D01*
X165890000Y-127030000D01*
X165890000Y-127028000D01*
X165890000Y-127025000D01*
X165890000Y-126675000D01*
X165890000Y-126672000D01*
X165890000Y-126670000D01*
X165891000Y-126667000D01*
X165891000Y-126665000D01*
X165892000Y-126662000D01*
X165892000Y-126660000D01*
X165893000Y-126657000D01*
X165894000Y-126655000D01*
X165895000Y-126652000D01*
X165897000Y-126650000D01*
X165898000Y-126648000D01*
X165900000Y-126646000D01*
X165901000Y-126644000D01*
X165903000Y-126642000D01*
X165905000Y-126640000D01*
X165907000Y-126638000D01*
X165909000Y-126636000D01*
X165911000Y-126635000D01*
X165913000Y-126633000D01*
X165915000Y-126632000D01*
X165917000Y-126630000D01*
X165920000Y-126629000D01*
X165922000Y-126628000D01*
X165925000Y-126627000D01*
X165927000Y-126627000D01*
X165930000Y-126626000D01*
X165932000Y-126626000D01*
X165935000Y-126625000D01*
X165937000Y-126625000D01*
X165940000Y-126625000D01*
X166090000Y-126625000D01*
X166093000Y-126625000D01*
X166095000Y-126625000D01*
X166098000Y-126626000D01*
G36*
X166098000Y-126626000D02*
G01*
X166100000Y-126626000D01*
X166103000Y-126627000D01*
X166105000Y-126627000D01*
X166108000Y-126628000D01*
X166110000Y-126629000D01*
X166113000Y-126630000D01*
X166115000Y-126632000D01*
X166117000Y-126633000D01*
X166119000Y-126635000D01*
X166121000Y-126636000D01*
X166123000Y-126638000D01*
X166125000Y-126640000D01*
X166127000Y-126642000D01*
X166129000Y-126644000D01*
X166130000Y-126646000D01*
X166132000Y-126648000D01*
X166133000Y-126650000D01*
X166135000Y-126652000D01*
X166136000Y-126655000D01*
X166137000Y-126657000D01*
X166138000Y-126660000D01*
X166138000Y-126662000D01*
X166139000Y-126665000D01*
X166139000Y-126667000D01*
X166140000Y-126670000D01*
X166140000Y-126672000D01*
X166140000Y-126675000D01*
X166140000Y-127025000D01*
X166140000Y-127028000D01*
X166140000Y-127030000D01*
X166139000Y-127033000D01*
X166139000Y-127035000D01*
X166138000Y-127038000D01*
X166138000Y-127040000D01*
X166137000Y-127043000D01*
X166136000Y-127045000D01*
X166135000Y-127048000D01*
X166133000Y-127050000D01*
X166132000Y-127052000D01*
X166130000Y-127054000D01*
X166129000Y-127056000D01*
X166127000Y-127058000D01*
X166125000Y-127060000D01*
X166123000Y-127062000D01*
X166121000Y-127064000D01*
X166119000Y-127065000D01*
X166117000Y-127067000D01*
X166115000Y-127068000D01*
X166113000Y-127070000D01*
X166110000Y-127071000D01*
X166108000Y-127072000D01*
X166105000Y-127073000D01*
X166103000Y-127073000D01*
X166100000Y-127074000D01*
X166098000Y-127074000D01*
X166095000Y-127075000D01*
X166093000Y-127075000D01*
X166090000Y-127075000D01*
X165940000Y-127075000D01*
X165937000Y-127075000D01*
X165935000Y-127075000D01*
X165932000Y-127074000D01*
X165930000Y-127074000D01*
X165927000Y-127073000D01*
X165925000Y-127073000D01*
X165922000Y-127072000D01*
X165920000Y-127071000D01*
X165917000Y-127070000D01*
X165915000Y-127068000D01*
X165913000Y-127067000D01*
X165911000Y-127065000D01*
X165909000Y-127064000D01*
X165907000Y-127062000D01*
X165905000Y-127060000D01*
X165903000Y-127058000D01*
X165901000Y-127056000D01*
X165900000Y-127054000D01*
X165898000Y-127052000D01*
X165897000Y-127050000D01*
X165895000Y-127048000D01*
X165894000Y-127045000D01*
X165893000Y-127043000D01*
X165892000Y-127040000D01*
X165892000Y-127038000D01*
X165891000Y-127035000D01*
X165891000Y-127033000D01*
X165890000Y-127030000D01*
X165890000Y-127028000D01*
X165890000Y-127025000D01*
X165890000Y-126675000D01*
X165890000Y-126672000D01*
X165890000Y-126670000D01*
X165891000Y-126667000D01*
X165891000Y-126665000D01*
X165892000Y-126662000D01*
X165892000Y-126660000D01*
X165893000Y-126657000D01*
X165894000Y-126655000D01*
X165895000Y-126652000D01*
X165897000Y-126650000D01*
X165898000Y-126648000D01*
X165900000Y-126646000D01*
X165901000Y-126644000D01*
X165903000Y-126642000D01*
X165905000Y-126640000D01*
X165907000Y-126638000D01*
X165909000Y-126636000D01*
X165911000Y-126635000D01*
X165913000Y-126633000D01*
X165915000Y-126632000D01*
X165917000Y-126630000D01*
X165920000Y-126629000D01*
X165922000Y-126628000D01*
X165925000Y-126627000D01*
X165927000Y-126627000D01*
X165930000Y-126626000D01*
X165932000Y-126626000D01*
X165935000Y-126625000D01*
X165937000Y-126625000D01*
X165940000Y-126625000D01*
X166090000Y-126625000D01*
X166093000Y-126625000D01*
X166095000Y-126625000D01*
X166098000Y-126626000D01*
G37*
X166598000Y-123376000D02*
X166600000Y-123376000D01*
X166603000Y-123377000D01*
X166605000Y-123377000D01*
X166608000Y-123378000D01*
X166610000Y-123379000D01*
X166613000Y-123380000D01*
X166615000Y-123382000D01*
X166617000Y-123383000D01*
X166619000Y-123385000D01*
X166621000Y-123386000D01*
X166623000Y-123388000D01*
X166625000Y-123390000D01*
X166627000Y-123392000D01*
X166629000Y-123394000D01*
X166630000Y-123396000D01*
X166632000Y-123398000D01*
X166633000Y-123400000D01*
X166635000Y-123402000D01*
X166636000Y-123405000D01*
X166637000Y-123407000D01*
X166638000Y-123410000D01*
X166638000Y-123412000D01*
X166639000Y-123415000D01*
X166639000Y-123417000D01*
X166640000Y-123420000D01*
X166640000Y-123422000D01*
X166640000Y-123425000D01*
X166640000Y-123775000D01*
X166640000Y-123778000D01*
X166640000Y-123780000D01*
X166639000Y-123783000D01*
X166639000Y-123785000D01*
X166638000Y-123788000D01*
X166638000Y-123790000D01*
X166637000Y-123793000D01*
X166636000Y-123795000D01*
X166635000Y-123798000D01*
X166633000Y-123800000D01*
X166632000Y-123802000D01*
X166630000Y-123804000D01*
X166629000Y-123806000D01*
X166627000Y-123808000D01*
X166625000Y-123810000D01*
X166623000Y-123812000D01*
X166621000Y-123814000D01*
X166619000Y-123815000D01*
X166617000Y-123817000D01*
X166615000Y-123818000D01*
X166613000Y-123820000D01*
X166610000Y-123821000D01*
X166608000Y-123822000D01*
X166605000Y-123823000D01*
X166603000Y-123823000D01*
X166600000Y-123824000D01*
X166598000Y-123824000D01*
X166595000Y-123825000D01*
X166593000Y-123825000D01*
X166590000Y-123825000D01*
X166440000Y-123825000D01*
X166437000Y-123825000D01*
X166435000Y-123825000D01*
X166432000Y-123824000D01*
X166430000Y-123824000D01*
X166427000Y-123823000D01*
X166425000Y-123823000D01*
X166422000Y-123822000D01*
X166420000Y-123821000D01*
X166417000Y-123820000D01*
X166415000Y-123818000D01*
X166413000Y-123817000D01*
X166411000Y-123815000D01*
X166409000Y-123814000D01*
X166407000Y-123812000D01*
X166405000Y-123810000D01*
X166403000Y-123808000D01*
X166401000Y-123806000D01*
X166400000Y-123804000D01*
X166398000Y-123802000D01*
X166397000Y-123800000D01*
X166395000Y-123798000D01*
X166394000Y-123795000D01*
X166393000Y-123793000D01*
X166392000Y-123790000D01*
X166392000Y-123788000D01*
X166391000Y-123785000D01*
X166391000Y-123783000D01*
X166390000Y-123780000D01*
X166390000Y-123778000D01*
X166390000Y-123775000D01*
X166390000Y-123425000D01*
X166390000Y-123422000D01*
X166390000Y-123420000D01*
X166391000Y-123417000D01*
X166391000Y-123415000D01*
X166392000Y-123412000D01*
X166392000Y-123410000D01*
X166393000Y-123407000D01*
X166394000Y-123405000D01*
X166395000Y-123402000D01*
X166397000Y-123400000D01*
X166398000Y-123398000D01*
X166400000Y-123396000D01*
X166401000Y-123394000D01*
X166403000Y-123392000D01*
X166405000Y-123390000D01*
X166407000Y-123388000D01*
X166409000Y-123386000D01*
X166411000Y-123385000D01*
X166413000Y-123383000D01*
X166415000Y-123382000D01*
X166417000Y-123380000D01*
X166420000Y-123379000D01*
X166422000Y-123378000D01*
X166425000Y-123377000D01*
X166427000Y-123377000D01*
X166430000Y-123376000D01*
X166432000Y-123376000D01*
X166435000Y-123375000D01*
X166437000Y-123375000D01*
X166440000Y-123375000D01*
X166590000Y-123375000D01*
X166593000Y-123375000D01*
X166595000Y-123375000D01*
X166598000Y-123376000D01*
G36*
X166598000Y-123376000D02*
G01*
X166600000Y-123376000D01*
X166603000Y-123377000D01*
X166605000Y-123377000D01*
X166608000Y-123378000D01*
X166610000Y-123379000D01*
X166613000Y-123380000D01*
X166615000Y-123382000D01*
X166617000Y-123383000D01*
X166619000Y-123385000D01*
X166621000Y-123386000D01*
X166623000Y-123388000D01*
X166625000Y-123390000D01*
X166627000Y-123392000D01*
X166629000Y-123394000D01*
X166630000Y-123396000D01*
X166632000Y-123398000D01*
X166633000Y-123400000D01*
X166635000Y-123402000D01*
X166636000Y-123405000D01*
X166637000Y-123407000D01*
X166638000Y-123410000D01*
X166638000Y-123412000D01*
X166639000Y-123415000D01*
X166639000Y-123417000D01*
X166640000Y-123420000D01*
X166640000Y-123422000D01*
X166640000Y-123425000D01*
X166640000Y-123775000D01*
X166640000Y-123778000D01*
X166640000Y-123780000D01*
X166639000Y-123783000D01*
X166639000Y-123785000D01*
X166638000Y-123788000D01*
X166638000Y-123790000D01*
X166637000Y-123793000D01*
X166636000Y-123795000D01*
X166635000Y-123798000D01*
X166633000Y-123800000D01*
X166632000Y-123802000D01*
X166630000Y-123804000D01*
X166629000Y-123806000D01*
X166627000Y-123808000D01*
X166625000Y-123810000D01*
X166623000Y-123812000D01*
X166621000Y-123814000D01*
X166619000Y-123815000D01*
X166617000Y-123817000D01*
X166615000Y-123818000D01*
X166613000Y-123820000D01*
X166610000Y-123821000D01*
X166608000Y-123822000D01*
X166605000Y-123823000D01*
X166603000Y-123823000D01*
X166600000Y-123824000D01*
X166598000Y-123824000D01*
X166595000Y-123825000D01*
X166593000Y-123825000D01*
X166590000Y-123825000D01*
X166440000Y-123825000D01*
X166437000Y-123825000D01*
X166435000Y-123825000D01*
X166432000Y-123824000D01*
X166430000Y-123824000D01*
X166427000Y-123823000D01*
X166425000Y-123823000D01*
X166422000Y-123822000D01*
X166420000Y-123821000D01*
X166417000Y-123820000D01*
X166415000Y-123818000D01*
X166413000Y-123817000D01*
X166411000Y-123815000D01*
X166409000Y-123814000D01*
X166407000Y-123812000D01*
X166405000Y-123810000D01*
X166403000Y-123808000D01*
X166401000Y-123806000D01*
X166400000Y-123804000D01*
X166398000Y-123802000D01*
X166397000Y-123800000D01*
X166395000Y-123798000D01*
X166394000Y-123795000D01*
X166393000Y-123793000D01*
X166392000Y-123790000D01*
X166392000Y-123788000D01*
X166391000Y-123785000D01*
X166391000Y-123783000D01*
X166390000Y-123780000D01*
X166390000Y-123778000D01*
X166390000Y-123775000D01*
X166390000Y-123425000D01*
X166390000Y-123422000D01*
X166390000Y-123420000D01*
X166391000Y-123417000D01*
X166391000Y-123415000D01*
X166392000Y-123412000D01*
X166392000Y-123410000D01*
X166393000Y-123407000D01*
X166394000Y-123405000D01*
X166395000Y-123402000D01*
X166397000Y-123400000D01*
X166398000Y-123398000D01*
X166400000Y-123396000D01*
X166401000Y-123394000D01*
X166403000Y-123392000D01*
X166405000Y-123390000D01*
X166407000Y-123388000D01*
X166409000Y-123386000D01*
X166411000Y-123385000D01*
X166413000Y-123383000D01*
X166415000Y-123382000D01*
X166417000Y-123380000D01*
X166420000Y-123379000D01*
X166422000Y-123378000D01*
X166425000Y-123377000D01*
X166427000Y-123377000D01*
X166430000Y-123376000D01*
X166432000Y-123376000D01*
X166435000Y-123375000D01*
X166437000Y-123375000D01*
X166440000Y-123375000D01*
X166590000Y-123375000D01*
X166593000Y-123375000D01*
X166595000Y-123375000D01*
X166598000Y-123376000D01*
G37*
X166598000Y-126626000D02*
X166600000Y-126626000D01*
X166603000Y-126627000D01*
X166605000Y-126627000D01*
X166608000Y-126628000D01*
X166610000Y-126629000D01*
X166613000Y-126630000D01*
X166615000Y-126632000D01*
X166617000Y-126633000D01*
X166619000Y-126635000D01*
X166621000Y-126636000D01*
X166623000Y-126638000D01*
X166625000Y-126640000D01*
X166627000Y-126642000D01*
X166629000Y-126644000D01*
X166630000Y-126646000D01*
X166632000Y-126648000D01*
X166633000Y-126650000D01*
X166635000Y-126652000D01*
X166636000Y-126655000D01*
X166637000Y-126657000D01*
X166638000Y-126660000D01*
X166638000Y-126662000D01*
X166639000Y-126665000D01*
X166639000Y-126667000D01*
X166640000Y-126670000D01*
X166640000Y-126672000D01*
X166640000Y-126675000D01*
X166640000Y-127025000D01*
X166640000Y-127028000D01*
X166640000Y-127030000D01*
X166639000Y-127033000D01*
X166639000Y-127035000D01*
X166638000Y-127038000D01*
X166638000Y-127040000D01*
X166637000Y-127043000D01*
X166636000Y-127045000D01*
X166635000Y-127048000D01*
X166633000Y-127050000D01*
X166632000Y-127052000D01*
X166630000Y-127054000D01*
X166629000Y-127056000D01*
X166627000Y-127058000D01*
X166625000Y-127060000D01*
X166623000Y-127062000D01*
X166621000Y-127064000D01*
X166619000Y-127065000D01*
X166617000Y-127067000D01*
X166615000Y-127068000D01*
X166613000Y-127070000D01*
X166610000Y-127071000D01*
X166608000Y-127072000D01*
X166605000Y-127073000D01*
X166603000Y-127073000D01*
X166600000Y-127074000D01*
X166598000Y-127074000D01*
X166595000Y-127075000D01*
X166593000Y-127075000D01*
X166590000Y-127075000D01*
X166440000Y-127075000D01*
X166437000Y-127075000D01*
X166435000Y-127075000D01*
X166432000Y-127074000D01*
X166430000Y-127074000D01*
X166427000Y-127073000D01*
X166425000Y-127073000D01*
X166422000Y-127072000D01*
X166420000Y-127071000D01*
X166417000Y-127070000D01*
X166415000Y-127068000D01*
X166413000Y-127067000D01*
X166411000Y-127065000D01*
X166409000Y-127064000D01*
X166407000Y-127062000D01*
X166405000Y-127060000D01*
X166403000Y-127058000D01*
X166401000Y-127056000D01*
X166400000Y-127054000D01*
X166398000Y-127052000D01*
X166397000Y-127050000D01*
X166395000Y-127048000D01*
X166394000Y-127045000D01*
X166393000Y-127043000D01*
X166392000Y-127040000D01*
X166392000Y-127038000D01*
X166391000Y-127035000D01*
X166391000Y-127033000D01*
X166390000Y-127030000D01*
X166390000Y-127028000D01*
X166390000Y-127025000D01*
X166390000Y-126675000D01*
X166390000Y-126672000D01*
X166390000Y-126670000D01*
X166391000Y-126667000D01*
X166391000Y-126665000D01*
X166392000Y-126662000D01*
X166392000Y-126660000D01*
X166393000Y-126657000D01*
X166394000Y-126655000D01*
X166395000Y-126652000D01*
X166397000Y-126650000D01*
X166398000Y-126648000D01*
X166400000Y-126646000D01*
X166401000Y-126644000D01*
X166403000Y-126642000D01*
X166405000Y-126640000D01*
X166407000Y-126638000D01*
X166409000Y-126636000D01*
X166411000Y-126635000D01*
X166413000Y-126633000D01*
X166415000Y-126632000D01*
X166417000Y-126630000D01*
X166420000Y-126629000D01*
X166422000Y-126628000D01*
X166425000Y-126627000D01*
X166427000Y-126627000D01*
X166430000Y-126626000D01*
X166432000Y-126626000D01*
X166435000Y-126625000D01*
X166437000Y-126625000D01*
X166440000Y-126625000D01*
X166590000Y-126625000D01*
X166593000Y-126625000D01*
X166595000Y-126625000D01*
X166598000Y-126626000D01*
G36*
X166598000Y-126626000D02*
G01*
X166600000Y-126626000D01*
X166603000Y-126627000D01*
X166605000Y-126627000D01*
X166608000Y-126628000D01*
X166610000Y-126629000D01*
X166613000Y-126630000D01*
X166615000Y-126632000D01*
X166617000Y-126633000D01*
X166619000Y-126635000D01*
X166621000Y-126636000D01*
X166623000Y-126638000D01*
X166625000Y-126640000D01*
X166627000Y-126642000D01*
X166629000Y-126644000D01*
X166630000Y-126646000D01*
X166632000Y-126648000D01*
X166633000Y-126650000D01*
X166635000Y-126652000D01*
X166636000Y-126655000D01*
X166637000Y-126657000D01*
X166638000Y-126660000D01*
X166638000Y-126662000D01*
X166639000Y-126665000D01*
X166639000Y-126667000D01*
X166640000Y-126670000D01*
X166640000Y-126672000D01*
X166640000Y-126675000D01*
X166640000Y-127025000D01*
X166640000Y-127028000D01*
X166640000Y-127030000D01*
X166639000Y-127033000D01*
X166639000Y-127035000D01*
X166638000Y-127038000D01*
X166638000Y-127040000D01*
X166637000Y-127043000D01*
X166636000Y-127045000D01*
X166635000Y-127048000D01*
X166633000Y-127050000D01*
X166632000Y-127052000D01*
X166630000Y-127054000D01*
X166629000Y-127056000D01*
X166627000Y-127058000D01*
X166625000Y-127060000D01*
X166623000Y-127062000D01*
X166621000Y-127064000D01*
X166619000Y-127065000D01*
X166617000Y-127067000D01*
X166615000Y-127068000D01*
X166613000Y-127070000D01*
X166610000Y-127071000D01*
X166608000Y-127072000D01*
X166605000Y-127073000D01*
X166603000Y-127073000D01*
X166600000Y-127074000D01*
X166598000Y-127074000D01*
X166595000Y-127075000D01*
X166593000Y-127075000D01*
X166590000Y-127075000D01*
X166440000Y-127075000D01*
X166437000Y-127075000D01*
X166435000Y-127075000D01*
X166432000Y-127074000D01*
X166430000Y-127074000D01*
X166427000Y-127073000D01*
X166425000Y-127073000D01*
X166422000Y-127072000D01*
X166420000Y-127071000D01*
X166417000Y-127070000D01*
X166415000Y-127068000D01*
X166413000Y-127067000D01*
X166411000Y-127065000D01*
X166409000Y-127064000D01*
X166407000Y-127062000D01*
X166405000Y-127060000D01*
X166403000Y-127058000D01*
X166401000Y-127056000D01*
X166400000Y-127054000D01*
X166398000Y-127052000D01*
X166397000Y-127050000D01*
X166395000Y-127048000D01*
X166394000Y-127045000D01*
X166393000Y-127043000D01*
X166392000Y-127040000D01*
X166392000Y-127038000D01*
X166391000Y-127035000D01*
X166391000Y-127033000D01*
X166390000Y-127030000D01*
X166390000Y-127028000D01*
X166390000Y-127025000D01*
X166390000Y-126675000D01*
X166390000Y-126672000D01*
X166390000Y-126670000D01*
X166391000Y-126667000D01*
X166391000Y-126665000D01*
X166392000Y-126662000D01*
X166392000Y-126660000D01*
X166393000Y-126657000D01*
X166394000Y-126655000D01*
X166395000Y-126652000D01*
X166397000Y-126650000D01*
X166398000Y-126648000D01*
X166400000Y-126646000D01*
X166401000Y-126644000D01*
X166403000Y-126642000D01*
X166405000Y-126640000D01*
X166407000Y-126638000D01*
X166409000Y-126636000D01*
X166411000Y-126635000D01*
X166413000Y-126633000D01*
X166415000Y-126632000D01*
X166417000Y-126630000D01*
X166420000Y-126629000D01*
X166422000Y-126628000D01*
X166425000Y-126627000D01*
X166427000Y-126627000D01*
X166430000Y-126626000D01*
X166432000Y-126626000D01*
X166435000Y-126625000D01*
X166437000Y-126625000D01*
X166440000Y-126625000D01*
X166590000Y-126625000D01*
X166593000Y-126625000D01*
X166595000Y-126625000D01*
X166598000Y-126626000D01*
G37*
X167098000Y-123376000D02*
X167100000Y-123376000D01*
X167103000Y-123377000D01*
X167105000Y-123377000D01*
X167108000Y-123378000D01*
X167110000Y-123379000D01*
X167113000Y-123380000D01*
X167115000Y-123382000D01*
X167117000Y-123383000D01*
X167119000Y-123385000D01*
X167121000Y-123386000D01*
X167123000Y-123388000D01*
X167125000Y-123390000D01*
X167127000Y-123392000D01*
X167129000Y-123394000D01*
X167130000Y-123396000D01*
X167132000Y-123398000D01*
X167133000Y-123400000D01*
X167135000Y-123402000D01*
X167136000Y-123405000D01*
X167137000Y-123407000D01*
X167138000Y-123410000D01*
X167138000Y-123412000D01*
X167139000Y-123415000D01*
X167139000Y-123417000D01*
X167140000Y-123420000D01*
X167140000Y-123422000D01*
X167140000Y-123425000D01*
X167140000Y-123775000D01*
X167140000Y-123778000D01*
X167140000Y-123780000D01*
X167139000Y-123783000D01*
X167139000Y-123785000D01*
X167138000Y-123788000D01*
X167138000Y-123790000D01*
X167137000Y-123793000D01*
X167136000Y-123795000D01*
X167135000Y-123798000D01*
X167133000Y-123800000D01*
X167132000Y-123802000D01*
X167130000Y-123804000D01*
X167129000Y-123806000D01*
X167127000Y-123808000D01*
X167125000Y-123810000D01*
X167123000Y-123812000D01*
X167121000Y-123814000D01*
X167119000Y-123815000D01*
X167117000Y-123817000D01*
X167115000Y-123818000D01*
X167113000Y-123820000D01*
X167110000Y-123821000D01*
X167108000Y-123822000D01*
X167105000Y-123823000D01*
X167103000Y-123823000D01*
X167100000Y-123824000D01*
X167098000Y-123824000D01*
X167095000Y-123825000D01*
X167093000Y-123825000D01*
X167090000Y-123825000D01*
X166940000Y-123825000D01*
X166937000Y-123825000D01*
X166935000Y-123825000D01*
X166932000Y-123824000D01*
X166930000Y-123824000D01*
X166927000Y-123823000D01*
X166925000Y-123823000D01*
X166922000Y-123822000D01*
X166920000Y-123821000D01*
X166917000Y-123820000D01*
X166915000Y-123818000D01*
X166913000Y-123817000D01*
X166911000Y-123815000D01*
X166909000Y-123814000D01*
X166907000Y-123812000D01*
X166905000Y-123810000D01*
X166903000Y-123808000D01*
X166901000Y-123806000D01*
X166900000Y-123804000D01*
X166898000Y-123802000D01*
X166897000Y-123800000D01*
X166895000Y-123798000D01*
X166894000Y-123795000D01*
X166893000Y-123793000D01*
X166892000Y-123790000D01*
X166892000Y-123788000D01*
X166891000Y-123785000D01*
X166891000Y-123783000D01*
X166890000Y-123780000D01*
X166890000Y-123778000D01*
X166890000Y-123775000D01*
X166890000Y-123425000D01*
X166890000Y-123422000D01*
X166890000Y-123420000D01*
X166891000Y-123417000D01*
X166891000Y-123415000D01*
X166892000Y-123412000D01*
X166892000Y-123410000D01*
X166893000Y-123407000D01*
X166894000Y-123405000D01*
X166895000Y-123402000D01*
X166897000Y-123400000D01*
X166898000Y-123398000D01*
X166900000Y-123396000D01*
X166901000Y-123394000D01*
X166903000Y-123392000D01*
X166905000Y-123390000D01*
X166907000Y-123388000D01*
X166909000Y-123386000D01*
X166911000Y-123385000D01*
X166913000Y-123383000D01*
X166915000Y-123382000D01*
X166917000Y-123380000D01*
X166920000Y-123379000D01*
X166922000Y-123378000D01*
X166925000Y-123377000D01*
X166927000Y-123377000D01*
X166930000Y-123376000D01*
X166932000Y-123376000D01*
X166935000Y-123375000D01*
X166937000Y-123375000D01*
X166940000Y-123375000D01*
X167090000Y-123375000D01*
X167093000Y-123375000D01*
X167095000Y-123375000D01*
X167098000Y-123376000D01*
G36*
X167098000Y-123376000D02*
G01*
X167100000Y-123376000D01*
X167103000Y-123377000D01*
X167105000Y-123377000D01*
X167108000Y-123378000D01*
X167110000Y-123379000D01*
X167113000Y-123380000D01*
X167115000Y-123382000D01*
X167117000Y-123383000D01*
X167119000Y-123385000D01*
X167121000Y-123386000D01*
X167123000Y-123388000D01*
X167125000Y-123390000D01*
X167127000Y-123392000D01*
X167129000Y-123394000D01*
X167130000Y-123396000D01*
X167132000Y-123398000D01*
X167133000Y-123400000D01*
X167135000Y-123402000D01*
X167136000Y-123405000D01*
X167137000Y-123407000D01*
X167138000Y-123410000D01*
X167138000Y-123412000D01*
X167139000Y-123415000D01*
X167139000Y-123417000D01*
X167140000Y-123420000D01*
X167140000Y-123422000D01*
X167140000Y-123425000D01*
X167140000Y-123775000D01*
X167140000Y-123778000D01*
X167140000Y-123780000D01*
X167139000Y-123783000D01*
X167139000Y-123785000D01*
X167138000Y-123788000D01*
X167138000Y-123790000D01*
X167137000Y-123793000D01*
X167136000Y-123795000D01*
X167135000Y-123798000D01*
X167133000Y-123800000D01*
X167132000Y-123802000D01*
X167130000Y-123804000D01*
X167129000Y-123806000D01*
X167127000Y-123808000D01*
X167125000Y-123810000D01*
X167123000Y-123812000D01*
X167121000Y-123814000D01*
X167119000Y-123815000D01*
X167117000Y-123817000D01*
X167115000Y-123818000D01*
X167113000Y-123820000D01*
X167110000Y-123821000D01*
X167108000Y-123822000D01*
X167105000Y-123823000D01*
X167103000Y-123823000D01*
X167100000Y-123824000D01*
X167098000Y-123824000D01*
X167095000Y-123825000D01*
X167093000Y-123825000D01*
X167090000Y-123825000D01*
X166940000Y-123825000D01*
X166937000Y-123825000D01*
X166935000Y-123825000D01*
X166932000Y-123824000D01*
X166930000Y-123824000D01*
X166927000Y-123823000D01*
X166925000Y-123823000D01*
X166922000Y-123822000D01*
X166920000Y-123821000D01*
X166917000Y-123820000D01*
X166915000Y-123818000D01*
X166913000Y-123817000D01*
X166911000Y-123815000D01*
X166909000Y-123814000D01*
X166907000Y-123812000D01*
X166905000Y-123810000D01*
X166903000Y-123808000D01*
X166901000Y-123806000D01*
X166900000Y-123804000D01*
X166898000Y-123802000D01*
X166897000Y-123800000D01*
X166895000Y-123798000D01*
X166894000Y-123795000D01*
X166893000Y-123793000D01*
X166892000Y-123790000D01*
X166892000Y-123788000D01*
X166891000Y-123785000D01*
X166891000Y-123783000D01*
X166890000Y-123780000D01*
X166890000Y-123778000D01*
X166890000Y-123775000D01*
X166890000Y-123425000D01*
X166890000Y-123422000D01*
X166890000Y-123420000D01*
X166891000Y-123417000D01*
X166891000Y-123415000D01*
X166892000Y-123412000D01*
X166892000Y-123410000D01*
X166893000Y-123407000D01*
X166894000Y-123405000D01*
X166895000Y-123402000D01*
X166897000Y-123400000D01*
X166898000Y-123398000D01*
X166900000Y-123396000D01*
X166901000Y-123394000D01*
X166903000Y-123392000D01*
X166905000Y-123390000D01*
X166907000Y-123388000D01*
X166909000Y-123386000D01*
X166911000Y-123385000D01*
X166913000Y-123383000D01*
X166915000Y-123382000D01*
X166917000Y-123380000D01*
X166920000Y-123379000D01*
X166922000Y-123378000D01*
X166925000Y-123377000D01*
X166927000Y-123377000D01*
X166930000Y-123376000D01*
X166932000Y-123376000D01*
X166935000Y-123375000D01*
X166937000Y-123375000D01*
X166940000Y-123375000D01*
X167090000Y-123375000D01*
X167093000Y-123375000D01*
X167095000Y-123375000D01*
X167098000Y-123376000D01*
G37*
X167098000Y-126626000D02*
X167100000Y-126626000D01*
X167103000Y-126627000D01*
X167105000Y-126627000D01*
X167108000Y-126628000D01*
X167110000Y-126629000D01*
X167113000Y-126630000D01*
X167115000Y-126632000D01*
X167117000Y-126633000D01*
X167119000Y-126635000D01*
X167121000Y-126636000D01*
X167123000Y-126638000D01*
X167125000Y-126640000D01*
X167127000Y-126642000D01*
X167129000Y-126644000D01*
X167130000Y-126646000D01*
X167132000Y-126648000D01*
X167133000Y-126650000D01*
X167135000Y-126652000D01*
X167136000Y-126655000D01*
X167137000Y-126657000D01*
X167138000Y-126660000D01*
X167138000Y-126662000D01*
X167139000Y-126665000D01*
X167139000Y-126667000D01*
X167140000Y-126670000D01*
X167140000Y-126672000D01*
X167140000Y-126675000D01*
X167140000Y-127025000D01*
X167140000Y-127028000D01*
X167140000Y-127030000D01*
X167139000Y-127033000D01*
X167139000Y-127035000D01*
X167138000Y-127038000D01*
X167138000Y-127040000D01*
X167137000Y-127043000D01*
X167136000Y-127045000D01*
X167135000Y-127048000D01*
X167133000Y-127050000D01*
X167132000Y-127052000D01*
X167130000Y-127054000D01*
X167129000Y-127056000D01*
X167127000Y-127058000D01*
X167125000Y-127060000D01*
X167123000Y-127062000D01*
X167121000Y-127064000D01*
X167119000Y-127065000D01*
X167117000Y-127067000D01*
X167115000Y-127068000D01*
X167113000Y-127070000D01*
X167110000Y-127071000D01*
X167108000Y-127072000D01*
X167105000Y-127073000D01*
X167103000Y-127073000D01*
X167100000Y-127074000D01*
X167098000Y-127074000D01*
X167095000Y-127075000D01*
X167093000Y-127075000D01*
X167090000Y-127075000D01*
X166940000Y-127075000D01*
X166937000Y-127075000D01*
X166935000Y-127075000D01*
X166932000Y-127074000D01*
X166930000Y-127074000D01*
X166927000Y-127073000D01*
X166925000Y-127073000D01*
X166922000Y-127072000D01*
X166920000Y-127071000D01*
X166917000Y-127070000D01*
X166915000Y-127068000D01*
X166913000Y-127067000D01*
X166911000Y-127065000D01*
X166909000Y-127064000D01*
X166907000Y-127062000D01*
X166905000Y-127060000D01*
X166903000Y-127058000D01*
X166901000Y-127056000D01*
X166900000Y-127054000D01*
X166898000Y-127052000D01*
X166897000Y-127050000D01*
X166895000Y-127048000D01*
X166894000Y-127045000D01*
X166893000Y-127043000D01*
X166892000Y-127040000D01*
X166892000Y-127038000D01*
X166891000Y-127035000D01*
X166891000Y-127033000D01*
X166890000Y-127030000D01*
X166890000Y-127028000D01*
X166890000Y-127025000D01*
X166890000Y-126675000D01*
X166890000Y-126672000D01*
X166890000Y-126670000D01*
X166891000Y-126667000D01*
X166891000Y-126665000D01*
X166892000Y-126662000D01*
X166892000Y-126660000D01*
X166893000Y-126657000D01*
X166894000Y-126655000D01*
X166895000Y-126652000D01*
X166897000Y-126650000D01*
X166898000Y-126648000D01*
X166900000Y-126646000D01*
X166901000Y-126644000D01*
X166903000Y-126642000D01*
X166905000Y-126640000D01*
X166907000Y-126638000D01*
X166909000Y-126636000D01*
X166911000Y-126635000D01*
X166913000Y-126633000D01*
X166915000Y-126632000D01*
X166917000Y-126630000D01*
X166920000Y-126629000D01*
X166922000Y-126628000D01*
X166925000Y-126627000D01*
X166927000Y-126627000D01*
X166930000Y-126626000D01*
X166932000Y-126626000D01*
X166935000Y-126625000D01*
X166937000Y-126625000D01*
X166940000Y-126625000D01*
X167090000Y-126625000D01*
X167093000Y-126625000D01*
X167095000Y-126625000D01*
X167098000Y-126626000D01*
G36*
X167098000Y-126626000D02*
G01*
X167100000Y-126626000D01*
X167103000Y-126627000D01*
X167105000Y-126627000D01*
X167108000Y-126628000D01*
X167110000Y-126629000D01*
X167113000Y-126630000D01*
X167115000Y-126632000D01*
X167117000Y-126633000D01*
X167119000Y-126635000D01*
X167121000Y-126636000D01*
X167123000Y-126638000D01*
X167125000Y-126640000D01*
X167127000Y-126642000D01*
X167129000Y-126644000D01*
X167130000Y-126646000D01*
X167132000Y-126648000D01*
X167133000Y-126650000D01*
X167135000Y-126652000D01*
X167136000Y-126655000D01*
X167137000Y-126657000D01*
X167138000Y-126660000D01*
X167138000Y-126662000D01*
X167139000Y-126665000D01*
X167139000Y-126667000D01*
X167140000Y-126670000D01*
X167140000Y-126672000D01*
X167140000Y-126675000D01*
X167140000Y-127025000D01*
X167140000Y-127028000D01*
X167140000Y-127030000D01*
X167139000Y-127033000D01*
X167139000Y-127035000D01*
X167138000Y-127038000D01*
X167138000Y-127040000D01*
X167137000Y-127043000D01*
X167136000Y-127045000D01*
X167135000Y-127048000D01*
X167133000Y-127050000D01*
X167132000Y-127052000D01*
X167130000Y-127054000D01*
X167129000Y-127056000D01*
X167127000Y-127058000D01*
X167125000Y-127060000D01*
X167123000Y-127062000D01*
X167121000Y-127064000D01*
X167119000Y-127065000D01*
X167117000Y-127067000D01*
X167115000Y-127068000D01*
X167113000Y-127070000D01*
X167110000Y-127071000D01*
X167108000Y-127072000D01*
X167105000Y-127073000D01*
X167103000Y-127073000D01*
X167100000Y-127074000D01*
X167098000Y-127074000D01*
X167095000Y-127075000D01*
X167093000Y-127075000D01*
X167090000Y-127075000D01*
X166940000Y-127075000D01*
X166937000Y-127075000D01*
X166935000Y-127075000D01*
X166932000Y-127074000D01*
X166930000Y-127074000D01*
X166927000Y-127073000D01*
X166925000Y-127073000D01*
X166922000Y-127072000D01*
X166920000Y-127071000D01*
X166917000Y-127070000D01*
X166915000Y-127068000D01*
X166913000Y-127067000D01*
X166911000Y-127065000D01*
X166909000Y-127064000D01*
X166907000Y-127062000D01*
X166905000Y-127060000D01*
X166903000Y-127058000D01*
X166901000Y-127056000D01*
X166900000Y-127054000D01*
X166898000Y-127052000D01*
X166897000Y-127050000D01*
X166895000Y-127048000D01*
X166894000Y-127045000D01*
X166893000Y-127043000D01*
X166892000Y-127040000D01*
X166892000Y-127038000D01*
X166891000Y-127035000D01*
X166891000Y-127033000D01*
X166890000Y-127030000D01*
X166890000Y-127028000D01*
X166890000Y-127025000D01*
X166890000Y-126675000D01*
X166890000Y-126672000D01*
X166890000Y-126670000D01*
X166891000Y-126667000D01*
X166891000Y-126665000D01*
X166892000Y-126662000D01*
X166892000Y-126660000D01*
X166893000Y-126657000D01*
X166894000Y-126655000D01*
X166895000Y-126652000D01*
X166897000Y-126650000D01*
X166898000Y-126648000D01*
X166900000Y-126646000D01*
X166901000Y-126644000D01*
X166903000Y-126642000D01*
X166905000Y-126640000D01*
X166907000Y-126638000D01*
X166909000Y-126636000D01*
X166911000Y-126635000D01*
X166913000Y-126633000D01*
X166915000Y-126632000D01*
X166917000Y-126630000D01*
X166920000Y-126629000D01*
X166922000Y-126628000D01*
X166925000Y-126627000D01*
X166927000Y-126627000D01*
X166930000Y-126626000D01*
X166932000Y-126626000D01*
X166935000Y-126625000D01*
X166937000Y-126625000D01*
X166940000Y-126625000D01*
X167090000Y-126625000D01*
X167093000Y-126625000D01*
X167095000Y-126625000D01*
X167098000Y-126626000D01*
G37*
X164982000Y-123376000D02*
X164985000Y-123376000D01*
X164987000Y-123377000D01*
X164990000Y-123377000D01*
X164992000Y-123378000D01*
X164995000Y-123379000D01*
X164997000Y-123380000D01*
X164999000Y-123382000D01*
X165002000Y-123383000D01*
X165004000Y-123385000D01*
X165006000Y-123386000D01*
X165008000Y-123388000D01*
X165010000Y-123390000D01*
X165012000Y-123392000D01*
X165013000Y-123394000D01*
X165015000Y-123396000D01*
X165016000Y-123398000D01*
X165018000Y-123400000D01*
X165019000Y-123402000D01*
X165020000Y-123405000D01*
X165021000Y-123407000D01*
X165022000Y-123410000D01*
X165023000Y-123412000D01*
X165023000Y-123415000D01*
X165024000Y-123417000D01*
X165024000Y-123420000D01*
X165024000Y-123422000D01*
X165024000Y-123425000D01*
X165024500Y-123425000D01*
X165024000Y-124600000D01*
X165024000Y-124603000D01*
X165024000Y-124605000D01*
X165024000Y-124608000D01*
X165023000Y-124610000D01*
X165023000Y-124613000D01*
X165022000Y-124615000D01*
X165021000Y-124618000D01*
X165020000Y-124620000D01*
X165019000Y-124623000D01*
X165018000Y-124625000D01*
X165016000Y-124627000D01*
X165015000Y-124629000D01*
X165013000Y-124631000D01*
X165012000Y-124633000D01*
X165010000Y-124635000D01*
X165008000Y-124637000D01*
X165006000Y-124639000D01*
X165004000Y-124640000D01*
X165002000Y-124642000D01*
X164999000Y-124643000D01*
X164997000Y-124645000D01*
X164995000Y-124646000D01*
X164992000Y-124647000D01*
X164990000Y-124648000D01*
X164987000Y-124648000D01*
X164985000Y-124649000D01*
X164982000Y-124649000D01*
X164980000Y-124650000D01*
X164977000Y-124650000D01*
X164974000Y-124650000D01*
X164800000Y-124650000D01*
X164797000Y-124650000D01*
X164794000Y-124650000D01*
X164792000Y-124649000D01*
X164789000Y-124649000D01*
X164787000Y-124648000D01*
X164784000Y-124648000D01*
X164782000Y-124647000D01*
X164779000Y-124646000D01*
X164777000Y-124645000D01*
X164774000Y-124643000D01*
X164772000Y-124642000D01*
X164770000Y-124640000D01*
X164768000Y-124639000D01*
X164766000Y-124637000D01*
X164764000Y-124635000D01*
X164762000Y-124633000D01*
X164761000Y-124631000D01*
X164759000Y-124629000D01*
X164758000Y-124627000D01*
X164756000Y-124625000D01*
X164755000Y-124623000D01*
X164754000Y-124620000D01*
X164753000Y-124618000D01*
X164752000Y-124615000D01*
X164751000Y-124613000D01*
X164751000Y-124610000D01*
X164750000Y-124608000D01*
X164750000Y-124605000D01*
X164750000Y-124603000D01*
X164749000Y-124600000D01*
X164749000Y-123425000D01*
X164750000Y-123422000D01*
X164750000Y-123420000D01*
X164750000Y-123417000D01*
X164751000Y-123415000D01*
X164751000Y-123412000D01*
X164752000Y-123410000D01*
X164753000Y-123407000D01*
X164754000Y-123405000D01*
X164755000Y-123402000D01*
X164756000Y-123400000D01*
X164758000Y-123398000D01*
X164759000Y-123396000D01*
X164761000Y-123394000D01*
X164762000Y-123392000D01*
X164764000Y-123390000D01*
X164766000Y-123388000D01*
X164768000Y-123386000D01*
X164770000Y-123385000D01*
X164772000Y-123383000D01*
X164774000Y-123382000D01*
X164777000Y-123380000D01*
X164779000Y-123379000D01*
X164782000Y-123378000D01*
X164784000Y-123377000D01*
X164787000Y-123377000D01*
X164789000Y-123376000D01*
X164792000Y-123376000D01*
X164794000Y-123375000D01*
X164797000Y-123375000D01*
X164800000Y-123375000D01*
X164974000Y-123375000D01*
X164977000Y-123375000D01*
X164980000Y-123375000D01*
X164982000Y-123376000D01*
G36*
X164982000Y-123376000D02*
G01*
X164985000Y-123376000D01*
X164987000Y-123377000D01*
X164990000Y-123377000D01*
X164992000Y-123378000D01*
X164995000Y-123379000D01*
X164997000Y-123380000D01*
X164999000Y-123382000D01*
X165002000Y-123383000D01*
X165004000Y-123385000D01*
X165006000Y-123386000D01*
X165008000Y-123388000D01*
X165010000Y-123390000D01*
X165012000Y-123392000D01*
X165013000Y-123394000D01*
X165015000Y-123396000D01*
X165016000Y-123398000D01*
X165018000Y-123400000D01*
X165019000Y-123402000D01*
X165020000Y-123405000D01*
X165021000Y-123407000D01*
X165022000Y-123410000D01*
X165023000Y-123412000D01*
X165023000Y-123415000D01*
X165024000Y-123417000D01*
X165024000Y-123420000D01*
X165024000Y-123422000D01*
X165024000Y-123425000D01*
X165024500Y-123425000D01*
X165024000Y-124600000D01*
X165024000Y-124603000D01*
X165024000Y-124605000D01*
X165024000Y-124608000D01*
X165023000Y-124610000D01*
X165023000Y-124613000D01*
X165022000Y-124615000D01*
X165021000Y-124618000D01*
X165020000Y-124620000D01*
X165019000Y-124623000D01*
X165018000Y-124625000D01*
X165016000Y-124627000D01*
X165015000Y-124629000D01*
X165013000Y-124631000D01*
X165012000Y-124633000D01*
X165010000Y-124635000D01*
X165008000Y-124637000D01*
X165006000Y-124639000D01*
X165004000Y-124640000D01*
X165002000Y-124642000D01*
X164999000Y-124643000D01*
X164997000Y-124645000D01*
X164995000Y-124646000D01*
X164992000Y-124647000D01*
X164990000Y-124648000D01*
X164987000Y-124648000D01*
X164985000Y-124649000D01*
X164982000Y-124649000D01*
X164980000Y-124650000D01*
X164977000Y-124650000D01*
X164974000Y-124650000D01*
X164800000Y-124650000D01*
X164797000Y-124650000D01*
X164794000Y-124650000D01*
X164792000Y-124649000D01*
X164789000Y-124649000D01*
X164787000Y-124648000D01*
X164784000Y-124648000D01*
X164782000Y-124647000D01*
X164779000Y-124646000D01*
X164777000Y-124645000D01*
X164774000Y-124643000D01*
X164772000Y-124642000D01*
X164770000Y-124640000D01*
X164768000Y-124639000D01*
X164766000Y-124637000D01*
X164764000Y-124635000D01*
X164762000Y-124633000D01*
X164761000Y-124631000D01*
X164759000Y-124629000D01*
X164758000Y-124627000D01*
X164756000Y-124625000D01*
X164755000Y-124623000D01*
X164754000Y-124620000D01*
X164753000Y-124618000D01*
X164752000Y-124615000D01*
X164751000Y-124613000D01*
X164751000Y-124610000D01*
X164750000Y-124608000D01*
X164750000Y-124605000D01*
X164750000Y-124603000D01*
X164749000Y-124600000D01*
X164749000Y-123425000D01*
X164750000Y-123422000D01*
X164750000Y-123420000D01*
X164750000Y-123417000D01*
X164751000Y-123415000D01*
X164751000Y-123412000D01*
X164752000Y-123410000D01*
X164753000Y-123407000D01*
X164754000Y-123405000D01*
X164755000Y-123402000D01*
X164756000Y-123400000D01*
X164758000Y-123398000D01*
X164759000Y-123396000D01*
X164761000Y-123394000D01*
X164762000Y-123392000D01*
X164764000Y-123390000D01*
X164766000Y-123388000D01*
X164768000Y-123386000D01*
X164770000Y-123385000D01*
X164772000Y-123383000D01*
X164774000Y-123382000D01*
X164777000Y-123380000D01*
X164779000Y-123379000D01*
X164782000Y-123378000D01*
X164784000Y-123377000D01*
X164787000Y-123377000D01*
X164789000Y-123376000D01*
X164792000Y-123376000D01*
X164794000Y-123375000D01*
X164797000Y-123375000D01*
X164800000Y-123375000D01*
X164974000Y-123375000D01*
X164977000Y-123375000D01*
X164980000Y-123375000D01*
X164982000Y-123376000D01*
G37*
X167333000Y-124026000D02*
X167335000Y-124026000D01*
X167338000Y-124027000D01*
X167340000Y-124028000D01*
X167343000Y-124029000D01*
X167345000Y-124030000D01*
X167348000Y-124031000D01*
X167350000Y-124033000D01*
X167352000Y-124034000D01*
X167354000Y-124036000D01*
X167356000Y-124037000D01*
X167358000Y-124039000D01*
X167360000Y-124041000D01*
X167361000Y-124043000D01*
X167363000Y-124045000D01*
X167364000Y-124047000D01*
X167366000Y-124050000D01*
X167367000Y-124052000D01*
X167368000Y-124054000D01*
X167369000Y-124057000D01*
X167370000Y-124059000D01*
X167371000Y-124062000D01*
X167371000Y-124064000D01*
X167372000Y-124067000D01*
X167372000Y-124069000D01*
X167372000Y-124072000D01*
X167372000Y-124074000D01*
X167372500Y-124074500D01*
X167372000Y-124700000D01*
X167372000Y-124702000D01*
X167372000Y-124705000D01*
X167372000Y-124707000D01*
X167371000Y-124710000D01*
X167371000Y-124712000D01*
X167370000Y-124715000D01*
X167369000Y-124717000D01*
X167368000Y-124720000D01*
X167367000Y-124722000D01*
X167366000Y-124725000D01*
X167364000Y-124727000D01*
X167363000Y-124729000D01*
X167361000Y-124731000D01*
X167360000Y-124733000D01*
X167358000Y-124735000D01*
X167356000Y-124737000D01*
X167354000Y-124738000D01*
X167352000Y-124740000D01*
X167350000Y-124741000D01*
X167348000Y-124743000D01*
X167345000Y-124744000D01*
X167343000Y-124745000D01*
X167340000Y-124746000D01*
X167338000Y-124747000D01*
X167335000Y-124748000D01*
X167333000Y-124748000D01*
X167330000Y-124749000D01*
X167328000Y-124749000D01*
X167325000Y-124749000D01*
X167322000Y-124750000D01*
X165553000Y-124750000D01*
X165550000Y-124749000D01*
X165547000Y-124749000D01*
X165545000Y-124749000D01*
X165542000Y-124748000D01*
X165540000Y-124748000D01*
X165537000Y-124747000D01*
X165535000Y-124746000D01*
X165532000Y-124745000D01*
X165530000Y-124744000D01*
X165527000Y-124743000D01*
X165525000Y-124741000D01*
X165523000Y-124740000D01*
X165521000Y-124738000D01*
X165519000Y-124737000D01*
X165517000Y-124735000D01*
X165515000Y-124733000D01*
X165514000Y-124731000D01*
X165512000Y-124729000D01*
X165511000Y-124727000D01*
X165509000Y-124725000D01*
X165508000Y-124722000D01*
X165507000Y-124720000D01*
X165506000Y-124717000D01*
X165505000Y-124715000D01*
X165504000Y-124712000D01*
X165504000Y-124710000D01*
X165503000Y-124707000D01*
X165503000Y-124705000D01*
X165503000Y-124702000D01*
X165502000Y-124700000D01*
X165502000Y-124074000D01*
X165503000Y-124072000D01*
X165503000Y-124069000D01*
X165503000Y-124067000D01*
X165504000Y-124064000D01*
X165504000Y-124062000D01*
X165505000Y-124059000D01*
X165506000Y-124057000D01*
X165507000Y-124054000D01*
X165508000Y-124052000D01*
X165509000Y-124050000D01*
X165511000Y-124047000D01*
X165512000Y-124045000D01*
X165514000Y-124043000D01*
X165515000Y-124041000D01*
X165517000Y-124039000D01*
X165519000Y-124037000D01*
X165521000Y-124036000D01*
X165523000Y-124034000D01*
X165525000Y-124033000D01*
X165527000Y-124031000D01*
X165530000Y-124030000D01*
X165532000Y-124029000D01*
X165535000Y-124028000D01*
X165537000Y-124027000D01*
X165540000Y-124026000D01*
X165542000Y-124026000D01*
X165545000Y-124025000D01*
X165547000Y-124025000D01*
X165550000Y-124025000D01*
X165553000Y-124025000D01*
X167322000Y-124025000D01*
X167325000Y-124025000D01*
X167328000Y-124025000D01*
X167330000Y-124025000D01*
X167333000Y-124026000D01*
G36*
X167333000Y-124026000D02*
G01*
X167335000Y-124026000D01*
X167338000Y-124027000D01*
X167340000Y-124028000D01*
X167343000Y-124029000D01*
X167345000Y-124030000D01*
X167348000Y-124031000D01*
X167350000Y-124033000D01*
X167352000Y-124034000D01*
X167354000Y-124036000D01*
X167356000Y-124037000D01*
X167358000Y-124039000D01*
X167360000Y-124041000D01*
X167361000Y-124043000D01*
X167363000Y-124045000D01*
X167364000Y-124047000D01*
X167366000Y-124050000D01*
X167367000Y-124052000D01*
X167368000Y-124054000D01*
X167369000Y-124057000D01*
X167370000Y-124059000D01*
X167371000Y-124062000D01*
X167371000Y-124064000D01*
X167372000Y-124067000D01*
X167372000Y-124069000D01*
X167372000Y-124072000D01*
X167372000Y-124074000D01*
X167372500Y-124074500D01*
X167372000Y-124700000D01*
X167372000Y-124702000D01*
X167372000Y-124705000D01*
X167372000Y-124707000D01*
X167371000Y-124710000D01*
X167371000Y-124712000D01*
X167370000Y-124715000D01*
X167369000Y-124717000D01*
X167368000Y-124720000D01*
X167367000Y-124722000D01*
X167366000Y-124725000D01*
X167364000Y-124727000D01*
X167363000Y-124729000D01*
X167361000Y-124731000D01*
X167360000Y-124733000D01*
X167358000Y-124735000D01*
X167356000Y-124737000D01*
X167354000Y-124738000D01*
X167352000Y-124740000D01*
X167350000Y-124741000D01*
X167348000Y-124743000D01*
X167345000Y-124744000D01*
X167343000Y-124745000D01*
X167340000Y-124746000D01*
X167338000Y-124747000D01*
X167335000Y-124748000D01*
X167333000Y-124748000D01*
X167330000Y-124749000D01*
X167328000Y-124749000D01*
X167325000Y-124749000D01*
X167322000Y-124750000D01*
X165553000Y-124750000D01*
X165550000Y-124749000D01*
X165547000Y-124749000D01*
X165545000Y-124749000D01*
X165542000Y-124748000D01*
X165540000Y-124748000D01*
X165537000Y-124747000D01*
X165535000Y-124746000D01*
X165532000Y-124745000D01*
X165530000Y-124744000D01*
X165527000Y-124743000D01*
X165525000Y-124741000D01*
X165523000Y-124740000D01*
X165521000Y-124738000D01*
X165519000Y-124737000D01*
X165517000Y-124735000D01*
X165515000Y-124733000D01*
X165514000Y-124731000D01*
X165512000Y-124729000D01*
X165511000Y-124727000D01*
X165509000Y-124725000D01*
X165508000Y-124722000D01*
X165507000Y-124720000D01*
X165506000Y-124717000D01*
X165505000Y-124715000D01*
X165504000Y-124712000D01*
X165504000Y-124710000D01*
X165503000Y-124707000D01*
X165503000Y-124705000D01*
X165503000Y-124702000D01*
X165502000Y-124700000D01*
X165502000Y-124074000D01*
X165503000Y-124072000D01*
X165503000Y-124069000D01*
X165503000Y-124067000D01*
X165504000Y-124064000D01*
X165504000Y-124062000D01*
X165505000Y-124059000D01*
X165506000Y-124057000D01*
X165507000Y-124054000D01*
X165508000Y-124052000D01*
X165509000Y-124050000D01*
X165511000Y-124047000D01*
X165512000Y-124045000D01*
X165514000Y-124043000D01*
X165515000Y-124041000D01*
X165517000Y-124039000D01*
X165519000Y-124037000D01*
X165521000Y-124036000D01*
X165523000Y-124034000D01*
X165525000Y-124033000D01*
X165527000Y-124031000D01*
X165530000Y-124030000D01*
X165532000Y-124029000D01*
X165535000Y-124028000D01*
X165537000Y-124027000D01*
X165540000Y-124026000D01*
X165542000Y-124026000D01*
X165545000Y-124025000D01*
X165547000Y-124025000D01*
X165550000Y-124025000D01*
X165553000Y-124025000D01*
X167322000Y-124025000D01*
X167325000Y-124025000D01*
X167328000Y-124025000D01*
X167330000Y-124025000D01*
X167333000Y-124026000D01*
G37*
X167325000Y-125701000D02*
X167328000Y-125701000D01*
X167330000Y-125701000D01*
X167333000Y-125702000D01*
X167335000Y-125702000D01*
X167338000Y-125703000D01*
X167340000Y-125704000D01*
X167343000Y-125705000D01*
X167345000Y-125706000D01*
X167348000Y-125707000D01*
X167350000Y-125709000D01*
X167352000Y-125710000D01*
X167354000Y-125712000D01*
X167356000Y-125713000D01*
X167358000Y-125715000D01*
X167360000Y-125717000D01*
X167361000Y-125719000D01*
X167363000Y-125721000D01*
X167364000Y-125723000D01*
X167366000Y-125725000D01*
X167367000Y-125728000D01*
X167368000Y-125730000D01*
X167369000Y-125733000D01*
X167370000Y-125735000D01*
X167371000Y-125738000D01*
X167371000Y-125740000D01*
X167372000Y-125743000D01*
X167372000Y-125745000D01*
X167372000Y-125748000D01*
X167372000Y-125750000D01*
X167372500Y-126375500D01*
X167372000Y-126376000D01*
X167372000Y-126378000D01*
X167372000Y-126381000D01*
X167372000Y-126383000D01*
X167371000Y-126386000D01*
X167371000Y-126388000D01*
X167370000Y-126391000D01*
X167369000Y-126393000D01*
X167368000Y-126396000D01*
X167367000Y-126398000D01*
X167366000Y-126400000D01*
X167364000Y-126403000D01*
X167363000Y-126405000D01*
X167361000Y-126407000D01*
X167360000Y-126409000D01*
X167358000Y-126411000D01*
X167356000Y-126413000D01*
X167354000Y-126414000D01*
X167352000Y-126416000D01*
X167350000Y-126417000D01*
X167348000Y-126419000D01*
X167345000Y-126420000D01*
X167343000Y-126421000D01*
X167340000Y-126422000D01*
X167338000Y-126423000D01*
X167335000Y-126424000D01*
X167333000Y-126424000D01*
X167330000Y-126425000D01*
X167328000Y-126425000D01*
X167325000Y-126425000D01*
X167322000Y-126425000D01*
X165553000Y-126425000D01*
X165550000Y-126425000D01*
X165547000Y-126425000D01*
X165545000Y-126425000D01*
X165542000Y-126424000D01*
X165540000Y-126424000D01*
X165537000Y-126423000D01*
X165535000Y-126422000D01*
X165532000Y-126421000D01*
X165530000Y-126420000D01*
X165527000Y-126419000D01*
X165525000Y-126417000D01*
X165523000Y-126416000D01*
X165521000Y-126414000D01*
X165519000Y-126413000D01*
X165517000Y-126411000D01*
X165515000Y-126409000D01*
X165514000Y-126407000D01*
X165512000Y-126405000D01*
X165511000Y-126403000D01*
X165509000Y-126400000D01*
X165508000Y-126398000D01*
X165507000Y-126396000D01*
X165506000Y-126393000D01*
X165505000Y-126391000D01*
X165504000Y-126388000D01*
X165504000Y-126386000D01*
X165503000Y-126383000D01*
X165503000Y-126381000D01*
X165503000Y-126378000D01*
X165502000Y-126376000D01*
X165502000Y-125750000D01*
X165503000Y-125748000D01*
X165503000Y-125745000D01*
X165503000Y-125743000D01*
X165504000Y-125740000D01*
X165504000Y-125738000D01*
X165505000Y-125735000D01*
X165506000Y-125733000D01*
X165507000Y-125730000D01*
X165508000Y-125728000D01*
X165509000Y-125725000D01*
X165511000Y-125723000D01*
X165512000Y-125721000D01*
X165514000Y-125719000D01*
X165515000Y-125717000D01*
X165517000Y-125715000D01*
X165519000Y-125713000D01*
X165521000Y-125712000D01*
X165523000Y-125710000D01*
X165525000Y-125709000D01*
X165527000Y-125707000D01*
X165530000Y-125706000D01*
X165532000Y-125705000D01*
X165535000Y-125704000D01*
X165537000Y-125703000D01*
X165540000Y-125702000D01*
X165542000Y-125702000D01*
X165545000Y-125701000D01*
X165547000Y-125701000D01*
X165550000Y-125701000D01*
X165553000Y-125700000D01*
X167322000Y-125700000D01*
X167325000Y-125701000D01*
G36*
X167325000Y-125701000D02*
G01*
X167328000Y-125701000D01*
X167330000Y-125701000D01*
X167333000Y-125702000D01*
X167335000Y-125702000D01*
X167338000Y-125703000D01*
X167340000Y-125704000D01*
X167343000Y-125705000D01*
X167345000Y-125706000D01*
X167348000Y-125707000D01*
X167350000Y-125709000D01*
X167352000Y-125710000D01*
X167354000Y-125712000D01*
X167356000Y-125713000D01*
X167358000Y-125715000D01*
X167360000Y-125717000D01*
X167361000Y-125719000D01*
X167363000Y-125721000D01*
X167364000Y-125723000D01*
X167366000Y-125725000D01*
X167367000Y-125728000D01*
X167368000Y-125730000D01*
X167369000Y-125733000D01*
X167370000Y-125735000D01*
X167371000Y-125738000D01*
X167371000Y-125740000D01*
X167372000Y-125743000D01*
X167372000Y-125745000D01*
X167372000Y-125748000D01*
X167372000Y-125750000D01*
X167372500Y-126375500D01*
X167372000Y-126376000D01*
X167372000Y-126378000D01*
X167372000Y-126381000D01*
X167372000Y-126383000D01*
X167371000Y-126386000D01*
X167371000Y-126388000D01*
X167370000Y-126391000D01*
X167369000Y-126393000D01*
X167368000Y-126396000D01*
X167367000Y-126398000D01*
X167366000Y-126400000D01*
X167364000Y-126403000D01*
X167363000Y-126405000D01*
X167361000Y-126407000D01*
X167360000Y-126409000D01*
X167358000Y-126411000D01*
X167356000Y-126413000D01*
X167354000Y-126414000D01*
X167352000Y-126416000D01*
X167350000Y-126417000D01*
X167348000Y-126419000D01*
X167345000Y-126420000D01*
X167343000Y-126421000D01*
X167340000Y-126422000D01*
X167338000Y-126423000D01*
X167335000Y-126424000D01*
X167333000Y-126424000D01*
X167330000Y-126425000D01*
X167328000Y-126425000D01*
X167325000Y-126425000D01*
X167322000Y-126425000D01*
X165553000Y-126425000D01*
X165550000Y-126425000D01*
X165547000Y-126425000D01*
X165545000Y-126425000D01*
X165542000Y-126424000D01*
X165540000Y-126424000D01*
X165537000Y-126423000D01*
X165535000Y-126422000D01*
X165532000Y-126421000D01*
X165530000Y-126420000D01*
X165527000Y-126419000D01*
X165525000Y-126417000D01*
X165523000Y-126416000D01*
X165521000Y-126414000D01*
X165519000Y-126413000D01*
X165517000Y-126411000D01*
X165515000Y-126409000D01*
X165514000Y-126407000D01*
X165512000Y-126405000D01*
X165511000Y-126403000D01*
X165509000Y-126400000D01*
X165508000Y-126398000D01*
X165507000Y-126396000D01*
X165506000Y-126393000D01*
X165505000Y-126391000D01*
X165504000Y-126388000D01*
X165504000Y-126386000D01*
X165503000Y-126383000D01*
X165503000Y-126381000D01*
X165503000Y-126378000D01*
X165502000Y-126376000D01*
X165502000Y-125750000D01*
X165503000Y-125748000D01*
X165503000Y-125745000D01*
X165503000Y-125743000D01*
X165504000Y-125740000D01*
X165504000Y-125738000D01*
X165505000Y-125735000D01*
X165506000Y-125733000D01*
X165507000Y-125730000D01*
X165508000Y-125728000D01*
X165509000Y-125725000D01*
X165511000Y-125723000D01*
X165512000Y-125721000D01*
X165514000Y-125719000D01*
X165515000Y-125717000D01*
X165517000Y-125715000D01*
X165519000Y-125713000D01*
X165521000Y-125712000D01*
X165523000Y-125710000D01*
X165525000Y-125709000D01*
X165527000Y-125707000D01*
X165530000Y-125706000D01*
X165532000Y-125705000D01*
X165535000Y-125704000D01*
X165537000Y-125703000D01*
X165540000Y-125702000D01*
X165542000Y-125702000D01*
X165545000Y-125701000D01*
X165547000Y-125701000D01*
X165550000Y-125701000D01*
X165553000Y-125700000D01*
X167322000Y-125700000D01*
X167325000Y-125701000D01*
G37*
X163458000Y-123376000D02*
X163460000Y-123376000D01*
X163463000Y-123377000D01*
X163465000Y-123377000D01*
X163468000Y-123378000D01*
X163470000Y-123379000D01*
X163473000Y-123380000D01*
X163475000Y-123382000D01*
X163477000Y-123383000D01*
X163479000Y-123385000D01*
X163481000Y-123386000D01*
X163483000Y-123388000D01*
X163485000Y-123390000D01*
X163487000Y-123392000D01*
X163489000Y-123394000D01*
X163490000Y-123396000D01*
X163492000Y-123398000D01*
X163493000Y-123400000D01*
X163495000Y-123402000D01*
X163496000Y-123405000D01*
X163497000Y-123407000D01*
X163498000Y-123410000D01*
X163498000Y-123412000D01*
X163499000Y-123415000D01*
X163499000Y-123417000D01*
X163500000Y-123420000D01*
X163500000Y-123422000D01*
X163500000Y-123425000D01*
X163500000Y-124550000D01*
X163500000Y-124553000D01*
X163500000Y-124555000D01*
X163499000Y-124558000D01*
X163499000Y-124560000D01*
X163498000Y-124563000D01*
X163498000Y-124565000D01*
X163497000Y-124568000D01*
X163496000Y-124570000D01*
X163495000Y-124573000D01*
X163493000Y-124575000D01*
X163492000Y-124577000D01*
X163490000Y-124579000D01*
X163489000Y-124581000D01*
X163487000Y-124583000D01*
X163485000Y-124585000D01*
X163483000Y-124587000D01*
X163481000Y-124589000D01*
X163479000Y-124590000D01*
X163477000Y-124592000D01*
X163475000Y-124593000D01*
X163473000Y-124595000D01*
X163470000Y-124596000D01*
X163468000Y-124597000D01*
X163465000Y-124598000D01*
X163463000Y-124598000D01*
X163460000Y-124599000D01*
X163458000Y-124599000D01*
X163455000Y-124600000D01*
X163453000Y-124600000D01*
X163450000Y-124600000D01*
X162950000Y-124600000D01*
X162947000Y-124600000D01*
X162945000Y-124600000D01*
X162942000Y-124599000D01*
X162940000Y-124599000D01*
X162937000Y-124598000D01*
X162935000Y-124598000D01*
X162932000Y-124597000D01*
X162930000Y-124596000D01*
X162927000Y-124595000D01*
X162925000Y-124593000D01*
X162923000Y-124592000D01*
X162921000Y-124590000D01*
X162919000Y-124589000D01*
X162917000Y-124587000D01*
X162915000Y-124585000D01*
X162913000Y-124583000D01*
X162911000Y-124581000D01*
X162910000Y-124579000D01*
X162908000Y-124577000D01*
X162907000Y-124575000D01*
X162905000Y-124573000D01*
X162904000Y-124570000D01*
X162903000Y-124568000D01*
X162902000Y-124565000D01*
X162902000Y-124563000D01*
X162901000Y-124560000D01*
X162901000Y-124558000D01*
X162900000Y-124555000D01*
X162900000Y-124553000D01*
X162900000Y-124550000D01*
X162900000Y-124300000D01*
X162900000Y-124297000D01*
X162900000Y-124295000D01*
X162901000Y-124292000D01*
X162901000Y-124290000D01*
X162902000Y-124287000D01*
X162902000Y-124285000D01*
X162903000Y-124282000D01*
X162904000Y-124280000D01*
X162905000Y-124277000D01*
X162907000Y-124275000D01*
X162908000Y-124273000D01*
X162910000Y-124271000D01*
X162911000Y-124269000D01*
X162913000Y-124267000D01*
X162915000Y-124265000D01*
X162917000Y-124263000D01*
X162919000Y-124261000D01*
X162921000Y-124260000D01*
X162923000Y-124258000D01*
X162925000Y-124257000D01*
X162927000Y-124255000D01*
X162930000Y-124254000D01*
X162932000Y-124253000D01*
X162935000Y-124252000D01*
X162937000Y-124252000D01*
X162940000Y-124251000D01*
X162942000Y-124251000D01*
X162945000Y-124250000D01*
X162947000Y-124250000D01*
X162950000Y-124250000D01*
X163150000Y-124250000D01*
X163155000Y-124250000D01*
X163160000Y-124249000D01*
X163166000Y-124249000D01*
X163171000Y-124248000D01*
X163176000Y-124247000D01*
X163181000Y-124245000D01*
X163186000Y-124243000D01*
X163191000Y-124241000D01*
X163195000Y-124239000D01*
X163200000Y-124237000D01*
X163204000Y-124234000D01*
X163209000Y-124231000D01*
X163213000Y-124228000D01*
X163217000Y-124224000D01*
X163221000Y-124221000D01*
X163224000Y-124217000D01*
X163228000Y-124213000D01*
X163231000Y-124209000D01*
X163234000Y-124204000D01*
X163237000Y-124200000D01*
X163239000Y-124195000D01*
X163241000Y-124191000D01*
X163243000Y-124186000D01*
X163245000Y-124181000D01*
X163247000Y-124176000D01*
X163248000Y-124171000D01*
X163249000Y-124166000D01*
X163249000Y-124160000D01*
X163250000Y-124155000D01*
X163250000Y-124150000D01*
X163250000Y-123425000D01*
X163250000Y-123422000D01*
X163250000Y-123420000D01*
X163251000Y-123417000D01*
X163251000Y-123415000D01*
X163252000Y-123412000D01*
X163252000Y-123410000D01*
X163253000Y-123407000D01*
X163254000Y-123405000D01*
X163255000Y-123402000D01*
X163257000Y-123400000D01*
X163258000Y-123398000D01*
X163260000Y-123396000D01*
X163261000Y-123394000D01*
X163263000Y-123392000D01*
X163265000Y-123390000D01*
X163267000Y-123388000D01*
X163269000Y-123386000D01*
X163271000Y-123385000D01*
X163273000Y-123383000D01*
X163275000Y-123382000D01*
X163277000Y-123380000D01*
X163280000Y-123379000D01*
X163282000Y-123378000D01*
X163285000Y-123377000D01*
X163287000Y-123377000D01*
X163290000Y-123376000D01*
X163292000Y-123376000D01*
X163295000Y-123375000D01*
X163297000Y-123375000D01*
X163300000Y-123375000D01*
X163450000Y-123375000D01*
X163453000Y-123375000D01*
X163455000Y-123375000D01*
X163458000Y-123376000D01*
G36*
X163458000Y-123376000D02*
G01*
X163460000Y-123376000D01*
X163463000Y-123377000D01*
X163465000Y-123377000D01*
X163468000Y-123378000D01*
X163470000Y-123379000D01*
X163473000Y-123380000D01*
X163475000Y-123382000D01*
X163477000Y-123383000D01*
X163479000Y-123385000D01*
X163481000Y-123386000D01*
X163483000Y-123388000D01*
X163485000Y-123390000D01*
X163487000Y-123392000D01*
X163489000Y-123394000D01*
X163490000Y-123396000D01*
X163492000Y-123398000D01*
X163493000Y-123400000D01*
X163495000Y-123402000D01*
X163496000Y-123405000D01*
X163497000Y-123407000D01*
X163498000Y-123410000D01*
X163498000Y-123412000D01*
X163499000Y-123415000D01*
X163499000Y-123417000D01*
X163500000Y-123420000D01*
X163500000Y-123422000D01*
X163500000Y-123425000D01*
X163500000Y-124550000D01*
X163500000Y-124553000D01*
X163500000Y-124555000D01*
X163499000Y-124558000D01*
X163499000Y-124560000D01*
X163498000Y-124563000D01*
X163498000Y-124565000D01*
X163497000Y-124568000D01*
X163496000Y-124570000D01*
X163495000Y-124573000D01*
X163493000Y-124575000D01*
X163492000Y-124577000D01*
X163490000Y-124579000D01*
X163489000Y-124581000D01*
X163487000Y-124583000D01*
X163485000Y-124585000D01*
X163483000Y-124587000D01*
X163481000Y-124589000D01*
X163479000Y-124590000D01*
X163477000Y-124592000D01*
X163475000Y-124593000D01*
X163473000Y-124595000D01*
X163470000Y-124596000D01*
X163468000Y-124597000D01*
X163465000Y-124598000D01*
X163463000Y-124598000D01*
X163460000Y-124599000D01*
X163458000Y-124599000D01*
X163455000Y-124600000D01*
X163453000Y-124600000D01*
X163450000Y-124600000D01*
X162950000Y-124600000D01*
X162947000Y-124600000D01*
X162945000Y-124600000D01*
X162942000Y-124599000D01*
X162940000Y-124599000D01*
X162937000Y-124598000D01*
X162935000Y-124598000D01*
X162932000Y-124597000D01*
X162930000Y-124596000D01*
X162927000Y-124595000D01*
X162925000Y-124593000D01*
X162923000Y-124592000D01*
X162921000Y-124590000D01*
X162919000Y-124589000D01*
X162917000Y-124587000D01*
X162915000Y-124585000D01*
X162913000Y-124583000D01*
X162911000Y-124581000D01*
X162910000Y-124579000D01*
X162908000Y-124577000D01*
X162907000Y-124575000D01*
X162905000Y-124573000D01*
X162904000Y-124570000D01*
X162903000Y-124568000D01*
X162902000Y-124565000D01*
X162902000Y-124563000D01*
X162901000Y-124560000D01*
X162901000Y-124558000D01*
X162900000Y-124555000D01*
X162900000Y-124553000D01*
X162900000Y-124550000D01*
X162900000Y-124300000D01*
X162900000Y-124297000D01*
X162900000Y-124295000D01*
X162901000Y-124292000D01*
X162901000Y-124290000D01*
X162902000Y-124287000D01*
X162902000Y-124285000D01*
X162903000Y-124282000D01*
X162904000Y-124280000D01*
X162905000Y-124277000D01*
X162907000Y-124275000D01*
X162908000Y-124273000D01*
X162910000Y-124271000D01*
X162911000Y-124269000D01*
X162913000Y-124267000D01*
X162915000Y-124265000D01*
X162917000Y-124263000D01*
X162919000Y-124261000D01*
X162921000Y-124260000D01*
X162923000Y-124258000D01*
X162925000Y-124257000D01*
X162927000Y-124255000D01*
X162930000Y-124254000D01*
X162932000Y-124253000D01*
X162935000Y-124252000D01*
X162937000Y-124252000D01*
X162940000Y-124251000D01*
X162942000Y-124251000D01*
X162945000Y-124250000D01*
X162947000Y-124250000D01*
X162950000Y-124250000D01*
X163150000Y-124250000D01*
X163155000Y-124250000D01*
X163160000Y-124249000D01*
X163166000Y-124249000D01*
X163171000Y-124248000D01*
X163176000Y-124247000D01*
X163181000Y-124245000D01*
X163186000Y-124243000D01*
X163191000Y-124241000D01*
X163195000Y-124239000D01*
X163200000Y-124237000D01*
X163204000Y-124234000D01*
X163209000Y-124231000D01*
X163213000Y-124228000D01*
X163217000Y-124224000D01*
X163221000Y-124221000D01*
X163224000Y-124217000D01*
X163228000Y-124213000D01*
X163231000Y-124209000D01*
X163234000Y-124204000D01*
X163237000Y-124200000D01*
X163239000Y-124195000D01*
X163241000Y-124191000D01*
X163243000Y-124186000D01*
X163245000Y-124181000D01*
X163247000Y-124176000D01*
X163248000Y-124171000D01*
X163249000Y-124166000D01*
X163249000Y-124160000D01*
X163250000Y-124155000D01*
X163250000Y-124150000D01*
X163250000Y-123425000D01*
X163250000Y-123422000D01*
X163250000Y-123420000D01*
X163251000Y-123417000D01*
X163251000Y-123415000D01*
X163252000Y-123412000D01*
X163252000Y-123410000D01*
X163253000Y-123407000D01*
X163254000Y-123405000D01*
X163255000Y-123402000D01*
X163257000Y-123400000D01*
X163258000Y-123398000D01*
X163260000Y-123396000D01*
X163261000Y-123394000D01*
X163263000Y-123392000D01*
X163265000Y-123390000D01*
X163267000Y-123388000D01*
X163269000Y-123386000D01*
X163271000Y-123385000D01*
X163273000Y-123383000D01*
X163275000Y-123382000D01*
X163277000Y-123380000D01*
X163280000Y-123379000D01*
X163282000Y-123378000D01*
X163285000Y-123377000D01*
X163287000Y-123377000D01*
X163290000Y-123376000D01*
X163292000Y-123376000D01*
X163295000Y-123375000D01*
X163297000Y-123375000D01*
X163300000Y-123375000D01*
X163450000Y-123375000D01*
X163453000Y-123375000D01*
X163455000Y-123375000D01*
X163458000Y-123376000D01*
G37*
X163458000Y-125851000D02*
X163460000Y-125851000D01*
X163463000Y-125852000D01*
X163465000Y-125852000D01*
X163468000Y-125853000D01*
X163470000Y-125854000D01*
X163473000Y-125855000D01*
X163475000Y-125857000D01*
X163477000Y-125858000D01*
X163479000Y-125860000D01*
X163481000Y-125861000D01*
X163483000Y-125863000D01*
X163485000Y-125865000D01*
X163487000Y-125867000D01*
X163489000Y-125869000D01*
X163490000Y-125871000D01*
X163492000Y-125873000D01*
X163493000Y-125875000D01*
X163495000Y-125877000D01*
X163496000Y-125880000D01*
X163497000Y-125882000D01*
X163498000Y-125885000D01*
X163498000Y-125887000D01*
X163499000Y-125890000D01*
X163499000Y-125892000D01*
X163500000Y-125895000D01*
X163500000Y-125897000D01*
X163500000Y-125900000D01*
X163500000Y-127025000D01*
X163500000Y-127028000D01*
X163500000Y-127030000D01*
X163499000Y-127033000D01*
X163499000Y-127035000D01*
X163498000Y-127038000D01*
X163498000Y-127040000D01*
X163497000Y-127043000D01*
X163496000Y-127045000D01*
X163495000Y-127048000D01*
X163493000Y-127050000D01*
X163492000Y-127052000D01*
X163490000Y-127054000D01*
X163489000Y-127056000D01*
X163487000Y-127058000D01*
X163485000Y-127060000D01*
X163483000Y-127062000D01*
X163481000Y-127064000D01*
X163479000Y-127065000D01*
X163477000Y-127067000D01*
X163475000Y-127068000D01*
X163473000Y-127070000D01*
X163470000Y-127071000D01*
X163468000Y-127072000D01*
X163465000Y-127073000D01*
X163463000Y-127073000D01*
X163460000Y-127074000D01*
X163458000Y-127074000D01*
X163455000Y-127075000D01*
X163453000Y-127075000D01*
X163450000Y-127075000D01*
X163300000Y-127075000D01*
X163297000Y-127075000D01*
X163295000Y-127075000D01*
X163292000Y-127074000D01*
X163290000Y-127074000D01*
X163287000Y-127073000D01*
X163285000Y-127073000D01*
X163282000Y-127072000D01*
X163280000Y-127071000D01*
X163277000Y-127070000D01*
X163275000Y-127068000D01*
X163273000Y-127067000D01*
X163271000Y-127065000D01*
X163269000Y-127064000D01*
X163267000Y-127062000D01*
X163265000Y-127060000D01*
X163263000Y-127058000D01*
X163261000Y-127056000D01*
X163260000Y-127054000D01*
X163258000Y-127052000D01*
X163257000Y-127050000D01*
X163255000Y-127048000D01*
X163254000Y-127045000D01*
X163253000Y-127043000D01*
X163252000Y-127040000D01*
X163252000Y-127038000D01*
X163251000Y-127035000D01*
X163251000Y-127033000D01*
X163250000Y-127030000D01*
X163250000Y-127028000D01*
X163250000Y-127025000D01*
X163250000Y-126300000D01*
X163250000Y-126295000D01*
X163249000Y-126290000D01*
X163249000Y-126284000D01*
X163248000Y-126279000D01*
X163247000Y-126274000D01*
X163245000Y-126269000D01*
X163243000Y-126264000D01*
X163241000Y-126259000D01*
X163239000Y-126255000D01*
X163237000Y-126250000D01*
X163234000Y-126246000D01*
X163231000Y-126241000D01*
X163228000Y-126237000D01*
X163224000Y-126233000D01*
X163221000Y-126229000D01*
X163217000Y-126226000D01*
X163213000Y-126222000D01*
X163209000Y-126219000D01*
X163204000Y-126216000D01*
X163200000Y-126213000D01*
X163195000Y-126211000D01*
X163191000Y-126209000D01*
X163186000Y-126207000D01*
X163181000Y-126205000D01*
X163176000Y-126203000D01*
X163171000Y-126202000D01*
X163166000Y-126201000D01*
X163160000Y-126201000D01*
X163155000Y-126200000D01*
X163150000Y-126200000D01*
X162950000Y-126200000D01*
X162947000Y-126200000D01*
X162945000Y-126200000D01*
X162942000Y-126199000D01*
X162940000Y-126199000D01*
X162937000Y-126198000D01*
X162935000Y-126198000D01*
X162932000Y-126197000D01*
X162930000Y-126196000D01*
X162927000Y-126195000D01*
X162925000Y-126193000D01*
X162923000Y-126192000D01*
X162921000Y-126190000D01*
X162919000Y-126189000D01*
X162917000Y-126187000D01*
X162915000Y-126185000D01*
X162913000Y-126183000D01*
X162911000Y-126181000D01*
X162910000Y-126179000D01*
X162908000Y-126177000D01*
X162907000Y-126175000D01*
X162905000Y-126173000D01*
X162904000Y-126170000D01*
X162903000Y-126168000D01*
X162902000Y-126165000D01*
X162902000Y-126163000D01*
X162901000Y-126160000D01*
X162901000Y-126158000D01*
X162900000Y-126155000D01*
X162900000Y-126153000D01*
X162900000Y-126150000D01*
X162900000Y-125900000D01*
X162900000Y-125897000D01*
X162900000Y-125895000D01*
X162901000Y-125892000D01*
X162901000Y-125890000D01*
X162902000Y-125887000D01*
X162902000Y-125885000D01*
X162903000Y-125882000D01*
X162904000Y-125880000D01*
X162905000Y-125877000D01*
X162907000Y-125875000D01*
X162908000Y-125873000D01*
X162910000Y-125871000D01*
X162911000Y-125869000D01*
X162913000Y-125867000D01*
X162915000Y-125865000D01*
X162917000Y-125863000D01*
X162919000Y-125861000D01*
X162921000Y-125860000D01*
X162923000Y-125858000D01*
X162925000Y-125857000D01*
X162927000Y-125855000D01*
X162930000Y-125854000D01*
X162932000Y-125853000D01*
X162935000Y-125852000D01*
X162937000Y-125852000D01*
X162940000Y-125851000D01*
X162942000Y-125851000D01*
X162945000Y-125850000D01*
X162947000Y-125850000D01*
X162950000Y-125850000D01*
X163450000Y-125850000D01*
X163453000Y-125850000D01*
X163455000Y-125850000D01*
X163458000Y-125851000D01*
G36*
X163458000Y-125851000D02*
G01*
X163460000Y-125851000D01*
X163463000Y-125852000D01*
X163465000Y-125852000D01*
X163468000Y-125853000D01*
X163470000Y-125854000D01*
X163473000Y-125855000D01*
X163475000Y-125857000D01*
X163477000Y-125858000D01*
X163479000Y-125860000D01*
X163481000Y-125861000D01*
X163483000Y-125863000D01*
X163485000Y-125865000D01*
X163487000Y-125867000D01*
X163489000Y-125869000D01*
X163490000Y-125871000D01*
X163492000Y-125873000D01*
X163493000Y-125875000D01*
X163495000Y-125877000D01*
X163496000Y-125880000D01*
X163497000Y-125882000D01*
X163498000Y-125885000D01*
X163498000Y-125887000D01*
X163499000Y-125890000D01*
X163499000Y-125892000D01*
X163500000Y-125895000D01*
X163500000Y-125897000D01*
X163500000Y-125900000D01*
X163500000Y-127025000D01*
X163500000Y-127028000D01*
X163500000Y-127030000D01*
X163499000Y-127033000D01*
X163499000Y-127035000D01*
X163498000Y-127038000D01*
X163498000Y-127040000D01*
X163497000Y-127043000D01*
X163496000Y-127045000D01*
X163495000Y-127048000D01*
X163493000Y-127050000D01*
X163492000Y-127052000D01*
X163490000Y-127054000D01*
X163489000Y-127056000D01*
X163487000Y-127058000D01*
X163485000Y-127060000D01*
X163483000Y-127062000D01*
X163481000Y-127064000D01*
X163479000Y-127065000D01*
X163477000Y-127067000D01*
X163475000Y-127068000D01*
X163473000Y-127070000D01*
X163470000Y-127071000D01*
X163468000Y-127072000D01*
X163465000Y-127073000D01*
X163463000Y-127073000D01*
X163460000Y-127074000D01*
X163458000Y-127074000D01*
X163455000Y-127075000D01*
X163453000Y-127075000D01*
X163450000Y-127075000D01*
X163300000Y-127075000D01*
X163297000Y-127075000D01*
X163295000Y-127075000D01*
X163292000Y-127074000D01*
X163290000Y-127074000D01*
X163287000Y-127073000D01*
X163285000Y-127073000D01*
X163282000Y-127072000D01*
X163280000Y-127071000D01*
X163277000Y-127070000D01*
X163275000Y-127068000D01*
X163273000Y-127067000D01*
X163271000Y-127065000D01*
X163269000Y-127064000D01*
X163267000Y-127062000D01*
X163265000Y-127060000D01*
X163263000Y-127058000D01*
X163261000Y-127056000D01*
X163260000Y-127054000D01*
X163258000Y-127052000D01*
X163257000Y-127050000D01*
X163255000Y-127048000D01*
X163254000Y-127045000D01*
X163253000Y-127043000D01*
X163252000Y-127040000D01*
X163252000Y-127038000D01*
X163251000Y-127035000D01*
X163251000Y-127033000D01*
X163250000Y-127030000D01*
X163250000Y-127028000D01*
X163250000Y-127025000D01*
X163250000Y-126300000D01*
X163250000Y-126295000D01*
X163249000Y-126290000D01*
X163249000Y-126284000D01*
X163248000Y-126279000D01*
X163247000Y-126274000D01*
X163245000Y-126269000D01*
X163243000Y-126264000D01*
X163241000Y-126259000D01*
X163239000Y-126255000D01*
X163237000Y-126250000D01*
X163234000Y-126246000D01*
X163231000Y-126241000D01*
X163228000Y-126237000D01*
X163224000Y-126233000D01*
X163221000Y-126229000D01*
X163217000Y-126226000D01*
X163213000Y-126222000D01*
X163209000Y-126219000D01*
X163204000Y-126216000D01*
X163200000Y-126213000D01*
X163195000Y-126211000D01*
X163191000Y-126209000D01*
X163186000Y-126207000D01*
X163181000Y-126205000D01*
X163176000Y-126203000D01*
X163171000Y-126202000D01*
X163166000Y-126201000D01*
X163160000Y-126201000D01*
X163155000Y-126200000D01*
X163150000Y-126200000D01*
X162950000Y-126200000D01*
X162947000Y-126200000D01*
X162945000Y-126200000D01*
X162942000Y-126199000D01*
X162940000Y-126199000D01*
X162937000Y-126198000D01*
X162935000Y-126198000D01*
X162932000Y-126197000D01*
X162930000Y-126196000D01*
X162927000Y-126195000D01*
X162925000Y-126193000D01*
X162923000Y-126192000D01*
X162921000Y-126190000D01*
X162919000Y-126189000D01*
X162917000Y-126187000D01*
X162915000Y-126185000D01*
X162913000Y-126183000D01*
X162911000Y-126181000D01*
X162910000Y-126179000D01*
X162908000Y-126177000D01*
X162907000Y-126175000D01*
X162905000Y-126173000D01*
X162904000Y-126170000D01*
X162903000Y-126168000D01*
X162902000Y-126165000D01*
X162902000Y-126163000D01*
X162901000Y-126160000D01*
X162901000Y-126158000D01*
X162900000Y-126155000D01*
X162900000Y-126153000D01*
X162900000Y-126150000D01*
X162900000Y-125900000D01*
X162900000Y-125897000D01*
X162900000Y-125895000D01*
X162901000Y-125892000D01*
X162901000Y-125890000D01*
X162902000Y-125887000D01*
X162902000Y-125885000D01*
X162903000Y-125882000D01*
X162904000Y-125880000D01*
X162905000Y-125877000D01*
X162907000Y-125875000D01*
X162908000Y-125873000D01*
X162910000Y-125871000D01*
X162911000Y-125869000D01*
X162913000Y-125867000D01*
X162915000Y-125865000D01*
X162917000Y-125863000D01*
X162919000Y-125861000D01*
X162921000Y-125860000D01*
X162923000Y-125858000D01*
X162925000Y-125857000D01*
X162927000Y-125855000D01*
X162930000Y-125854000D01*
X162932000Y-125853000D01*
X162935000Y-125852000D01*
X162937000Y-125852000D01*
X162940000Y-125851000D01*
X162942000Y-125851000D01*
X162945000Y-125850000D01*
X162947000Y-125850000D01*
X162950000Y-125850000D01*
X163450000Y-125850000D01*
X163453000Y-125850000D01*
X163455000Y-125850000D01*
X163458000Y-125851000D01*
G37*
X164458000Y-125876000D02*
X164460000Y-125876000D01*
X164463000Y-125877000D01*
X164465000Y-125877000D01*
X164468000Y-125878000D01*
X164470000Y-125879000D01*
X164473000Y-125880000D01*
X164475000Y-125882000D01*
X164477000Y-125883000D01*
X164479000Y-125885000D01*
X164481000Y-125886000D01*
X164483000Y-125888000D01*
X164485000Y-125890000D01*
X164487000Y-125892000D01*
X164489000Y-125894000D01*
X164490000Y-125896000D01*
X164492000Y-125898000D01*
X164493000Y-125900000D01*
X164495000Y-125902000D01*
X164496000Y-125905000D01*
X164497000Y-125907000D01*
X164498000Y-125910000D01*
X164498000Y-125912000D01*
X164499000Y-125915000D01*
X164499000Y-125917000D01*
X164500000Y-125920000D01*
X164500000Y-125922000D01*
X164500000Y-125925000D01*
X164500000Y-127025000D01*
X164500000Y-127028000D01*
X164500000Y-127030000D01*
X164499000Y-127033000D01*
X164499000Y-127035000D01*
X164498000Y-127038000D01*
X164498000Y-127040000D01*
X164497000Y-127043000D01*
X164496000Y-127045000D01*
X164495000Y-127048000D01*
X164493000Y-127050000D01*
X164492000Y-127052000D01*
X164490000Y-127054000D01*
X164489000Y-127056000D01*
X164487000Y-127058000D01*
X164485000Y-127060000D01*
X164483000Y-127062000D01*
X164481000Y-127064000D01*
X164479000Y-127065000D01*
X164477000Y-127067000D01*
X164475000Y-127068000D01*
X164473000Y-127070000D01*
X164470000Y-127071000D01*
X164468000Y-127072000D01*
X164465000Y-127073000D01*
X164463000Y-127073000D01*
X164460000Y-127074000D01*
X164458000Y-127074000D01*
X164455000Y-127075000D01*
X164453000Y-127075000D01*
X164450000Y-127075000D01*
X164300000Y-127075000D01*
X164297000Y-127075000D01*
X164295000Y-127075000D01*
X164292000Y-127074000D01*
X164290000Y-127074000D01*
X164287000Y-127073000D01*
X164285000Y-127073000D01*
X164282000Y-127072000D01*
X164280000Y-127071000D01*
X164277000Y-127070000D01*
X164275000Y-127068000D01*
X164273000Y-127067000D01*
X164271000Y-127065000D01*
X164269000Y-127064000D01*
X164267000Y-127062000D01*
X164265000Y-127060000D01*
X164263000Y-127058000D01*
X164261000Y-127056000D01*
X164260000Y-127054000D01*
X164258000Y-127052000D01*
X164257000Y-127050000D01*
X164255000Y-127048000D01*
X164254000Y-127045000D01*
X164253000Y-127043000D01*
X164252000Y-127040000D01*
X164252000Y-127038000D01*
X164251000Y-127035000D01*
X164251000Y-127033000D01*
X164250000Y-127030000D01*
X164250000Y-127028000D01*
X164250000Y-127025000D01*
X164250000Y-126725000D01*
X164250000Y-126722000D01*
X164250000Y-126720000D01*
X164249000Y-126717000D01*
X164249000Y-126715000D01*
X164248000Y-126712000D01*
X164248000Y-126710000D01*
X164247000Y-126707000D01*
X164246000Y-126705000D01*
X164245000Y-126702000D01*
X164243000Y-126700000D01*
X164242000Y-126698000D01*
X164240000Y-126696000D01*
X164239000Y-126694000D01*
X164237000Y-126692000D01*
X164235000Y-126690000D01*
X164233000Y-126688000D01*
X164231000Y-126686000D01*
X164229000Y-126685000D01*
X164227000Y-126683000D01*
X164225000Y-126682000D01*
X164223000Y-126680000D01*
X164220000Y-126679000D01*
X164218000Y-126678000D01*
X164215000Y-126677000D01*
X164213000Y-126677000D01*
X164210000Y-126676000D01*
X164208000Y-126676000D01*
X164205000Y-126675000D01*
X164203000Y-126675000D01*
X164200000Y-126675000D01*
X164050000Y-126675000D01*
X164047000Y-126675000D01*
X164045000Y-126675000D01*
X164042000Y-126676000D01*
X164040000Y-126676000D01*
X164037000Y-126677000D01*
X164035000Y-126677000D01*
X164032000Y-126678000D01*
X164030000Y-126679000D01*
X164027000Y-126680000D01*
X164025000Y-126682000D01*
X164023000Y-126683000D01*
X164021000Y-126685000D01*
X164019000Y-126686000D01*
X164017000Y-126688000D01*
X164015000Y-126690000D01*
X164013000Y-126692000D01*
X164011000Y-126694000D01*
X164010000Y-126696000D01*
X164008000Y-126698000D01*
X164007000Y-126700000D01*
X164005000Y-126702000D01*
X164004000Y-126705000D01*
X164003000Y-126707000D01*
X164002000Y-126710000D01*
X164002000Y-126712000D01*
X164001000Y-126715000D01*
X164001000Y-126717000D01*
X164000000Y-126720000D01*
X164000000Y-126722000D01*
X164000000Y-126725000D01*
X164000000Y-127025000D01*
X164000000Y-127028000D01*
X164000000Y-127030000D01*
X163999000Y-127033000D01*
X163999000Y-127035000D01*
X163998000Y-127038000D01*
X163998000Y-127040000D01*
X163997000Y-127043000D01*
X163996000Y-127045000D01*
X163995000Y-127048000D01*
X163993000Y-127050000D01*
X163992000Y-127052000D01*
X163990000Y-127054000D01*
X163989000Y-127056000D01*
X163987000Y-127058000D01*
X163985000Y-127060000D01*
X163983000Y-127062000D01*
X163981000Y-127064000D01*
X163979000Y-127065000D01*
X163977000Y-127067000D01*
X163975000Y-127068000D01*
X163973000Y-127070000D01*
X163970000Y-127071000D01*
X163968000Y-127072000D01*
X163965000Y-127073000D01*
X163963000Y-127073000D01*
X163960000Y-127074000D01*
X163958000Y-127074000D01*
X163955000Y-127075000D01*
X163953000Y-127075000D01*
X163950000Y-127075000D01*
X163800000Y-127075000D01*
X163797000Y-127075000D01*
X163795000Y-127075000D01*
X163792000Y-127074000D01*
X163790000Y-127074000D01*
X163787000Y-127073000D01*
X163785000Y-127073000D01*
X163782000Y-127072000D01*
X163780000Y-127071000D01*
X163777000Y-127070000D01*
X163775000Y-127068000D01*
X163773000Y-127067000D01*
X163771000Y-127065000D01*
X163769000Y-127064000D01*
X163767000Y-127062000D01*
X163765000Y-127060000D01*
X163763000Y-127058000D01*
X163761000Y-127056000D01*
X163760000Y-127054000D01*
X163758000Y-127052000D01*
X163757000Y-127050000D01*
X163755000Y-127048000D01*
X163754000Y-127045000D01*
X163753000Y-127043000D01*
X163752000Y-127040000D01*
X163752000Y-127038000D01*
X163751000Y-127035000D01*
X163751000Y-127033000D01*
X163750000Y-127030000D01*
X163750000Y-127028000D01*
X163750000Y-127025000D01*
X163750000Y-125925000D01*
X163750000Y-125922000D01*
X163750000Y-125920000D01*
X163751000Y-125917000D01*
X163751000Y-125915000D01*
X163752000Y-125912000D01*
X163752000Y-125910000D01*
X163753000Y-125907000D01*
X163754000Y-125905000D01*
X163755000Y-125902000D01*
X163757000Y-125900000D01*
X163758000Y-125898000D01*
X163760000Y-125896000D01*
X163761000Y-125894000D01*
X163763000Y-125892000D01*
X163765000Y-125890000D01*
X163767000Y-125888000D01*
X163769000Y-125886000D01*
X163771000Y-125885000D01*
X163773000Y-125883000D01*
X163775000Y-125882000D01*
X163777000Y-125880000D01*
X163780000Y-125879000D01*
X163782000Y-125878000D01*
X163785000Y-125877000D01*
X163787000Y-125877000D01*
X163790000Y-125876000D01*
X163792000Y-125876000D01*
X163795000Y-125875000D01*
X163797000Y-125875000D01*
X163800000Y-125875000D01*
X164450000Y-125875000D01*
X164453000Y-125875000D01*
X164455000Y-125875000D01*
X164458000Y-125876000D01*
G36*
X164458000Y-125876000D02*
G01*
X164460000Y-125876000D01*
X164463000Y-125877000D01*
X164465000Y-125877000D01*
X164468000Y-125878000D01*
X164470000Y-125879000D01*
X164473000Y-125880000D01*
X164475000Y-125882000D01*
X164477000Y-125883000D01*
X164479000Y-125885000D01*
X164481000Y-125886000D01*
X164483000Y-125888000D01*
X164485000Y-125890000D01*
X164487000Y-125892000D01*
X164489000Y-125894000D01*
X164490000Y-125896000D01*
X164492000Y-125898000D01*
X164493000Y-125900000D01*
X164495000Y-125902000D01*
X164496000Y-125905000D01*
X164497000Y-125907000D01*
X164498000Y-125910000D01*
X164498000Y-125912000D01*
X164499000Y-125915000D01*
X164499000Y-125917000D01*
X164500000Y-125920000D01*
X164500000Y-125922000D01*
X164500000Y-125925000D01*
X164500000Y-127025000D01*
X164500000Y-127028000D01*
X164500000Y-127030000D01*
X164499000Y-127033000D01*
X164499000Y-127035000D01*
X164498000Y-127038000D01*
X164498000Y-127040000D01*
X164497000Y-127043000D01*
X164496000Y-127045000D01*
X164495000Y-127048000D01*
X164493000Y-127050000D01*
X164492000Y-127052000D01*
X164490000Y-127054000D01*
X164489000Y-127056000D01*
X164487000Y-127058000D01*
X164485000Y-127060000D01*
X164483000Y-127062000D01*
X164481000Y-127064000D01*
X164479000Y-127065000D01*
X164477000Y-127067000D01*
X164475000Y-127068000D01*
X164473000Y-127070000D01*
X164470000Y-127071000D01*
X164468000Y-127072000D01*
X164465000Y-127073000D01*
X164463000Y-127073000D01*
X164460000Y-127074000D01*
X164458000Y-127074000D01*
X164455000Y-127075000D01*
X164453000Y-127075000D01*
X164450000Y-127075000D01*
X164300000Y-127075000D01*
X164297000Y-127075000D01*
X164295000Y-127075000D01*
X164292000Y-127074000D01*
X164290000Y-127074000D01*
X164287000Y-127073000D01*
X164285000Y-127073000D01*
X164282000Y-127072000D01*
X164280000Y-127071000D01*
X164277000Y-127070000D01*
X164275000Y-127068000D01*
X164273000Y-127067000D01*
X164271000Y-127065000D01*
X164269000Y-127064000D01*
X164267000Y-127062000D01*
X164265000Y-127060000D01*
X164263000Y-127058000D01*
X164261000Y-127056000D01*
X164260000Y-127054000D01*
X164258000Y-127052000D01*
X164257000Y-127050000D01*
X164255000Y-127048000D01*
X164254000Y-127045000D01*
X164253000Y-127043000D01*
X164252000Y-127040000D01*
X164252000Y-127038000D01*
X164251000Y-127035000D01*
X164251000Y-127033000D01*
X164250000Y-127030000D01*
X164250000Y-127028000D01*
X164250000Y-127025000D01*
X164250000Y-126725000D01*
X164250000Y-126722000D01*
X164250000Y-126720000D01*
X164249000Y-126717000D01*
X164249000Y-126715000D01*
X164248000Y-126712000D01*
X164248000Y-126710000D01*
X164247000Y-126707000D01*
X164246000Y-126705000D01*
X164245000Y-126702000D01*
X164243000Y-126700000D01*
X164242000Y-126698000D01*
X164240000Y-126696000D01*
X164239000Y-126694000D01*
X164237000Y-126692000D01*
X164235000Y-126690000D01*
X164233000Y-126688000D01*
X164231000Y-126686000D01*
X164229000Y-126685000D01*
X164227000Y-126683000D01*
X164225000Y-126682000D01*
X164223000Y-126680000D01*
X164220000Y-126679000D01*
X164218000Y-126678000D01*
X164215000Y-126677000D01*
X164213000Y-126677000D01*
X164210000Y-126676000D01*
X164208000Y-126676000D01*
X164205000Y-126675000D01*
X164203000Y-126675000D01*
X164200000Y-126675000D01*
X164050000Y-126675000D01*
X164047000Y-126675000D01*
X164045000Y-126675000D01*
X164042000Y-126676000D01*
X164040000Y-126676000D01*
X164037000Y-126677000D01*
X164035000Y-126677000D01*
X164032000Y-126678000D01*
X164030000Y-126679000D01*
X164027000Y-126680000D01*
X164025000Y-126682000D01*
X164023000Y-126683000D01*
X164021000Y-126685000D01*
X164019000Y-126686000D01*
X164017000Y-126688000D01*
X164015000Y-126690000D01*
X164013000Y-126692000D01*
X164011000Y-126694000D01*
X164010000Y-126696000D01*
X164008000Y-126698000D01*
X164007000Y-126700000D01*
X164005000Y-126702000D01*
X164004000Y-126705000D01*
X164003000Y-126707000D01*
X164002000Y-126710000D01*
X164002000Y-126712000D01*
X164001000Y-126715000D01*
X164001000Y-126717000D01*
X164000000Y-126720000D01*
X164000000Y-126722000D01*
X164000000Y-126725000D01*
X164000000Y-127025000D01*
X164000000Y-127028000D01*
X164000000Y-127030000D01*
X163999000Y-127033000D01*
X163999000Y-127035000D01*
X163998000Y-127038000D01*
X163998000Y-127040000D01*
X163997000Y-127043000D01*
X163996000Y-127045000D01*
X163995000Y-127048000D01*
X163993000Y-127050000D01*
X163992000Y-127052000D01*
X163990000Y-127054000D01*
X163989000Y-127056000D01*
X163987000Y-127058000D01*
X163985000Y-127060000D01*
X163983000Y-127062000D01*
X163981000Y-127064000D01*
X163979000Y-127065000D01*
X163977000Y-127067000D01*
X163975000Y-127068000D01*
X163973000Y-127070000D01*
X163970000Y-127071000D01*
X163968000Y-127072000D01*
X163965000Y-127073000D01*
X163963000Y-127073000D01*
X163960000Y-127074000D01*
X163958000Y-127074000D01*
X163955000Y-127075000D01*
X163953000Y-127075000D01*
X163950000Y-127075000D01*
X163800000Y-127075000D01*
X163797000Y-127075000D01*
X163795000Y-127075000D01*
X163792000Y-127074000D01*
X163790000Y-127074000D01*
X163787000Y-127073000D01*
X163785000Y-127073000D01*
X163782000Y-127072000D01*
X163780000Y-127071000D01*
X163777000Y-127070000D01*
X163775000Y-127068000D01*
X163773000Y-127067000D01*
X163771000Y-127065000D01*
X163769000Y-127064000D01*
X163767000Y-127062000D01*
X163765000Y-127060000D01*
X163763000Y-127058000D01*
X163761000Y-127056000D01*
X163760000Y-127054000D01*
X163758000Y-127052000D01*
X163757000Y-127050000D01*
X163755000Y-127048000D01*
X163754000Y-127045000D01*
X163753000Y-127043000D01*
X163752000Y-127040000D01*
X163752000Y-127038000D01*
X163751000Y-127035000D01*
X163751000Y-127033000D01*
X163750000Y-127030000D01*
X163750000Y-127028000D01*
X163750000Y-127025000D01*
X163750000Y-125925000D01*
X163750000Y-125922000D01*
X163750000Y-125920000D01*
X163751000Y-125917000D01*
X163751000Y-125915000D01*
X163752000Y-125912000D01*
X163752000Y-125910000D01*
X163753000Y-125907000D01*
X163754000Y-125905000D01*
X163755000Y-125902000D01*
X163757000Y-125900000D01*
X163758000Y-125898000D01*
X163760000Y-125896000D01*
X163761000Y-125894000D01*
X163763000Y-125892000D01*
X163765000Y-125890000D01*
X163767000Y-125888000D01*
X163769000Y-125886000D01*
X163771000Y-125885000D01*
X163773000Y-125883000D01*
X163775000Y-125882000D01*
X163777000Y-125880000D01*
X163780000Y-125879000D01*
X163782000Y-125878000D01*
X163785000Y-125877000D01*
X163787000Y-125877000D01*
X163790000Y-125876000D01*
X163792000Y-125876000D01*
X163795000Y-125875000D01*
X163797000Y-125875000D01*
X163800000Y-125875000D01*
X164450000Y-125875000D01*
X164453000Y-125875000D01*
X164455000Y-125875000D01*
X164458000Y-125876000D01*
G37*
%TD*%
D11*
%TO.C,PS501*%
X163875000Y-123775000D03*
X164375000Y-123775000D03*
D12*
X163175000Y-125000000D03*
%TD*%
D13*
%TO.C,C204*%
X148420389Y-121539000D03*
X150320389Y-121539000D03*
%TD*%
D14*
%TO.C,R607*%
X150175000Y-101225000D03*
X151825000Y-101225000D03*
%TD*%
D13*
%TO.C,C506*%
X167850000Y-120000000D03*
X169750000Y-120000000D03*
%TD*%
D15*
%TO.C,R503*%
X161800000Y-126400000D03*
X161800000Y-128050000D03*
%TD*%
D16*
%TO.C,C502*%
X165800000Y-128275000D03*
X165800000Y-130175000D03*
%TD*%
D17*
%TO.C,U501*%
X164650000Y-114100000D03*
X164650000Y-111800000D03*
D18*
X169100000Y-111800000D03*
D17*
X164650000Y-109500000D03*
%TD*%
D19*
%TO.C,R505*%
X166179000Y-121920000D03*
X164529000Y-121920000D03*
%TD*%
D20*
%TO.C,C512*%
X151638000Y-106995000D03*
X151638000Y-105095000D03*
%TD*%
D19*
%TO.C,R602*%
X137650000Y-104025000D03*
X136000000Y-104025000D03*
%TD*%
D15*
%TO.C,R606*%
X148600000Y-101200000D03*
X148600000Y-102850000D03*
%TD*%
D21*
%TO.C,C209*%
X145656000Y-117729000D03*
X147206000Y-117729000D03*
%TD*%
D22*
%TO.C,TP601*%
X141400000Y-106225000D03*
%TD*%
D23*
%TO.C,U401*%
X157976001Y-120690800D03*
X157476000Y-120690800D03*
X156976000Y-120690800D03*
X156475999Y-120690800D03*
X156475999Y-117800000D03*
X156976000Y-117800000D03*
X157476000Y-117800000D03*
X157976001Y-117800000D03*
D24*
X157226000Y-119245400D03*
%TD*%
D15*
%TO.C,R604*%
X139200000Y-102412500D03*
X139200000Y-104062500D03*
%TD*%
%TO.C,R611*%
X148600000Y-98200000D03*
X148600000Y-99850000D03*
%TD*%
D25*
%TO.C,R501*%
X161800000Y-124675000D03*
X161800000Y-123025000D03*
%TD*%
D19*
%TO.C,R608*%
X151825000Y-102825000D03*
X150175000Y-102825000D03*
%TD*%
D14*
%TO.C,R603*%
X135975000Y-102425000D03*
X137625000Y-102425000D03*
%TD*%
D25*
%TO.C,R506*%
X163068000Y-121475000D03*
X163068000Y-119825000D03*
%TD*%
D26*
%TO.C,C401*%
X159800000Y-118225000D03*
X159800000Y-119775000D03*
%TD*%
D20*
%TO.C,C509*%
X162300000Y-114950000D03*
X162300000Y-113050000D03*
%TD*%
D27*
%TO.C,C613*%
X129010000Y-124981000D03*
X129010000Y-123431000D03*
%TD*%
D22*
%TO.C,TP602*%
X149225000Y-105025000D03*
%TD*%
D16*
%TO.C,C503*%
X163800000Y-128275000D03*
X163800000Y-130175000D03*
%TD*%
D13*
%TO.C,C507*%
X167850000Y-122000000D03*
X169750000Y-122000000D03*
%TD*%
D26*
%TO.C,C501*%
X167600000Y-128250000D03*
X167600000Y-129800000D03*
%TD*%
D28*
%TO.C,C211*%
X153429000Y-120650000D03*
X151879000Y-120650000D03*
%TD*%
D29*
%TO.C,C208*%
X144485992Y-122722008D03*
X145582008Y-121625992D03*
%TD*%
D28*
%TO.C,C508*%
X166350000Y-120396000D03*
X164800000Y-120396000D03*
%TD*%
D14*
%TO.C,R204*%
X152972000Y-119126000D03*
X154622000Y-119126000D03*
%TD*%
D28*
%TO.C,C205*%
X150254000Y-119634000D03*
X148704000Y-119634000D03*
%TD*%
D30*
%TO.C,U502*%
X158623000Y-111250000D03*
X156323000Y-111250000D03*
D31*
X156323000Y-106650000D03*
D30*
X154023000Y-111250000D03*
%TD*%
D21*
%TO.C,C210*%
X147434000Y-111760000D03*
X148984000Y-111760000D03*
%TD*%
D28*
%TO.C,C203*%
X153095893Y-114468915D03*
X151545893Y-114468915D03*
%TD*%
D26*
%TO.C,C614*%
X128982000Y-103746000D03*
X128982000Y-105296000D03*
%TD*%
D14*
%TO.C,R203*%
X152845000Y-117602000D03*
X154495000Y-117602000D03*
%TD*%
D21*
%TO.C,C601*%
X144850000Y-105225000D03*
X146400000Y-105225000D03*
%TD*%
D32*
%TO.C,C510*%
X159446000Y-113665000D03*
X157546000Y-113665000D03*
%TD*%
D28*
%TO.C,C212*%
X153175000Y-115951000D03*
X151625000Y-115951000D03*
%TD*%
D32*
%TO.C,C505*%
X166250000Y-118110000D03*
X164350000Y-118110000D03*
%TD*%
D15*
%TO.C,R601*%
X139200000Y-99412500D03*
X139200000Y-101062500D03*
%TD*%
D16*
%TO.C,C511*%
X162300000Y-109650000D03*
X162300000Y-111550000D03*
%TD*%
D33*
%TO.C,L201*%
X148844000Y-118200000D03*
X148844000Y-116075000D03*
%TD*%
D19*
%TO.C,R502*%
X160337000Y-123063000D03*
X158687000Y-123063000D03*
%TD*%
D34*
%TO.C,U602*%
X141570000Y-103662500D03*
X141570000Y-102392500D03*
X141570000Y-101122500D03*
X141570000Y-99852500D03*
X146510000Y-99852500D03*
X146510000Y-101122500D03*
X146510000Y-102392500D03*
X146510000Y-103662500D03*
%TD*%
M02*
