%TF.GenerationSoftware,KiCad,Pcbnew,9.0.8-9.0.8~ubuntu22.04.1*%
%TF.CreationDate,2026-04-26T22:17:14+03:00*%
%TF.ProjectId,Main Board - NDT,4d61696e-2042-46f6-9172-64202d204e44,rev?*%
%TF.SameCoordinates,Original*%
%TF.FileFunction,Soldermask,Top*%
%TF.FilePolarity,Negative*%
%FSLAX46Y46*%
G04 Gerber Fmt 4.6, Leading zero omitted, Abs format (unit mm)*
G04 Created by KiCad (PCBNEW 9.0.8-9.0.8~ubuntu22.04.1) date 2026-04-26 22:17:14*
%MOMM*%
%LPD*%
G01*
G04 APERTURE LIST*
G04 Aperture macros list*
%AMRoundRect*
0 Rectangle with rounded corners*
0 $1 Rounding radius*
0 $2 $3 $4 $5 $6 $7 $8 $9 X,Y pos of 4 corners*
0 Add a 4 corners polygon primitive as box body*
4,1,4,$2,$3,$4,$5,$6,$7,$8,$9,$2,$3,0*
0 Add four circle primitives for the rounded corners*
1,1,$1+$1,$2,$3*
1,1,$1+$1,$4,$5*
1,1,$1+$1,$6,$7*
1,1,$1+$1,$8,$9*
0 Add four rect primitives between the rounded corners*
20,1,$1+$1,$2,$3,$4,$5,0*
20,1,$1+$1,$4,$5,$6,$7,0*
20,1,$1+$1,$6,$7,$8,$9,0*
20,1,$1+$1,$8,$9,$2,$3,0*%
%AMFreePoly0*
4,1,23,0.500000,-0.750000,0.000000,-0.750000,0.000000,-0.745722,-0.065263,-0.745722,-0.191342,-0.711940,-0.304381,-0.646677,-0.396677,-0.554381,-0.461940,-0.441342,-0.495722,-0.315263,-0.495722,-0.250000,-0.500000,-0.250000,-0.500000,0.250000,-0.495722,0.250000,-0.495722,0.315263,-0.461940,0.441342,-0.396677,0.554381,-0.304381,0.646677,-0.191342,0.711940,-0.065263,0.745722,0.000000,0.745722,
0.000000,0.750000,0.500000,0.750000,0.500000,-0.750000,0.500000,-0.750000,$1*%
%AMFreePoly1*
4,1,23,0.000000,0.745722,0.065263,0.745722,0.191342,0.711940,0.304381,0.646677,0.396677,0.554381,0.461940,0.441342,0.495722,0.315263,0.495722,0.250000,0.500000,0.250000,0.500000,-0.250000,0.495722,-0.250000,0.495722,-0.315263,0.461940,-0.441342,0.396677,-0.554381,0.304381,-0.646677,0.191342,-0.711940,0.065263,-0.745722,0.000000,-0.745722,0.000000,-0.750000,-0.500000,-0.750000,
-0.500000,0.750000,0.000000,0.750000,0.000000,0.745722,0.000000,0.745722,$1*%
G04 Aperture macros list end*
%ADD10RoundRect,0.250001X-1.149999X-1.149999X1.149999X-1.149999X1.149999X1.149999X-1.149999X1.149999X0*%
%ADD11C,2.800000*%
%ADD12R,1.500000X1.000000*%
%ADD13C,1.750000*%
%ADD14RoundRect,0.140000X0.091230X0.200442X-0.179229X0.127973X-0.091230X-0.200442X0.179229X-0.127973X0*%
%ADD15RoundRect,0.200000X-0.275000X0.200000X-0.275000X-0.200000X0.275000X-0.200000X0.275000X0.200000X0*%
%ADD16RoundRect,0.147500X-0.056701X0.219767X-0.225906X-0.021883X0.056701X-0.219767X0.225906X0.021883X0*%
%ADD17RoundRect,0.225000X-0.017678X0.335876X-0.335876X0.017678X0.017678X-0.335876X0.335876X-0.017678X0*%
%ADD18RoundRect,0.200000X-0.335876X-0.053033X-0.053033X-0.335876X0.335876X0.053033X0.053033X0.335876X0*%
%ADD19RoundRect,0.147500X0.204798X-0.097828X0.128446X0.187120X-0.204798X0.097828X-0.128446X-0.187120X0*%
%ADD20RoundRect,0.147500X-0.204798X0.097828X-0.128446X-0.187120X0.204798X-0.097828X0.128446X0.187120X0*%
%ADD21RoundRect,0.225000X0.225000X0.250000X-0.225000X0.250000X-0.225000X-0.250000X0.225000X-0.250000X0*%
%ADD22RoundRect,0.102000X2.120900X1.905000X-2.120900X1.905000X-2.120900X-1.905000X2.120900X-1.905000X0*%
%ADD23RoundRect,0.225000X-0.225000X-0.250000X0.225000X-0.250000X0.225000X0.250000X-0.225000X0.250000X0*%
%ADD24C,2.100000*%
%ADD25RoundRect,0.225000X-0.333843X0.040915X-0.075733X-0.327703X0.333843X-0.040915X0.075733X0.327703X0*%
%ADD26RoundRect,0.147500X0.219767X0.056701X-0.021883X0.225906X-0.219767X-0.056701X0.021883X-0.225906X0*%
%ADD27RoundRect,0.140000X-0.091230X-0.200442X0.179229X-0.127973X0.091230X0.200442X-0.179229X0.127973X0*%
%ADD28RoundRect,0.147500X-0.128446X0.187120X-0.204798X-0.097828X0.128446X-0.187120X0.204798X0.097828X0*%
%ADD29RoundRect,0.140000X0.200442X-0.091230X0.127973X0.179229X-0.200442X0.091230X-0.127973X-0.179229X0*%
%ADD30RoundRect,0.200000X-0.200000X-0.275000X0.200000X-0.275000X0.200000X0.275000X-0.200000X0.275000X0*%
%ADD31RoundRect,0.140000X-0.212189X-0.058955X0.017173X-0.219557X0.212189X0.058955X-0.017173X0.219557X0*%
%ADD32RoundRect,0.147500X0.187120X0.128446X-0.097828X0.204798X-0.187120X-0.128446X0.097828X-0.204798X0*%
%ADD33RoundRect,0.250001X1.149999X-1.149999X1.149999X1.149999X-1.149999X1.149999X-1.149999X-1.149999X0*%
%ADD34RoundRect,0.140000X0.127973X-0.179229X0.200442X0.091230X-0.127973X0.179229X-0.200442X-0.091230X0*%
%ADD35RoundRect,0.147500X0.128446X-0.187120X0.204798X0.097828X-0.128446X0.187120X-0.204798X-0.097828X0*%
%ADD36RoundRect,0.243750X0.456250X-0.243750X0.456250X0.243750X-0.456250X0.243750X-0.456250X-0.243750X0*%
%ADD37RoundRect,0.200000X0.200000X0.275000X-0.200000X0.275000X-0.200000X-0.275000X0.200000X-0.275000X0*%
%ADD38RoundRect,0.140000X0.179229X0.127973X-0.091230X0.200442X-0.179229X-0.127973X0.091230X-0.200442X0*%
%ADD39RoundRect,0.140000X-0.127973X0.179229X-0.200442X-0.091230X0.127973X-0.179229X0.200442X0.091230X0*%
%ADD40RoundRect,0.140000X-0.058955X0.212189X-0.219557X-0.017173X0.058955X-0.212189X0.219557X0.017173X0*%
%ADD41RoundRect,0.243750X-0.243750X-0.456250X0.243750X-0.456250X0.243750X0.456250X-0.243750X0.456250X0*%
%ADD42RoundRect,0.102000X0.583363X0.035355X0.035355X0.583363X-0.583363X-0.035355X-0.035355X-0.583363X0*%
%ADD43FreePoly0,0.000000*%
%ADD44FreePoly1,0.000000*%
%ADD45RoundRect,0.102000X-2.120900X-1.905000X2.120900X-1.905000X2.120900X1.905000X-2.120900X1.905000X0*%
%ADD46RoundRect,0.218750X0.218750X0.256250X-0.218750X0.256250X-0.218750X-0.256250X0.218750X-0.256250X0*%
%ADD47RoundRect,0.243750X0.243750X0.456250X-0.243750X0.456250X-0.243750X-0.456250X0.243750X-0.456250X0*%
%ADD48C,2.500000*%
%ADD49C,2.600000*%
%ADD50RoundRect,0.102000X-0.094364X1.093661X-0.995431X0.462727X0.094364X-1.093661X0.995431X-0.462727X0*%
%ADD51RoundRect,0.140000X-0.179229X-0.127973X0.091230X-0.200442X0.179229X0.127973X-0.091230X0.200442X0*%
%ADD52RoundRect,0.225000X0.335876X0.017678X0.017678X0.335876X-0.335876X-0.017678X-0.017678X-0.335876X0*%
%ADD53R,2.200000X1.450000*%
%ADD54RoundRect,0.140000X-0.200442X0.091230X-0.127973X-0.179229X0.200442X-0.091230X0.127973X0.179229X0*%
%ADD55R,1.700000X1.700000*%
%ADD56C,1.700000*%
%ADD57RoundRect,0.200000X0.275000X-0.200000X0.275000X0.200000X-0.275000X0.200000X-0.275000X-0.200000X0*%
%ADD58RoundRect,0.102000X0.254000X-0.609600X0.254000X0.609600X-0.254000X0.609600X-0.254000X-0.609600X0*%
%ADD59RoundRect,0.147500X-0.097828X-0.204798X0.187120X-0.128446X0.097828X0.204798X-0.187120X0.128446X0*%
%ADD60R,0.254800X0.807999*%
%ADD61R,0.807999X0.254800*%
%ADD62R,4.191000X4.191000*%
%ADD63RoundRect,0.250001X-1.149999X1.149999X-1.149999X-1.149999X1.149999X-1.149999X1.149999X1.149999X0*%
%ADD64R,4.241800X3.810000*%
%ADD65R,1.000000X1.500000*%
%ADD66RoundRect,0.250000X-0.250000X-0.475000X0.250000X-0.475000X0.250000X0.475000X-0.250000X0.475000X0*%
G04 APERTURE END LIST*
%TO.C,JP503*%
G36*
X160450000Y-112850000D02*
G01*
X158950000Y-112850000D01*
X158950000Y-113150000D01*
X160450000Y-113150000D01*
X160450000Y-112850000D01*
G37*
%TO.C,JP501*%
G36*
X164100000Y-130250000D02*
G01*
X164400000Y-130250000D01*
X164400000Y-131750000D01*
X164100000Y-131750000D01*
X164100000Y-130250000D01*
G37*
%TO.C,JP502*%
G36*
X165750000Y-117250000D02*
G01*
X165450000Y-117250000D01*
X165450000Y-115750000D01*
X165750000Y-115750000D01*
X165750000Y-117250000D01*
G37*
%TD*%
D10*
%TO.C,J505*%
X160800000Y-142700000D03*
D11*
X165800000Y-142700000D03*
%TD*%
D12*
%TO.C,JP503*%
X159700000Y-112350000D03*
X159700000Y-113650000D03*
%TD*%
D13*
%TO.C,J202*%
X163595000Y-98825000D03*
X161595000Y-98825000D03*
%TD*%
D14*
%TO.C,C317*%
X152021272Y-127261076D03*
X151093984Y-127509542D03*
%TD*%
D15*
%TO.C,R213*%
X142090000Y-111750000D03*
X142090000Y-113400000D03*
%TD*%
D16*
%TO.C,L303*%
X140969615Y-127112677D03*
X140413245Y-127907255D03*
%TD*%
D17*
%TO.C,C201*%
X143714734Y-121451992D03*
X142618718Y-122548008D03*
%TD*%
D18*
%TO.C,R202*%
X137973637Y-113208637D03*
X139140363Y-114375363D03*
%TD*%
D13*
%TO.C,J205*%
X173525400Y-116685000D03*
X173525400Y-114685000D03*
%TD*%
%TO.C,J203*%
X125037700Y-114095000D03*
X125037700Y-116095000D03*
%TD*%
D19*
%TO.C,L321*%
X150355381Y-132557719D03*
X150104327Y-131620771D03*
%TD*%
D20*
%TO.C,L314*%
X149358164Y-124972353D03*
X149609218Y-125909301D03*
%TD*%
D21*
%TO.C,C603*%
X157075000Y-101200000D03*
X155525000Y-101200000D03*
%TD*%
D15*
%TO.C,R208*%
X147320000Y-108966000D03*
X147320000Y-110616000D03*
%TD*%
D22*
%TO.C,F503*%
X177787700Y-96750000D03*
X171412300Y-96750000D03*
%TD*%
D23*
%TO.C,C213*%
X161800000Y-105975000D03*
X163350000Y-105975000D03*
%TD*%
D15*
%TO.C,R509*%
X167250000Y-109275000D03*
X167250000Y-110925000D03*
%TD*%
D24*
%TO.C,J603*%
X131200000Y-130389000D03*
X131200000Y-127889000D03*
X131200000Y-125389000D03*
X131200000Y-122889000D03*
%TD*%
D25*
%TO.C,C202*%
X155010956Y-125930314D03*
X155900000Y-127200000D03*
%TD*%
D20*
%TO.C,L319*%
X152040060Y-131117622D03*
X152291114Y-132054570D03*
%TD*%
D26*
%TO.C,L301*%
X142900000Y-126145821D03*
X142105422Y-125589451D03*
%TD*%
D27*
%TO.C,C315*%
X148810437Y-130191969D03*
X149737725Y-129943503D03*
%TD*%
D28*
%TO.C,L312*%
X146625527Y-124131526D03*
X146374473Y-125068474D03*
%TD*%
D29*
%TO.C,C322*%
X153257538Y-137593164D03*
X153009072Y-136665876D03*
%TD*%
D28*
%TO.C,L311*%
X147595335Y-124375856D03*
X147344281Y-125312804D03*
%TD*%
D15*
%TO.C,R212*%
X143600000Y-111750000D03*
X143600000Y-113400000D03*
%TD*%
D30*
%TO.C,R205*%
X157775000Y-126200000D03*
X159425000Y-126200000D03*
%TD*%
D24*
%TO.C,J604*%
X131182000Y-112732000D03*
X131182000Y-110232000D03*
X131182000Y-107732000D03*
X131182000Y-105232000D03*
%TD*%
D31*
%TO.C,C303*%
X136825375Y-132223839D03*
X137611763Y-132774471D03*
%TD*%
D32*
%TO.C,L306*%
X147468474Y-128525527D03*
X146531526Y-128274473D03*
%TD*%
D33*
%TO.C,J503*%
X176167500Y-108250000D03*
D11*
X176167500Y-103250000D03*
%TD*%
D34*
%TO.C,C312*%
X143175767Y-138163644D03*
X143424233Y-137236356D03*
%TD*%
D13*
%TO.C,J602*%
X157103000Y-98843000D03*
X155103000Y-98843000D03*
%TD*%
%TO.C,J204*%
X125037700Y-121545000D03*
X125037700Y-123545000D03*
%TD*%
D35*
%TO.C,L313*%
X144874473Y-135768474D03*
X145125527Y-134831526D03*
%TD*%
D28*
%TO.C,L308*%
X145325527Y-128931526D03*
X145074473Y-129868474D03*
%TD*%
D30*
%TO.C,R211*%
X138400000Y-116200000D03*
X140050000Y-116200000D03*
%TD*%
D31*
%TO.C,C305*%
X140733173Y-125849368D03*
X141519561Y-126400000D03*
%TD*%
D36*
%TO.C,D502*%
X169800000Y-124762500D03*
X169800000Y-122887500D03*
%TD*%
D37*
%TO.C,R402*%
X159575000Y-117729000D03*
X157925000Y-117729000D03*
%TD*%
D16*
%TO.C,L305*%
X138709337Y-131241843D03*
X138152967Y-132036421D03*
%TD*%
D32*
%TO.C,L307*%
X146803441Y-127253968D03*
X145866493Y-127002914D03*
%TD*%
D38*
%TO.C,C311*%
X144563644Y-136624233D03*
X143636356Y-136375767D03*
%TD*%
D28*
%TO.C,L309*%
X144925527Y-131831526D03*
X144674473Y-132768474D03*
%TD*%
D39*
%TO.C,C309*%
X146245542Y-129196108D03*
X145997076Y-130123396D03*
%TD*%
D40*
%TO.C,C307*%
X142577779Y-128320389D03*
X142027147Y-129106777D03*
%TD*%
D41*
%TO.C,D201*%
X157662500Y-128000000D03*
X159537500Y-128000000D03*
%TD*%
D42*
%TO.C,Y201*%
X141787868Y-120989576D03*
X142688722Y-120088722D03*
X142000000Y-119400000D03*
X141099146Y-120300854D03*
%TD*%
D36*
%TO.C,D504*%
X167250000Y-114262500D03*
X167250000Y-112387500D03*
%TD*%
D15*
%TO.C,R206*%
X150622000Y-108966000D03*
X150622000Y-110616000D03*
%TD*%
D43*
%TO.C,JP501*%
X163600000Y-131000000D03*
D44*
X164900000Y-131000000D03*
%TD*%
D16*
%TO.C,L304*%
X140315351Y-128948217D03*
X139758981Y-129742795D03*
%TD*%
D13*
%TO.C,J601*%
X134116000Y-98716000D03*
X132116000Y-98716000D03*
%TD*%
D45*
%TO.C,F502*%
X120812300Y-141400000D03*
X127187700Y-141400000D03*
%TD*%
D40*
%TO.C,C301*%
X141811018Y-127727196D03*
X141260386Y-128513584D03*
%TD*%
D33*
%TO.C,J504*%
X176175400Y-134600000D03*
D11*
X176175400Y-129600000D03*
%TD*%
D39*
%TO.C,C304*%
X147198527Y-129503223D03*
X146950061Y-130430511D03*
%TD*%
D38*
%TO.C,C310*%
X145384260Y-133905938D03*
X144456972Y-133657472D03*
%TD*%
D46*
%TO.C,FB501*%
X159487500Y-115500000D03*
X157912500Y-115500000D03*
%TD*%
D47*
%TO.C,D501*%
X170537500Y-129000000D03*
X168662500Y-129000000D03*
%TD*%
D48*
%TO.C,J301*%
X153137256Y-142353171D03*
D49*
X155677256Y-144893171D03*
X155677256Y-139813171D03*
X150597256Y-144893171D03*
X150597256Y-139813171D03*
%TD*%
D50*
%TO.C,Y202*%
X154673940Y-123733029D03*
X152626060Y-125166971D03*
%TD*%
D36*
%TO.C,D503*%
X153700000Y-106862500D03*
X153700000Y-104987500D03*
%TD*%
D51*
%TO.C,C308*%
X144672712Y-127751534D03*
X145600000Y-128000000D03*
%TD*%
D48*
%TO.C,J304*%
X133660000Y-142340000D03*
D49*
X136200000Y-144880000D03*
X136200000Y-139800000D03*
X131120000Y-144880000D03*
X131120000Y-139800000D03*
%TD*%
D52*
%TO.C,C207*%
X143804008Y-119039008D03*
X142707992Y-117942992D03*
%TD*%
D53*
%TO.C,TP502*%
X167000000Y-107100000D03*
%TD*%
%TO.C,TP503*%
X156300000Y-103100000D03*
%TD*%
D20*
%TO.C,L320*%
X152324473Y-133941017D03*
X152575527Y-134877965D03*
%TD*%
D15*
%TO.C,R507*%
X169800000Y-119800000D03*
X169800000Y-121450000D03*
%TD*%
D30*
%TO.C,R210*%
X138400000Y-117710000D03*
X140050000Y-117710000D03*
%TD*%
D54*
%TO.C,C319*%
X151070252Y-131361953D03*
X151318718Y-132289241D03*
%TD*%
D55*
%TO.C,J201*%
X150876000Y-93472000D03*
D56*
X148336000Y-93472000D03*
X145796000Y-93472000D03*
X143256000Y-93472000D03*
X140716000Y-93472000D03*
X138176000Y-93472000D03*
%TD*%
D57*
%TO.C,R401*%
X159000000Y-124225000D03*
X159000000Y-122575000D03*
%TD*%
D18*
%TO.C,R201*%
X139116637Y-112065637D03*
X140283363Y-113232363D03*
%TD*%
D57*
%TO.C,R403*%
X157400000Y-124225000D03*
X157400000Y-122575000D03*
%TD*%
D58*
%TO.C,U202*%
X161635200Y-104194200D03*
X162575000Y-104194200D03*
X163514800Y-104194200D03*
X163514800Y-101755800D03*
X161635200Y-101755800D03*
%TD*%
D59*
%TO.C,L316*%
X149157302Y-128028474D03*
X150094250Y-127777420D03*
%TD*%
D60*
%TO.C,U201*%
X146971907Y-121527715D03*
X147472033Y-121527715D03*
X147972159Y-121527715D03*
X148472285Y-121527715D03*
X148972411Y-121527715D03*
X149472537Y-121527715D03*
X149972663Y-121527715D03*
X150472789Y-121527715D03*
X150972915Y-121527715D03*
X151473041Y-121527715D03*
X151973167Y-121527715D03*
X152473293Y-121527715D03*
D61*
X153200000Y-120801008D03*
X153200000Y-120300882D03*
X153200000Y-119800756D03*
X153200000Y-119300630D03*
X153200000Y-118800504D03*
X153200000Y-118300378D03*
X153200000Y-117800252D03*
X153200000Y-117300126D03*
X153200000Y-116800000D03*
X153200000Y-116299874D03*
X153200000Y-115799748D03*
X153200000Y-115299622D03*
D60*
X152473293Y-114572915D03*
X151973167Y-114572915D03*
X151473041Y-114572915D03*
X150972915Y-114572915D03*
X150472789Y-114572915D03*
X149972663Y-114572915D03*
X149472537Y-114572915D03*
X148972411Y-114572915D03*
X148472285Y-114572915D03*
X147972159Y-114572915D03*
X147472033Y-114572915D03*
X146971907Y-114572915D03*
D61*
X146245200Y-115299622D03*
X146245200Y-115799748D03*
X146245200Y-116299874D03*
X146245200Y-116800000D03*
X146245200Y-117300126D03*
X146245200Y-117800252D03*
X146245200Y-118300378D03*
X146245200Y-118800504D03*
X146245200Y-119300630D03*
X146245200Y-119800756D03*
X146245200Y-120300882D03*
X146245200Y-120801008D03*
D62*
X149722600Y-118050315D03*
%TD*%
D38*
%TO.C,C314*%
X147062260Y-126288043D03*
X146134972Y-126039577D03*
%TD*%
D28*
%TO.C,L310*%
X144196952Y-134550607D03*
X143945898Y-135487555D03*
%TD*%
D15*
%TO.C,R207*%
X152222000Y-108966000D03*
X152222000Y-110616000D03*
%TD*%
D63*
%TO.C,J502*%
X122300000Y-129900000D03*
D11*
X122300000Y-134900000D03*
%TD*%
D22*
%TO.C,F504*%
X177587700Y-141400000D03*
X171212300Y-141400000D03*
%TD*%
D64*
%TO.C,F501*%
X121018300Y-96393000D03*
X127393700Y-96393000D03*
%TD*%
D48*
%TO.C,J305*%
X143540000Y-142340000D03*
D49*
X146080000Y-144880000D03*
X146080000Y-139800000D03*
X141000000Y-144880000D03*
X141000000Y-139800000D03*
%TD*%
D27*
%TO.C,C321*%
X151186356Y-133306955D03*
X152113644Y-133058489D03*
%TD*%
D15*
%TO.C,R508*%
X153700000Y-101700000D03*
X153700000Y-103350000D03*
%TD*%
D31*
%TO.C,C302*%
X138431389Y-129930214D03*
X139217777Y-130480846D03*
%TD*%
D40*
%TO.C,C306*%
X137100455Y-133539563D03*
X136549823Y-134325951D03*
%TD*%
D45*
%TO.C,F505*%
X162412300Y-135400000D03*
X168787700Y-135400000D03*
%TD*%
D65*
%TO.C,JP502*%
X166250000Y-116500000D03*
X164950000Y-116500000D03*
%TD*%
D57*
%TO.C,R504*%
X166765000Y-131025000D03*
X166765000Y-129375000D03*
%TD*%
D66*
%TO.C,C504*%
X168785000Y-131265000D03*
X170685000Y-131265000D03*
%TD*%
D15*
%TO.C,R209*%
X148830000Y-108966000D03*
X148830000Y-110616000D03*
%TD*%
D51*
%TO.C,C313*%
X144286356Y-130625767D03*
X145213644Y-130874233D03*
%TD*%
D59*
%TO.C,L317*%
X149895028Y-126821407D03*
X150831976Y-126570353D03*
%TD*%
D26*
%TO.C,L302*%
X143145575Y-127538549D03*
X142350997Y-126982179D03*
%TD*%
D25*
%TO.C,C206*%
X153710956Y-126830314D03*
X154600000Y-128100000D03*
%TD*%
D20*
%TO.C,L315*%
X150324090Y-124713534D03*
X150575144Y-125650482D03*
%TD*%
D13*
%TO.C,J206*%
X173525400Y-124020000D03*
X173525400Y-122020000D03*
%TD*%
D53*
%TO.C,TP501*%
X168900000Y-117700000D03*
%TD*%
D63*
%TO.C,J501*%
X122387700Y-103350000D03*
D11*
X122387700Y-108350000D03*
%TD*%
D20*
%TO.C,L318*%
X151311485Y-128398541D03*
X151562539Y-129335489D03*
%TD*%
D54*
%TO.C,C318*%
X150346853Y-128662190D03*
X150595319Y-129589478D03*
%TD*%
D14*
%TO.C,C323*%
X152263003Y-130095078D03*
X151335715Y-130343544D03*
%TD*%
D27*
%TO.C,C316*%
X148570937Y-129220867D03*
X149498225Y-128972401D03*
%TD*%
D23*
%TO.C,C606*%
X129925000Y-101300000D03*
X131475000Y-101300000D03*
%TD*%
D27*
%TO.C,C320*%
X151886356Y-136011548D03*
X152813644Y-135763082D03*
%TD*%
M02*
