%TF.GenerationSoftware,KiCad,Pcbnew,9.0.7-9.0.7~ubuntu22.04.1*%
%TF.CreationDate,2026-03-12T12:07:13+02:00*%
%TF.ProjectId,Main Board - NDT,4d61696e-2042-46f6-9172-64202d204e44,rev?*%
%TF.SameCoordinates,Original*%
%TF.FileFunction,Soldermask,Top*%
%TF.FilePolarity,Negative*%
%FSLAX46Y46*%
G04 Gerber Fmt 4.6, Leading zero omitted, Abs format (unit mm)*
G04 Created by KiCad (PCBNEW 9.0.7-9.0.7~ubuntu22.04.1) date 2026-03-12 12:07:13*
%MOMM*%
%LPD*%
G01*
G04 APERTURE LIST*
G04 Aperture macros list*
%AMRoundRect*
0 Rectangle with rounded corners*
0 $1 Rounding radius*
0 $2 $3 $4 $5 $6 $7 $8 $9 X,Y pos of 4 corners*
0 Add a 4 corners polygon primitive as box body*
4,1,4,$2,$3,$4,$5,$6,$7,$8,$9,$2,$3,0*
0 Add four circle primitives for the rounded corners*
1,1,$1+$1,$2,$3*
1,1,$1+$1,$4,$5*
1,1,$1+$1,$6,$7*
1,1,$1+$1,$8,$9*
0 Add four rect primitives between the rounded corners*
20,1,$1+$1,$2,$3,$4,$5,0*
20,1,$1+$1,$4,$5,$6,$7,0*
20,1,$1+$1,$6,$7,$8,$9,0*
20,1,$1+$1,$8,$9,$2,$3,0*%
%AMRotRect*
0 Rectangle, with rotation*
0 The origin of the aperture is its center*
0 $1 length*
0 $2 width*
0 $3 Rotation angle, in degrees counterclockwise*
0 Add horizontal line*
21,1,$1,$2,0,0,$3*%
%AMFreePoly0*
4,1,23,0.500000,-0.750000,0.000000,-0.750000,0.000000,-0.745722,-0.065263,-0.745722,-0.191342,-0.711940,-0.304381,-0.646677,-0.396677,-0.554381,-0.461940,-0.441342,-0.495722,-0.315263,-0.495722,-0.250000,-0.500000,-0.250000,-0.500000,0.250000,-0.495722,0.250000,-0.495722,0.315263,-0.461940,0.441342,-0.396677,0.554381,-0.304381,0.646677,-0.191342,0.711940,-0.065263,0.745722,0.000000,0.745722,
0.000000,0.750000,0.500000,0.750000,0.500000,-0.750000,0.500000,-0.750000,$1*%
%AMFreePoly1*
4,1,23,0.000000,0.745722,0.065263,0.745722,0.191342,0.711940,0.304381,0.646677,0.396677,0.554381,0.461940,0.441342,0.495722,0.315263,0.495722,0.250000,0.500000,0.250000,0.500000,-0.250000,0.495722,-0.250000,0.495722,-0.315263,0.461940,-0.441342,0.396677,-0.554381,0.304381,-0.646677,0.191342,-0.711940,0.065263,-0.745722,0.000000,-0.745722,0.000000,-0.750000,-0.500000,-0.750000,
-0.500000,0.750000,0.000000,0.750000,0.000000,0.745722,0.000000,0.745722,$1*%
G04 Aperture macros list end*
%ADD10R,1.500000X1.000000*%
%ADD11C,1.750000*%
%ADD12RoundRect,0.200000X-0.275000X0.200000X-0.275000X-0.200000X0.275000X-0.200000X0.275000X0.200000X0*%
%ADD13RoundRect,0.225000X-0.017678X0.335876X-0.335876X0.017678X0.017678X-0.335876X0.335876X-0.017678X0*%
%ADD14RoundRect,0.200000X-0.335876X-0.053033X-0.053033X-0.335876X0.335876X0.053033X0.053033X0.335876X0*%
%ADD15RoundRect,0.225000X0.225000X0.250000X-0.225000X0.250000X-0.225000X-0.250000X0.225000X-0.250000X0*%
%ADD16C,2.500000*%
%ADD17C,2.600000*%
%ADD18RoundRect,0.102000X2.120900X1.905000X-2.120900X1.905000X-2.120900X-1.905000X2.120900X-1.905000X0*%
%ADD19RoundRect,0.225000X-0.225000X-0.250000X0.225000X-0.250000X0.225000X0.250000X-0.225000X0.250000X0*%
%ADD20C,2.100000*%
%ADD21RoundRect,0.225000X-0.040915X-0.333843X0.327703X-0.075733X0.040915X0.333843X-0.327703X0.075733X0*%
%ADD22RoundRect,0.200000X-0.200000X-0.275000X0.200000X-0.275000X0.200000X0.275000X-0.200000X0.275000X0*%
%ADD23RoundRect,0.250001X1.149999X-1.149999X1.149999X1.149999X-1.149999X1.149999X-1.149999X-1.149999X0*%
%ADD24C,2.800000*%
%ADD25RotRect,0.350000X1.000000X225.000000*%
%ADD26RoundRect,0.243750X0.456250X-0.243750X0.456250X0.243750X-0.456250X0.243750X-0.456250X-0.243750X0*%
%ADD27RoundRect,0.200000X0.200000X0.275000X-0.200000X0.275000X-0.200000X-0.275000X0.200000X-0.275000X0*%
%ADD28RoundRect,0.243750X-0.243750X-0.456250X0.243750X-0.456250X0.243750X0.456250X-0.243750X0.456250X0*%
%ADD29RoundRect,0.102000X0.583363X0.035355X0.035355X0.583363X-0.583363X-0.035355X-0.035355X-0.583363X0*%
%ADD30FreePoly0,0.000000*%
%ADD31FreePoly1,0.000000*%
%ADD32RoundRect,0.102000X-2.120900X-1.905000X2.120900X-1.905000X2.120900X1.905000X-2.120900X1.905000X0*%
%ADD33RoundRect,0.218750X0.218750X0.256250X-0.218750X0.256250X-0.218750X-0.256250X0.218750X-0.256250X0*%
%ADD34RoundRect,0.243750X0.243750X0.456250X-0.243750X0.456250X-0.243750X-0.456250X0.243750X-0.456250X0*%
%ADD35RoundRect,0.102000X-0.094364X1.093661X-0.995431X0.462727X0.094364X-1.093661X0.995431X-0.462727X0*%
%ADD36RoundRect,0.225000X0.335876X0.017678X0.017678X0.335876X-0.335876X-0.017678X-0.017678X-0.335876X0*%
%ADD37R,2.200000X1.450000*%
%ADD38R,1.700000X1.700000*%
%ADD39C,1.700000*%
%ADD40RoundRect,0.200000X0.275000X-0.200000X0.275000X0.200000X-0.275000X0.200000X-0.275000X-0.200000X0*%
%ADD41RoundRect,0.102000X0.254000X-0.609600X0.254000X0.609600X-0.254000X0.609600X-0.254000X-0.609600X0*%
%ADD42R,0.254800X0.807999*%
%ADD43R,0.807999X0.254800*%
%ADD44R,4.191000X4.191000*%
%ADD45R,0.350000X1.000000*%
%ADD46RoundRect,0.250001X-1.149999X1.149999X-1.149999X-1.149999X1.149999X-1.149999X1.149999X1.149999X0*%
%ADD47R,4.241800X3.810000*%
%ADD48R,1.000000X1.500000*%
%ADD49RoundRect,0.250001X-1.149999X-1.149999X1.149999X-1.149999X1.149999X1.149999X-1.149999X1.149999X0*%
%ADD50RoundRect,0.250000X-0.250000X-0.475000X0.250000X-0.475000X0.250000X0.475000X-0.250000X0.475000X0*%
%ADD51RoundRect,0.225000X0.040915X0.333843X-0.327703X0.075733X-0.040915X-0.333843X0.327703X-0.075733X0*%
G04 APERTURE END LIST*
%TO.C,J:3V3*%
G36*
X160450000Y-112850000D02*
G01*
X158950000Y-112850000D01*
X158950000Y-113150000D01*
X160450000Y-113150000D01*
X160450000Y-112850000D01*
G37*
%TO.C,J:12V*%
G36*
X164100000Y-130250000D02*
G01*
X164400000Y-130250000D01*
X164400000Y-131750000D01*
X164100000Y-131750000D01*
X164100000Y-130250000D01*
G37*
%TO.C,J:5V*%
G36*
X165750000Y-117250000D02*
G01*
X165450000Y-117250000D01*
X165450000Y-115750000D01*
X165750000Y-115750000D01*
X165750000Y-117250000D01*
G37*
%TD*%
D10*
%TO.C,J:3V3*%
X159700000Y-112350000D03*
X159700000Y-113650000D03*
%TD*%
D11*
%TO.C,J202*%
X163595000Y-98825000D03*
X161595000Y-98825000D03*
%TD*%
D12*
%TO.C,R213*%
X142090000Y-111750000D03*
X142090000Y-113400000D03*
%TD*%
D13*
%TO.C,C201*%
X143714734Y-121451992D03*
X142618718Y-122548008D03*
%TD*%
D14*
%TO.C,R202*%
X137973637Y-113208637D03*
X139140363Y-114375363D03*
%TD*%
D11*
%TO.C,UART4*%
X173525400Y-116685000D03*
X173525400Y-114685000D03*
%TD*%
%TO.C,UART1*%
X125037700Y-114095000D03*
X125037700Y-116095000D03*
%TD*%
D15*
%TO.C,C603*%
X157075000Y-101200000D03*
X155525000Y-101200000D03*
%TD*%
D12*
%TO.C,R208*%
X147320000Y-108966000D03*
X147320000Y-110616000D03*
%TD*%
D16*
%TO.C,J303*%
X152500000Y-140000000D03*
D17*
X155040000Y-142540000D03*
X155040000Y-137460000D03*
X149960000Y-142540000D03*
X149960000Y-137460000D03*
%TD*%
D18*
%TO.C,F503*%
X177787700Y-96750000D03*
X171412300Y-96750000D03*
%TD*%
D19*
%TO.C,C213*%
X161800000Y-105975000D03*
X163350000Y-105975000D03*
%TD*%
D12*
%TO.C,R509*%
X167250000Y-109275000D03*
X167250000Y-110925000D03*
%TD*%
D20*
%TO.C,PRESSURE*%
X131200000Y-130389000D03*
X131200000Y-127889000D03*
X131200000Y-125389000D03*
X131200000Y-122889000D03*
%TD*%
D21*
%TO.C,C202*%
X153565157Y-123044522D03*
X154834843Y-122155478D03*
%TD*%
D12*
%TO.C,R212*%
X143600000Y-111750000D03*
X143600000Y-113400000D03*
%TD*%
D22*
%TO.C,R205*%
X157775000Y-126200000D03*
X159425000Y-126200000D03*
%TD*%
D20*
%TO.C,HUMIDITY*%
X131182000Y-112732000D03*
X131182000Y-110232000D03*
X131182000Y-107732000D03*
X131182000Y-105232000D03*
%TD*%
D23*
%TO.C,J503*%
X176167500Y-108250000D03*
D24*
X176167500Y-103250000D03*
%TD*%
D11*
%TO.C,J602*%
X157103000Y-98843000D03*
X155103000Y-98843000D03*
%TD*%
%TO.C,UART2*%
X125037700Y-121545000D03*
X125037700Y-123545000D03*
%TD*%
D22*
%TO.C,R211*%
X138400000Y-116200000D03*
X140050000Y-116200000D03*
%TD*%
D25*
%TO.C,FL303*%
X151280761Y-133596016D03*
X151740380Y-133136396D03*
X152200000Y-132676777D03*
X150927207Y-131403984D03*
X150467588Y-131863604D03*
X150007968Y-132323223D03*
%TD*%
D26*
%TO.C,D502*%
X169800000Y-124762500D03*
X169800000Y-122887500D03*
%TD*%
D27*
%TO.C,R402*%
X159575000Y-117729000D03*
X157925000Y-117729000D03*
%TD*%
D28*
%TO.C,D201*%
X157662500Y-128000000D03*
X159537500Y-128000000D03*
%TD*%
D29*
%TO.C,Y201*%
X141787868Y-120989576D03*
X142688722Y-120088722D03*
X142000000Y-119400000D03*
X141099146Y-120300854D03*
%TD*%
D26*
%TO.C,D504*%
X167250000Y-114262500D03*
X167250000Y-112387500D03*
%TD*%
D12*
%TO.C,R206*%
X150622000Y-108966000D03*
X150622000Y-110616000D03*
%TD*%
D30*
%TO.C,J:12V*%
X163600000Y-131000000D03*
D31*
X164900000Y-131000000D03*
%TD*%
D11*
%TO.C,J601*%
X134116000Y-98716000D03*
X132116000Y-98716000D03*
%TD*%
D32*
%TO.C,F502*%
X120812300Y-141400000D03*
X127187700Y-141400000D03*
%TD*%
D23*
%TO.C,J504*%
X176175400Y-134600000D03*
D24*
X176175400Y-129600000D03*
%TD*%
D33*
%TO.C,FB501*%
X159487500Y-115500000D03*
X157912500Y-115500000D03*
%TD*%
D34*
%TO.C,D501*%
X170537500Y-129000000D03*
X168662500Y-129000000D03*
%TD*%
D35*
%TO.C,Y202*%
X155223940Y-124283029D03*
X153176060Y-125716971D03*
%TD*%
D16*
%TO.C,J301*%
X134860000Y-139940000D03*
D17*
X137400000Y-142480000D03*
X137400000Y-137400000D03*
X132320000Y-142480000D03*
X132320000Y-137400000D03*
%TD*%
D26*
%TO.C,D503*%
X153700000Y-106862500D03*
X153700000Y-104987500D03*
%TD*%
D36*
%TO.C,C207*%
X143804008Y-119039008D03*
X142707992Y-117942992D03*
%TD*%
D37*
%TO.C,3V3*%
X167000000Y-107100000D03*
%TD*%
%TO.C,3V3 F*%
X156300000Y-103100000D03*
%TD*%
D12*
%TO.C,R507*%
X169800000Y-119800000D03*
X169800000Y-121450000D03*
%TD*%
D22*
%TO.C,R210*%
X138400000Y-117710000D03*
X140050000Y-117710000D03*
%TD*%
D38*
%TO.C,J201*%
X150876000Y-93472000D03*
D39*
X148336000Y-93472000D03*
X145796000Y-93472000D03*
X143256000Y-93472000D03*
X140716000Y-93472000D03*
X138176000Y-93472000D03*
%TD*%
D40*
%TO.C,R401*%
X159000000Y-124225000D03*
X159000000Y-122575000D03*
%TD*%
D14*
%TO.C,R201*%
X139116637Y-112065637D03*
X140283363Y-113232363D03*
%TD*%
D40*
%TO.C,R403*%
X157400000Y-124225000D03*
X157400000Y-122575000D03*
%TD*%
D41*
%TO.C,U202*%
X161635200Y-104194200D03*
X162575000Y-104194200D03*
X163514800Y-104194200D03*
X163514800Y-101755800D03*
X161635200Y-101755800D03*
%TD*%
D42*
%TO.C,U201*%
X146971907Y-121527715D03*
X147472033Y-121527715D03*
X147972159Y-121527715D03*
X148472285Y-121527715D03*
X148972411Y-121527715D03*
X149472537Y-121527715D03*
X149972663Y-121527715D03*
X150472789Y-121527715D03*
X150972915Y-121527715D03*
X151473041Y-121527715D03*
X151973167Y-121527715D03*
X152473293Y-121527715D03*
D43*
X153200000Y-120801008D03*
X153200000Y-120300882D03*
X153200000Y-119800756D03*
X153200000Y-119300630D03*
X153200000Y-118800504D03*
X153200000Y-118300378D03*
X153200000Y-117800252D03*
X153200000Y-117300126D03*
X153200000Y-116800000D03*
X153200000Y-116299874D03*
X153200000Y-115799748D03*
X153200000Y-115299622D03*
D42*
X152473293Y-114572915D03*
X151973167Y-114572915D03*
X151473041Y-114572915D03*
X150972915Y-114572915D03*
X150472789Y-114572915D03*
X149972663Y-114572915D03*
X149472537Y-114572915D03*
X148972411Y-114572915D03*
X148472285Y-114572915D03*
X147972159Y-114572915D03*
X147472033Y-114572915D03*
X146971907Y-114572915D03*
D43*
X146245200Y-115299622D03*
X146245200Y-115799748D03*
X146245200Y-116299874D03*
X146245200Y-116800000D03*
X146245200Y-117300126D03*
X146245200Y-117800252D03*
X146245200Y-118300378D03*
X146245200Y-118800504D03*
X146245200Y-119300630D03*
X146245200Y-119800756D03*
X146245200Y-120300882D03*
X146245200Y-120801008D03*
D44*
X149722600Y-118050315D03*
%TD*%
D45*
%TO.C,FL302*%
X143734000Y-133900000D03*
X144384000Y-133900000D03*
X145034000Y-133900000D03*
X145034000Y-132100000D03*
X144384000Y-132100000D03*
X143734000Y-132100000D03*
%TD*%
D12*
%TO.C,R207*%
X152222000Y-108966000D03*
X152222000Y-110616000D03*
%TD*%
D46*
%TO.C,J502*%
X122300000Y-129900000D03*
D24*
X122300000Y-134900000D03*
%TD*%
D18*
%TO.C,F504*%
X177587700Y-141400000D03*
X171212300Y-141400000D03*
%TD*%
D47*
%TO.C,F501*%
X121018300Y-96393000D03*
X127393700Y-96393000D03*
%TD*%
D12*
%TO.C,R508*%
X153700000Y-101700000D03*
X153700000Y-103350000D03*
%TD*%
D32*
%TO.C,F505*%
X162412300Y-135400000D03*
X168787700Y-135400000D03*
%TD*%
D48*
%TO.C,J:5V*%
X166250000Y-116500000D03*
X164950000Y-116500000D03*
%TD*%
D45*
%TO.C,FL301*%
X138001332Y-133090412D03*
X138651332Y-133090412D03*
X139301332Y-133090412D03*
X139301332Y-131290412D03*
X138651332Y-131290412D03*
X138001332Y-131290412D03*
%TD*%
D40*
%TO.C,R504*%
X166765000Y-131025000D03*
X166765000Y-129375000D03*
%TD*%
D49*
%TO.C,J505*%
X160850000Y-142867500D03*
D24*
X165850000Y-142867500D03*
%TD*%
D50*
%TO.C,C504*%
X168785000Y-131265000D03*
X170685000Y-131265000D03*
%TD*%
D12*
%TO.C,R209*%
X148830000Y-108966000D03*
X148830000Y-110616000D03*
%TD*%
D51*
%TO.C,C206*%
X152234843Y-123955478D03*
X150965157Y-124844522D03*
%TD*%
D11*
%TO.C,UART3*%
X173525400Y-124020000D03*
X173525400Y-122020000D03*
%TD*%
D37*
%TO.C,5V*%
X168900000Y-117700000D03*
%TD*%
D46*
%TO.C,J501*%
X122387700Y-103350000D03*
D24*
X122387700Y-108350000D03*
%TD*%
D16*
%TO.C,J302*%
X143600000Y-140000000D03*
D17*
X146140000Y-142540000D03*
X146140000Y-137460000D03*
X141060000Y-142540000D03*
X141060000Y-137460000D03*
%TD*%
D19*
%TO.C,C606*%
X129925000Y-101300000D03*
X131475000Y-101300000D03*
%TD*%
M02*
